<?xml version="1.0" encoding="UTF-8"?>
<svg width="71px" height="47px" viewBox="0 0 71 47" version="1.1" xmlns="http://www.w3.org/2000/svg" xmlns:xlink="http://www.w3.org/1999/xlink">
    <!-- Generator: Sketch 48.1 (47250) - http://www.bohemiancoding.com/sketch -->
    <title>Afghanistan@2x</title>
    <desc>Created with Sketch.</desc>
    <defs></defs>
    <g id="Flags" stroke="none" stroke-width="1" fill="none" fill-rule="evenodd" transform="translate(-70.000000, -70.000000)">
        <g transform="translate(70.000000, 70.000000)" fill-rule="nonzero" id="Afghanistan">
            <g>
                <rect id="Rectangle-path" fill="#ED5565" x="23.28" y="0" width="24" height="47"></rect>
                <path d="M6.65,0 C4.96149117,-0.00265489138 3.34123007,0.6662424 2.14633501,1.85926164 C0.951439956,3.05228088 0.279997913,4.67148908 0.28,6.36 L0.28,40.64 C0.279997913,42.3285109 0.951439956,43.9477191 2.14633501,45.1407384 C3.34123007,46.3337576 4.96149117,47.0026549 6.65,47 L23.28,47.0000079 L23.28,-7.87295647e-06 L6.65,0 Z" id="Shape" fill="#434A54"></path>
                <path d="M63.92,0 L47.28,0 L47.28,47 L63.92,47 C67.432531,47 70.28,44.152531 70.28,40.64 L70.28,6.36 C70.28,2.84746899 67.432531,2.15080493e-16 63.92,0 Z" id="Shape" fill="#57A863"></path>
                <path d="M40.45,16.9 C43.2982907,19.7517376 43.296428,24.3722368 40.4458389,27.221677 C37.5952498,30.0711172 32.9747502,30.0711172 30.1241611,27.221677 C27.273572,24.3722368 27.2717093,19.7517376 30.12,16.9 L28.21,15 C24.3079534,18.90639 24.3103006,25.2360173 28.2152434,29.1395122 C32.1201862,33.0430072 38.4498138,33.0430072 42.3547566,29.1395122 C46.2596994,25.2360173 46.2620466,18.90639 42.36,15 L40.45,16.9 Z M37.39,19.35 L38.15,19.35 L38.15,17.91 L37.39,17.91 L37.39,19.35 Z M38.15,17.58 L37.39,17.58 L37.39,17.75 L38.15,17.75 L38.15,17.58 Z M37.77,16.8 C37.5230504,16.8872368 37.3558305,17.1181597 37.35,17.38 L38.19,17.38 C38.2050718,17.1093512 38.03067,16.8643581 37.77,16.79 L37.77,16.8 Z M32.43,19.34 L33.19,19.34 L33.19,17.91 L32.43,17.91 L32.43,19.34 Z M33.19,17.57 L32.43,17.57 L32.43,17.74 L33.19,17.74 L33.19,17.57 Z M32.81,16.79 C32.5630504,16.8772368 32.3958305,17.1081597 32.39,17.37 L33.23,17.37 C33.2403109,17.1030032 33.0668849,16.8635102 32.81,16.79 Z M38.27,20.12 L38.76,19.59 L37.23,19.59 L36.49,19.07 L34.09,19.07 L33.39,19.61 L31.8,19.61 L32.28,20.14 L38.27,20.12 Z M34.27,18.77 L36.34,18.77 C36.5972558,18.5529291 36.734848,18.2256827 36.71,17.89 C36.7504387,17.2929064 36.3061066,16.7730378 35.71,16.72 L35.64,16.72 C35.5520238,16.7154849 35.474355,16.6611168 35.44,16.58 C35.4238942,16.3775073 35.390438,16.1767706 35.34,15.98 C35.2987131,16.1744062 35.2719724,16.371619 35.26,16.57 C35.2277909,16.6560265 35.1509986,16.7174603 35.06,16.73 C34.7682619,16.73 34.4884726,16.8458925 34.2821825,17.0521825 C34.0758925,17.2584726 33.96,17.5382619 33.96,17.83 C33.96,17.83 33.96,17.83 33.96,17.9 C33.9095841,18.2349698 34.0432952,18.5711578 34.31,18.78 L34.27,18.77 Z M38.95,25.67 L31.64,25.67 L30.85,26.32 L39.73,26.32 L38.95,25.67 Z M37.41,25.39 L38.17,25.39 L38.17,20.63 L37.41,20.63 L37.41,25.39 Z M32.41,25.39 L33.17,25.39 L33.17,20.61 L32.41,20.61 L32.41,25.37 L32.41,25.39 Z M41.51,24.31 C41.5011103,24.1935027 41.5011103,24.0764973 41.51,23.96 L41.51,23.91 C41.51,23.83 41.51,23.75 41.51,23.67 C41.5018721,23.312988 41.3505176,22.9742422 41.09,22.73 C40.68,22.42 40.5,22.05 40.38,22.02 L40.43,21.93 L40.49,21.93 C40.6101729,21.9298758 40.708011,21.8333433 40.7097496,21.7131829 C40.7114882,21.5930225 40.6164839,21.4936999 40.4963649,21.4900989 C40.3762459,21.4864979 40.2754625,21.5799513 40.27,21.7 C40.2702534,21.7557998 40.2917009,21.8094185 40.33,21.85 L38.5,25 L38.6,25.06 L39.67,23.2 C39.8742279,23.3290626 40.0711928,23.469275 40.26,23.62 L40.31,23.68 C40.4570076,23.9776183 40.5485046,24.2995519 40.58,24.63 L40.58,24.7 C40.5846061,24.9933111 40.6906083,25.2759836 40.88,25.5 C41.0909185,25.2424592 41.3180461,24.9986311 41.56,24.77 C41.5895295,24.6043438 41.5686266,24.4336371 41.5,24.28 L41.51,24.31 Z M28.89,24.31 C28.8989286,24.1935042 28.8989286,24.0764958 28.89,23.96 L28.89,23.91 C28.89,23.83 28.89,23.75 28.89,23.67 C28.8981279,23.312988 29.0494824,22.9742422 29.31,22.73 C29.72,22.43 29.9,22.05 30.02,22.02 L30,21.91 L29.94,21.91 C29.8198271,21.9098758 29.721989,21.8133433 29.7202504,21.6931829 C29.7185118,21.5730225 29.8135161,21.4736999 29.9336351,21.4700989 C30.0537541,21.4664979 30.1545375,21.5599513 30.16,21.68 C30.1597466,21.7357998 30.1382991,21.7894185 30.1,21.83 L31.92,25 L31.82,25.06 L30.75,23.2 C30.5457721,23.3290626 30.3488072,23.469275 30.16,23.62 L30.11,23.68 C29.9629924,23.9776183 29.8714954,24.2995519 29.84,24.63 L29.84,24.7 C29.8353939,24.9933111 29.7293917,25.2759836 29.54,25.5 C29.3290815,25.2424592 29.1019539,24.9986311 28.86,24.77 C28.8304705,24.6043438 28.8513734,24.4336371 28.92,24.28 L28.89,24.31 Z" id="Shape" fill="#FFFFFF"></path>
            </g>
        </g>
    </g>
</svg>