<?xml version="1.0" encoding="UTF-8"?>
<svg width="71px" height="48px" viewBox="0 0 71 48" version="1.1" xmlns="http://www.w3.org/2000/svg" xmlns:xlink="http://www.w3.org/1999/xlink">
    <!-- Generator: Sketch 48.1 (47250) - http://www.bohemiancoding.com/sketch -->
    <title>Afrika@2x</title>
    <desc>Created with Sketch.</desc>
    <defs></defs>
    <g id="Flags" stroke="none" stroke-width="1" fill="none" fill-rule="evenodd" transform="translate(-239.000000, -1418.000000)">
        <g transform="translate(70.000000, 70.000000)" fill-rule="nonzero" id="Afrika">
            <g transform="translate(169.000000, 1348.000000)">
                <path d="M64.16,0.3 L6.89,0.3 C3.37746899,0.3 0.53,3.14746899 0.53,6.66 L0.53,40.93 C0.53,44.442531 3.37746899,47.29 6.89,47.29 L64.16,47.29 C67.672531,47.29 70.52,44.442531 70.52,40.93 L70.52,6.66 C70.52,3.14746899 67.672531,0.3 64.16,0.3 Z" id="Shape" fill="#4A88DC"></path>
                <path d="M44.67,12.81 C45.2984829,14.2311205 46.0584567,15.5903689 46.94,16.87 C47.94,18.34 49.44,19.87 51.22,19.65 C51.7,19.6 52.39,19.55 52.47,20.03 C52.4960276,20.141839 52.4960276,20.258161 52.47,20.37 C51.96,21.99 50.53,23.11 49.28,24.26 C48.03,25.41 46.81,26.89 46.94,28.59 C47.0689639,29.3625255 47.2767146,30.1198105 47.56,30.85 C47.8413259,31.5926499 47.7866007,32.4208255 47.41,33.12 C46.8,34.03 45.33,34.3 45.09,35.37 C44.98,35.88 45.2,36.44 44.98,36.91 C44.76,37.38 43.89,37.64 43.53,38.18 C43.3391859,38.6080679 43.2176681,39.0637598 43.17,39.53 C42.8576924,40.6570888 42.1188442,41.6183087 41.11,42.21 C40.001613,42.6391579 38.8280804,42.8758936 37.64,42.91 C37.4010618,42.9600024 37.1520856,42.9208775 36.94,42.8 C36.7908441,42.664154 36.6862652,42.4863699 36.64,42.29 L33.59,33.68 C33.3135731,33.0509439 33.1869168,32.3663154 33.22,31.68 C33.33,30.75 34.01,29.93 33.94,29 C33.83,27.38 31.55,26.44 31.69,24.82 C31.75,24.11 32.23,23.21 31.64,22.82 C31.405881,22.7134513 31.1559177,22.6458936 30.9,22.62 C30.25,22.45 29.84,21.8 29.23,21.51 C28.4409896,21.2348728 27.5689268,21.3420331 26.87,21.8 C26.1877829,22.2568451 25.4565617,22.6358726 24.69,22.93 C23.3829298,23.2124218 22.0220599,22.8090615 21.08,21.86 C20.1620822,20.914 19.4981853,19.7513206 19.15,18.48 C18.48,16.37 18.31,13.9 19.6,12.1 C20.53,10.81 22.1,10.05 22.91,8.67 C23.23,8.13 23.42,7.51 23.74,6.97 C24.0380542,6.4083506 24.5972957,6.03302076 25.23,5.97 C25.5666673,6.00971791 25.9006143,6.06982838 26.23,6.15 C27.23,6.27 28.07,5.59 29.01,5.35 C30.8,4.88 32.63,6 33.9,7.35 C34.5037788,8.18511818 35.3277721,8.83600363 36.28,9.23 C36.4351481,9.28572459 36.6048519,9.28572459 36.76,9.23 C37.02,9.11 37.08,8.77 37.23,8.53 C37.7036039,7.98458423 38.4897016,7.83563939 39.13,8.17 C39.7443287,8.5091456 40.399697,8.76793204 41.08,8.94 C41.7970102,8.90467603 42.5096446,8.80765068 43.21,8.65 C43.93,8.65 44.8,9.04 44.75,9.76 C44.6563098,10.1212874 44.4932866,10.4609189 44.27,10.76 C44.1573715,10.9677323 44.1219442,11.2086376 44.17,11.44 C44.3100337,11.9059513 44.4769808,12.3633865 44.67,12.81 Z M51.24,31.41 C51.2169477,31.6064559 51.1767953,31.8005254 51.12,31.99 C50.9223498,32.279097 50.6337166,32.493812 50.3,32.6 C49.81,32.77 49.23,32.91 49.01,33.38 C48.79,33.85 49.01,34.32 49.01,34.79 C48.9286793,35.1388441 48.80087,35.4751846 48.63,35.79 C48.469106,36.1761811 48.3907621,36.5917448 48.4,37.01 C48.3932206,37.3711404 48.509607,37.7238265 48.73,38.01 C48.9676492,38.311744 49.3812881,38.4110173 49.73,38.25 C49.8829217,38.1526342 50.0126342,38.0229217 50.11,37.87 C51.4170673,36.0961894 52.1938326,33.9878264 52.35,31.79 C52.3987844,31.518397 52.3491467,31.2382988 52.21,31 C52.120309,30.8641722 51.9616121,30.7906297 51.8,30.81 C51.56,30.85 51.39,30.9 51.23,31.4 L51.24,31.41 Z" id="Shape" fill="#FFFFFF"></path>
            </g>
        </g>
    </g>
</svg>