<?xml version="1.0" encoding="UTF-8"?>
<svg width="71px" height="47px" viewBox="0 0 71 47" version="1.1" xmlns="http://www.w3.org/2000/svg" xmlns:xlink="http://www.w3.org/1999/xlink">
    <!-- Generator: Sketch 48.1 (47250) - http://www.bohemiancoding.com/sketch -->
    <title>Albania@2x</title>
    <desc>Created with Sketch.</desc>
    <defs></defs>
    <g id="Flags" stroke="none" stroke-width="1" fill="none" fill-rule="evenodd" transform="translate(-239.000000, -70.000000)">
        <g transform="translate(70.000000, 70.000000)" fill-rule="nonzero" id="Albania">
            <g transform="translate(169.000000, 0.000000)">
                <rect id="Rounded_Rectangle_7_copy-12" fill="#ED5565" x="0.52" y="0" width="70" height="47" rx="6.36"></rect>
                <path d="M35.52,14.2 C35.13,14.13 35.12,14.01 35.32,13.73 C35.4,13.61 35.32,13.54 35.07,13.62 C34.8436871,13.5977206 34.6441241,13.4621684 34.54,13.26 C34.45,13.14 34.46,13.12 34.54,13.12 C34.6781679,13.1037456 34.8076662,13.0442464 34.91,12.95 C34.97,12.88 34.91,12.79 34.8,12.82 C34.4939474,12.7765579 34.215473,12.6194697 34.02,12.38 C33.94,12.27 33.92,12.21 34.02,12.17 C34.1530922,12.1232254 34.2779634,12.0557274 34.39,11.97 C34.49,11.9 34.39,11.81 34.25,11.78 C33.9598669,11.6990277 33.6993808,11.5357898 33.5,11.31 C33.44,11.24 33.39,11.15 33.56,11.11 C33.8206517,10.9999184 34.0530943,10.832423 34.24,10.62 C34.35,10.46 34.36,10.29 34.05,10.43 C33.6229986,10.5788693 33.1644612,10.6133458 32.72,10.53 C31.93,10.14 30.78,9.64 30.34,10.37 C29.59,10.37 28.69,10.28 28.86,11.24 C28.9834549,11.231119 29.0915596,11.1539013 29.14,11.04 C29.2637756,10.894424 29.4732307,10.8567221 29.64,10.95 C29.82,11.02 29.97,11.12 29.84,11.29 C29.6907594,11.391716 29.5050416,11.4244897 29.33,11.38 C29.1154411,11.3318136 28.8984668,11.2950948 28.68,11.27 C28.4762714,11.2103455 28.3062087,11.0692297 28.21,10.88 C28.1,10.66 27.81,10.39 27.63,10.55 C27.45,10.71 27.63,10.97 27.85,11.14 C28.0577106,11.3293833 28.313867,11.4574615 28.59,11.51 C28.8060064,11.5162258 29.0206541,11.5464107 29.23,11.6 C29.4193545,12.1093295 29.9444154,12.4117646 30.48,12.32 C31.1940407,12.3569922 31.8713922,12.6477923 32.39,13.14 C33.24,13.87 33.84,16.27 32.39,16.27 C31.49,16.27 31.63,15.34 31.66,14.81 C31.6973283,14.2256995 31.3481634,13.6857119 30.8,13.48 C30.19,13.25 28.95,12.81 28.6,12.61 C28.46,12.51 28.32,12.86 28.3,13.07 C28.28,13.28 28.13,13.22 27.69,13.07 C26.4741998,12.7661107 25.4259139,11.9978464 24.77,10.93 C24.23,9.87 23.21,10.93 23.72,11.8 C24.33,12.87 26.36,13.74 27.65,13.92 C27.8985281,13.92 28.1,14.1214719 28.1,14.37 C28.1,14.6185281 27.8985281,14.82 27.65,14.82 C26.47,14.99 25.32,14.97 24.65,14 C24.1,13.26 23.55,13.93 23.79,14.51 C24.3,15.77 26.04,16.3 27.73,15.45 C28.13,15.25 28.56,15.28 28.22,15.78 C27.35,17.02 26.22,17.22 24.73,16.29 C24.3,16.02 23.97,16.06 23.87,16.23 C23.7697416,16.358326 23.7249566,16.5214128 23.7456176,16.6829443 C23.7662786,16.8444758 23.8506701,16.99104 23.98,17.09 L24.12,17.17 C25.1036388,17.9086908 26.4324889,17.9912525 27.5,17.38 C27.9,17.17 28.63,16.99 27.99,17.88 C27.35,18.77 25.68,19.22 24.99,18.72 C24.3,18.22 23.47,18.72 23.99,19.45 C24.5504972,20.0539586 25.460578,20.1755823 26.16,19.74 C26.67,19.45 27.46,19.07 27.79,18.91 C28.12,18.75 28.28,19.02 27.9,19.47 C27.05,20.47 26.18,21.31 25.01,20.91 C24.33,20.68 23.71,20.65 23.89,21.51 C24.07,22.37 25.47,22.43 26.16,22 C26.8201185,21.6369991 27.4373289,21.2009265 28,20.7 C28.42,20.29 28.83,20.3 28.37,21 C27.37,22.57 26.45,23.72 24.96,23.43 C23.47,23.14 23.96,24.01 24.23,24.27 C25.07,25.03 26.56,24.83 28.33,22.58 C28.47,22.4 28.7,22.46 28.58,22.78 C27.79,24.88 26.48,26.24 25.2,25.91 C24.54,25.74 23.89,26.12 24.56,26.73 C25.23,27.34 26.71,27.16 27.7,26.02 C28.3858549,25.2843884 28.9987257,24.4839725 29.53,23.63 C29.75,23.2 30.08,23.19 30.04,23.74 C29.9683602,24.5430058 29.5479635,25.2741304 28.89,25.74 C28.52,25.92 28.2,26.34 28.89,26.66 C29.58,26.98 30.4,25.66 31.06,23.84 C31.0986599,23.6936445 31.2486445,23.6063401 31.395,23.645 C31.5413555,23.6836599 31.6286599,23.8336445 31.59,23.98 C31.5721506,24.4935817 31.3572958,24.9805858 30.99,25.34 C30.69,25.63 30.92,26.1 31.34,25.91 C31.8934109,25.6700033 32.3212541,25.209528 32.52,24.64 C32.65,24.31 32.93,24.2 32.77,24.71 C32.2845139,26.0868939 31.2214724,27.1828129 29.86,27.71 C30.07,27.92 30.26,28.16 30.44,28.35 C29.59,28.8 28.7,29.1 27.99,29.4 C27.5029514,29.1384233 27.0607321,28.8008513 26.68,28.4 C26.5997985,28.0107207 26.2193333,27.7600613 25.83,27.84 L25.64,27.91 C25,27.65 24.54,27.72 24.5,28.34 C24.8323811,28.1997892 25.2145156,28.2494667 25.5,28.47 C25.6688534,28.7912574 26.055236,28.9301815 26.39,28.79 C26.81,29.05 27.16,29.3 27.39,29.48 C26.6,29.48 26.02,29.42 25.6,29.37 C25.3982526,29.0471424 24.9731328,28.9486936 24.65,29.15 L24.54,29.24 C24.3399419,29.1680747 24.1190486,29.1820631 23.9296617,29.2786504 C23.7402748,29.3752377 23.5992487,29.5458283 23.54,29.75 C23.844326,29.6661209 24.165674,29.6661209 24.47,29.75 C24.6969284,30.0750814 25.1439585,30.1555468 25.47,29.93 L25.55,29.87 L27.34,29.87 L26.34,30.47 C25.52,30.3 25.08,30.63 25.14,31.24 C24.9150103,31.5438252 24.9402962,31.9652564 25.2,32.24 C25.2579738,31.9527871 25.3927581,31.6866745 25.59,31.47 C25.8085492,31.5365636 26.0452937,31.5039651 26.2377199,31.3808123 C26.4301461,31.2576596 26.5589061,31.0563352 26.59,30.83 L27.49,30.23 C27.6711685,30.0479058 27.955534,30.0186329 28.17,30.16 C28.54,30.33 28.89,30.48 29.11,30.6 C29.1447378,30.7947443 29.283179,30.9549069 29.4708458,31.0174625 C29.6585127,31.0800181 29.8653632,31.0349528 30.01,30.9 C30.2120299,31.030544 30.3745491,31.2138104 30.48,31.43 C30.5557966,31.1026366 30.4621117,30.7590906 30.2306227,30.5155239 C29.9991337,30.2719572 29.660792,30.1609362 29.33,30.22 L28.53,29.85 C29.07,29.65 30.44,29.12 30.93,28.91 C31.2795395,29.2796259 31.7614839,29.4954218 32.27,29.51 C32.3729106,29.1210621 32.5276289,28.74772 32.73,28.4 C33.0494636,27.6882047 33.4522811,27.0168421 33.93,26.4 C34.3,25.95 34.68,26.21 34.66,26.83 C34.6,28.33 33.53,30.58 31.95,30.66 C31.41,30.66 31.2,30.8 31.49,31.22 C31.9427875,31.6206324 32.6141493,31.649822 33.1,31.29 C33.58,30.93 33.74,30.95 33.65,31.43 C33.4979473,31.8511052 33.0977142,32.1312684 32.65,32.13 C32.07,32.13 31.4,32.39 31.94,32.9 C32.48,33.41 33.37,33.13 34.02,32.36 C34.25,32.09 34.42,32.02 34.41,32.45 C34.4440649,33.0431873 34.0746353,33.5850174 33.51,33.77 C33.07,33.87 32.62,33.99 32.75,34.26 C33.0426684,34.6712268 33.5959097,34.7998876 34.04,34.56 C34.4128485,34.3644041 34.7217394,34.0659253 34.93,33.7 C35.01,33.46 35.18,33.59 35.14,33.93 C35.04,34.64 34.56,34.63 34.56,35.22 C34.6866261,35.9135334 35.0380477,36.5460923 35.56,37.02 C36.0819523,36.5460923 36.4333739,35.9135334 36.56,35.22 C36.56,34.63 36.07,34.65 35.98,33.93 C35.98,33.6 36.1,33.46 36.19,33.7 C36.3982606,34.0659253 36.7071515,34.3644041 37.08,34.56 C37.5240903,34.7998876 38.0773316,34.6712268 38.37,34.26 C38.49,34 38.05,33.87 37.61,33.77 C37.0453647,33.5850174 36.6759351,33.0431873 36.71,32.45 C36.71,32.02 36.87,32.1 37.1,32.36 C37.75,33.13 38.64,33.42 39.18,32.9 C39.72,32.38 39.06,32.17 38.47,32.13 C38.0222858,32.1312684 37.6220527,31.8511052 37.47,31.43 C37.37,30.94 37.54,30.92 38.02,31.29 C38.5058507,31.649822 39.1772125,31.6206324 39.63,31.22 C39.93,30.81 39.71,30.69 39.17,30.66 C37.59,30.57 36.52,28.33 36.46,26.83 C36.46,26.21 36.81,25.95 37.19,26.4 C37.6677189,27.0168421 38.0705364,27.6882047 38.39,28.4 C38.5922627,28.7477737 38.7469748,29.1211008 38.85,29.51 C39.3585161,29.4954218 39.8404605,29.2796259 40.19,28.91 C40.68,29.12 42.04,29.65 42.59,29.85 L41.79,30.22 C41.4554987,30.1557151 41.1112795,30.2661178 40.8765696,30.5129678 C40.6418597,30.7598179 40.5489419,31.1091628 40.63,31.44 C40.7358731,31.2240932 40.8983013,31.0409294 41.1,30.91 C41.2446368,31.0449528 41.4514873,31.0900181 41.6391542,31.0274625 C41.826821,30.9649069 41.9652622,30.8047443 42,30.61 C42.22,30.48 42.57,30.34 42.94,30.17 C43.154466,30.0286329 43.4388315,30.0579058 43.62,30.24 L44.52,30.84 C44.57216,31.2638845 44.9555124,31.5670004 45.38,31.52 L45.53,31.52 C45.7272419,31.7366745 45.8620262,32.0027871 45.92,32.29 C46.1797038,32.0152564 46.2049897,31.5938252 45.98,31.29 C46.04,30.68 45.59,30.35 44.78,30.52 L43.78,29.92 L45.57,29.92 C45.8489675,30.1892355 46.2910325,30.1892355 46.57,29.92 L46.63,29.84 C46.934326,29.7561209 47.255674,29.7561209 47.56,29.84 C47.5104925,29.640553 47.3833141,29.4691706 47.206769,29.3639949 C47.030224,29.2588191 46.8189618,29.2285773 46.62,29.28 C46.4897469,29.1430356 46.3090108,29.0654997 46.12,29.0654997 C45.9309892,29.0654997 45.7502531,29.1430356 45.62,29.28 L45.53,29.39 C45.11,29.39 44.53,29.48 43.74,29.5 C43.99,29.33 44.34,29.07 44.74,28.81 C45.074764,28.9501815 45.4611466,28.8112574 45.63,28.49 C45.9154844,28.2694667 46.2976189,28.2197892 46.63,28.36 C46.63,27.74 46.13,27.67 45.49,27.93 C45.2937955,27.840381 45.0677468,27.84345 44.8740477,27.9383626 C44.6803485,28.0332752 44.5394066,28.2100316 44.49,28.42 C44.1091538,28.8207242 43.666956,29.1582797 43.18,29.42 C42.47,29.12 41.58,28.82 40.73,28.37 C40.92,28.18 41.1,27.94 41.31,27.73 C39.9485276,27.2028129 38.8854861,26.1068939 38.4,24.73 C38.24,24.22 38.53,24.33 38.65,24.66 C38.8487459,25.229528 39.2765891,25.6900033 39.83,25.93 C40.24,26.12 40.48,25.64 40.18,25.36 C39.8127042,25.0005858 39.5978494,24.5135817 39.58,24 C39.5549914,23.9053246 39.5823912,23.804499 39.6518782,23.7355033 C39.7213652,23.6665075 39.8223826,23.6398237 39.9168782,23.6655033 C40.0113738,23.6911829 40.0849914,23.7653246 40.11,23.86 C40.78,25.72 41.59,26.99 42.28,26.68 C42.97,26.37 42.65,25.95 42.28,25.76 C41.6220365,25.2941304 41.2016398,24.5630058 41.13,23.76 C41.13,23.2 41.42,23.22 41.64,23.65 C42.1417291,24.4858299 42.7209455,25.2726267 43.37,26 C44.37,27.14 45.75,27.4 46.51,26.71 C47.27,26.02 46.51,25.71 45.87,25.89 C44.6,26.22 43.28,24.89 42.49,22.76 C42.37,22.44 42.6,22.39 42.74,22.56 C44.51,24.81 45.99,25 46.84,24.25 C47.14,23.98 47.48,23.14 46.11,23.41 C44.74,23.68 43.74,22.55 42.7,20.98 C42.24,20.28 42.7,20.27 43.07,20.68 C43.6000677,21.1822073 44.1835467,21.6248465 44.81,22 C45.5,22.43 46.9,22.37 47.08,21.51 C47.26,20.65 46.64,20.68 45.96,20.91 C44.78,21.31 43.96,20.47 43.07,19.47 C42.69,19.02 42.85,18.76 43.18,18.91 C43.51,19.06 44.3,19.45 44.81,19.74 C45.509422,20.1755823 46.4195028,20.0539586 46.98,19.45 C47.52,18.68 46.68,18.22 45.98,18.72 C45.28,19.22 43.64,18.72 42.98,17.88 C42.32,17.04 43.06,17.17 43.47,17.38 C44.5375111,17.9912525 45.8663612,17.9086908 46.85,17.17 C47.0268245,17.0977105 47.1595727,16.9467597 47.2086719,16.7621468 C47.2577711,16.5775338 47.2175505,16.3805807 47.1,16.23 C47,16.06 46.67,16.02 46.24,16.29 C44.78,17.21 43.62,17.02 42.75,15.78 C42.4,15.28 42.83,15.25 43.24,15.45 C44.93,16.3 46.67,15.77 47.18,14.51 C47.42,13.92 46.88,13.25 46.32,14 C45.6,15 44.45,15 43.32,14.82 C43.0714719,14.82 42.87,14.6185281 42.87,14.37 C42.87,14.1214719 43.0714719,13.92 43.32,13.92 C44.61,13.75 46.64,12.92 47.25,11.8 C47.76,10.91 46.74,9.87 46.2,10.93 C45.5440861,11.9978464 44.4958002,12.7661107 43.28,13.07 C42.84,13.21 42.68,13.2 42.67,13.07 C42.66,12.94 42.5,12.51 42.37,12.61 C42.02,12.81 40.78,13.25 40.17,13.48 C39.6218366,13.6857119 39.2726717,14.2256995 39.31,14.81 C39.31,15.34 39.48,16.27 38.58,16.27 C37.14,16.27 37.74,13.87 38.58,13.14 C39.0986078,12.6477923 39.7759593,12.3569922 40.49,12.32 C41.024868,12.4052874 41.5450314,12.0990622 41.73,11.59 C41.9393459,11.5364107 42.1539936,11.5062258 42.37,11.5 C42.646133,11.4474615 42.9022894,11.3193833 43.11,11.13 C43.29,10.96 43.51,10.7 43.33,10.54 C43.15,10.38 42.87,10.65 42.75,10.87 C42.6537913,11.0592297 42.4837286,11.2003455 42.28,11.26 C42.0615332,11.2850948 41.8445589,11.3218136 41.63,11.37 C41.4549584,11.4144897 41.2692406,11.381716 41.12,11.28 C40.99,11.11 41.12,11.01 41.32,10.94 C41.4867693,10.8467221 41.6962244,10.884424 41.82,11.03 C41.8684404,11.1439013 41.9765451,11.221119 42.1,11.23 C42.27,10.23 41.37,10.31 40.62,10.36 C40.18,9.63 39.03,10.13 38.24,10.52 C37.7955388,10.6033458 37.3370014,10.5688693 36.91,10.42 C36.59,10.28 36.61,10.42 36.72,10.61 C36.9069057,10.822423 37.1393483,10.9899184 37.4,11.1 C37.57,11.1 37.51,11.23 37.46,11.3 C37.2606192,11.5257898 37.0001331,11.6890277 36.71,11.77 C36.53,11.77 36.47,11.88 36.57,11.96 C36.6820366,12.0457274 36.8069078,12.1132254 36.94,12.16 C37.08,12.16 37.07,12.26 36.94,12.37 C36.744527,12.6094697 36.4660526,12.7665579 36.16,12.81 C36.01,12.81 35.99,12.87 36.05,12.94 C36.1523338,13.0342464 36.2818321,13.0937456 36.42,13.11 C36.53,13.11 36.54,13.11 36.42,13.25 C36.3158759,13.4521684 36.1163129,13.5877206 35.89,13.61 C35.62,13.53 35.55,13.61 35.64,13.72 C35.92,14 35.91,14.13 35.52,14.2 Z M31.86,11 C31.6547643,10.8774777 31.4058922,10.8518585 31.18,10.93 C30.99,11.02 30.94,11.22 31.18,11.29 C31.399674,11.3471748 31.630326,11.3471748 31.85,11.29 C31.9207966,11.2718732 31.9703137,11.2080804 31.9703137,11.135 C31.9703137,11.0619196 31.9207966,10.9981268 31.85,10.98 L31.86,11 Z M39.2,11 C39.4052357,10.8774777 39.6541078,10.8518585 39.88,10.93 C40.07,11.02 40.12,11.22 39.88,11.29 C39.6634408,11.3450265 39.4365592,11.3450265 39.22,11.29 C39.1492034,11.2718732 39.0996863,11.2080804 39.0996863,11.135 C39.0996863,11.0619196 39.1492034,10.9981268 39.22,10.98 L39.2,11 Z" id="Shape" fill="#434A54"></path>
            </g>
        </g>
    </g>
</svg>