<?xml version="1.0" encoding="UTF-8"?>
<svg width="71px" height="47px" viewBox="0 0 71 47" version="1.1" xmlns="http://www.w3.org/2000/svg" xmlns:xlink="http://www.w3.org/1999/xlink">
    <!-- Generator: Sketch 48.1 (47250) - http://www.bohemiancoding.com/sketch -->
    <title>Algeria@2x</title>
    <desc>Created with Sketch.</desc>
    <defs></defs>
    <g id="Flags" stroke="none" stroke-width="1" fill="none" fill-rule="evenodd" transform="translate(-324.000000, -70.000000)">
        <g transform="translate(70.000000, 70.000000)" fill-rule="nonzero" id="Algeria">
            <g transform="translate(254.000000, 0.000000)">
                <path d="M63.78,-1.3190185e-12 L35.15,-7.87295647e-06 L35.15,46.9999921 L63.79,46.9999921 C67.302531,46.9999921 70.15,44.1525236 70.15,40.6399932 L70.15,6.35999893 C70.1500021,4.6714883 69.47856,3.05228037 68.283665,1.85926133 C67.0887699,0.666242288 65.4685088,-0.00265489094 63.78,-1.3190185e-12 Z" id="Shape" fill="#FFFFFF"></path>
                <path d="M6.51,0 C2.99746899,-2.15080493e-16 0.15,2.84746899 0.15,6.36 L0.15,40.64 C0.15,44.152531 2.99746899,47 6.51,47 L35.15,47 L35.15,0 L6.51,0 Z" id="Shape" fill="#57A863"></path>
                <path d="M38.59,28.82 C38.08,29.17 37.78,28.97 37.94,28.37 L38.51,26.14 C38.643708,25.472752 38.4289612,24.7833018 37.94,24.31 L36.29,22.88 C35.82,22.47 35.95,22.13 36.57,22.12 L38.9,22.12 C39.570742,22.0765121 40.1500414,21.6351412 40.37,21 L41.13,18.57 C41.31,17.98 41.63,17.97 41.84,18.57 L42.69,20.99 C42.9455152,21.6047077 43.5259884,22.0226484 44.19,22.07 L46.56,22.12 C47.18,22.12 47.3,22.47 46.83,22.87 L45,24.39 C44.5043736,24.8505876 44.2910767,25.5399937 44.44,26.2 L44.99,28.2 C45.16,28.8 44.86,29.01 44.34,28.68 L42.43,27.49 C41.845232,27.152384 41.124768,27.152384 40.54,27.49 L38.59,28.82 Z M42,32.48 C38.9402472,34.2011871 35.2020229,34.191839 32.1509167,32.4553704 C29.0998105,30.7189019 27.1827326,27.509662 27.1,24 C27.0547539,22.9889697 27.1660682,21.9770208 27.43,21 C28.8908988,15.6978038 34.3592596,12.5704733 39.67,14 C40.2152795,14.1485527 40.7471427,14.3425657 41.26,14.58 C41.4183838,14.615664 41.5798846,14.5343761 41.645595,14.3859191 C41.7113055,14.2374621 41.6628903,14.0632606 41.53,13.97 C38.2329889,11.3891889 33.8667331,10.6210033 29.8868497,11.9215401 C25.9069663,13.2220769 22.8368453,16.4203039 21.7,20.45 C21.0383957,22.8661971 21.1290937,25.4266711 21.96,27.79 C24.2604356,34.329177 31.3983491,37.7955263 37.96,35.56 C39.536702,35.0264812 40.9891698,34.1794918 42.23,33.07 C42.3478169,32.9825047 42.3962004,32.8292903 42.35,32.69 C42.293,32.5499682 42.150381,32.4643968 42,32.48 Z" id="Shape" fill="#ED5565"></path>
            </g>
        </g>
    </g>
</svg>