<?xml version="1.0" encoding="UTF-8"?>
<svg width="71px" height="48px" viewBox="0 0 71 48" version="1.1" xmlns="http://www.w3.org/2000/svg" xmlns:xlink="http://www.w3.org/1999/xlink">
    <!-- Generator: Sketch 48.1 (47250) - http://www.bohemiancoding.com/sketch -->
    <title>american_samoa@2x</title>
    <desc>Created with Sketch.</desc>
    <defs></defs>
    <g id="Flags" stroke="none" stroke-width="1" fill="none" fill-rule="evenodd" transform="translate(-493.000000, -1050.000000)">
        <g transform="translate(70.000000, 70.000000)" fill-rule="nonzero" id="american_samoa">
            <g transform="translate(423.000000, 980.000000)">
                <path d="M64.47,0.55 L6.3,0.55 C2.93179605,0.917393175 0.38043293,3.76181827 0.38,7.15 L0.38,40.87 C0.38,42.6310375 1.07956942,44.3199475 2.32481097,45.565189 C3.57005253,46.8104306 5.25896251,47.51 7.02,47.51 L63.74,47.51 C67.4071707,47.51 70.38,44.5371707 70.38,40.87 L70.38,7.15 C70.3801274,3.76524257 67.8342399,0.922119414 64.47,0.55 Z" id="Shape" fill="#4658A9"></path>
                <path d="M69.2,3.36 L11.31,24 L69.18,44.7 C69.9688692,43.5825363 70.3916336,42.2478586 70.39,40.88 L70.39,7.15 C70.3913096,5.79453667 69.9758778,4.47143881 69.2,3.36 Z" id="Shape" fill="#FFFFFF"></path>
                <path d="M69.2,3.36 C68.7213897,2.66701236 68.1136254,2.07282936 67.41,1.61 L4.62,24 L67.37,46.45 C68.0797334,45.9919436 68.6943211,45.4011246 69.18,44.71 L11.31,24 L69.2,3.36 Z" id="Shape" fill="#EC5565"></path>
                <g id="_ffc221ff" transform="translate(42.000000, 25.000000)" fill="#F6D660">
                    <path d="M2.86,0.94 C3.20502674,0.864518424 3.5404687,0.75046816 3.86,0.6 C4.24346521,1.17430681 4.7121742,1.68685189 5.25,2.12 L5.63,0.78 C5.91689203,0.786791189 6.20070015,0.840849877 6.47,0.94 C6.36051227,1.29073173 6.2736668,1.64813422 6.21,2.01 C6.04,2.75 5.89,3.51 5.69,4.24 C5.41,4.17 5.12,4.1 4.85,4.01 C4.93,3.58 5.01,3.15 5.1,2.72 C5.1,2.72 5.1,2.55 5.1,2.57 C4.41035188,2.72209956 3.7620352,3.02237255 3.2,3.45 C2.90913691,2.96192745 2.5127965,2.54508668 2.04,2.23 C1.55413183,1.87101638 1.05013365,1.53724275 0.53,1.23 C1.31369316,1.20216058 2.09339282,1.10511642 2.86,0.94 Z" id="Shape"></path>
                    <path d="M6.41,1.59 C6.58500028,1.60439382 6.75876575,1.63112697 6.93,1.67 C6.8901907,1.90621969 6.83676838,2.13994238 6.77,2.37 C6.69,2.83 6.57,3.29 6.49,3.76 C6.30374163,3.77746033 6.11625837,3.77746033 5.93,3.76 C6.07,3 6.25,2.32 6.41,1.59 Z" id="Shape"></path>
                    <path d="M9.76,2.17 C10.06,2.44 10.32,2.75 10.64,3 C10.9777367,3.28085291 11.3741136,3.48245837 11.8,3.59 C12.2013595,3.74794631 12.6164583,3.86845886 13.04,3.95 C13.04,4.14 12.41,4.04 12.24,4.16 C12.0323643,4.24992612 11.8031073,4.27771484 11.58,4.24 C10.775298,4.13305489 9.9572798,4.27987867 9.24,4.66 C9.10991548,4.33935815 9.10991548,3.98064185 9.24,3.66 C9.3,3.48 9.36,3.3 9.42,3.12 C9.47888531,2.78640868 9.59384428,2.4651998 9.76,2.17 Z" id="Shape"></path>
                    <polygon id="Shape" points="6.89 2.49 9.33 3.06 9.14 3.62 6.75 3.12"></polygon>
                    <path d="M12,3.65 L20.82,5.72 C20.8505558,5.82447841 20.8505558,5.93552159 20.82,6.04 C20.7780727,6.1407772 20.7043198,6.22506622 20.61,6.28 C18.77,5.88 13.39,4.64 11.61,4.21 C11.64,4 11.94,3.85 12,3.65 Z" id="Shape"></path>
                    <path d="M7,5.44 C7.12,5.22 7.29,4.95 7.57,4.94 C7.90000895,5.00010715 8.17789958,5.22166859 8.31,5.53 C8.46548563,5.66387373 8.51072781,5.88597168 8.42,6.07 C8.31373295,6.19610229 8.21680894,6.32979058 8.13,6.47 L8.33,6.56 C8.21589759,6.65572797 8.08772742,6.73330465 7.95,6.79 C7.89,6.79 7.87,6.88 7.85,6.93 C8.02233783,7.02088638 8.21524753,7.06566899 8.41,7.06 C9.66,7.13 10.92,7.06 12.17,7.06 C12.0334609,7.20406554 11.886388,7.33776823 11.73,7.46 C12.2961502,7.49421616 12.8638498,7.49421616 13.43,7.46 C13.8068268,7.44654167 14.1801501,7.38263949 14.54,7.27 C14.6567698,7.22547905 14.7650138,7.16120915 14.86,7.08 C14.76,7.32 14.65,7.55 14.53,7.78 C15.17,7.78 15.81,7.72 16.45,7.66 C16.0249931,7.98981691 15.4741854,8.11099462 14.95,7.99 C15.508376,8.36340219 16.1092845,8.66889198 16.74,8.9 C16.0717673,8.98752229 15.3929737,8.94679468 14.74,8.78 C14.9642567,9.25803987 15.3405087,9.64835744 15.81,9.89 C15.5707277,9.94962334 15.3187343,9.93212381 15.09,9.84 C14.6458195,9.64742868 14.2420597,9.3726006 13.9,9.03 L13.8,9.11 C13.9610074,9.35092537 14.0152915,9.64767847 13.95,9.93 C13.3517163,9.18683703 12.514058,8.67434567 11.58,8.48 L11.53,8.6 C11.7557207,8.72918507 11.9530036,8.90265789 12.11,9.11 C12.1504183,9.18677084 12.167782,9.27358909 12.16,9.36 C12.0108282,9.15904958 11.7876809,9.02588106 11.54,8.99 C11.2476882,8.98998077 10.9700027,9.11786225 10.78,9.34 C10.4492929,8.80434694 9.92136662,8.42007404 9.31,8.27 C8.78358886,8.11031933 8.2394691,8.01627394 7.69,7.99 C7.5274479,7.79392311 7.31238175,7.64823313 7.07,7.57 C6.65,7.45 6.2,7.41 5.79,7.26 C5.3,6.74 4.79,6.26 4.26,5.77 C4.27805717,5.47652248 4.42435877,5.20586452 4.66,5.03 C4.84311618,4.91926736 5.05692472,4.87019655 5.27,4.89 C5.29719379,4.99386648 5.34859612,5.08981749 5.42,5.17 C5.76892968,5.01799501 6.15234569,4.96272784 6.53,5.01 C6.74285096,5.04150101 6.92631975,5.17629441 7.02,5.37" id="Shape"></path>
                    <path d="M8.49,5.57 C9.36,5.65 16.27,5.94 17.13,6.11 C17.02,6.27 18.01,6.65 17.96,6.84 C17.18,6.84 9.29,6.18 8.51,6.13 C8.57922587,5.94829101 8.57201218,5.74630764 8.49,5.57 Z" id="Shape"></path>
                    <path d="M13.65,5.93 C13.7921165,5.9297329 13.9334934,5.90953621 14.07,5.87 C16.07,6.02 18.07,6.18 20.01,6.34 C20.1058174,6.46788137 20.1739322,6.61432809 20.21,6.77 C20.21,6.85 20.21,6.96 20.09,6.94 C19.3,6.94 18.52,6.86 17.74,6.81 L13.74,6.53 L13.65,5.93 Z" id="Shape"></path>
                </g>
                <path d="M45.4,22.85 C45.15,23.09 44.56,23.41 44.51,23.95 C44.5487445,24.4858375 44.8235225,24.9767742 45.26,25.29 C45.32,25.29 45.51,25.54 45.51,25.29 C45.5181574,25.0702963 45.58366,24.8565509 45.7,24.67 C46.1006668,24.703043 46.5039968,24.662371 46.89,24.55 C47.3344757,24.3344803 47.7426956,24.051088 48.1,23.71 L45.9,23.71 L45.4,22.85 Z" id="Shape" fill="#866F57"></path>
                <path d="M66.79,17.7 C66.22,17.18 64.63,17.83 64.17,17.95 C63.71,18.07 62.76,18.39 62.67,18.26 C62.58,18.13 62.3,18.07 61.83,17.98 L59.96,17.61 C61.2576997,16.9632447 62.475866,16.167913 63.59,15.24 C64.2322283,14.4564481 64.7576745,13.5840725 65.15,12.65 C65.66,11.45 66.15,9.65 65.93,9.37 C65.71,9.09 64.31,9.9 63.52,10.12 C63.1648717,10.2647428 62.7736843,10.2961775 62.4,10.21 C61.6454612,10.364904 60.9034315,10.5754799 60.18,10.84 C59.62,11 59.65,10.78 59.37,10.75 C59.09,10.72 57.68,11.56 56.84,11.81 C56,12.06 56.06,11.9 55.9,11.81 C55.74,11.72 52.81,12.94 50.99,13.53 C49.17,14.12 49.55,15.06 49.8,15.81 C50.05,16.56 46.43,17.28 47.49,18.81 C48.12,19.74 49.74,18.4 50.24,18.34 C50.74,18.28 50.65,18.59 50.33,19.03 C49.7638259,19.6036175 49.0820583,20.0501753 48.33,20.34 C47.55,20.68 46.24,21.34 45.89,21.5 C45.54,21.66 45.58,22.5 45.52,22.72 C45.4967049,22.7785513 45.4588418,22.8301829 45.41,22.87 L45.91,23.78 L48.1,23.78 C48.4413071,23.5004599 48.8098225,23.2558997 49.2,23.05 C50.2981356,22.6082087 51.4526422,22.3221065 52.63,22.2 C52.9064088,22.1630922 53.1868629,22.2269931 53.42,22.38 C53.7829708,22.6273661 54.2026951,22.7787421 54.64,22.82 C55.02,22.82 54.64,23.24 54.92,23.51 C55.1880821,23.7427972 55.3826537,24.0485527 55.48,24.39 C55.5575963,24.6513966 55.525087,24.9331438 55.39,25.17 C55.27,25.48 55.67,25.73 55.55,25.92 C55.43,26.11 55.55,26.45 55.49,26.92 C55.4644963,27.1970493 55.5812124,27.4681317 55.8,27.64 C55.8,27.64 56.08,27.17 56.21,26.89 C56.34,26.61 56.52,26.7 56.84,26.77 C56.9939012,26.8116295 57.1560988,26.8116295 57.31,26.77 C57.4004387,27.1253438 57.549118,27.4632513 57.75,27.77 C58.13,28.4 58.25,27.96 58.31,27.65 C58.37,27.34 58.44,27.37 58.84,27.43 C59.24,27.49 59.22,27.21 59.09,26.74 C58.96,26.27 59.34,26.4 59.68,26.55 C60.02,26.7 60.43,26.74 60.37,26.55 C60.1687971,26.2046341 59.9484536,25.8707804 59.71,25.55 C59.49,25.21 59.71,24.83 60.27,25.3 C60.83,25.77 60.96,25.46 60.93,25.24 C60.8865517,25.0429318 60.812307,24.8539452 60.71,24.68 C60.65,24.56 61.05,24.68 61.49,24.24 C61.93,23.8 61.43,23.96 61.12,24.02 C60.81,24.08 60.71,24.02 61.12,23.65 C61.53,23.28 61.25,23.24 60.9,23.24 C60.55,23.24 60.78,23.05 61.34,22.8 C61.9,22.55 61.47,22.33 61.22,22.02 C60.97,21.71 60.66,21.61 60.85,21.61 C61.04,21.61 62.32,21.61 63.04,21.61 C63.76,21.61 65.95,22.33 66.45,22.24 C66.95,22.15 67.54,21.33 67.7,20.15 C67.9069195,19.2252989 67.550391,18.2654144 66.79,17.7 Z" id="Shape" fill="#866F57"></path>
                <path d="M55.35,30.14 C55.344812,30.2242695 55.3657661,30.308086 55.41,30.38 C55.5,30.51 55.73,30.57 56.01,30.38 C56.4711389,30.0542545 56.7137336,29.4997522 56.64,28.94 C56.52,28.69 57.42,27.69 57.64,27.5 C57.86,27.31 56.89,25.84 56.89,25.84 L55.77,26.56 C55.5822613,27.1688616 55.3516858,27.7636796 55.08,28.34 C54.92,28.5 54.77,28.5 54.64,28.75 C54.51,29 54.39,29.28 54.11,29.34 C53.83,29.4 53.88,29.55 53.92,29.68 C54,29.99 54.41,30 54.58,29.96 C54.5482981,30.0333895 54.5482981,30.1166105 54.58,30.19 C54.6822477,30.2988235 54.8277822,30.3562526 54.9767907,30.3465767 C55.1257992,30.3369008 55.2626845,30.2611328 55.35,30.14 Z" id="Shape" fill="#866F57"></path>
                <path d="M53,31.17 C53.0386025,30.9360113 53.1591066,30.7233571 53.34,30.57 C53.4477218,30.4569877 53.5648054,30.353285 53.69,30.26 C53.7192498,30.3850321 53.7393034,30.5120385 53.75,30.64 C53.75,30.8 53.88,30.58 54.03,30.48 C54.0931871,30.4344675 54.1600892,30.3943262 54.23,30.36 C54.2761832,30.4447049 54.3098656,30.5356474 54.33,30.63 C54.33,30.78 54.42,30.9 54.55,30.72 L54.79,30.41 C54.8471329,30.4958482 54.8972935,30.5861372 54.94,30.68 C55.02,30.85 55.11,30.82 55.22,30.68 C55.26349,30.6333666 55.3102773,30.5899212 55.36,30.55 C55.4192489,30.5989065 55.4612983,30.6654847 55.48,30.74 C55.5663182,31.0302058 55.5486345,31.3414392 55.43,31.62 C55.3677491,31.7038834 55.2694586,31.7533404 55.165,31.7533404 C55.0605414,31.7533404 54.9622509,31.7038834 54.9,31.62 C54.7939444,31.6805912 54.6687789,31.6984719 54.55,31.67 C54.4309937,31.6375503 54.3257252,31.5673713 54.25,31.47 C54.1422878,31.5537943 54.0050058,31.5899211 53.87,31.57 C53.7688355,31.5517019 53.6789877,31.4941993 53.62,31.41 C53.4821516,31.4447114 53.3378484,31.4447114 53.2,31.41 C53.0961583,31.3701888 53.020433,31.2793185 53,31.17 Z" id="Shape" fill="#866F57"></path>
                <path d="M56,30.38 C56,30.38 56.34,30.47 56.66,30 C56.8393699,29.8026468 56.9070622,29.5281172 56.84,29.27 C56.7964558,29.1556073 56.7597248,29.038736 56.73,28.92 C56.7341554,28.671606 56.8222705,28.4319329 56.98,28.24 L56.56,27.8 L56,30.38 Z" id="Shape" fill="#866F57"></path>
                <path d="M46.58,22.13 C46.39,22.5 46.67,22.9 47.1,22.72 C47.3005668,22.6437072 47.4261294,22.4435596 47.4075398,22.2297792 C47.3889502,22.0159987 47.2307252,21.8405282 47.02,21.8 C46.9,21.8 46.85,21.95 46.97,21.99 L46.76,22.22 C46.82,22.11 46.65,22 46.59,22.12 L46.58,22.13 Z" id="Shape" fill="#FFFFFF"></path>
            </g>
        </g>
    </g>
</svg>