<?xml version="1.0" encoding="UTF-8"?>
<svg width="71px" height="48px" viewBox="0 0 71 48" version="1.1" xmlns="http://www.w3.org/2000/svg" xmlns:xlink="http://www.w3.org/1999/xlink">
    <!-- Generator: Sketch 48.1 (47250) - http://www.bohemiancoding.com/sketch -->
    <title>Angola@2x</title>
    <desc>Created with Sketch.</desc>
    <defs></defs>
    <g id="Flags" stroke="none" stroke-width="1" fill="none" fill-rule="evenodd" transform="translate(-578.000000, -1050.000000)">
        <g transform="translate(70.000000, 70.000000)" id="Angola">
            <g transform="translate(508.000000, 980.000000)">
                <path d="M70,7.17 C69.9960629,3.57964813 67.1388839,0.642733875 63.55,0.54 L6.46,0.54 C2.87111608,0.642733875 0.0139370525,3.57964813 0.01,7.17 L0.01,23.88 L70.01,23.88 L70,7.17 Z" id="Shape" fill="#EC5565" fill-rule="nonzero"></path>
                <path d="M70,40.89 L70,24.15 L0,24.15 L0,40.89 C-0.000471402379,44.3096272 2.59629434,47.1703974 6,47.5 C13.5866667,47.5 21.17,47.5 28.75,47.5 L63.58,47.5 C67.149373,47.3817008 69.9858243,44.4613047 70,40.89 Z" id="Shape" fill="#434A54" fill-rule="nonzero"></path>
                <rect id="Rectangle-path" fill="#434A54" fill-rule="nonzero" x="0.01" y="23.88" width="70" height="1"></rect>
                <path d="M34.12,31.83 C31.0622051,32.4218397 27.9003926,31.6065988 25.51,29.61 C25.3578737,29.4587215 25.1121263,29.4587215 24.96,29.61 L24.3,30.35 C24.2230573,30.4268969 24.1798275,30.531219 24.1798275,30.64 C24.1798275,30.748781 24.2230573,30.8531031 24.3,30.93 C24.7125548,31.2711098 25.1467996,31.5851022 25.6,31.87 L25.14,32.6 C25.0232864,32.7908706 25.0811356,33.0400671 25.27,33.16 C25.7661673,33.4525878 26.280552,33.7131203 26.81,33.94 C27.0198529,34.0219721 27.2565319,33.9192623 27.34,33.71 L27.65,32.92 C28.6421713,33.3059602 29.6812913,33.5581738 30.74,33.67 L30.64,34.59 C30.6288577,34.6988463 30.661684,34.8076308 30.7311741,34.8921458 C30.8006642,34.9766608 30.9010526,35.0298942 31.01,35.04 C31.5827616,35.0762112 32.1572384,35.0762112 32.73,35.04 C32.8388491,35.0323283 32.9401497,34.9815826 33.0114722,34.8989987 C33.0827946,34.8164148 33.1182543,34.7088065 33.11,34.6 L33.04,33.7 C33.5198594,33.6635987 33.997284,33.6001646 34.47,33.51 C35.0265391,33.4029745 35.5746293,33.255926 36.11,33.07 L36.4,33.89 C36.4754481,34.1018316 36.7074381,34.2133652 36.92,34.14 C37.4165252,33.9425994 37.9007322,33.715523 38.37,33.46 L35.37,31.41 C34.9630279,31.5773498 34.5454536,31.7176548 34.12,31.83 Z" id="Shape" fill="#F2D660" fill-rule="nonzero"></path>
                <path d="M40.76,30.25 L41.35,30.84 C41.4268969,30.9169427 41.531219,30.9601725 41.64,30.9601725 C41.748781,30.9601725 41.8531031,30.9169427 41.93,30.84 C42.3248873,30.4207839 42.6923171,29.976528 43.03,29.51 C43.0911293,29.4198661 43.1138861,29.3091147 43.0932495,29.2021799 C43.072613,29.0952451 43.0102791,29.0009147 42.92,28.94 L42.23,28.47 C42.8237921,27.5992323 43.3011723,26.6545575 43.65,25.66 L44.43,25.93 C44.5334268,25.9647835 44.6464526,25.956903 44.7440517,25.9081035 C44.8416509,25.8593039 44.9157707,25.7736115 44.95,25.67 C45.1217063,25.1225251 45.2586458,24.564747 45.36,24 C45.3772894,23.8925803 45.3511727,23.7826934 45.2874016,23.6945393 C45.2236305,23.6063851 45.1274351,23.5471935 45.02,23.53 L44.19,23.41 C44.339768,22.3663361 44.3565687,21.3078914 44.24,20.26 L45.08,20.17 C45.189084,20.1575196 45.2886046,20.1018084 45.3562726,20.0153438 C45.4239405,19.9288791 45.4541013,19.8188864 45.44,19.71 C45.3571304,19.1361016 45.2368746,18.5682268 45.08,18.01 C45.0128336,17.7953489 44.7852806,17.6748797 44.57,17.74 L43.76,17.99 C43.4453718,16.9868088 43.001653,16.0287797 42.44,15.14 L43.16,14.69 C43.2535484,14.6322795 43.3200013,14.5394122 43.3444438,14.4322416 C43.3688862,14.325071 43.3492707,14.212574 43.29,14.12 C42.9856906,13.6428389 42.6516992,13.1852707 42.29,12.75 C42.2131031,12.6730573 42.108781,12.6298275 42,12.6298275 C41.891219,12.6298275 41.7868969,12.6730573 41.71,12.75 L41.08,13.33 C40.3622265,12.5625388 39.5489148,11.8903804 38.66,11.33 L39.12,10.6 C39.2367136,10.4091294 39.1788644,10.1599329 38.99,10.04 C38.4938065,9.74746016 37.9794249,9.48692923 37.45,9.26 C37.2401471,9.17802788 37.0034681,9.28073766 36.92,9.49 L36.61,10.28 C36.1179748,10.0836799 35.6135489,9.91999206 35.1,9.79 C34.9939134,9.76613052 34.8826897,9.7853814 34.7907969,9.84351768 C34.6989041,9.90165395 34.6338695,9.9939134 34.61,10.1 L34.4,11.1 C34.3567908,11.3096847 34.4906922,11.5150002 34.7,11.56 C38.4941582,12.5080045 41.435743,15.5043729 42.3135821,19.3153764 C43.1914213,23.1263799 41.8570947,27.1076759 38.86,29.62 L40.3,30.72 C40.43,30.54 40.61,30.4 40.76,30.25 Z" id="Shape" fill="#F2D660" fill-rule="nonzero"></path>
                <path d="M47.15,36.57 C47.87,37.08 48.03,37.69 47.6,38.2 C47.4310283,38.3658762 47.1943987,38.4435203 46.96,38.41 C46.50494,38.3705378 46.1144521,38.0698621 45.96,37.64 C45.9255328,37.5272322 45.8596222,37.4266318 45.77,37.35 L42.98,35.35 C42.76,35.19 42.67,35.2 42.52,35.35 C42.4638908,35.4390428 42.3652243,35.492171 42.26,35.49 C42.1267236,35.4672834 42.0022173,35.4084888 41.9,35.32 L31.07,27.85 C28.79,26.41 28.26,25.2 28.43,24.01 C28.4826573,23.6687383 28.5697692,23.3336926 28.69,23.01 C28.79,22.74 28.99,22.66 29.22,22.83 C31.72,24.79 47,36.48 47.15,36.57 Z" id="Shape" fill="#F2D660"></path>
                <path d="M32.1,20.4 C32.0511787,20.4153536 31.9988213,20.4153536 31.95,20.4 C31.8624661,20.336051 31.8261202,20.2229749 31.86,20.12 L32.35,18.6 C32.4599411,18.268859 32.3425879,17.9046595 32.06,17.7 L30.76,16.76 C30.6642106,16.6985807 30.6219818,16.5802235 30.6572588,16.4720409 C30.6925357,16.3638583 30.7964176,16.2931459 30.91,16.3 L32.51,16.3 C32.8555252,16.3000284 33.1620234,16.0782205 33.27,15.75 L33.77,14.23 C33.7794934,14.1071213 33.8771213,14.0094934 34,14 C34.1083965,13.9986389 34.2053189,14.0672922 34.24,14.17 L34.73,15.69 C34.8379766,16.0182205 35.1444748,16.2400284 35.49,16.24 L37.09,16.24 C37.2035824,16.2331459 37.3074643,16.3038583 37.3427412,16.4120409 C37.3780182,16.5202235 37.3357894,16.6385807 37.24,16.7 L35.94,17.64 C35.6574121,17.8446595 35.5400589,18.208859 35.65,18.54 L36.14,20.06 C36.1770375,20.1648296 36.1403957,20.2815225 36.0500815,20.3463635 C35.9597673,20.4112045 35.8374842,20.4086114 35.75,20.34 L34.45,19.4 C34.1697065,19.1965058 33.7902935,19.1965058 33.51,19.4 L32.21,20.34 C32.1790211,20.3690134 32.1411654,20.3896619 32.1,20.4 Z" id="Shape" fill="#F2D660" fill-rule="nonzero"></path>
            </g>
        </g>
    </g>
</svg>