<?xml version="1.0" encoding="UTF-8"?>
<svg width="71px" height="48px" viewBox="0 0 71 48" version="1.1" xmlns="http://www.w3.org/2000/svg" xmlns:xlink="http://www.w3.org/1999/xlink">
    <!-- Generator: Sketch 48.1 (47250) - http://www.bohemiancoding.com/sketch -->
    <title>Anguilla@2x</title>
    <desc>Created with Sketch.</desc>
    <defs></defs>
    <g id="Flags" stroke="none" stroke-width="1" fill="none" fill-rule="evenodd" transform="translate(-831.000000, -1173.000000)">
        <g transform="translate(70.000000, 70.000000)" id="Anguilla">
            <g transform="translate(761.000000, 1103.000000)">
                <path d="M65,0.08 L6.71,0.08 C3.76062069,0.443733708 1.41205746,2.72286116 0.96,5.66 L0.96,41.38 C1.45388474,44.6219958 4.24060151,47.0178925 7.52,47.02 L64.24,47.02 C67.9071707,47.02 70.88,44.0471707 70.88,40.38 L70.88,6.66 C70.8717019,3.29311534 68.3447692,0.465357261 65,0.08 Z" id="Shape" fill="#4658A9" fill-rule="nonzero"></path>
                <path d="M25.84,0 L7.44,0 C3.80019521,0.0383735629 0.869797724,2.99999294 0.87,6.64 L0.87,24 L25.87,24 L25.84,0 Z" id="Shape" fill="#4658A9" fill-rule="nonzero"></path>
                <path d="M11.41,17.44 L11.41,24 L15.31,24 L15.31,17.29 L22,24 L25.82,24 L25.82,21 L18.82,14 L25.82,14 L25.82,10 L18.82,10 L25.82,3 L25.82,0 L22,0 L15.3,6.7 L15.3,0 L11.4,0 L11.4,6.56 L5.24,0.4 C3.67670719,0.966477572 2.38185751,2.09724162 1.61,3.57 L8,10 L0.84,10 L0.84,14 L8,14 L0.84,21.16 L0.84,24 L4.84,24 L11.41,17.44 Z" id="Shape" fill="#FFFFFF" fill-rule="nonzero"></path>
                <path d="M12.41,14.69 L12.41,24 L14.31,24 L14.31,14.55 L23.76,24 L25.84,24 L25.84,22.77 L16.06,12.99 L25.84,12.99 L25.84,11 L16.06,11 L25.84,1.22 L25.84,0 L23.75,0 L14.3,9.45 L14.3,0 L12.4,0 L12.4,9.3 L4.07,0.96 C3.3963927,1.36866358 2.80051707,1.89344041 2.31,2.51 L10.8,11 L0.87,11 L0.87,13 L10.8,13 L0.87,22.93 L0.87,24 L3.1,24 L12.41,14.69 Z" id="Shape" fill="#EC5463" fill-rule="nonzero"></path>
                <path d="M56.89,13 C56.89,13 56.6,13.19 56.43,13.28 C55.2313985,13.9062442 53.8753824,14.1670165 52.53,14.03 C51.0588412,13.9000372 49.6347327,13.4458251 48.36,12.7 C46.6099884,13.7466595 44.5683685,14.1991835 42.54,13.99 C41.5689668,13.8683335 40.6385993,13.5262867 39.82,12.99 C39.82,16.6033333 39.82,20.2166667 39.82,23.83 C39.7868341,25.1992561 40.0353028,26.5607289 40.55,27.83 C41.5114547,30.0392208 43.1550282,31.8825463 45.24,33.09 C46.2298478,33.6893115 47.2786968,34.1852529 48.37,34.57 C50.2937135,33.908432 52.0652835,32.8679322 53.58,31.51 C54.7066485,30.4893757 55.5943901,29.2328799 56.18,27.83 C56.5827697,26.8095518 56.8288863,25.734056 56.91,24.64 C56.91,22.39 56.91,20.14 56.91,17.89 C56.94,16.8 56.9,14.52 56.89,13 Z" id="Shape" stroke="#FFFFFF" stroke-width="2" stroke-linecap="round" stroke-linejoin="round"></path>
                <g id="_ffffffff-2" transform="translate(39.000000, 12.000000)" fill="#FFFFFF" fill-rule="nonzero">
                    <path d="M3.54,2 C5.5683685,2.20918347 7.60998844,1.75665946 9.36,0.71 C10.6347327,1.45582515 12.0588412,1.91003721 13.53,2.04 C14.8753824,2.17701653 16.2313985,1.91624421 17.43,1.29 C17.6,1.2 17.89,1.01 17.89,1.01 C17.89,2.56 17.89,4.84 17.89,5.87 C17.89,8.12 17.89,10.37 17.89,12.62 C17.8090386,13.7140789 17.5629168,14.7895974 17.16,15.81 L1.55,15.81 C1.03530284,14.5407289 0.786834063,13.1792561 0.82,11.81 C0.82,8.19666667 0.82,4.58333333 0.82,0.97 C1.6385993,1.50628668 2.56896679,1.84833355 3.54,1.97 L3.54,2 Z M5.74,7.39 C5.70974251,8.24309609 6.04434223,9.06868454 6.66,9.66 C7.14012014,10.094896 7.73892246,10.3768901 8.38,10.47 C8.38,9.92 7.98,9.47 7.9,8.95 L8.49,9.11 C8.35,8.59 7.84,8.22 7.84,7.65 C7.79969324,6.93820422 8.00050481,6.23360222 8.41,5.65 C9.20739087,4.70407687 10.5562515,4.4417984 11.65,5.02 C12.24,5.3 12.38,6.02 12.87,6.42 C12.94,6.17 13.01,5.85 13.3,5.76 C13.9223857,5.61923064 14.5745458,5.704295 15.14,6 C14.9675102,5.74707632 14.7288147,5.54643374 14.45,5.42 C13.8,5.09 13.04,5.09 12.38,4.8 C12.0357325,4.59703239 11.7019712,4.37674993 11.38,4.14 C10.6593088,3.72256602 9.83121215,3.52771974 9,3.58 L9.17,3.23 C7.19303292,3.63716149 5.76343866,5.36181736 5.73,7.38 L5.74,7.39 Z M3.91,7.98 C3.54839736,8.99543503 3.54839736,10.104565 3.91,11.12 C4.12612567,11.7620147 4.56164464,12.3072986 5.14,12.66 L4.9,13.01 C5.753763,13.2167924 6.63737096,13.2709599 7.51,13.17 C8.67180868,13.0649215 9.74741095,12.512779 10.51,11.63 C11.0915354,10.8446133 11.3654371,9.87350718 11.28,8.9 C10.85,9.24 10.5,9.72 9.94,9.9 C9.94,9.64 9.94,9.38 9.94,9.13 C9.77494701,9.38091729 9.63111488,9.64516703 9.51,9.92 C9.17472876,10.5698663 8.6070775,11.0696851 7.92,11.32 C7.01390321,11.7258177 5.96774498,11.669973 5.11,11.17 C4.24911952,10.5534575 3.94350645,9.41473482 4.38,8.45 C4.6,8.06 5.07,7.94 5.38,7.67 C5.14,7.61 4.85,7.54 4.75,7.28 C4.48,6.64 4.82,5.99 4.98,5.37 C4.24,6.04 4.22,7.11 3.93,8 L3.91,7.98 Z M10.34,6.39 C10.6964048,6.74560178 11.030381,7.12299485 11.34,7.52 C11.1322825,7.58449339 10.9285889,7.66129592 10.73,7.75 C11.2425197,7.90383663 11.7072222,8.18610037 12.08,8.57 C12.7854098,9.28811235 13.2321561,10.2202995 13.35,11.22 C13.3409758,12.1962969 12.7898418,13.0865902 11.92,13.53 C11.496206,13.7471886 10.993794,13.7471886 10.57,13.53 C10.195303,13.3001595 9.75867246,13.1918751 9.32,13.22 C9.52,13.39 9.86,13.55 9.75,13.87 C9.57,14.36 9.05,14.57 8.63,14.87 C9.41579175,14.9550739 10.2091745,14.8054447 10.91,14.44 C11.8750131,14.1229837 12.7831394,13.6537288 13.6,13.05 C14.1692764,12.4327501 14.5205406,11.6459182 14.6,10.81 C14.74,10.95 14.88,11.11 15.02,11.26 C15.2662285,9.90945566 14.8150317,8.52578558 13.82,7.58 C12.8711635,6.7162443 11.6098728,6.27894868 10.33,6.37 L10.34,6.39 Z" id="Shape"></path>
                    <path d="M12,7.17 C12,7.05 12,6.83 12.16,6.82 C12.32,6.81 12.44,6.96 12.38,7.09 C12.32,7.22 12.12,7.16 12,7.17 Z" id="Shape"></path>
                    <path d="M6.81,8.65 L7.08,8.65 C7.08,8.77 7.18,8.9 7.08,9.01 C6.98,9.12 6.83,9.01 6.78,8.93 C6.73,8.85 6.8,8.74 6.81,8.65 Z" id="Shape"></path>
                    <path d="M10.47,10.21 C10.47,10.04 10.71,10.13 10.83,10.1 C10.95,10.07 10.83,10.43 10.72,10.46 C10.6484187,10.4911212 10.5650864,10.4752984 10.509894,10.420106 C10.4547016,10.3649136 10.4388788,10.2815813 10.47,10.21 Z" id="Shape"></path>
                </g>
                <g id="_e77329ff" transform="translate(42.000000, 15.000000)" fill="#E77329" fill-rule="nonzero">
                    <path d="M2.74,4.39 C2.77343866,2.37181736 4.20303292,0.64716149 6.18,0.24 L6.01,0.59 C6.84121215,0.537719743 7.66930884,0.732566024 8.39,1.15 C8.71197119,1.38674993 9.04573249,1.60703239 9.39,1.81 C10.05,2.11 10.81,2.1 11.46,2.43 C11.7388147,2.55643374 11.9775102,2.75707632 12.15,3.01 C11.5845458,2.714295 10.9323857,2.62923064 10.31,2.77 C10.02,2.87 9.95,3.18 9.88,3.43 C9.4,3.03 9.25,2.32 8.66,2.03 C7.56625154,1.4517984 6.21739087,1.71407687 5.42,2.66 C5.01050481,3.24360222 4.80969324,3.94820422 4.85,4.66 C4.85,5.22 5.36,5.6 5.5,6.12 L4.91,5.96 C4.99,6.5 5.38,6.96 5.39,7.48 C4.74892246,7.38689011 4.15012014,7.10489599 3.67,6.67 C3.05434223,6.07868454 2.71974251,5.25309609 2.75,4.4 L2.74,4.39 Z M3.82,5.66 C3.82,5.75 3.7,5.85 3.82,5.93 C3.94,6.01 4.02,6.03 4.12,6.01 C4.22,5.99 4.12,5.78 4.12,5.65 L3.82,5.66 Z" id="Shape"></path>
                    <path d="M0.91,5 C1.2,4.11 1.22,3 1.96,2.37 C1.8,2.99 1.46,3.64 1.73,4.28 C1.83,4.54 2.12,4.61 2.36,4.67 C2.03,4.93 1.56,5.06 1.36,5.45 C0.923506452,6.41473482 1.22911952,7.55345747 2.09,8.17 C2.94774498,8.66997297 3.99390321,8.72581772 4.9,8.32 C5.5870775,8.06968506 6.15472876,7.56986634 6.49,6.92 C6.61111488,6.64516703 6.75494701,6.38091729 6.92,6.13 C6.92,6.39 6.92,6.64 6.92,6.9 C7.48,6.75 7.82,6.27 8.26,5.9 C8.3454371,6.87350718 8.07153538,7.84461326 7.49,8.63 C6.72741095,9.51277903 5.65180868,10.0649215 4.49,10.17 C3.61737096,10.2709599 2.733763,10.2167924 1.88,10.01 L2.12,9.66 C1.54164464,9.30729861 1.10612567,8.76201471 0.89,8.12 C0.528397363,7.10456497 0.528397363,5.99543503 0.89,4.98 L0.91,5 Z M7.44,7.2 C7.4088788,7.27158129 7.42470156,7.35491356 7.479894,7.410106 C7.53508644,7.46529844 7.61841871,7.4811212 7.69,7.45 C7.85,7.45 7.77,7.2 7.8,7.09 C7.83,6.98 7.5,7 7.47,7.21 L7.44,7.2 Z" id="Shape"></path>
                    <path d="M7.33,3.37 C8.59883978,3.27638594 9.85126691,3.70228335 10.8,4.55 C11.7950317,5.49578558 12.2462285,6.87945566 12,8.23 C11.86,8.08 11.73,7.92 11.58,7.78 C11.5005406,8.61591817 11.1492764,9.40275012 10.58,10.02 C9.76313943,10.6237288 8.8550131,11.0929837 7.89,11.41 C7.18917449,11.7754447 6.39579175,11.9250739 5.61,11.84 C6.03,11.59 6.55,11.38 6.73,10.84 C6.83,10.52 6.49,10.36 6.3,10.19 C6.73867246,10.1618751 7.17530298,10.2701595 7.55,10.5 C7.97379396,10.7171886 8.47620604,10.7171886 8.9,10.5 C9.76984182,10.0565902 10.3209758,9.16629688 10.33,8.19 C10.2121561,7.1902995 9.76540977,6.25811235 9.06,5.54 C8.68722224,5.15610037 8.22251974,4.87383663 7.71,4.72 C7.90858885,4.63129592 8.11228253,4.55449339 8.32,4.49 C8.01038099,4.09299485 7.67640482,3.71560178 7.32,3.36 L7.33,3.37 Z M8.99,4.16 C9.11,4.16 9.32,4.26 9.37,4.08 C9.42,3.9 9.31,3.75 9.15,3.81 C8.99,3.87 9,4.06 9,4.17 L8.99,4.16 Z" id="Shape"></path>
                </g>
                <g id="_0073bdff" transform="translate(40.000000, 27.000000)" fill="#3CAFDA" fill-rule="nonzero">
                    <path d="M0.55,0.77 L16.18,0.77 C15.5943901,2.1728799 14.7066485,3.42937566 13.58,4.45 C12.0652835,5.80793221 10.2937135,6.84843204 8.37,7.51 C7.27869683,7.12525293 6.22984777,6.62931153 5.24,6.03 C3.15502821,4.82254635 1.51145468,2.97922081 0.55,0.77 Z" id="Shape"></path>
                </g>
            </g>
        </g>
    </g>
</svg>