<?xml version="1.0" encoding="UTF-8"?>
<svg width="71px" height="48px" viewBox="0 0 71 48" version="1.1" xmlns="http://www.w3.org/2000/svg" xmlns:xlink="http://www.w3.org/1999/xlink">
    <!-- Generator: Sketch 48.1 (47250) - http://www.bohemiancoding.com/sketch -->
    <title>Antigua-and-Barbuda@2x</title>
    <desc>Created with Sketch.</desc>
    <defs></defs>
    <g id="Flags" stroke="none" stroke-width="1" fill="none" fill-rule="evenodd" transform="translate(-70.000000, -131.000000)">
        <g transform="translate(70.000000, 70.000000)" fill-rule="nonzero" id="Antigua-and-Barbuda">
            <g transform="translate(0.000000, 61.000000)">
                <path d="M58.37,16.28 L68.68,2.43 C67.475949,1.06269839 65.7418815,0.279453611 63.92,0.28 L6.65,0.28 C4.82811851,0.279453611 3.09405099,1.06269839 1.89,2.43 L12.2,16.28 L58.37,16.28 Z" id="Shape" fill="#434A54"></path>
                <path d="M35.14,10.55 L37.47,7.14 C37.5762748,6.97610328 37.7796696,6.9044318 37.965216,6.96549767 C38.1507623,7.02656355 38.2718358,7.20502207 38.26,7.4 L38.15,11.53 C38.1442628,11.6738292 38.2108731,11.8109893 38.3274591,11.8954136 C38.4440451,11.979838 38.5951411,12.0003273 38.73,11.95 L42.62,10.57 C42.8046762,10.4922411 43.0185826,10.5523475 43.135728,10.7149166 C43.2528733,10.8774857 43.2422022,11.0994201 43.11,11.25 L40.6,14.52 C40.511105,14.6326463 40.4842599,14.7822129 40.5284313,14.9187428 C40.5726027,15.0552727 40.6819688,15.160771 40.82,15.2 L44.82,16.37 C45.0073517,16.4208257 45.1374167,16.5908765 45.1374167,16.785 C45.1374167,16.9791235 45.0073517,17.1491743 44.82,17.2 L40.82,18.37 C40.6819688,18.409229 40.5726027,18.5147273 40.5284313,18.6512572 C40.4842599,18.7877871 40.511105,18.9373537 40.6,19.05 L43.12,22.32 C43.2522022,22.4705799 43.2628733,22.6925143 43.145728,22.8550834 C43.0285826,23.0176525 42.8146762,23.0777589 42.63,23 L38.74,21.62 C38.6051411,21.5696727 38.4540451,21.590162 38.3374591,21.6745864 C38.2208731,21.7590107 38.1542628,21.8961708 38.16,22.04 L38.27,26.17 C38.2818358,26.3649779 38.1607623,26.5434365 37.975216,26.6045023 C37.7896696,26.6655682 37.5862748,26.5938967 37.48,26.43 L35.14,23 C35.0605928,22.8784375 34.9251997,22.8051595 34.78,22.8051595 C34.6348003,22.8051595 34.4994072,22.8784375 34.42,23 L32.09,26.41 C31.9837252,26.5738967 31.7803304,26.6455682 31.594784,26.5845023 C31.4092377,26.5234365 31.2881642,26.3449779 31.3,26.15 L31.41,22 C31.4157372,21.8561708 31.3491269,21.7190107 31.2325409,21.6345864 C31.1159549,21.550162 30.9648589,21.5296727 30.83,21.58 L26.94,23 C26.7553238,23.0777589 26.5414174,23.0176525 26.424272,22.8550834 C26.3071267,22.6925143 26.3177978,22.4705799 26.45,22.32 L29,19.05 C29.088895,18.9373537 29.1157401,18.7877871 29.0715687,18.6512572 C29.0273973,18.5147273 28.9180312,18.409229 28.78,18.37 L24.78,17.2 C24.5926483,17.1491743 24.4625833,16.9791235 24.4625833,16.785 C24.4625833,16.5908765 24.5926483,16.4208257 24.78,16.37 L28.78,15.2 C28.9180312,15.160771 29.0273973,15.0552727 29.0715687,14.9187428 C29.1157401,14.7822129 29.088895,14.6326463 29,14.52 L26.48,11.25 C26.3477978,11.0994201 26.3371267,10.8774857 26.454272,10.7149166 C26.5714174,10.5523475 26.7853238,10.4922411 26.97,10.57 L30.83,12 C30.9648589,12.0503273 31.1159549,12.029838 31.2325409,11.9454136 C31.3491269,11.8609893 31.4157372,11.7238292 31.41,11.58 L31.3,7.4 C31.2881642,7.20502207 31.4092377,7.02656355 31.594784,6.96549767 C31.7803304,6.9044318 31.9837252,6.97610328 32.09,7.14 L34.42,10.55 C34.4994072,10.6715625 34.6348003,10.7448405 34.78,10.7448405 C34.9251997,10.7448405 35.0605928,10.6715625 35.14,10.55 Z" id="Shape" fill="#F6BB42"></path>
                <polygon id="Shape" fill="#3BAFDA" points="44.26 16.28 25.31 16.28 12.2 16.28 24.11 32.28 46.45 32.28 58.37 16.28"></polygon>
                <polygon id="Shape" fill="#FFFFFF" points="35.28 47.28 46.45 32.28 24.11 32.28"></polygon>
                <path d="M12.2,16.28 L1.89,2.43 C0.858584736,3.58973017 0.28918166,5.08797202 0.29,6.64 L0.29,40.91 C0.29,44.422531 3.13746899,47.27 6.65,47.27 L35.28,47.27 L24.11,32.27 L12.2,16.28 Z" id="Shape" fill="#ED5565"></path>
                <path d="M68.68,2.43 L58.37,16.28 L46.46,32.28 L35.29,47.28 L63.92,47.28 C67.432531,47.28 70.28,44.432531 70.28,40.92 L70.28,6.65 C70.2832738,5.09452722 69.7137103,3.59230343 68.68,2.43 Z" id="Shape" fill="#ED5565"></path>
            </g>
        </g>
    </g>
</svg>