<?xml version="1.0" encoding="UTF-8"?>
<svg width="71px" height="48px" viewBox="0 0 71 48" version="1.1" xmlns="http://www.w3.org/2000/svg" xmlns:xlink="http://www.w3.org/1999/xlink">
    <!-- Generator: Sketch 48.1 (47250) - http://www.bohemiancoding.com/sketch -->
    <title>Argentina@2x</title>
    <desc>Created with Sketch.</desc>
    <defs></defs>
    <g id="Flags" stroke="none" stroke-width="1" fill="none" fill-rule="evenodd" transform="translate(-154.000000, -131.000000)">
        <g transform="translate(70.000000, 70.000000)" fill-rule="nonzero" id="Argentina">
            <g transform="translate(84.000000, 61.000000)">
                <rect id="Rectangle-path" fill="#FFFFFF" x="0.9" y="13.28" width="70" height="21"></rect>
                <path d="M64.5399928,0.28 L7.26999928,0.28 C3.75746867,0.28 0.91,3.12746726 0.91,6.63999614 L0.91,13.2799921 L70.91,13.2799921 L70.9099921,6.64999614 C70.9126518,4.95975416 70.242383,3.33797491 69.0471993,2.14279187 C67.8520157,0.947608822 66.2302356,0.277340291 64.5399928,0.28 Z" id="Shape" fill="#8CBAE2"></path>
                <path d="M0.9,40.92 C0.9,44.432531 3.74746899,47.28 7.26,47.28 L64.53,47.28 C68.042531,47.28 70.89,44.432531 70.89,40.92 L70.89,34.28 L0.89,34.28 L0.9,40.92 Z" id="Shape" fill="#8CBAE2"></path>
                <path d="M42.16,25.79 C42.172429,25.4791173 42.2544428,25.174983 42.4,24.9 L42.81,24.19 C42.9401282,23.9321545 42.9401282,23.6278455 42.81,23.37 L42.39,22.64 C42.2456912,22.364527 42.1637546,22.0606787 42.15,21.75 L42.15,20.91 C42.1337279,20.6216858 41.9815786,20.3582077 41.74,20.2 L41.03,19.8 C40.7677799,19.6342567 40.5457433,19.4122201 40.38,19.15 L39.97,18.44 C39.8117923,18.1984214 39.5483142,18.0462721 39.26,18.03 L38.41,18.03 C38.0993213,18.0162454 37.795473,17.9343088 37.52,17.79 L36.79,17.37 C36.5321545,17.2398718 36.2278455,17.2398718 35.97,17.37 L35.27,17.78 C34.9948924,17.9252405 34.6908312,18.0072346 34.38,18.02 L33.56,18.02 C33.2716858,18.0362721 33.0082077,18.1884214 32.85,18.43 L32.43,19.16 C32.2637362,19.4218035 32.0418035,19.6437362 31.78,19.81 L31.05,20.23 C30.8084214,20.3882077 30.6562721,20.6516858 30.64,20.94 L30.64,21.76 C30.627571,22.0708827 30.5455572,22.375017 30.4,22.65 L29.99,23.36 C29.8598718,23.6178455 29.8598718,23.9221545 29.99,24.18 L30.41,24.91 C30.5543088,25.185473 30.6362454,25.4893213 30.65,25.8 L30.65,26.64 C30.6685293,26.9301751 30.8246092,27.1940246 31.07,27.35 L31.78,27.75 C32.0424314,27.915479 32.264521,28.1375686 32.43,28.4 L32.84,29.11 C32.9982077,29.3515786 33.2616858,29.5037279 33.55,29.52 L34.4,29.52 C34.7106787,29.5337546 35.014527,29.6156912 35.29,29.76 L36.02,30.18 C36.2778455,30.3101282 36.5821545,30.3101282 36.84,30.18 L37.54,29.77 C37.8151076,29.6247595 38.1191688,29.5427654 38.43,29.53 L39.25,29.53 C39.5383142,29.5137279 39.8017923,29.3615786 39.96,29.12 L40.38,28.39 C40.5462638,28.1281965 40.7681965,27.9062638 41.03,27.74 L41.76,27.32 C42.0015786,27.1617923 42.1537279,26.8983142 42.17,26.61 L42.16,25.79 Z" id="Shape" fill="#F6BB42"></path>
            </g>
        </g>
    </g>
</svg>