<?xml version="1.0" encoding="UTF-8"?>
<svg width="71px" height="48px" viewBox="0 0 71 48" version="1.1" xmlns="http://www.w3.org/2000/svg" xmlns:xlink="http://www.w3.org/1999/xlink">
    <!-- Generator: Sketch 48.1 (47250) - http://www.bohemiancoding.com/sketch -->
    <title>armenia@2x</title>
    <desc>Created with Sketch.</desc>
    <defs></defs>
    <g id="Flags" stroke="none" stroke-width="1" fill="none" fill-rule="evenodd" transform="translate(-239.000000, -131.000000)">
        <g transform="translate(70.000000, 70.000000)" fill-rule="nonzero" id="armenia">
            <g transform="translate(169.000000, 61.000000)">
                <path d="M0.52,6.93 L0.52,15.93 L70.52,15.93 L70.52,6.93 C70.52,3.26282926 67.5471707,0.29 63.88,0.29 L7.17,0.29 C5.40723053,0.287345224 3.71575038,0.985742489 2.46834517,2.2312719 C1.22093997,3.47680131 0.519998001,5.16722853 0.52,6.93 Z" id="Shape" fill="#ED5565"></path>
                <polygon id="Shape" fill="#4758A9" points="0.52 31.63 70.52 31.63 70.52 16 0.52 16"></polygon>
                <path d="M0.52,40.64 C0.52,44.3071707 3.49282926,47.28 7.16,47.28 L63.88,47.28 C67.5471707,47.28 70.52,44.3071707 70.52,40.64 L70.52,31.64 L0.52,31.64 L0.52,40.64 Z" id="Shape" fill="#FFCE54"></path>
            </g>
        </g>
    </g>
</svg>