<?xml version="1.0" encoding="UTF-8"?>
<svg width="71px" height="48px" viewBox="0 0 71 48" version="1.1" xmlns="http://www.w3.org/2000/svg" xmlns:xlink="http://www.w3.org/1999/xlink">
    <!-- Generator: Sketch 48.1 (47250) - http://www.bohemiancoding.com/sketch -->
    <title>aruba@2x</title>
    <desc>Created with Sketch.</desc>
    <defs></defs>
    <g id="Flags" stroke="none" stroke-width="1" fill="none" fill-rule="evenodd" transform="translate(-662.000000, -1173.000000)">
        <g transform="translate(70.000000, 70.000000)" fill-rule="nonzero" id="aruba">
            <g transform="translate(592.000000, 1103.000000)">
                <path d="M70.63,6.76 C70.63,3.09282926 67.6571707,0.12 63.99,0.12 L7.27,0.12 C3.60282926,0.12 0.63,3.09282926 0.63,6.76 L0.63,31.45 L70.63,31.45 L70.63,6.76 Z M12.5,12 L11.08,16.61 C10.6,15.07 10.13,13.53 9.65,12 L5.06,10.59 C5.12994841,10.5548122 5.20378755,10.5279617 5.28,10.51 L9.65,9.16 L11.07,4.55 L12.5,9.16 L17.11,10.58 L12.5,12 Z" id="Shape" fill="#3CAFDA"></path>
                <polygon id="Shape" fill="#3CAFDA" points="70.63 34.06 0.63 34.06 0.63 36.67 70.63 36.67"></polygon>
                <path d="M70.63,40.48 L70.63,39.29 L0.63,39.29 L0.63,40.48 C0.63,42.2410375 1.32956942,43.9299475 2.57481097,45.175189 C3.82005253,46.4204306 5.50896251,47.12 7.27,47.12 L64,47.12 C67.6632649,47.114483 70.6300042,44.143269 70.63,40.48 Z" id="Shape" fill="#3CAFDA"></path>
                <path d="M11.08,17.1 C10.8605237,17.101329 10.6658401,16.9593722 10.6,16.75 C10.3533333,15.9633333 10.11,15.1733333 9.87,14.38 L9.25,12.38 L4.91,11.04 C4.71949707,10.9829546 4.58090828,10.8184402 4.5570439,10.6210167 C4.53317952,10.4235932 4.62857663,10.2307947 4.8,10.13 C4.8879619,10.0809085 4.98214461,10.0439081 5.08,10.02 L9.25,8.73 L10.6,4.37 C10.6,4.09385763 10.8238576,3.87 11.1,3.87 C11.3761424,3.87 11.6,4.09385763 11.6,4.37 L12.95,8.73 L17.3,10.07 C17.5761424,10.07 17.8,10.2938576 17.8,10.57 C17.8,10.8461424 17.5761424,11.07 17.3,11.07 L12.94,12.42 L11.6,16.78 C11.5341599,16.9893722 11.3394763,17.131329 11.12,17.13 L11.08,17.1 Z" id="Shape" fill="#EC5565"></path>
                <path d="M11.08,4.53 L12.51,9.14 L17.12,10.56 L12.5,12 L11.08,16.61 C10.6,15.07 10.13,13.53 9.65,12 L5.06,10.59 C5.12994841,10.5548122 5.20378755,10.5279617 5.28,10.51 L9.65,9.16 L11.07,4.55 L11.08,4.53 Z M11.07,3.55 C10.6163999,3.52923406 10.2057475,3.81669076 10.07,4.25 L9.3,6.74 L8.8,8.36 L6.98,8.92 L4.98,9.55 C4.82221476,9.58833065 4.67069321,9.64893927 4.53,9.73 C4.19392149,9.93530327 4.00963801,10.3187447 4.05928287,10.7094281 C4.10892773,11.1001116 4.3832551,11.4252765 4.76,11.54 L7.14,12.27 L8.84,12.79 L9.4,14.61 L10.11,16.9 C10.2457475,17.3333092 10.6563999,17.6207659 11.11,17.6 C11.5663699,17.6195036 11.9779485,17.3272829 12.11,16.89 L12.87,14.44 L13.38,12.79 L13.54,12.79 L17.49,11.57 C17.9083192,11.4400776 18.1933942,11.0530305 18.1933942,10.615 C18.1933942,10.1769695 17.9083192,9.7899224 17.49,9.66 L13.38,8.39 L12.66,6.07 L12.11,4.28 C11.9742525,3.84669076 11.5636001,3.55923406 11.11,3.58 L11.07,3.55 Z" id="Shape" fill="#FFFFFF"></path>
                <polygon id="Shape" fill="#F2D660" points="70.63 31.45 0.63 31.45 0.63 34.06 70.63 34.06"></polygon>
                <polygon id="Shape" fill="#F2D660" points="70.63 36.68 0.63 36.68 0.63 39.29 70.63 39.29"></polygon>
            </g>
        </g>
    </g>
</svg>