<?xml version="1.0" encoding="UTF-8"?>
<svg width="71px" height="48px" viewBox="0 0 71 48" version="1.1" xmlns="http://www.w3.org/2000/svg" xmlns:xlink="http://www.w3.org/1999/xlink">
    <!-- Generator: Sketch 48.1 (47250) - http://www.bohemiancoding.com/sketch -->
    <title>Asia@2x</title>
    <desc>Created with Sketch.</desc>
    <defs></defs>
    <g id="Flags" stroke="none" stroke-width="1" fill="none" fill-rule="evenodd" transform="translate(-408.000000, -1418.000000)">
        <g transform="translate(70.000000, 70.000000)" fill-rule="nonzero" id="Asia">
            <g transform="translate(338.000000, 1348.000000)">
                <path d="M64.4,0.3 L7.13,0.3 C3.61746899,0.3 0.77,3.14746899 0.77,6.66 L0.77,40.93 C0.77,44.442531 3.61746899,47.29 7.13,47.29 L64.4,47.29 C67.912531,47.29 70.76,44.442531 70.76,40.93 L70.76,6.66 C70.76,3.14746899 67.912531,0.3 64.4,0.3 Z" id="Shape" fill="#4A88DC"></path>
                <path d="M41.65,41.52 C41.65,41.66 41.57,41.81 41.47,41.91 C41.2917742,42.0604306 41.0785621,42.1635977 40.85,42.21 C38.9574548,42.7500444 36.9303349,42.5498351 35.18,41.65 C34.3017511,41.2069458 33.8487321,40.2136288 34.09,39.26 C34.0393409,38.7652785 33.9181109,38.2803585 33.73,37.82 C33.4830528,37.2806154 33.3340635,36.7015886 33.29,36.11 C33.2900773,35.9205392 33.1393835,35.7654132 32.95,35.76 C32.52,35.76 32.06,35.28 31.88,34.81 L31.75,34.45 C31.6501405,34.159207 31.4116176,33.9375194 31.1143056,33.8591737 C30.8169936,33.7808279 30.5001964,33.8561812 30.27,34.06 C29.93,34.36 29.53,34.62 29.19,34.92 C28.5928441,35.4499683 28.16795,36.146516 27.97,36.92 C27.922313,37.1132004 27.7603594,37.256941 27.5628636,37.2813506 C27.3653677,37.3057602 27.1732908,37.2057761 27.08,37.03 C26.6626569,36.1866365 26.3985487,35.2758021 26.3,34.34 C26.2925432,34.2787743 26.2608081,34.2231091 26.2119206,34.1855033 C26.163033,34.1478975 26.1010899,34.1315026 26.04,34.14 C25.7196114,34.1176776 25.4294409,33.9428313 25.26,33.67 C25.0880163,33.3025908 24.8584587,32.9650062 24.58,32.67 C24.5198056,32.6337779 24.4561593,32.6036297 24.39,32.58 L24.25,32.51 C24.1234411,32.4620772 23.9929478,32.4252713 23.86,32.4 C23.6046518,32.3553058 23.3536974,32.2883846 23.11,32.2 C22.89,32.12 22.34,31.9 22.02,32.2 C21.8924702,32.3063978 21.8187478,32.4639147 21.8187478,32.63 C21.8187478,32.7960853 21.8924702,32.9536022 22.02,33.06 C22.23,33.22 22.52,33.3 22.65,33.53 C22.7589904,33.7691302 22.7025797,34.0511838 22.51,34.23 L22.51,34.28 C22.2781106,34.4892919 22.0105338,34.6552572 21.72,34.77 C20.86,35.18 20.28,35.38 19.85,35.57 C19.6043274,35.7007287 19.3279901,35.7629046 19.05,35.75 C18.46,35.67 18.17,35.02 17.94,34.48 C17.6901998,33.9096284 17.3818817,33.3667204 17.02,32.86 C16.6718185,32.4332852 16.3701141,31.9706718 16.12,31.48 C15.8551012,30.9866425 15.8551012,30.3933575 16.12,29.9 C16.228873,29.7785993 16.3106826,29.6354325 16.36,29.48 C16.42,29.12 15.98,28.88 15.61,28.84 C15.2314748,28.8328246 14.8539026,28.7994111 14.48,28.74 C14.098232,28.6659783 13.7939984,28.3773464 13.7,28 C13.62,27.37 14.41,27 15.04,27 C15.6658104,26.9708189 16.2911975,27.0659865 16.88,27.28 C17.12,27.37 17.41,27.46 17.6,27.28 C17.79,27.1 17.68,26.68 17.46,26.46 C17.24,26.24 16.94,26.05 16.89,25.74 C16.84,25.43 17.1,25.13 17.26,24.83 C17.42,24.53 17.39,24.05 17.06,24 C16.9207458,24.0041801 16.7827528,24.0277399 16.65,24.07 C16.31,24.07 16.01,23.84 15.79,23.57 C15.0634035,22.6778084 14.5043836,21.6614087 14.14,20.57 C13.9967561,20.2147039 13.931945,19.8326594 13.95,19.45 C14.0272759,19.0352958 14.1654361,18.6342941 14.36,18.26 C14.899075,16.9153504 14.899075,15.4146496 14.36,14.07 C14.2711474,13.8929145 14.223298,13.6980989 14.22,13.5 C14.2571839,13.1710425 14.4908085,12.8978206 14.81,12.81 C15.1398467,12.7418178 15.4801533,12.7418178 15.81,12.81 C15.977589,12.8535633 16.1414407,12.9104098 16.3,12.98 C16.8609838,13.2137047 17.2617103,13.7202835 17.36,14.32 C17.3735101,14.6712813 17.1877908,15.0001592 16.88,15.17 C16.46,15.37 15.83,15.17 15.59,15.61 C15.35,16.05 15.81,16.47 16.25,16.46 C16.6865875,16.3955975 17.0866041,16.1796593 17.38,15.85 L19.24,14.19 C19.7566983,13.7438233 20.4512505,13.5627964 21.12,13.7 C21.61,13.79 24.29,12.62 24.6,11.84 C24.91,11.06 27.39,10.84 28.48,10.64 C28.19,10.06 28.65,9.39 29.12,8.95 C29.8656601,8.25321305 30.7076022,7.66722136 31.62,7.21 C32.5092189,6.89873479 33.3019457,6.36105924 33.92,5.65 C34.16,5.29 34.36,4.8 34.79,4.76 C35.0271453,4.76643925 35.2555731,4.85078179 35.44,5 C36.51,5.69 37.72,6.91 37.1,8 C36.84,8.45 36.29,8.79 36.3,9.31 C37.09,9.78 38.09,9.47 38.99,9.31 C39.89,9.15 41.06,9.18 41.44,10.02 C41.63,10.43 41.58,10.95 41.87,11.3 C42.33,11.83 43.21,11.54 43.75,11.1 C44.29,10.66 44.85,10.1 45.55,10.1 C46.55,10.17 47.04,11.45 48.01,11.69 C48.4139531,11.7093775 48.8138142,11.7799412 49.2,11.9 C49.67,12.16 49.8,12.81 50.27,13.08 C50.74,13.35 51.54,13.03 52.18,12.85 C54,12.33 55.8,13.63 57.25,14.85 C57.49,15.05 57.76,15.32 57.7,15.63 C57.54,16.52 55.93,15.43 55.27,16.05 C54.97,16.34 55.06,16.82 54.97,17.23 C54.68,18.62 52.64,18.61 51.6,19.58 C51.03,20.11 50.65,22.06 50.25,22.74 C50.0463495,23.110989 49.7866212,23.4482984 49.48,23.74 C49.3478668,23.8986818 49.1454047,23.9811664 48.94,23.96 C48.7,23.89 48.62,23.6 48.59,23.36 C48.4973264,22.4884846 48.6138856,21.6074345 48.93,20.79 C49.03,20.53 49.14,20.19 48.93,19.99 C48.72,19.79 48.42,19.87 48.15,19.99 C47.6837688,20.1304057 47.2047551,20.2241986 46.72,20.27 C46.4096047,20.280742 46.1012191,20.3243183 45.8,20.4 C45.4951597,20.4810404 45.2422473,20.6936335 45.11,20.98 C45.0274438,21.3140276 45.0591286,21.6660809 45.2,21.98 C45.3498814,22.8589685 45.4301307,23.7483988 45.44,24.64 C45.347182,25.0756272 45.4146454,25.5301172 45.63,25.92 C45.85,26.2 46.29,26.48 46.12,26.8 C45.95,27.12 45.63,27.01 45.46,27.21 C45.373378,27.3397885 45.3312644,27.4942049 45.34,27.65 C45.3365041,28.0972738 45.2552956,28.5405368 45.1,28.96 C44.9419153,29.3825157 44.6107628,29.7173072 44.19,29.88 C43.62,30.07 42.85,29.88 42.52,30.37 C42.4198964,30.5643471 42.3523336,30.7737916 42.32,30.99 C42.24,31.36 42.11,31.62 41.94,31.38 C41.8911864,31.3542908 41.8498489,31.316398 41.82,31.27 L40.82,29.73 C40.5296797,29.4902504 40.3001107,29.1853006 40.15,28.84 C39.89,28.3 39.24,27.71 38.8,28.11 C38.36,28.51 38.8,29.11 39,29.57 C39.4359586,30.4977089 39.3680783,31.5837934 38.82,32.45 C38.3511933,33.025098 37.7902485,33.5184591 37.16,33.91 C36.7743427,34.0919969 36.4483469,34.3798443 36.22,34.74 C36.0817223,35.2317115 36.0077727,35.7392745 36,36.25 C35.828331,36.8307199 35.6005924,37.3933682 35.32,37.93 C35.1413672,38.2394011 35.1413672,38.6205989 35.32,38.93 C35.5539749,39.1274293 35.8801039,39.1740192 36.16,39.05 C36.44,38.95 36.69,38.77 36.96,38.66 C37.3904118,38.5318224 37.82779,38.4283207 38.27,38.35 C38.7211037,38.2648594 39.0851761,37.9317719 39.21,37.49 C39.2228849,37.233449 39.1784768,36.9772483 39.08,36.74 C38.9675194,36.3777762 38.8872081,36.0063368 38.84,35.63 C38.799031,35.4219982 38.799031,35.2080018 38.84,35 C38.84,34.86 39.09,34.57 39.23,34.56 C39.37,34.55 39.56,34.84 39.65,35.05 C39.8859941,35.4769924 40.1823831,35.867687 40.53,36.21 C40.8800999,36.5652854 41.0000326,37.087573 40.84,37.56 C40.65,37.94 40.16,38.14 40.03,38.56 C39.9648693,38.934137 40.0591384,39.3184649 40.29,39.62 C40.36,39.74 40.64,40.26 40.79,40.21 C40.94,40.16 41.09,39.86 41.14,39.58 C41.19,39.3 41.24,39.01 41.47,38.89 C41.7,39.1 41.69,39.48 41.94,39.67 C42.1557502,39.781617 42.3974579,39.8334115 42.64,39.82 C43.0973324,39.9456218 43.5398654,40.119953 43.96,40.34 C44.4065404,40.4613577 44.8609657,40.5515746 45.32,40.61 C45.7841393,40.6734586 46.2027021,40.9224313 46.48,41.3 C46.5781144,41.5352497 46.7058098,41.7570363 46.86,41.96 C47.0106351,42.0739828 47.1753231,42.1680903 47.35,42.24 C47.52,42.33 47.88,42.6 47.84,42.72 C47.8,42.84 47.74,42.72 47.69,42.72 C47.3338764,42.7688317 46.9731513,42.6714359 46.69,42.45 C46.55,42.31 46.46,42.12 46.31,41.98 C46.1739452,41.8266018 45.9423421,41.8047524 45.78,41.93 C45.68,42.04 45.69,42.22 45.57,42.3 C45.4742321,42.3411443 45.3657679,42.3411443 45.27,42.3 C44.9145877,42.2415596 44.5745311,42.1123381 44.27,41.92 C44.2314121,41.9000326 44.1999674,41.8685879 44.18,41.83 C44.18,41.76 44.18,41.69 44.18,41.62 C44.18,41.39 43.98,41.2 43.76,41.11 C43.5103916,41.0097925 43.2477306,40.945811 42.98,40.92 C42.8900804,40.9184896 42.8014885,40.8980454 42.72,40.86 C42.59,40.78 42.54,40.62 42.44,40.5 C42.34,40.38 42.12,40.32 42.06,40.5 C42,40.68 42.06,40.66 42.06,40.72 C41.9320848,40.8299247 41.7764134,40.9025714 41.61,40.93 C41.5290692,41.0097458 41.4869382,41.1208197 41.4946236,41.2341781 C41.5023089,41.3475364 41.5590462,41.4519074 41.65,41.52 Z" id="Shape" fill="#FFFFFF"></path>
            </g>
        </g>
    </g>
</svg>