<?xml version="1.0" encoding="UTF-8"?>
<svg width="71px" height="48px" viewBox="0 0 71 48" version="1.1" xmlns="http://www.w3.org/2000/svg" xmlns:xlink="http://www.w3.org/1999/xlink">
    <!-- Generator: Sketch 48.1 (47250) - http://www.bohemiancoding.com/sketch -->
    <title>Australia@2x</title>
    <desc>Created with Sketch.</desc>
    <defs></defs>
    <g id="Flags" stroke="none" stroke-width="1" fill="none" fill-rule="evenodd" transform="translate(-324.000000, -131.000000)">
        <g transform="translate(70.000000, 70.000000)" fill-rule="nonzero" id="Australia">
            <g transform="translate(254.000000, 61.000000)">
                <path d="M64.31,0.33 L6,0.33 C3.05062069,0.693733708 0.702057458,2.97286116 0.25,5.91 L0.25,41.63 C0.74388474,44.8719958 3.53060151,47.2678925 6.81,47.27 L63.5,47.27 C67.1671707,47.27 70.14,44.2971707 70.14,40.63 L70.14,6.92 C70.1397931,3.56623067 67.638722,0.739119445 64.31,0.33 Z" id="Shape" fill="#4658A9"></path>
                <path d="M25.11,0.29 L6.71,0.29 C3.07019521,0.328373563 0.139797724,3.28999294 0.14,6.93 L0.14,24.25 L25.14,24.25 L25.11,0.29 Z" id="Shape" fill="#4658A9"></path>
                <path d="M10.68,17.69 L10.68,24.25 L14.58,24.25 L14.58,17.54 L21.29,24.25 L25.11,24.25 L25.11,21.25 L18.11,14.25 L25.11,14.25 L25.11,10.25 L18.11,10.25 L25.11,3.25 L25.11,0.25 L21.28,0.25 L14.58,6.95 L14.58,0.25 L10.68,0.25 L10.68,6.81 L4.52,0.65 C2.95670719,1.21647757 1.66185751,2.34724162 0.89,3.82 L7.3,10.23 L0.14,10.23 L0.14,14.23 L7.3,14.23 L0.14,21.39 L0.14,24.22 L4.14,24.22 L10.68,17.69 Z" id="Shape" fill="#FFFFFF"></path>
                <path d="M11.68,14.95 L11.68,24.26 L13.58,24.26 L13.58,14.8 L23,24.25 L25.08,24.25 L25.08,23 L15.3,13.22 L25.08,13.22 L25.08,11.29 L15.3,11.29 L25.08,1.51 L25.08,0.29 L23,0.29 L13.55,9.74 L13.55,0.29 L11.65,0.29 L11.65,9.59 L3.32,1.25 C2.6463927,1.65866358 2.05051707,2.18344041 1.56,2.8 L10.05,11.29 L0.12,11.29 L0.12,13.24 L10.05,13.24 L0.12,23.17 L0.12,24.26 L2.35,24.26 L11.68,14.95 Z" id="Shape" fill="#EC5463"></path>
                <path d="M41.83,13.17 C41.51,13.4 41.32,13.27 41.42,12.88 L41.77,11.45 C41.8500735,11.0226657 41.711221,10.5835916 41.4,10.28 L40.4,9.37 C40.1,9.11 40.18,8.89 40.57,8.88 L42.03,8.88 C42.4478745,8.84622548 42.8056097,8.56711342 42.94,8.17 L43.4,6.6 C43.51,6.22 43.71,6.21 43.84,6.6 L44.39,8.14 C44.557665,8.54599717 44.9507954,8.81332585 45.39,8.82 L46.88,8.82 C47.27,8.82 47.35,9.04 47.05,9.3 L45.92,10.3 C45.6131102,10.6015042 45.4844293,11.0405333 45.58,11.46 L45.94,12.72 C46.05,13.1 45.87,13.24 45.53,13.04 L44.32,12.29 C43.9535503,12.0710381 43.4964497,12.0710381 43.13,12.29 L41.83,13.17 Z" id="Shape" fill="#FFFFFF"></path>
                <path d="M53.83,17.17 C53.51,17.4 53.32,17.27 53.42,16.88 L53.77,15.45 C53.8500735,15.0226657 53.711221,14.5835916 53.4,14.28 L52.4,13.37 C52.1,13.11 52.18,12.89 52.57,12.88 L54.03,12.88 C54.4478745,12.8462255 54.8056097,12.5671134 54.94,12.17 L55.4,10.6 C55.51,10.22 55.71,10.21 55.84,10.6 L56.39,12.14 C56.557665,12.5459972 56.9507954,12.8133259 57.39,12.82 L58.88,12.82 C59.27,12.82 59.35,13.04 59.05,13.3 L57.92,14.3 C57.6131102,14.6015042 57.4844293,15.0405333 57.58,15.46 L57.94,16.72 C58.05,17.1 57.87,17.24 57.53,17.04 L56.32,16.29 C55.9535503,16.0710381 55.4964497,16.0710381 55.13,16.29 L53.83,17.17 Z" id="Shape_2_copy" fill="#FFFFFF"></path>
                <path d="M35.83,24.17 C35.51,24.4 35.32,24.27 35.42,23.88 L35.77,22.45 C35.8500735,22.0226657 35.711221,21.5835916 35.4,21.28 L34.4,20.37 C34.1,20.11 34.18,19.89 34.57,19.88 L36.03,19.88 C36.4478745,19.8462255 36.8056097,19.5671134 36.94,19.17 L37.4,17.6 C37.51,17.22 37.71,17.21 37.84,17.6 L38.39,19.14 C38.557665,19.5459972 38.9507954,19.8133259 39.39,19.82 L40.88,19.82 C41.27,19.82 41.35,20.04 41.05,20.3 L39.92,21.3 C39.6131102,21.6015042 39.4844293,22.0405333 39.58,22.46 L39.94,23.72 C40.05,24.1 39.87,24.24 39.53,24.04 L38.32,23.29 C37.9535503,23.0710381 37.4964497,23.0710381 37.13,23.29 L35.83,24.17 Z" id="Shape_2_copy_2" fill="#FFFFFF"></path>
                <path d="M11.29,40.14 C10.88,40.43 10.64,40.27 10.76,39.77 L11.2,37.93 C11.3006163,37.3812102 11.1205249,36.8184246 10.72,36.43 L9.37,35.26 C8.99,34.93 9.09,34.65 9.59,34.63 L11.48,34.58 C12.0202824,34.5408801 12.4848614,34.1826031 12.66,33.67 L13.25,31.67 C13.39,31.18 13.65,31.17 13.82,31.67 L14.53,33.67 C14.7366932,34.1754318 15.2149024,34.5175653 15.76,34.55 L17.68,34.55 C18.18,34.55 18.29,34.83 17.91,35.17 L16.45,36.45 C16.0507036,36.8384047 15.883785,37.4074453 16.01,37.95 L16.48,39.57 C16.62,40.06 16.38,40.24 15.95,39.97 L14.39,38.97 C13.9177487,38.6924982 13.3322513,38.6924982 12.86,38.97 L11.29,40.14 Z" id="Shape_2_copy_5" fill="#FFFFFF"></path>
                <path d="M50.34,29.2 C50.11,29.36 49.98,29.27 50.04,29 L50.29,28 C50.3434778,27.6956586 50.2423,27.3846305 50.02,27.17 L49.27,26.52 C49.06,26.34 49.11,26.18 49.39,26.17 L50.39,26.17 C50.6892131,26.1454184 50.9449373,25.9447733 51.04,25.66 L51.37,24.54 C51.45,24.27 51.59,24.26 51.69,24.54 L52.09,25.64 C52.2041969,25.9200227 52.4682305,26.1102822 52.77,26.13 L53.84,26.13 C54.12,26.13 54.18,26.29 53.97,26.47 L53.16,27.18 C52.9720454,27.4089788 52.9119126,27.7171593 53,28 L53.26,28.9 C53.34,29.17 53.21,29.27 52.97,29.13 L52.1,28.59 C51.8375739,28.4360688 51.5124261,28.4360688 51.25,28.59 L50.34,29.2 Z" id="Shape_2_copy_3" fill="#FFFFFF"></path>
            </g>
        </g>
    </g>
</svg>