<?xml version="1.0" encoding="UTF-8"?>
<svg width="71px" height="48px" viewBox="0 0 71 48" version="1.1" xmlns="http://www.w3.org/2000/svg" xmlns:xlink="http://www.w3.org/1999/xlink">
    <!-- Generator: Sketch 48.1 (47250) - http://www.bohemiancoding.com/sketch -->
    <title>Australia-2@2x</title>
    <desc>Created with Sketch.</desc>
    <defs></defs>
    <g id="Flags" stroke="none" stroke-width="1" fill="none" fill-rule="evenodd" transform="translate(-324.000000, -1418.000000)">
        <g transform="translate(70.000000, 70.000000)" fill-rule="nonzero" id="Australia-2">
            <g transform="translate(254.000000, 1348.000000)">
                <path d="M63.78,0.3 L6.51,0.3 C2.99746899,0.3 0.15,3.14746899 0.15,6.66 L0.15,40.93 C0.15,44.442531 2.99746899,47.29 6.51,47.29 L63.78,47.29 C67.292531,47.29 70.14,44.442531 70.14,40.93 L70.14,6.66 C70.14,3.14746899 67.292531,0.3 63.78,0.3 Z" id="Shape" fill="#4A88DC"></path>
                <path d="M38.26,23.26 C38.19,23.04 38.2,22.79 38.11,22.57 C37.9224342,22.1446512 37.4308108,21.9453444 37,22.12 C37.0515095,21.0533298 36.4329005,20.0675465 35.45,19.65 C35.2656136,19.5996123 35.0970225,19.5032745 34.96,19.37 C34.8699282,19.2253898 34.8182955,19.0601653 34.81,18.89 C34.6809627,17.9179358 34.4599722,16.96031 34.15,16.03 C34.0642934,15.7703284 33.7980067,15.6157103 33.53,15.67 C33.3698128,15.7213413 33.1954255,15.654908 33.11,15.51 C32.57,14.62 32.72,13.35 32.11,12.51 C32,12.36 31.82,12.22 31.64,12.28 C31.5086424,12.3486564 31.41637,12.4741468 31.39,12.62 C30.79,14.51 32.02,17.83 30.39,18.5 C30.01,18.66 29.17,17.96 28.86,17.7 C28.55,17.44 28.01,16.91 27.6,16.5 C27.3719078,16.3308602 27.2264793,16.0727246 27.2,15.79 C27.2,15.18 28.2,14.89 27.96,14.21 C27.8629619,13.981798 27.6619597,13.8142961 27.42,13.76 L25.23,13.19 C25.0851149,13.1346018 24.9248851,13.1346018 24.78,13.19 C24.48,13.35 24.6,13.83 24.4,14.11 C24.2,14.39 23.77,14.34 23.45,14.47 C22.88,14.72 22.81,15.47 22.57,16.05 C22.4835128,16.2543899 22.3120054,16.4107634 22.1005175,16.478055 C21.8890297,16.5453466 21.6586942,16.5168322 21.47,16.4 C21.09,16.15 20.81,15.64 20.35,15.52 C19.8668364,15.4573669 19.3900109,15.6744582 19.12,16.08 C18.8608001,16.4813105 18.5804027,16.868526 18.28,17.24 C17.84,17.68 17.19,17.92 16.89,18.46 C16.7,18.8 16.67,19.2 16.5,19.55 C16.08,20.42 14.98,20.64 14.03,20.8 C12.63,21.03 11.03,21.53 10.57,22.89 C10.4044892,23.546394 10.4044892,24.233606 10.57,24.89 L11,27.16 C11.3514392,28.6572515 11.5160261,30.1922763 11.49,31.73 C11.4444107,31.9644712 11.4444107,32.2055288 11.49,32.44 C11.5607126,32.634421 11.6899844,32.802125 11.86,32.92 C12.4787582,33.2613198 13.2249595,33.2799748 13.86,32.97 C14.4852207,32.6600887 15.1642282,32.4733616 15.86,32.42 C16.3006835,32.5094069 16.7513185,32.5396734 17.2,32.51 C17.514653,32.4082903 17.8042979,32.2413185 18.05,32.02 C19.1019211,31.1296713 20.3722245,30.5359425 21.73,30.3 C23.1184937,30.0815759 24.510494,30.6709466 25.32,31.82 C25.53,32.16 25.69,32.58 26.2,32.58 C26.458765,32.5762081 26.7017075,32.4547368 26.86,32.25 L27.6,31.35 C28.01,32.43 27.82,33.6 28.3,34.66 C28.78,35.72 29.94,36.66 31.03,36.25 C31.54,36.07 32.18,35.71 32.52,36.14 C32.704216,36.3756483 33.0095219,36.4813311 33.3,36.41 C33.51,36.32 33.77,35.94 33.98,35.82 C34.55,35.49 35.23,35.99 35.83,35.36 C36.0582554,35.1118732 36.198778,34.7956973 36.23,34.46 C36.3906087,33.5059744 36.8491948,32.6273095 37.54,31.95 C38.020673,31.5551074 38.4270395,31.0776267 38.74,30.54 C39.235725,29.2525997 39.571569,27.9092238 39.74,26.54 C39.8541785,25.9828704 39.7839781,25.4037167 39.54,24.89 C39.26,24.23 38.46,23.93 38.26,23.26 Z" id="Shape" fill="#FFFFFF"></path>
                <path d="M33.95,38.14 C33.5114017,38.3216723 33.0185983,38.3216723 32.58,38.14 C32.36,38.06 32.22,37.89 32,37.81 C32,37.81 31.81,37.81 31.76,37.95 C31.7012368,38.1286245 31.7012368,38.3213755 31.76,38.5 C31.8229568,38.6770076 31.876367,38.8572669 31.92,39.04 C31.9208817,39.276161 31.9511134,39.5112968 32.01,39.74 C32.1201645,39.9561543 32.322466,40.1106391 32.56,40.16 C32.9735082,40.2605205 33.4091081,40.1306047 33.7,39.82 C33.8005282,39.7033962 33.8877342,39.5759413 33.96,39.44 C34.1253117,39.1544634 34.2690456,38.8569677 34.39,38.55 C34.4347875,38.4530433 34.4553767,38.3466659 34.45,38.24 C34.4401901,38.1335981 34.3638407,38.0451935 34.26,38.02 C34.1458409,38.0226567 34.0361942,38.0651006 33.95,38.14 Z" id="Shape" fill="#FFFFFF"></path>
                <path d="M55.41,35.35 C55.23,35.42 55.09,35.58 54.9,35.65 C54.6212152,35.7123336 54.3292329,35.6696045 54.08,35.53 C54.08,35.53 53.98,35.53 53.97,35.44 C53.9619146,35.4105448 53.9619146,35.3794552 53.97,35.35 C54.08,35.03 54.04,34.5 53.81,34.44 C53.58,34.38 53.67,34.55 53.67,34.7 C53.67,34.85 53.76,34.88 53.72,34.96 C53.72,34.96 53.62,34.96 53.6,34.89 C53.5841611,34.8399478 53.5605384,34.7927024 53.53,34.75 C53.47,34.69 53.3,34.68 53.28,34.52 C53.2869559,34.2451011 53.3136917,33.9710596 53.36,33.7 C53.36,33.42 53.22,32.88 52.99,33.02 C52.9306911,33.0502622 52.8614759,33.0545258 52.7989013,33.0317714 C52.7363267,33.009017 52.6860172,32.9612899 52.66,32.9 C52.66,32.84 52.66,32.75 52.59,32.7 C52.42,32.43 52.27,32.53 52.29,32.64 C52.31,32.75 52.45,32.89 52.46,32.92 C52.4689515,32.9729577 52.4689515,33.0270423 52.46,33.08 C52.4451454,33.1961938 52.4451454,33.3138062 52.46,33.43 C52.5258498,33.6543315 52.6199365,33.869387 52.74,34.07 C52.9414073,34.3718985 53.0776408,34.7124822 53.14,35.07 C53.1465022,35.4221746 53.0528712,35.7689563 52.87,36.07 C52.8436864,36.1213022 52.8099949,36.1684702 52.77,36.21 C52.6909955,36.2753598 52.598942,36.3230912 52.5,36.35 L52.14,36.51 C51.2469157,37.1667154 50.4839134,37.9839756 49.89,38.92 C49.451345,39.4694424 48.8895317,39.9079308 48.25,40.2 C47.7,40.47 47.1,40.63 46.57,40.94 C46.3267902,41.0812746 46.1101879,41.2640328 45.93,41.48 C45.8026009,41.634314 45.7043347,41.8105154 45.64,42 C45.5769523,42.2118822 45.6735384,42.4386496 45.87,42.54 C46.6582378,42.8193981 47.5360988,42.6468926 48.16,42.09 C48.5139486,41.7076394 48.8477344,41.3070964 49.16,40.89 C49.4357445,40.5438881 49.8396578,40.3238996 50.28,40.28 C50.3735533,40.2829601 50.4566468,40.22064 50.48,40.13 C50.48,39.96 50.72,39.79 50.89,39.68 C51.25,39.44 51.43,39.01 51.72,38.68 C51.85,38.53 52.28,38.21 52.63,38.52 C52.6721554,38.5593088 52.7238715,38.5868907 52.78,38.6 C52.92,38.6 53.03,38.48 53.11,38.36 C53.3002742,38.009129 53.5586525,37.6997549 53.87,37.45 C53.9423563,37.4080386 54.0039758,37.3498424 54.05,37.28 C54.0631148,37.207253 54.0631148,37.132747 54.05,37.06 C54.0661457,36.8989902 54.1408796,36.7495225 54.26,36.64 C54.3832328,36.53031 54.5592706,36.5029263 54.71,36.57 L54.78,36.57 C54.78,36.57 54.85,36.57 54.86,36.48 C54.87,36.39 54.86,36.39 54.86,36.35 C54.86,36.31 55.15,36.17 55.26,36.04 C55.37,35.91 55.34,35.67 55.46,35.54 C55.58,35.41 55.63,35.44 55.65,35.35 C55.6636781,35.2709014 55.6166285,35.1939112 55.54,35.17 C55.4759286,35.211891 55.4296226,35.2760071 55.41,35.35 Z" id="Shape" fill="#FFFFFF"></path>
                <path d="M53.9,34.21 C53.9139295,34.1746563 53.9139295,34.1353437 53.9,34.1 C53.8869997,34.1355143 53.8869997,34.1744857 53.9,34.21 C53.9,34.21 53.87,34.25 53.9,34.21 Z" id="Shape" fill="#FFFFFF"></path>
                <path d="M31.57,11.28 C31.803844,11.324782 32.0421877,11.3415668 32.28,11.33 C32.49,11.33 32.83,11.2 32.91,11.01 C33.1,10.57 32.34,10.59 33,10.44 C33.24,10.38 33.17,10.14 33.48,10.11 C33.8193363,10.1226632 34.1555419,10.1798181 34.48,10.28 C34.6094301,10.303396 34.7322503,10.3545711 34.84,10.43 C34.9315832,10.5190877 35.0061381,10.6241423 35.06,10.74 C35.324612,11.1609645 35.6366528,11.5501766 35.99,11.9 C36.0613311,11.9871068 36.1498358,12.0585914 36.25,12.11 C36.55,12.24 36.91,11.98 37.25,12.05 C37.59,12.12 37.8,12.6 38.17,12.61 C38.2178839,12.6305721 38.2721161,12.6305721 38.32,12.61 C38.42,12.51 38.32,12.35 38.18,12.27 L37.91,12.07 C37.8169221,11.9914515 37.7389761,11.8965607 37.68,11.79 C37.5803391,11.6014852 37.4361659,11.4401486 37.26,11.32 C37.13,11.22 36.86,11.32 36.73,11.21 C36.6,11.1 36.59,10.79 36.49,10.62 C36.24,10.18 35.49,9.8 35.49,9.38 C35.49,9.27 35.7,9.38 35.81,9.38 C35.92,9.38 36.16,9.12 36.07,8.93 C35.9543668,8.7474066 35.7768873,8.61252219 35.57,8.55 L34.78,8.2 C34.716515,8.18061429 34.6628486,8.1376812 34.63,8.08 C34.6134615,8.01774636 34.6134615,7.95225364 34.63,7.89 C34.68,7.54 34.34,7.27 34.04,7.09 C33.3958576,6.69867827 32.7278891,6.34799478 32.04,6.04 C31.9016776,5.95824014 31.7488893,5.9039154 31.59,5.88 C31.4983099,5.8799288 31.4123943,5.92475429 31.36,6 C31.2941287,6.10438067 31.2626516,6.2267914 31.27,6.35 L31.13,10.47 C31.13,10.74 31.13,11.06 31.36,11.21 C31.4259098,11.244169 31.4967708,11.2677894 31.57,11.28 Z" id="Shape" fill="#FFFFFF"></path>
                <path d="M57.91,18.17 C57.8466134,18.2012688 57.7968282,18.2546101 57.77,18.32 C57.7194637,18.4037615 57.6511981,18.4754403 57.57,18.53 C57.4889904,18.5858127 57.4464184,18.6825672 57.46,18.78 C57.4754097,18.8153997 57.4994827,18.8463507 57.53,18.87 C57.6491707,18.9852588 57.8177239,19.033952 57.98,19 C58.0574077,18.9796597 58.1292035,18.9420524 58.19,18.89 C58.348009,18.7675885 58.4218695,18.565444 58.38,18.37 C58.3467626,18.2791165 58.2773804,18.2060501 58.1883366,18.1681591 C58.0992927,18.1302681 57.9985348,18.1309345 57.91,18.17 Z" id="Shape" fill="#FFFFFF"></path>
                <path d="M49.15,22.56 C49.2231083,22.6147046 49.3093322,22.6491942 49.4,22.66 C49.495361,22.6732823 49.5855833,22.6131342 49.61,22.52 C49.6128122,22.4371758 49.5800561,22.3571053 49.52,22.3 L48.96,21.62 L48.4,20.94 C48.313817,20.823677 48.2090854,20.7223238 48.09,20.64 C47.9612716,20.5741244 47.8087284,20.5741244 47.68,20.64 C47.9347075,21.4299599 48.4538481,22.108021 49.15,22.56 Z" id="Shape" fill="#FFFFFF"></path>
                <path d="M50.71,17.82 C50.71,17.82 50.81,17.9 50.86,17.87 C50.8926694,17.846124 50.9143068,17.8100617 50.92,17.77 C51.0265327,17.3211277 51.0802304,16.861341 51.08,16.4 C51.0936093,16.3026676 51.064436,16.2042078 51,16.13 C50.9443263,16.087642 50.8718262,16.0742865 50.8047134,16.0940255 C50.7376006,16.1137646 50.6838758,16.1642451 50.66,16.23 C50.56,16.63 50.25,16.46 50.13,16.23 C50.0904171,16.1332933 50.0327152,16.0450433 49.96,15.97 C49.8848467,15.8928246 49.7720838,15.865606 49.67,15.9 L49.67,15.97 C49.7228312,16.4766289 49.9168626,16.9582426 50.23,17.36 C50.3762907,17.5270268 50.536902,17.680946 50.71,17.82 Z" id="Shape" fill="#FFFFFF"></path>
                <path d="M59.55,17.55 C59.55,17.49 59.62,17.45 59.66,17.4 C59.6832612,17.3525329 59.6856965,17.2975212 59.6667208,17.2481843 C59.6477451,17.1988474 59.6090739,17.1596459 59.56,17.14 C59.4599281,17.103284 59.3500719,17.103284 59.25,17.14 C59.0382516,17.2092165 58.8414729,17.3177841 58.67,17.46 C58.51,17.59 58.42,17.77 58.67,17.85 C58.7515804,17.8741722 58.8384196,17.8741722 58.92,17.85 C59.1346084,17.8284 59.3513499,17.845333 59.56,17.9 C59.641193,17.9267105 59.728807,17.9267105 59.81,17.9 C59.89,17.9 59.93,17.75 59.87,17.69 C59.81,17.63 59.56,17.66 59.55,17.55 Z" id="Shape" fill="#FFFFFF"></path>
                <path d="M46.75,12.79 C47.15,12.46 46.03,10.69 45.22,9.86 C44.3717544,9.05986989 43.3859191,8.41958512 42.31,7.97 C41.620327,7.70522957 40.9836188,7.31914051 40.43,6.83 C39.82,6.21 39.49,5.29 38.71,4.9 C38.51,4.8 38.2,4.77 38.1,4.97 C38,5.17 38.19,5.4 38.34,5.57 C38.663225,5.90494386 38.8176136,6.36810994 38.76,6.83 C38.6635264,7.30312322 38.2427608,7.63973571 37.76,7.63 C37.4761688,7.55759137 37.2036236,7.44655444 36.95,7.3 C36.68,7.19 36.1,7.17 36.17,7.46 C36.2799139,7.78557522 36.5133524,8.05492729 36.82,8.21 C37.59,8.6 38.34,8.87 39.01,8.33 C39.1862009,8.13597187 39.3767377,7.95546331 39.58,7.79 C40.0057348,7.59634206 40.5079146,7.70163783 40.82,8.05 C41.1151346,8.39400233 41.354692,8.78201776 41.53,9.2 C42.56,11.11 46.26,13.2 46.75,12.79 Z" id="Shape" fill="#FFFFFF"></path>
            </g>
        </g>
    </g>
</svg>