<?xml version="1.0" encoding="UTF-8"?>
<svg width="71px" height="48px" viewBox="0 0 71 48" version="1.1" xmlns="http://www.w3.org/2000/svg" xmlns:xlink="http://www.w3.org/1999/xlink">
    <!-- Generator: Sketch 48.1 (47250) - http://www.bohemiancoding.com/sketch -->
    <title>Azerbaijan@2x</title>
    <desc>Created with Sketch.</desc>
    <defs></defs>
    <g id="Flags" stroke="none" stroke-width="1" fill="none" fill-rule="evenodd" transform="translate(-70.000000, -192.000000)">
        <g transform="translate(70.000000, 70.000000)" fill-rule="nonzero" id="Azerbaijan">
            <g transform="translate(0.000000, 122.000000)">
                <path d="M0.28,7.21 L0.28,16.21 L70.28,16.21 L70.28,7.21 C70.28,3.54282926 67.3071707,0.57 63.64,0.57 L6.93,0.57 C5.16723053,0.567345224 3.47575038,1.26574249 2.22834517,2.5112719 C0.980939967,3.75680131 0.279998001,5.44722853 0.28,7.21 Z" id="Shape" fill="#4758A9"></path>
                <polygon id="Shape" fill="#ED5565" points="0.28 31.91 70.28 31.91 70.28 16.24 0.28 16.24"></polygon>
                <path d="M0.28,40.92 C0.28,44.5871707 3.25282926,47.56 6.92,47.56 L63.64,47.56 C67.3071707,47.56 70.28,44.5871707 70.28,40.92 L70.28,31.92 L0.28,31.92 L0.28,40.92 Z" id="Shape" fill="#57A863"></path>
                <path d="M37.41,26.7 C37.15,26.88 37,26.78 37.08,26.47 L37.37,25.31 C37.4549839,24.9488857 37.3449968,24.5696199 37.08,24.31 L36.25,23.56 C36.01,23.35 36.08,23.17 36.39,23.16 L37.56,23.16 C37.8993051,23.1373058 38.1914521,22.9122737 38.3,22.59 L38.68,21.32 C38.77,21.01 38.93,21.01 39.04,21.32 L39.47,22.58 C39.5922664,22.9006242 39.8879662,23.1223991 40.23,23.15 L41.43,23.15 C41.74,23.15 41.81,23.33 41.57,23.54 L40.65,24.34 C40.3988631,24.5829038 40.2927122,24.9392675 40.37,25.28 L40.65,26.28 C40.73,26.59 40.59,26.7 40.32,26.53 L39.32,25.91 C39.0150275,25.7155408 38.6249725,25.7155408 38.32,25.91 L37.41,26.7 Z M39.11,28.6 C37.7966404,29.3304266 36.2243966,29.4313813 34.8284054,28.8749237 C33.4324142,28.3184661 32.3607469,27.1636191 31.91,25.73 C31.5755252,24.708213 31.5373858,23.6125717 31.8,22.57 C32.1641586,21.1154221 33.1619043,19.9010659 34.5182127,19.2616633 C35.8745212,18.6222608 37.4461917,18.6253208 38.8,19.27 C38.8437692,19.2822223 38.8906098,19.2764117 38.9300659,19.2538654 C38.969522,19.231319 38.9983087,19.193914 39.01,19.15 C39.0325354,19.0752068 39.0042585,18.9944154 38.94,18.95 C37.2784287,17.5992888 35.0403251,17.1948912 33.0111363,17.8787279 C30.9819474,18.5625645 29.4451227,20.2391129 28.94,22.32 C28.6062043,23.5783512 28.6514287,24.9072529 29.07,26.14 C29.5852405,27.7451132 30.7194553,29.0783999 32.2212097,29.8442947 C33.7229642,30.6101894 35.4681891,30.745417 37.07,30.22 L37.16,30.22 C37.9572828,29.941425 38.6890066,29.5023907 39.31,28.93 C39.3705751,28.8829301 39.3946618,28.802641 39.37,28.73 C39.3413285,28.6425232 39.2482369,28.593761 39.16,28.62 L39.11,28.6 Z M39.25,27.06 C39.14,27.36 38.96,27.35 38.85,27.06 L38.42,26 C38.2767849,25.6802591 37.9848314,25.4519365 37.64,25.39 L36.53,25.25 C36.22,25.25 36.16,25.03 36.42,24.84 L37.42,24.15 C37.6846567,23.9372066 37.7951514,23.5859914 37.7,23.26 L37.24,22 C37.14,21.7 37.24,21.6 37.53,21.79 L38.6,22.58 C38.8877793,22.758963 39.2522207,22.758963 39.54,22.58 L40.54,21.92 C40.8,21.75 40.95,21.85 40.87,22.16 L40.57,23.34 C40.5038778,23.6828619 40.6213851,24.0353838 40.88,24.27 L41.7,24.95 C41.95,25.16 41.89,25.33 41.57,25.35 L40.42,25.35 C40.0791894,25.3790153 39.7826102,25.5947092 39.65,25.91 L39.25,27.06 Z" id="Shape_6_copy" fill="#FFFFFF"></path>
            </g>
        </g>
    </g>
</svg>