<?xml version="1.0" encoding="UTF-8"?>
<svg width="71px" height="48px" viewBox="0 0 71 48" version="1.1" xmlns="http://www.w3.org/2000/svg" xmlns:xlink="http://www.w3.org/1999/xlink">
    <!-- Generator: Sketch 48.1 (47250) - http://www.bohemiancoding.com/sketch -->
    <title>Bahamas-3@2x</title>
    <desc>Created with Sketch.</desc>
    <defs></defs>
    <g id="Flags" stroke="none" stroke-width="1" fill="none" fill-rule="evenodd" transform="translate(-154.000000, -192.000000)">
        <g transform="translate(70.000000, 70.000000)" fill-rule="nonzero" id="Bahamas-3">
            <g transform="translate(84.000000, 122.000000)">
                <path d="M0.9,7.21 L0.9,16.21 L70.9,16.21 L70.9,7.21 C70.9,3.54282926 67.9271707,0.57 64.26,0.57 L7.55,0.57 C5.78723053,0.567345224 4.09575038,1.26574249 2.84834517,2.5112719 C1.60093997,3.75680131 0.899998001,5.44722853 0.9,7.21 Z" id="Shape" fill="#3BAFDA"></path>
                <polygon id="Shape" fill="#FFCE54" points="0.9 31.91 70.9 31.91 70.9 16.24 0.9 16.24"></polygon>
                <path d="M0.9,40.92 C0.9,44.5871707 3.87282926,47.56 7.54,47.56 L64.26,47.56 C67.9271707,47.56 70.9,44.5871707 70.9,40.92 L70.9,31.92 L0.9,31.92 L0.9,40.92 Z" id="Shape" fill="#3BAFDA"></path>
                <path d="M3,2.19 C1.64534581,3.39308 0.870117561,5.11823582 0.87,6.93 L0.87,41.2 C0.870117561,43.0117642 1.64534581,44.73692 3,45.94 L28.87,24.06 L3,2.19 Z" id="Shape" fill="#434A54"></path>
            </g>
        </g>
    </g>
</svg>