<?xml version="1.0" encoding="UTF-8"?>
<svg width="71px" height="48px" viewBox="0 0 71 48" version="1.1" xmlns="http://www.w3.org/2000/svg" xmlns:xlink="http://www.w3.org/1999/xlink">
    <!-- Generator: Sketch 48.1 (47250) - http://www.bohemiancoding.com/sketch -->
    <title>Barbados@2x</title>
    <desc>Created with Sketch.</desc>
    <defs></defs>
    <g id="Flags" stroke="none" stroke-width="1" fill="none" fill-rule="evenodd" transform="translate(-408.000000, -192.000000)">
        <g transform="translate(70.000000, 70.000000)" fill-rule="nonzero" id="Barbados">
            <g transform="translate(338.000000, 122.000000)">
                <g id="Bahamas-11">
                    <path d="M7.13,0.57 C3.61746899,0.57 0.77,3.41746899 0.77,6.93 L0.77,41.2 C0.77,44.712531 3.61746899,47.56 7.13,47.56 L24.13,47.56 C24.13,31.8933333 24.13,16.2266667 24.13,0.56 L7.13,0.57 Z" id="Shape" fill="#4758A9"></path>
                    <path d="M24.11,0.57 C24.11,16.2366667 24.11,31.9033333 24.11,47.57 L47.46,47.57 C47.46,31.9033333 47.46,16.2366667 47.46,0.57 L24.11,0.57 Z" id="Shape" fill="#FFCE54"></path>
                    <path d="M64.4,0.57 L47.45,0.57 C47.45,16.2366667 47.45,31.9033333 47.45,47.57 L64.4,47.57 C67.912531,47.57 70.76,44.722531 70.76,41.21 L70.76,6.93 C70.76,3.41746899 67.912531,0.57 64.4,0.57 Z" id="Shape" fill="#4758A9"></path>
                </g>
                <path d="M36.76,33.57 L36.76,28.84 C37.8275868,28.9385206 38.8868866,29.1122858 39.93,29.36 C40.12,25.22 41.2,20.63 44.27,17.36 C42.2982852,17.4437392 40.4659897,18.4001974 39.27,19.97 C39.7082808,19.9149935 40.1517192,19.9149935 40.59,19.97 C39.4171888,22.2986421 38.704185,24.8315033 38.49,27.43 C37.92735,27.3043187 37.3555091,27.2240603 36.78,27.19 L36.78,19.42 C37.2854169,19.4717909 37.7787625,19.6069541 38.24,19.82 C37.2837207,18.1678278 36.4675332,16.438447 35.8,14.65 C35.1292498,16.438773 34.309713,18.1681629 33.35,19.82 C33.8112375,19.6069541 34.3045831,19.4717909 34.81,19.42 L34.81,27.19 C34.2344866,27.2240173 33.6626423,27.3042761 33.1,27.43 C32.885815,24.8315033 32.1728112,22.2986421 31,19.97 C31.4382808,19.9149935 31.8817192,19.9149935 32.32,19.97 C31.1260002,18.3964341 29.2934039,17.4361536 27.32,17.35 C30.39,20.67 31.47,25.25 31.66,29.35 C32.7031003,29.1022205 33.7624047,28.9284545 34.83,28.83 L34.83,33.56 L36.83,33.56 L36.76,33.57 Z" id="Shape" fill="#434A54"></path>
            </g>
        </g>
    </g>
</svg>