<?xml version="1.0" encoding="UTF-8"?>
<svg width="71px" height="48px" viewBox="0 0 71 48" version="1.1" xmlns="http://www.w3.org/2000/svg" xmlns:xlink="http://www.w3.org/1999/xlink">
    <!-- Generator: Sketch 48.1 (47250) - http://www.bohemiancoding.com/sketch -->
    <title>Belarus@2x</title>
    <desc>Created with Sketch.</desc>
    <defs></defs>
    <g id="Flags" stroke="none" stroke-width="1" fill="none" fill-rule="evenodd" transform="translate(-70.000000, -253.000000)">
        <g transform="translate(70.000000, 70.000000)" fill-rule="nonzero" id="Belarus">
            <g transform="translate(0.000000, 183.000000)">
                <rect id="Rounded_Rectangle_7_copy-4" fill="#ED5565" x="0.28" y="0.85" width="70" height="47" rx="6.36"></rect>
                <path d="M0.28,41.49 C0.28,45.002531 3.12746899,47.85 6.64,47.85 L63.92,47.85 C67.432531,47.85 70.28,45.002531 70.28,41.49 L70.28,35.85 L0.28,35.85 L0.28,41.49 Z" id="Shape" fill="#57A863"></path>
                <path d="M6.65,0.85 C3.13746899,0.85 0.29,3.69746899 0.29,7.21 L0.29,41.48 C0.29,44.992531 3.13746899,47.84 6.65,47.84 L14.29,47.84 L14.29,0.84 L6.65,0.85 Z" id="Shape" fill="#ED5565"></path>
                <path d="M2.28,19.85 L4.28,19.85 L4.28,21.85 L2.28,21.85 L2.28,19.85 Z M2.28,25.85 L4.28,25.85 L4.28,23.85 L2.28,23.85 L2.28,25.85 Z M2.28,17.85 L4.28,17.85 L4.28,15.85 L2.28,15.85 L2.28,17.85 Z M2.28,5.85 L4.28,5.85 L4.28,3.85 L2.28,3.85 L2.28,5.85 Z M2.28,9.85 L4.28,9.85 L4.28,7.85 L2.28,7.85 L2.28,9.85 Z M2.28,29.85 L4.28,29.85 L4.28,27.85 L2.28,27.85 L2.28,29.85 Z M2.28,13.85 L4.28,13.85 L4.28,11.85 L2.28,11.85 L2.28,13.85 Z M2.28,45.85 L4.28,45.85 L4.28,43.85 L2.28,43.85 L2.28,45.85 Z M9.28,3.85 L9.28,0.85 L6.65,0.85 C6.19260036,0.851104241 5.73664569,0.901393359 5.29,1 L5.29,3.85 L9.28,3.85 Z M5.28,44.85 L5.28,47.7 C5.72664569,47.7986066 6.18260036,47.8488958 6.64,47.85 L9.28,47.85 L9.28,44.85 L5.28,44.85 Z M12.28,1.85 L12.28,0.85 L10.28,0.85 L10.28,1.85 L12.28,1.85 Z M5.28,43.85 L9.28,43.85 L9.28,39.85 L5.28,39.85 L5.28,43.85 Z M2.28,33.85 L4.28,33.85 L4.28,31.85 L2.28,31.85 L2.28,33.85 Z M2.28,37.85 L4.28,37.85 L4.28,35.85 L2.28,35.85 L2.28,37.85 Z M2.28,41.85 L4.28,41.85 L4.28,39.85 L2.28,39.85 L2.28,41.85 Z M5.28,13.85 L9.28,13.85 L9.28,9.85 L5.28,9.85 L5.28,13.85 Z M10.28,25.85 L12.28,25.85 L12.28,23.85 L10.28,23.85 L10.28,25.85 Z M10.28,21.85 L12.28,21.85 L12.28,19.85 L10.28,19.85 L10.28,21.85 Z M10.28,33.85 L12.28,33.85 L12.28,31.85 L10.28,31.85 L10.28,33.85 Z M10.28,17.85 L12.28,17.85 L12.28,15.85 L10.28,15.85 L10.28,17.85 Z M10.28,29.85 L12.28,29.85 L12.28,27.85 L10.28,27.85 L10.28,29.85 Z M10.28,5.85 L12.28,5.85 L12.28,3.85 L10.28,3.85 L10.28,5.85 Z M10.28,9.85 L12.28,9.85 L12.28,7.85 L10.28,7.85 L10.28,9.85 Z M10.28,13.85 L12.28,13.85 L12.28,11.85 L10.28,11.85 L10.28,13.85 Z M10.28,37.85 L12.28,37.85 L12.28,35.85 L10.28,35.85 L10.28,37.85 Z M5.28,28.85 L9.28,28.85 L9.28,24.85 L5.28,24.85 L5.28,28.85 Z M5.28,23.85 L9.28,23.85 L9.28,19.85 L5.28,19.85 L5.28,23.85 Z M5.28,38.85 L9.28,38.85 L9.28,34.85 L5.28,34.85 L5.28,38.85 Z M5.28,33.85 L9.28,33.85 L9.28,29.85 L5.28,29.85 L5.28,33.85 Z M5.28,18.85 L9.28,18.85 L9.28,14.85 L5.28,14.85 L5.28,18.85 Z M5.28,8.85 L9.28,8.85 L9.28,4.85 L5.28,4.85 L5.28,8.85 Z M10.28,41.85 L12.28,41.85 L12.28,39.85 L10.28,39.85 L10.28,41.85 Z M10.28,45.85 L12.28,45.85 L12.28,43.85 L10.28,43.85 L10.28,45.85 Z" id="Shape" fill="#FFFFFF"></path>
            </g>
        </g>
    </g>
</svg>