<?xml version="1.0" encoding="UTF-8"?>
<svg width="71px" height="47px" viewBox="0 0 71 47" version="1.1" xmlns="http://www.w3.org/2000/svg" xmlns:xlink="http://www.w3.org/1999/xlink">
    <!-- Generator: Sketch 48.1 (47250) - http://www.bohemiancoding.com/sketch -->
    <title>_Bermuda@2x</title>
    <desc>Created with Sketch.</desc>
    <defs></defs>
    <g id="Flags" stroke="none" stroke-width="1" fill="none" fill-rule="evenodd" transform="translate(-747.000000, -1173.000000)">
        <g transform="translate(70.000000, 70.000000)" id="_Bermuda">
            <g transform="translate(677.000000, 1103.000000)">
                <path d="M64.37,0.06 L6.44,0.06 C4.25050589,1.92978161 2.19542131,3.95145018 0.29,6.11 L0.29,40.91 C0.28663045,41.2157119 0.316811001,41.5208708 0.38,41.82 C1.06202912,44.8459293 3.74816192,46.9964962 6.85,47 L58.85,47 C61.8549028,47 64.7367327,45.806307 66.8615198,43.6815198 C68.986307,41.5567327 70.18,38.6749028 70.18,35.67 L70.18,6.67 C70.1911526,3.31534694 67.6983624,0.479315412 64.37,0.06 Z" id="Shape" fill="#EC5565" fill-rule="nonzero"></path>
                <path d="M25.26,0.06 L6.86,0.06 C3.22019521,0.0983735629 0.289797724,3.05999294 0.29,6.7 L0.29,24 L25.29,24 L25.26,0.06 Z" id="Shape" fill="#4658A9" fill-rule="nonzero"></path>
                <path d="M10.83,17.46 L10.83,24 L14.73,24 L14.73,17.29 L21.44,24 L25.26,24 L25.26,21 L18.26,14 L25.26,14 L25.26,10 L18.26,10 L25.26,3 L25.26,0 L21.43,0 L14.73,6.7 L14.73,0 L10.83,0 L10.83,6.56 L4.67,0.4 C3.10670719,0.966477572 1.81185751,2.09724162 1.04,3.57 L7.45,9.98 L0.29,9.98 L0.29,13.98 L7.45,13.98 L0.29,21.14 L0.29,24 L4.29,24 L10.83,17.46 Z" id="Shape" fill="#FFFFFF" fill-rule="nonzero"></path>
                <path d="M11.83,14.72 L11.83,24 L13.73,24 L13.73,14.55 L23.18,24 L25.26,24 L25.26,22.77 L15.48,12.99 L25.26,12.99 L25.26,11.04 L15.48,11.04 L25.26,1.26 L25.26,0.03 L23.17,0.03 L13.72,9.48 L13.72,0.03 L11.82,0.03 L11.82,9.33 L3.49,0.99 C2.8163927,1.39866358 2.22051707,1.92344041 1.73,2.54 L10.22,11.03 L0.29,11.03 L0.29,13 L10.22,13 L0.29,22.93 L0.29,24 L2.52,24 L11.83,14.72 Z" id="Shape" fill="#EC5463" fill-rule="nonzero"></path>
                <path d="M56.74,12 L56.74,29 C56.74,33.52 47.74,35 47.74,35 C47.74,35 38.74,33.53 38.74,29 L38.74,12 L56.74,12 Z" id="Shape" fill="#FFFFFF" fill-rule="nonzero"></path>
                <path d="M47.7,35 C47.7,35 56.7,33.53 56.7,29 L56.7,27.92 L38.66,27.92 L38.66,29 C38.66,33.49 47.7,35 47.7,35 Z" id="Shape" fill="#51C161" fill-rule="nonzero"></path>
                <path d="M56.74,12 L56.74,29 C56.74,33.52 47.74,35 47.74,35 C47.74,35 38.74,33.53 38.74,29 L38.74,12 L56.74,12 Z" id="Shape" stroke="#FFFFFF" stroke-linecap="round" stroke-linejoin="round"></path>
                <path d="M52.08,19.19 C51.8377543,19.2182791 51.5922619,19.1944118 51.36,19.12 C50.96,19 50.79,19.05 50.67,19.12 C50.7615673,18.8962722 50.66001,18.6401713 50.44,18.54 C50.44,18.54 50.57,18.87 50.44,19.02 C50.44,19.02 50.36,19.09 50.27,19.02 C50.1789659,18.9303478 50.0820867,18.8468312 49.98,18.77 C50.1722875,18.7045472 50.2901795,18.5108675 50.26,18.31 C50.2462781,18.1069662 50.1060212,17.9346506 49.91,17.88 C49.9290035,17.9656249 49.9290035,18.0543751 49.91,18.14 C49.91,18.14 49.54,17.93 50.04,17.64 C50.54,17.35 50.45,17.18 50.36,17.03 C50.2588428,16.8829235 50.1297212,16.7571999 49.98,16.66 C50.0346569,16.7466732 50.0624885,16.8475626 50.06,16.95 C50.06,17.08 49.82,17.17 49.86,16.95 C49.9,16.73 49.86,16.76 49.86,16.51 C50.1083415,16.5987098 50.3823499,16.4749641 50.48,16.23 C50.48,16.23 50.65,15.78 50.09,15.56 C50.09,15.56 50.23,15.74 50.16,15.88 C50.09,16.02 50.04,16.11 49.9,15.88 C49.76,15.65 49.67,15.66 49.68,15.45 C49.68,15.45 50.19,15.52 50.05,14.97 C50.05,14.97 49.97,15.34 49.31,14.84 C49.31,14.84 49.74,14.4 49.57,14.04 C49.57,14.04 49.52,13.88 49.05,13.97 C49.05,13.97 49.46,13.71 49.28,13.5 C49.28,13.5 49.19,13.35 48.81,13.5 C48.81,13.5 48.96,13.25 48.59,12.97 C48.4553167,13.0404583 48.3280167,13.1242083 48.21,13.22 C48.0827773,13.0585643 47.9422886,12.9080408 47.79,12.77 C47.6025874,12.8532372 47.4654441,13.0200331 47.42,13.22 C47.2973427,13.0968436 47.1406068,13.0132511 46.97,12.98 C46.8704416,13.1390374 46.8704416,13.3409626 46.97,13.5 C46.8274992,13.4836287 46.68884,13.4430456 46.56,13.38 C46.56,13.38 46.26,13.24 46.3,13.5 C46.3158152,13.6534312 46.3598908,13.8026102 46.43,13.94 C46.43,13.94 45.75,13.78 45.78,14.15 C45.7905637,14.4048473 45.9064541,14.6438714 46.1,14.81 C46.1,14.81 45.72,15.3 45.4,14.93 C45.4,14.93 45.29,15.05 45.53,15.37 C45.53,15.37 45.77,15.64 45.53,15.8 C45.53,15.8 45.26,16.01 45.13,15.6 C45.0122256,15.6982769 44.9511873,15.8487933 44.9672452,16.0013426 C44.983303,16.153892 45.0743438,16.2884 45.21,16.36 C45.4295217,16.4662896 45.6918173,16.4265478 45.87,16.26 C45.87,16.26 45.77,17.08 45.45,16.93 C45.45,16.93 45.26,16.79 45.6,16.62 C45.3243596,16.5779061 45.0660107,16.7649862 45.02,17.04 C44.9935583,17.2820979 45.1526093,17.505629 45.39,17.56 C45.39,17.56 45.72,17.68 45.39,17.94 C45.2500128,18.0505462 45.2155543,18.2486829 45.31,18.4 C45.31,18.4 45.5,18.7 45.02,18.73 C44.9003548,18.7430505 44.7796452,18.7430505 44.66,18.73 C44.6075303,18.8650838 44.6075303,19.0149162 44.66,19.15 C44.66,19.15 44.42,18.97 43.87,19.15 C43.32,19.33 43.36,19.21 43.32,19.27 C43.28,19.33 43.17,19.53 43.17,19.53 C43.17,19.53 43.46,19.88 43.46,19.87 C43.46,19.86 43.41,20.27 43.41,20.27 L43.55,20.34 L44.68,19.84 L45.83,19.24 L46.75,19.3 L47.34,19.44 L48.11,19.5 L48.66,19.21 L49.46,19.21 L50.34,19.65 L51.34,20.25 L51.86,20.34 L52.26,20.34 L52.26,19.53 L52.08,19.19 Z" id="Shape" fill="#EC5565" fill-rule="nonzero"></path>
                <path d="M43,20.14 C43,20.14 43.44,20.36 43.62,20.14 C43.68752,20.0231886 43.6932482,19.8806353 43.6353184,19.758783 C43.5773886,19.6369307 43.463217,19.551379 43.33,19.53 C43.5003795,19.3429877 43.5003795,19.0570123 43.33,18.87 C43.1982503,18.7764516 43.0217497,18.7764516 42.89,18.87 C42.8141575,18.7255574 42.6631053,18.6364754 42.5,18.64 C42.3481876,18.647974 42.218882,18.7530348 42.18,18.9 C42.18,18.9 41.85,18.76 41.67,18.96 C41.5844381,19.0493561 41.547731,19.1747703 41.5716106,19.2961586 C41.5954903,19.4175468 41.6769671,19.5197117 41.79,19.57 L42.09,19.57 L42.39,19.43 L42.72,19.53 C42.712065,19.7660813 42.8158138,19.9921055 43,20.14 Z" id="Shape" fill="#EC5565" fill-rule="nonzero"></path>
                <path d="M52.74,19.34 C53.037885,19.3076315 53.323337,19.4684495 53.45,19.74 C53.6140795,20.1037856 53.4810807,20.532814 53.14,20.74 C53.152973,20.8529621 53.152973,20.9670379 53.14,21.08 C53.97,21.18 53.82,22.08 53.82,22.08 L53.55,21.85 C53.07,21.66 52.55,22.07 52.23,22.75 C51.91,23.43 52.05,23.75 52.11,24.56 C52.17,25.37 53.48,25.85 53.48,25.85 L52.48,28.48 C52.4010495,28.7903212 52.1597683,29.0332662 51.8499969,29.1143473 C51.5402256,29.1954284 51.2108603,29.1018472 50.99,28.87 C50.75,28.65 50.68,28.77 50.56,28.87 C50.44,28.97 51.11,29.49 49.88,29.99 C49.2679861,30.208221 48.7066483,30.5484258 48.23,30.99 C47.8519987,31.0861244 47.4534012,31.0616491 47.09,30.92 C47.01,30.81 47.09,30.81 46.74,30.62 C46.39,30.43 45.88,30.25 45.3,29.97 C44.72,29.69 44.73,29.32 44.73,29.24 C44.73,29.16 44.93,28.55 44.25,29.04 C43.8272317,29.2833504 43.2905735,29.1861603 42.98,28.81 C42.85,28.63 42.27,27.1 42.27,27.1 C42.1451158,26.6766629 41.9914238,26.2623628 41.81,25.86 C41.81,25.86 41.81,25.93 42.29,25.64 C42.7371818,25.3453846 43.0609192,24.8971328 43.2,24.38 C43.3104231,23.8933228 43.2897184,23.3860592 43.14,22.91 C43.08,22.74 42.7,21.98 42.23,21.83 C41.9453976,21.7464467 41.6384034,21.8409065 41.45,22.07 C41.45,22.07 41.31,21.14 42.13,21.07 C42.117027,20.9570379 42.117027,20.8429621 42.13,20.73 C41.7889193,20.522814 41.6559205,20.0937856 41.82,19.73 C41.946663,19.4584495 42.232115,19.2976315 42.53,19.33 L42.4,19.57 C42.4,19.57 42.27,20.9 44.21,20.01 C46.15,19.12 46.09,18.96 47.21,19.51 L48.02,19.51 C48.02,19.51 49.19,18.97 49.56,19.2 C49.93,19.43 51.28,20.2 51.28,20.2 C51.28,20.2 52.58,20.69 52.83,19.79 L52.74,19.34 Z" id="Shape" stroke="#FFFFFF" stroke-width="0.1" fill="#3CAFDA" fill-rule="nonzero" stroke-linecap="round" stroke-linejoin="round"></path>
                <path d="M46.9,25.09 C46.9,25.09 46.83,24.68 46.76,24.42 C46.6812189,24.1839403 46.7182734,23.9245586 46.86,23.72 L47.16,23.37 C47.2640571,23.2295257 47.4117696,23.1275337 47.58,23.08 C47.58,23.08 47.81,23.08 47.84,23.03 C47.87,22.98 48.12,22.56 48.73,23.03 C48.8440485,22.8543378 49.0182797,22.7263312 49.22,22.67 C49.393547,22.6123919 49.5846353,22.668126 49.7,22.81 C49.8091095,22.7350977 49.9451938,22.7108184 50.073474,22.7433671 C50.2017543,22.7759158 50.3098007,22.8621387 50.37,22.98 C50.4999517,22.913671 50.6509333,22.9016941 50.7897172,22.9467052 C50.9285012,22.9917162 51.043714,23.0900264 51.11,23.22 C51.3669263,23.0977558 51.6743932,23.2047008 51.8,23.46 C52.06,23.9 52.01,24.08 52.01,24.08 L52.2,24.78 L52.89,25.63 L51.29,26.23 L50.57,26.23 L49.14,26.61 L46.59,26.81 L45.88,25.97 L46.9,25.09 Z" id="Shape" fill="#FFFFFF" fill-rule="nonzero"></path>
                <path d="M44.75,29.32 C44.5516236,29.3297599 44.3559628,29.3702414 44.17,29.44 C43.97402,29.5466356 43.7837594,29.6634623 43.6,29.79 C43.6,29.79 43.5,29.93 43.05,29.84 C43.05,29.84 42.29,29.66 42.29,30.25 C42.29,30.25 41.38,30.33 41.75,31.12 C41.7971544,31.2788432 41.9260924,31.4000522 42.0875438,31.4373102 C42.2489952,31.4745682 42.4180085,31.4221172 42.53,31.3 C42.53,31.3 42.19,31.78 42.84,31.97 C42.9673705,32.0031706 43.1027304,31.9837051 43.2155926,31.9159877 C43.3284549,31.8482704 43.4093291,31.7379954 43.44,31.61 C43.4803873,31.462106 43.4427015,31.3038253 43.34,31.19 C43.498453,31.1442108 43.634019,31.0407525 43.72,30.9 C43.72,30.9 43.24,31.5 43.72,31.72 C43.8835759,31.7718717 44.062143,31.7413356 44.1991871,31.638056 C44.3362312,31.5347764 44.4147898,31.3715366 44.41,31.2 C44.3785996,31.0287399 44.4587921,30.856326 44.61,30.77 C44.9567015,30.6645564 45.236464,30.4068805 45.37,30.07 C45.37,30.07 44.67,29.68 44.75,29.32 Z" id="Shape" fill="#EC5565" fill-rule="nonzero"></path>
                <path d="M43.21,23.31 C43.21,23.31 42.62,23.04 42.34,23.31 C42.0919388,23.1691249 41.7880612,23.1691249 41.54,23.31 C41.3036233,23.4652447 41.0826192,23.6427177 40.88,23.84 C40.88,23.84 40.69,24 40.76,24.51 C40.7984008,24.6879519 40.7984008,24.8720481 40.76,25.05 C40.76,25.05 40.63,25.05 40.37,25.33 C40.37,25.33 40.04,25.71 39.75,25.33 C39.7808716,25.4658148 39.8649367,25.5835682 39.9833609,25.6568785 C40.1017852,25.7301887 40.2446689,25.7529274 40.38,25.72 C40.38,25.72 40.12,25.93 40.38,26.46 C40.4757239,26.7440032 40.4390222,27.0559669 40.28,27.31 C40.5692422,27.1755283 40.7474625,26.8784945 40.73,26.56 C40.7096588,26.3416722 40.7440269,26.1217162 40.83,25.92 C40.83,25.92 40.69,26.16 41.01,26.68 C41.1398616,26.9166912 41.1398616,27.2033088 41.01,27.44 C41.2986702,27.3138313 41.4696794,27.0125294 41.43,26.7 C41.43,26.13 41.1,26.37 41.29,25.85 C41.3139715,25.9967849 41.3760381,26.1347107 41.47,26.25 C41.6797505,26.4339244 41.7718768,26.7179803 41.71,26.99 C41.8658091,26.7915184 41.9408233,26.5414713 41.92,26.29 C41.9022327,26.1305659 41.8583109,25.97515 41.79,25.83 L42.67,25.33 L43.11,24.54 L43.21,23.31 Z" id="Shape" fill="#EC5565" fill-rule="nonzero"></path>
                <path d="M42.93,22.37 L42.93,21.43 C42.9195474,21.3385861 42.9622768,21.2492429 43.04,21.2 C43.15,21.11 43.27,20.97 43.44,21.37 C43.5770468,21.21976 43.7276877,21.0825095 43.89,20.96 C43.9393001,20.9116123 44.0100801,20.8920911 44.0772143,20.9083661 C44.1443484,20.924641 44.1983314,20.9744078 44.22,21.04 C44.3039805,20.9072753 44.4126039,20.791863 44.54,20.7 C44.54,20.7 44.88,20.48 44.89,21.14 L45.15,20.9 C45.2857483,20.7995332 45.4769385,20.8262109 45.58,20.96 C45.7351077,21.1054734 45.8788603,21.2625984 46.01,21.43 C46.0656694,21.5167509 46.0967731,21.6169739 46.1,21.72 C46.0978295,21.8346772 46.1329191,21.9469639 46.2,22.04 C46.2691538,22.100905 46.3512077,22.1453508 46.44,22.17 C46.6026273,22.1795805 46.745876,22.2802417 46.81,22.43 C46.81,22.43 46.81,22.43 46.99,23.61 L46.99,25.85 L45.48,27.65 L43.06,26.96 L42.06,26.56 L41.84,25.85 L42.77,25.25 L43.28,23.88 L43.12,22.88 L42.93,22.37 Z" id="Shape" fill="#F2D660" fill-rule="nonzero"></path>
                <polygon id="Shape" fill="#E77329" fill-rule="nonzero" points="48.35 25.44 46.89 20.41 46.84 20.42 48.12 25.52"></polygon>
                <path d="M43.93,31.52 C43.93,31.52 43.93,31.52 43.93,31.52 C43.93,31.52 43.93,31.52 43.93,31.52 C43.8939763,31.5959447 43.8939763,31.6840553 43.93,31.76 C43.952096,31.8248358 43.952096,31.8951642 43.93,31.96 C43.93,31.96 43.93,31.96 43.93,31.96 C43.9530199,31.8987584 43.9530199,31.8312416 43.93,31.77 C43.93,31.77 43.86,31.6 43.93,31.52 Z" id="Shape" fill="#FFFFFF" fill-rule="nonzero"></path>
                <path d="M52.37,20.14 C52.37,20.14 51.93,20.36 51.75,20.14 C51.68248,20.0231886 51.6767518,19.8806353 51.7346816,19.758783 C51.7926114,19.6369307 51.906783,19.551379 52.04,19.53 C51.8696205,19.3429877 51.8696205,19.0570123 52.04,18.87 C52.1717497,18.7764516 52.3482503,18.7764516 52.48,18.87 C52.5558425,18.7255574 52.7068947,18.6364754 52.87,18.64 C53.0218124,18.647974 53.151118,18.7530348 53.19,18.9 C53.19,18.9 53.52,18.76 53.7,18.96 C53.7855619,19.0493561 53.822269,19.1747703 53.7983894,19.2961586 C53.7745097,19.4175468 53.6930329,19.5197117 53.58,19.57 L53.28,19.57 L52.98,19.43 L52.65,19.53 C52.657935,19.7660813 52.5541862,19.9921055 52.37,20.14 Z" id="Shape" fill="#EC5565" fill-rule="nonzero"></path>
                <path d="M49.6,23.56 L49.71,23.39 L49.98,23.18 C50.1534797,23.6174122 50.3004133,24.0648916 50.42,24.52 L50.42,24.86 C50.42,24.86 51.05,25.02 51.16,25.98 L50.64,26.98 L49.83,26.53 L49.6,26.36 L49.6,23.61 L49.6,23.56 Z" id="Shape" fill="#E77329" fill-rule="nonzero"></path>
                <path d="M41.91,31.1 C41.91,31.1 41.91,31.1 41.91,31.04 C41.91,30.98 41.91,31.04 41.91,31.04 C41.8168055,31.1828073 41.8168055,31.3671927 41.91,31.51 C41.91,31.51 41.91,31.51 41.91,31.51 C41.91,31.51 41.91,31.51 41.91,31.51 C41.8387626,31.3826164 41.8387626,31.2273836 41.91,31.1 Z" id="Shape" fill="#FFFFFF" fill-rule="nonzero"></path>
                <path d="M50.59,29.32 C50.7883764,29.3297599 50.9840372,29.3702414 51.17,29.44 C51.36598,29.5466356 51.5562406,29.6634623 51.74,29.79 C51.74,29.79 51.84,29.93 52.29,29.84 C52.29,29.84 53.05,29.66 53.05,30.25 C53.05,30.25 53.96,30.33 53.59,31.12 C53.5428456,31.2788432 53.4139076,31.4000522 53.2524562,31.4373102 C53.0910048,31.4745682 52.9219915,31.4221172 52.81,31.3 C52.81,31.3 53.15,31.78 52.5,31.97 C52.3726295,32.0031706 52.2372696,31.9837051 52.1244074,31.9159877 C52.0115451,31.8482704 51.9306709,31.7379954 51.9,31.61 C51.8596127,31.462106 51.8972985,31.3038253 52,31.19 C51.841547,31.1442108 51.705981,31.0407525 51.62,30.9 C51.62,30.9 52.1,31.5 51.62,31.72 C51.4564241,31.7718717 51.277857,31.7413356 51.1408129,31.638056 C51.0037688,31.5347764 50.9252102,31.3715366 50.93,31.2 C50.9614004,31.0287399 50.8812079,30.856326 50.73,30.77 C50.3832985,30.6645564 50.103536,30.4068805 49.97,30.07 C49.97,30.07 50.66,29.68 50.59,29.32 Z" id="Shape" fill="#EC5565" fill-rule="nonzero"></path>
                <polygon id="Shape" fill="#E77329" fill-rule="nonzero" points="46.37 26.32 44.91 21.29 44.86 21.31 46.14 26.4"></polygon>
                <path d="M42.89,32.07 C42.7765364,31.9451624 42.7219377,31.7777265 42.74,31.61 C42.74,31.61 42.74,31.55 42.74,31.54 C42.74,31.53 42.74,31.54 42.74,31.6 C42.7155079,31.7762014 42.7746855,31.9537342 42.9,32.08 C42.9,32.08 42.9,32.09 42.89,32.07 Z" id="Shape" fill="#FFFFFF" fill-rule="nonzero"></path>
                <path d="M49.72,23.39 L46.93,24.27 L46.78,25.51 C46.2774212,26.1227117 45.564178,26.5256941 44.78,26.64 L45.78,27.76 L47.78,28.18 L48.84,27.37 L49.84,26.49 C49.7953808,26.1012762 49.7953808,25.7087238 49.84,25.32 C49.8332354,25.190088 49.8332354,25.059912 49.84,24.93 C49.760354,24.4205284 49.7202344,23.9056595 49.72,23.39 Z" id="Shape" fill="#E77329" fill-rule="nonzero"></path>
                <path d="M52.14,23.31 C52.14,23.31 52.73,23.04 53.01,23.31 C53.2580612,23.1691249 53.5619388,23.1691249 53.81,23.31 C54.0463767,23.4652447 54.2673808,23.6427177 54.47,23.84 C54.47,23.84 54.66,24 54.59,24.51 C54.5515992,24.6879519 54.5515992,24.8720481 54.59,25.05 C54.59,25.05 54.72,25.05 54.98,25.33 C54.98,25.33 55.31,25.71 55.6,25.33 C55.5691284,25.4658148 55.4850633,25.5835682 55.3666391,25.6568785 C55.2482148,25.7301887 55.1053311,25.7529274 54.97,25.72 C54.97,25.72 55.23,25.93 54.97,26.46 C54.8742761,26.7440032 54.9109778,27.0559669 55.07,27.31 C54.7807578,27.1755283 54.6025375,26.8784945 54.62,26.56 C54.6403412,26.3416722 54.6059731,26.1217162 54.52,25.92 C54.52,25.92 54.66,26.16 54.34,26.68 C54.2101384,26.9166912 54.2101384,27.2033088 54.34,27.44 C54.0513298,27.3138313 53.8803206,27.0125294 53.92,26.7 C53.92,26.13 54.25,26.37 54.06,25.85 C54.0360285,25.9967849 53.9739619,26.1347107 53.88,26.25 C53.6702495,26.4339244 53.5781232,26.7179803 53.64,26.99 C53.4841909,26.7915184 53.4091767,26.5414713 53.43,26.29 C53.4477673,26.1305659 53.4916891,25.97515 53.56,25.83 L52.68,25.33 L52.24,24.54 L52.14,23.31 Z" id="Shape" fill="#EC5565" fill-rule="nonzero"></path>
                <path d="M42.16,26.49 C42.1748039,26.3883156 42.2375383,26.2999261 42.3286406,26.2523945 C42.4197428,26.2048629 42.5281289,26.2039721 42.62,26.25 C42.7069489,25.8704352 43.0406963,25.5984929 43.43,25.59 C43.621665,25.5815726 43.8081856,25.6533238 43.9447895,25.7880304 C44.0813934,25.922737 44.1557461,26.1082359 44.15,26.3 C44.2714224,26.1293901 44.4707619,26.031601 44.68,26.04 C44.68,26.04 45.25,26.04 45.04,26.93 L45.15,27.05 C45.15,27.05 45.59,26.05 46.49,26.29 C46.49,26.29 47.37,26.56 46.8,27.41 C46.8,27.41 47.24,27.98 47.6,27.92 C48.0754947,27.8656989 48.4827007,27.5545321 48.66,27.11 C48.9760988,26.6354301 49.5208723,26.3649482 50.09,26.4 C50.2810146,26.4220303 50.4434024,26.5496208 50.51,26.73 C50.7866777,25.8496403 51.6698236,25.3078068 52.58,25.46 L53.23,25.79 L53.48,25.9 L53.11,26.9 L52.21,28.9 L51.53,29.11 L50.82,28.7 L50.57,28.83 L50.57,29.44 L49.63,30.11 L48.98,30.38 L48.26,30.87 L48.09,31.31 C47.8185273,31.212273 47.5214727,31.212273 47.25,31.31 L47.1,30.95 L46.68,30.55 L45.05,29.78 L44.76,28.83 L44.46,28.7 L44.13,29.08 L43.64,29.14 L42.92,28.65 L42.16,26.49 Z" id="Shape" fill="#FFFFFF" fill-rule="nonzero"></path>
                <path d="M44.53,22.11 L44.53,22.19 C44.9061659,22.2116092 45.2725068,22.0650728 45.53,21.79 L45.53,21.71 C45.1549572,21.6950955 44.7913038,21.8405569 44.53,22.11 Z" id="Shape" fill="#E77329" fill-rule="nonzero"></path>
                <polygon id="Shape" fill="#E77329" fill-rule="nonzero" points="46.52 21.4 47.59 20.99 47.62 21.07 46.55 21.47"></polygon>
                <path d="M52.45,32.07 C52.5634636,31.9451624 52.6180623,31.7777265 52.6,31.61 C52.6,31.61 52.6,31.55 52.6,31.54 C52.6,31.53 52.6,31.54 52.6,31.6 C52.6244921,31.7762014 52.5653145,31.9537342 52.44,32.08 C52.44,32.08 52.43,32.09 52.45,32.07 Z" id="Shape" fill="#FFFFFF" fill-rule="nonzero"></path>
                <path d="M53.41,31.1 C53.41,31.1 53.41,31.1 53.41,31.04 C53.41,30.98 53.41,31.04 53.41,31.04 C53.5031945,31.1828073 53.5031945,31.3671927 53.41,31.51 C53.41,31.51 53.41,31.51 53.41,31.51 C53.41,31.51 53.41,31.51 53.41,31.51 C53.4812374,31.3826164 53.4812374,31.2273836 53.41,31.1 Z" id="Shape" fill="#FFFFFF" fill-rule="nonzero"></path>
                <path d="M51.4,31.52 C51.4,31.52 51.4,31.52 51.4,31.52 C51.4,31.52 51.4,31.52 51.4,31.52 C51.4360237,31.5959447 51.4360237,31.6840553 51.4,31.76 C51.377904,31.8248358 51.377904,31.8951642 51.4,31.96 C51.4,31.96 51.4,31.96 51.4,31.96 C51.3769801,31.8987584 51.3769801,31.8312416 51.4,31.77 C51.4,31.77 51.48,31.6 51.4,31.52 Z" id="Shape" fill="#FFFFFF" fill-rule="nonzero"></path>
                <path d="M47.75,15.06 C47.41,15.06 47.7,15.32 47.7,15.32 C47.7,15.74 47.37,15.87 47.14,15.75 C46.91,15.63 47.14,15.32 47.14,15.32 C47.0722045,15.3611493 47.0242189,15.4282681 47.0072151,15.5057301 C46.9902112,15.5831922 47.0056727,15.6642384 47.05,15.73 C47.21,15.97 47.65,15.87 47.8,15.64 C47.96,15.87 48.39,15.98 48.55,15.73 C48.5943273,15.6642384 48.6097888,15.5831922 48.5927849,15.5057301 C48.5757811,15.4282681 48.5277955,15.3611493 48.46,15.32 C48.46,15.32 48.64,15.62 48.46,15.75 C48.28,15.88 47.9,15.75 47.9,15.32 C47.8,15.32 48.09,15.06 47.75,15.06 Z" id="Shape" fill="#FFFFFF" fill-rule="nonzero"></path>
                <path d="M48,14.65 C48.1444596,14.4598036 48.3879667,14.3733979 48.62,14.43 C48.62,14.43 48.49,14.81 48,14.65 Z" id="Shape" fill="#FFFFFF" fill-rule="nonzero"></path>
                <path d="M47.41,14.65 C47.2655404,14.4598036 47.0220333,14.3733979 46.79,14.43 C46.79,14.43 46.92,14.81 47.41,14.65 Z" id="Shape" fill="#FFFFFF" fill-rule="nonzero"></path>
                <path d="M46.45,19 C46.45,19 46.84,19.12 47.06,19.21 C47.4760726,19.3647747 47.9339274,19.3647747 48.35,19.21 C48.35,19.21 48.84,19.02 48.9,19 L48.53,19.57 L48.53,19.86 L48.76,20.2 C48.76,20.2 48.62,20.26 48.2,20 C47.8981754,19.7950325 47.5018246,19.7950325 47.2,20 C47.0332662,20.1129826 46.8405839,20.1817977 46.64,20.2 L47,19.8 L46.86,19.44 L46.45,19 Z" id="Shape" fill="#F2D660" fill-rule="nonzero"></path>
                <path d="M48.89,19.78 C48.8819359,19.8315208 48.8415208,19.8719359 48.79,19.88 C48.7242747,19.893157 48.6593204,19.8541845 48.64,19.79 C48.6160735,19.6590312 48.6707901,19.5261479 48.78,19.45 C48.78,19.45 49.06,19.22 49.58,19.45 C49.58,19.45 50,19.65 50.29,19.82 C50.29,19.82 51.04,20.22 51.13,20.25 C51.3916539,20.3667792 51.6736002,20.4313212 51.96,20.44 C52.344955,20.4772404 52.7222162,20.3150181 52.96,20.01 C52.96,20.01 53.18,19.64 52.96,19.41 C52.899234,19.3429944 52.8098411,19.309472 52.72,19.32 C52.6414437,19.3288821 52.5695688,19.3684134 52.52,19.43 C52.4544761,19.5080739 52.4544761,19.6219261 52.52,19.7 C52.52,19.7 52.68,19.8 52.74,19.59 C52.74,19.59 52.74,19.59 52.74,19.59 C52.7785437,19.6897391 52.7785437,19.8002609 52.74,19.9 C52.74,19.9 52.33,20.53 51.18,19.9 L49.68,19.06 C49.2739161,18.8473328 48.7752357,18.938002 48.47,19.28 C48.3702221,19.4021585 48.3244987,19.559685 48.3433657,19.7162812 C48.3622327,19.8728775 48.4440627,20.0150361 48.57,20.11 C48.7613788,20.2296558 49.0131087,20.17666 49.14,19.99 C49.14,19.99 49.32,19.66 49.04,19.52 C48.9769881,19.486593 48.9027079,19.4816888 48.8358508,19.5065215 C48.7689938,19.5313541 48.7159256,19.5835591 48.69,19.65 C48.59,19.9 48.88,19.97 48.91,19.79 C48.88,19.79 48.89,19.74 48.89,19.78 Z" id="Shape" fill="#F2D660" fill-rule="nonzero"></path>
                <path d="M52.58,25.51 C52.1592329,25.2310347 51.8675606,24.7953266 51.77,24.3 C51.6741307,23.798467 51.7298326,23.2797438 51.93,22.81 C52.1441963,22.2968522 52.5713833,21.9025258 53.1,21.73 C52.6870728,22.0232785 52.3676114,22.4295501 52.18,22.9 C52.0851591,23.26881 52.0614028,23.6523045 52.11,24.03 C52.1358468,24.3204297 52.1997264,24.6062069 52.3,24.88 L52.58,25.51 Z" id="Shape" fill="#F2D660" fill-rule="nonzero"></path>
                <path d="M53.31,25.95 C52.6412477,25.7011259 52.131979,25.1472496 51.94,24.46 C51.8124733,23.9163908 51.8579227,23.3465243 52.07,22.83 C52.56,21.67 53.4,21.67 53.4,21.67 C53.6242179,21.6453303 53.8293864,21.7981154 53.87,22.02 C53.9042941,22.1546902 53.8477235,22.2961169 53.73,22.37 C53.5793929,22.4660893 53.3816369,22.4408439 53.26,22.31 C53.2010832,22.2223105 53.2010832,22.1076895 53.26,22.02 C53.311937,21.9601711 53.3942948,21.9366403 53.47,21.96 C53.58,21.96 53.57,22.13 53.57,22.13 C53.5786686,22.0859654 53.5684445,22.0403145 53.5418219,22.0041839 C53.5151993,21.9680532 53.4746261,21.9447648 53.43,21.94 C53.43,21.94 53.11,21.87 52.72,22.34 C52.4091914,22.7685138 52.2349285,23.2808467 52.22,23.81 C52.1967007,24.7633198 52.8496948,25.6004917 53.78,25.81 C53.5730316,26.1767483 53.4086327,26.5659375 53.29,26.97 C53.1048641,27.5862495 52.8742302,28.1879033 52.6,28.77 C52.3319105,29.2954397 51.704759,29.5262662 51.16,29.3 C51.16,29.3 50.57,29.04 50.57,28.61 C50.57,28.61 50.57,28.22 50.88,28.19 C50.88,28.19 51.23,28.19 51.22,28.46 C51.22,28.46 51.22,28.78 50.85,28.71 C50.776298,28.6948873 50.7277186,28.6242263 50.74,28.55 C50.74,28.55 50.74,28.43 50.92,28.48 C50.8780147,28.4647143 50.8319853,28.4647143 50.79,28.48 C50.7490304,28.5005797 50.7251217,28.5444124 50.73,28.59 C50.7319299,28.6365631 50.7586367,28.6785309 50.8,28.7 C50.8561956,28.7103334 50.9138044,28.7103334 50.97,28.7 C51.041729,28.8286347 51.1597087,28.9251636 51.3,28.97 C51.5511471,29.0570361 51.8292277,29.011942 52.04,28.85 C52.1738413,28.725163 52.2824737,28.5757934 52.36,28.41 C52.56979,27.9519569 52.750156,27.4810011 52.9,27 C52.9969479,26.6875242 53.1104414,26.3804241 53.24,26.08 L53.31,25.95 Z" id="Shape" fill="#F2D660" fill-rule="nonzero"></path>
                <path d="M50.27,28.9 C50.27,28.9 50.47,28.9 50.47,29.05 C50.47,29.05 50.47,29.31 50.14,29.26 C50.0523623,29.2386311 49.9789918,29.1789621 49.9402095,29.0975193 C49.9014272,29.0160765 49.9013503,28.9215058 49.94,28.84 C49.9957292,28.6892304 50.1519819,28.6005464 50.31,28.63 C50.31,28.63 50.6,28.63 50.73,29.04 C50.7841259,29.2482131 50.7591874,29.4690965 50.66,29.66 C50.4329674,29.9475995 50.127231,30.1630047 49.78,30.28 C49.3721818,30.434477 48.9775563,30.6217569 48.6,30.84 C48.6,30.84 48.18,31.15 48.37,31.44 C48.409806,31.5024835 48.476238,31.5430808 48.55,31.55 C48.6201384,31.5507189 48.6799834,31.4994232 48.69,31.43 C48.6831918,31.4722861 48.6574016,31.5091292 48.62,31.53 C48.5649222,31.5643706 48.4950778,31.5643706 48.44,31.53 C48.3866667,31.4588889 48.3866667,31.3611111 48.44,31.29 C48.5180037,31.1620217 48.6829509,31.1181609 48.8142187,31.1904921 C48.9454864,31.2628233 48.9965202,31.4256941 48.93,31.56 C48.8712628,31.699687 48.7313412,31.7876376 48.58,31.78 C48.4570782,31.7730785 48.3404005,31.7235789 48.25,31.64 C48.0615719,31.3954163 48.0615719,31.0545837 48.25,30.81 C48.3840193,30.6501618 48.5559071,30.5264026 48.75,30.45 L49.69,30.06 C49.9440752,29.9763767 50.1740113,29.8322376 50.36,29.64 C50.4571378,29.5152045 50.5192691,29.3667798 50.54,29.21 C50.54,29.21 50.54,29.01 50.46,28.96 C50.4173134,28.9494122 50.3726866,28.9494122 50.33,28.96 L50.27,28.9 Z" id="Shape" fill="#F2D660" fill-rule="nonzero"></path>
                <path d="M46.45,19.78 C46.4580641,19.8315208 46.4984792,19.8719359 46.55,19.88 C46.6157253,19.893157 46.6806796,19.8541845 46.7,19.79 C46.7239265,19.6590312 46.6692099,19.5261479 46.56,19.45 C46.56,19.45 46.28,19.22 45.76,19.45 C45.76,19.45 45.34,19.65 45.05,19.82 C45.05,19.82 44.3,20.22 44.21,20.25 C43.9483461,20.3667792 43.6663998,20.4313212 43.38,20.44 C42.995045,20.4772404 42.6177838,20.3150181 42.38,20.01 C42.38,20.01 42.16,19.64 42.38,19.41 C42.440766,19.3429944 42.5301589,19.309472 42.62,19.32 C42.6985563,19.3288821 42.7704312,19.3684134 42.82,19.43 C42.8855239,19.5080739 42.8855239,19.6219261 42.82,19.7 C42.82,19.7 42.66,19.8 42.6,19.59 C42.6,19.59 42.6,19.59 42.6,19.59 C42.5614563,19.6897391 42.5614563,19.8002609 42.6,19.9 C42.6,19.9 43.01,20.53 44.16,19.9 L45.66,19.06 C46.0660839,18.8473328 46.5647643,18.938002 46.87,19.28 C46.9697779,19.4021585 47.0155013,19.559685 46.9966343,19.7162812 C46.9777673,19.8728775 46.8959373,20.0150361 46.77,20.11 C46.5786212,20.2296558 46.3268913,20.17666 46.2,19.99 C46.2,19.99 46.02,19.66 46.3,19.52 C46.3630119,19.486593 46.4372921,19.4816888 46.5041492,19.5065215 C46.5710062,19.5313541 46.6240744,19.5835591 46.65,19.65 C46.75,19.9 46.46,19.97 46.43,19.79 C46.46,19.79 46.46,19.74 46.45,19.78 Z" id="Shape" fill="#F2D660" fill-rule="nonzero"></path>
                <path d="M42.77,25.51 C43.1907671,25.2310347 43.4824394,24.7953266 43.58,24.3 C43.6758693,23.798467 43.6201674,23.2797438 43.42,22.81 C43.2058037,22.2968522 42.7786167,21.9025258 42.25,21.73 C42.6629272,22.0232785 42.9823886,22.4295501 43.17,22.9 C43.2648409,23.26881 43.2885972,23.6523045 43.24,24.03 C43.2141532,24.3204297 43.1502736,24.6062069 43.05,24.88 L42.77,25.51 Z" id="Shape" fill="#F2D660" fill-rule="nonzero"></path>
                <path d="M42,25.95 C42.6687523,25.7011259 43.178021,25.1472496 43.37,24.46 C43.4975267,23.9163908 43.4520773,23.3465243 43.24,22.83 C42.75,21.67 41.91,21.67 41.91,21.67 C41.6857821,21.6453303 41.4806136,21.7981154 41.44,22.02 C41.4057059,22.1546902 41.4622765,22.2961169 41.58,22.37 C41.7306071,22.4660893 41.9283631,22.4408439 42.05,22.31 C42.1089168,22.2223105 42.1089168,22.1076895 42.05,22.02 C41.998063,21.9601711 41.9157052,21.9366403 41.84,21.96 C41.73,21.96 41.74,22.13 41.74,22.13 C41.7313314,22.0859654 41.7415555,22.0403145 41.7681781,22.0041839 C41.7948007,21.9680532 41.8353739,21.9447648 41.88,21.94 C41.88,21.94 42.2,21.87 42.59,22.34 C42.9008086,22.7685138 43.0750715,23.2808467 43.09,23.81 C43.1132993,24.7633198 42.4603052,25.6004917 41.53,25.81 C41.7369684,26.1767483 41.9013673,26.5659375 42.02,26.97 C42.2051359,27.5862495 42.4357698,28.1879033 42.71,28.77 C42.9780895,29.2954397 43.605241,29.5262662 44.15,29.3 C44.15,29.3 44.74,29.04 44.74,28.61 C44.74,28.61 44.74,28.22 44.43,28.19 C44.43,28.19 44.08,28.19 44.09,28.46 C44.09,28.46 44.09,28.78 44.46,28.71 C44.533702,28.6948873 44.5822814,28.6242263 44.57,28.55 C44.57,28.55 44.57,28.43 44.39,28.48 C44.4319853,28.4647143 44.4780147,28.4647143 44.52,28.48 C44.5609696,28.5005797 44.5848783,28.5444124 44.58,28.59 C44.5780701,28.6365631 44.5513633,28.6785309 44.51,28.7 C44.4538044,28.7103334 44.3961956,28.7103334 44.34,28.7 C44.268271,28.8286347 44.1502913,28.9251636 44.01,28.97 C43.7588529,29.0570361 43.4807723,29.011942 43.27,28.85 C43.1361587,28.725163 43.0275263,28.5757934 42.95,28.41 C42.74021,27.9519569 42.559844,27.4810011 42.41,27 C42.3130521,26.6875242 42.1995586,26.3804241 42.07,26.08 L42,25.95 Z" id="Shape" fill="#F2D660" fill-rule="nonzero"></path>
                <path d="M45.07,28.9 C45.07,28.9 44.87,28.9 44.87,29.05 C44.87,29.05 44.87,29.31 45.2,29.26 C45.2876377,29.2386311 45.3610082,29.1789621 45.3997905,29.0975193 C45.4385728,29.0160765 45.4386497,28.9215058 45.4,28.84 C45.3442708,28.6892304 45.1880181,28.6005464 45.03,28.63 C45.03,28.63 44.74,28.63 44.61,29.04 C44.5558741,29.2482131 44.5808126,29.4690965 44.68,29.66 C44.9070326,29.9475995 45.212769,30.1630047 45.56,30.28 C45.9678182,30.434477 46.3624437,30.6217569 46.74,30.84 C46.74,30.84 47.16,31.15 46.97,31.44 C46.930194,31.5024835 46.863762,31.5430808 46.79,31.55 C46.7198616,31.5507189 46.6600166,31.4994232 46.65,31.43 C46.6568082,31.4722861 46.6825984,31.5091292 46.72,31.53 C46.7750778,31.5643706 46.8449222,31.5643706 46.9,31.53 C46.9533333,31.4588889 46.9533333,31.3611111 46.9,31.29 C46.8219963,31.1620217 46.6570491,31.1181609 46.5257813,31.1904921 C46.3945136,31.2628233 46.3434798,31.4256941 46.41,31.56 C46.4687372,31.699687 46.6086588,31.7876376 46.76,31.78 C46.8829218,31.7730785 46.9995995,31.7235789 47.09,31.64 C47.2784281,31.3954163 47.2784281,31.0545837 47.09,30.81 C46.9559807,30.6501618 46.7840929,30.5264026 46.59,30.45 L45.65,30.06 C45.3959248,29.9763767 45.1659887,29.8322376 44.98,29.64 C44.8828622,29.5152045 44.8207309,29.3667798 44.8,29.21 C44.8,29.21 44.8,29.01 44.88,28.96 C44.9226866,28.9494122 44.9673134,28.9494122 45.01,28.96 L45.07,28.9 Z" id="Shape" fill="#F2D660" fill-rule="nonzero"></path>
                <path d="M42.06,31.88 C41.7484418,31.6862391 41.6393536,31.2847947 41.81,30.96 C41.8586493,30.8693576 41.9578569,30.8177697 42.06,30.83 C42.06,30.83 42.4,30.94 42.13,31.41 C42.0629885,31.5569832 42.038729,31.7198683 42.06,31.88 Z" id="Shape" fill="#F2D660" fill-rule="nonzero"></path>
                <path d="M43.17,32.42 C43.17,32.42 42.39,32.07 42.63,31.42 C42.63,31.42 42.7,31.22 42.88,31.23 C42.88,31.23 43.18,31.23 43.12,31.64 C43.0599863,31.8992915 43.0773711,32.1704933 43.17,32.42 Z" id="Shape" fill="#F2D660" fill-rule="nonzero"></path>
                <path d="M43.7,32.27 C44.0485462,32.185699 44.2689238,31.84191 44.2,31.49 C44.1744,31.3374667 44.0336,31.2318667 43.88,31.25 C43.88,31.25 43.57,31.33 43.77,31.73 C43.837862,31.9104472 43.8116285,32.11282 43.7,32.27 Z" id="Shape" fill="#F2D660" fill-rule="nonzero"></path>
                <path d="M52.17,32.42 C52.17,32.42 52.95,32.07 52.71,31.42 C52.71,31.42 52.64,31.22 52.46,31.23 C52.46,31.23 52.16,31.23 52.22,31.64 C52.2800137,31.8992915 52.2626289,32.1704933 52.17,32.42 Z" id="Shape" fill="#F2D660" fill-rule="nonzero"></path>
                <path d="M53.27,31.88 C53.5815582,31.6862391 53.6906464,31.2847947 53.52,30.96 C53.4713507,30.8693576 53.3721431,30.8177697 53.27,30.83 C53.27,30.83 52.93,30.94 53.2,31.41 C53.2670115,31.5569832 53.291271,31.7198683 53.27,31.88 Z" id="Shape" fill="#F2D660" fill-rule="nonzero"></path>
                <path d="M51.64,32.27 C51.2914538,32.185699 51.0710762,31.84191 51.14,31.49 C51.1656,31.3374667 51.3064,31.2318667 51.46,31.25 C51.46,31.25 51.77,31.33 51.57,31.73 C51.502138,31.9104472 51.5283715,32.11282 51.64,32.27 Z" id="Shape" fill="#F2D660" fill-rule="nonzero"></path>
                <path d="M53.2,19.91 C53.2683273,19.7632133 53.2859163,19.5978764 53.25,19.44 C53.25,19.09 53.52,19.05 53.63,19.15 C53.74,19.25 53.75,19.25 53.63,19.48 C53.5423185,19.6698771 53.3898771,19.8223185 53.2,19.91 Z" id="Shape" fill="#F2D660" fill-rule="nonzero"></path>
                <path d="M53.1,19.78 C53.1,19.78 53.1,19.64 52.85,19.4 C52.6,19.16 52.85,18.94 52.96,18.94 C53.07,18.94 53.11,18.94 53.17,19.18 C53.2190774,19.3819413 53.1942463,19.5947798 53.1,19.78 Z" id="Shape" fill="#F2D660" fill-rule="nonzero"></path>
                <path d="M52.77,19.67 C52.77,19.67 52.71,19.56 52.41,19.45 C52.11,19.34 52.19,19.08 52.32,19.02 C52.45,18.96 52.45,18.96 52.59,19.14 C52.7118626,19.2892282 52.7757776,19.4774223 52.77,19.67 Z" id="Shape" fill="#F2D660" fill-rule="nonzero"></path>
                <path d="M53,19.79 C52.8377109,19.8009399 52.6762639,19.7588233 52.54,19.67 C52.22,19.51 52.08,19.78 52.13,19.93 C52.18,20.08 52.19,20.08 52.44,20.05 C52.6519413,20.0338099 52.8508601,19.9414548 53,19.79 Z" id="Shape" fill="#F2D660" fill-rule="nonzero"></path>
                <path d="M42.12,19.91 C42.0516727,19.7632133 42.0340837,19.5978764 42.07,19.44 C42.07,19.09 41.8,19.05 41.69,19.15 C41.58,19.25 41.57,19.25 41.69,19.48 C41.7776815,19.6698771 41.9301229,19.8223185 42.12,19.91 Z" id="Shape" fill="#F2D660" fill-rule="nonzero"></path>
                <path d="M42.22,19.78 C42.22,19.78 42.22,19.64 42.47,19.4 C42.72,19.16 42.47,18.94 42.36,18.94 C42.25,18.94 42.21,18.94 42.15,19.18 C42.1009226,19.3819413 42.1257537,19.5947798 42.22,19.78 Z" id="Shape" fill="#F2D660" fill-rule="nonzero"></path>
                <path d="M42.55,19.67 C42.55,19.67 42.61,19.56 42.91,19.45 C43.21,19.34 43.13,19.08 43,19.02 C42.87,18.96 42.87,18.96 42.73,19.14 C42.6081374,19.2892282 42.5442224,19.4774223 42.55,19.67 Z" id="Shape" fill="#F2D660" fill-rule="nonzero"></path>
                <path d="M42.36,19.79 C42.5222891,19.8009399 42.6837361,19.7588233 42.82,19.67 C43.14,19.51 43.28,19.78 43.23,19.93 C43.18,20.08 43.17,20.08 42.92,20.05 C42.7080587,20.0338099 42.5091399,19.9414548 42.36,19.79 Z" id="Shape" fill="#F2D660" fill-rule="nonzero"></path>
            </g>
        </g>
    </g>
</svg>