<?xml version="1.0" encoding="UTF-8"?>
<svg width="71px" height="48px" viewBox="0 0 71 48" version="1.1" xmlns="http://www.w3.org/2000/svg" xmlns:xlink="http://www.w3.org/1999/xlink">
    <!-- Generator: Sketch 48.1 (47250) - http://www.bohemiancoding.com/sketch -->
    <title>Bhutan@2x</title>
    <desc>Created with Sketch.</desc>
    <defs></defs>
    <g id="Flags" stroke="none" stroke-width="1" fill="none" fill-rule="evenodd" transform="translate(-408.000000, -253.000000)">
        <g transform="translate(70.000000, 70.000000)" fill-rule="nonzero" id="Bhutan">
            <g transform="translate(338.000000, 183.000000)">
                <rect id="Rounded_Rectangle_7_copy-21" fill="#F6D660" x="0.77" y="0.85" width="70" height="47" rx="6.36"></rect>
                <path d="M68.52,2.36 L3.02,46.36 C4.16675319,47.3362243 5.62399398,47.8716096 7.13,47.87 L64.4,47.87 C67.912531,47.87 70.76,45.022531 70.76,41.51 L70.76,7.21 C70.7627932,5.34261079 69.9434821,3.5686559 68.52,2.36 Z" id="Shape" fill="#ED5565"></path>
                <path d="M58.17,12.95 C57.52,13.02 56.92,12.67 56.28,12.75 C55.9246798,12.7903841 55.5829509,12.9099892 55.28,13.1 L54.65,13.24 L55.22,12.69 C55.65,12.35 56.27,12.42 56.71,12.08 L57.03,11.31 L56.61,11.59 C56.2888765,11.7011908 55.9447166,11.7287236 55.61,11.67 L54.73,11.73 L54.12,12.27 L54.36,11.67 L54.75,10.92 L54.75,10.13 L55.05,9.49 C55.3229805,9.24704284 55.5528912,8.95965449 55.73,8.64 L55.57,7.86 L55.44,8.4 C55.2028467,8.68208425 54.9227489,8.92506065 54.61,9.12 L54.22,9.73 L54.09,10.39 L53.65,10.94 C53.3569146,11.1689781 53.1721811,11.5094674 53.14,11.88 L52.96,12.7 L52.42,12.82 L51.54,12.82 C51.2025292,12.5430977 50.776354,12.3974879 50.34,12.41 C50.2522099,12.0862478 50.0541478,11.8033018 49.78,11.61 L49.05,11.53 L48.81,11.67 C48.5415312,11.4519406 48.2211013,11.3072303 47.88,11.25 C47.5361112,11.2066529 47.1871889,11.2694589 46.88,11.43 C46.6381984,11.1379919 46.3141651,10.9254539 45.95,10.82 C45.5745961,10.7434911 45.2135328,10.6085142 44.88,10.42 C44.5158561,10.0713885 44.0925944,9.79034271 43.63,9.59 C43.1142236,9.35072853 42.5576951,9.21159642 41.99,9.18 L41.34,9.28 L40.88,9.56 L41.73,9.56 C42.1345895,9.60982292 42.52538,9.73895368 42.88,9.94 L42.04,9.76 L41.51,10 L42.24,10.1 L42.75,10.4 L42.65,10.74 C42.1210198,10.3575401 41.506477,10.1103498 40.86,10.02 C40.4984525,9.96365263 40.1308255,10.0739407 39.86,10.32 C39.4274619,10.1849657 38.960007,10.2170809 38.55,10.41 L38.19,10.97 L38.8,10.75 L39.64,10.75 L39.64,10.83 L39.73,10.78 L40.3,11 L40.15,11.13 C39.8184417,11.0465405 39.4692004,11.067495 39.15,11.19 L38.7,11.64 L39.18,11.48 L39.89,11.48 L39.8,12.08 C39.0759978,11.7889819 38.3000309,11.649444 37.52,11.67 C37.1214981,11.6813778 36.7366708,11.8178166 36.42,12.06 C36.0822084,12.2953726 35.9616632,12.7389917 36.1338807,13.1129497 C36.3060982,13.4869076 36.721561,13.683681 37.12,13.58 L37.48,13.12 L37.12,13.2 L36.74,12.96 L37.01,12.59 C37.4281702,12.4964965 37.8618298,12.4964965 38.28,12.59 L38.28,13.42 C37.6269573,13.4542094 37.0055428,13.7119551 36.52,14.15 C36.14,14.15 35.74,14.15 35.36,14.2 C34.9923435,14.2375447 34.6442056,14.3837626 34.36,14.62 L34.09,15.34 L34.66,14.93 C35.210242,14.7291903 35.8045262,14.6808183 36.38,14.79 C36.8027622,14.8607712 37.2317158,14.8875808 37.66,14.87 L37.6,15.22 C37.2944224,15.4542959 37.1505162,15.8432314 37.23,16.22 L37,17 C36.293484,17.3042951 35.7361989,17.8759618 35.45,18.59 L35.61,18.69 C35.9310623,18.3592348 36.3351773,18.1209106 36.78,18 L36.58,18.65 C36.366647,18.8864136 36.1942759,19.1567997 36.07,19.45 C36.0177878,19.8032791 36.1076814,20.1628536 36.32,20.45 L36.32,20.31 C36.3490589,19.9696338 36.5150715,19.6556535 36.78,19.44 L37.65,19.22 C37.6193719,19.541621 37.7460134,19.8582249 37.99,20.07 L38.46,20.28 C38.3297453,20.7469088 38.5531123,21.2400019 38.99,21.45 L38.75,21.67 C38.4145603,21.6491964 38.077866,21.676132 37.75,21.75 L37.39,22.24 L37.85,22.12 L38.46,22.43 C38.7569448,22.6184443 39.1146338,22.6864052 39.46,22.62 L39.59,23.23 L38.95,23.23 L38.39,23.03 L38.22,22.72 L38.1,23.24 L38.41,23.63 L38.27,23.63 L37.8,23.11 C37.4882468,22.9597821 37.1316702,22.931256 36.8,23.03 C36.6828095,22.5946217 36.2361018,22.3355313 35.8,22.45 L35.72,22.45 L35.6,22.21 L35.2,21.87 L34.88,21.16 L34.27,20.74 L34.27,20.36 L34.03,21 L34.27,21.46 L34.27,21.74 L33.53,21.69 L33.42,21.69 L32.51,21.62 L31.56,21.51 C31.4080899,21.1930638 31.1150557,20.9667969 30.77,20.9 L29.99,20.69 L29.72,20.24 L29.65,20.84 L30.15,21.37 L30.25,21.71 L29.43,21.71 C29.1356473,21.862314 28.9534028,22.1686398 28.96,22.5 L28.04,22.63 L27.8,23.13 C27.4528357,22.882822 26.9871643,22.882822 26.64,23.13 L25.97,23.43 L25.45,23.62 L25.34,24.1 L25.73,23.9 L26.22,23.98 L26.68,23.98 L26.51,24.42 L26.51,25.02 C26.1666119,25.1049196 25.8999702,25.3754256 25.82,25.72 L25.87,26.49 C25.3778278,26.7401676 24.9178041,27.0490886 24.5,27.41 L23.79,27.64 L23.35,27.55 L23.91,28.06 C24.3857537,28.0792753 24.8608394,28.0080124 25.31,27.85 L25.07,28.7 L25.17,29.17 C24.8553155,29.3808973 24.6445997,29.7151362 24.59,30.09 C24.2701688,30.220238 23.9704981,30.3953265 23.7,30.61 L23.16,30.61 L23.35,30.95 L23.97,31.27 L23.59,31.53 L23.2,31.53 L23.41,32.14 C23.0295163,32.2377909 22.6304837,32.2377909 22.25,32.14 L22.36,32.74 C21.9534743,32.6271152 21.5285042,32.5965174 21.11,32.65 L20.47,32.95 L20.4,33.14 L20.83,33.14 L20.37,33.14 C20.043515,33.2355566 19.696485,33.2355566 19.37,33.14 C18.9897567,32.8723559 18.5437967,32.7133313 18.08,32.68 L17.4,32.68 L16.81,32.47 C16.4633635,32.3515602 16.0797109,32.4321273 15.81,32.68 L15.68,33.16 L16.18,32.93 C16.524259,33.0544329 16.8585562,33.2048667 17.18,33.38 L18.07,33.38 C18.5520786,33.4219842 19.0160776,33.5835246 19.42,33.85 C19.0271447,33.8501362 18.6375487,33.9212798 18.27,34.06 L17.58,34.38 C17.1421788,34.4813033 16.6977341,34.5514788 16.25,34.59 L15.71,34.86 L15.61,35.26 L15.92,35.12 C16.4063354,35.1453935 16.8936646,35.1453935 17.38,35.12 C17.7218479,34.927794 18.1078285,34.8278526 18.5,34.83 C18.2403293,35.1166725 17.8845221,35.2981342 17.5,35.34 C17.1110002,35.3679517 16.7308888,35.4697672 16.38,35.64 L15.74,36.09 C15.33,36.27 14.86,36.2 14.47,36.41 L14.01,36.8 L13.3,37.29 L12.74,37.4 L13.55,37.67 C14.0734988,37.4907434 14.5763515,37.2560788 15.05,36.97 L15.72,36.9 C16.0713596,36.8678122 16.4120442,36.7622 16.72,36.59 L16.33,36.84 C15.98,36.98 15.61,37.04 15.26,37.17 C14.8365185,37.3211922 14.4533603,37.5675081 14.14,37.89 C13.7851337,38.2971902 13.3821917,38.659838 12.94,38.97 C12.5792887,39.1784664 12.17565,39.3016104 11.76,39.33 L12.15,39.61 L12.92,39.47 C13.4931031,39.1875613 14.084417,38.943686 14.69,38.74 C15,38.66 15.34,38.74 15.69,38.62 C16.0685381,38.5404868 16.4158977,38.3529126 16.69,38.08 L17.26,37.54 L17.91,37.43 C18.3236754,37.2206915 18.7016716,36.9473192 19.03,36.62 L19.6,36.47 L19.95,36.2 L19.47,36.74 L18.84,36.93 C19.1083655,37.0974198 19.4334596,37.14799 19.74,37.07 C20.1851608,36.8118676 20.6127608,36.5245739 21.02,36.21 L21.69,36.05 L21.12,36.5 L20.36,36.91 L20.09,37.61 L20.74,37.17 C21.0606909,37.0404648 21.3968279,36.9530692 21.74,36.91 C22.0762557,36.8621356 22.3827441,36.6910724 22.6,36.43 C22.8378385,36.1011862 23.1284271,35.8139766 23.46,35.58 C23.8278487,35.396145 24.1651457,35.1566641 24.46,34.87 L24.77,34.34 L25.43,33.8 C25.8391957,33.584994 26.2364443,33.3479801 26.62,33.09 L27,33.09 L27.6,33.14 L27.51,33.88 L26.81,33.83 L26.42,34.1 L26.76,34.27 L27.08,34.53 L26.65,34.67 L26.32,35.22 L25.88,35.34 L26.24,35.63 C26.5653366,35.6783084 26.8969889,35.6034192 27.17,35.42 L27.33,35.78 L27.26,36.07 L27.66,35.98 L28.01,35.32 L28.34,35.8 L28.52,36.16 L28.62,36.58 L28.49,37.03 C28.0653697,37.0881283 27.6790111,37.3063493 27.41,37.64 C27.1803435,37.9764457 27.1074169,38.3957735 27.21,38.79 L27.33,39.27 C27.5174736,39.4995039 27.6477189,39.770277 27.71,40.06 C27.7351298,40.4914977 27.9081758,40.9011577 28.2,41.22 C28.523746,41.5782411 28.9694509,41.8028763 29.45,41.85 L29.81,41.85 C30.2891397,41.8055116 30.7346461,41.5845404 31.06,41.23 C31.3845278,40.8685376 31.5565454,40.395489 31.54,39.91 L31.81,39.39 C31.9406842,39.0868163 31.9406842,38.7431837 31.81,38.44 C31.8419676,38.1083757 31.7412932,37.7775884 31.53,37.52 L31.8,37.43 L32.37,37.72 L32.87,38.32 C32.9293342,38.7144478 32.9293342,39.1155522 32.87,39.51 C33.1189233,39.2526737 33.2979244,38.9359793 33.39,38.59 C33.4759816,38.1986333 33.4266243,37.7896729 33.25,37.43 L33.04,36.66 L32.3,36.31 L31.24,36.31 L30.68,36.14 C30.7441688,35.844758 30.5825433,35.5470268 30.3,35.44 C30.2815122,35.0425066 30.0121809,34.7008176 29.63,34.59 C29.5109807,33.9492629 29.5556965,33.2888454 29.76,32.67 L30.51,32.79 L31.29,33.33 L31.84,33.65 C32.1940793,33.7423351 32.5659207,33.7423351 32.92,33.65 L33.45,33.65 C33.9222482,33.5949836 34.3482394,33.3401171 34.62,32.95 C34.9220899,32.52219 35.0002195,31.9752828 34.83,31.48 C34.7221649,31.1715893 34.5277416,30.9007855 34.27,30.7 L34.19,30.24 C34.0215466,29.8754631 33.6513678,29.647055 33.25,29.66 L32.92,29.66 L32.15,29.77 L31.65,29.92 L31.65,29.6 L32.04,29.12 L32.64,29.02 L33.08,29.02 L32.55,28.49 C32.195421,28.2988167 31.7881289,28.2285939 31.39,28.29 C31.0623482,28.3379329 30.786596,28.5600667 30.67,28.87 L30.55,29.15 C30.3026377,29.4200872 30.1921584,29.7883516 30.25,30.15 L29.94,30.37 L29.61,30.28 L29.29,29.55 C29.3148953,29.2487123 29.3822272,28.9524519 29.49,28.67 L29.49,28.25 L29.56,27.59 L29.87,27.11 L30.44,26.55 C30.7895437,26.6564646 31.1680178,26.5276223 31.38,26.23 C31.6923884,26.3971124 32.0676116,26.3971124 32.38,26.23 L32.62,26.38 C32.9392004,26.502505 33.2884417,26.5234595 33.62,26.44 L34.46,26.68 L34.92,26.92 L35.57,27.04 C35.9912004,27.2897212 36.4861412,27.3851741 36.97,27.31 C37.4569588,27.6109504 38.0315857,27.7378619 38.6,27.67 C38.8802406,27.8478786 39.2262622,27.8883705 39.54,27.78 L40.07,27.92 L39.98,28.47 L39.61,28.53 L39.32,28.63 L38.63,28.43 L38.29,28.74 L38.73,28.85 L39.23,29.16 L38.81,29.59 L38.46,30.07 L38,30.07 L38.72,30.45 C39.0646473,30.2768666 39.3985822,30.0831843 39.72,29.87 L39.84,30.37 L39.68,30.83 L40.11,30.75 L40.57,30.08 C40.6639685,30.4587937 41.0359621,30.6994954 41.42,30.63 C41.6231398,30.9809928 42.0181462,31.174546 42.42,31.12 C42.6998186,31.4281247 43.1352253,31.5418796 43.53,31.41 C43.7982817,31.6676927 44.158091,31.8080183 44.53,31.8 L45.15,31.68 L45.89,32.05 L45.66,32.58 L45.96,33.26 L46.25,34.06 L46.84,34.38 L47.38,34.92 C47.7642827,35.0745733 48.1870781,35.1060209 48.59,35.01 C49.2376405,35.2973011 49.985001,35.2487226 50.59,34.88 C51.5588894,34.2639426 51.8453518,32.9793377 51.23,32.01 L51.09,31.81 C51.3236357,31.3258975 51.1907514,30.7445283 50.77,30.41 L50.48,30.06 L49.87,29.94 L49,29.94 L49.18,29.41 L49.54,29.26 L50.05,28.87 L50.68,28.95 L50.11,28.44 C49.6590843,28.2451222 49.14202,28.2786012 48.72,28.53 L47.98,28.73 L47.73,29.32 C47.3639419,29.2722024 47.0266106,29.5252009 46.97,29.89 L46.32,30.22 C46.0801207,30.0130118 45.7649199,29.9151909 45.45,29.95 L45.12,29.71 L44.42,29.64 L44.2,29.64 L43.68,29.64 C43.487884,29.3554141 43.1631954,29.1892943 42.82,29.2 L43,28.37 L43.42,27.88 L43.89,27.08 C44.7081065,25.9761308 45.0859784,24.6072364 44.95,23.24 C45.3270693,22.9192934 45.8510495,22.8345319 46.31,23.02 L46.19,23.74 L45.69,23.99 L46.13,24.18 L46.69,24.02 C46.6374963,24.3640705 46.7008137,24.7158337 46.87,25.02 L47.61,25.45 L47.47,25.03 L47.74,24.26 L48.18,24.87 L48.18,25.32 L48.53,24.72 C48.464674,24.3043673 48.340072,23.9002527 48.16,23.52 C48.6276303,23.5595405 49.0966688,23.4622585 49.51,23.24 C49.88,23 50.23,22.72 50.63,22.51 L51.05,22.41 L51.72,22.96 L52.2,23.11 C52.5328243,23.2586649 52.8958866,23.3271672 53.26,23.31 C53.6376901,23.3074273 53.9983174,23.1523576 54.26,22.88 L54.76,22.81 C55.1475278,22.6383747 55.4450869,22.3117854 55.58,21.91 L56.09,21.43 C56.1520595,21.0851418 56.0171553,20.7343909 55.74,20.52 L55.47,19.89 L54.89,19.52 C54.7875497,18.8625219 54.317088,18.3220741 53.68,18.13 C53.1016212,17.9554133 52.4740956,18.0915032 52.02,18.49 C51.7312834,18.7534636 51.5378926,19.1050832 51.47,19.49 C51.2292246,19.7758535 51.0212589,20.0878021 50.85,20.42 L50.44,20.36 C49.9155931,20.4155455 49.3990469,20.5295882 48.9,20.7 C48.5957906,20.7549023 48.2842094,20.7549023 47.98,20.7 C47.5681275,20.6537944 47.1624449,20.5632702 46.77,20.43 L46.24,20.14 L45.46,19.64 C45.0544619,19.4779613 44.6405356,19.3377604 44.22,19.22 C43.8198284,19.025106 43.4935463,18.7058407 43.29,18.31 L43.81,18.37 L44.18,18.52 C44.5130325,18.6725918 44.8122216,18.8901838 45.06,19.16 L45.71,19.61 L46.51,19.5 L45.88,19.26 C45.52,18.98 45.38,18.52 45.02,18.26 L44.41,17.99 C44.7380371,17.6027368 45.2578761,17.4359228 45.75,17.56 C46.1058626,17.6732619 46.4853296,17.6905104 46.85,17.61 L47.14,17.51 C47.679489,17.6017277 48.1706125,17.8773222 48.53,18.29 L48.93,18.75 L48.43,19.32 L47.91,19.41 L48.27,19.62 C48.5988527,19.7658815 48.9807206,19.7238761 49.27,19.51 L49.41,19.99 L50.06,20.33 L49.82,19.93 L50.15,19.48 L50.43,19.82 L50.36,20.21 L50.81,20.02 L51.06,19.38 L51.63,18.84 C51.7631532,18.5240617 51.8246274,18.1825388 51.81,17.84 C52.6042403,18.065968 53.4457597,18.065968 54.24,17.84 C54.7930267,17.6875245 55.3673049,17.6267185 55.94,17.66 L56.72,18.01 L56.81,18.74 L57.19,18.16 L56.85,17.44 C56.4645645,17.1782005 56.0152073,17.0261103 55.55,17 C55.5134194,16.5153766 55.1337025,16.1272216 54.65,16.08 L53.98,16.42 L53.03,16.42 L53.13,15.89 L52.97,15.37 L53.05,15.05 L53.17,14.72 L53.34,14.5 C54.1633848,14.4241563 54.9560665,14.1496345 55.65,13.7 C56.3604843,13.5320449 57.0904941,13.4613988 57.82,13.49 L58.47,13.22 L58.67,12.85 L58.17,12.95 Z" id="Shape" fill="#FFFFFF"></path>
            </g>
        </g>
    </g>
</svg>