<?xml version="1.0" encoding="UTF-8"?>
<svg width="71px" height="48px" viewBox="0 0 71 48" version="1.1" xmlns="http://www.w3.org/2000/svg" xmlns:xlink="http://www.w3.org/1999/xlink">
    <!-- Generator: Sketch 48.1 (47250) - http://www.bohemiancoding.com/sketch -->
    <title>Bolivia@2x</title>
    <desc>Created with Sketch.</desc>
    <defs></defs>
    <g id="Flags" stroke="none" stroke-width="1" fill="none" fill-rule="evenodd" transform="translate(-70.000000, -315.000000)">
        <g transform="translate(70.000000, 70.000000)" fill-rule="nonzero" id="Bolivia">
            <g transform="translate(0.000000, 245.000000)">
                <path d="M0.28,6.78 L0.28,15.78 L70.28,15.78 L70.28,6.78 C70.28,3.11282926 67.3071707,0.14 63.64,0.14 L6.93,0.14 C5.16723053,0.137345224 3.47575038,0.835742489 2.22834517,2.0812719 C0.980939967,3.32680131 0.279998001,5.01722853 0.28,6.78 Z" id="Shape" fill="#ED5565"></path>
                <polygon id="Shape" fill="#FFCE54" points="0.28 31.48 70.28 31.48 70.28 15.81 0.28 15.81"></polygon>
                <path d="M0.28,40.49 C0.28,44.1571707 3.25282926,47.13 6.92,47.13 L63.64,47.13 C67.3071707,47.13 70.28,44.1571707 70.28,40.49 L70.28,31.49 L0.28,31.49 L0.28,40.49 Z" id="Shape" fill="#52C162"></path>
                <path d="M40.42,25.64 C40.432429,25.3291173 40.5144428,25.024983 40.66,24.75 L41.07,24.04 C41.1985471,23.7817804 41.1985471,23.4782196 41.07,23.22 L40.65,22.49 C40.5053836,22.2146474 40.4234282,21.9107292 40.41,21.6 L40.41,20.76 C40.3937279,20.4716858 40.2415786,20.2082077 40,20.05 L39.29,19.65 C39.0277799,19.4842567 38.8057433,19.2622201 38.64,19 L38.23,18.29 C38.0717923,18.0484214 37.8083142,17.8962721 37.52,17.88 L36.67,17.88 C36.3593213,17.8662454 36.055473,17.7843088 35.78,17.64 L35.05,17.22 C34.7921545,17.0898718 34.4878455,17.0898718 34.23,17.22 L33.53,17.63 C33.2548924,17.7752405 32.9508312,17.8572346 32.64,17.87 L31.82,17.87 C31.5316858,17.8862721 31.2682077,18.0384214 31.11,18.28 L30.69,19.01 C30.5237362,19.2718035 30.3018035,19.4937362 30.04,19.66 L29.31,20.08 C29.0684214,20.2382077 28.9162721,20.5016858 28.9,20.79 L28.9,21.61 C28.887571,21.9208827 28.8055572,22.225017 28.66,22.5 L28.25,23.21 C28.1214529,23.4682196 28.1214529,23.7717804 28.25,24.03 L28.67,24.76 C28.8137024,25.0357099 28.8956022,25.3394214 28.91,25.65 L28.91,26.49 C28.9285293,26.7801751 29.0846092,27.0440246 29.33,27.2 L30.04,27.6 C30.3024314,27.765479 30.524521,27.9875686 30.69,28.25 L31.1,28.96 C31.2582077,29.2015786 31.5216858,29.3537279 31.81,29.37 L32.66,29.37 C32.9706787,29.3837546 33.274527,29.4656912 33.55,29.61 L34.28,30.03 C34.5378455,30.1601282 34.8421545,30.1601282 35.1,30.03 L35.8,29.62 C36.0751076,29.4747595 36.3791688,29.3927654 36.69,29.38 L37.5,29.38 C37.7883142,29.3637279 38.0517923,29.2115786 38.21,28.97 L38.63,28.24 C38.7962638,27.9781965 39.0181965,27.7562638 39.28,27.59 L40.01,27.17 C40.2515786,27.0117923 40.4037279,26.7483142 40.42,26.46 L40.42,25.64 Z" id="Shape_1_copy" fill="#ED5565"></path>
            </g>
        </g>
    </g>
</svg>