<?xml version="1.0" encoding="UTF-8"?>
<svg width="71px" height="48px" viewBox="0 0 71 48" version="1.1" xmlns="http://www.w3.org/2000/svg" xmlns:xlink="http://www.w3.org/1999/xlink">
    <!-- Generator: Sketch 48.1 (47250) - http://www.bohemiancoding.com/sketch -->
    <title>Bosnia@2x</title>
    <desc>Created with Sketch.</desc>
    <defs></defs>
    <g id="Flags" stroke="none" stroke-width="1" fill="none" fill-rule="evenodd" transform="translate(-154.000000, -315.000000)">
        <g transform="translate(70.000000, 70.000000)" fill-rule="nonzero" id="Bosnia">
            <g transform="translate(84.000000, 245.000000)">
                <rect id="Rounded_Rectangle_7_copy-7" fill="#4758A9" x="0.9" y="0.13" width="70" height="47" rx="6.36"></rect>
                <polygon id="Rectangle_1_copy_7" fill="#F6D660" points="13.9 0.13 50.9 0.13 50.9 47.13"></polygon>
                <path d="M8.19,4.88 C7.92,4.8 7.91,4.64 8.19,4.52 L9.19,4.08 C9.46530449,3.93411004 9.64926194,3.66005099 9.68,3.35 L9.68,2.35 C9.68,2.07 9.85,2.02 10.03,2.23 L10.7,3.03 C10.9028028,3.25043767 11.217321,3.32906724 11.5,3.23 L12.58,2.8 C12.84,2.69 12.94,2.8 12.78,3.04 L12.16,4.04 C11.9988052,4.2968002 11.9988052,4.6231998 12.16,4.88 L12.81,5.73 C12.98,5.95 12.89,6.09 12.62,6.04 L11.56,5.84 C11.2557803,5.79989316 10.9526371,5.92115046 10.76,6.16 L10.21,6.92 C10.04,7.15 9.88,7.11 9.85,6.83 L9.74,5.83 C9.68819726,5.52958311 9.47769896,5.28081239 9.19,5.18 L8.19,4.88 Z" id="Shape_2_copy_4" fill="#FFFFFF"></path>
                <path d="M12.51,10.38 C12.24,10.3 12.23,10.14 12.51,10.02 L13.51,9.58 C13.7865597,9.43550702 13.9710303,9.16068354 14,8.85 L14,7.85 C14,7.57 14.17,7.52 14.35,7.73 L15.02,8.53 C15.2228028,8.75043767 15.537321,8.82906724 15.82,8.73 L16.9,8.3 C17.16,8.2 17.25,8.3 17.1,8.54 L16.48,9.54 C16.3188052,9.7968002 16.3188052,10.1231998 16.48,10.38 L17.13,11.23 C17.3,11.45 17.21,11.59 16.94,11.54 L15.88,11.34 C15.5757803,11.2998932 15.2726371,11.4211505 15.08,11.66 L14.53,12.42 C14.36,12.65 14.2,12.61 14.17,12.33 L14.05,11.33 C13.9981973,11.0295831 13.787699,10.7808124 13.5,10.68 L12.51,10.38 Z" id="Shape_2_copy_6" fill="#FFFFFF"></path>
                <path d="M16.84,15.88 C16.57,15.8 16.56,15.64 16.84,15.52 L17.84,15.08 C18.1165597,14.935507 18.3010303,14.6606835 18.33,14.35 L18.33,13.35 C18.33,13.07 18.5,13.02 18.68,13.23 L19.35,14.04 C19.5528028,14.2604377 19.867321,14.3390672 20.15,14.24 L21.23,13.81 C21.49,13.7 21.58,13.81 21.43,14.05 L20.81,15.05 C20.6488052,15.3068002 20.6488052,15.6331998 20.81,15.89 L21.46,16.74 C21.63,16.96 21.54,17.1 21.27,17.05 L20.21,16.85 C19.9057803,16.8098932 19.6026371,16.9311505 19.41,17.17 L18.86,17.93 C18.7,18.16 18.53,18.12 18.5,17.84 L18.39,16.84 C18.3381973,16.5395831 18.127699,16.2908124 17.84,16.19 L16.84,15.88 Z" id="Shape_2_copy_7" fill="#FFFFFF"></path>
                <path d="M21.17,21.38 C20.9,21.3 20.89,21.14 21.17,21.02 L22.17,20.58 C22.4465597,20.435507 22.6310303,20.1606835 22.66,19.85 L22.66,18.85 C22.66,18.57 22.83,18.52 23.01,18.73 L23.68,19.54 C23.8828028,19.7604377 24.197321,19.8390672 24.48,19.74 L25.56,19.31 C25.82,19.21 25.91,19.31 25.76,19.55 L25.14,20.55 C24.9788052,20.8068002 24.9788052,21.1331998 25.14,21.39 L25.79,22.24 C25.96,22.46 25.87,22.6 25.6,22.55 L24.54,22.35 C24.2357803,22.3098932 23.9326371,22.4311505 23.74,22.67 L23.19,23.43 C23.02,23.66 22.86,23.62 22.83,23.34 L22.71,22.34 C22.6602343,22.0386372 22.448969,21.78896 22.16,21.69 L21.17,21.38 Z" id="Shape_2_copy_8" fill="#FFFFFF"></path>
                <path d="M25.5,26.88 C25.23,26.8 25.22,26.64 25.5,26.52 L26.5,26.08 C26.7753045,25.93411 26.9592619,25.660051 26.99,25.35 L26.99,24.35 C26.99,24.07 27.16,24.02 27.34,24.23 L28.01,25.04 C28.2128028,25.2604377 28.527321,25.3390672 28.81,25.24 L29.89,24.81 C30.15,24.7 30.24,24.81 30.09,25.05 L29.47,26.05 C29.3088052,26.3068002 29.3088052,26.6331998 29.47,26.89 L30.12,27.74 C30.29,27.96 30.2,28.1 29.93,28.05 L28.87,27.85 C28.5657803,27.8098932 28.2626371,27.9311505 28.07,28.17 L27.52,28.93 C27.35,29.16 27.19,29.12 27.16,28.84 L27.04,27.84 C26.9902343,27.5386372 26.778969,27.28896 26.49,27.19 L25.5,26.88 Z" id="Shape_2_copy_9-2" fill="#FFFFFF"></path>
                <path d="M29.83,32.38 C29.56,32.3 29.55,32.14 29.83,32.02 L30.83,31.58 C31.1053045,31.43411 31.2892619,31.160051 31.32,30.85 L31.32,29.85 C31.32,29.57 31.49,29.52 31.67,29.73 L32.34,30.54 C32.5428028,30.7604377 32.857321,30.8390672 33.14,30.74 L34.22,30.31 C34.48,30.2 34.57,30.31 34.42,30.55 L33.8,31.55 C33.6388052,31.8068002 33.6388052,32.1331998 33.8,32.39 L34.45,33.24 C34.62,33.46 34.53,33.6 34.26,33.55 L33.2,33.35 C32.8957803,33.3098932 32.5926371,33.4311505 32.4,33.67 L31.85,34.43 C31.68,34.66 31.52,34.62 31.49,34.34 L31.37,33.34 C31.3181973,33.0395831 31.107699,32.7908124 30.82,32.69 L29.83,32.38 Z" id="Shape_2_copy_10-2" fill="#FFFFFF"></path>
                <path d="M34.16,37.89 C33.89,37.81 33.88,37.65 34.16,37.53 L35.16,37.09 C35.4353045,36.94411 35.6192619,36.670051 35.65,36.36 L35.65,35.36 C35.65,35.08 35.82,35.02 36,35.24 L36.67,36.05 C36.8728028,36.2704377 37.187321,36.3490672 37.47,36.25 L38.55,35.82 C38.81,35.71 38.9,35.82 38.75,36.06 L38.13,37.06 C37.9688052,37.3168002 37.9688052,37.6431998 38.13,37.9 L38.78,38.75 C38.95,38.97 38.86,39.11 38.59,39.06 L37.53,38.86 C37.2257803,38.8198932 36.9226371,38.9411505 36.73,39.18 L36.18,39.94 C36.01,40.17 35.85,40.13 35.82,39.85 L35.7,38.85 C35.6481973,38.5495831 35.437699,38.3008124 35.15,38.2 L34.16,37.89 Z" id="Shape_2_copy_11-2" fill="#FFFFFF"></path>
                <path d="M37.87,42.6 C37.6,42.52 37.59,42.36 37.87,42.24 L38.87,41.8 C39.1453045,41.65411 39.3292619,41.380051 39.36,41.07 L39.36,40.07 C39.36,39.79 39.53,39.74 39.71,39.95 L40.38,40.76 C40.5828028,40.9804377 40.897321,41.0590672 41.18,40.96 L42.26,40.53 C42.52,40.42 42.61,40.53 42.47,40.77 L41.85,41.77 C41.6888052,42.0268002 41.6888052,42.3531998 41.85,42.61 L42.5,43.46 C42.67,43.68 42.59,43.82 42.31,43.77 L41.25,43.57 C40.9457803,43.5298932 40.6426371,43.6511505 40.45,43.89 L39.9,44.65 C39.74,44.88 39.57,44.84 39.54,44.56 L39.42,43.56 C39.3681973,43.2595831 39.157699,43.0108124 38.87,42.91 L37.87,42.6 Z" id="Shape_2_copy_12-2" fill="#FFFFFF"></path>
            </g>
        </g>
    </g>
</svg>