<?xml version="1.0" encoding="UTF-8"?>
<svg width="71px" height="48px" viewBox="0 0 71 48" version="1.1" xmlns="http://www.w3.org/2000/svg" xmlns:xlink="http://www.w3.org/1999/xlink">
    <!-- Generator: Sketch 48.1 (47250) - http://www.bohemiancoding.com/sketch -->
    <title>Brazil@2x</title>
    <desc>Created with Sketch.</desc>
    <defs></defs>
    <g id="Flags" stroke="none" stroke-width="1" fill="none" fill-rule="evenodd" transform="translate(-324.000000, -315.000000)">
        <g transform="translate(70.000000, 70.000000)" fill-rule="nonzero" id="Brazil">
            <g transform="translate(254.000000, 245.000000)">
                <rect id="Rounded_Rectangle_7_copy-19" fill="#52C162" x="0.15" y="0.13" width="70" height="47" rx="6.36"></rect>
                <polygon id="Shape" fill="#F6D660" points="7.93 23.63 35.14 2.63 62.35 23.63 35.14 44.63"></polygon>
                <path d="M31,18.55 C28.1697126,18.5497189 25.3882472,19.287307 22.93,20.69 C21.41007,26.9033713 24.8025227,33.2665085 30.8085017,35.4675051 C36.8144808,37.6685017 43.5152025,35.0041857 46.37,29.28 C43.9945024,22.8411882 37.8630293,18.5607259 31,18.55 Z" id="Shape" fill="#4758A9"></path>
                <path d="M31,18.55 C37.8630293,18.5607259 43.9945024,22.8411882 46.37,29.28 C46.8191035,28.3676841 47.1549304,27.4038608 47.37,26.41 C42.9638408,17.9447943 32.8341938,14.2301569 24,17.84 C23.5318215,18.7432432 23.1758466,19.7003456 22.94,20.69 C25.3953026,19.2889863 28.1731027,18.5514563 31,18.55 Z" id="Shape" fill="#FFFFFF"></path>
                <path d="M47.4,26.42 C48.7766375,20.2662874 45.3808634,14.0449446 39.4604826,11.8741383 C33.5401018,9.70333201 26.9275707,12.254963 24,17.84 C32.847819,14.2072425 43.0052744,17.9300518 47.41,26.42 L47.4,26.42 Z" id="Shape" fill="#4758A9"></path>
            </g>
        </g>
    </g>
</svg>