<?xml version="1.0" encoding="UTF-8"?>
<svg width="71px" height="48px" viewBox="0 0 71 48" version="1.1" xmlns="http://www.w3.org/2000/svg" xmlns:xlink="http://www.w3.org/1999/xlink">
    <!-- Generator: Sketch 48.1 (47250) - http://www.bohemiancoding.com/sketch -->
    <title>Brunei@2x</title>
    <desc>Created with Sketch.</desc>
    <defs></defs>
    <g id="Flags" stroke="none" stroke-width="1" fill="none" fill-rule="evenodd" transform="translate(-408.000000, -315.000000)">
        <g transform="translate(70.000000, 70.000000)" fill-rule="nonzero" id="Brunei">
            <g transform="translate(338.000000, 245.000000)">
                <rect id="Rounded_Rectangle_7_copy-22" fill="#FFCE54" x="0.77" y="0.13" width="70" height="47" rx="6.36"></rect>
                <path d="M70.77,34.15 L0.77,13 L0.77,20.36 L70.77,41.49 C70.7834685,41.250189 70.7834685,41.009811 70.77,40.77 L70.77,34.15 Z" id="Shape" fill="#434A54"></path>
                <path d="M0.77,12 L70.77,33.15 L70.77,25.79 L1,4.72 C0.8302404,5.2947742 0.742705225,5.89068674 0.74,6.49 L0.77,12 Z" id="Shape" fill="#FFFFFF"></path>
                <path d="M44,33.1 C44.1815545,32.7206013 44.1815545,32.2793987 44,31.9 C43.8061447,32.2055396 43.5015178,32.4241541 43.15,32.51 L43,32.34 C42.8055459,32.0426238 42.701351,31.6953071 42.7,31.34 C42.6642995,31.0485736 42.4320223,30.8204442 42.14,30.79 C44.4949967,27.861853 44.4615426,23.6800947 42.06,20.79 C42.1881408,20.724676 42.2773351,20.6020338 42.3,20.46 C43.03,20.46 43.2,20.22 43.3,19.88 C43.97,19.55 43.98,19.13 43.38,19.2 C42.0153823,19.3470277 40.6360769,19.1332353 39.38,18.58 C38.2,18.2 37.1,17.58 36.14,18.04 L36.14,17.13 C36.299454,16.9436538 36.3848675,16.7052076 36.38,16.46 C36.3790764,16.834327 36.5720515,17.1824391 36.89,17.38 C37.1786081,17.1325471 37.3248724,16.7575103 37.28,16.38 C37.2176634,16.8422816 37.4832184,17.2862564 37.92,17.45 C38.1701505,16.6515692 37.9628798,15.780265 37.38,15.18 C37.3306646,15.1378291 37.2726109,15.1070948 37.21,15.09 C36.8822073,15.0127057 36.5467736,14.9724537 36.21,14.97 L36.21,14.35 C37.13,14.35 37.21,15.06 38.41,15.06 C37.93,14.9 38.15,14.36 37.79,14.06 C38.1204078,13.969197 38.4076072,13.7635481 38.6,13.48 C37.36,13.48 37.16,12.57 36.18,12.48 L36.18,12.29 C36.4287843,12.2052325 36.5970881,11.972813 36.6,11.71 C36.6071153,11.3879417 36.3701287,11.1123963 36.0506309,11.071246 C35.7311332,11.0300957 35.4320603,11.2365984 35.357337,11.5499489 C35.2826136,11.8632995 35.4563142,12.1825425 35.76,12.29 L35.76,14.9 C35.4232318,14.9025378 35.0878074,14.9427887 34.76,15.02 C34.6973891,15.0370948 34.6393354,15.0678291 34.59,15.11 C34.0071202,15.710265 33.7998495,16.5815692 34.05,17.38 C34.4867816,17.2162564 34.7523366,16.7722816 34.69,16.31 C34.6451276,16.6875103 34.7913919,17.0625471 35.08,17.31 C35.3979485,17.1124391 35.5909236,16.764327 35.59,16.39 C35.5828738,16.6433719 35.6722304,16.8899961 35.84,17.08 L35.84,17.98 C34.84,17.47 33.77,18.12 32.58,18.51 C31.3239231,19.0632353 29.9446177,19.2770277 28.58,19.13 C27.98,19.06 27.99,19.48 28.66,19.81 C28.76,20.14 28.92,20.34 29.66,20.39 C29.6826649,20.5320338 29.7718592,20.654676 29.9,20.72 C27.4945727,23.6086726 27.4610964,27.7932127 29.82,30.72 C29.5279777,30.7504442 29.2957005,30.9785736 29.26,31.27 C29.2556797,31.6263191 29.1479862,31.9737173 28.95,32.27 L28.8,32.44 C28.4484822,32.3541541 28.1438553,32.1355396 27.95,31.83 C27.7698814,32.2097233 27.7698814,32.6502767 27.95,33.03 C27.2412823,32.9485117 26.568468,33.3612812 26.32,34.03 C27.1498904,33.6975514 28.0848097,33.7525466 28.87,34.18 C29.8645304,35.0439985 31.1865181,35.4310999 32.49,35.24 C34.8212251,36.3188854 37.5087749,36.3188854 39.84,35.24 C41.1434819,35.4310999 42.4654696,35.0439985 43.46,34.18 C44.2451903,33.7525466 45.1801096,33.6975514 46.01,34.03 C45.8704001,33.637403 45.5786114,33.3175457 45.2004501,33.1425756 C44.8222888,32.9676054 44.3896066,32.9522598 44,33.1 Z M37.42,21.35 C38.0034743,21.7180533 38.7465257,21.7180533 39.33,21.35 C39.97,21.45 40.96,21.56 41,21 L41.17,21 C41.6987605,21.9115189 41.97813,22.9462206 41.98,24 C41.9652672,26.7604533 40.1130102,29.1728852 37.45,29.9 C37.5078741,29.4308344 37.6683394,28.9801659 37.92,28.58 C37.601196,28.5949668 37.2837887,28.6317193 36.97,28.69 C37.47,27.52 36.54,26.31 37.6,25 C37.3513734,24.9926459 37.1089301,25.0782141 36.92,25.24 C37.11,24.24 36.54,23.24 37.37,22.17 C36.8261598,22.2183967 36.3850256,22.6306716 36.3,23.17 C36.3135714,22.8952504 36.2621815,22.621171 36.15,22.37 L36.15,21.07 C36.5232627,21.3370364 36.9956743,21.424927 37.44,21.31 L37.42,21.35 Z M35.42,22.35 C35.2898816,22.6173968 35.2280393,22.9128657 35.24,23.21 C35.1549744,22.6706716 34.7138402,22.2583967 34.17,22.21 C35,23.29 34.43,24.3 34.62,25.28 C34.4310699,25.1182141 34.1886266,25.0326459 33.94,25.04 C34.99,26.35 34.07,27.56 34.57,28.73 C34.256152,28.6721135 33.9387716,28.6353642 33.62,28.62 C33.8716606,29.0201659 34.0321259,29.4708344 34.09,29.94 C31.4269898,29.2128852 29.5747328,26.8004533 29.56,24.04 C29.5649071,22.9853099 29.8477421,21.9505476 30.38,21.04 L30.55,21.04 C30.55,21.61 31.55,21.49 32.22,21.39 C32.8034743,21.7580533 33.5465257,21.7580533 34.13,21.39 C34.5835638,21.5040857 35.0643848,21.4086556 35.44,21.13 L35.42,22.35 Z M49.57,20.93 C49.4673008,20.9373391 49.3726588,20.9883001 49.31,21.07 C48.9299987,21.119995 48.5551915,21.2036574 48.19,21.32 C48.124603,21.2415256 48.0205177,21.2066779 47.9210537,21.2299567 C47.8215897,21.2532355 47.7437796,21.3306545 47.72,21.43 C47.6245015,21.7030981 47.5771317,21.9907003 47.58,22.28 L47.43,22.55 C47.2139567,22.6663958 47.0444885,22.8535168 46.95,23.08 C46.6498736,23.4946731 46.2602403,23.8364567 45.81,24.08 C45.01,24.61 45.28,25.48 45.28,26.24 C45.28,26.74 45.28,28.04 45.21,29.31 C45.1125511,29.7160091 45.0655297,30.1324839 45.07,30.55 C44.9,30.65 44.68,30.93 45.15,31.22 L45.15,31.62 C45.5171647,31.8925779 45.9777592,32.0077265 46.43,31.94 C46.8797787,32.0248075 47.3441094,31.9078107 47.7,31.62 C47.7,31.52 47.7,31.38 47.7,31.21 C48.16,30.91 47.95,30.63 47.78,30.53 C47.7868125,30.1123679 47.739758,29.6955999 47.64,29.29 C47.64,27.93 47.55,26.4 47.56,25.77 C48.0056232,25.4121256 48.4265801,25.024578 48.82,24.61 C49.0817841,24.3747218 49.2635758,24.0635783 49.34,23.72 C49.4064065,23.4450634 49.489902,23.1745379 49.59,22.91 C49.7208006,22.4374425 49.7913596,21.9502497 49.8,21.46 C49.8,20.99 49.74,20.87 49.58,20.87 L49.57,20.93 Z M26.42,31.64 L26.42,31.24 C26.89,30.95 26.67,30.66 26.5,30.57 C26.5044703,30.1524839 26.4574489,29.7360091 26.36,29.33 C26.36,28.06 26.29,26.76 26.29,26.26 C26.29,25.51 26.56,24.64 25.76,24.1 C25.3097597,23.8564567 24.9201264,23.5146731 24.62,23.1 C24.5255115,22.8735168 24.3560433,22.6863958 24.14,22.57 L23.99,22.3 C23.9928683,22.0107003 23.9454985,21.7230981 23.85,21.45 C23.8262204,21.3506545 23.7484103,21.2732355 23.6489463,21.2499567 C23.5494823,21.2266779 23.445397,21.2615256 23.38,21.34 C23.014781,21.223759 22.6399829,21.1400987 22.26,21.09 C22.1965184,21.0092727 22.1023402,20.9585614 22,20.95 C21.84,20.95 21.75,21.07 21.78,21.54 C21.7886404,22.0302497 21.8591994,22.5174425 21.99,22.99 C22.090098,23.2545379 22.1735935,23.5250634 22.24,23.8 C22.3164242,24.1435783 22.4982159,24.4547218 22.76,24.69 C23.1536317,25.1043629 23.5745737,25.4918968 24.02,25.85 C24.02,26.48 24.02,28.01 23.94,29.37 C23.840242,29.7755999 23.7931875,30.1923679 23.8,30.61 C23.63,30.71 23.42,30.99 23.88,31.29 C23.88,31.45 23.88,31.59 23.88,31.7 C24.2358906,31.9878107 24.7002213,32.1048075 25.15,32.02 C25.5989683,32.0849874 26.0554312,31.9699731 26.42,31.7 L26.42,31.64 Z" id="Shape" fill="#ED5565"></path>
            </g>
        </g>
    </g>
</svg>