<?xml version="1.0" encoding="UTF-8"?>
<svg width="71px" height="48px" viewBox="0 0 71 48" version="1.1" xmlns="http://www.w3.org/2000/svg" xmlns:xlink="http://www.w3.org/1999/xlink">
    <!-- Generator: Sketch 48.1 (47250) - http://www.bohemiancoding.com/sketch -->
    <title>burkina_faso@2x</title>
    <desc>Created with Sketch.</desc>
    <defs></defs>
    <g id="Flags" stroke="none" stroke-width="1" fill="none" fill-rule="evenodd" transform="translate(-154.000000, -376.000000)">
        <g transform="translate(70.000000, 70.000000)" fill-rule="nonzero" id="burkina_faso">
            <g transform="translate(84.000000, 306.000000)">
                <path d="M64.54,0.42 L7.27,0.42 C3.75746899,0.42 0.91,3.26746802 0.91,6.77999782 L0.91,23.4199921 L70.91,23.4199921 L70.91,6.77999782 C70.9100021,5.09148748 70.23856,3.47227984 69.043665,2.27926101 C67.8487699,1.08624217 66.2285088,0.41734511 64.54,0.42 Z" id="Shape" fill="#ED5565"></path>
                <path d="M0.9,41.05 C0.9,44.562531 3.74746899,47.41 7.26,47.41 L64.53,47.41 C68.042531,47.41 70.89,44.562531 70.89,41.05 L70.89,23.42 L0.89,23.42 L0.9,41.05 Z" id="Shape" fill="#52C162"></path>
                <path d="M31,32.14 C30.22,32.69 29.77,32.38 30,31.45 L30.84,27.97 C31.0323885,26.9306124 30.6906281,25.8640196 29.93,25.13 L27.39,22.93 C26.67,22.3 26.85,21.77 27.81,21.74 L31.37,21.64 C32.3902464,21.5637785 33.267142,20.8874285 33.6,19.92 L34.72,16.12 C34.99,15.2 35.48,15.18 35.8,16.12 L37.14,19.87 C37.5320938,20.8215917 38.432783,21.4660504 39.46,21.53 L43.09,21.53 C44.09,21.53 44.24,22.06 43.52,22.69 L40.76,25.11 C40.0137999,25.8428045 39.7030945,26.911328 39.94,27.93 L40.82,30.99 C41.09,31.91 40.64,32.26 39.82,31.76 L36.82,29.94 C35.9092574,29.4388845 34.7979162,29.4733744 33.92,30.03 L31,32.14 Z" id="Shape_2_copy_6-2" fill="#F6D660"></path>
            </g>
        </g>
    </g>
</svg>