<?xml version="1.0" encoding="UTF-8"?>
<svg width="71px" height="48px" viewBox="0 0 71 48" version="1.1" xmlns="http://www.w3.org/2000/svg" xmlns:xlink="http://www.w3.org/1999/xlink">
    <!-- Generator: Sketch 48.1 (47250) - http://www.bohemiancoding.com/sketch -->
    <title>Burundi@2x</title>
    <desc>Created with Sketch.</desc>
    <defs></defs>
    <g id="Flags" stroke="none" stroke-width="1" fill="none" fill-rule="evenodd" transform="translate(-239.000000, -376.000000)">
        <g transform="translate(70.000000, 70.000000)" fill-rule="nonzero" id="Burundi">
            <g transform="translate(169.000000, 306.000000)">
                <path d="M66.76,1 C65.9427703,0.631315098 65.0565449,0.440435775 64.16,0.44 L6.89,0.44 C5.96764425,0.439792615 5.05638578,0.641156846 4.22,1.03 L35.58,21.1 L66.76,1 Z" id="Shape" fill="#ED5565"></path>
                <path d="M70.15,43.2 C70.4000423,42.5106999 70.5286151,41.7832488 70.53,41.05 L70.53,6.78 C70.5247539,6.09940511 70.4099512,5.42409502 70.19,4.78 L40.19,24.09 L70.15,43.2 Z" id="Shape" fill="#52C162"></path>
                <path d="M0.85,4.78 C0.637013335,5.4252516 0.528972608,6.10050615 0.53,6.78 L0.53,41.05 C0.532014645,41.8480669 0.684688554,42.6385784 0.98,43.38 L30.98,24.05 L0.85,4.78 Z" id="Shape" fill="#52C162"></path>
                <path d="M4.63,47 C5.35144811,47.2765395 6.11736801,47.4188785 6.89,47.42 L64.16,47.42 C65.0192838,47.4211739 65.8698385,47.2476607 66.66,46.91 L35.61,27 L4.63,47 Z" id="Shape" fill="#ED5565"></path>
                <path d="M70.15,43.2 L40.23,24.05 L70.23,4.74 C69.6623722,3.06329832 68.423642,1.69779753 66.81,0.97 L35.62,21.07 L4.22,1 C2.62256713,1.74015084 1.40269762,3.10843176 0.85,4.78 L31,24.05 L1,43.38 C1.65870713,45.044051 2.98704621,46.3542434 4.66,46.99 L35.66,26.99 L66.71,46.86 C68.3088756,46.1616841 69.552014,44.8390427 70.15,43.2 Z" id="Shape" fill="#FFFFFF"></path>
                <circle id="Oval" fill="#FFFFFF" cx="35.74" cy="24.01" r="14.5"></circle>
                <path d="M33.65,22.38 C33.28,22.64 33.07,22.49 33.18,22.05 L33.58,20.41 C33.6717846,19.9194018 33.5101125,19.4155865 33.15,19.07 L31.95,18.07 C31.61,17.77 31.7,17.52 32.15,17.51 L33.83,17.51 C34.292167,17.456675 34.6818654,17.1410193 34.83,16.7 L35.36,14.91 C35.49,14.48 35.72,14.47 35.87,14.91 L36.5,16.67 C36.683439,17.117713 37.1070438,17.4208431 37.59,17.45 L39.3,17.45 C39.75,17.45 39.84,17.7 39.5,18 L38.2,19.14 C37.8460403,19.484434 37.6980967,19.9889595 37.81,20.47 L38.23,21.91 C38.36,22.34 38.14,22.51 37.76,22.27 L36.37,21.41 C35.9503503,21.1628571 35.4296497,21.1628571 35.01,21.41 L33.65,22.38 Z" id="Shape_2_copy_13-2" fill="#ED5565"></path>
                <path d="M28.65,32.38 C28.28,32.64 28.07,32.49 28.18,32.06 L28.58,30.42 C28.6717846,29.9294018 28.5101125,29.4255865 28.15,29.08 L26.95,28.08 C26.61,27.78 26.7,27.53 27.15,27.52 L28.83,27.52 C29.292167,27.466675 29.6818654,27.1510193 29.83,26.71 L30.36,24.92 C30.49,24.49 30.72,24.48 30.87,24.92 L31.5,26.68 C31.683439,27.127713 32.1070438,27.4308431 32.59,27.46 L34.3,27.46 C34.75,27.46 34.84,27.71 34.5,28.01 L33.2,29.15 C32.8460403,29.494434 32.6980967,29.9989595 32.81,30.48 L33.23,31.92 C33.36,32.35 33.14,32.52 32.76,32.28 L31.37,31.42 C30.9503503,31.1728571 30.4296497,31.1728571 30.01,31.42 L28.65,32.38 Z" id="Shape_2_copy_14" fill="#ED5565"></path>
                <path d="M38.65,32.38 C38.28,32.64 38.07,32.49 38.18,32.06 L38.58,30.42 C38.6717846,29.9294018 38.5101125,29.4255865 38.15,29.08 L36.95,28.08 C36.61,27.78 36.7,27.53 37.15,27.52 L38.83,27.52 C39.292167,27.466675 39.6818654,27.1510193 39.83,26.71 L40.36,24.92 C40.49,24.49 40.72,24.48 40.87,24.92 L41.5,26.68 C41.683439,27.127713 42.1070438,27.4308431 42.59,27.46 L44.3,27.46 C44.75,27.46 44.84,27.71 44.5,28.01 L43.2,29.15 C42.8460403,29.494434 42.6980967,29.9989595 42.81,30.48 L43.23,31.92 C43.36,32.35 43.14,32.52 42.76,32.28 L41.37,31.42 C40.9503503,31.1728571 40.4296497,31.1728571 40.01,31.42 L38.65,32.38 Z" id="Shape_2_copy_15-2" fill="#ED5565"></path>
            </g>
        </g>
    </g>
</svg>