<?xml version="1.0" encoding="UTF-8"?>
<svg width="71px" height="48px" viewBox="0 0 71 48" version="1.1" xmlns="http://www.w3.org/2000/svg" xmlns:xlink="http://www.w3.org/1999/xlink">
    <!-- Generator: Sketch 48.1 (47250) - http://www.bohemiancoding.com/sketch -->
    <title>Cambodia@2x</title>
    <desc>Created with Sketch.</desc>
    <defs></defs>
    <g id="Flags" stroke="none" stroke-width="1" fill="none" fill-rule="evenodd" transform="translate(-324.000000, -376.000000)">
        <g transform="translate(70.000000, 70.000000)" fill-rule="nonzero" id="Cambodia">
            <g transform="translate(254.000000, 306.000000)">
                <path d="M0.15,6.78 L0.15,41.05 C0.151394411,41.8588067 0.307535126,42.6598765 0.61,43.41 L69.69,43.41 C69.9924649,42.6598765 70.1486056,41.8588067 70.15,41.05 L70.15,6.78 C70.1486056,5.97119326 69.9924649,5.17012351 69.69,4.42 L0.6,4.42 C0.300956453,5.17079593 0.148214505,5.9718426 0.15,6.78 Z" id="Shape" fill="#4758A9"></path>
                <path d="M63.78,0.42 L6.51,0.42 C3.90707925,0.41833419 1.56586334,2.00291349 0.6,4.42 L69.68,4.42 C68.7154904,2.00629949 66.3792736,0.422423672 63.78,0.42 Z" id="Shape" fill="#ED5565"></path>
                <path d="M6.51,47.42 L63.78,47.42 C66.3829207,47.4216658 68.7241367,45.8370865 69.69,43.42 L0.6,43.42 C1.56586334,45.8370865 3.90707925,47.4216658 6.51,47.42 Z" id="Shape" fill="#ED5565"></path>
                <path d="M53.06,33.88 L53.06,32.39 L52.15,32.39 L52.15,31.17 L51.31,31.17 L51.31,30.11 L50.69,30.11 L50.69,29.37 L50.11,29.37 C50.006245,29.3109998 49.9118729,29.2368502 49.83,29.15 L49.66,25.27 C49.7631312,25.1040446 49.9126206,24.9719377 50.09,24.89 L50.09,22.19 C49.8378071,22.3007184 49.6424455,22.5105512 49.55,22.77 L49.55,21.38 L49.14,21.38 L49.14,22.77 L49,22.77 L49,22.28 L48.57,22.28 L48.57,22.09 L49,22.09 L49,21.72 L48.57,21.72 L48.57,20.62 C48.57,20.44 48.57,20.38 48.39,20.42 C48.1958068,20.5211612 48.0435347,20.6875981 47.96,20.89 C47.9339104,20.9672038 47.8614929,21.0191724 47.78,21.0191724 C47.6985071,21.0191724 47.6260896,20.9672038 47.6,20.89 C47.6,20.31 47.94,20.48 47.94,19.98 C47.94,19.81 47.79,19.87 47.63,19.98 C47.47,20.09 47.46,19.89 47.46,19.69 C47.5477581,19.5058867 47.621306,19.315331 47.68,19.12 C47.68,18.91 47.49,19.02 47.38,19.12 C47.27,19.22 47.19,19.19 47.19,18.93 C47.19,18.67 47.47,18.64 47.47,18.38 C47.47,18.12 47.34,18.27 47.25,18.38 C47.16,18.49 46.95,18.47 46.99,18.38 C47.0677181,17.99232 46.9478036,17.5913558 46.67,17.31 C46.5387222,17.2248168 46.4625681,17.0763164 46.47,16.92 C46.47,16.79 46.47,16.71 46.36,16.71 C46.25,16.71 46.25,16.79 46.25,16.92 C46.2574319,17.0763164 46.1812778,17.2248168 46.05,17.31 C45.7721964,17.5913558 45.6522819,17.99232 45.73,18.38 C45.73,18.51 45.55,18.54 45.47,18.38 C45.39,18.22 45.25,18.22 45.25,18.38 C45.25,18.54 45.53,18.65 45.53,18.93 C45.53,19.21 45.45,19.24 45.34,19.12 C45.23,19 45.04,18.89 45.04,19.12 C45.098694,19.315331 45.1722419,19.5058867 45.26,19.69 C45.26,19.89 45.26,20.1 45.09,19.98 C44.92,19.86 44.78,19.8 44.78,19.98 C44.78,20.48 45.12,20.31 45.12,20.89 C45.0939104,20.9672038 45.0214929,21.0191724 44.94,21.0191724 C44.8585071,21.0191724 44.7860896,20.9672038 44.76,20.89 C44.6764653,20.6875981 44.5241932,20.5211612 44.33,20.42 C44.19,20.42 44.15,20.42 44.15,20.62 L44.15,22.76 L43.44,22.76 L43.44,22.47 L43.18,22.47 L43.18,22.76 L39.58,22.76 L39.58,20.91 C39.3987675,21.0447009 39.2429977,21.2106296 39.12,21.4 L38.47,21.4 L38.47,21 C38.6020283,20.9914318 38.7161757,20.9048372 38.76,20.78 C38.76,20.73 38.76,20.71 38.7,20.78 C38.6028184,20.8533025 38.4764017,20.8756113 38.36,20.84 C38.36,20.84 38.36,20.84 38.43,20.72 L38.81,20.45 C38.839207,20.4191496 38.839207,20.3708504 38.81,20.34 C38.7873945,20.2906758 38.7322005,20.2652016 38.68,20.28 L38.37,20.5 C38.3,20.5 38.21,20.61 38.17,20.5 C38.116961,20.3603405 37.988803,20.2632511 37.84,20.25 L37.84,20.19 C37.8060679,19.9988519 37.8836022,19.8050161 38.04,19.69 C38.1896572,19.5796852 38.2602196,19.3915186 38.22,19.21 C38.22,19.04 38.08,18.92 37.96,19.21 C37.84,19.5 37.71,19.36 37.71,19.28 L37.71,18.97 C37.7512883,18.7508787 37.8724478,18.5548854 38.05,18.42 C38.1642167,18.3658081 38.2322041,18.2458303 38.22,18.12 L38.22,17.8 C38.22,17.5 37.88,17.67 37.78,17.89 C37.68,18.11 37.63,17.89 37.63,17.82 L37.63,17.48 C37.63,17.29 37.9,17.21 37.9,17.01 L37.9,16.6 C37.9,16.27 37.59,16.48 37.54,16.6 C37.41,16.88 37.3,16.76 37.3,16.6 C37.2787664,16.445842 37.3305183,16.2905862 37.44,16.18 C37.5453182,16.0400357 37.5853862,15.861551 37.55,15.69 C37.55,15.33 37.24,15.56 37.17,15.69 C37.1,15.82 36.98,15.87 36.98,15.69 C37.046328,15.4861886 37.1230961,15.285924 37.21,15.09 C37.21,14.86 37.05,14.89 37.02,14.95 C36.99,15.01 36.76,15.11 36.76,14.95 C36.76,14.79 36.86,14.75 36.86,14.51 C37.07,14.51 37.06,14.02 36.86,14.02 L36.57,14.02 C36.72,14.02 36.72,13.96 36.57,13.83 C36.524203,13.7140299 36.4025264,13.646898 36.28,13.67 C36.43,13.67 36.43,13.61 36.28,13.48 C36.234203,13.3640299 36.1125264,13.296898 35.99,13.32 L35.89,13.32 C35.89,13.13 35.89,12.66 35.61,12.66 C35.33,12.66 35.33,13.13 35.33,13.32 L35.23,13.32 C35.1074736,13.296898 34.985797,13.3640299 34.94,13.48 C34.83,13.61 34.83,13.67 34.94,13.67 C34.8174736,13.646898 34.695797,13.7140299 34.65,13.83 C34.54,13.96 34.54,14.02 34.65,14.02 L34.38,14.02 C34.18,14.02 34.17,14.51 34.38,14.51 C34.38,14.75 34.48,14.76 34.48,14.95 C34.48,15.14 34.27,15.11 34.22,14.95 C34.17,14.79 34.03,14.86 34.03,15.09 C34.1169039,15.285924 34.193672,15.4861886 34.26,15.69 C34.26,15.9 34.14,15.86 34.07,15.69 C34,15.52 33.69,15.32 33.69,15.69 C33.6546138,15.861551 33.6946818,16.0400357 33.8,16.18 C33.9094817,16.2905862 33.9612336,16.445842 33.94,16.6 C33.94,16.75 33.83,16.87 33.7,16.6 C33.7,16.5 33.34,16.29 33.34,16.6 L33.34,17.01 C33.34,17.21 33.61,17.29 33.61,17.48 L33.61,17.81 C33.61,17.91 33.51,18 33.46,17.88 C33.41,17.76 33.02,17.5 33.02,17.79 L33.02,18 C33.0077959,18.1258303 33.0757833,18.2458081 33.19,18.3 C33.3675522,18.4348854 33.4887117,18.6308787 33.53,18.85 L33.53,19.17 C33.53,19.25 33.41,19.34 33.28,19.1 C33.15,18.86 33.02,18.97 33.02,19.1 C32.9797804,19.2815186 33.0503428,19.4696852 33.2,19.58 C33.3563978,19.6950161 33.4339321,19.8888519 33.4,20.08 L33.4,20.14 C33.251197,20.1532511 33.123039,20.2503405 33.07,20.39 C33.07,20.49 32.94,20.39 32.87,20.39 L32.56,20.17 C32.5077995,20.1552016 32.4526055,20.1806758 32.43,20.23 C32.400793,20.2608504 32.400793,20.3091496 32.43,20.34 L32.81,20.61 C32.91,20.68 32.91,20.69 32.88,20.73 C32.7635983,20.7656113 32.6371816,20.7433025 32.54,20.67 C32.54,20.67 32.47,20.67 32.48,20.67 C32.5238243,20.7948372 32.6379717,20.8814318 32.77,20.89 L32.77,21.36 L32.09,21.36 C31.9770761,21.1694217 31.8315276,21.0001792 31.66,20.86 L31.66,22.71 L28.06,22.71 L28.06,22.42 L27.8,22.42 L27.8,22.71 L27.09,22.71 L27.09,20.57 C27.09,20.39 27.09,20.33 26.91,20.37 C26.7115134,20.4685597 26.5552729,20.635453 26.47,20.84 C26.4439104,20.9172038 26.3714929,20.9691724 26.29,20.9691724 C26.2085071,20.9691724 26.1360896,20.9172038 26.11,20.84 C26.11,20.26 26.44,20.43 26.44,19.93 C26.44,19.76 26.29,19.82 26.13,19.93 C25.97,20.04 25.96,19.84 25.96,19.64 C26.0477581,19.4558867 26.121306,19.265331 26.18,19.07 C26.18,18.86 25.99,18.97 25.88,19.07 C25.77,19.17 25.69,19.14 25.69,18.88 C25.69,18.62 25.97,18.59 25.97,18.33 C25.97,18.07 25.84,18.22 25.75,18.33 C25.66,18.44 25.45,18.42 25.49,18.33 C25.5677181,17.94232 25.4478036,17.5413558 25.17,17.26 C25.0387222,17.1748168 24.9625681,17.0263164 24.97,16.87 C24.97,16.74 24.97,16.66 24.86,16.66 C24.75,16.66 24.75,16.74 24.75,16.87 C24.7574319,17.0263164 24.6812778,17.1748168 24.55,17.26 C24.2737468,17.5422719 24.1540807,17.9424055 24.23,18.33 C24.23,18.46 24.05,18.49 23.97,18.33 C23.89,18.17 23.75,18.17 23.75,18.33 C23.75,18.49 24.03,18.6 24.03,18.88 C24.03,19.16 23.95,19.19 23.84,19.07 C23.73,18.95 23.54,18.84 23.54,19.07 C23.598694,19.265331 23.6722419,19.4558867 23.76,19.64 C23.76,19.84 23.76,20.05 23.59,19.93 C23.42,19.81 23.28,19.75 23.28,19.93 C23.28,20.43 23.62,20.26 23.62,20.84 C23.5939104,20.9172038 23.5214929,20.9691724 23.44,20.9691724 C23.3585071,20.9691724 23.2860896,20.9172038 23.26,20.84 C23.1764653,20.6375981 23.0241932,20.4711612 22.83,20.37 C22.69,20.37 22.65,20.37 22.65,20.57 L22.65,21.67 L22.22,21.67 L22.22,22.04 L22.65,22.04 L22.65,22.23 L22.22,22.23 L22.22,22.72 L22.1,22.72 L22.1,21.33 L21.66,21.33 L21.66,22.72 C21.5675545,22.4605512 21.3721929,22.2507184 21.12,22.14 L21.12,24.84 C21.2987438,24.9246211 21.4483836,25.0603409 21.55,25.23 L21.38,29.11 C21.2981271,29.1968502 21.203755,29.2709998 21.1,29.33 L20.52,29.33 L20.52,30.07 L20,30.07 L20,31.13 L19.16,31.13 L19.16,32.35 L18.24,32.35 L18.24,33.84 L17.16,33.84 L17.16,35.37 L54.16,35.37 L54.16,33.84 L53.07,33.84 L53.06,33.88 Z" id="Shape" fill="#FFFFFF"></path>
            </g>
        </g>
    </g>
</svg>