<?xml version="1.0" encoding="UTF-8"?>
<svg width="71px" height="48px" viewBox="0 0 71 48" version="1.1" xmlns="http://www.w3.org/2000/svg" xmlns:xlink="http://www.w3.org/1999/xlink">
    <!-- Generator: Sketch 48.1 (47250) - http://www.bohemiancoding.com/sketch -->
    <title>cameroon@2x</title>
    <desc>Created with Sketch.</desc>
    <defs></defs>
    <g id="Flags" stroke="none" stroke-width="1" fill="none" fill-rule="evenodd" transform="translate(-408.000000, -376.000000)">
        <g transform="translate(70.000000, 70.000000)" fill-rule="nonzero" id="cameroon">
            <g transform="translate(338.000000, 306.000000)">
                <g id="Barbados-2">
                    <g id="Bahamas-12">
                        <path d="M7.13,0.42 C3.61746899,0.42 0.77,3.26746899 0.77,6.78 L0.77,41.05 C0.77,44.562531 3.61746899,47.41 7.13,47.41 L24.13,47.41 C24.13,31.7433333 24.13,16.0766667 24.13,0.41 L7.13,0.42 Z" id="Shape" fill="#52C162"></path>
                        <path d="M24.11,0.42 C24.11,16.0866667 24.11,31.7533333 24.11,47.42 L47.46,47.42 C47.46,31.7533333 47.46,16.0866667 47.46,0.42 L24.11,0.42 Z" id="Shape" fill="#ED5565"></path>
                        <path d="M64.4,0.42 L47.45,0.42 C47.45,16.0866667 47.45,31.7533333 47.45,47.42 L64.4,47.42 C67.912531,47.42 70.76,44.572531 70.76,41.06 L70.76,6.78 C70.76,3.26746899 67.912531,0.42 64.4,0.42 Z" id="Shape" fill="#FFCE54"></path>
                    </g>
                    <path d="M32.38,30.21 C31.79,30.63 31.44,30.39 31.61,29.68 L32.25,27.02 C32.3977647,26.2267674 32.1387604,25.4122177 31.56,24.85 L29.62,23.17 C29.07,22.69 29.21,22.28 29.94,22.26 L32.65,22.18 C33.4252953,22.1084113 34.0885764,21.5933931 34.35,20.86 L35.2,17.95 C35.41,17.24 35.78,17.23 36.02,17.95 L37.02,20.82 C37.3074515,21.5557104 38.0009796,22.0533266 38.79,22.09 L41.56,22.09 C42.29,22.09 42.43,22.5 41.88,22.98 L39.77,24.83 C39.1981219,25.3911273 38.9594544,26.2094158 39.14,26.99 L39.81,29.33 C40.01,30.04 39.67,30.33 39.05,29.92 L36.8,28.53 C36.1063227,28.1459369 35.2579814,28.1728075 34.59,28.6 L32.38,30.21 Z" id="Shape_2_copy_9-3" fill="#F6BB42"></path>
                </g>
            </g>
        </g>
    </g>
</svg>