<?xml version="1.0" encoding="UTF-8"?>
<svg width="71px" height="48px" viewBox="0 0 71 48" version="1.1" xmlns="http://www.w3.org/2000/svg" xmlns:xlink="http://www.w3.org/1999/xlink">
    <!-- Generator: Sketch 48.1 (47250) - http://www.bohemiancoding.com/sketch -->
    <title>Canada@2x</title>
    <desc>Created with Sketch.</desc>
    <defs></defs>
    <g id="Flags" stroke="none" stroke-width="1" fill="none" fill-rule="evenodd" transform="translate(-70.000000, -437.000000)">
        <g transform="translate(70.000000, 70.000000)" fill-rule="nonzero" id="Canada">
            <g transform="translate(0.000000, 367.000000)">
                <g id="Belgium">
                    <g id="Bahamas">
                        <path d="M6.65,0.7 C3.13746899,0.7 0.29,3.54746899 0.29,7.06 L0.29,41.33 C0.29,44.842531 3.13746899,47.69 6.65,47.69 L23.65,47.69 C23.65,32.0233333 23.65,16.3566667 23.65,0.69 L6.65,0.7 Z" id="Shape" fill="#ED5565"></path>
                        <path d="M23.63,0.7 C23.63,16.3666667 23.63,32.0333333 23.63,47.7 L47,47.7 C47,32.0333333 47,16.3666667 47,0.7 L23.63,0.7 Z" id="Shape" fill="#FFFFFF"></path>
                        <path d="M63.92,0.7 L47,0.7 C47,16.3666667 47,32.0333333 47,47.7 L63.92,47.7 C67.432531,47.7 70.28,44.852531 70.28,41.34 L70.28,7.06 C70.28,3.54746899 67.432531,0.7 63.92,0.7 Z" id="Shape" fill="#ED5565"></path>
                    </g>
                </g>
                <path d="M35.89,14.17 C35.8181874,13.8918337 35.5672865,13.6974802 35.28,13.6974802 C34.9927135,13.6974802 34.7418126,13.8918337 34.67,14.17 L34.17,15.17 C33.9463238,15.6526531 33.6494967,16.0978938 33.29,16.49 C32.8495682,16.4694178 32.4206745,16.3424652 32.04,16.12 C31.7,15.94 31.52,16.37 31.65,17.12 L32.11,19.58 C32.2376783,20.1529734 32.2376783,20.7470266 32.11,21.32 C31.99,21.57 31.19,20.94 30.71,20.39 L30.27,19.89 C29.79,19.35 29.32,19.19 29.27,19.53 C29.1982589,19.8050541 29.101177,20.0728664 28.98,20.33 C28.412234,20.3838363 27.8394083,20.3329938 27.29,20.18 L27.15,20.18 C26.8629594,20.0283234 26.5105762,20.0814508 26.2810135,20.3110135 C26.0514508,20.5405762 25.9983234,20.8929594 26.15,21.18 L26.15,21.34 C26.34,22.03 26.55,22.79 26.63,23.02 C26.4956672,23.3912096 26.2077358,23.6864304 25.84,23.83 C25.57,23.96 25.84,24.44 26.37,24.91 L29.07,27.14 C29.4783652,27.4473019 29.8658836,27.7813695 30.23,28.14 C30.2691563,28.5249271 30.2248145,28.9137713 30.1,29.28 C29.99,29.66 30.49,29.9 31.22,29.82 L33.29,29.58 C33.7930626,29.5056344 34.3016767,29.4755191 34.81,29.49 C34.9652967,29.9841695 35.0130324,30.5058527 34.95,31.02 L34.85,33.49 C34.7243055,33.9529636 34.8537388,34.4478556 35.19,34.79 C35.5333881,34.4518997 35.6738889,33.9582484 35.56,33.49 L35.5,31.03 C35.4651715,30.545229 35.4920533,30.0579972 35.58,29.58 C36.1026002,29.4874439 36.6373998,29.4874439 37.16,29.58 L39.23,29.82 C39.96,29.91 40.47,29.66 40.35,29.28 C40.2509152,28.9715451 40.1871736,28.6528371 40.16,28.33 C40.5080005,27.8203993 40.9369948,27.3711375 41.43,27 L44.13,24.77 C44.69,24.31 44.93,23.82 44.66,23.69 C44.4194275,23.5821897 44.1994733,23.4332977 44.01,23.25 C44.0319307,22.5513381 44.1462572,21.858654 44.35,21.19 L44.35,21.03 C44.5016766,20.7429594 44.4485492,20.3905762 44.2189865,20.1610135 C43.9894238,19.9314508 43.6370406,19.8783234 43.35,20.03 L43.21,20.03 C42.7094813,20.1571159 42.1962583,20.2275582 41.68,20.24 C41.4601512,19.997088 41.3083651,19.7004153 41.24,19.38 C41.14,19.03 40.67,19.2 40.24,19.74 L39.8,20.24 C39.4182737,20.7042636 38.9661165,21.1058062 38.46,21.43 C38.2,21.54 38.29,20.13 38.46,19.43 L38.92,16.97 C39.05,16.27 38.92,15.84 38.53,15.97 C38.2066542,16.1383913 37.8726026,16.2853741 37.53,16.41 C37.0120996,16.0697593 36.6080517,15.5821153 36.37,15.01 L35.89,14.17 Z" id="Shape" fill="#ED5565"></path>
            </g>
        </g>
    </g>
</svg>