<?xml version="1.0" encoding="UTF-8"?>
<svg width="71px" height="48px" viewBox="0 0 71 48" version="1.1" xmlns="http://www.w3.org/2000/svg" xmlns:xlink="http://www.w3.org/1999/xlink">
    <!-- Generator: Sketch 48.1 (47250) - http://www.bohemiancoding.com/sketch -->
    <title>Cape_Verde@2x</title>
    <desc>Created with Sketch.</desc>
    <defs></defs>
    <g id="Flags" stroke="none" stroke-width="1" fill="none" fill-rule="evenodd" transform="translate(-154.000000, -437.000000)">
        <g transform="translate(70.000000, 70.000000)" fill-rule="nonzero" id="Cape_Verde">
            <g transform="translate(84.000000, 367.000000)">
                <rect id="Rounded_Rectangle_7_copy-8" fill="#4758A9" x="0.9" y="0.7" width="70" height="47" rx="6.36"></rect>
                <rect id="Rectangle_1_copy_7-2" fill="#FFFFFF" x="0.9" y="21.7" width="70" height="14"></rect>
                <rect id="Rectangle_1_copy_9" fill="#ED5565" x="0.9" y="24.7" width="70" height="8"></rect>
                <path d="M21.34,21.6 C21.06,21.8 20.9,21.68 20.98,21.36 L21.28,20.13 C21.3476924,19.7641009 21.2275401,19.3886247 20.96,19.13 L20.06,18.35 C19.8,18.13 19.87,17.94 20.21,17.93 L21.47,17.93 C21.8313,17.9020987 22.1416112,17.6624912 22.26,17.32 L22.66,15.98 C22.76,15.65 22.93,15.65 23.04,15.98 L23.52,17.3 C23.6666053,17.6304194 23.9801197,17.8559968 24.34,17.89 L25.63,17.89 C25.97,17.89 26.04,18.08 25.78,18.3 L24.78,19.16 C24.5132325,19.4185578 24.4029519,19.7988357 24.49,20.16 L24.8,21.24 C24.89,21.57 24.74,21.69 24.45,21.51 L23.45,20.87 C23.1405989,20.6913672 22.7594011,20.6913672 22.45,20.87 L21.34,21.6 Z" id="Shape_2_copy_16" fill="#F6D660"></path>
                <path d="M21.34,41.6 C21.06,41.8 20.9,41.68 20.98,41.36 L21.28,40.13 C21.3476924,39.7641009 21.2275401,39.3886247 20.96,39.13 L20.06,38.35 C19.8,38.13 19.87,37.94 20.21,37.93 L21.47,37.93 C21.8313,37.9020987 22.1416112,37.6624912 22.26,37.32 L22.66,35.98 C22.76,35.65 22.93,35.65 23.04,35.98 L23.52,37.3 C23.6666053,37.6304194 23.9801197,37.8559968 24.34,37.89 L25.63,37.89 C25.97,37.89 26.04,38.08 25.78,38.3 L24.78,39.16 C24.5132325,39.4185578 24.4029519,39.7988357 24.49,40.16 L24.8,41.24 C24.89,41.57 24.74,41.69 24.45,41.51 L23.45,40.87 C23.1405989,40.6913672 22.7594011,40.6913672 22.45,40.87 L21.34,41.6 Z" id="Shape_2_copy_17" fill="#F6D660"></path>
                <path d="M31.34,31.6 C31.06,31.8 30.9,31.68 30.98,31.36 L31.28,30.13 C31.3476924,29.7641009 31.2275401,29.3886247 30.96,29.13 L30.06,28.35 C29.8,28.13 29.87,27.94 30.21,27.93 L31.47,27.93 C31.8313,27.9020987 32.1416112,27.6624912 32.26,27.32 L32.66,25.98 C32.76,25.65 32.93,25.65 33.04,25.98 L33.52,27.3 C33.6666053,27.6304194 33.9801197,27.8559968 34.34,27.89 L35.63,27.89 C35.97,27.89 36.04,28.08 35.78,28.3 L34.78,29.16 C34.5132325,29.4185578 34.4029519,29.7988357 34.49,30.16 L34.8,31.24 C34.89,31.57 34.74,31.69 34.45,31.51 L33.45,30.87 C33.1405989,30.6913672 32.7594011,30.6913672 32.45,30.87 L31.34,31.6 Z" id="Shape_2_copy_18" fill="#F6D660"></path>
                <path d="M12.34,31.6 C12.06,31.8 11.9,31.68 11.98,31.36 L12.28,30.13 C12.3476924,29.7641009 12.2275401,29.3886247 11.96,29.13 L11.06,28.35 C10.8,28.13 10.87,27.94 11.21,27.93 L12.47,27.93 C12.8313,27.9020987 13.1416112,27.6624912 13.26,27.32 L13.66,25.98 C13.76,25.65 13.93,25.65 14.04,25.98 L14.52,27.3 C14.6666053,27.6304194 14.9801197,27.8559968 15.34,27.89 L16.63,27.89 C16.97,27.89 17.04,28.08 16.78,28.3 L15.78,29.16 C15.5132325,29.4185578 15.4029519,29.7988357 15.49,30.16 L15.8,31.24 C15.89,31.57 15.74,31.69 15.45,31.51 L14.45,30.87 C14.1405989,30.6913672 13.7594011,30.6913672 13.45,30.87 L12.34,31.6 Z" id="Shape_2_copy_19" fill="#F6D660"></path>
                <path d="M14.34,24.6 C14.06,24.8 13.9,24.68 13.98,24.36 L14.28,23.13 C14.3476924,22.7641009 14.2275401,22.3886247 13.96,22.13 L13.06,21.35 C12.8,21.13 12.87,20.94 13.21,20.93 L14.47,20.93 C14.8313,20.9020987 15.1416112,20.6624912 15.26,20.32 L15.66,18.98 C15.76,18.65 15.93,18.65 16.04,18.98 L16.52,20.3 C16.6666053,20.6304194 16.9801197,20.8559968 17.34,20.89 L18.63,20.89 C18.97,20.89 19.04,21.08 18.78,21.3 L17.78,22.16 C17.5132325,22.4185578 17.4029519,22.7988357 17.49,23.16 L17.8,24.24 C17.89,24.57 17.74,24.69 17.45,24.51 L16.45,23.87 C16.1405989,23.6913672 15.7594011,23.6913672 15.45,23.87 L14.34,24.6 Z" id="Shape_2_copy_20" fill="#F6D660"></path>
                <path d="M28.34,24.6 C28.06,24.8 27.9,24.68 27.98,24.36 L28.28,23.13 C28.3476924,22.7641009 28.2275401,22.3886247 27.96,22.13 L27.06,21.35 C26.8,21.13 26.87,20.94 27.21,20.93 L28.47,20.93 C28.8313,20.9020987 29.1416112,20.6624912 29.26,20.32 L29.66,18.98 C29.76,18.65 29.93,18.65 30.04,18.98 L30.52,20.3 C30.6666053,20.6304194 30.9801197,20.8559968 31.34,20.89 L32.63,20.89 C32.97,20.89 33.04,21.08 32.78,21.3 L31.78,22.16 C31.5132325,22.4185578 31.4029519,22.7988357 31.49,23.16 L31.8,24.24 C31.89,24.57 31.74,24.69 31.45,24.51 L30.45,23.87 C30.1405989,23.6913672 29.7594011,23.6913672 29.45,23.87 L28.34,24.6 Z" id="Shape_2_copy_21" fill="#F6D660"></path>
                <path d="M14.34,38.6 C14.06,38.8 13.9,38.68 13.98,38.36 L14.28,37.13 C14.3476924,36.7641009 14.2275401,36.3886247 13.96,36.13 L13.06,35.35 C12.8,35.13 12.87,34.94 13.21,34.93 L14.47,34.93 C14.8313,34.9020987 15.1416112,34.6624912 15.26,34.32 L15.66,32.98 C15.76,32.65 15.93,32.65 16.04,32.98 L16.52,34.3 C16.6666053,34.6304194 16.9801197,34.8559968 17.34,34.89 L18.63,34.89 C18.97,34.89 19.04,35.08 18.78,35.3 L17.78,36.16 C17.5132325,36.4185578 17.4029519,36.7988357 17.49,37.16 L17.8,38.24 C17.89,38.57 17.74,38.69 17.45,38.51 L16.45,37.87 C16.1405989,37.6913672 15.7594011,37.6913672 15.45,37.87 L14.34,38.6 Z" id="Shape_2_copy_22" fill="#F6D660"></path>
                <path d="M28.34,38.6 C28.06,38.8 27.9,38.68 27.98,38.36 L28.28,37.13 C28.3476924,36.7641009 28.2275401,36.3886247 27.96,36.13 L27.06,35.35 C26.8,35.13 26.87,34.94 27.21,34.93 L28.47,34.93 C28.8313,34.9020987 29.1416112,34.6624912 29.26,34.32 L29.66,32.98 C29.76,32.65 29.93,32.65 30.04,32.98 L30.52,34.3 C30.6666053,34.6304194 30.9801197,34.8559968 31.34,34.89 L32.63,34.89 C32.97,34.89 33.04,35.08 32.78,35.3 L31.78,36.16 C31.5132325,36.4185578 31.4029519,36.7988357 31.49,37.16 L31.8,38.24 C31.89,38.57 31.74,38.69 31.45,38.51 L30.45,37.87 C30.1405989,37.6913672 29.7594011,37.6913672 29.45,37.87 L28.34,38.6 Z" id="Shape_2_copy_22-2" fill="#F6D660"></path>
            </g>
        </g>
    </g>
</svg>