<?xml version="1.0" encoding="UTF-8"?>
<svg width="71px" height="48px" viewBox="0 0 71 48" version="1.1" xmlns="http://www.w3.org/2000/svg" xmlns:xlink="http://www.w3.org/1999/xlink">
    <!-- Generator: Sketch 48.1 (47250) - http://www.bohemiancoding.com/sketch -->
    <title>Cayman_Islands@2x</title>
    <desc>Created with Sketch.</desc>
    <defs></defs>
    <g id="Flags" stroke="none" stroke-width="1" fill="none" fill-rule="evenodd" transform="translate(-662.000000, -1234.000000)">
        <g transform="translate(70.000000, 70.000000)" id="Cayman_Islands">
            <g transform="translate(592.000000, 1164.000000)">
                <path d="M64,47.4 L7.27,47.4 C5.50896251,47.4 3.82005253,46.7004306 2.57481097,45.455189 C1.32956942,44.2099475 0.63,42.5210375 0.63,40.76 L0.63,23.93 L24.74,0.4 L64,0.4 C67.6671707,0.4 70.64,3.37282926 70.64,7.04 L70.64,40.76 C70.64,44.4271707 67.6671707,47.4 64,47.4 Z" id="Shape" fill="#4658A9" fill-rule="nonzero"></path>
                <path d="M54,18.31 L54,24.58 C54,30.01 51.43,31.88 48,33.35 C44.56,31.87 42,30.01 42,24.58 L42,18.31 L54,18.31 Z M54,17.31 L41.94,17.31 C41.3877153,17.31 40.94,17.7577153 40.94,18.31 L40.94,24.58 C40.94,30.89 44.37,32.89 47.59,34.27 C47.8421726,34.3784252 48.1278274,34.3784252 48.38,34.27 C51.58,32.89 55,30.9 55,24.58 L55,18.31 C55,17.7577153 54.5522847,17.31 54,17.31 Z" id="Shape" fill="#FFFFFF" fill-rule="nonzero"></path>
                <g id="crest" transform="translate(43.000000, 10.000000)" fill-rule="nonzero">
                    <g id="rope" transform="translate(1.000000, 6.000000)" fill="#FFFFFF" stroke="#FFFFFF">
                        <path d="M2,2.6 C1.62562984,2.75405935 1.19530757,2.66720531 0.91,2.38 C0.792322323,2.26149684 0.731436887,2.09801912 0.742927255,1.93140878 C0.754417623,1.76479844 0.837168542,1.61122667 0.97,1.51 C1.21588414,1.29373254 1.55207447,1.21155268 1.87,1.29 C2.22,1.39 3.16,2.29 2.93,2.29 C2.61236342,2.37302691 2.3014737,2.47999972 2,2.61 L2,2.6 Z" id="Shape" stroke-linecap="round" stroke-linejoin="round"></path>
                        <path d="M3,1.06 C3.21177078,0.925784521 3.45950007,0.859490766 3.71,0.87 C4.1,0.87 4.38,0.87 4.48,1.13 C4.54748267,1.50032904 4.71326624,1.84571148 4.96,2.13 C4.55349365,2.26013018 4.11650635,2.26013018 3.71,2.13 C3.32,1.94 3.23,1.2 3,1.07 L3,1.06 Z" id="Shape" stroke-linecap="round" stroke-linejoin="round"></path>
                        <path d="M5.8,1.09 C5.93,0.99 6.09,0.99 6.51,1.03 C6.93,1.07 7.09,1.09 7.18,1.38 C7.27,1.67 7.18,2.12 7.37,2.38 C7.00938172,2.46830285 6.62848812,2.41080947 6.31,2.22 C5.96,1.96 5.99,1.22 5.8,1.06 L5.8,1.09 Z" id="Shape" stroke-linecap="round" stroke-linejoin="round"></path>
                        <path d="M7.72,1.28 C7.43,1.22 7.24,1.18 7.11,1.28 C7.27,1.47 7.11,2.28 7.46,2.5 C7.81,2.72 8.26,2.69 8.39,2.34 C8.52,1.99 8.55,1.54 7.72,1.28 Z" id="Shape"></path>
                        <path d="M4.41,1 C4.51,0.9 4.7,0.87 5.08,0.87 C5.46,0.87 5.75,0.93 5.88,1.19 C6.01,1.45 5.98,1.93 6.2,2.19 C5.80077843,2.32783877 5.36376983,2.30634654 4.98,2.13 C4.63,1.91 4.59,1.13 4.4,1.01 L4.41,1 Z" id="Shape"></path>
                        <path d="M1.68,1.25 C1.68,1.09 1.9,1.06 2.48,1.03 C3.06,1 3.09,1.03 3.28,1.42 C3.38,1.64 3.5,2.03 3.76,2.16 C3.05,2.32 2.83,2.42 2.44,2.16 C2.16144893,1.98230867 1.93125867,1.73837571 1.77,1.45 C1.77,1.35 1.77,1.26 1.67,1.23 L1.68,1.25 Z" id="Shape"></path>
                    </g>
                    <path d="M9.47,3 C8.87874538,2.93961069 8.28202013,3.0361905 7.74,3.28 C8.3,2.71 8.96,2.05 9.38,1.65 C8.490695,1.9949943 7.68587397,2.52699465 7.02,3.21 C7.62551626,2.37348817 8.29413336,1.58451999 9.02,0.85 C8.09237031,1.23381144 7.28929995,1.8672678 6.7,2.68 C6.95533636,1.93648524 7.33766656,1.24287734 7.83,0.63 C7.33637223,0.849230745 6.90883139,1.19402174 6.59,1.63 C6.71643348,1.17981329 6.87346552,0.738787114 7.06,0.31 C6.38810136,0.905386239 5.85258205,1.63874071 5.49,2.46 L6.18,2.88 L6.18,2.97 L6.23,2.88 L6.29,2.67 L6.37,2.53 L6.56,2.82 L6.49,2.91 L6.61,3.25 L6.56,3.33 L6.62,3.26 L6.76,3.65 L6.82,3.55 L6.82,4.26 L6.87,4.2 L6.82,4.48 C7.62675523,3.86056574 8.51946713,3.36199456 9.47,3 Z M6.28,2.63 L6.28,2.54 L6.28,2.63 Z" id="Shape" fill="#F6D660"></path>
                    <path d="M3.39,0.47 C3.79421419,1.05631232 4.12974641,1.68711289 4.39,2.35 C4.03687682,1.84822979 3.59247597,1.41739844 3.08,1.08 L3.7,2.29 C3.2202305,1.83966001 2.62473686,1.53152667 1.98,1.4 C2.57958167,1.79036095 3.10451306,2.28481246 3.53,2.86 C3.00696386,2.51204456 2.41222619,2.28645441 1.79,2.2 C2.42672856,2.5677205 3.01183699,3.01832125 3.53,3.54 C3.0200587,3.17487114 2.43641665,2.925714 1.82,2.81 C2.58890113,3.32469412 3.3207018,3.89275858 4.01,4.51 L4.01,4.22 L4.09,4.28 L4.01,4.21 L4.01,4.01 L4.11,3.85 L4.17,3.99 L4.32,3.53 L4.43,3.71 L4.64,3.35 C4.64,3.49 4.72,3.62 4.75,3.77 L4.97,3.44 L5.16,3.16 C4.95717546,2.0612199 4.31882764,1.09107546 3.39,0.47 Z" id="Shape" fill="#F2D660"></path>
                    <path d="M6.73,3.26 C6.73111197,3.24001546 6.73111197,3.21998454 6.73,3.2 C6.72400124,3.0004056 6.64168184,2.81071306 6.5,2.67 C6.48638306,2.47169174 6.3924873,2.28751161 6.24,2.16 L6.24,2.08 C6.2997004,2.08847963 6.3602996,2.08847963 6.42,2.08 C6.26,1.98 6.16,1.66 5.97,1.66 C6.14972958,1.6085923 6.34027042,1.6085923 6.52,1.66 C6.42476373,1.51607799 6.27128801,1.4210692 6.1,1.4 C6.24621531,1.22502371 6.41817959,1.07329052 6.61,0.95 C6.38316478,0.961351989 6.16293685,1.03017322 5.97,1.15 L5.91,1.21 C6.19,0.95 6.15,0.51 6.49,0.45 C6.21819949,0.449001397 5.95927205,0.56570109 5.78,0.77 C5.88,0.58 5.88,0.32 6,0.26 C5.73411144,0.37142819 5.51015042,0.563894695 5.36,0.81 C5.34535111,0.630198402 5.29068413,0.455947403 5.2,0.3 C5.14,0.56 4.91,0.78 5.07,1.14 C4.81418737,0.999855982 4.49562355,1.05363948 4.3,1.27 C4.55417371,1.22665603 4.81159652,1.32655146 4.97,1.53 C4.77569397,1.48953646 4.58198969,1.60145449 4.52,1.79 C4.6945914,1.71949411 4.88176438,1.68546266 5.07,1.69 C4.94571105,1.79698175 4.84667072,1.93017392 4.78,2.08 L4.88,2.02 C4.80785585,2.12384289 4.76313688,2.24424012 4.75,2.37 C4.75,2.37 4.75,2.37 4.75,2.37 C4.67440435,2.45643317 4.61966458,2.55907025 4.59,2.67 C4.44,2.67 4.3,2.97 4.3,3.27 C4.3,3.27 4.3,3.27 4.3,3.27 C4.23523648,3.45790965 4.23523648,3.66209035 4.3,3.85 C4.36,4.11 4.56,4.27 4.69,4.24 C4.74397476,4.20999325 4.78361524,4.15954174 4.8,4.1 C4.83922718,4.11111986 4.88077282,4.11111986 4.92,4.1 C5.00455731,4.0938554 5.08177709,4.04972981 5.13,3.98 C5.18303898,4.1196595 5.31119704,4.21674894 5.46,4.23 C5.61559598,4.21231604 5.74752932,4.10754545 5.8,3.96 C5.84253846,4.03852523 5.92115422,4.09093574 6.01,4.1 C6.13,4.1 6.24,4.03 6.31,3.87 C6.31,4.04 6.37,4.18 6.46,4.2 C6.55,4.22 6.78,4.07 6.81,3.78 C6.83763862,3.60256426 6.80969382,3.42092305 6.73,3.26 Z" id="Shape" fill="#F6D660"></path>
                    <g id="turtle" transform="translate(0.000000, 3.000000)">
                        <path d="M2.56,1.33 C2.3462932,1.3331933 2.14317061,1.23717172 2.01,1.07 C1.73507704,0.756562357 1.27340281,0.688793664 0.92,0.91 C0.818443485,0.957900561 0.710760302,0.991551556 0.6,1.01 C0.44,1.01 0.25,1.17 0.31,1.49 C0.44,1.39 0.47,1.49 0.57,1.49 C0.67,1.49 0.57,1.49 0.57,1.59 C0.675675445,1.86661179 0.943967855,2.04680819 1.24,2.04 C1.45125135,2.0207373 1.66109186,2.08947816 1.82,2.23 C1.92,2.33 1.82,2.29 1.92,2.45 C2.02,2.61 2.05,2.58 1.92,2.71 C1.77133396,2.83349129 1.68533119,3.01673415 1.68533119,3.21 C1.68533119,3.40326585 1.77133396,3.58650871 1.92,3.71 C2.72623161,4.31185367 3.84605078,4.25733064 4.59,3.58 C5.50843697,2.92277901 6.73674181,2.89892843 7.68,3.52 C7.79657665,3.73054329 7.88404142,3.95593328 7.94,4.19 C8.00512544,4.35818796 8.18465662,4.4522281 8.36,4.41 C8.57719795,4.41444528 8.78869445,4.48032124 8.97,4.6 C9.13,4.7 9.36,4.66 9.29,4.38 C9.16,3.48 8.62,3.38 8.55,2.93 C8.87,2.93 9.1,2.93 9.22,2.83 C9.34,2.73 9.44,2.48 9.57,2.41 C9.7,2.34 9.67,2.28 9.57,2.31 C9.39337602,2.37050071 9.20551439,2.39099471 9.02,2.37 C7.54,2.21 3.4,1.08 2.59,1.31 L2.56,1.33 Z" id="Shape" fill="#51C161"></path>
                        <path d="M3,1.2 C3.26663896,0.883266393 3.68295264,0.734310125 4.09,0.81 L4.19,0.81 C4.46343094,0.648152524 4.79750463,0.625880945 5.09,0.75 L5.22,0.75 C5.69600867,0.635076619 6.1984464,0.729738801 6.6,1.01 L6.7,1.07 C7.47908744,1.03199189 8.22699401,1.37976844 8.7,2 C8.78130734,2.1047053 8.89312266,2.18157834 9.02,2.22 C9.21,2.22 9.24,2.35 9.08,2.44 C8.82191123,2.60153323 8.5949677,2.80815346 8.41,3.05 C7.75007217,3.61195423 6.8940306,3.88890886 6.03,3.82 C5.21674608,3.89117485 4.40317417,3.68690138 3.72,3.24 C3.50701991,3.07513209 3.2831803,2.92479205 3.05,2.79 C2.86,2.73 2.6,2.47 2.7,2.21 C2.71193774,1.89536348 2.63574073,1.58364845 2.48,1.31 C2.61993268,1.2132188 2.79306091,1.17715042 2.96,1.21 L3.02,1.21 L3,1.2 Z" id="Shape" fill="#51C161"></path>
                        <path d="M1.34,1.49 C1.28,1.49 1.24,1.3 1.12,1.3 C1,1.3 0.99,1.3 0.96,1.3 C0.960586184,1.35872519 0.981827821,1.41536956 1.02,1.46 C1.02,1.56 1.21,1.46 1.34,1.46 L1.34,1.49 Z" id="Shape" fill="#434A54"></path>
                    </g>
                </g>
                <path d="M54,18.31 L54,24.58 C54,30.01 51.43,31.88 48,33.35 C44.56,31.87 42,30.01 42,24.58 L42,18.31 L54,18.31 Z" id="shield" fill="#FFFFFF" fill-rule="nonzero"></path>
                <path d="M48,23.61 C48.4337727,23.5262229 48.8275997,23.3011789 49.12,22.97 C49.361772,22.7143424 49.6981271,22.5694885 50.05,22.5694885 C50.4018729,22.5694885 50.738228,22.7143424 50.98,22.97 C51.1696358,23.2102988 51.4588869,23.3505042 51.765,23.3505042 C52.0711131,23.3505042 52.3603642,23.2102988 52.55,22.97 C52.9381234,22.6027005 53.4693786,22.4268367 54,22.49 L54,18.31 L41.94,18.31 L41.94,22.49 C42.4706214,22.4268367 43.0018766,22.6027005 43.39,22.97 C43.5796358,23.2102988 43.8688869,23.3505042 44.175,23.3505042 C44.4811131,23.3505042 44.7703642,23.2102988 44.96,22.97 C45.2087716,22.7121241 45.5516883,22.5664606 45.91,22.5664606 C46.2683117,22.5664606 46.6112284,22.7121241 46.86,22.97 C47.1408179,23.3151154 47.5401007,23.543277 47.98,23.61 L48,23.61 Z" id="Shape" fill="#EC5565" fill-rule="nonzero"></path>
                <path d="M48,26.82 C48.4750523,26.7256344 48.9312143,26.5533066 49.35,26.31 C49.8811511,26.0392615 50.5211937,26.1017047 50.99,26.47 C51.5510107,26.7758991 52.2289893,26.7758991 52.79,26.47 C53.1008949,26.1763967 53.5248779,26.0338507 53.95,26.08 C54.0034346,25.578552 54.0234787,25.0741068 54.01,24.57 L54.01,24.18 C53.56,24.08 53.34,24.18 52.85,24.63 C52.36,25.08 51.85,24.95 51.11,24.69 C50.37,24.43 49.76,23.89 49.11,24.69 C48.8322981,25.0084687 48.4411571,25.2058334 48.02,25.24 C47.5967229,25.2135081 47.2027881,25.0147337 46.93,24.69 C46.22,23.89 45.58,24.4 44.93,24.69 C44.28,24.98 43.64,25.04 43.16,24.63 C42.68,24.22 42.49,24.08 42,24.18 L42,24.57 C41.9992214,25.0750132 42.0326311,25.5794999 42.1,26.08 C42.5126764,26.0376415 42.9228875,26.1804828 43.22,26.47 C43.7810107,26.7758991 44.4589893,26.7758991 45.02,26.47 C45.47,26.28 46.02,25.89 46.69,26.31 C47.1062143,26.5586731 47.5633285,26.7313606 48.04,26.82 L48,26.82 Z" id="Shape" fill="#4658A9" fill-rule="nonzero"></path>
                <path d="M48,28.21 C48.5544732,28.1794499 49.0932384,28.0147318 49.57,27.73 C50.1263194,27.4331187 50.8039721,27.4837479 51.31,27.86 C51.8102505,28.139595 52.4197495,28.139595 52.92,27.86 C53.11,27.73 53.27,27.47 53.69,27.57 C53.5201254,28.306027 53.236734,29.0111317 52.85,29.66 C52.2982338,29.8407934 51.6971414,29.7940018 51.18,29.53 C50.5814735,29.1563516 49.8454353,29.0753874 49.18,29.31 C48.4472456,29.8220061 47.4727544,29.8220061 46.74,29.31 C46.0745647,29.0753874 45.3385265,29.1563516 44.74,29.53 C44.2228586,29.7940018 43.6217662,29.8407934 43.07,29.66 C42.683266,29.0111317 42.3998746,28.306027 42.23,27.57 C42.65,27.47 42.81,27.73 43,27.86 C43.48684,28.1363924 44.08316,28.1363924 44.57,27.86 C45.0879408,27.4854288 45.7728906,27.4351217 46.34,27.73 C46.8167616,28.0147318 47.3555268,28.1794499 47.91,28.21 L48,28.21 Z" id="Shape" fill="#4658A9" fill-rule="nonzero"></path>
                <path d="M48,33.35 C49.243416,32.8656997 50.4039504,32.1909704 51.44,31.35 C51.18,31.25 51.02,31.35 50.8,31.16 C50.3192006,30.9539197 49.7687072,30.9911152 49.32,31.26 C48.5037377,31.733663 47.4962623,31.733663 46.68,31.26 C46.2312928,30.9911152 45.6807994,30.9539197 45.2,31.16 C44.98,31.32 44.81,31.26 44.56,31.35 C45.5914262,32.1976458 46.7530703,32.8730203 48,33.35 Z" id="Shape" fill="#4658A9" fill-rule="nonzero"></path>
                <g id="lion" transform="translate(43.000000, 18.000000)">
                    <path d="M4.2,1.94 C4.2,2 4.2,2.15 4.2,2.21 C4.2,2.27 4.26,2.39 4.35,2.45 L4.56,2.45 C5.21,2.45 5.99,2.18 6.64,2.18 C7.29,2.18 7.64,2.39 8.01,2.39 C8.19729079,2.40344869 8.3649576,2.27447423 8.4,2.09 C8.4,1.94 8.16,1.85 7.66,1.85 C6.95,1.85 6.56,2.03 5.97,2.03 C5.08,2.03 4.97,1.7 4.97,1.55 C4.97,1.4 5.12,1.19 5.59,1.19 C5.70731968,1.20154116 5.82478394,1.16950545 5.92,1.1 C5.9893527,0.980881471 6.09425947,0.886465377 6.22,0.83 C6.43,0.71 6.84,0.83 7.05,0.68 C7.05,0.8 6.87,0.98 6.72,1.04 C7.02,0.95 7.34,0.95 7.4,1.19 C7.24586002,1.12875938 7.07413998,1.12875938 6.92,1.19 L6.62,1.28 C6.74,1.28 6.8,1.49 6.98,1.49 C6.74122127,1.62551734 6.44877873,1.62551734 6.21,1.49 C6.05609476,1.42868835 5.89465129,1.38832748 5.73,1.37 C5.43,1.37 5.25,1.43 5.25,1.55 C5.25,1.67 5.43,1.79 5.96,1.79 C6.49,1.79 6.79,1.64 7.59,1.64 C7.53,1.55 7.59,1.46 7.5,1.37 C7.78070148,1.3442135 8.0564997,1.45602359 8.24,1.67 C8.24,1.46 8.39,1.28 8.33,1.11 C8.50899702,1.15123338 8.64876662,1.29100298 8.69,1.47 C8.69,1.38 8.81,1.38 8.81,1.29 C8.98471276,1.38192242 9.08128972,1.57507634 9.05,1.77 C9.14,1.62 9.23,1.68 9.29,1.5 C9.35631003,1.71497119 9.28501697,1.948654 9.11,2.09 C9.30944585,1.95780386 9.57637355,1.99655143 9.73,2.18 C9.60332051,2.1690058 9.47660227,2.20068536 9.37,2.27 C8.93800854,2.49186142 8.45496957,2.59536977 7.97,2.57 C7.49,2.57 7.43,2.45 7.14,2.45 C7.32,2.45 7.68,2.84 8,2.84 C8.14934508,2.85982302 8.30065492,2.85982302 8.45,2.84 C8.57332673,2.81761317 8.70060018,2.83882541 8.81,2.9 C8.91109695,3.00570142 9.05412812,3.0607134 9.2,3.05 C9.18529813,3.1487546 9.11534426,3.23036745 9.02,3.26 C9.17,3.35 9.08,3.41 9.23,3.53 C9.17,3.53 9.11,3.59 9.02,3.53 C9.11,3.62 9.11,3.74 9.2,3.8 C9.29,3.86 9.08,3.8 9.02,3.8 C8.96,3.8 9.02,4.07 9.11,4.13 C9.2,4.19 9.02,4.4 8.87,4.28 C8.88308314,4.32248933 8.87160308,4.36873001 8.84016654,4.40016654 C8.80873001,4.43160308 8.76248933,4.44308314 8.72,4.43 C8.63,4.43 8.57,4.31 8.6,4.28 C8.63,4.25 8.6,4.28 8.6,4.22 C8.5457612,4.29647547 8.44384622,4.32195422 8.36,4.28 C8.36,4.28 8.3,4.22 8.3,4.19 C8.23468893,4.22228058 8.15667065,4.21437387 8.09916391,4.1696464 C8.04165717,4.12491893 8.01478924,4.05124749 8.03,3.98 C8.03,3.89 8.24,3.86 8.3,3.89 C8.36,3.92 8.42,3.95 8.48,3.89 C8.53709647,3.86227713 8.57240757,3.8034253 8.57,3.74 C8.57,3.65 8.48,3.38 8.09,3.41 C7.57546861,3.41992605 7.0625656,3.34906445 6.57,3.2 L6.48,3.14 C6.48,3.26 6.36,3.32 6.36,3.44 C6.34612245,3.59456653 6.44867714,3.73557923 6.6,3.77 C6.57045504,3.82539679 6.51278303,3.86 6.45,3.86 C6.38721697,3.86 6.32954496,3.82539679 6.3,3.77 C6.3,3.86 6.18,3.92 6.18,4.04 L6.09,3.89 C6,4.1 5.76,4.22 5.64,4.16 C5.59255081,4.21914282 5.52082413,4.25355512 5.445,4.25355512 C5.36917587,4.25355512 5.29744919,4.21914282 5.25,4.16 C5.17058177,4.22172063 5.05941823,4.22172063 4.98,4.16 C4.98,4.25 4.92,4.22 4.89,4.34 C4.86,4.46 4.77,4.43 4.71,4.4 C4.67986494,4.37342337 4.6626013,4.33518008 4.6626013,4.295 C4.6626013,4.25481992 4.67986494,4.21657663 4.71,4.19 C4.64167184,4.25111456 4.53832816,4.25111456 4.47,4.19 C4.47,4.13 4.47,4.04 4.53,4.01 L4.59,4.01 C4.53,4.01 4.44,4.01 4.38,4.01 C4.3363174,3.9579507 4.3363174,3.8820493 4.38,3.83 C4.38,3.83 4.5,3.74 4.56,3.83 C4.56,3.77 4.56,3.71 4.62,3.71 C4.70425777,3.6721897 4.80344799,3.69698726 4.86,3.77 C4.92,3.86 4.98,3.86 5.16,3.83 C5.37094662,3.78406003 5.56488728,3.68016325 5.72,3.53 C5.21,3.44 5.51,3.11 5.66,2.99 C5.52361844,2.94498527 5.37638156,2.94498527 5.24,2.99 C4.62,3.32 3.96,3.7 3.55,3.58 C3.55600814,3.6437912 3.57653179,3.70536215 3.61,3.76 C3.52,3.76 3.34,3.76 3.28,3.67 C3.23116876,3.7745807 3.23116876,3.8954193 3.28,4 C3.17905203,3.93209476 3.06753823,3.88140667 2.95,3.85 C3.01,3.91 2.95,4.03 2.95,4.12 C2.86,4.03 2.71,3.97 2.65,4.03 C2.57594884,4.09439479 2.47435473,4.11697126 2.38,4.09 C2.3223628,4.17513407 2.23786712,4.23850583 2.14,4.27 C2.14,4.21 2.14,4.12 2.14,4.09 C2.09562194,4.2062677 2.01026291,4.30229661 1.9,4.36 C1.91456781,4.29075793 1.91456781,4.21924207 1.9,4.15 C1.9,4.27 1.66,4.33 1.63,4.42 C1.6430594,4.34053296 1.6430594,4.25946704 1.63,4.18 C1.56337323,4.28850264 1.45475393,4.36453615 1.33,4.39 C1.35852572,4.33339049 1.35852572,4.26660951 1.33,4.21 C1.33,4.33 1.12,4.39 0.97,4.36 C0.82,4.33 0.85,4.51 0.7,4.42 C0.55,4.33 0.55,4.3 0.61,4.24 C0.49,4.24 0.37,4.12 0.43,4.03 C0.49,3.94 0.43,3.97 0.43,3.94 C0.387970264,3.90783328 0.363319892,3.85792633 0.363319892,3.805 C0.363319892,3.75207367 0.387970264,3.70216672 0.43,3.67 C0.43,3.67 0.55,3.67 0.61,3.67 C0.61,3.43 0.82,3.43 0.91,3.61 C0.995520728,3.74210219 1.14263722,3.82131876 1.3,3.82 C1.36,3.82 1.39,3.82 1.45,3.82 C1.71645248,3.7316193 1.96648235,3.5998468 2.19,3.43 C2.20277798,3.36058313 2.20277798,3.28941687 2.19,3.22 C2.07437835,3.26450167 1.97138885,3.33659433 1.89,3.43 L1.89,3.34 L1.59,3.34 C1.59,3.34 1.65,3.16 1.71,3.13 C1.5715785,3.15973149 1.4284215,3.15973149 1.29,3.13 C1.35,3.07 1.35,2.98 1.38,2.89 C1.41,2.8 1.17,2.89 1.05,2.89 C0.93,2.89 1.11,2.68 1.2,2.65 C1.05715692,2.67327394 0.910612651,2.65233904 0.78,2.59 C0.9,2.59 0.96,2.44 1.05,2.44 C0.81,2.44 0.75,2.32 0.63,2.26 C0.72,2.26 0.78,2.2 0.87,2.2 C0.78,2.2 0.63,2.02 0.69,1.93 C0.75,1.84 0.63,2.02 0.57,2.05 C0.47021099,2.07372001 0.365599205,2.03884941 0.3,1.96 C0.265152917,1.90993428 0.255058973,1.84670266 0.272586947,1.78827608 C0.290114921,1.7298495 0.333348371,1.6826161 0.39,1.66 C0.334555788,1.65692229 0.286171118,1.62136644 0.266673385,1.56937248 C0.247175652,1.51737853 0.260250666,1.45877529 0.3,1.42 C0.3,1.36 0.45,1.27 0.51,1.36 L0.6,1.48 C0.583442147,1.39076156 0.583442147,1.29923844 0.6,1.21 C0.6,1.12 0.69,1.12 0.78,1.09 C0.869966976,1.10046107 0.935933978,1.17962147 0.93,1.27 C0.938560378,1.36216597 0.958719697,1.4528829 0.99,1.54 C0.99,1.54 0.99,1.45 0.99,1.42 C0.99,1.39 1.14,1.33 1.23,1.36 C1.32,1.39 1.35,1.57 1.23,1.66 C1.17282857,1.71832653 1.17282857,1.81167347 1.23,1.87 C1.41924502,2.18610425 1.73029057,2.41034639 2.09,2.49 C2.09494615,2.36462266 2.14878988,2.24616644 2.24,2.16 C2.24576078,2.08669292 2.26616296,2.01528529 2.3,1.95 C2.3,1.77 2.42,1.68 2.54,1.74 C2.66,1.8 2.48,1.68 2.48,1.65 C2.48,1.62 2.3,1.41 2.36,1.29 C2.42,1.17 2.6,1.2 2.66,1.29 C2.66,1.11 2.84,0.96 2.84,0.87 C2.84,0.96 2.93,1.08 2.9,1.17 C2.9,1.05 3.14,0.9 3.29,0.84 C3.23,0.93 3.41,1.08 3.38,1.17 C3.48611015,1.01053042 3.66875825,0.919206373 3.86,0.93 C3.81227755,1.00040071 3.7910217,1.08542411 3.8,1.17 C3.9128727,1.17662365 4.02283263,1.13263968 4.1,1.05 C4.09851838,1.16140735 4.05575976,1.2683039 3.98,1.35 C4.05886098,1.33090847 4.14113902,1.33090847 4.22,1.35 C4.13,1.44 4.16,1.53 4.07,1.59 C4.19,1.53 4.34,1.53 4.37,1.65 C4.4,1.77 4.37,1.89 4.28,1.98 C4.19,2.07 4.16,2.07 4.13,2.07 L4.2,1.94 Z" id="Shape" stroke="#F2D660" stroke-width="0.09" fill="#F2D660" fill-rule="nonzero" stroke-linecap="round" stroke-linejoin="round"></path>
                    <path d="M2.36,2.3 C2.19759774,2.38282333 2.08567539,2.53951462 2.06,2.72" id="Shape" stroke="#F2D660" stroke-width="0.09" stroke-linecap="round" stroke-linejoin="round"></path>
                    <path d="M2.33,2.5 C2.03,2.68 1.91,2.83 1.97,3.15" id="Shape" stroke="#F2D660" stroke-width="0.09" stroke-linecap="round" stroke-linejoin="round"></path>
                    <path d="M2.48,3.4 C2.68197304,3.34608065 2.84792123,3.20225889 2.93,3.01" id="Shape" stroke="#F2D660" stroke-width="0.09" stroke-linecap="round" stroke-linejoin="round"></path>
                    <path d="M2.83,3.13 C2.77,3.25 2.83,3.46 2.74,3.55 C2.90240226,3.46717667 3.01432461,3.31048538 3.04,3.13" id="Shape" stroke="#F2D660" stroke-width="0.09" stroke-linecap="round" stroke-linejoin="round"></path>
                    <path d="M2.89,3.46 C3.06268112,3.35308493 3.19871387,3.19612406 3.28,3.01 C3.28,3.1 3.28,3.25 3.22,3.34 C3.34206357,3.24111111 3.4267287,3.10353028 3.46,2.95 C3.46,2.95 3.46,3.04 3.46,3.07 C3.53434444,3.01235256 3.57848871,2.92406402 3.58,2.83" id="Shape" stroke="#F2D660" stroke-width="0.09" stroke-linecap="round" stroke-linejoin="round"></path>
                    <path d="M3.61,2.92 L3.61,3.07 C3.71907575,2.98415432 3.77584931,2.84789779 3.76,2.71" id="Shape" stroke="#F2D660" stroke-width="0.09" stroke-linecap="round" stroke-linejoin="round"></path>
                    <path d="M3.73,2.89 C3.91,2.77 3.94,2.59 3.94,2.33" id="Shape" stroke="#F2D660" stroke-width="0.09" stroke-linecap="round" stroke-linejoin="round"></path>
                    <path d="M3.93,2.62 C4.05,2.53 4.08,2.47 4.08,2.2" id="Shape" stroke="#F2D660" stroke-width="0.09" stroke-linecap="round" stroke-linejoin="round"></path>
                    <path d="M3.7,1.4 C3.66731317,1.39686482 3.63493488,1.40849658 3.61171573,1.43171573 C3.58849658,1.45493488 3.57686482,1.48731317 3.58,1.52 C3.58,1.58 3.49,1.67 3.49,1.76 C3.49,1.85 3.4,1.91 3.31,1.88 C3.22,1.85 3.22,1.82 3.22,1.73 C3.22,1.64 3.37,1.58 3.37,1.46 C3.37,1.34 3.43,1.31 3.46,1.31 C3.39160162,1.35906172 3.30310551,1.37040941 3.22454137,1.34019243 C3.14597723,1.30997546 3.08789352,1.24225091 3.07,1.16" id="Shape" stroke="#F2D660" stroke-width="0.09" stroke-linecap="round" stroke-linejoin="round"></path>
                    <path d="M4,1.49 C3.94,1.49 3.88,1.43 3.79,1.49 C3.7,1.55 3.67,1.49 3.64,1.49" id="Shape" stroke="#F2D660" stroke-width="0.09" stroke-linecap="round" stroke-linejoin="round"></path>
                    <path d="M3.55,1.64 C3.65352272,1.69338542 3.77647728,1.69338542 3.88,1.64 C3.82201012,1.66485275 3.75485289,1.63798982 3.73000009,1.57999996 C3.70514729,1.5220101 3.73201016,1.45485285 3.79,1.43" id="Shape" stroke="#F2D660" stroke-width="0.09" stroke-linecap="round" stroke-linejoin="round"></path>
                    <path d="M3.28,1.35 C3.16,1.35 3.07,1.44 3.1,1.53 C3.13,1.62 3.25,1.62 3.34,1.53" id="Shape" stroke="#F2D660" stroke-width="0.09" stroke-linecap="round" stroke-linejoin="round"></path>
                    <path d="M3.07,2.83 C3.08502492,2.72586523 3.17479242,2.64892166 3.28,2.65 C3.39003891,2.64685814 3.48617292,2.57475763 3.52,2.47 C3.58,2.47 3.61,2.32 3.64,2.26 C3.67,2.2 3.73,2.26 3.76,2.14 C3.79558261,2.15595529 3.8364483,2.15509446 3.87132744,2.13765489 C3.90620659,2.12021531 3.93141467,2.08803926 3.94,2.05" id="Shape" stroke="#F2D660" stroke-width="0.09" stroke-linecap="round" stroke-linejoin="round"></path>
                    <path d="M2.71,1.85 C2.71,1.85 2.65,1.94 2.59,1.97 C2.61838975,2.05486027 2.59498402,2.14848318 2.53,2.21 C2.55952667,2.27688634 2.55952667,2.35311366 2.53,2.42 C2.53,2.42 2.53,2.54 2.53,2.57" id="Shape" stroke="#F2D660" stroke-width="0.09" stroke-linecap="round" stroke-linejoin="round"></path>
                    <path d="M2.83,1.26 C2.77,1.41 2.83,1.59 2.92,1.62" id="Shape" stroke="#F2D660" stroke-width="0.09" stroke-linecap="round" stroke-linejoin="round"></path>
                    <path d="M2.89,1.73 C2.89,1.88 2.89,2.09 2.83,2.18 C2.79267211,2.24205651 2.78827492,2.31850856 2.81824175,2.38443557 C2.84820857,2.45036258 2.90870073,2.49731947 2.98,2.51 C3.25,2.57 3.4,2.51 3.54,2.09" id="Shape" stroke="#F2D660" stroke-width="0.09" stroke-linecap="round" stroke-linejoin="round"></path>
                    <path d="M4,3.25 C4,3.29970563 3.95970563,3.34 3.91,3.34" id="Shape" stroke="#F2D660" stroke-width="0.09" stroke-linecap="round" stroke-linejoin="round"></path>
                    <path d="M4.2,3.19 C4.18885119,3.25770724 4.15747651,3.32045661 4.11,3.37" id="Shape" stroke="#F2D660" stroke-width="0.09" stroke-linecap="round" stroke-linejoin="round"></path>
                    <path d="M4.41,3.13 C4.41,3.19 4.41,3.28 4.35,3.31" id="Shape" stroke="#F2D660" stroke-width="0.09" stroke-linecap="round" stroke-linejoin="round"></path>
                    <path d="M2.6,1.29 C2.6,1.29 2.66,1.35 2.69,1.41 C2.72,1.47 2.51,1.5 2.57,1.59" id="Shape" stroke="#F2D660" stroke-width="0.09" stroke-linecap="round" stroke-linejoin="round"></path>
                    <path d="M2.51,1.79 L2.39,1.88" id="Shape" stroke="#F2D660" stroke-width="0.09" stroke-linecap="round" stroke-linejoin="round"></path>
                    <path d="M2.42,2.06 L2.33,2.06" id="Shape" stroke="#F2D660" stroke-width="0.09" stroke-linecap="round" stroke-linejoin="round"></path>
                    <path d="M1,1.52 C1,1.52 1,1.52 1,1.46" id="Shape" stroke="#F2D660" stroke-width="0.09" stroke-linecap="round" stroke-linejoin="round"></path>
                    <path d="M0.72,1.43 C0.72,1.43 0.72,1.43 0.66,1.43" id="Shape" stroke="#F2D660" stroke-width="0.09" stroke-linecap="round" stroke-linejoin="round"></path>
                    <path d="M0.75,1.85 L0.81,1.85" id="Shape" stroke="#F2D660" stroke-width="0.09" stroke-linecap="round" stroke-linejoin="round"></path>
                    <path d="M0.63,1.67 C0.580834166,1.6219904 0.517907182,1.59052691 0.45,1.58" id="Shape" stroke="#F2D660" stroke-width="0.09" stroke-linecap="round" stroke-linejoin="round"></path>
                    <path d="M2.27,2.77 C2.0913251,2.89780348 1.97222286,3.09269806 1.94,3.31" id="Shape" stroke="#F2D660" stroke-width="0.09" stroke-linecap="round" stroke-linejoin="round"></path>
                    <path d="M2.48,2.92 C2.42500096,3.02944814 2.34224516,3.12254842 2.24,3.19" id="Shape" stroke="#F2D660" stroke-width="0.09" stroke-linecap="round" stroke-linejoin="round"></path>
                    <path d="M1.32,3.81 C1.11997211,3.87251949 0.9022906,3.83931384 0.73,3.72 L0.64,3.66" id="Shape" stroke="#F2D660" stroke-width="0.09" stroke-linecap="round" stroke-linejoin="round"></path>
                    <path d="M2.21,3.4 C2.21,3.52 2.15,3.67 2.09,3.7 C2.33592541,3.60868497 2.51737138,3.396998 2.57,3.14" id="Shape" stroke="#F2D660" stroke-width="0.09" stroke-linecap="round" stroke-linejoin="round"></path>
                    <path d="M0.49,4 C0.58,4 0.67,4 0.73,4" id="Shape" stroke="#F2D660" stroke-width="0.09" stroke-linecap="round" stroke-linejoin="round"></path>
                    <path d="M5.66,3 C5.72287372,3.02387093 5.78317902,3.05402358 5.84,3.09 C5.89968982,3.00684864 5.98346154,2.94401984 6.08,2.91" id="Shape" stroke="#F2D660" stroke-width="0.09" stroke-linecap="round" stroke-linejoin="round"></path>
                    <path d="M3.55,3.6 C3.5188279,3.45123471 3.61203385,3.30476822 3.76,3.27" id="Shape" stroke="#F2D660" stroke-width="0.09" stroke-linecap="round" stroke-linejoin="round"></path>
                    <path d="M2.39,4.11 C2.39,4.05 2.39,3.96 2.45,3.9" id="Shape" stroke="#F2D660" stroke-width="0.09" stroke-linecap="round" stroke-linejoin="round"></path>
                    <path d="M1.08,4.2 C1.08,4.26 0.99,4.32 0.99,4.38" id="Shape" stroke="#F2D660" stroke-width="0.09" stroke-linecap="round" stroke-linejoin="round"></path>
                    <path d="M0.63,4.26 C0.702454774,4.2271882 0.764660485,4.17535011 0.81,4.11" id="Shape" stroke="#F2D660" stroke-width="0.09" stroke-linecap="round" stroke-linejoin="round"></path>
                    <path d="M4.68,3.84 C4.62,3.84 4.59,3.84 4.56,3.84" id="Shape" stroke="#F2D660" stroke-width="0.09" stroke-linecap="round" stroke-linejoin="round"></path>
                    <path d="M4.65,4 C4.63047147,4.00614144 4.60952853,4.00614144 4.59,4" id="Shape" stroke="#F2D660" stroke-width="0.09" stroke-linecap="round" stroke-linejoin="round"></path>
                    <path d="M4.8,4.14 C4.8,4.14 4.74,4.2 4.71,4.2" id="Shape" stroke="#F2D660" stroke-width="0.09" stroke-linecap="round" stroke-linejoin="round"></path>
                    <path d="M5.66,4.2 C5.72,4.2 5.75,4.11 5.78,3.99" id="Shape" stroke="#F2D660" stroke-width="0.09" stroke-linecap="round" stroke-linejoin="round"></path>
                    <path d="M5.27,4.17 C5.36352878,4.13055133 5.44594122,4.068742 5.51,3.99" id="Shape" stroke="#F2D660" stroke-width="0.09" stroke-linecap="round" stroke-linejoin="round"></path>
                    <path d="M6.1,3.93 C6.0855844,3.87086587 6.0855844,3.80913413 6.1,3.75" id="Shape" stroke="#F2D660" stroke-width="0.09" stroke-linecap="round" stroke-linejoin="round"></path>
                    <path d="M8.3,4.2 C8.26647226,4.17552521 8.24664855,4.13651054 8.24664855,4.095 C8.24664855,4.05348946 8.26647226,4.01447479 8.3,3.99 L8.45,3.9" id="Shape" stroke="#F2D660" stroke-width="0.09" stroke-linecap="round" stroke-linejoin="round"></path>
                    <path d="M6.49,3.16 C6.01,2.95 6.04,2.68 5.66,2.71" id="Shape" stroke="#F2D660" stroke-width="0.09" stroke-linecap="round" stroke-linejoin="round"></path>
                    <path d="M8.6,4.08 C8.6,4.08 8.6,4.2 8.6,4.23" id="Shape" stroke="#F2D660" stroke-width="0.09" stroke-linecap="round" stroke-linejoin="round"></path>
                    <path d="M8.87,4.08 C8.85543219,4.14924207 8.85543219,4.22075793 8.87,4.29" id="Shape" stroke="#F2D660" stroke-width="0.09" stroke-linecap="round" stroke-linejoin="round"></path>
                    <path d="M6.58,1.29 L6.34,1.29" id="Shape" stroke="#F2D660" stroke-width="0.09" stroke-linecap="round" stroke-linejoin="round"></path>
                    <path d="M4.08,2.3 C4.08,2.36 4.17,2.48 4.41,2.48 C4.39047147,2.48614144 4.36952853,2.48614144 4.35,2.48" id="Shape" stroke="#F2D660" stroke-width="0.09" stroke-linecap="round" stroke-linejoin="round"></path>
                    <path d="M4.2,1.94 C4.14,1.88 4.2,1.76 4.32,1.7 C4.25058313,1.71277798 4.17941687,1.71277798 4.11,1.7 C4.05,1.88 3.87,1.97 3.75,1.85 C3.75,1.97 3.57,2.12 3.45,2.09 C3.35069167,2.05674432 3.29701954,1.94940007 3.33,1.85 C3.28255081,1.90914282 3.21082413,1.94355512 3.135,1.94355512 C3.05917587,1.94355512 2.98744919,1.90914282 2.94,1.85 C2.92218776,1.71693609 2.94301536,1.5815567 3,1.46" id="Shape" stroke="#F2D660" stroke-width="0.09" stroke-linecap="round" stroke-linejoin="round"></path>
                    <path d="M6.1,3.07 C6.01,3.13 5.92,3.07 5.83,3.16 C5.74,3.25 5.83,3.25 5.92,3.25 C6.01,3.25 5.92,3.37 6.04,3.37 C5.98,3.46 6.16,3.49 6.13,3.61 C6.20769355,3.53073142 6.23122921,3.41305314 6.19,3.31 C6.19,3.22 6.01,3.16 6.1,3.07 Z" id="Shape" fill="#F2D660" fill-rule="nonzero"></path>
                    <path d="M0.46,1.4 C0.498197899,1.37886574 0.52190525,1.33865474 0.52190525,1.295 C0.52190525,1.25134526 0.498197899,1.21113426 0.46,1.19 C0.320130221,1.15615759 0.174458076,1.21685432 0.1,1.34 C0.19,1.34 0.28,1.34 0.31,1.34 C0.34,1.34 0.4,1.46 0.49,1.34 L0.46,1.4 Z" id="Shape" fill="#F2D660" fill-rule="nonzero"></path>
                    <path d="M0.6,0.87 C0.81,0.87 0.87,0.87 0.9,0.99 C0.912688445,1.02187856 0.909775133,1.05785201 0.892122309,1.08727339 C0.874469486,1.11669476 0.844099176,1.13619401 0.81,1.14 C0.72,1.14 0.63,1.08 0.66,1.05 C0.680648694,1.01915978 0.685864937,0.980500494 0.674128296,0.945290568 C0.662391654,0.910080643 0.635023086,0.882282958 0.6,0.87 Z" id="Shape" fill="#F2D660" fill-rule="nonzero"></path>
                    <path d="M1.2,1.35 C1.35,1.35 1.41,1.29 1.32,1.17 C1.23,1.05 1.2,1.02 1.05,1.05 C1.2,1.14 1.05,1.29 1.2,1.35 Z" id="Shape" fill="#F2D660" fill-rule="nonzero"></path>
                    <path d="M0.1,1.85 C0.15406715,1.96140489 0.284016967,2.01338482 0.4,1.97 C0.438039262,1.96141467 0.470215314,1.93620659 0.487654886,1.90132744 C0.505094458,1.8664483 0.505955294,1.82558261 0.49,1.79 C0.43,1.7 0.34,1.67 0.31,1.79 C0.297160181,1.83222599 0.263773479,1.86505348 0.221336655,1.87717829 C0.17889983,1.8893031 0.133209802,1.87906895 0.1,1.85 Z" id="Shape" fill="#F2D660" fill-rule="nonzero"></path>
                    <path d="M0.54,3.66 C0.48,3.54 0.3,3.54 0.15,3.66 C0.22552299,3.63039658 0.311516251,3.65496608 0.36,3.72 C0.384039399,3.76258117 0.431511426,3.78631718 0.48,3.78 C0.48,3.78 0.57,3.72 0.54,3.66 Z" id="Shape" fill="#F2D660" fill-rule="nonzero"></path>
                    <path d="M0.78,3.49 C0.78,3.34 0.57,3.31 0.45,3.37 C0.51,3.37 0.6,3.43 0.6,3.49 C0.622588421,3.53805308 0.667544284,3.57176998 0.72,3.58 C0.78,3.54 0.81,3.52 0.78,3.49 Z" id="Shape" fill="#F2D660" fill-rule="nonzero"></path>
                    <path d="M0.49,4 C0.31,4 0.22,4.18 0.22,4.33 C0.231691305,4.28608602 0.260477961,4.248681 0.299934084,4.22613465 C0.339390207,4.20358829 0.386230836,4.19777772 0.43,4.21 C0.52,4.21 0.55,4.21 0.55,4.12 C0.55,4.03 0.55,4.03 0.49,4 Z" id="Shape" fill="#F2D660" fill-rule="nonzero"></path>
                    <path d="M0.51,4.53 C0.57,4.53 0.63,4.53 0.66,4.41 C0.69,4.29 0.78,4.35 0.81,4.41 C0.84,4.47 0.87,4.56 0.81,4.62 C0.75,4.68 0.6,4.68 0.54,4.56 L0.51,4.53 Z" id="Shape" fill="#F2D660" fill-rule="nonzero"></path>
                    <path d="M4.65,3.63 C4.5484825,3.56890746 4.4215175,3.56890746 4.32,3.63 C4.35578493,3.61740854 4.39514772,3.61987809 4.42907831,3.63684339 C4.46300889,3.65380868 4.48860221,3.68381718 4.5,3.72 C4.5,3.75313708 4.52686292,3.78 4.56,3.78 C4.59313708,3.78 4.62,3.75313708 4.62,3.72 C4.62,3.72 4.68,3.66 4.65,3.63 Z" id="Shape" fill="#F2D660" fill-rule="nonzero"></path>
                    <path d="M4.38,3.84 C4.26,3.78 4.11,3.93 4.08,4.05 C4.14085413,4.0020323 4.2132964,3.97098561 4.29,3.96 C4.35,3.96 4.41,3.96 4.41,3.9 C4.41,3.84 4.44,3.84 4.38,3.84 Z" id="Shape" fill="#F2D660" fill-rule="nonzero"></path>
                    <path d="M4.53,4.08 C4.41339591,4.1026385 4.32695974,4.20142269 4.32,4.32 C4.33096636,4.29135257 4.35339653,4.26858542 4.38187725,4.25719313 C4.41035798,4.24580084 4.442302,4.24681832 4.47,4.26 C4.53,4.26 4.62,4.26 4.62,4.17 C4.62334657,4.14525492 4.61494697,4.12036643 4.59729027,4.10270973 C4.57963357,4.08505303 4.55474508,4.07665343 4.53,4.08 Z" id="Shape" fill="#F2D660" fill-rule="nonzero"></path>
                    <path d="M4.8,4.32 C4.76853014,4.30180232 4.72966358,4.30211599 4.69849153,4.32081922 C4.66731948,4.33952245 4.64875257,4.37366887 4.65,4.41 C4.65,4.5 4.65,4.59 4.65,4.62 C4.70250395,4.56976048 4.76343123,4.52914229 4.83,4.5 C4.87825558,4.4497025 4.87825558,4.3702975 4.83,4.32 L4.8,4.32 Z" id="Shape" fill="#F2D660" fill-rule="nonzero"></path>
                    <path d="M8.15,4.05 C8.12940296,4.0206899 8.09582345,4.00324555 8.06,4.00324555 C8.02417655,4.00324555 7.99059704,4.0206899 7.97,4.05 C7.92377758,4.15514429 7.92377758,4.27485571 7.97,4.38 C7.97,4.32 8.03,4.23 8.09,4.23 C8.13222599,4.21716018 8.16505348,4.18377348 8.17717829,4.14133665 C8.1893031,4.09889983 8.17906895,4.0532098 8.15,4.02 L8.15,4.05 Z" id="Shape" fill="#F2D660" fill-rule="nonzero"></path>
                    <path d="M8.33,4.17 C8.21,4.23 8.21,4.44 8.33,4.56 C8.327425,4.48859623 8.36133199,4.42078226 8.42,4.38 C8.51,4.38 8.54,4.26 8.51,4.2 C8.46358984,4.17320508 8.40641016,4.17320508 8.36,4.2 L8.33,4.17 Z" id="Shape" fill="#F2D660" fill-rule="nonzero"></path>
                    <path d="M8.69,4.29 C8.63,4.29 8.57,4.29 8.57,4.38 C8.5500067,4.486192 8.5977795,4.5936808 8.69,4.65 C8.69120399,4.59438973 8.71251994,4.54109985 8.75,4.5 C8.84,4.44 8.81,4.32 8.69,4.29 Z" id="Shape" fill="#F2D660" fill-rule="nonzero"></path>
                    <path d="M9,4.26 C8.96182969,4.26809487 8.93080425,4.29580488 8.91846529,4.33282176 C8.90612633,4.36983864 8.91432068,4.41062192 8.94,4.44 C8.94,4.5 9.03,4.53 9.15,4.5 C9.27,4.47 9.06,4.41 9.09,4.38 C9.12,4.35 9,4.26 9,4.26 Z" id="Shape" fill="#F2D660" fill-rule="nonzero"></path>
                </g>
                <polygon id="Shape" stroke="#51C161" stroke-width="0.41" fill="#51C161" fill-rule="nonzero" stroke-linecap="round" stroke-linejoin="round" points="43.8 27.75 46.8 25.55 43.1 25.55 46.1 27.75 44.97 24.22"></polygon>
                <polygon id="Shape" stroke="#51C161" stroke-width="0.41" fill="#51C161" fill-rule="nonzero" stroke-linecap="round" stroke-linejoin="round" points="49.84 27.75 52.84 25.55 49.14 25.55 52.14 27.75 51.01 24.22"></polygon>
                <polygon id="Shape" stroke="#51C161" stroke-width="0.41" fill="#51C161" fill-rule="nonzero" stroke-linecap="round" stroke-linejoin="round" points="46.82 31.26 49.82 29.06 46.12 29.06 49.12 31.26 47.99 27.73"></polygon>
                <path d="M55.79,31 C55.678381,30.9391286 55.5462213,30.9283138 55.4261911,30.9702291 C55.306161,31.0121444 55.2094625,31.1028779 55.16,31.22 C53.8821535,34.049917 51.0650478,35.8688464 47.96,35.8688464 C44.8549522,35.8688464 42.0378465,34.049917 40.76,31.22 C40.7105375,31.1028779 40.613839,31.0121444 40.4938089,30.9702291 C40.3737787,30.9283138 40.241619,30.9391286 40.13,31 L39.43,31.39 C39.2214489,31.5008844 39.1341197,31.7541392 39.23,31.97 C40.8010299,35.3728107 44.2070332,37.5517901 47.955,37.5517901 C51.7029668,37.5517901 55.1089701,35.3728107 56.68,31.97 C56.7758803,31.7541392 56.6885511,31.5008844 56.48,31.39 L55.79,31 Z" id="Shape" fill="#F6D660" fill-rule="nonzero"></path>
                <path d="M25.6,0.41 L7.2,0.41 C6.45267255,0.418944054 5.71223659,0.554183499 5.01,0.81 L1.38,3.99 C0.887016146,4.93464008 0.629707615,5.98445888 0.63,7.05 L0.629999751,24.38 L25.63,24.38 L25.6,0.41 Z" id="Shape" fill="#4658A9" fill-rule="nonzero"></path>
                <path d="M11.16,17.81 L11.16,24.37 L15.06,24.37 L15.06,17.66 L21.77,24.37 L25.59,24.37 L25.59,21.37 L18.59,14.37 L25.59,14.37 L25.59,10.37 L18.59,10.37 L25.59,3.37 L25.59,0.37 L21.76,0.37 L15.06,7.07 L15.06,0.37 L11.16,0.37 L11.16,7 L5,0.84 C3.43670719,1.40647757 2.14185751,2.53724162 1.37,4.01 L7.78,10.42 L0.62,10.42 L0.62,14.42 L7.78,14.42 L0.62,21.58 L0.62,24.41 L4.62,24.41 L11.16,17.81 Z" id="Shape" fill="#FFFFFF" fill-rule="nonzero"></path>
                <path d="M12.16,15.07 L12.16,24.38 L14.06,24.38 L14.06,14.93 L23.51,24.38 L25.59,24.38 L25.59,23.15 L15.81,13.37 L25.59,13.37 L25.59,11.42 L15.81,11.42 L25.59,1.64 L25.59,0.41 L23.5,0.41 L14.05,9.86 L14.05,0.41 L12.15,0.41 L12.15,9.71 L3.82,1.37 C3.1463927,1.77866358 2.55051707,2.30344041 2.06,2.92 L10.55,11.41 L0.62,11.41 L0.62,13.36 L10.55,13.36 L0.62,23.29 L0.62,24.38 L2.85,24.38 L12.16,15.07 Z" id="Shape" fill="#EC5463" fill-rule="nonzero"></path>
            </g>
        </g>
    </g>
</svg>