<?xml version="1.0" encoding="UTF-8"?>
<svg width="71px" height="48px" viewBox="0 0 71 48" version="1.1" xmlns="http://www.w3.org/2000/svg" xmlns:xlink="http://www.w3.org/1999/xlink">
    <!-- Generator: Sketch 48.1 (47250) - http://www.bohemiancoding.com/sketch -->
    <title>Chile@2x</title>
    <desc>Created with Sketch.</desc>
    <defs></defs>
    <g id="Flags" stroke="none" stroke-width="1" fill="none" fill-rule="evenodd" transform="translate(-408.000000, -437.000000)">
        <g transform="translate(70.000000, 70.000000)" fill-rule="nonzero" id="Chile">
            <g transform="translate(338.000000, 367.000000)">
                <path d="M0.77,21.7 L0.77,41.34 C0.77,44.852531 3.61746899,47.7 7.13,47.7 L64.4,47.7 C67.912531,47.7 70.76,44.852531 70.76,41.34 L70.76,21.7 L0.76,21.7 L0.77,21.7 Z" id="Shape" fill="#ED5565"></path>
                <path d="M64.4,0.7 L27.77,0.699992127 L27.77,21.6999921 L70.77,21.6999921 L70.77,7.05999762 C70.7700021,5.37148733 70.09856,3.75227974 68.903665,2.55926095 C67.7087699,1.36624215 66.0885088,0.69734511 64.4,0.7 Z" id="Shape" fill="#FFFFFF"></path>
                <path d="M27.77,0.7 L7.13,0.7 C3.61746899,0.7 0.77,3.54746899 0.77,7.06 L0.77,21.7 L27.77,21.7 L27.77,0.7 Z" id="Shape" fill="#4758A9"></path>
                <path d="M11.91,15.55 C11.5,15.84 11.26,15.68 11.38,15.18 L11.83,13.34 C11.9306163,12.7912102 11.7505249,12.2284246 11.35,11.84 L10,10.68 C9.62,10.35 9.72,10.07 10.22,10.05 L12.1,10 C12.6402824,9.96088008 13.1048614,9.60260307 13.28,9.09 L13.87,7.09 C14.01,6.6 14.27,6.59 14.44,7.09 L15.15,9.09 C15.3586484,9.59388255 15.8357374,9.93521455 16.38,9.97 L18.3,9.97 C18.8,9.97 18.91,10.25 18.53,10.59 L17.07,11.87 C16.6707036,12.2584047 16.503785,12.8274453 16.63,13.37 L17.1,14.99 C17.24,15.48 17,15.66 16.57,15.39 L15.01,14.39 C14.5377487,14.1124982 13.9522513,14.1124982 13.48,14.39 L11.91,15.55 Z" id="Shape_2_copy_8-2" fill="#FFFFFF"></path>
            </g>
        </g>
    </g>
</svg>