<?xml version="1.0" encoding="UTF-8"?>
<svg width="71px" height="47px" viewBox="0 0 71 47" version="1.1" xmlns="http://www.w3.org/2000/svg" xmlns:xlink="http://www.w3.org/1999/xlink">
    <!-- Generator: Sketch 48.1 (47250) - http://www.bohemiancoding.com/sketch -->
    <title>Comoros@2x</title>
    <desc>Created with Sketch.</desc>
    <defs></defs>
    <g id="Flags" stroke="none" stroke-width="1" fill="none" fill-rule="evenodd" transform="translate(-239.000000, -499.000000)">
        <g transform="translate(70.000000, 70.000000)" fill-rule="nonzero" id="Comoros">
            <g transform="translate(169.000000, 429.000000)">
                <path d="M0.52,40.62 C0.52,44.132531 3.36746899,46.98 6.88,46.98 L64.15,46.98 C67.662531,46.98 70.51,44.132531 70.51,40.62 L70.51,35.23 L0.51,35.23 L0.52,40.62 Z" id="Shape" fill="#4758A9"></path>
                <rect id="Rectangle-path" fill="#ED5565" x="0.52" y="23.48" width="70" height="11.75"></rect>
                <rect id="Rectangle-path" fill="#FFFFFF" x="0.52" y="11.73" width="70" height="11.75"></rect>
                <path d="M64.16,-1.33226763e-15 L6.89,-1.33226763e-15 C3.37746899,-1.33226763e-15 0.53,2.84746899 0.53,6.36 L0.53,11.75 L70.53,11.75 L70.53,6.36 C70.5300021,4.67148908 69.85856,3.05228088 68.663665,1.85926164 C67.4687699,0.6662424 65.8485088,-0.00265489138 64.16,-1.33226763e-15 Z" id="Shape" fill="#F2D660"></path>
                <path d="M41.52,23.48 L2.65,1.6 C2.48927489,1.74225289 2.33575054,1.89243976 2.19,2.05 C2.05,2.2 1.92,2.36 1.8,2.53 C1.69,2.69 1.58,2.85 1.48,3.01 L1.48,3.09 C1.39,3.24 1.31,3.4 1.23,3.57 L1.17,3.68 C1.1,3.83 1.04,3.99 0.98,4.15 L0.92,4.3 C0.92,4.45 0.83,4.61 0.79,4.76 C0.75,4.91 0.79,4.88 0.79,4.94 C0.79,5 0.73,5.26 0.71,5.42 C0.69,5.58 0.71,5.54 0.71,5.6 C0.697930941,5.82650601 0.697930941,6.05349399 0.71,6.28 L0.71,40.55 C0.697930941,40.776506 0.697930941,41.003494 0.71,41.23 C0.71,41.29 0.71,41.35 0.71,41.41 C0.71,41.47 0.71,41.73 0.79,41.89 C0.87,42.05 0.79,42.01 0.79,42.07 C0.79,42.13 0.87,42.38 0.92,42.53 L0.98,42.68 C1.04,42.84 1.1,43 1.17,43.15 L1.22,43.26 C1.3,43.42 1.38,43.58 1.47,43.74 L1.47,43.82 C1.57,43.99 1.68,44.15 1.79,44.3 C1.91,44.47 2.04,44.62 2.18,44.78 C2.32666667,44.94 2.48,45.09 2.64,45.23 L41.52,23.48 Z" id="Shape" fill="#52C162"></path>
                <path d="M12.5,17.14 C12.29,17.29 12.17,17.21 12.22,16.95 L12.45,15.95 C12.5018097,15.6615675 12.4083122,15.3661155 12.2,15.16 L11.51,14.55 C11.31,14.38 11.36,14.23 11.62,14.22 L12.62,14.22 C12.8977885,14.1938763 13.1335355,14.0052787 13.22,13.74 L13.52,12.68 C13.59,12.42 13.73,12.42 13.81,12.68 L14.17,13.68 C14.2736022,13.942086 14.5188125,14.1211285 14.8,14.14 L15.8,14.14 C16.06,14.14 16.11,14.29 15.92,14.46 L15.17,15.13 C14.9694603,15.3360548 14.8866866,15.6295252 14.95,15.91 L15.19,16.76 C15.26,17.02 15.19,17.11 14.92,16.97 L14.12,16.46 C13.8773538,16.3123841 13.5726462,16.3123841 13.33,16.46 L12.5,17.14 Z" id="Shape_2_copy_23-2" fill="#FFFFFF"></path>
                <path d="M12.5,22.65 C12.29,22.8 12.17,22.72 12.22,22.46 L12.45,21.46 C12.5018097,21.1715675 12.4083122,20.8761155 12.2,20.67 L11.51,20.06 C11.31,19.89 11.36,19.74 11.62,19.73 L12.62,19.73 C12.8977885,19.7038763 13.1335355,19.5152787 13.22,19.25 L13.52,18.19 C13.59,17.93 13.73,17.93 13.81,18.19 L14.17,19.19 C14.2736022,19.452086 14.5188125,19.6311285 14.8,19.65 L15.8,19.65 C16.06,19.65 16.11,19.8 15.92,19.97 L15.17,20.64 C14.9694603,20.8460548 14.8866866,21.1395252 14.95,21.42 L15.19,22.27 C15.26,22.53 15.19,22.62 14.92,22.48 L14.12,21.97 C13.8773538,21.8223841 13.5726462,21.8223841 13.33,21.97 L12.5,22.65 Z" id="Shape_2_copy_24" fill="#FFFFFF"></path>
                <path d="M12.5,28.16 C12.29,28.31 12.17,28.23 12.22,27.97 L12.45,26.97 C12.5018097,26.6815675 12.4083122,26.3861155 12.2,26.18 L11.51,25.57 C11.31,25.4 11.36,25.25 11.62,25.24 L12.62,25.24 C12.8977885,25.2138763 13.1335355,25.0252787 13.22,24.76 L13.52,23.7 C13.59,23.44 13.73,23.44 13.81,23.7 L14.17,24.7 C14.2736022,24.962086 14.5188125,25.1411285 14.8,25.16 L15.8,25.16 C16.06,25.16 16.11,25.31 15.92,25.48 L15.17,26.15 C14.9694603,26.3560548 14.8866866,26.6495252 14.95,26.93 L15.19,27.78 C15.26,28.04 15.19,28.13 14.92,27.99 L14.12,27.48 C13.8773538,27.3323841 13.5726462,27.3323841 13.33,27.48 L12.5,28.16 Z" id="Shape_2_copy_25" fill="#FFFFFF"></path>
                <path d="M12.5,33.68 C12.29,33.83 12.17,33.75 12.22,33.49 L12.45,32.49 C12.5018097,32.2015675 12.4083122,31.9061155 12.2,31.7 L11.51,31.09 C11.31,30.92 11.36,30.77 11.62,30.76 L12.62,30.76 C12.8977885,30.7338763 13.1335355,30.5452787 13.22,30.28 L13.52,29.22 C13.59,28.96 13.73,28.96 13.81,29.22 L14.17,30.22 C14.2736022,30.482086 14.5188125,30.6611285 14.8,30.68 L15.8,30.68 C16.06,30.68 16.11,30.83 15.92,31 L15.17,31.67 C14.9694603,31.8760548 14.8866866,32.1695252 14.95,32.45 L15.19,33.3 C15.26,33.56 15.19,33.65 14.92,33.51 L14.12,33 C13.8773538,32.8523841 13.5726462,32.8523841 13.33,33 L12.5,33.68 Z" id="Shape_2_copy_26" fill="#FFFFFF"></path>
                <path d="M11.25,33.93 C11.0986797,34.214942 10.9176748,34.4830973 10.71,34.73 C8.88,36.83 7.8,33.54 7.17,27.39 C7.05,26.2 6.99,25 6.98,23.81 C6.97,22.62 6.98,21.41 7.1,20.2 C7.6,13.93 8.61,10.25 10.48,11.98 C10.6952256,12.1852722 10.8834087,12.4171406 11.04,12.67 C11.1,12.73 11.17,12.6 11.19,12.39 C11.2064252,12.2414397 11.1893396,12.091087 11.14,11.95 C10.8215092,10.9655186 10.2887271,10.0638873 9.58,9.31 C7.23,7.14 4.81,11.76 4.18,19.63 C4.06,21.09 4.01,22.56 4.03,24 C4.05,25.44 4.12,26.9 4.27,28.33 C5.07,36.05 7.58,40.18 9.88,37.54 C10.5622734,36.6605111 11.0712935,35.6594381 11.38,34.59 C11.4130332,34.4384458 11.4130332,34.2815542 11.38,34.13 C11.38,34 11.31,33.86 11.25,33.93 Z" id="Shape_6_copy_2" fill="#FFFFFF"></path>
            </g>
        </g>
    </g>
</svg>