<?xml version="1.0" encoding="UTF-8"?>
<svg width="71px" height="48px" viewBox="0 0 71 48" version="1.1" xmlns="http://www.w3.org/2000/svg" xmlns:xlink="http://www.w3.org/1999/xlink">
    <!-- Generator: Sketch 48.1 (47250) - http://www.bohemiancoding.com/sketch -->
    <title>Congo_Democratic@2x</title>
    <desc>Created with Sketch.</desc>
    <defs></defs>
    <g id="Flags" stroke="none" stroke-width="1" fill="none" fill-rule="evenodd" transform="translate(-324.000000, -498.000000)">
        <g transform="translate(70.000000, 70.000000)" fill-rule="nonzero" id="Congo_Democratic">
            <g transform="translate(254.000000, 428.000000)">
                <path d="M5.16,47.83 C5.60338022,47.9278967 6.0559444,47.9781816 6.51,47.98 L63.78,47.98 C67.292531,47.98 70.14,45.132531 70.14,41.62 L70.14,8.84 L5.16,47.83 Z" id="Shape" fill="#4758A9"></path>
                <path d="M6.51,1 C2.99746899,1 0.15,3.84746899 0.15,7.36 L0.15,36.86 L59.91,1 L6.51,1 Z" id="Shape" fill="#4758A9"></path>
                <path d="M70.15,7.35 C70.1474809,6.81325467 70.0769182,6.2789945 69.94,5.76 L2.28,46.36 C3.09681159,47.0906837 4.08908294,47.5971556 5.16,47.83 L70.16,8.83 L70.15,7.35 Z" id="Shape" fill="#F2D660"></path>
                <path d="M64.77,1.07 C64.4392832,1.01712728 64.1049164,0.990377945 63.77,0.99 L59.9,0.99 L0.13,36.85 L0.13,39.85 L64.77,1.07 Z" id="Shape" fill="#F2D660"></path>
                <path d="M64.77,1.07 L0.15,39.85 L0.15,41.62 C0.150117561,43.4317642 0.925345806,45.15692 2.28,46.36 L69.94,5.76 C69.3051812,3.30613464 67.2739239,1.46346599 64.77,1.07 Z" id="Shape" fill="#ED5565"></path>
                <path d="M8,17.79 C7.45,18.18 7.13,17.96 7.29,17.3 L7.88,14.84 C8.01538489,14.1082017 7.77508016,13.3572494 7.24,12.84 L5.44,11.29 C4.93,10.85 5.06,10.47 5.73,10.45 L8.24,10.38 C8.9598398,10.3229172 9.57687924,9.84343433 9.81,9.16 L10.6,6.48 C10.79,5.83 11.14,5.82 11.36,6.48 L12.31,9.13 C12.5878954,9.80156968 13.2245516,10.2557696 13.95,10.3 L16.52,10.3 C17.19,10.3 17.33,10.68 16.82,11.12 L14.82,12.83 C14.2900064,13.3492398 14.0700322,14.1077714 14.24,14.83 L14.86,16.99 C15.05,17.64 14.73,17.89 14.16,17.53 L12.08,16.24 C11.4487524,15.9041375 10.6862213,15.9308261 10.08,16.31 L8,17.79 Z" id="Shape_2_copy_27" fill="#F6D660"></path>
            </g>
        </g>
    </g>
</svg>