<?xml version="1.0" encoding="UTF-8"?>
<svg width="71px" height="48px" viewBox="0 0 71 48" version="1.1" xmlns="http://www.w3.org/2000/svg" xmlns:xlink="http://www.w3.org/1999/xlink">
    <!-- Generator: Sketch 48.1 (47250) - http://www.bohemiancoding.com/sketch -->
    <title>Cook_Islands@2x</title>
    <desc>Created with Sketch.</desc>
    <defs></defs>
    <g id="Flags" stroke="none" stroke-width="1" fill="none" fill-rule="evenodd" transform="translate(-493.000000, -1234.000000)">
        <g transform="translate(70.000000, 70.000000)" fill-rule="nonzero" id="Cook_Islands">
            <g transform="translate(423.000000, 1164.000000)">
                <path d="M64.55,0.43 L6.23,0.43 C3.28062069,0.793733708 0.932057458,3.07286116 0.48,6.01 L0.48,41.73 C0.97388474,44.9719958 3.76060151,47.3678925 7.04,47.37 L63.76,47.37 C67.4271707,47.37 70.4,44.3971707 70.4,40.73 L70.4,7 C70.3884659,3.64710648 67.8791005,0.828896057 64.55,0.43 Z" id="Shape" fill="#4658A9"></path>
                <path d="M25.36,0.38 L7,0.38 C3.36019521,0.418373563 0.429797724,3.37999294 0.43,7.02 L0.43,24.35 L25.43,24.35 L25.36,0.38 Z" id="Shape" fill="#4658A9"></path>
                <path d="M10.92,17.79 L10.92,24.35 L14.82,24.35 L14.82,17.64 L21.53,24.35 L25.35,24.35 L25.35,21.35 L18.35,14.35 L25.35,14.35 L25.35,10.35 L18.35,10.35 L25.35,3.35 L25.35,0.35 L21.52,0.35 L14.82,7.05 L14.82,0.35 L10.92,0.35 L10.92,6.91 L4.76,0.75 C3.19670719,1.31647757 1.90185751,2.44724162 1.13,3.92 L7.54,10.33 L0.38,10.33 L0.38,14.33 L7.54,14.33 L0.38,21.49 L0.38,24.32 L4.38,24.32 L10.92,17.79 Z" id="Shape" fill="#FFFFFF"></path>
                <path d="M11.92,15 L11.92,24.31 L13.82,24.31 L13.82,14.86 L23.27,24.31 L25.35,24.31 L25.35,23.08 L15.57,13.3 L25.35,13.3 L25.35,11.35 L15.57,11.35 L25.35,1.57 L25.35,0.34 L23.26,0.34 L13.81,9.79 L13.81,0.34 L11.91,0.34 L11.91,9.64 L3.58,1.3 C2.9063927,1.70866358 2.31051707,2.23344041 1.82,2.85 L10.31,11.34 L0.38,11.34 L0.38,13.29 L10.31,13.29 L0.38,23.22 L0.38,24.31 L2.61,24.31 L11.92,15 Z" id="Shape" fill="#EC5463"></path>
                <polygon id="Shape" stroke="#4658A9" stroke-width="0.5" fill="#FFFFFF" points="57.03 36.84 55.36 35.63 53.68 36.84 54.32 34.87 52.65 33.66 54.72 33.66 55.36 31.69 56 33.66 58.07 33.66 56.39 34.87"></polygon>
                <polygon id="Shape" stroke="#4658A9" stroke-width="0.5" fill="#FFFFFF" points="35.5 30.43 34.47 28.64 36.36 29.48 37.74 27.94 37.53 30 39.42 30.85 37.39 31.28 37.18 33.33 36.14 31.54 34.12 31.97"></polygon>
                <polygon id="Shape" stroke="#4658A9" stroke-width="0.5" fill="#FFFFFF" points="34.45 20.44 32.78 19.22 34.85 19.22 35.49 17.25 36.13 19.22 38.2 19.22 36.52 20.44 37.16 22.4 35.49 21.19 33.81 22.4"></polygon>
                <polygon id="Shape" stroke="#4658A9" stroke-width="0.5" fill="#FFFFFF" points="36.06 13.55 37.94 14.39 39.33 12.85 39.11 14.91 41 15.75 38.98 16.18 38.76 18.24 37.73 16.44 35.7 16.88 37.09 15.34"></polygon>
                <polygon id="Shape" stroke="#4658A9" stroke-width="0.5" fill="#FFFFFF" points="41.36 9.69 42.74 11.23 44.63 10.39 43.6 12.18 44.98 13.72 42.96 13.29 41.92 15.08 41.71 13.02 39.68 12.59 41.57 11.75"></polygon>
                <polygon id="Shape" stroke="#4658A9" stroke-width="0.5" fill="#FFFFFF" points="61.08 20.44 61.72 22.4 60.05 21.19 58.37 22.4 59.01 20.44 57.34 19.22 59.41 19.22 60.05 17.25 60.69 19.22 62.76 19.22"></polygon>
                <polygon id="Shape" stroke="#4658A9" stroke-width="0.5" fill="#FFFFFF" points="58.45 15.34 59.83 16.88 57.81 16.44 56.77 18.24 56.56 16.18 54.53 15.75 56.42 14.91 56.2 12.85 57.59 14.39 59.48 13.55"></polygon>
                <polygon id="Shape" stroke="#4658A9" stroke-width="0.5" fill="#FFFFFF" points="53.96 11.75 55.85 12.59 53.83 13.02 53.61 15.08 52.58 13.29 50.55 13.72 51.94 12.18 50.9 10.39 52.79 11.23 54.18 9.69"></polygon>
                <polygon id="Shape" stroke="#4658A9" stroke-width="0.5" fill="#FFFFFF" points="48.41 10.3 50.48 10.3 48.8 11.51 49.44 13.48 47.77 12.27 46.09 13.48 46.73 11.51 45.06 10.3 47.13 10.3 47.77 8.33"></polygon>
                <polygon id="Shape" stroke="#4658A9" stroke-width="0.5" fill="#FFFFFF" points="39.14 34.87 37.47 33.66 39.54 33.66 40.18 31.69 40.82 33.66 42.89 33.66 41.21 34.87 41.85 36.84 40.18 35.63 38.5 36.84"></polygon>
                <polygon id="Shape" stroke="#4658A9" stroke-width="0.5" fill="#FFFFFF" points="44.27 37.45 42.25 37.02 44.14 36.18 43.92 34.12 45.31 35.66 47.2 34.82 46.17 36.61 47.55 38.15 45.52 37.71 44.49 39.51"></polygon>
                <polygon id="Shape" stroke="#4658A9" stroke-width="0.5" fill="#FFFFFF" points="50.01 37.71 47.99 38.15 49.37 36.61 48.34 34.82 50.23 35.66 51.61 34.12 51.39 36.18 53.29 37.02 51.26 37.45 51.05 39.51"></polygon>
                <polygon id="Shape" stroke="#4658A9" stroke-width="0.5" fill="#FFFFFF" points="59.39 31.54 58.36 33.33 58.14 31.28 56.12 30.85 58.01 30 57.79 27.94 59.18 29.48 61.07 28.64 60.03 30.43 61.42 31.97"></polygon>
                <polygon id="Shape" stroke="#4658A9" stroke-width="0.5" fill="#FFFFFF" points="61.42 26.17 61.2 28.23 60.17 26.43 58.14 26.87 59.53 25.33 58.49 23.54 60.38 24.38 61.77 22.84 61.55 24.9 63.44 25.74"></polygon>
                <polygon id="Shape" stroke="#4658A9" stroke-width="0.5" fill="#FFFFFF" points="33.98 24.9 33.77 22.84 35.15 24.38 37.04 23.54 36.01 25.33 37.39 26.87 35.37 26.43 34.33 28.23 34.12 26.17 32.09 25.74"></polygon>
            </g>
        </g>
    </g>
</svg>