<?xml version="1.0" encoding="UTF-8"?>
<svg width="71px" height="48px" viewBox="0 0 71 48" version="1.1" xmlns="http://www.w3.org/2000/svg" xmlns:xlink="http://www.w3.org/1999/xlink">
    <!-- Generator: Sketch 48.1 (47250) - http://www.bohemiancoding.com/sketch -->
    <title>curacao@2x</title>
    <desc>Created with Sketch.</desc>
    <defs></defs>
    <g id="Flags" stroke="none" stroke-width="1" fill="none" fill-rule="evenodd" transform="translate(-493.000000, -1356.000000)">
        <g transform="translate(70.000000, 70.000000)" fill-rule="nonzero" id="curacao">
            <g transform="translate(423.000000, 1286.000000)">
                <path d="M70.39,7.59 C70.39,3.92282926 67.4171707,0.95 63.75,0.95 L7,0.95 C3.33282926,0.95 0.36,3.92282926 0.36,7.59 L0.36,30.32 L70.36,30.32 L70.39,7.59 Z" id="Shape" fill="#4658A9"></path>
                <path d="M70.39,41.3 L70.39,36.19 L0.39,36.19 L0.39,41.3 C0.39,44.9671707 3.36282926,47.94 7.03,47.94 L63.75,47.94 C67.4171707,47.94 70.39,44.9671707 70.39,41.3 Z" id="Shape" fill="#4658A9"></path>
                <polygon id="Shape" fill="#F2D660" points="70.39 30.32 0.39 30.32 0.39 36.2 70.39 36.2"></polygon>
                <path d="M13.68,20.78 C13.23,21.09 12.96,20.9 13.09,20.37 L13.57,18.37 C13.6734685,17.7645768 13.4713874,17.1471068 13.03,16.72 L11.54,15.41 C11.12,15.04 11.22,14.73 11.78,14.73 L13.86,14.73 C14.4566882,14.6989018 14.9711426,14.3001 15.15,13.73 L15.79,11.55 C15.95,11.02 16.23,11.02 16.42,11.55 L17.21,13.74 C17.4419799,14.3003977 17.9659251,14.6856515 18.57,14.74 L20.69,14.81 C21.25,14.81 21.36,15.14 20.94,15.49 L19.34,16.85 C18.9057794,17.2676249 18.7267145,17.884827 18.87,18.47 L19.39,20.25 C19.55,20.79 19.29,20.98 18.81,20.68 L17.08,19.58 C16.5582419,19.2739235 15.9117581,19.2739235 15.39,19.58 L13.68,20.78 Z" id="Shape" fill="#FFFFFF"></path>
                <path d="M6.43,11.95 C6.09,12.18 5.88,12.04 5.98,11.64 L6.34,10.12 C6.42148137,9.65794419 6.26779054,9.18562606 5.93,8.86 L4.8,7.86 C4.48,7.58 4.56,7.35 4.98,7.34 L6.56,7.34 C7.01518742,7.32644585 7.41397588,7.03134239 7.56,6.6 L8.05,4.94 C8.17,4.54 8.38,4.54 8.53,4.94 L9.13,6.6 C9.30088581,7.01590319 9.6835275,7.30671087 10.13,7.36 L11.74,7.41 C12.16,7.41 12.25,7.66 11.93,7.93 L10.71,8.93 C10.3786048,9.24607754 10.2413238,9.71512108 10.35,10.16 L10.75,11.51 C10.87,11.92 10.67,12.07 10.31,11.84 L9,11 C8.60452728,10.7692671 8.11547272,10.7692671 7.72,11 L6.43,11.95 Z" id="Shape" fill="#FFFFFF"></path>
            </g>
        </g>
    </g>
</svg>