<?xml version="1.0" encoding="UTF-8"?>
<svg width="71px" height="48px" viewBox="0 0 71 48" version="1.1" xmlns="http://www.w3.org/2000/svg" xmlns:xlink="http://www.w3.org/1999/xlink">
    <!-- Generator: Sketch 48.1 (47250) - http://www.bohemiancoding.com/sketch -->
    <title>Cyprus@2x</title>
    <desc>Created with Sketch.</desc>
    <defs></defs>
    <g id="Flags" stroke="none" stroke-width="1" fill="none" fill-rule="evenodd" transform="translate(-408.000000, -560.000000)">
        <g transform="translate(70.000000, 70.000000)" fill-rule="nonzero" id="Cyprus">
            <g transform="translate(338.000000, 490.000000)">
                <path d="M64.4,0.27 L7.13,0.27 C3.61746899,0.27 0.77,3.11746899 0.77,6.63 L0.77,40.9 C0.77,42.5867769 1.4400695,44.2044678 2.63280087,45.3971991 C3.82553224,46.5899305 5.44322312,47.26 7.13,47.26 L64.4,47.26 C66.0867769,47.26 67.7044678,46.5899305 68.8971991,45.3971991 C70.0899305,44.2044678 70.76,42.5867769 70.76,40.9 L70.76,6.63 C70.76,3.11746899 67.912531,0.27 64.4,0.27 Z" id="Shape" fill="#FFFFFF"></path>
                <path d="M19,19.45 C19.7226688,18.3090129 21.0402498,17.6892041 22.38,17.86 C22.969279,18.0577931 23.5704793,18.2181132 24.18,18.34 C25.1288618,18.4075324 26.0176675,17.8710461 26.4,17 C26.84,15.89 26.35,14.52 26.95,13.5 C27.0871324,13.2198198 27.3595679,13.0306286 27.67,13 C27.8735817,13.0186603 28.0693917,13.0873655 28.24,13.2 C30.9233006,14.5512491 33.9533477,15.0568381 36.93,14.65 C39.8869696,14.240552 42.7842651,13.4784592 45.56,12.38 C48.5457987,11.4405133 51.3664803,10.0402945 53.92,8.23 C54.41,7.85 55.21,7.48 55.54,8.01 C55.647481,8.22029333 55.6689964,8.46413514 55.6,8.69 C55.1629896,9.92462366 54.2423886,10.9282593 53.05,11.47 C51.6848595,12.2744259 50.2447538,12.9442425 48.75,13.47 C47.8217419,13.6972549 46.961196,14.1429559 46.24,14.77 C45.9068446,15.2482675 45.5173818,15.6847344 45.08,16.07 C44.47,16.46 43.61,16.42 43.14,16.96 C42.7567852,17.6111342 42.7567852,18.4188658 43.14,19.07 C43.5159853,19.7160633 43.6372344,20.4792196 43.48,21.21 C43.08,22.21 41.71,22.36 40.61,22.32 C39.51,22.28 38.13,22.46 37.79,23.51 C37.7186017,23.9103915 37.6685311,24.3142944 37.64,24.72 C37.39,25.9 35.99,26.45 34.78,26.46 C33.5808609,26.3179148 32.3691391,26.3179148 31.17,26.46 C30.1489299,26.7204479 29.2957083,27.4198699 28.84,28.37 C28.56,28.97 28.31,29.77 27.65,29.84 C26.8,29.94 26.48,28.78 25.91,28.14 C25.3401753,27.5928412 24.5688042,27.3067458 23.78,27.35 C23.0006375,27.394597 22.2193625,27.394597 21.44,27.35 C19.9485301,27.0698372 18.6447485,26.1728064 17.85,24.88 C17.0364528,23.5823907 16.4134295,22.1746949 16,20.7 C15.8433965,20.3465707 15.8433965,19.9434293 16,19.59 C16,19.59 16.49,19.4 17.08,20.01 C17.67,20.62 18.59,20.06 19,19.45 Z" id="Shape" fill="#FFAD54"></path>
                <path d="M47.17,29.74 C47.1855268,29.5369631 47.1855268,29.3330369 47.17,29.13 C47.1569381,28.9911057 47.0626394,28.8732323 46.93,28.83 C46.8571386,28.8182339 46.7828614,28.8182339 46.71,28.83 C46.4656268,28.8474278 46.2321614,28.9380263 46.04,29.09 C45.8436412,29.2307494 45.6596414,29.3879856 45.49,29.56 C45.2884618,29.759265 45.0981676,29.9695901 44.92,30.19 L44.87,30.26 L44.81,30.37 L44.81,30.27 L44.81,29.92 L44.81,29.8 C44.8165668,29.6828554 44.7640005,29.5702132 44.67,29.5 C44.577925,29.4320136 44.4584257,29.4133418 44.35,29.45 C43.8399575,29.612522 43.4849179,30.0752703 43.46,30.61 C43.46,30.89 43.46,31.21 43.46,31.46 L43.37,31.4 C43.263509,31.3484143 43.1480665,31.317856 43.03,31.31 L43,31.31 C42.607415,31.3475517 42.2467196,31.5423272 42,31.85 C41.6378242,32.2753616 41.3565265,32.7633961 41.17,33.29 C41.0971386,33.2782339 41.0228614,33.2782339 40.95,33.29 C40.6697333,33.2980864 40.4147513,33.4541202 40.28,33.7 C40.1536204,33.6879394 40.0263796,33.6879394 39.9,33.7 L39.81,33.7 C38.9163572,33.7397564 38.1311457,34.3051088 37.81,35.14 C37.7826298,35.0309043 37.704497,34.9416097 37.6,34.9 C37.517235,34.8671785 37.4290351,34.850217 37.34,34.85 C37.0654106,34.8594912 36.8154737,35.0109681 36.68,35.25 L36.57,35.2 C36.4703808,35.1876581 36.3696192,35.1876581 36.27,35.2 C35.85,35.2 34.77,35.4 33.8,37.2 C33.8021364,37.2902354 33.7435682,37.3707196 33.6570501,37.3964412 C33.5705319,37.4221628 33.4775069,37.3867469 33.43,37.31 L32.72,37.62 L31.99,37.31 C31.8869029,37.2548886 31.7630971,37.2548886 31.66,37.31 C31.6691615,37.263783 31.6691615,37.216217 31.66,37.17 C30.66,35.33 29.6,35.17 29.18,35.17 C29.0373861,35.1579913 28.8944721,35.1893627 28.77,35.26 C28.6294073,35.0164022 28.3712218,34.8645283 28.09,34.86 C28.0076568,34.8622074 27.9263741,34.8791412 27.85,34.91 C27.745503,34.9516097 27.6673702,35.0409043 27.64,35.15 C27.3188543,34.3151088 26.5336428,33.7497564 25.64,33.71 L25.55,33.71 C25.450659,33.6937647 25.349341,33.6937647 25.25,33.71 L25.15,33.71 C25.0127566,33.4556359 24.7489829,33.295078 24.46,33.29 C24.46,33.29 24.32,33.29 24.26,33.29 C24.073886,32.7632062 23.7925469,32.2750998 23.43,31.85 C23.1832804,31.5423272 22.822585,31.3475517 22.43,31.31 L22.32,31.31 C22.1913726,31.3191651 22.065732,31.3531221 21.95,31.41 L21.86,31.48 C21.86,31.25 21.86,30.94 21.86,30.63 C21.8374892,30.1146757 21.5055265,29.6641548 21.02,29.49 C20.9025019,29.4321962 20.7625652,29.4448161 20.6573046,29.5227089 C20.552044,29.6006017 20.4990685,29.7307369 20.52,29.86 C20.52,29.86 20.52,30.07 20.58,30.3 L20.58,30.41 L20.49,30.25 C20.302803,30.0186924 20.102473,29.7983294 19.89,29.59 C19.7205602,29.4177692 19.5365411,29.2605165 19.34,29.12 C19.1450767,28.9661476 18.9078452,28.8754414 18.66,28.86 C18.5904223,28.849126 18.5195777,28.849126 18.45,28.86 C18.3158155,28.9068912 18.2217847,29.0283476 18.21,29.17 C18.1944732,29.3730369 18.1944732,29.5769631 18.21,29.78 C18.214308,30.1858872 18.3512731,30.579223 18.6,30.9 C18.7780256,31.0942769 18.9795803,31.2655985 19.2,31.41 L18.76,31.41 C18.6481209,31.3962165 18.5364513,31.4371621 18.46,31.52 C18.3903571,31.599371 18.3675696,31.7095104 18.4,31.81 C18.4289859,32.0060077 18.4827494,32.1975403 18.56,32.38 C18.7020018,32.7724612 19.0333302,33.0661386 19.44,33.16 C19.7174289,33.2089488 19.9983188,33.2357002 20.28,33.24 C20.2764285,33.2665471 20.2764285,33.2934529 20.28,33.32 C20.2626961,33.4800762 20.2867996,33.6419138 20.35,33.79 C20.3761937,33.8505745 20.4097823,33.907675 20.45,33.96 C20.3404695,34.0054887 20.261427,34.1033509 20.24,34.22 C20.2343125,34.2832056 20.2343125,34.3467944 20.24,34.41 C20.2582732,34.5313911 20.3026233,34.6473838 20.37,34.75 C20.6176987,35.0704529 20.972828,35.290633 21.37,35.37 C21.9481739,35.4965642 22.544549,35.5168952 23.13,35.43 C23.1201728,35.5264169 23.1201728,35.6235831 23.13,35.72 C23.1548293,35.8446786 23.2097564,35.9613987 23.29,36.06 C23.3267012,36.1066356 23.370582,36.147141 23.42,36.18 C23.4002886,36.2934932 23.437684,36.4094188 23.52,36.49 C24.1321445,37.0290019 24.9245767,37.3181326 25.74,37.3 L25.79,37.3 C26.0470118,37.3059512 26.3024429,37.2582707 26.54,37.16 C26.523028,37.2894461 26.523028,37.4205539 26.54,37.55 C26.5705567,37.6905633 26.6358834,37.8212167 26.73,37.93 C26.8609354,38.0725838 27.0464349,38.1526032 27.24,38.15 C27.3942481,38.1522239 27.5425821,38.0907195 27.65,37.98 C27.6761488,38.0644874 27.7333133,38.135943 27.81,38.18 C28.3310853,38.488615 28.9244099,38.654194 29.53,38.66 C30.1074493,38.6621726 30.6745235,38.506573 31.17,38.21 C31.2201909,38.1773231 31.2614363,38.1326405 31.29,38.08 C31.3201255,38.1172074 31.357564,38.1478388 31.4,38.17 L30.78,38.62 C30.6946251,38.6839617 30.6430813,38.7833676 30.64,38.89 C30.6376083,38.9984345 30.6856231,39.101851 30.77,39.17 L31.08,39.44 L31.14,39.49 C31.1287628,39.5829412 31.155228,39.6765105 31.2134813,39.7497969 C31.2717347,39.8230833 31.3569199,39.8699777 31.45,39.88 L31.64,39.88 C31.6894454,39.8905322 31.7405546,39.8905322 31.79,39.88 L31.92,39.79 L32.07,39.64 L32.44,39.19 L32.66,38.91 L32.88,39.19 L33.26,39.65 L33.41,39.8 L33.54,39.89 C33.5895033,39.8999664 33.6404967,39.8999664 33.69,39.89 L33.88,39.89 C33.9730801,39.8799777 34.0582653,39.8330833 34.1165187,39.7597969 C34.174772,39.6865105 34.2012372,39.5929412 34.19,39.5 L34.25,39.45 L34.58,39.16 C34.6570601,39.093514 34.7013627,38.9967774 34.7013627,38.895 C34.7013627,38.7932226 34.6570601,38.696486 34.58,38.63 L33.97,38.18 C33.9957406,38.1237083 34.0060925,38.0615972 34,38 C34.0285637,38.0526405 34.0698091,38.0973231 34.12,38.13 C34.6156767,38.4261037 35.1826179,38.5816669 35.76,38.58 C36.3587874,38.5707016 36.9447744,38.4052465 37.46,38.1 C37.5347693,38.0583586 37.5916901,37.9907651 37.62,37.91 C37.7243394,38.0191797 37.8689819,38.0806527 38.02,38.08 C38.2112355,38.0717286 38.3927531,37.9934269 38.53,37.86 C38.6244783,37.7514584 38.6898538,37.6207076 38.72,37.48 C38.7368587,37.3505466 38.7368587,37.2194534 38.72,37.09 C38.9607382,37.1893595 39.2196591,37.2370554 39.48,37.23 C40.2954233,37.2481326 41.0878555,36.9590019 41.7,36.42 C41.7646866,36.3382383 41.7869324,36.2307173 41.76,36.13 C41.8490615,36.1060216 41.931261,36.0614969 42,36 C42.0795712,35.9009772 42.1344173,35.7844291 42.16,35.66 C42.1696242,35.5635729 42.1696242,35.4664271 42.16,35.37 C42.745451,35.4568952 43.3418261,35.4365642 43.92,35.31 C44.317172,35.230633 44.6723013,35.0104529 44.92,34.69 C44.9873767,34.5873838 45.0317268,34.4713911 45.05,34.35 C45.05,34.35 45.05,34.23 45.05,34.21 C45.0472004,34.0718749 44.9656027,33.9475356 44.84,33.89 C44.879528,33.840798 44.9130947,33.7870912 44.94,33.73 C44.998596,33.5946791 45.02265,33.4469191 45.01,33.3 C45.0171147,33.2603164 45.0171147,33.2196836 45.01,33.18 C45.2949938,33.1756834 45.5792054,33.148934 45.86,33.1 C46.2666698,33.0061386 46.5979982,32.7124612 46.74,32.32 C46.8468745,32.0883572 46.8982356,31.8349759 46.89,31.58 C46.8417032,31.4339901 46.703753,31.3366136 46.55,31.34 L46.11,31.34 C46.3299917,31.1950272 46.5314795,31.0237625 46.71,30.83 C46.9766401,30.5256382 47.1379646,30.1433693 47.17,29.74 Z" id="Shape" fill="#52C162"></path>
            </g>
        </g>
    </g>
</svg>