<?xml version="1.0" encoding="UTF-8"?>
<svg width="71px" height="48px" viewBox="0 0 71 48" version="1.1" xmlns="http://www.w3.org/2000/svg" xmlns:xlink="http://www.w3.org/1999/xlink">
    <!-- Generator: Sketch 48.1 (47250) - http://www.bohemiancoding.com/sketch -->
    <title>Djibouti@2x</title>
    <desc>Created with Sketch.</desc>
    <defs></defs>
    <g id="Flags" stroke="none" stroke-width="1" fill="none" fill-rule="evenodd" transform="translate(-239.000000, -621.000000)">
        <g transform="translate(70.000000, 70.000000)" fill-rule="nonzero" id="Djibouti">
            <g transform="translate(169.000000, 551.000000)">
                <path d="M64.16,0.55 L6.89,0.55 C3.37746899,0.55 0.53,3.39746806 0.53,6.90999791 L0.53,24.5499921 L70.53,24.5499921 L70.53,6.90999791 C70.5300021,5.22148755 69.85856,3.60227988 68.663665,2.40926103 C67.4687699,1.21624218 65.8485088,0.547345109 64.16,0.55 Z" id="Shape" fill="#8CBAE2"></path>
                <path d="M0.52,41.18 C0.52,44.692531 3.36746899,47.54 6.88,47.54 L64.15,47.54 C67.662531,47.54 70.51,44.692531 70.51,41.18 L70.51,24.55 L0.51,24.55 L0.52,41.18 Z" id="Shape" fill="#52C162"></path>
                <path d="M2.43,2.38 C1.21116484,3.57574529 0.526154249,5.21256006 0.53,6.92 L0.53,41.19 C0.531149023,42.9151958 1.23529477,44.5654245 2.48,45.76 L25.53,24.55 L2.43,2.38 Z" id="Shape" fill="#FFFFFF"></path>
                <path d="M7.77,28.4 C7.36,28.69 7.12,28.53 7.24,28.03 L7.69,26.19 C7.79061627,25.6412102 7.61052487,25.0784246 7.21,24.69 L5.86,23.53 C5.48,23.2 5.58,22.92 6.08,22.9 L7.97,22.85 C8.5102824,22.8108801 8.97486138,22.4526031 9.15,21.94 L9.74,19.94 C9.88,19.45 10.14,19.44 10.31,19.94 L11.02,21.94 C11.2286484,22.4438825 11.7057374,22.7852146 12.25,22.82 L14.17,22.82 C14.67,22.82 14.78,23.1 14.4,23.44 L12.94,24.72 C12.5407036,25.1084047 12.373785,25.6774453 12.5,26.22 L12.97,27.84 C13.11,28.33 12.87,28.51 12.44,28.24 L10.88,27.24 C10.4077487,26.9624982 9.82225135,26.9624982 9.35,27.24 L7.77,28.4 Z" id="Shape_2_copy_14-2" fill="#ED5565"></path>
            </g>
        </g>
    </g>
</svg>