<?xml version="1.0" encoding="UTF-8"?>
<svg width="71px" height="48px" viewBox="0 0 71 48" version="1.1" xmlns="http://www.w3.org/2000/svg" xmlns:xlink="http://www.w3.org/1999/xlink">
    <!-- Generator: Sketch 48.1 (47250) - http://www.bohemiancoding.com/sketch -->
    <title>Dominica@2x</title>
    <desc>Created with Sketch.</desc>
    <defs></defs>
    <g id="Flags" stroke="none" stroke-width="1" fill="none" fill-rule="evenodd" transform="translate(-324.000000, -621.000000)">
        <g transform="translate(70.000000, 70.000000)" fill-rule="nonzero" id="Dominica">
            <g transform="translate(254.000000, 551.000000)">
                <rect id="Rectangle-path" fill="#039188" x="0.08" y="0.55" width="70" height="47" rx="6.36"></rect>
                <rect id="Rectangle-path" fill="#FFFFFF" x="0.08" y="26.14" width="70.13" height="4.18"></rect>
                <rect id="Rectangle-path" fill="#434A54" x="0.08" y="21.96" width="70.13" height="4.18"></rect>
                <rect id="Rectangle-path" fill="#F6BB42" x="0.08" y="17.79" width="70.13" height="4.18"></rect>
                <rect id="Rectangle-path" fill="#FFFFFF" x="37.42" y="0.55" width="4.18" height="47"></rect>
                <rect id="Rectangle-path" fill="#434A54" x="33.24" y="0.55" width="4.18" height="47"></rect>
                <rect id="Rectangle-path" fill="#F6BB42" x="29.07" y="0.55" width="4.18" height="47"></rect>
                <circle id="Oval" fill="#ED5565" cx="35.15" cy="24.05" r="12.92"></circle>
                <path d="M44.8,20.51 L45.58,20.51 C45.6324407,20.5150057 45.6766765,20.551164 45.6920147,20.6015608 C45.7073528,20.6519575 45.6907608,20.7066286 45.65,20.74 L45.05,21.18 C45.022726,21.2226816 45.022726,21.2773184 45.05,21.32 L45.28,22.08 C45.2939998,22.1327238 45.2735939,22.1885801 45.2289041,22.219863 C45.1842143,22.2511458 45.1247473,22.2512006 45.08,22.22 L44.43,21.77 C44.3850419,21.7382451 44.3249581,21.7382451 44.28,21.77 L43.59,22.29 C43.5452527,22.3212006 43.4857857,22.3211458 43.4410959,22.289863 C43.3964061,22.2585801 43.3760002,22.2027238 43.39,22.15 L43.65,21.35 C43.677274,21.3073184 43.677274,21.2526816 43.65,21.21 L42.98,20.72 C42.9382727,20.6853685 42.9224248,20.6284739 42.9402393,20.5772571 C42.9580538,20.5260404 43.0057882,20.4912613 43.06,20.49 L43.9,20.49 C43.9550195,20.4884291 44.0030865,20.4523788 44.02,20.4 L44.27,19.68 C44.290185,19.6315559 44.3375189,19.6 44.39,19.6 C44.4424811,19.6 44.489815,19.6315559 44.51,19.68 L44.76,20.4 C44.755139,20.4409347 44.7699806,20.4817491 44.8,20.51 Z" id="star" fill="#039188"></path>
                <path d="M25.49,27.59 L24.71,27.59 C24.6575593,27.5849943 24.6133235,27.548836 24.5979853,27.4984392 C24.5826472,27.4480425 24.5992392,27.3933714 24.64,27.36 L25.24,26.92 C25.267274,26.8773184 25.267274,26.8226816 25.24,26.78 L25.01,26.02 C24.9960002,25.9672762 25.0164061,25.9114199 25.0610959,25.880137 C25.1057857,25.8488542 25.1652527,25.8487994 25.21,25.88 L25.86,26.33 C25.9049581,26.3617549 25.9650419,26.3617549 26.01,26.33 L26.7,25.81 C26.7447473,25.7787994 26.8042143,25.7788542 26.8489041,25.810137 C26.8935939,25.8414199 26.9139998,25.8972762 26.9,25.95 L26.64,26.75 C26.612726,26.7926816 26.612726,26.8473184 26.64,26.89 L27.31,27.38 C27.3517273,27.4146315 27.3675752,27.4715261 27.3497607,27.5227429 C27.3319462,27.5739596 27.2842118,27.6087387 27.23,27.61 L26.39,27.61 C26.3349805,27.6115709 26.2869135,27.6476212 26.27,27.7 L26.02,28.42 C25.999815,28.4684441 25.9524811,28.5 25.9,28.5 C25.8475189,28.5 25.800185,28.4684441 25.78,28.42 L25.53,27.7 C25.534861,27.6590653 25.5200194,27.6182509 25.49,27.59 Z" id="star-2" fill="#039188"></path>
                <path d="M45,26.86 L45.62,27.33 C45.6617273,27.3646315 45.6775752,27.4215261 45.6597607,27.4727429 C45.6419462,27.5239596 45.5942118,27.5587387 45.54,27.56 L44.79,27.56 C44.7349805,27.5615709 44.6869135,27.5976212 44.67,27.65 L44.41,28.4 C44.389815,28.4484441 44.3424811,28.48 44.29,28.48 C44.2375189,28.48 44.190185,28.4484441 44.17,28.4 L43.91,27.66 C43.8930865,27.6076212 43.8450195,27.5715709 43.79,27.57 L42.93,27.57 C42.8757882,27.5687387 42.8280538,27.5339596 42.8102393,27.4827429 C42.7924248,27.4315261 42.8082727,27.3746315 42.85,27.34 L43.54,26.85 C43.567274,26.8073184 43.567274,26.7526816 43.54,26.71 L43.29,25.92 C43.2760002,25.8672762 43.2964061,25.8114199 43.3410959,25.780137 C43.3857857,25.7488542 43.4452527,25.7487994 43.49,25.78 L44.17,26.28 C44.2149581,26.3117549 44.2750419,26.3117549 44.32,26.28 L44.95,25.84 C44.9947473,25.8087994 45.0542143,25.8088542 45.0989041,25.840137 C45.1435939,25.8714199 45.1639998,25.9272762 45.15,25.98 L44.93,26.71 C44.9143728,26.7703142 44.9437359,26.8332351 45,26.86 Z" id="star-3" fill="#039188"></path>
                <path d="M25.25,21.24 L24.63,20.77 C24.5882727,20.7353685 24.5724248,20.6784739 24.5902393,20.6272571 C24.6080538,20.5760404 24.6557882,20.5412613 24.71,20.54 L25.46,20.54 C25.5150195,20.5384291 25.5630865,20.5023788 25.58,20.45 L25.84,19.7 C25.860185,19.6515559 25.9075189,19.62 25.96,19.62 C26.0124811,19.62 26.059815,19.6515559 26.08,19.7 L26.34,20.44 C26.3569135,20.4923788 26.4049805,20.5284291 26.46,20.53 L27.32,20.53 C27.3742118,20.5312613 27.4219462,20.5660404 27.4397607,20.6172571 C27.4575752,20.6684739 27.4417273,20.7253685 27.4,20.76 L26.71,21.25 C26.682726,21.2926816 26.682726,21.3473184 26.71,21.39 L26.96,22.18 C26.9739998,22.2327238 26.9535939,22.2885801 26.9089041,22.319863 C26.8642143,22.3511458 26.8047473,22.3512006 26.76,22.32 L26.08,21.82 C26.0350419,21.7882451 25.9749581,21.7882451 25.93,21.82 L25.3,22.26 C25.2552527,22.2912006 25.1957857,22.2911458 25.1510959,22.259863 C25.1064061,22.2285801 25.0860002,22.1727238 25.1,22.12 L25.32,21.39 C25.3356272,21.3296858 25.3062641,21.2667649 25.25,21.24 Z" id="star-4" fill="#039188"></path>
                <path d="M41.5,32.14 L41.72,32.89 C41.7339998,32.9427238 41.7135939,32.9985801 41.6689041,33.029863 C41.6242143,33.0611458 41.5647473,33.0612006 41.52,33.03 L40.92,32.59 C40.8750419,32.5582451 40.8149581,32.5582451 40.77,32.59 L40.12,33.05 C40.0752527,33.0812006 40.0157857,33.0811458 39.9710959,33.049863 C39.9264061,33.0185801 39.9060002,32.9627238 39.92,32.91 L40.15,32.15 C40.1642925,32.0974675 40.1443375,32.0415933 40.1,32.01 L39.39,31.52 C39.3408841,31.489067 39.3182263,31.4293212 39.3344789,31.373598 C39.3507315,31.3178748 39.4019559,31.279678 39.46,31.28 L40.3,31.28 C40.3550195,31.2784291 40.4030865,31.2423788 40.42,31.19 L40.68,30.4 C40.6959432,30.3441875 40.746955,30.3057071 40.805,30.3057071 C40.863045,30.3057071 40.9140568,30.3441875 40.93,30.4 L41.19,31.2 C41.2069135,31.2523788 41.2549805,31.2884291 41.31,31.29 L42.07,31.29 C42.1224407,31.2950057 42.1666765,31.331164 42.1820147,31.3815608 C42.1973528,31.4319575 42.1807608,31.4866286 42.14,31.52 L41.53,31.98 C41.4837124,32.0196967 41.4712372,32.0862313 41.5,32.14 Z" id="star-5" fill="#039188"></path>
                <path d="M28.79,16 L28.57,15.25 C28.5560002,15.1972762 28.5764061,15.1414199 28.6210959,15.110137 C28.6657857,15.0788542 28.7252527,15.0787994 28.77,15.11 L29.37,15.55 C29.4149581,15.5817549 29.4750419,15.5817549 29.52,15.55 L30.17,15.09 C30.2147473,15.0587994 30.2742143,15.0588542 30.3189041,15.090137 C30.3635939,15.1214199 30.3839998,15.1772762 30.37,15.23 L30.14,15.99 C30.1257075,16.0425325 30.1456625,16.0984067 30.19,16.13 L30.9,16.62 C30.9491159,16.650933 30.9717737,16.7106788 30.9555211,16.766402 C30.9392685,16.8221252 30.8880441,16.860322 30.83,16.86 L30,16.86 C29.9449805,16.8615709 29.8969135,16.8976212 29.88,16.95 L29.62,17.74 C29.6040568,17.7958125 29.553045,17.8342929 29.495,17.8342929 C29.436955,17.8342929 29.3859432,17.7958125 29.37,17.74 L29.11,16.94 C29.0930865,16.8876212 29.0450195,16.8515709 28.99,16.85 L28.23,16.85 C28.1775593,16.8449943 28.1333235,16.808836 28.1179853,16.7584392 C28.1026472,16.7080425 28.1192392,16.6533714 28.16,16.62 L28.77,16.16 C28.8129324,16.1177424 28.8212095,16.0515254 28.79,16 Z" id="star-6" fill="#039188"></path>
                <path d="M40.88,15.51 L41.52,15.07 C41.5662421,15.0349159 41.6301397,15.0347387 41.6765757,15.0695657 C41.7230117,15.1043927 41.7407329,15.1657841 41.72,15.22 L41.49,15.93 C41.462726,15.9726816 41.462726,16.0273184 41.49,16.07 L42.13,16.55 C42.1707608,16.5833714 42.1873528,16.6380425 42.1720147,16.6884392 C42.1566765,16.738836 42.1124407,16.7749943 42.06,16.78 L41.27,16.78 C41.2149805,16.7815709 41.1669135,16.8176212 41.15,16.87 L40.9,17.7 C40.8840568,17.7558125 40.833045,17.7942929 40.775,17.7942929 C40.716955,17.7942929 40.6659432,17.7558125 40.65,17.7 L40.39,16.9 C40.3730865,16.8476212 40.3250195,16.8115709 40.27,16.81 L39.44,16.81 C39.3875593,16.8049943 39.3433235,16.768836 39.3279853,16.7184392 C39.3126472,16.6680425 39.3292392,16.6133714 39.37,16.58 L40.05,16.09 C40.077274,16.0473184 40.077274,15.9926816 40.05,15.95 L39.83,15.22 C39.8160002,15.1672762 39.8364061,15.1114199 39.8810959,15.080137 C39.9257857,15.0488542 39.9852527,15.0487994 40.03,15.08 L40.65,15.52 C40.674293,15.561769 40.7197484,15.586618 40.7680226,15.5845191 C40.8162968,15.5824202 40.8594239,15.5537199 40.88,15.51 Z" id="star-7" fill="#039188"></path>
                <path d="M29.41,32.59 L28.77,33.03 C28.7237579,33.0650841 28.6598603,33.0652613 28.6134243,33.0304343 C28.5669883,32.9956073 28.5492671,32.9342159 28.57,32.88 L28.8,32.17 C28.827274,32.1273184 28.827274,32.0726816 28.8,32.03 L28.16,31.55 C28.1192392,31.5166286 28.1026472,31.4619575 28.1179853,31.4115608 C28.1333235,31.361164 28.1775593,31.3250057 28.23,31.32 L29.02,31.32 C29.0750195,31.3184291 29.1230865,31.2823788 29.14,31.23 L29.39,30.4 C29.4059432,30.3441875 29.456955,30.3057071 29.515,30.3057071 C29.573045,30.3057071 29.6240568,30.3441875 29.64,30.4 L29.9,31.2 C29.9169135,31.2523788 29.9649805,31.2884291 30.02,31.29 L30.85,31.29 C30.9024407,31.2950057 30.9466765,31.331164 30.9620147,31.3815608 C30.9773528,31.4319575 30.9607608,31.4866286 30.92,31.52 L30.24,32.01 C30.212726,32.0526816 30.212726,32.1073184 30.24,32.15 L30.46,32.88 C30.4739998,32.9327238 30.4535939,32.9885801 30.4089041,33.019863 C30.3642143,33.0511458 30.3047473,33.0512006 30.26,33.02 L29.64,32.58 C29.615707,32.538231 29.5702516,32.513382 29.5219774,32.5154809 C29.4737032,32.5175798 29.4305761,32.5462801 29.41,32.59 Z" id="star-8" fill="#039188"></path>
                <path d="M34.76,13.77 L35,13 C35.020185,12.9515559 35.0675189,12.92 35.12,12.92 C35.1724811,12.92 35.219815,12.9515559 35.24,13 L35.47,13.71 C35.4869135,13.7623788 35.5349805,13.7984291 35.59,13.8 L36.39,13.8 C36.4442118,13.8012613 36.4919462,13.8360404 36.5097607,13.8872571 C36.5275752,13.9384739 36.5117273,13.9953685 36.47,14.03 L35.84,14.51 C35.8082451,14.5549581 35.8082451,14.6150419 35.84,14.66 L36.12,15.48 C36.1407329,15.5342159 36.1230117,15.5956073 36.0765757,15.6304343 C36.0301397,15.6652613 35.9662421,15.6650841 35.92,15.63 L35.24,15.13 C35.1950419,15.0982451 35.1349581,15.0982451 35.09,15.13 L34.41,15.61 C34.3637579,15.6450841 34.2998603,15.6452613 34.2534243,15.6104343 C34.2069883,15.5756073 34.1892671,15.5142159 34.21,15.46 L34.47,14.66 C34.497274,14.6173184 34.497274,14.5626816 34.47,14.52 L33.86,14.06 C33.8182727,14.0253685 33.8024248,13.9684739 33.8202393,13.9172571 C33.8380538,13.8660404 33.8857882,13.8312613 33.94,13.83 L34.7,13.83 C34.7261479,13.8172738 34.7472738,13.7961479 34.76,13.77 Z" id="star-9" fill="#039188"></path>
                <path d="M35.53,34.33 L35.27,35.06 C35.249815,35.1084441 35.2024811,35.14 35.15,35.14 C35.0975189,35.14 35.050185,35.1084441 35.03,35.06 L34.8,34.35 C34.7830865,34.2976212 34.7350195,34.2615709 34.68,34.26 L33.88,34.26 C33.8257882,34.2587387 33.7780538,34.2239596 33.7602393,34.1727429 C33.7424248,34.1215261 33.7582727,34.0646315 33.8,34.03 L34.43,33.55 C34.4617549,33.5050419 34.4617549,33.4449581 34.43,33.4 L34.15,32.58 C34.1292671,32.5257841 34.1469883,32.4643927 34.1934243,32.4295657 C34.2398603,32.3947387 34.3037579,32.3949159 34.35,32.43 L35.03,32.93 C35.0749581,32.9617549 35.1350419,32.9617549 35.18,32.93 L35.86,32.45 C35.9062421,32.4149159 35.9701397,32.4147387 36.0165757,32.4495657 C36.0630117,32.4843927 36.0807329,32.5457841 36.06,32.6 L35.8,33.4 C35.772726,33.4426816 35.772726,33.4973184 35.8,33.54 L36.41,34 C36.4517273,34.0346315 36.4675752,34.0915261 36.4497607,34.1427429 C36.4319462,34.1939596 36.3842118,34.2287387 36.33,34.23 L35.57,34.23 C35.5428362,34.2559827 35.5282488,34.2924513 35.53,34.33 Z" id="star-10" fill="#039188"></path>
                <path d="M38.93,29.33 C38.9860582,28.9602892 38.969071,28.5831735 38.88,28.22 C38.9147481,27.8839816 38.8841871,27.5444142 38.79,27.22 C38.9429186,25.9926521 38.7197508,24.7477938 38.15,23.65 C37.86167,22.9431524 37.4925506,22.2720262 37.05,21.65 C37.0371965,21.625413 37.0401084,21.5955868 37.0574255,21.5739404 C37.0747426,21.552294 37.1032022,21.5429059 37.13,21.55 C37.5242644,21.7200518 37.9830791,21.6194345 38.27,21.3 C38.2868585,21.2867274 38.2966987,21.2664563 38.2966987,21.245 C38.2966987,21.2235437 38.2868585,21.2032726 38.27,21.19 C38.1249434,21.151289 37.986673,21.0905849 37.86,21.01 C37.8389388,20.9973438 37.8260555,20.9745714 37.8260555,20.95 C37.8260555,20.9254286 37.8389388,20.9026562 37.86,20.89 C37.9680165,20.832971 38.0659766,20.7586564 38.15,20.67 C38.1668585,20.6567274 38.1766987,20.6364563 38.1766987,20.615 C38.1766987,20.5935437 38.1668585,20.5732726 38.15,20.56 C38.008363,20.5204856 37.8735081,20.4598009 37.75,20.38 C37.7289388,20.3673438 37.7160555,20.3445714 37.7160555,20.32 C37.7160555,20.2954286 37.7289388,20.2726562 37.75,20.26 C37.8386524,20.2044604 37.9193844,20.1371837 37.99,20.06 C38.0068585,20.0467274 38.0166987,20.0264563 38.0166987,20.005 C38.0166987,19.9835437 38.0068585,19.9632726 37.99,19.95 C37.7776003,19.8845355 37.5780297,19.7830589 37.4,19.65 C37.3831415,19.6367274 37.3733013,19.6164563 37.3733013,19.595 C37.3733013,19.5735437 37.3831415,19.5532726 37.4,19.54 C37.4727815,19.4909477 37.5398631,19.4339283 37.6,19.37 C37.6168585,19.3567274 37.6266987,19.3364563 37.6266987,19.315 C37.6266987,19.2935437 37.6168585,19.2732726 37.6,19.26 C37.4398686,19.2141572 37.2879932,19.143282 37.15,19.05 C37.1234152,19.0393739 37.1059808,19.0136298 37.1059808,18.985 C37.1059808,18.9563702 37.1234152,18.9306261 37.15,18.92 L37.36,18.92 C37.3865848,18.9093739 37.4040192,18.8836298 37.4040192,18.855 C37.4040192,18.8263702 37.3865848,18.8006261 37.36,18.79 C36.74,18.44 35.99,17.57 35.52,17.34 C34.9223832,17.042504 34.2124815,17.0804666 33.65,17.44 C33.4531823,17.599962 33.3244984,17.8287334 33.29,18.08 C33.2835948,18.1044784 33.2644784,18.1235948 33.24,18.13 L33.08,18.13 C32.66,18.22 32.4,18.59 32.72,19.43 C32.7306261,19.4565848 32.7563702,19.4740192 32.785,19.4740192 C32.8136298,19.4740192 32.8393739,19.4565848 32.85,19.43 C32.875608,19.364678 32.905679,19.3011948 32.94,19.24 C32.9660246,19.2181587 33.0039754,19.2181587 33.03,19.24 C33.1915404,19.3158453 33.3784596,19.3158453 33.54,19.24 C33.6109692,19.2160731 33.678277,19.1824192 33.74,19.14 C33.7616581,19.1274957 33.7883419,19.1274957 33.81,19.14 C33.8234377,19.1531662 33.8310102,19.1711872 33.8310102,19.19 C33.8310102,19.2088128 33.8234377,19.2268338 33.81,19.24 C33.7786146,19.2949045 33.7614286,19.3567741 33.76,19.42 C33.6516989,19.4912043 33.5846118,19.6104704 33.58,19.74 C33.4921989,19.8150896 33.4411526,19.9244745 33.44,20.04 C32.9127323,21.0947055 32.6910445,22.2758861 32.8,23.45 C32.8723819,24.673474 33.3754109,25.8318575 34.22,26.72 C34.2416327,26.8093406 34.2717702,26.8964046 34.31,26.98 C34.289323,27.1292874 34.289323,27.2807126 34.31,27.43 C34.31,27.88 34.56,28.21 34.76,28.2 C34.7777753,28.4085297 34.8427474,28.610285 34.95,28.79 C34.9718413,28.8160246 34.9718413,28.8539754 34.95,28.88 C34.8052116,28.9632829 34.6792342,29.0756411 34.58,29.21 C34.5639017,29.2161554 34.5460983,29.2161554 34.53,29.21 L33.26,29.21 C33.08,29.21 33.19,28.98 33.05,28.74 C32.8125343,28.4672953 32.4173005,28.3965693 32.1,28.57 C31.78,28.75 32.03,29.08 31.48,29.13 C31.4591607,29.1320875 31.440351,29.1433963 31.4287336,29.1608224 C31.4171162,29.1782485 31.4139118,29.1999609 31.42,29.22 C31.5394826,29.5043941 31.708809,29.7651568 31.92,29.99 C32.7798635,30.0847881 33.645631,30.1148726 34.51,30.08 C34.5260983,30.0738446 34.5439017,30.0738446 34.56,30.08 C34.7792885,30.4080917 35.1710212,30.5765368 35.56,30.51 L35.62,30.51 C35.7497919,30.5713041 35.9002081,30.5713041 36.03,30.51 C36.0489862,30.5009941 36.0710138,30.5009941 36.09,30.51 C36.2093287,30.5544482 36.3406713,30.5544482 36.46,30.51 L36.51,30.51 C36.6087145,30.5326759 36.7112855,30.5326759 36.81,30.51 C36.8316581,30.4974957 36.8583419,30.4974957 36.88,30.51 C37,30.75 37.13,30.89 37.25,30.87 C37.38,31.26 37.51,31.49 37.64,31.47 C37.77,31.45 37.86,31.24 37.93,30.86 L37.98,30.86 C38.18,30.86 38.34,30.49 38.44,29.92 C38.4442175,29.888776 38.468776,29.8642175 38.5,29.86 L38.61,29.86 C38.7903923,29.6500996 38.7903923,29.3399004 38.61,29.13 C38.61,29 38.61,28.86 38.61,28.72 C38.6206261,28.6934152 38.6463702,28.6759808 38.675,28.6759808 C38.7036298,28.6759808 38.7293739,28.6934152 38.74,28.72 L38.88,29.04 C38.7999187,29.0538071 38.7461929,29.1299187 38.76,29.21 C38.7738071,29.2900813 38.8499187,29.3438071 38.93,29.33 Z" id="Shape" fill="#039188"></path>
            </g>
        </g>
    </g>
</svg>