<?xml version="1.0" encoding="UTF-8"?>
<svg width="71px" height="48px" viewBox="0 0 71 48" version="1.1" xmlns="http://www.w3.org/2000/svg" xmlns:xlink="http://www.w3.org/1999/xlink">
    <!-- Generator: Sketch 48.1 (47250) - http://www.bohemiancoding.com/sketch -->
    <title>Dominican_Republic@2x</title>
    <desc>Created with Sketch.</desc>
    <defs></defs>
    <g id="Flags" stroke="none" stroke-width="1" fill="none" fill-rule="evenodd" transform="translate(-408.000000, -621.000000)">
        <g transform="translate(70.000000, 70.000000)" fill-rule="nonzero" id="Dominican_Republic">
            <g transform="translate(338.000000, 551.000000)">
                <rect id="Rounded_Rectangle_7_copy-24" fill="#ED5565" x="0.77" y="0.55" width="70" height="47" rx="6.36"></rect>
                <path d="M31.77,0.55 L7.13,0.55 C3.61746899,0.55 0.77,3.39746899 0.77,6.91 L0.77,20.55 L31.77,20.55 L31.77,0.55 Z" id="Shape" fill="#4758A9"></path>
                <path d="M39.77,47.55 L64.4,47.55 C67.912531,47.55 70.76,44.702531 70.76,41.19 L70.76,28.55 L39.76,28.55 L39.77,47.55 Z" id="Shape" fill="#4758A9"></path>
                <rect id="Rectangle-path" fill="#FFFFFF" x="31.77" y="0.55" width="8" height="47"></rect>
                <polygon id="Rectangle_5_copy-3" fill="#FFFFFF" points="0.77 28.55 0.77 20.55 70.77 20.55 70.77 28.55"></polygon>
                <circle id="Oval" fill="#52C162" cx="35.77" cy="24.55" r="4"></circle>
                <circle id="Ellipse_5_copy" fill="#FFFFFF" cx="35.77" cy="24.55" r="3"></circle>
            </g>
        </g>
    </g>
</svg>