<?xml version="1.0" encoding="UTF-8"?>
<svg width="71px" height="48px" viewBox="0 0 71 48" version="1.1" xmlns="http://www.w3.org/2000/svg" xmlns:xlink="http://www.w3.org/1999/xlink">
    <!-- Generator: Sketch 48.1 (47250) - http://www.bohemiancoding.com/sketch -->
    <title>Ecuador@2x</title>
    <desc>Created with Sketch.</desc>
    <defs></defs>
    <g id="Flags" stroke="none" stroke-width="1" fill="none" fill-rule="evenodd" transform="translate(-747.000000, -989.000000)">
        <g transform="translate(70.000000, 70.000000)" fill-rule="nonzero" id="Ecuador">
            <g transform="translate(677.000000, 919.000000)">
                <path d="M63.8899928,0.19 L6.60999928,0.19 C3.09746867,0.19 0.25,3.03746899 0.25,6.55 L0.25,27.19 L70.25,27.19 L70.2499921,6.56 C70.252647,4.87149117 69.5837498,3.25123007 68.3907307,2.05633501 C67.1977116,0.861439956 65.5785036,0.189997913 63.8899928,0.19 Z" id="Shape" fill="#F2D660"></path>
                <rect id="Rectangle-path" fill="#4758A9" x="0.25" y="27.19" width="70" height="10"></rect>
                <path d="M0.25,40.83 C0.25,44.342531 3.09746899,47.19 6.61,47.19 L63.88,47.19 C65.5667769,47.19 67.1844678,46.5199305 68.3771991,45.3271991 C69.5699305,44.1344678 70.24,42.5167769 70.24,40.83 L70.24,37.19 L0.24,37.19 L0.25,40.83 Z" id="Shape" fill="#ED5565"></path>
                <path d="M35.26,36.5 C34.7812367,36.4998412 34.3101734,36.3794965 33.89,36.15 L31.89,35.04 C31.03481,34.5991675 30.6146939,33.6118946 30.89,32.69 L29.22,32.88 C28.0147048,33.0137966 26.8095142,32.6275608 25.9065104,31.8181028 C25.0035066,31.0086448 24.48829,29.8526975 24.49,28.64 L24.49,17 C24.4876374,16.5937349 24.7313038,16.22642 25.1065185,16.070629 C25.4817332,15.9148381 25.9139095,16.0015401 26.2,16.29 L26.38,16.47 L26.38,13.47 C26.3776374,13.0637349 26.6213038,12.69642 26.9965185,12.540629 C27.3717332,12.3848381 27.8039095,12.4715401 28.09,12.76 L34.9,19.54 L39.14,16.17 L42.48,12.87 C42.7670058,12.5886714 43.1945455,12.506495 43.5653946,12.661379 C43.9362437,12.8162631 44.1783384,13.1781103 44.18,13.58 L44.18,16.64 L44.36,16.46 C44.6470058,16.1786714 45.0745455,16.096495 45.4453946,16.251379 C45.8162437,16.4062631 46.0583384,16.7681103 46.06,17.17 L46.06,28.67 C46.06171,29.8826975 45.5464934,31.0386448 44.6434896,31.8481028 C43.7404858,32.6575608 42.5352952,33.0437966 41.33,32.91 L39.64,32.72 C39.9207824,33.6449594 39.4998502,34.6383595 38.64,35.08 L36.64,36.18 C36.2141136,36.4007051 35.7395565,36.5107474 35.26,36.5 Z M32.26,30.5 C32.5888827,30.4836453 32.9047368,30.6302482 33.104541,30.8919916 C33.3043451,31.153735 33.362486,31.4970656 33.26,31.81 L32.8,33.24 L34.85,34.37 C35.1088343,34.5104794 35.4211657,34.5104794 35.68,34.37 L37.68,33.27 L37.23,31.8 C37.1264316,31.4775906 37.1930672,31.1246707 37.4070642,30.8622216 C37.6210612,30.5997725 37.9533418,30.4634554 38.29,30.5 L41.51,30.86 C42.1496412,30.9311947 42.7892959,30.7263018 43.2685269,30.2967122 C43.7477579,29.8671226 44.0211022,29.2535902 44.02,28.61 L44.02,19.5 L43.84,19.68 C43.5529942,19.9613286 43.1254545,20.043505 42.7546054,19.888621 C42.3837563,19.7337369 42.1416616,19.3718897 42.14,18.97 L42.14,15.91 L40.47,17.56 L40.39,17.63 L35.39,21.63 C34.9908748,21.9455766 34.4184203,21.9111432 34.06,21.55 L28.33,15.84 L28.33,18.84 C28.3323626,19.2462651 28.0886962,19.61358 27.7134815,19.769371 C27.3382668,19.9251619 26.9060905,19.8384599 26.62,19.55 L26.44,19.37 L26.44,28.61 C26.4388978,29.2535902 26.7122421,29.8671226 27.1914731,30.2967122 C27.6707041,30.7263018 28.3103588,30.9311947 28.95,30.86 L32.16,30.5 L32.26,30.5 Z M34.14,26.64 C33.874197,26.6415368 33.6187188,26.5371865 33.43,26.35 L32.84,25.76 C32.5686045,25.4876656 32.4773752,25.0838521 32.6053365,24.7212952 C32.7332977,24.3587384 33.0577868,24.101649 33.44,24.06 L35.1,23.88 L35.32,23.88 C35.4758162,23.8974681 35.6259605,23.9486536 35.76,24.03 C35.8979633,23.9821368 36.0447352,23.9650703 36.19,23.98 C36.5939182,24.0240309 36.9310404,24.3080817 37.0429524,24.6986766 C37.1548644,25.0892714 37.0193154,25.5087505 36.7,25.76 C36.4375864,25.9757819 36.0835666,26.0435729 35.76,25.94 L35.55,25.85 L34.95,26.16 C34.8132384,26.3901423 34.5899087,26.5558386 34.33,26.62 C34.281112,26.6372001 34.230961,26.6505737 34.18,26.66 L34.14,26.64 Z" id="Shape" fill="#FFFFFF"></path>
                <path d="M26,10.42 C26,10.8 26.65,10.57 28.4,10.61 C30.15,10.65 30.47,11.33 32.15,11.97 L33.84,12.61 C33.3399753,13.2144666 32.9781905,13.9209709 32.78,14.68 C32.78,15.4 36.62,14.27 36.62,14.27 L36.21,13.37 C36.4963149,13.0967096 36.7035978,12.751238 36.81,12.37 C37.5134538,12.1785218 38.2047104,11.9447635 38.88,11.67 C39.7143096,11.1383652 40.6807629,10.850854 41.67,10.84 C43.25,10.84 44.42,10.58 44.42,10.24 C43.41625,9.68236569 42.3528792,9.23957404 41.25,8.92 C40.08,8.54 37.67,8.17 37.25,8.51 C36.83,8.85 37.02,9.72 35.05,9.68 C33.4,9.68 33.62,8.51 33.05,8.38 C31.9175954,8.19208367 30.7580119,8.25006284 29.65,8.55 C28.79,8.91 26.06,10 26,10.42 Z" id="Shape" fill="#434A54"></path>
                <path d="M30.28,25.45 L35.28,24.9 L40.28,25.45 C41.0261118,25.5356698 41.7732568,25.2982817 42.3330934,24.797677 C42.89293,24.2970722 43.2120467,23.5810113 43.21,22.83 L43.21,13.55 L41.5,15.24 L41.5,21.05 C41.4945071,22.9862397 39.9262397,24.5545071 37.99,24.56 L32.65,24.56 C30.7137603,24.5545071 29.1454929,22.9862397 29.14,21.05 L29.14,15.13 L27.43,13.42 L27.43,22.83 C27.4302188,23.5656263 27.7385177,24.2675384 28.2800772,24.7653931 C28.8216368,25.2632478 29.5469519,25.5115353 30.28,25.45 Z" id="Shape" fill="#F2D660"></path>
                <path d="M32.58,24.56 L37.92,24.56 C39.8562397,24.5545071 41.4245071,22.9862397 41.43,21.05 L41.43,15.24 L40.43,16.24 L40.43,19.6 C40.4300272,20.772169 39.9623413,21.8958968 39.1306814,22.7219247 C38.2990215,23.5479525 37.1721418,24.0079921 36,24 L34.49,24 C32.0677513,23.9945011 30.1054989,22.0322487 30.1,19.61 L30.1,16.15 L29.1,15.15 L29.1,21.07 C29.1162142,22.9868293 30.6632251,24.5382856 32.58,24.56 Z" id="Shape" fill="#4758A9"></path>
                <path d="M34.49,24 L36,24 C38.4222487,23.9945011 40.3845011,22.0322487 40.39,19.61 L40.39,16.25 L39.76,16.87 L34.76,20.87 L30.07,16.2 L30.07,19.66 C30.1029007,22.0743994 32.0754024,24.0111997 34.49,24 Z" id="Shape" fill="#ED5565"></path>
                <path d="M36,24.56 L38.66,32.96 C38.8147045,33.4235515 38.611718,33.9310175 38.18,34.16 L36.18,35.26 C35.622085,35.5641173 34.947915,35.5641173 34.39,35.26 L32.39,34.15 C31.9534517,33.92027 31.7496487,33.4065165 31.91,32.94 L34.32,25.45 L36,24.56 Z" id="Shape" fill="#F2D660"></path>
                <path d="M29.09,31.88 L35.25,31.2 L41.41,31.88 C42.3316017,31.9823982 43.2532013,31.6874863 43.9441435,31.0690739 C44.6350857,30.4506616 45.0299824,29.5672729 45.03,28.64 L45.03,17.14 L42.91,19.24 L42.91,26.44 C42.9045013,28.8401574 40.9601574,30.7845013 38.56,30.79 L31.94,30.79 C29.5398426,30.7845013 27.5954987,28.8401574 27.59,26.44 L27.59,19.1 L25.47,17 L25.47,28.65 C25.4728561,29.5755291 25.868981,30.4562196 26.5595744,31.072412 C27.2501678,31.6886044 28.1701276,31.9822106 29.09,31.88 Z" id="Shape" fill="#F2D660"></path>
                <path d="M36.16,35.27 L37.52,34.52 L36,29.69 L34.26,30.59 L33,34.52 L34.38,35.27 C34.9352864,35.5704965 35.6047136,35.5704965 36.16,35.27 Z" id="Shape" fill="#4758A9"></path>
                <path d="M31.94,30.79 L38.56,30.79 C40.9601574,30.7845013 42.9045013,28.8401574 42.91,26.44 L42.91,19.24 L41.63,20.51 L41.63,24.68 C41.6244965,27.6821465 39.1921465,30.1144965 36.19,30.12 L34.32,30.12 C31.3178535,30.1144965 28.8855035,27.6821465 28.88,24.68 L28.88,20.39 L27.6,19.11 L27.6,26.45 C27.6109492,28.8423658 29.5476342,30.7790508 31.94,30.79 Z" id="Shape" fill="#4758A9"></path>
                <path d="M34.31,30.11 L36.18,30.11 C39.1821465,30.1044965 41.6144965,27.6721465 41.62,24.67 L41.62,20.5 L40.84,21.27 L34.67,26.17 L28.86,20.38 L28.86,24.67 C28.8655157,27.6760459 31.303949,30.1100051 34.31,30.11 Z" id="Shape" fill="#ED5565"></path>
                <path d="M35.25,28.29 C32.25,28.29 29.75,25.08 29.75,21.14 C29.75,17.2 32.22,13.98 35.25,13.98 C38.28,13.98 40.75,17.19 40.75,21.14 C40.75,25.09 38.28,28.29 35.25,28.29 Z M35.25,15.98 C33.35,15.98 31.75,18.34 31.75,21.14 C31.75,23.94 33.35,26.29 35.25,26.29 C37.15,26.29 38.75,23.93 38.75,21.14 C38.75,18.35 37.15,16 35.25,16 L35.25,15.98 Z" id="Shape" fill="#FFFFFF"></path>
                <ellipse id="Oval" fill="#3BAFDA" cx="35.25" cy="21.14" rx="4.5" ry="6.15"></ellipse>
            </g>
        </g>
    </g>
</svg>