<?xml version="1.0" encoding="UTF-8"?>
<svg width="71px" height="48px" viewBox="0 0 71 48" version="1.1" xmlns="http://www.w3.org/2000/svg" xmlns:xlink="http://www.w3.org/1999/xlink">
    <!-- Generator: Sketch 48.1 (47250) - http://www.bohemiancoding.com/sketch -->
    <title>Eritrea@2x</title>
    <desc>Created with Sketch.</desc>
    <defs></defs>
    <g id="Flags" stroke="none" stroke-width="1" fill="none" fill-rule="evenodd" transform="translate(-324.000000, -682.000000)">
        <g transform="translate(70.000000, 70.000000)" fill-rule="nonzero" id="Eritrea">
            <g transform="translate(254.000000, 612.000000)">
                <path d="M63.78,0.83 L6.51,0.83 C5.29096391,0.825137838 4.09645381,1.17237915 3.07,1.83 L69.15,24.83 L70.1500079,24.83 L70.15,7.2 C70.1526597,5.509757 69.4823908,3.88797677 68.287207,2.692793 C67.0920232,1.49760923 65.470243,0.827340289 63.78,0.83 Z" id="Shape" fill="#52C162"></path>
                <path d="M3.11,46.84 C4.12499887,47.490268 5.30456921,47.8372005 6.51,47.84 L63.78,47.84 C67.292531,47.84 70.14,44.992531 70.14,41.48 L70.14,24.83 L69.14,24.83 L3.11,46.84 Z" id="Shape" fill="#8CBAE2"></path>
                <path d="M3.06999988,1.85 C1.24848584,3.01913669 0.147932023,5.03556243 0.15,7.2 L0.15,41.47 C0.154985928,43.6607701 1.28889216,45.6942421 3.14999987,46.85 L69.1499971,24.85 L3.06999988,1.85 Z" id="Shape" fill="#ED5565"></path>
                <path d="M19.65,33 C18.9749962,33.1217403 18.4685538,33.6858265 18.42,34.37 L22.31,34.37 C22.2673232,33.6687755 21.7436804,33.0911061 21.05,32.98 C24.85,32.9 28.16,31.52 28.76,30.63 C28.17,30.38 27.48,30.78 26.99,30.69 C28.15,30.17 31.64,27.97 31.07,25.62 C30.6052258,26.745911 29.7829585,27.687653 28.73,28.3 C30.03,26.38 31.81,24.38 30.27,22.82 C30.3304428,23.5920263 30.0000236,24.3429789 29.39,24.82 C30.15,22.82 30.87,20.24 29.23,18.56 C29.44,19.17 29.36,20.88 29.06,20.96 C28.97,19.58 28.73,16.67 27.23,16.71 C27.7692239,17.4900716 28.0137668,18.4363465 27.92,19.38 C27.6113415,18.5886046 27.0667131,17.9113102 26.36,17.44 C25.6087903,16.1983633 24.5562672,15.166478 23.3,14.44 C23.3509353,15.5030184 23.9335294,16.4689971 24.85,17.01 C24.17,17.01 23.49,15.71 22.76,15.68 C22.03,15.65 21.76,16.19 20.76,15.88 C20.9567059,16.1155354 21.1706272,16.3361417 21.4,16.54 C21.0250628,16.6150693 20.6356954,16.5357537 20.32,16.32 C20.7928376,17.0187833 21.6103251,17.4025803 22.45,17.32 C23.3572475,17.1375807 24.2997899,17.2828598 25.11,17.73 C24.5609378,17.8272294 23.9990622,17.8272294 23.45,17.73 C23.8623213,18.2709439 24.5101243,18.5799533 25.19,18.56 C25.98,18.56 26.4,18.15 26.6,18.4 C27.0672547,18.970324 27.485413,19.5791625 27.85,20.22 C26.93,20.32 27.21,19.22 26.18,18.64 C25.6,19.8 26.84,21.17 27.68,21.74 C27.6529097,22.525826 27.8321966,23.3050345 28.2,24 C28.6009237,24.5844245 28.7653088,25.299142 28.66,26 C27.9992851,25.3395384 27.6944764,24.4028091 27.84,23.48 C27.2027002,23.8285535 26.9482226,24.6139243 27.26,25.27 C27.5310106,25.7465119 27.571461,26.3201728 27.37,26.83 C27.1139052,27.0946568 27.0119109,27.4724136 27.1,27.83 C27.0773212,28.3229317 26.8487501,28.7837021 26.47,29.1 C26.5838492,28.7346176 26.6112361,28.3477778 26.55,27.97 C26.0748542,28.4823095 25.6275443,29.0197489 25.21,29.58 C24.97,30.14 24.91,31.1 23.73,31.32 C22.696089,31.5076151 21.6887387,31.8198936 20.73,32.25 C20.62,31.53 20.94,30.03 21.56,30.12 C22.18,30.21 23.99,29.51 23.34,28.01 C23.2402601,28.5152595 22.8452595,28.9102601 22.34,29.01 C22.84,28.37 23.74,27.72 23.34,26.65 C23.076232,27.1916982 22.6588998,27.6438081 22.14,27.95 C22.76,26.79 22.21,26.45 21.47,27.4 C21.1400884,28.0220318 20.9297852,28.700429 20.85,29.4 C20.56,28.64 20.58,27.63 20.24,26.82 C20.1321903,26.5605155 20.1806456,26.262358 20.3650775,26.0503674 C20.5495093,25.8383768 20.838094,25.7491319 21.11,25.82 C22.11,26.07 23.68,26.07 23.56,24.52 C23.0705274,25.0509641 22.3157101,25.2465126 21.63,25.02 C22.51,24.39 23.21,23.21 22.23,22.59 C22.1342696,23.3415672 21.6634956,23.9931186 20.98,24.32 C20.8283938,23.7363511 20.8283938,23.1236489 20.98,22.54 C20.5160013,23.180154 20.2078263,23.9197742 20.08,24.7 C20.0738174,23.988896 20.1749556,23.2809287 20.38,22.6 C20.58,21.87 21.09,22.35 21.86,22.4 C22.63,22.45 23.63,22.04 23.43,21.06 C23.1142741,21.4490868 22.6146795,21.6397718 22.12,21.56 C22.76,21.18 23.88,20.56 23.27,19.48 C23.0978726,19.9475614 22.6754118,20.2770034 22.18,20.33 C22.2568146,19.8026406 22.5504619,19.3313548 22.99,19.03 C21.99,18.83 21.37,19.49 21.07,20.52 C20.9427381,20.025841 20.8425887,19.5250937 20.77,19.02 C21.0823481,18.7145444 21.200368,18.2615101 21.0767548,17.8424823 C20.9531417,17.4234546 20.6081271,17.1070154 20.18,17.02 C20.1011228,17.4374229 20.1321375,17.8681824 20.27,18.27 C19.6992842,17.8717149 18.9407158,17.8717149 18.37,18.27 C18.8088578,18.7940661 19.5636133,18.9212721 20.15,18.57 C19.95,19.22 19.42,19.11 18.69,18.86 C18.9508476,19.5008219 19.6330583,19.8629831 20.31,19.72 C20.63,20.55 20.65,21.18 19.7,22.39 C19.8251067,21.6867443 19.5927772,20.9672724 19.08,20.47 C18.56,19.97 18.08,20.47 18.95,21.6 C18.3535369,21.1512769 17.9213075,20.5187461 17.72,19.8 C17.5223594,20.6779578 17.6999567,21.5985639 18.21,22.34 C17.97,22.59 17.7,22.34 17.29,21.7 C17.44,23.7 18.29,24.04 19.46,23.6 C19.46,24.68 19.46,25.67 19.56,26.97 C19.0542201,26.2071713 18.3670083,25.5818085 17.56,25.15 C17.571294,25.7593095 17.8314581,26.337452 18.28,26.75 C17.7397451,26.5336559 17.2316855,26.2442975 16.77,25.89 C16.67,26.76 17.83,27.57 18.58,27.89 C17.8678705,27.8690623 17.1985018,27.5452915 16.74,27 C16.74,29.42 19.44,29 19.94,28.63 C20.01,29.82 20.1,31.2 20.17,32.39 C19.41,32.26 19.47,32.04 18.82,31.98 C17.02,31.91 15.59,29.87 15.11,28.38 C14.97,28.63 15.11,28.88 14.96,29.19 C14.7168077,28.4087137 14.3189129,27.6843412 13.79,27.06 C13.922509,27.6062711 13.9563741,28.1718197 13.89,28.73 C13.6918384,28.3269523 13.5762404,27.8883602 13.55,27.44 C13.7392851,26.9637796 13.8865139,26.4719017 13.99,25.97 C13.99,25.49 13.52,24.45 13.45,23.64 C13.319073,24.4072303 13.0870534,25.1537279 12.76,25.86 C12.8066505,25.1470595 12.937562,24.4421514 13.15,23.76 C13.5306973,23.2354084 13.6689823,22.5730961 13.53,21.94 C13.3485823,22.3159424 13.1273135,22.6713135 12.87,23 C12.9638092,22.1014598 13.5056328,21.3113004 14.31,20.9 C14.85,20.62 15.53,19.64 15.08,18.96 C14.5402025,19.4576888 14.0542003,20.0107258 13.63,20.61 C13.8821387,18.9832051 15.3618515,17.837196 17,18 C17.4915779,18.0350144 17.9669204,17.8162059 18.26,17.42 C17.7944816,17.583256 17.2935226,17.6178049 16.81,17.52 C17.289716,17.1102528 17.934643,16.9508743 18.55,17.09 C19.2191889,17.1806833 19.8786018,16.8666772 20.23,16.29 C19.5016635,16.5662466 18.7066625,16.6150625 17.95,16.43 C18.95,15.92 20.53,15.87 21.34,15.21 C20.42,14.54 18.12,15.36 16.67,16.34 C17.1879061,15.8830405 17.6570772,15.3736547 18.07,14.82 C17.27,14.45 15.26,16.62 14.57,17.9 C14.0624263,18.222718 13.6540297,18.6795685 13.39,19.22 C13.74,18.07 13.78,17.22 14.07,16.28 C11.81,17.04 12.75,21.09 12.26,22.06 C12.3916082,20.9895869 12.2398839,19.9033793 11.82,18.91 C11.12,19.43 11.07,22.46 11.72,24.98 C11.382129,24.2965596 11.1076462,23.5835739 10.9,22.85 C9.9,24.67 11.5,26.85 12.9,28.52 C11.8155463,27.8643564 10.8899922,26.9763709 10.19,25.92 C10.37,29.18 13.88,29.86 14.42,30.66 C13.68,30.33 12.27,29.66 11.67,30.36 C12.5074548,30.5109995 13.3125904,30.8053137 14.05,31.23 C14.92,32.36 16.65,32.84 19.65,33 Z" id="Shape" fill="#F6D660"></path>
            </g>
        </g>
    </g>
</svg>