<?xml version="1.0" encoding="UTF-8"?>
<svg width="71px" height="48px" viewBox="0 0 71 48" version="1.1" xmlns="http://www.w3.org/2000/svg" xmlns:xlink="http://www.w3.org/1999/xlink">
    <!-- Generator: Sketch 48.1 (47250) - http://www.bohemiancoding.com/sketch -->
    <title>Ethiopia@2x</title>
    <desc>Created with Sketch.</desc>
    <defs></defs>
    <g id="Flags" stroke="none" stroke-width="1" fill="none" fill-rule="evenodd" transform="translate(-70.000000, -744.000000)">
        <g transform="translate(70.000000, 70.000000)" fill-rule="nonzero" id="Ethiopia">
            <g transform="translate(0.000000, 674.000000)">
                <g id="Estonia">
                    <g id="Bolivia-4">
                        <path d="M0.28,6.76 L0.28,15.76 L70.28,15.76 L70.28,6.76 C70.28,3.09282926 67.3071707,0.12 63.64,0.12 L6.93,0.12 C5.16723053,0.117345224 3.47575038,0.815742489 2.22834517,2.0612719 C0.980939967,3.30680131 0.279998001,4.99722853 0.28,6.76 Z" id="Shape" fill="#52C162"></path>
                        <polygon id="Shape" fill="#FFCE54" points="0.28 31.46 70.28 31.46 70.28 15.79 0.28 15.79"></polygon>
                        <path d="M0.28,40.47 C0.28,44.1371707 3.25282926,47.11 6.92,47.11 L63.64,47.11 C67.3071707,47.11 70.28,44.1371707 70.28,40.47 L70.28,31.47 L0.28,31.47 L0.28,40.47 Z" id="Shape" fill="#ED5565"></path>
                    </g>
                </g>
                <circle id="Oval" fill="#8CBAE2" cx="35.28" cy="23.61" r="14.5"></circle>
                <path d="M30.48,32.11 C30.2061127,32.1120274 29.9379049,32.0319134 29.71,31.88 C29.1234024,31.4308358 28.9068875,30.64648 29.18,29.96 L29.97,26.69 C30.0733507,26.0560011 29.856171,25.4119509 29.39,24.97 L27.03,22.97 C26.3943359,22.5944615 26.1117834,21.822689 26.3547095,21.1254911 C26.5976356,20.4282932 27.2986044,19.9992111 28.03,20.1 L31.38,20 C31.9264975,19.9443207 32.3889415,19.5720141 32.56,19.05 L33.56,15.52 C33.91,14.35 34.56,14.15 34.98,14.14 C35.4,14.13 36.06,14.28 36.48,15.43 L37.74,18.96 C37.974371,19.4810643 38.4795423,19.8281285 39.05,19.86 L42.42,19.86 C43.1588694,19.7207943 43.8902487,20.135478 44.1501737,20.8409886 C44.4100986,21.5464993 44.1225755,22.3365681 43.47,22.71 L40.94,25 C40.5112489,25.4455063 40.3380063,26.0782183 40.48,26.68 L41.3,29.51 C41.6347786,30.1756489 41.4485672,30.9853137 40.8566265,31.4378304 C40.2646858,31.890347 39.4345272,31.8576592 38.88,31.36 L36.1,29.64 C35.5686465,29.3681123 34.9329309,29.3985657 34.43,29.72 L31.68,31.67 C31.3360923,31.9389741 30.9162654,32.0929106 30.48,32.11 Z M29.05,22 L30.74,23.46 C31.7159555,24.3879697 32.1594466,25.744752 31.92,27.07 L31.36,29.4 L33.31,28.02 C34.4496795,27.2770191 35.9051661,27.2194141 37.1,27.87 L39.1,29.11 L38.53,27.11 C38.2031102,25.8021857 38.5821806,24.4185789 39.53,23.46 L41.44,21.79 L39,21.79 C37.6344206,21.7170553 36.4305074,20.8704325 35.9,19.61 L35.1,17.38 L34.45,19.59 C34.0161935,20.90559 32.8316208,21.8295566 31.45,21.93 L29.05,22 Z" id="Shape" fill="#FFCE54"></path>
                <path d="M31.1,30.85 C30.37,31.37 29.94,31.08 30.15,30.2 L30.94,26.93 C31.115238,25.9542245 30.7970955,24.9548828 30.09,24.26 L27.69,22.19 C27.01,21.6 27.19,21.1 28.08,21.07 L31.44,20.97 C32.4009136,20.8983743 33.2268037,20.2612591 33.54,19.35 L34.59,15.77 C34.85,14.9 35.3,14.89 35.59,15.77 L36.85,19.3 C37.2203958,20.1969796 38.0712264,20.8030507 39.04,20.86 L42.46,20.86 C43.36,20.86 43.54,21.36 42.86,21.96 L40.26,24.24 C39.5520805,24.928868 39.2561934,25.9379191 39.48,26.9 L40.31,29.78 C40.56,30.65 40.14,30.97 39.37,30.5 L36.59,28.78 C35.7318445,28.3092127 34.6852849,28.3437146 33.86,28.87 L31.1,30.85 Z" id="Shape_2_copy_29" fill="#8CBAE2"></path>
            </g>
        </g>
    </g>
</svg>