<?xml version="1.0" encoding="UTF-8"?>
<svg width="71px" height="48px" viewBox="0 0 71 48" version="1.1" xmlns="http://www.w3.org/2000/svg" xmlns:xlink="http://www.w3.org/1999/xlink">
    <!-- Generator: Sketch 48.1 (47250) - http://www.bohemiancoding.com/sketch -->
    <title>Europe@2x</title>
    <desc>Created with Sketch.</desc>
    <defs></defs>
    <g id="Flags" stroke="none" stroke-width="1" fill="none" fill-rule="evenodd" transform="translate(-154.000000, -1418.000000)">
        <g transform="translate(70.000000, 70.000000)" fill-rule="nonzero" id="Europe">
            <g transform="translate(84.000000, 1348.000000)">
                <path d="M64.54,0.3 L7.27,0.3 C3.75746899,0.3 0.91,3.14746899 0.91,6.66 L0.91,40.93 C0.91,44.442531 3.75746899,47.29 7.27,47.29 L64.54,47.29 C68.052531,47.29 70.9,44.442531 70.9,40.93 L70.9,6.66 C70.9,3.14746899 68.052531,0.3 64.54,0.3 Z" id="Shape" fill="#4A88DC"></path>
                <path d="M44.68,25.69 C44.9052297,25.8887029 45.1096193,26.1098458 45.29,26.35 C45.6952268,26.9689772 46.0657964,27.6099625 46.4,28.27 C47.2375921,29.6815968 48.4818932,30.8073931 49.97,31.5 C50.2701226,31.6048 50.5409404,31.7796318 50.76,32.01 C51.27,32.66 50.7,33.61 50.02,34.08 C49.34,34.55 48.49,34.9 48.18,35.67 C48.1,35.87 48.05,36.1 47.86,36.21 C47.67,36.32 47.22,36.09 47.1,35.78 C47.0282784,35.4579733 46.8959236,35.1525391 46.71,34.88 C46.3991469,34.6184283 45.9554286,34.5861579 45.61,34.8 C45.2787474,35.0147433 45.0042918,35.3063523 44.81,35.65 C44.2106618,36.41486 43.9055216,37.3693101 43.95,38.34 C44.0306202,38.6413681 44.0306202,38.9586319 43.95,39.26 C43.56,40.2 41.64,39.41 41.32,40.38 C41.12,40.99 41.85,42.1 41.32,42.22 C40.52,42.42 39.75,40.85 39.22,39.91 C38.1993958,38.1220716 36.7179284,36.6406042 34.93,35.62 C34.8054737,35.5224644 34.6408891,35.4925399 34.49,35.54 C34.29,35.64 34.32,35.93 34.4,36.14 C34.7803535,37.1934053 35.4794016,38.1021678 36.4,38.74 C36.7951754,39.0051515 37.1348485,39.3448246 37.4,39.74 C37.5976989,40.1426121 37.622972,40.6083592 37.47,41.03 C37.2715888,41.4859887 36.8519477,41.8073354 36.36,41.88 C35.83,41.98 34.97,41.96 34.97,41.43 C35.14,40.85 36.22,41.34 36.58,40.85 C36.94,40.36 36.29,39.94 35.81,39.7 C34.9224143,39.2597575 34.1410633,38.6319471 33.52,37.86 C33.23,37.5 32.93,37.08 32.52,36.97 C31.78,36.8 31.06,37.58 30.32,37.39 C30.1631306,37.3251993 29.9983613,37.281485 29.83,37.26 C29.25,37.26 29.24,38.14 28.91,38.62 C28.58,39.1 27.91,39.16 27.59,39.62 C27.27,40.08 27.3,40.62 27.13,41.16 C26.771464,42.0047402 25.9659689,42.5740084 25.05,42.63 C24.1499483,42.668822 23.2507053,42.5364806 22.4,42.24 C22.1150428,42.2196786 21.8561684,42.0667198 21.7008904,41.8269234 C21.5456124,41.587127 21.5119565,41.2883301 21.61,41.02 L21.86,37.56 C21.86,37.23 21.95,36.84 22.25,36.7 C22.4131609,36.6516556 22.5868391,36.6516556 22.75,36.7 C23.2927892,36.7767676 23.8216065,36.9317077 24.32,37.16 C24.7099245,37.4163286 25.1753237,37.5326784 25.64,37.49 C26.36,37.3 26.51,36.28 26.19,35.6 C25.87,34.92 25.25,34.43 24.9,33.77 C24.7946144,33.5986125 24.7391988,33.4011943 24.74,33.2 C24.74,32.72 25.29,32.43 25.74,32.34 C26.2206841,32.3157161 26.6923793,32.2003374 27.13,32 C27.53,31.74 27.69,31 27.26,30.81 C27.0891125,30.7394548 26.9009351,30.722031 26.72,30.76 C26.2376654,30.8197031 25.7642644,30.937214 25.31,31.11 C25.0914608,31.2227804 24.8443216,31.2680312 24.6,31.24 C23.75,31.03 24.06,29.24 23.18,29.24 C22.65,29.24 22.45,29.98 21.96,30.17 C21.5485333,30.2768504 21.1213997,30.0632836 20.96,29.67 C20.8077667,29.2810313 20.8077667,28.8489687 20.96,28.46 C21.2489834,27.6412432 21.849003,26.969365 22.63,26.59 C22.8236276,26.5282877 22.9920409,26.4054863 23.11,26.24 C23.24,25.99 23.11,25.7 22.99,25.43 C22.818151,25.0033201 22.818151,24.5266799 22.99,24.1 C23.21,23.63 23.59,23.34 23.99,22.59 C24.0951551,22.3126573 24.2668569,22.0654067 24.49,21.87 C24.8677178,21.6028279 25.3891174,21.6823634 25.67,22.05 C25.7823213,22.2865013 25.823989,22.5503971 25.79,22.81 L25.71,25.16 C25.6897442,25.3824623 25.7135308,25.6067358 25.78,25.82 C25.8818851,26.037986 26.0283742,26.2321693 26.21,26.39 C27.0683849,27.0655919 27.6225125,28.0551055 27.75,29.14 C27.75,29.59 27.75,30.24 28.17,30.29 C29.04,30.39 29.6,28.82 30.03,28.29 C30.4494427,27.6830643 31.1325534,27.3118085 31.87,27.29 C33.87,27.24 35.98,27.92 37.99,27.78 C38.4464067,27.7721648 38.8724791,27.5498662 39.14,27.18 C39.53,26.56 39.14,25.72 39.37,25.02 C39.6264306,24.453872 40.0220641,23.9619104 40.52,23.59 C41.0186217,23.2041177 41.2518771,22.5665526 41.12,21.95 C40.96,21.55 40.56,21.31 40.26,21.01 C39.6765281,20.3615193 39.4353344,19.4746687 39.61,18.62 C39.7908231,17.7776319 40.190993,16.9979905 40.77,16.36 C41.1881615,15.967064 41.5069241,15.4803512 41.7,14.94 C41.83,14.38 41.45,13.67 40.88,13.71 C40.4985328,13.7721793 40.1870511,14.0486194 40.08,14.42 C39.94,14.77 39.91,15.15 39.79,15.51 C39.4295143,16.2733862 38.9154761,16.9542316 38.28,17.51 C37.6461392,18.0718649 37.3284488,18.9090725 37.43,19.75 C37.51,20.06 37.68,20.33 37.78,20.63 C37.9161727,21.2984257 37.8607087,21.9917248 37.62,22.63 C37.401674,23.9001686 36.7935701,25.0709432 35.88,25.98 C35.62,26.18 35.25,26.35 34.98,26.16 C34.859632,26.0600219 34.7695822,25.9284105 34.72,25.78 C34.39,25.01 34.29,22.35 33.05,22.36 C32.41,22.36 32.05,23.24 31.43,23.29 C30.95,23.29 30.57,22.88 30.36,22.44 C29.5274016,20.7968173 29.8776089,18.8014498 31.22,17.54 C31.64,17.08 32.82,16.28 33.22,15.84 C34.7,14.35 34.58,12.09 35.61,10.26 C36.3967322,8.86254243 37.4300782,7.61913924 38.66,6.59 C39.4198865,5.90462203 40.3262637,5.40183919 41.31,5.12 C42.3086167,4.84202822 43.3794545,5.03338068 44.22,5.64 C44.6980729,5.92757071 44.9931953,6.44214312 45,7 C44.88,7.8 43.92,8.39 44.09,9.18 C44.1660489,9.41539851 44.2773105,9.63792179 44.42,9.84 C44.7523685,10.4521469 44.8313591,11.1702431 44.64,11.84 C44.4691973,12.3528185 44.4691973,12.9071815 44.64,13.42 L45.93,16.82 C46.0757651,17.132817 46.1476178,17.4749726 46.14,17.82 C45.9893009,18.3939825 45.6601335,18.9052424 45.2,19.28 C44.0277733,20.6131935 43.4979304,22.3927347 43.75,24.15 C43.9781626,24.7085056 44.2919231,25.228066 44.68,25.69 Z" id="Shape" fill="#FFFFFF"></path>
            </g>
        </g>
    </g>
</svg>