<?xml version="1.0" encoding="UTF-8"?>
<svg width="71px" height="48px" viewBox="0 0 71 48" version="1.1" xmlns="http://www.w3.org/2000/svg" xmlns:xlink="http://www.w3.org/1999/xlink">
    <!-- Generator: Sketch 48.1 (47250) - http://www.bohemiancoding.com/sketch -->
    <title>Fiji@2x</title>
    <desc>Created with Sketch.</desc>
    <defs></defs>
    <g id="Flags" stroke="none" stroke-width="1" fill="none" fill-rule="evenodd" transform="translate(-154.000000, -744.000000)">
        <g transform="translate(70.000000, 70.000000)" id="Fiji">
            <g transform="translate(84.000000, 674.000000)">
                <rect id="Rectangle-path" fill="#FFFFFF" fill-rule="nonzero" x="0.9" y="0.11" width="70" height="47" rx="6.64"></rect>
                <path d="M65.07,0.17 L6.74,0.17 C3.79449616,0.537882986 1.45098452,2.81607026 1,5.75 L1,41.47 C1.49388474,44.7119958 4.28060151,47.1078925 7.56,47.11 L64.28,47.11 C67.9471707,47.11 70.92,44.1371707 70.92,40.47 L70.92,6.76 C70.9185641,3.399475 68.406656,0.569821228 65.07,0.17 Z" id="Shape" fill="#4658A9" fill-rule="nonzero"></path>
                <path d="M25.87,0.12 L7.47,0.12 C3.83019521,0.158373563 0.899797724,3.11999294 0.9,6.76 L0.9,24.09 L25.9,24.09 L25.87,0.12 Z" id="Shape" fill="#4658A9" fill-rule="nonzero"></path>
                <path d="M11.44,17.52 L11.44,24.08 L15.34,24.08 L15.34,17.37 L22.05,24.08 L25.87,24.08 L25.87,21.08 L18.87,14.08 L25.87,14.08 L25.87,10.08 L18.87,10.08 L25.87,3.08 L25.87,0.08 L22,0.08 L15.3,6.78 L15.3,0.08 L11.4,0.08 L11.4,6.64 L5.24,0.48 C3.67670719,1.04647757 2.38185751,2.17724162 1.61,3.65 L8.02,10.06 L0.9,10.06 L0.9,14.06 L8.06,14.06 L0.9,21.22 L0.9,24.05 L4.9,24.05 L11.44,17.52 Z" id="Shape" fill="#FFFFFF" fill-rule="nonzero"></path>
                <path d="M12.44,14.78 L12.44,24.09 L14.34,24.09 L14.34,14.64 L23.79,24.09 L25.87,24.09 L25.87,22.86 L16.09,13.08 L25.87,13.08 L25.87,11.13 L16.09,11.13 L25.87,1.35 L25.87,0.12 L23.78,0.12 L14.33,9.57 L14.33,0.12 L12.43,0.12 L12.43,9.42 L4.1,1.08 C3.4263927,1.48866358 2.83051707,2.01344041 2.34,2.63 L10.83,11.12 L0.9,11.12 L0.9,13.07 L10.83,13.07 L0.9,23 L0.9,24.09 L3.13,24.09 L12.44,14.78 Z" id="Shape" fill="#EC5463" fill-rule="nonzero"></path>
                <path d="M52.15,15.28 C50.6695583,15.2481917 49.2862812,14.5362651 48.4,13.35 C47.5127261,14.5350913 46.1300634,15.2467017 44.65,15.28 C43.244005,15.2338971 41.9062079,14.6631037 40.9,13.68 L40.9,24.14 C40.97,31.03 48.4,33.88 48.4,33.88 C48.4,33.88 55.9,31.03 55.9,24.14 L55.9,13.68 C54.8971265,14.6680884 53.5572861,15.2397537 52.15,15.28 Z" id="Shape_8_copy_3" stroke="#FFFFFF" stroke-width="2" stroke-linecap="round" stroke-linejoin="round"></path>
                <path d="M52.15,15.28 C50.6695583,15.2481917 49.2862812,14.5362651 48.4,13.35 C47.5127261,14.5350913 46.1300634,15.2467017 44.65,15.28 C43.244005,15.2338971 41.9062079,14.6631037 40.9,13.68 L40.9,24.14 C40.97,31.03 48.4,33.88 48.4,33.88 C48.4,33.88 55.9,31.03 55.9,24.14 L55.9,13.68 C54.8971265,14.6680884 53.5572861,15.2397537 52.15,15.28 Z" id="Shape_8_copy_3-2" fill="#FFFFFF" fill-rule="nonzero"></path>
                <path d="M55.89,17.3 L55.89,13.68 C54.8896333,14.6657721 53.5537994,15.2372519 52.15,15.28 C50.6721829,15.237919 49.2931156,14.528159 48.4,13.35 C47.5059294,14.5270217 46.1274466,15.2364809 44.65,15.28 C43.244005,15.2338971 41.9062079,14.6631037 40.9,13.68 L40.9,17.3 L46.42,17.3 L46.42,22 L40.9,22 L40.9,24.1 C40.9098269,24.7192693 40.983551,25.3358703 41.12,25.94 L46.42,25.94 L46.42,32.81 C47.0581746,33.1975085 47.7270884,33.5319654 48.42,33.81 C49.1128379,33.5318015 49.7817385,33.1973512 50.42,32.81 L50.42,26 L55.74,26 C55.8740842,25.3956866 55.9444686,24.7789852 55.95,24.16 L55.95,22 L50.43,22 L50.43,17.3 L55.89,17.3 Z" id="Shape" fill="#ED5565" fill-rule="nonzero"></path>
            </g>
        </g>
    </g>
</svg>