<?xml version="1.0" encoding="UTF-8"?>
<svg width="71px" height="48px" viewBox="0 0 71 48" version="1.1" xmlns="http://www.w3.org/2000/svg" xmlns:xlink="http://www.w3.org/1999/xlink">
    <!-- Generator: Sketch 48.1 (47250) - http://www.bohemiancoding.com/sketch -->
    <title>Georgia@2x</title>
    <desc>Created with Sketch.</desc>
    <defs></defs>
    <g id="Flags" stroke="none" stroke-width="1" fill="none" fill-rule="evenodd" transform="translate(-154.000000, -805.000000)">
        <g transform="translate(70.000000, 70.000000)" fill-rule="nonzero" id="Georgia">
            <g transform="translate(84.000000, 735.000000)">
                <rect id="Rounded_Rectangle_7_copy-10" fill="#FFFFFF" x="0.9" y="0.4" width="70" height="47" rx="6.36"></rect>
                <polygon id="Shape" fill="#ED5565" points="70.9 19.9 39.9 19.9 39.9 0.4 31.9 0.4 31.9 19.9 0.9 19.9 0.9 27.9 31.9 27.9 31.9 47.4 39.9 47.4 39.9 27.9 70.9 27.9"></polygon>
                <path d="M31.9,0.4 L7.27,0.4 C3.75746899,0.4 0.91,3.24746899 0.91,6.76 L0.91,19.9 L31.91,19.9 L31.9,0.4 Z" id="Shape" fill="#FFFFFF"></path>
                <path d="M20.9,7.65 L18.9,7.65 L18.9,5.65 C18.9,4.5454305 18.0045695,3.65 16.9,3.65 L15.9,3.65 C14.7954305,3.65 13.9,4.5454305 13.9,5.65 L13.9,7.65 L11.9,7.65 C10.7954305,7.65 9.9,8.5454305 9.9,9.65 L9.9,10.65 C9.9,11.7545695 10.7954305,12.65 11.9,12.65 L13.9,12.65 L13.9,14.65 C13.9,15.7545695 14.7954305,16.65 15.9,16.65 L16.9,16.65 C18.0045695,16.65 18.9,15.7545695 18.9,14.65 L18.9,12.65 L20.9,12.65 C22.0045695,12.65 22.9,11.7545695 22.9,10.65 L22.9,9.65 C22.9,8.5454305 22.0045695,7.65 20.9,7.65 Z" id="Shape" fill="#ED5565"></path>
                <path d="M64.54,0.4 L39.9,0.4 L39.9,19.9 L70.9,19.9 L70.9,6.76 C70.9,3.24746899 68.052531,0.4 64.54,0.4 Z" id="Shape" fill="#FFFFFF"></path>
                <path d="M59.9,7.65 L57.9,7.65 L57.9,5.65 C57.9,4.5454305 57.0045695,3.65 55.9,3.65 L54.9,3.65 C53.7954305,3.65 52.9,4.5454305 52.9,5.65 L52.9,7.65 L50.9,7.65 C49.7954305,7.65 48.9,8.5454305 48.9,9.65 L48.9,10.65 C48.9,11.7545695 49.7954305,12.65 50.9,12.65 L52.9,12.65 L52.9,14.65 C52.9,15.7545695 53.7954305,16.65 54.9,16.65 L55.9,16.65 C57.0045695,16.65 57.9,15.7545695 57.9,14.65 L57.9,12.65 L59.9,12.65 C61.0045695,12.65 61.9,11.7545695 61.9,10.65 L61.9,9.65 C61.9,8.5454305 61.0045695,7.65 59.9,7.65 Z" id="Shape" fill="#ED5565"></path>
                <path d="M31.9,47.4000081 L7.27,47.4 C5.57453727,47.4026994 3.94817735,46.7283176 2.7521224,45.5266297 C1.55606745,44.3249419 0.88933455,42.6954313 0.9,41 L0.899873984,27.9 L31.9,27.9 L31.9,47.4000081 Z" id="Shape" fill="#FFFFFF"></path>
                <path d="M20.9,40.15 L18.9,40.15 L18.9,42.15 C18.9,43.2545695 18.0045695,44.15 16.9,44.15 L15.9,44.15 C14.7954305,44.15 13.9,43.2545695 13.9,42.15 L13.9,40.15 L11.9,40.15 C10.7954305,40.15 9.9,39.2545695 9.9,38.15 L9.9,37.15 C9.9,36.0454305 10.7954305,35.15 11.9,35.15 L13.9,35.15 L13.9,33.15 C13.9,32.0454305 14.7954305,31.15 15.9,31.15 L16.9,31.15 C18.0045695,31.15 18.9,32.0454305 18.9,33.15 L18.9,35.15 L20.9,35.15 C22.0045695,35.15 22.9,36.0454305 22.9,37.15 L22.9,38.15 C22.9,39.2545695 22.0045695,40.15 20.9,40.15 Z" id="Shape" fill="#ED5565"></path>
                <path d="M64.54,47.4 L39.9,47.4 L39.9,27.9 L70.900126,27.9 L70.9,41 C70.9106524,42.6936968 70.2452884,44.3216827 69.0514006,45.5230793 C67.8575127,46.7244759 66.2337302,47.4000335 64.54,47.4 Z" id="Shape" fill="#FFFFFF"></path>
                <path d="M59.9,40.15 L57.9,40.15 L57.9,42.15 C57.9,43.2545695 57.0045695,44.15 55.9,44.15 L54.9,44.15 C53.7954305,44.15 52.9,43.2545695 52.9,42.15 L52.9,40.15 L50.9,40.15 C49.7954305,40.15 48.9,39.2545695 48.9,38.15 L48.9,37.15 C48.9,36.0454305 49.7954305,35.15 50.9,35.15 L52.9,35.15 L52.9,33.15 C52.9,32.0454305 53.7954305,31.15 54.9,31.15 L55.9,31.15 C57.0045695,31.15 57.9,32.0454305 57.9,33.15 L57.9,35.15 L59.9,35.15 C61.0045695,35.15 61.9,36.0454305 61.9,37.15 L61.9,38.15 C61.9,39.2545695 61.0045695,40.15 59.9,40.15 Z" id="Shape" fill="#ED5565"></path>
            </g>
        </g>
    </g>
</svg>