<?xml version="1.0" encoding="UTF-8"?>
<svg width="71px" height="48px" viewBox="0 0 71 48" version="1.1" xmlns="http://www.w3.org/2000/svg" xmlns:xlink="http://www.w3.org/1999/xlink">
    <!-- Generator: Sketch 48.1 (47250) - http://www.bohemiancoding.com/sketch -->
    <title>Ghana@2x</title>
    <desc>Created with Sketch.</desc>
    <defs></defs>
    <g id="Flags" stroke="none" stroke-width="1" fill="none" fill-rule="evenodd" transform="translate(-324.000000, -805.000000)">
        <g transform="translate(70.000000, 70.000000)" fill-rule="nonzero" id="Ghana">
            <g transform="translate(254.000000, 735.000000)">
                <g id="Germany-2">
                    <g id="Bolivia-11">
                        <path d="M0.15,7 L0.15,16 L70.15,16 L70.15,7 C70.15,3.33282926 67.1771707,0.36 63.51,0.36 L6.79,0.36 C5.02896251,0.36 3.34005253,1.05956942 2.09481097,2.30481097 C0.84956942,3.55005253 0.15,5.23896251 0.15,7 Z" id="Shape" fill="#ED5565"></path>
                        <polygon id="Shape" fill="#F6D660" points="0.15 31.74 70.15 31.74 70.15 16.07 0.15 16.07"></polygon>
                        <path d="M0.15,40.76 C0.15,44.4271707 3.12282926,47.4 6.79,47.4 L63.5,47.4 C67.1671707,47.4 70.14,44.4271707 70.14,40.76 L70.14,31.76 L0.14,31.76 L0.15,40.76 Z" id="Shape" fill="#52C162"></path>
                    </g>
                </g>
                <path d="M32.27,29.22 C31.77,29.58 31.47,29.38 31.62,28.77 L32.17,26.52 C32.3023162,25.8460467 32.0795575,25.1513416 31.58,24.68 L29.93,23.26 C29.46,22.86 29.58,22.51 30.2,22.49 L32.5,22.42 C33.1605076,22.3675124 33.7265409,21.9272642 33.94,21.3 L34.66,18.84 C34.83,18.24 35.15,18.23 35.36,18.84 L36.23,21.26 C36.4816499,21.877761 37.0643187,22.2972825 37.73,22.34 L40.08,22.34 C40.7,22.34 40.82,22.69 40.35,23.09 L38.56,24.66 C38.0753428,25.1352686 37.8743435,25.8292853 38.03,26.49 L38.6,28.49 C38.77,29.09 38.48,29.31 37.96,28.99 L36.05,27.81 C35.4622563,27.4879465 34.7458895,27.5109316 34.18,27.87 L32.27,29.22 Z" id="Shape_2_copy_21-2" fill="#434A54"></path>
            </g>
        </g>
    </g>
</svg>