<?xml version="1.0" encoding="UTF-8"?>
<svg width="71px" height="48px" viewBox="0 0 71 48" version="1.1" xmlns="http://www.w3.org/2000/svg" xmlns:xlink="http://www.w3.org/1999/xlink">
    <!-- Generator: Sketch 48.1 (47250) - http://www.bohemiancoding.com/sketch -->
    <title>Gibraltar@2x</title>
    <desc>Created with Sketch.</desc>
    <defs></defs>
    <g id="Flags" stroke="none" stroke-width="1" fill="none" fill-rule="evenodd" transform="translate(-831.000000, -1050.000000)">
        <g transform="translate(70.000000, 70.000000)" fill-rule="nonzero" id="Gibraltar">
            <g transform="translate(761.000000, 980.000000)">
                <path d="M0.87,40.83 C0.87,44.4971707 3.84282926,47.47 7.51,47.47 L64.23,47.47 C67.8971707,47.47 70.87,44.4971707 70.87,40.83 L70.87,29 L0.87,29 L0.87,40.83 Z" id="Shape" fill="#EC5565"></path>
                <path d="M69.82,3.53 C68.6011836,1.62264724 66.4935165,0.468897462 64.23,0.47 L7.51,0.47 C3.84738797,0.480982419 0.880982419,3.44738797 0.87,7.11 L0.87,29 L70.8700051,29 L70.87,7.11 C70.8715826,5.84051932 70.5070151,4.59751769 69.82,3.53 Z" id="Shape" fill="#FFFFFF"></path>
                <g id="castle_half" transform="translate(24.000000, 8.000000)">
                    <rect id="Rectangle-path" fill="#434A54" x="3.05" y="12.8" width="9.5" height="6.53"></rect>
                    <polyline id="Shape" stroke="#FFFFFF" stroke-width="0.14" fill="#EC5565" stroke-linecap="round" stroke-linejoin="round" points="8 18.37 2.2 18.37 0.91 19.22 0.91 20.12 8 20.12"></polyline>
                    <path d="M5.56,14.62 C6.40660801,14.6309775 7.08556908,15.3233391 7.08,16.17 L7.08,18.36 L8.17,18.36 L8.17,10.05 L2.17,10.05 L2.17,18.36 L4,18.36 L4,16.17 C3.99999141,15.7571759 4.16466651,15.3614043 4.4575143,15.0704337 C4.75036209,14.7794632 5.14718454,14.6173366 5.56,14.62 Z" id="Shape" stroke="#FFFFFF" stroke-width="0.14" fill="#EC5565" stroke-linecap="round" stroke-linejoin="round"></path>
                    <rect id="Rectangle-path" fill="#434A54" x="4.23" y="4.44" width="2.75" height="5.04"></rect>
                    <path d="M7,8.69 L4.59,8.69 L4.59,7.84 L2.8,7.84 L2.8,8.69 L1.6,8.69 L1.6,7.84 L0.89,7.84 L0.89,9.39 L7,9.39 L7,8.69 Z M1.63,9.39 L6.82,9.39 L6.82,10.06 L1.63,10.06 L1.63,9.39 Z" id="Shape" stroke="#FFFFFF" stroke-width="0.14" fill="#EC5565" stroke-linecap="round" stroke-linejoin="round"></path>
                    <path d="M3.67,2.6 L3.67,7.84 L4.57,7.84 L4.57,6.4 C4.56789429,5.8810348 4.96313625,5.44670298 5.48,5.4 L5.53,5.4 C6.08228475,5.4 6.53,5.84771525 6.53,6.4 L6.53,7.84 L7.39,7.84 L7.39,2.6 L3.67,2.6 Z" id="Shape" stroke="#FFFFFF" stroke-width="0.14" fill="#EC5565" stroke-linecap="round" stroke-linejoin="round"></path>
                    <polygon id="Shape" stroke="#FFFFFF" stroke-width="0.14" fill="#EC5565" stroke-linecap="round" stroke-linejoin="round" points="3.34 1.89 3.34 2.6 7.68 2.6 7.68 1.89"></polygon>
                    <polygon id="Shape" stroke="#FFFFFF" stroke-width="0.14" fill="#EC5565" stroke-linecap="round" stroke-linejoin="round" points="2.78 0.54 2.78 1.9 8 1.9 8 0.54 7.2 0.54 7.2 1.23 6.2 1.23 6.2 0.54 4.72 0.54 4.72 1.23 3.72 1.23 3.72 0.54"></polygon>
                    <path d="M0.9,19.22 L8,19.22" id="Shape" stroke="#FFFFFF" stroke-width="0.14" fill="#EC5565" stroke-linecap="round" stroke-linejoin="round"></path>
                    <polyline id="Shape" stroke="#FFFFFF" stroke-width="0.14" fill="#EC5565" stroke-linecap="round" stroke-linejoin="round" points="12.61 18.81 7.8 18.81 6.35 19.51 6.35 20.51 12.62 20.51"></polyline>
                    <path d="M6.35,19.51 L12.77,19.51" id="Shape" stroke="#FFFFFF" stroke-width="0.14" fill="#EC5565" stroke-linecap="round" stroke-linejoin="round"></path>
                </g>
                <g id="castle_half-2" transform="translate(35.000000, 8.000000)">
                    <rect id="Rectangle-path" fill="#434A54" x="0.19" y="12.8" width="9.5" height="6.53"></rect>
                    <polyline id="Shape" stroke="#FFFFFF" stroke-width="0.14" fill="#EC5565" stroke-linecap="round" stroke-linejoin="round" points="4.76 18.37 10.56 18.37 11.85 19.22 11.85 20.12 4.77 20.12"></polyline>
                    <path d="M7.18,14.62 C6.33339199,14.6309775 5.65443092,15.3233391 5.66,16.17 L5.66,18.36 L4.57,18.36 L4.57,10.05 L10.57,10.05 L10.57,18.36 L8.7,18.36 L8.7,16.17 C8.70015819,15.3255388 8.02430301,14.6363444 7.18,14.62 Z" id="Shape" stroke="#FFFFFF" stroke-width="0.14" fill="#EC5565" stroke-linecap="round" stroke-linejoin="round"></path>
                    <rect id="Rectangle-path" fill="#434A54" x="5.76" y="4.44" width="2.75" height="5.04"></rect>
                    <path d="M5.77,8.69 L8.18,8.69 L8.18,7.84 L9.94,7.84 L9.94,8.69 L11.14,8.69 L11.14,7.84 L11.85,7.84 L11.85,9.39 L5.77,9.39 L5.77,8.69 Z M11.14,9.39 L5.95,9.39 L5.95,10.06 L11.14,10.06 L11.14,9.39 Z" id="Shape" stroke="#FFFFFF" stroke-width="0.14" fill="#EC5565" stroke-linecap="round" stroke-linejoin="round"></path>
                    <path d="M9.08,2.6 L9.08,7.84 L8.18,7.84 L8.18,6.4 C8.18210571,5.8810348 7.78686375,5.44670298 7.27,5.4 L7.22,5.4 C6.66771525,5.4 6.22,5.84771525 6.22,6.4 L6.22,7.84 L5.36,7.84 L5.36,2.6 L9.08,2.6 Z" id="Shape" stroke="#FFFFFF" stroke-width="0.14" fill="#EC5565" stroke-linecap="round" stroke-linejoin="round"></path>
                    <polygon id="Shape" stroke="#FFFFFF" stroke-width="0.14" fill="#EC5565" stroke-linecap="round" stroke-linejoin="round" points="9.4 1.89 9.4 2.6 5.06 2.6 5.06 1.89"></polygon>
                    <polygon id="Shape" stroke="#FFFFFF" stroke-width="0.14" fill="#EC5565" stroke-linecap="round" stroke-linejoin="round" points="10 0.54 10 1.9 4.79 1.9 4.79 0.54 5.59 0.54 5.59 1.23 6.59 1.23 6.59 0.54 8 0.54 8 1.23 9 1.23 9 0.54"></polygon>
                    <path d="M11.84,19.22 L4.73,19.22" id="Shape" stroke="#FFFFFF" stroke-width="0.14" fill="#EC5565" stroke-linecap="round" stroke-linejoin="round"></path>
                    <polyline id="Shape" stroke="#FFFFFF" stroke-width="0.14" fill="#EC5565" stroke-linecap="round" stroke-linejoin="round" points="0.13 18.81 4.94 18.81 6.39 19.51 6.39 20.51 0.12 20.51"></polyline>
                    <path d="M6.4,19.51 L0,19.51" id="Shape" stroke="#FFFFFF" stroke-width="0.14" fill="#EC5565" stroke-linecap="round" stroke-linejoin="round"></path>
                </g>
                <path d="M38.44,25.8 C38.0523074,25.9493107 37.6804682,26.1369053 37.33,26.36 C36.8680812,26.630241 36.4268681,26.9344107 36.01,27.27 C35.8605949,27.3629403 35.7257959,27.4775195 35.61,27.61 C35.4348029,27.7248914 35.3294798,27.9204915 35.33,28.13 C35.33,28.23 35.46,28.02 35.54,28.01 C35.6822172,27.9281848 35.8501136,27.9031789 36.01,27.94 C36.2128855,27.7572871 36.4266069,27.5869779 36.65,27.43 C37.0986943,27.1038343 37.5698668,26.8097692 38.06,26.55 C38.2273762,26.457678 38.4011548,26.3774725 38.58,26.31 L38.43,25.81 L38.44,25.8 Z" id="Shape" stroke="#FFFFFF" stroke-width="0.11" fill="#F8D80E" stroke-linecap="round" stroke-linejoin="round"></path>
                <path d="M36.52,26.9 L36.52,27.48" id="Shape" stroke="#FFFFFF" stroke-width="0.14" fill="#F8D80E" stroke-linecap="round" stroke-linejoin="round"></path>
                <path d="M36.88,26.64 L36.88,27.22" id="Shape" stroke="#FFFFFF" stroke-width="0.14" fill="#F8D80E" stroke-linecap="round" stroke-linejoin="round"></path>
                <path d="M37.24,26.42 L37.24,26.99" id="Shape" stroke="#FFFFFF" stroke-width="0.14" fill="#F8D80E" stroke-linecap="round" stroke-linejoin="round"></path>
                <path d="M37.6,26.2 L37.6,26.79" id="Shape" stroke="#FFFFFF" stroke-width="0.14" fill="#F8D80E" stroke-linecap="round" stroke-linejoin="round"></path>
                <path d="M33.33,25.82 L33.15,26.31 C33.9689275,26.6290522 34.7530197,27.0311508 35.49,27.51 C35.7515041,27.666803 35.9903765,27.8585738 36.2,28.08 C36.2154961,28.1349751 36.1984256,28.19398 36.1559706,28.2321896 C36.1135156,28.2703991 36.0530448,28.2811814 36,28.26 C35.897374,28.2030391 35.772626,28.2030391 35.67,28.26 C35.51,28.33 35.36,28.58 35.61,28.66 C35.7845591,28.77797 36.0011269,28.8159411 36.2054077,28.7643936 C36.4096885,28.7128462 36.5823122,28.5766678 36.68,28.39 C36.7800132,28.1792539 36.7488119,27.9296429 36.6,27.75 C36.275468,27.4187489 35.9050146,27.1358572 35.5,26.91 C34.8080185,26.4838587 34.0782719,26.1223329 33.32,25.83 L33.33,25.82 Z" id="Shape" stroke="#FFFFFF" stroke-width="0.11" fill="#F8D80E" stroke-linecap="round" stroke-linejoin="round"></path>
                <path d="M35.58,27 L35.58,27.5" id="Shape" stroke="#FFFFFF" stroke-width="0.14" fill="#F8D80E" stroke-linecap="round" stroke-linejoin="round"></path>
                <path d="M36,27.25 L35.87,27.74" id="Shape" stroke="#FFFFFF" stroke-width="0.14" fill="#F8D80E" stroke-linecap="round" stroke-linejoin="round"></path>
                <path d="M36.44,27.58 L36.17,27.96" id="Shape" stroke="#FFFFFF" stroke-width="0.14" fill="#F8D80E" stroke-linecap="round" stroke-linejoin="round"></path>
                <path d="M36.57,28.5 L36.18,28.29" id="Shape" stroke="#FFFFFF" stroke-width="0.14" fill="#F8D80E" stroke-linecap="round" stroke-linejoin="round"></path>
                <path d="M36.69,28.09 L36.25,28.09" id="Shape" stroke="#FFFFFF" stroke-width="0.14" fill="#F8D80E" stroke-linecap="round" stroke-linejoin="round"></path>
                <path d="M36.12,28.73 L36.12,28.34" id="Shape" stroke="#FFFFFF" stroke-width="0.14" fill="#F8D80E" stroke-linecap="round" stroke-linejoin="round"></path>
                <path d="M36,28.29 L35.63,28.56" id="Shape" stroke="#FFFFFF" stroke-width="0.14" fill="#F8D80E" stroke-linecap="round" stroke-linejoin="round"></path>
                <path d="M34.19,26.24 L34.19,26.7" id="Shape" stroke="#FFFFFF" stroke-width="0.14" fill="#F8D80E" stroke-linecap="round" stroke-linejoin="round"></path>
                <path d="M35.12,26.73 L35.12,27.25" id="Shape" stroke="#FFFFFF" stroke-width="0.14" fill="#F8D80E" stroke-linecap="round" stroke-linejoin="round"></path>
                <path d="M34.66,26.48 L34.66,26.97" id="Shape" stroke="#FFFFFF" stroke-width="0.14" fill="#F8D80E" stroke-linecap="round" stroke-linejoin="round"></path>
                <path d="M32.87,37.31 L32.87,38.5 L33.62,38.5 L33.62,37.9 L34.62,37.9 L34.62,38.5 L35.42,38.5 L35.42,37.31 L32.87,37.31 Z M32.87,38.95 L32.87,40.15 L35.44,40.15 L35.44,39 L34.64,39 L34.64,39.6 L33.64,39.6 L33.64,39 L32.87,38.95 Z" id="Shape" stroke="#FFFFFF" stroke-width="0.14" fill="#F8D80E" stroke-linecap="round" stroke-linejoin="round"></path>
                <rect id="Rectangle-path" stroke="#FFFFFF" stroke-width="0.14" fill="#F8D80E" stroke-linecap="round" stroke-linejoin="round" x="35.43" y="32.28" width="1" height="8.63"></rect>
                <rect id="Rectangle-path" stroke="#FFFFFF" stroke-width="0.14" fill="#F8D80E" stroke-linecap="round" stroke-linejoin="round" x="35.43" y="33.03" width="1" height="7.43"></rect>
                <path d="M35.8,30.17 L37.38,31.09 L35.8,32 L34.22,31.09 L35.8,30.17 Z M33.69,30.76 L33.28,30.76 L33.28,31.42 L33.69,31.42 L35.8,32.64 L37.91,31.42 L38.32,31.42 L38.32,30.76 L37.91,30.76 L35.8,29.54 L33.69,30.76 Z" id="Shape" stroke="#FFFFFF" stroke-width="0.14" fill="#F8D80E" stroke-linecap="round" stroke-linejoin="round"></path>
                <path d="M35.77,27.92 C35.4050113,27.9847883 35.1442756,28.3096393 35.16,28.68 C35.16,29.23 35.16,29.79 35.16,30.34 C35.1791042,30.6788761 35.426296,30.961309 35.7596534,31.0251434 C36.0930108,31.0889778 36.4270555,30.9178455 36.57,30.61 L36.31,30.46 C36.2216867,30.6559353 36.0071481,30.7620735 35.7978159,30.7133916 C35.5884838,30.6647097 35.4427941,30.4747975 35.45,30.26 C35.45,29.71 35.45,29.16 35.45,28.61 C35.4576783,28.4985018 35.5094793,28.394662 35.5939368,28.3214655 C35.6783943,28.248269 35.7885424,28.2117529 35.9,28.22 C35.99,28.22 36.12,28.32 36.18,28.22 C36.24,28.12 36.12,28 36.04,27.93 C35.96,27.86 35.85,27.93 35.76,27.93 L35.77,27.92 Z M36.63,28.5 C36.5588236,28.6002422 36.4621569,28.679647 36.35,28.73 L36.35,29.85 L36.65,30.02 C36.65,29.54 36.65,29.02 36.65,28.59 C36.65,28.59 36.65,28.52 36.65,28.5 L36.63,28.5 Z" id="Shape" stroke="#FFFFFF" stroke-width="0.14" fill="#F8D80E" stroke-linecap="round" stroke-linejoin="round"></path>
                <rect id="Rectangle-path" fill="#434A54" x="33.62" y="9.23" width="4.35" height="7.9"></rect>
                <path d="M33.31,9.23 L33.31,15.84 L34.69,15.84 L34.69,13.84 C34.69,13.188304 35.218304,12.66 35.87,12.66 C36.521696,12.66 37.05,13.188304 37.05,13.84 L37.05,15.84 L38.43,15.84 L38.43,9.23 L33.31,9.23 Z M35.66,9.97 L36.09,9.97 L36.09,12.23 L35.66,12.23 L35.66,9.97 Z M34.44,10.42 L34.87,10.42 L34.87,12.08 L34.44,12.08 L34.44,10.42 Z M36.88,10.42 L37.31,10.42 L37.31,12.08 L36.88,12.08 L36.88,10.42 Z" id="Shape" stroke="#FFFFFF" stroke-width="0.14" fill="#EC5565" stroke-linecap="round" stroke-linejoin="round"></path>
                <polygon id="Shape" stroke="#FFFFFF" stroke-width="0.14" fill="#EC5565" stroke-linecap="round" stroke-linejoin="round" points="32.84 8.28 32.84 9.22 38.9 9.22 38.9 8.28"></polygon>
                <polygon id="Shape" stroke="#FFFFFF" stroke-width="0.14" fill="#EC5565" stroke-linecap="round" stroke-linejoin="round" points="32.27 7.19 32.27 8.28 39.47 8.28 39.47 7.19 38.57 7.19 38.57 7.79 37.57 7.79 37.57 7.19 36.41 7.19 36.41 7.79 35.41 7.79 35.41 7.19 34.2 7.19 34.2 7.79 33.2 7.79 33.2 7.19"></polygon>
                <polygon id="Shape" stroke="#FFFFFF" stroke-width="0.14" fill="#EC5565" stroke-linecap="round" stroke-linejoin="round" points="30.94 18.06 30.94 18.74 40.81 18.74 40.81 18.06"></polygon>
                <polygon id="Shape" stroke="#FFFFFF" stroke-width="0.14" fill="#EC5565" stroke-linecap="round" stroke-linejoin="round" points="30.53 15.84 30.53 18.06 41.21 18.06 41.21 15.84 40.21 15.84 40.21 16.69 38.86 16.69 38.86 15.84 37 15.84 37 16.69 34.64 16.69 34.64 15.84 32.84 15.84 32.84 16.69 31.49 16.69 31.49 15.84"></polygon>
                <path d="M31.82,18.74 L31.82,26.81 L33.73,26.81 L33.73,23.81 C33.7025231,23.2370703 33.9223561,22.6799192 34.3336424,22.2801106 C34.7449288,21.880302 35.3080772,21.6763224 35.88,21.72 C36.4519228,21.6763224 37.0150712,21.880302 37.4263576,22.2801106 C37.8376439,22.6799192 38.0574769,23.2370703 38.03,23.81 L38.03,26.81 L39.94,26.81 L39.94,18.74 L31.82,18.74 Z" id="Shape" stroke="#FFFFFF" stroke-width="0.14" fill="#EC5565" stroke-linecap="round" stroke-linejoin="round"></path>
            </g>
        </g>
    </g>
</svg>