<?xml version="1.0" encoding="UTF-8"?>
<svg width="71px" height="48px" viewBox="0 0 71 48" version="1.1" xmlns="http://www.w3.org/2000/svg" xmlns:xlink="http://www.w3.org/1999/xlink">
    <!-- Generator: Sketch 48.1 (47250) - http://www.bohemiancoding.com/sketch -->
    <title>Grenada@2x</title>
    <desc>Created with Sketch.</desc>
    <defs></defs>
    <g id="Flags" stroke="none" stroke-width="1" fill="none" fill-rule="evenodd" transform="translate(-70.000000, -866.000000)">
        <g transform="translate(70.000000, 70.000000)" fill-rule="nonzero" id="Grenada">
            <g transform="translate(0.000000, 796.000000)">
                <rect id="Rounded_Rectangle_7_copy_3" fill="#ED5565" x="0.28" y="0.68" width="70" height="47" rx="6.36"></rect>
                <rect id="Rectangle-path" fill="#F6D660" x="5.28" y="5.68" width="60" height="37" rx="3.05"></rect>
                <path d="M23.5,4.63 C23.36,4.73 23.28,4.63 23.32,4.51 L23.47,3.9 C23.5047827,3.71699215 23.4445664,3.52881616 23.31,3.4 L22.86,3.01 C22.73,2.9 22.76,2.81 22.93,2.8 L23.56,2.8 C23.7380011,2.78621862 23.8910214,2.66851067 23.95,2.5 L24.15,1.83 C24.15,1.67 24.28,1.66 24.34,1.83 L24.58,2.49 C24.6511641,2.65615182 24.8096325,2.76823925 24.99,2.78 L25.63,2.78 C25.8,2.78 25.83,2.87 25.71,2.98 L25.22,3.41 C25.0892983,3.54082815 25.0362399,3.73032253 25.08,3.91 L25.24,4.45 C25.24,4.61 25.24,4.67 25.06,4.59 L24.54,4.27 C24.3827786,4.17678293 24.1872214,4.17678293 24.03,4.27 L23.5,4.63 Z" id="Shape_2_copy_30" fill="#F6D660"></path>
                <path d="M34.5,4.63 C34.36,4.73 34.28,4.63 34.32,4.51 L34.47,3.9 C34.5047827,3.71699215 34.4445664,3.52881616 34.31,3.4 L33.86,3.01 C33.73,2.9 33.76,2.81 33.93,2.8 L34.56,2.8 C34.7380011,2.78621862 34.8910214,2.66851067 34.95,2.5 L35.15,1.83 C35.15,1.67 35.28,1.66 35.34,1.83 L35.58,2.49 C35.6511641,2.65615182 35.8096325,2.76823925 35.99,2.78 L36.63,2.78 C36.8,2.78 36.83,2.87 36.71,2.98 L36.22,3.41 C36.0892983,3.54082815 36.0362399,3.73032253 36.08,3.91 L36.24,4.45 C36.24,4.61 36.24,4.67 36.06,4.59 L35.54,4.27 C35.3827786,4.17678293 35.1872214,4.17678293 35.03,4.27 L34.5,4.63 Z" id="Shape_2_copy_31" fill="#F6D660"></path>
                <path d="M45.5,4.63 C45.36,4.73 45.28,4.63 45.32,4.51 L45.47,3.9 C45.5047827,3.71699215 45.4445664,3.52881616 45.31,3.4 L44.86,3.01 C44.73,2.9 44.76,2.81 44.93,2.8 L45.56,2.8 C45.7380011,2.78621862 45.8910214,2.66851067 45.95,2.5 L46.15,1.83 C46.15,1.67 46.28,1.66 46.34,1.83 L46.58,2.49 C46.6511641,2.65615182 46.8096325,2.76823925 46.99,2.78 L47.63,2.78 C47.8,2.78 47.83,2.87 47.71,2.98 L47.22,3.41 C47.0892983,3.54082815 47.0362399,3.73032253 47.08,3.91 L47.24,4.45 C47.24,4.61 47.24,4.67 47.06,4.59 L46.54,4.27 C46.3827786,4.17678293 46.1872214,4.17678293 46.03,4.27 L45.5,4.63 Z" id="Shape_2_copy_32" fill="#F6D660"></path>
                <path d="M23.5,46.63 C23.36,46.73 23.28,46.63 23.32,46.51 L23.47,45.9 C23.5047827,45.7169921 23.4445664,45.5288162 23.31,45.4 L22.86,45.01 C22.73,44.9 22.76,44.81 22.93,44.8 L23.56,44.8 C23.7380011,44.7862186 23.8910214,44.6685107 23.95,44.5 L24.15,43.83 C24.15,43.67 24.28,43.66 24.34,43.83 L24.58,44.49 C24.6511641,44.6561518 24.8096325,44.7682393 24.99,44.78 L25.63,44.78 C25.8,44.78 25.83,44.87 25.71,44.98 L25.22,45.41 C25.0892983,45.5408282 25.0362399,45.7303225 25.08,45.91 L25.24,46.45 C25.24,46.61 25.24,46.67 25.06,46.59 L24.54,46.27 C24.3827786,46.1767829 24.1872214,46.1767829 24.03,46.27 L23.5,46.63 Z" id="Shape_2_copy_33" fill="#F6D660"></path>
                <path d="M34.5,46.63 C34.36,46.73 34.28,46.63 34.32,46.51 L34.47,45.9 C34.5047827,45.7169921 34.4445664,45.5288162 34.31,45.4 L33.86,45.01 C33.73,44.9 33.76,44.81 33.93,44.8 L34.56,44.8 C34.7380011,44.7862186 34.8910214,44.6685107 34.95,44.5 L35.15,43.83 C35.15,43.67 35.28,43.66 35.34,43.83 L35.58,44.49 C35.6511641,44.6561518 35.8096325,44.7682393 35.99,44.78 L36.63,44.78 C36.8,44.78 36.83,44.87 36.71,44.98 L36.22,45.41 C36.0892983,45.5408282 36.0362399,45.7303225 36.08,45.91 L36.24,46.45 C36.24,46.61 36.24,46.67 36.06,46.59 L35.54,46.27 C35.3827786,46.1767829 35.1872214,46.1767829 35.03,46.27 L34.5,46.63 Z" id="Shape_2_copy_33-2" fill="#F6D660"></path>
                <path d="M45.5,46.63 C45.36,46.73 45.28,46.63 45.32,46.51 L45.47,45.9 C45.5047827,45.7169921 45.4445664,45.5288162 45.31,45.4 L44.86,45.01 C44.73,44.9 44.76,44.81 44.93,44.8 L45.56,44.8 C45.7380011,44.7862186 45.8910214,44.6685107 45.95,44.5 L46.15,43.83 C46.15,43.67 46.28,43.66 46.34,43.83 L46.58,44.49 C46.6511641,44.6561518 46.8096325,44.7682393 46.99,44.78 L47.63,44.78 C47.8,44.78 47.83,44.87 47.71,44.98 L47.22,45.41 C47.0892983,45.5408282 47.0362399,45.7303225 47.08,45.91 L47.24,46.45 C47.24,46.61 47.24,46.67 47.06,46.59 L46.54,46.27 C46.3827786,46.1767829 46.1872214,46.1767829 46.03,46.27 L45.5,46.63 Z" id="Shape_2_copy_33-3" fill="#F6D660"></path>
                <path d="M1.53,3.27 C0.727758324,4.34902012 0.289942039,5.65546391 0.28,7 L0.28,41.27 C0.281411253,42.6282282 0.719659331,43.9499844 1.53,45.04 L35.28,24.13 L1.53,3.27 Z" id="Shape" fill="#52C162"></path>
                <path d="M70.28,7 C70.2613887,5.65209022 69.812953,4.34532069 69,3.27 L35.28,24.18 L69,45.09 C69.8103407,43.9999844 70.2485887,42.6782282 70.25,41.32 L70.28,7 Z" id="Shape" fill="#52C162"></path>
                <circle id="Oval" fill="#ED5565" cx="35.28" cy="24.18" r="6.5"></circle>
                <path d="M33.45,27.57 C33.13,27.8 32.94,27.67 33.03,27.28 L33.38,25.85 C33.4600735,25.4226657 33.321221,24.9835916 33.01,24.68 L32.01,23.77 C31.71,23.51 31.79,23.29 32.18,23.28 L33.65,23.28 C34.0716193,23.2500799 34.4341926,22.9702679 34.57,22.57 L35,21 C35.11,20.62 35.31,20.61 35.45,21 L36,22.5 C36.1697646,22.9042849 36.5616158,23.1707438 37,23.18 L38.5,23.18 C38.89,23.18 38.97,23.4 38.67,23.66 L37.53,24.66 C37.2213769,24.9604632 37.0924083,25.4004738 37.19,25.82 L37.55,27.08 C37.66,27.46 37.48,27.6 37.14,27.4 L35.92,26.65 C35.552374,26.4353425 35.097626,26.4353425 34.73,26.65 L33.45,27.57 Z" id="Shape_2_copy_34" fill="#F6D660"></path>
            </g>
        </g>
    </g>
</svg>