<?xml version="1.0" encoding="UTF-8"?>
<svg width="71px" height="47px" viewBox="0 0 71 47" version="1.1" xmlns="http://www.w3.org/2000/svg" xmlns:xlink="http://www.w3.org/1999/xlink">
    <!-- Generator: Sketch 48.1 (47250) - http://www.bohemiancoding.com/sketch -->
    <title>guam@2x</title>
    <desc>Created with Sketch.</desc>
    <defs></defs>
    <g id="Flags" stroke="none" stroke-width="1" fill="none" fill-rule="evenodd" transform="translate(-662.000000, -1357.000000)">
        <g transform="translate(70.000000, 70.000000)" fill-rule="nonzero" id="guam">
            <g transform="translate(592.000000, 1286.000000)">
                <path d="M64.75,1 L6.43,1 C3.48062069,1.36373371 1.13205746,3.64286116 0.68,6.58 L0.68,42.3 C1.17388474,45.5419958 3.96060151,47.9378925 7.24,47.94 L63.96,47.94 C65.7210375,47.94 67.4099475,47.2404306 68.655189,45.995189 C69.9004306,44.7499475 70.6,43.0610375 70.6,41.3 L70.6,7.58 C70.5935098,4.22329003 68.0828747,1.39936207 64.75,1 Z" id="Shape" fill="#4658A9"></path>
                <path d="M64.69,2 C67.4939328,2.37109992 69.5893766,4.76161639 69.59,7.59 L69.59,41.31 C69.5844958,44.4226032 67.0626032,46.9444958 63.95,46.95 L7.23,46.95 C4.47641551,46.9354979 2.13132716,44.9447035 1.67,42.23 L1.67,6.66 C2.07888286,4.21667635 4.03426991,2.32619841 6.49,2 L64.69,2 Z M64.75,1 L6.43,1 C3.48062069,1.36373371 1.13205746,3.64286116 0.68,6.58 L0.68,42.3 C1.17388474,45.5419958 3.96060151,47.9378925 7.24,47.94 L63.96,47.94 C65.7210375,47.94 67.4099475,47.2404306 68.655189,45.995189 C69.9004306,44.7499475 70.6,43.0610375 70.6,41.3 L70.6,7.58 C70.5991753,4.22285583 68.0926892,1.39447511 64.76,0.99 L64.75,1 Z" id="Shape" fill="#EC5565"></path>
                <path d="M35.92,8.54 C35.7497174,8.40648645 35.5102826,8.40648645 35.34,8.54 C33.71,9.83 25.75,16.54 25.75,24.33 C25.75,31.75 32.99,38.33 35.07,40.11 C35.3965378,40.3743507 35.8634622,40.3743507 36.19,40.11 C38.28,38.46 45.43,32.25 45.43,24.32 C45.43,16 37.55,9.75 35.92,8.54 Z M35.62,10.11 C35.62,10.11 26.84,16.65 26.84,24.36 C26.84,32.07 35.62,38.8 35.62,38.8 C35.62,38.8 44.35,32.63 44.35,24.36 C44.35,16.09 35.62,10.1 35.62,10.1 L35.62,10.11 Z" id="Shape" fill="#EC5565"></path>
                <path d="M35.62,10.1 C35.62,10.1 26.84,16.64 26.84,24.35 C26.84,32.06 35.62,38.79 35.62,38.79 C35.62,38.79 44.35,32.62 44.35,24.35 C44.35,16.08 35.62,10.1 35.62,10.1 Z" id="path794" fill="#92DBFC"></path>
                <path d="M43.42,29.07 L27.84,29.07 C30.15,34.62 35.61,38.81 35.61,38.81 C35.61,38.81 41.17,34.86 43.42,29.07 Z" id="path798" fill="#3CAFDA"></path>
                <path d="M44,27.37 C42.56,28.37 34.47,27.9 34.47,27.9 L34.02,29.05 L43.66,29.05 C43.66,28.89 43.8,28.7 43.83,28.54 L44,27.37 Z" id="Shape" fill="#E77329"></path>
                <path d="M29.5,32.14 C29.9111887,32.1477872 30.3150206,32.2504563 30.68,32.44 C31.2152131,32.7189165 31.818569,32.8402812 32.42,32.79 C33.16,32.79 33.74,33.35 34.54,33.37 C36.01,33.37 36.63,34.14 35.49,34.14 C34.7421816,34.0043608 33.9878368,33.9075644 33.23,33.85 C32.5091435,33.8351641 31.8044015,34.0642052 31.23,34.5 C30.6092693,33.7466031 30.031679,32.9586763 29.5,32.14 Z M32.41,35.81 C32.6885862,35.5582195 33.0375376,35.3977019 33.41,35.35 C34.1,35.35 34.33,34.9 35.13,34.9 C36.0885067,34.9820911 37.0539614,34.890627 37.98,34.63 C39.25,34.34 38.65,33.45 37.88,33.12 C37.11,32.79 36.09,33.12 35.37,32.84 C34.82,32.63 35.27,32.28 35.57,32.21 C35.9065569,32.1885404 36.244357,32.2223204 36.57,32.31 C37.2612149,32.3558006 37.9553686,32.32562 38.64,32.22 C39.84,32.04 39.79,31.68 40.37,31.68 C40.7304391,31.6638997 41.0781911,31.5421865 41.37,31.33 C41.71,31.1 42.06,30.64 42.47,30.66 L42.71,30.66 C40.9500203,33.8335571 38.5369192,36.5977168 35.63,38.77 C34.4844926,37.8648495 33.4081674,36.8754325 32.41,35.81 Z" id="path799" fill="#F2D660"></path>
                <path d="M38.23,32.22 C38.2641509,32.7575041 38.6924959,33.1858491 39.23,33.22 C39.86,33.38 40.82,32.76 40.23,32.17 C39.64,31.58 39.06,31.48 38.56,30.98 C37.5036834,29.8466782 36.6903472,28.5092676 36.17,27.05 C35.61,25.38 35.71,20.67 35.73,18.29 C35.73,18.29 35.8,18.29 35.81,18.23 C35.82,18.17 35.88,18.23 35.81,17.9 C35.81,17.81 35.72,17.72 35.72,17.63 C35.72,17.54 35.16,17.81 35.01,18.09 C35.01,18.16 35.12,18.34 35.12,18.38 C35.12,20.67 34.89,25.18 35.5,27.23 C35.8847411,28.3644742 36.4522128,29.4284838 37.18,30.38 C37.6227638,30.9355356 37.9769496,31.5562041 38.23,32.22 Z" id="path804" fill="#8C4200"></path>
                <path d="M31,25.53 L30.94,25.53 C30.7412706,25.5033689 30.5522738,25.4277702 30.39,25.31 C30.1601517,25.1278511 30.0125562,24.8614594 29.98,24.57 C29.9666332,24.4370017 29.9666332,24.3029983 29.98,24.17 C30.0103423,23.9439851 30.1000559,23.7300528 30.24,23.55 L30.4,23.4 C30.5163537,23.3140133 30.6490782,23.2527559 30.79,23.22 C31.0259558,23.1576908 31.2740442,23.1576908 31.51,23.22 C31.6692535,23.2693703 31.8091022,23.3672644 31.91,23.5 C31.9849537,23.6091756 32.0391892,23.7312054 32.07,23.86 C32.0772216,23.9035354 32.051812,23.9458848 32.01,23.96 L31.86,23.96 C31.72,23.96 31.7,23.96 31.67,23.96 C31.64,23.96 31.67,23.96 31.67,23.87 L31.67,23.76 C31.6535248,23.7223568 31.6297303,23.6883646 31.6,23.66 C31.5720105,23.6298362 31.5379221,23.6059744 31.5,23.59 C31.3754756,23.5310751 31.2363326,23.5102036 31.1,23.53 C30.9883304,23.543738 30.8818146,23.58497 30.79,23.65 C30.60593,23.8215848 30.5133208,24.0697774 30.54,24.32 C30.4985813,24.6616626 30.7390143,24.9733351 31.08,25.02 C31.1761531,25.0340911 31.2738469,25.0340911 31.37,25.02 C31.493573,24.9929024 31.6118281,24.9456004 31.72,24.88 L31.72,24.62 L31,24.62 C31,24.62 31,24.62 31,24.45 C31,24.28 31,24.3 31,24.28 L32,24.28 L32,24.69 C32,25.11 32,25.13 32,25.16 L31.93,25.22 C31.7229262,25.3773735 31.478037,25.4773986 31.22,25.51 L31,25.53 Z" id="path2840" fill="#EC5565"></path>
                <path d="M33.46,25.55 C33.2487151,25.5434572 33.046657,25.461925 32.89,25.32 C32.7440757,25.1658801 32.6619027,24.9622339 32.66,24.75 C32.66,24.67 32.66,24.59 32.66,23.98 C32.6411746,23.7437077 32.6411746,23.5062923 32.66,23.27 L32.84,23.27 C33,23.27 33,23.27 33.03,23.27 L33.03,24 C33.03,24.63 33.03,24.72 33.03,24.77 C33.0312802,24.8598725 33.0670866,24.9458079 33.13,25.01 C33.2103768,25.0867502 33.3190611,25.1266011 33.43,25.12 C33.5358821,25.1293347 33.642422,25.1121509 33.74,25.07 C33.83,25.07 33.88,24.95 33.91,24.79 C33.926795,24.5336081 33.926795,24.2763919 33.91,24.02 C33.91,23.23 33.91,23.29 33.91,23.26 L34.1,23.26 C34.29,23.26 34.28,23.26 34.31,23.26 L34.31,23.9 C34.3276413,24.1964044 34.3276413,24.4935956 34.31,24.79 C34.2961808,25.0062977 34.1906696,25.2064052 34.02,25.34 L33.89,25.42 C33.7989167,25.4656848 33.7009445,25.49609 33.6,25.51 L33.46,25.55 Z" id="path2842" fill="#EC5565"></path>
                <path d="M36.29,25.51 C36.2757094,25.4852479 36.2757094,25.4547521 36.29,25.43 C36.29,25.43 37.1,23.31 37.12,23.3 C37.14,23.29 37.12,23.3 37.34,23.3 C37.56,23.3 37.54,23.3 37.56,23.3 L38,24.38 C38.38,25.31 38.43,25.44 38.43,25.47 C38.44075,25.4920952 38.44075,25.5179048 38.43,25.54 C38.43,25.54 38.43,25.54 38.22,25.54 L38.03,25.54 C38.03,25.54 38.03,25.54 37.88,25.2 L37.77,24.93 L37.01,24.93 L36.9,25.22 L36.79,25.52 C36.79,25.52 36.79,25.52 36.6,25.52 L36.29,25.51 Z M37.5,24.45 L37.29,23.88 L37.07,24.46 L37.52,24.46 L37.5,24.45 Z" id="path2844" fill="#EC5565"></path>
                <path d="M39,25.51 C38.9720855,25.4998974 38.9501026,25.4779145 38.94,25.45 C38.94,25.45 38.94,25.08 38.94,24.36 L38.94,23.27 C38.94,23.27 38.94,23.27 39.22,23.27 L39.47,23.27 L39.74,24.05 L40,24.82 L40.27,24.06 C40.43,23.58 40.54,23.29 40.55,23.28 C40.56,23.27 40.55,23.28 40.81,23.28 L41.04,23.28 L41.04,24.38 C41.04,25.38 41.04,25.46 41.04,25.47 L40.88,25.47 C40.72,25.47 40.72,25.47 40.7,25.47 L40.7,24.22 L40.7,24.3 L40.48,24.92 C40.4297638,25.1134929 40.359379,25.3011856 40.27,25.48 L39.96,25.48 L39.74,24.84 L39.52,24.21 C39.52,24.21 39.52,24.49 39.52,24.83 C39.52,25.53 39.52,25.47 39.52,25.5 L39,25.5 L39,25.51 Z" id="path2846" fill="#EC5565"></path>
                <path d="M29.82,17.58 C29.8366119,17.675953 29.8366119,17.774047 29.82,17.87 C29.82,17.87 30.38,17.42 30.38,17.44 C30.38,17.46 30.38,17.74 30.38,17.74 C30.38,17.74 30.92,17.22 30.95,17.28 C30.9628943,17.3996536 30.9628943,17.5203464 30.95,17.64 L31.38,17.17 C31.38,17.12 31.38,17.23 31.38,17.42 C31.38,17.42 31.97,16.98 32.01,16.97 C32.05,16.96 32.11,17.21 32.11,17.28 C32.11,17.35 32.66,16.97 32.63,17.01 L32.63,17.29 C32.8701999,17.2171283 33.1190808,17.1767693 33.37,17.17 C33.44,17.17 33.44,17.17 33.37,17.24 C32.3704478,17.6003145 31.5354922,18.310915 31.02,19.24 C30.892294,19.4278358 30.8323384,19.653551 30.85,19.88 C30.85,19.88 31.04,19.47 31.26,19.41 C31.26,19.41 31.26,19.67 31.34,19.66 C31.4155389,19.464954 31.5092865,19.2774588 31.62,19.1 C31.62,19.1 31.7,19.32 31.74,19.28 C31.7944435,19.1095961 31.8791282,18.9503888 31.99,18.81 C31.99,18.81 32.06,19.07 32.08,19.05 C32.1,19.03 32.41,18.5 32.48,18.47 C32.55,18.44 32.53,18.8 32.58,18.77 C32.6787063,18.5573695 32.8103224,18.3616326 32.97,18.19 C33.06,18.13 33.06,18.46 33.06,18.46 C33.2381751,18.2655087 33.401942,18.0582935 33.55,17.84 C33.55,17.78 33.55,18.24 33.62,18.26 C33.69,18.28 34.08,17.91 34.13,17.9 C34.18,17.89 34.19,18.01 34.13,18.1 L33.63,18.67 C33.73,18.67 33.76,18.67 33.83,18.67 C33.9,18.67 33.45,19.06 33.46,19.12 C33.47,19.18 33.74,19.12 33.65,19.12 C33.56,19.12 33.21,19.64 33.21,19.62 C33.21,19.6 33.4,19.62 33.4,19.68 C33.3186952,19.8937974 33.2147716,20.0982923 33.09,20.29 C33.09,20.29 33.26,20.29 33.28,20.29 C33.3,20.29 32.96,20.8 33.03,20.87 C33.1,20.94 33.24,20.87 33.32,20.87 C33.3944153,21.1033365 33.4381163,21.3453731 33.45,21.59 C33.4996645,21.2823301 33.5698206,20.9783203 33.66,20.68 C33.66,20.55 33.87,20.87 33.88,20.84 C33.8631307,20.6203234 33.8631307,20.3996766 33.88,20.18 C33.88,20.12 34,20.24 34,20.18 C33.9850926,20.0537719 33.9850926,19.9262281 34,19.8 C34,19.71 34.12,19.97 34.15,19.9 C34.0939557,19.7120328 34.0702849,19.5159036 34.08,19.32 C34.08,19.24 34.19,19.52 34.24,19.53 C34.2149992,19.3843987 34.2149992,19.2356013 34.24,19.09 L34.4,19.27 C34.4,19.21 34.4,18.67 34.46,18.62 C34.52,18.57 34.66,18.82 34.68,18.79 C34.7,18.76 34.61,18.35 34.63,18.32 C34.65,18.29 34.85,18.43 34.85,18.43 C34.85,18.43 34.92,18.16 34.96,18.09 C35,18.02 35.54,17.87 35.59,18.01 C35.6091905,18.0922285 35.6091905,18.1777715 35.59,18.26 C35.6729365,18.2715014 35.7570635,18.2715014 35.84,18.26 C35.8264391,18.4163732 35.8264391,18.5736268 35.84,18.73 C35.84,18.73 36.08,18.73 36.09,18.73 C36.09,18.96 36.09,18.98 36.09,18.98 C36.09,18.98 36.25,18.98 36.26,18.98 C36.2724674,19.1162788 36.2409243,19.2529655 36.17,19.37 C36.17,19.37 36.4,19.37 36.4,19.37 C36.4302353,19.5554423 36.4302353,19.7445577 36.4,19.93 C36.4,19.93 36.64,19.76 36.64,19.78 C36.64,19.99 36.64,20.21 36.64,20.43 C36.64,20.43 36.8,20.28 36.81,20.34 C36.82,20.4 36.81,20.81 36.81,20.83 C36.903034,20.8194286 36.996966,20.8194286 37.09,20.83 C37.2133716,20.9735158 37.2713525,21.1619537 37.25,21.35 C37.3069939,21.0830077 37.3069939,20.8069923 37.25,20.54 C37.25,20.54 37.45,20.54 37.44,20.48 C37.2752126,20.3575052 37.1670011,20.1735456 37.14,19.97 C37.14,19.89 37.35,19.91 37.35,19.91 C37.35,19.91 37.17,19.74 37.08,19.59 C36.99,19.44 37.32,19.52 37.32,19.51 C37.32,19.5 37.09,19.3 36.97,19.16 C36.85,19.02 37.22,19.09 37.22,19.09 C37.22,19.09 36.85,18.92 36.7,18.76 C36.55,18.6 36.99,18.59 36.99,18.57 C36.99,18.55 36.6,18.4 36.43,18.26 C36.26,18.12 36.65,18.13 36.65,18.13 C36.65,18.13 36.07,17.71 36.35,17.74 C36.47,17.74 36.71,17.92 36.73,17.9 C36.7183727,17.8204225 36.7183727,17.7395775 36.73,17.66 C36.82,17.56 37.14,18.07 37.25,18.05 C37.36,18.03 37.25,17.69 37.34,17.68 C37.43,17.67 37.6,18.21 37.72,18.21 C37.84,18.21 37.72,17.89 37.8,17.87 C37.88,17.85 37.94,18.23 38.03,18.31 C38.12,18.39 38.11,18.02 38.16,18.09 C38.21,18.16 38.26,18.44 38.37,18.55 C38.48,18.66 38.45,18.22 38.53,18.28 C38.61,18.34 38.6,18.55 38.7,18.65 C38.8,18.75 38.78,18.39 38.84,18.43 C38.9,18.47 38.92,18.85 38.97,18.91 C39.02,18.97 39.11,18.71 39.18,18.75 C39.25,18.79 39.18,19.11 39.26,19.18 C39.34,19.25 39.4,19 39.47,19.05 C39.54,19.1 39.61,19.46 39.65,19.49 C39.69,19.52 39.79,19.32 39.85,19.35 C39.91,19.38 40,19.86 40.04,19.85 C40.1118202,19.3075557 39.9953338,18.7568925 39.71,18.29 C38.9262707,17.5307977 37.881097,17.1012743 36.79,17.09 C36.79,17.09 37.29,16.99 37.31,16.91 C37.33,16.83 37.59,16.76 37.76,16.8 C37.93,16.84 37.76,16.51 37.76,16.5 C37.9205333,16.5179878 38.0728884,16.5803149 38.2,16.68 C38.2,16.68 38.11,16.38 38.2,16.41 C38.29,16.44 38.6,16.55 38.73,16.69 C38.86,16.83 38.73,16.44 38.73,16.44 C38.73,16.44 39.01,16.55 39.09,16.68 C39.17,16.81 39.09,16.34 39.09,16.41 C39.09,16.48 39.42,16.52 39.46,16.66 C39.5,16.8 39.46,16.41 39.53,16.42 C39.6,16.43 39.78,16.68 39.89,16.71 C40,16.74 39.89,16.48 39.89,16.49 C40.0709427,16.5438582 40.2453449,16.6176438 40.41,16.71 C40.27,16.36 39.73,15.98 38.79,15.89 C38.298194,15.8520903 37.803508,15.8823772 37.32,15.98 C36.83,16.09 36.44,16.16 36.52,16.08 C36.8177039,15.8649569 37.1591295,15.7181439 37.52,15.65 C37.62,15.6 37.17,15.42 37.26,15.4 C37.35,15.38 37.75,15.35 37.75,15.35 C37.75,15.35 37.46,15.15 37.51,15.05 C37.56,14.95 38.29,15.05 38.35,14.96 C38.41,14.87 38.06,14.75 38.08,14.73 C38.1,14.71 38.72,14.8 38.74,14.73 L38.43,14.48 C38.43,14.48 38.96,14.32 38.96,14.32 C38.8927668,14.2697097 38.8186824,14.2293001 38.74,14.2 C38.63,14.2 39.22,14 39.22,14 C38.47,13.66 36.51,14.64 36.12,15.65 C36.02,15.89 36.02,15.65 36.04,15.42 C36.0614129,15.213888 36.0614129,15.006112 36.04,14.8 C36.04,14.74 35.88,14.96 35.87,14.9 C35.87,14.68 35.95,14.45 35.87,14.21 C35.87,14.13 35.65,14.45 35.62,14.37 C35.59,14.29 35.68,13.84 35.62,13.53 C35.62,13.41 35.41,13.79 35.34,13.68 C35.27,13.57 35.34,13.1 35.26,13.03 C35.18,12.96 35.06,13.25 35.05,13.2 C34.82,12.36 35.13,12.25 34.68,12.73 C34.68,12.73 34.57,12.23 34.55,12.25 C34.37,12.64 34.07,11.97 33.97,12.03 C33.87,12.09 34.18,12.34 34.18,12.45 C34.18,12.56 33.92,12.51 33.92,12.51 C33.92,12.51 34.42,12.88 34.44,12.98 C34.46,13.08 34.09,13.05 34.09,13.05 C34.09,13.05 34.51,13.28 34.54,13.41 C34.57,13.54 34.35,13.49 34.35,13.56 C34.35,13.63 34.75,13.88 34.76,13.99 C34.77,14.1 34.51,14.1 34.51,14.17 C34.51,14.24 35.02,14.54 35.03,14.63 C35.04,14.72 34.82,14.69 34.73,14.74 C34.64,14.79 35.16,15.15 35.18,15.24 C35.2,15.33 34.96,15.24 34.95,15.32 C34.94,15.4 35.22,15.57 35.29,15.73 C35.36,15.89 35.29,15.94 35.19,15.87 C35.09,15.8 34.24,14.93 34.04,14.72 C33.6414653,14.3212433 33.1123654,14.0797748 32.55,14.04 C32.49,14.04 32.87,14.33 32.87,14.43 C32.87,14.53 32.7,14.49 32.71,14.5 C32.8452018,14.5968452 32.9933089,14.6742648 33.15,14.73 L33.06,14.9 C33.06,14.9 33.24,14.96 33.49,15.05 C33.49,15.05 33.3,15.17 33.32,15.18 C33.4404147,15.2588996 33.5718366,15.3195558 33.71,15.36 L33.46,15.44 C33.46,15.44 34.03,15.72 34.03,15.72 C33.9692989,15.7724833 33.9124833,15.8292989 33.86,15.89 C34.0121494,15.9506722 34.1694506,15.9975279 34.33,16.03 L34.03,16.14 C34.14,16.25 34.45,16.29 34.53,16.48 C34.53,16.48 34.53,16.59 34.45,16.57 C33.6055094,16.1975691 32.6763168,16.0593992 31.76,16.17 C30.7142962,16.3411096 29.7792105,16.9201435 29.16,17.78 C29.16,17.78 29.76,17.5 29.82,17.58 Z" id="path805" fill="#51C161"></path>
                <ellipse id="Oval" fill="#8C4200" transform="translate(35.509991, 17.619510) rotate(-32.790000) translate(-35.509991, -17.619510) " cx="35.3199909" cy="17.4495103" rx="1" ry="1"></ellipse>
                <ellipse id="Oval" fill="#8C4200" transform="translate(35.893217, 18.067845) rotate(-57.210000) translate(-35.893217, -18.067845) " cx="35.7732168" cy="17.9278449" rx="1" ry="1"></ellipse>
                <ellipse id="Oval" fill="#8C4200" transform="translate(35.421077, 18.380771) rotate(-57.210000) translate(-35.421077, -18.380771) " cx="35.331077" cy="18.2607707" rx="1" ry="1"></ellipse>
                <rect id="Rectangle-path" fill="#434A54" x="32.36" y="30.37" width="1" height="1"></rect>
                <path d="M30,30.59 C31.6678005,30.7195445 33.3448498,30.6625249 35,30.42 C35,30.42 35.16,30.53 34.93,30.8 C34.7,31.07 34.12,31.13 33.8,31.18 C33.7621447,31.2620893 33.7384762,31.3500009 33.73,31.44 C33.73,31.53 33.93,31.52 34.03,31.5 L34.13,31.5 C34.13,31.5 34.13,31.84 32.91,31.88 C32.52,31.88 31.25,31.88 30.98,31.54 C31.0764336,31.5494936 31.1735664,31.5494936 31.27,31.54 C31.33,31.54 31.27,31.28 31.27,31.24 C30.8255821,31.2263187 30.3933502,31.0914623 30.02,30.85 C29.9447784,30.7765241 29.8926455,30.6826849 29.87,30.58 L30,30.59 Z M31.62,31.24 C32.22828,31.3047828 32.84172,31.3047828 33.45,31.24 C33.4711756,31.3253732 33.4711756,31.4146268 33.45,31.5 C32.8737152,31.5928395 32.2862848,31.5928395 31.71,31.5 C31.58,31.5 31.58,31.39 31.61,31.25 L31.62,31.24 Z" id="Shape" fill="#8C4200"></path>
                <path d="M30.42,30.44 C31.2173962,29.3534721 31.5088362,27.9764184 31.22,26.66 C32.239865,27.0619929 33.0954739,27.7943659 33.65,28.74 C34.0170937,29.2289821 34.2823297,29.786658 34.43,30.38 L30.42,30.44 Z" id="Shape" fill="#FDF9FF"></path>
            </g>
        </g>
    </g>
</svg>