<?xml version="1.0" encoding="UTF-8"?>
<svg width="71px" height="48px" viewBox="0 0 71 48" version="1.1" xmlns="http://www.w3.org/2000/svg" xmlns:xlink="http://www.w3.org/1999/xlink">
    <!-- Generator: Sketch 48.1 (47250) - http://www.bohemiancoding.com/sketch -->
    <title>Guinea-Bissau-2@2x</title>
    <desc>Created with Sketch.</desc>
    <defs></defs>
    <g id="Flags" stroke="none" stroke-width="1" fill="none" fill-rule="evenodd" transform="translate(-239.000000, -866.000000)">
        <g transform="translate(70.000000, 70.000000)" fill-rule="nonzero" id="Guinea-Bissau-2">
            <g transform="translate(169.000000, 796.000000)">
                <path d="M64.16,0.68 L6.89,0.68 C3.37746899,0.68 0.53,3.52746801 0.53,7.03999782 L0.53,24.6799918 L70.53,24.6799918 L70.53,6.99999783 C70.5079864,3.49919515 67.6608687,0.674426272 64.16,0.68 Z" id="Shape" fill="#F6D660"></path>
                <path d="M0.52,41.32 C0.52,44.832531 3.36746899,47.68 6.88,47.68 L64.15,47.68 C67.662531,47.68 70.51,44.832531 70.51,41.32 L70.51,24.68 L0.51,24.68 L0.52,41.32 Z" id="Shape" fill="#52C162"></path>
                <path d="M6.89,0.68 C3.37746899,0.68 0.53,3.52746899 0.53,7.04 L0.53,41.31 C0.53,44.822531 3.37746899,47.67 6.89,47.67 L23.53,47.67 L23.53,0.67 L6.89,0.68 Z" id="Shape" fill="#ED5565"></path>
                <path d="M9.15,29.5 C8.65,29.86 8.35,29.66 8.5,29.05 L9.04,26.8 C9.17231617,26.1260467 8.94955746,25.4313416 8.45,24.96 L6.8,23.54 C6.33,23.14 6.45,22.79 7.07,22.77 L9.38,22.7 C10.0405076,22.6475124 10.6065409,22.2072642 10.82,21.58 L11.54,19.12 C11.71,18.52 12.03,18.52 12.24,19.12 L13.11,21.54 C13.3616499,22.157761 13.9443187,22.5772825 14.61,22.62 L16.96,22.62 C17.58,22.62 17.7,22.97 17.23,23.37 L15.45,25 C14.9653428,25.4752686 14.7643435,26.1692853 14.92,26.83 L15.49,28.83 C15.66,29.43 15.37,29.65 14.85,29.33 L12.94,28.15 C12.3491629,27.8261623 11.6289853,27.8491467 11.06,28.21 L9.15,29.5 Z" id="Shape_2_copy_35" fill="#434A54"></path>
            </g>
        </g>
    </g>
</svg>