<?xml version="1.0" encoding="UTF-8"?>
<svg width="71px" height="48px" viewBox="0 0 71 48" version="1.1" xmlns="http://www.w3.org/2000/svg" xmlns:xlink="http://www.w3.org/1999/xlink">
    <!-- Generator: Sketch 48.1 (47250) - http://www.bohemiancoding.com/sketch -->
    <title>Guyana@2x</title>
    <desc>Created with Sketch.</desc>
    <defs></defs>
    <g id="Flags" stroke="none" stroke-width="1" fill="none" fill-rule="evenodd" transform="translate(-408.000000, -866.000000)">
        <g transform="translate(70.000000, 70.000000)" fill-rule="nonzero" id="Guyana">
            <g transform="translate(338.000000, 796.000000)">
                <rect id="Rounded_Rectangle_7_copy-25" fill="#52C162" x="0.77" y="0.68" width="70" height="47" rx="6.36"></rect>
                <path d="M3.47,1.85 C1.77631717,3.03971479 0.768746151,4.98022194 0.77,7.05 L0.77,41.32 C0.770114782,43.4863807 1.87466685,45.5032249 3.7,46.67 L59.14,24.78 L3.47,1.85 Z" id="Shape" fill="#FFFFFF"></path>
                <path d="M1.42,4.25 C0.991482633,5.12113903 0.76908242,6.07917072 0.77,7.05 L0.77,41.32 C0.768139466,42.366626 1.02582846,43.397382 1.52,44.32 L51.13,24.74 L1.42,4.25 Z" id="Shape" fill="#FFCE54"></path>
                <path d="M2.39,2.81 C1.34079736,3.97298918 0.760037934,5.48367628 0.76,7.05 L0.76,41.32 C0.758643392,42.9652764 1.39692891,44.5466467 2.54,45.73 L32.54,24.78 L2.39,2.81 Z" id="Shape" fill="#434A54"></path>
                <path d="M1,5.48 C0.868223567,5.99296463 0.801036813,6.52038065 0.8,7.05 L0.8,41.32 C0.799028528,41.9327075 0.886600089,42.5423403 1.06,43.13 L27.38,24.73 L1,5.48 Z" id="Shape" fill="#ED5565"></path>
            </g>
        </g>
    </g>
</svg>