<?xml version="1.0" encoding="UTF-8"?>
<svg width="71px" height="47px" viewBox="0 0 71 47" version="1.1" xmlns="http://www.w3.org/2000/svg" xmlns:xlink="http://www.w3.org/1999/xlink">
    <!-- Generator: Sketch 48.1 (47250) - http://www.bohemiancoding.com/sketch -->
    <title>Haiti@2x</title>
    <desc>Created with Sketch.</desc>
    <defs></defs>
    <g id="Flags" stroke="none" stroke-width="1" fill="none" fill-rule="evenodd" transform="translate(-70.000000, -928.000000)">
        <g transform="translate(70.000000, 70.000000)" id="Haiti">
            <g transform="translate(0.000000, 858.000000)">
                <g id="Guinea-Bissau" fill-rule="nonzero">
                    <path d="M63.92,-2.7788611e-12 L6.65,-2.7788611e-12 C3.13746899,-2.7788611e-12 0.29,2.84746802 0.29,6.35999784 L0.29,23.9999919 L70.29,23.9999919 L70.29,6.32999785 C70.2734725,2.82528428 67.4247493,-0.00554958692 63.92,-2.5514875e-12 Z" id="Shape" fill="#4758A9"></path>
                    <path d="M0.28,40.6 C0.26933455,42.2954313 0.936067452,43.9249419 2.1321224,45.1266297 C3.32817735,46.3283176 4.95453727,47.0026994 6.65,47 L63.92,47 C67.432531,47 70.28,44.152531 70.28,40.64 L70.28,24 L0.279873984,24 L0.28,40.6 Z" id="Shape" fill="#ED5565"></path>
                </g>
                <rect id="Rectangle-path" fill="#FFFFFF" fill-rule="nonzero" x="21.28" y="11.84" width="28" height="23.25"></rect>
                <polygon id="Shape" fill="#57A863" fill-rule="nonzero" points="35.12 26.45 21.28 32.2 21.28 35.09 49.28 35.09 49.28 32.2"></polygon>
                <polygon id="Shape" fill="#4758A9" fill-rule="nonzero" points="45.05 24.21 36.27 29.06 44.41 29.06"></polygon>
                <polyline id="Shape" fill="#4758A9" fill-rule="nonzero" points="35.29 27.52 41.98 24.18 41.1 19.99 35.29 26.42"></polyline>
                <path d="M42.1,18.84 L35.29,26.43" id="Shape" stroke="#F6D660" stroke-width="0.6" stroke-linecap="round" stroke-linejoin="round"></path>
                <circle id="Oval" fill="#F6D660" fill-rule="nonzero" transform="translate(41.070965, 20.001871) rotate(-19.580000) translate(-41.070965, -20.001871) " cx="41.0709647" cy="20.0018706" r="1"></circle>
                <polyline id="Shape" fill="#4758A9" fill-rule="nonzero" points="35.29 28.66 43.43 26.32 43.32 22.04 35.34 28.15"></polyline>
                <path d="M44.49,21.09 L35.3,28.09" id="Shape" stroke="#F6D660" stroke-width="0.6" stroke-linecap="round" stroke-linejoin="round"></path>
                <circle id="Oval" fill="#F6D660" fill-rule="nonzero" transform="translate(43.304513, 22.036791) rotate(-8.750000) translate(-43.304513, -22.036791) " cx="43.3045134" cy="22.0367912" r="1"></circle>
                <path d="M35.28,29.51 L46.4,23.46" id="Shape" stroke="#F6D660" stroke-width="0.6" stroke-linecap="round" stroke-linejoin="round"></path>
                <circle id="Oval" fill="#F6D660" fill-rule="nonzero" cx="45.05" cy="24.21" r="1"></circle>
                <polygon id="Shape" fill="#4758A9" fill-rule="nonzero" points="25.52 24.21 26.16 29.06 34.3 29.06"></polygon>
                <polyline id="Shape" fill="#4758A9" fill-rule="nonzero" points="35.27 27.52 28.58 24.18 29.46 19.99 35.27 26.42"></polyline>
                <polyline id="Shape" fill="#4758A9" fill-rule="nonzero" points="35.27 28.66 27.14 26.32 27.25 22.04 35.23 28.15"></polyline>
                <path d="M28.47,18.84 L35.27,26.43" id="Shape" stroke="#F6D660" stroke-width="0.6" stroke-linecap="round" stroke-linejoin="round"></path>
                <circle id="Oval" fill="#F6D660" fill-rule="nonzero" transform="translate(29.492462, 19.984315) rotate(-70.420000) translate(-29.492462, -19.984315) " cx="29.4924618" cy="19.984315" r="1"></circle>
                <path d="M26.08,21.09 L35.27,28.09" id="Shape" stroke="#F6D660" stroke-width="0.6" stroke-linecap="round" stroke-linejoin="round"></path>
                <circle id="Oval" fill="#F6D660" fill-rule="nonzero" transform="translate(27.299126, 22.068950) rotate(-81.250000) translate(-27.299126, -22.068950) " cx="27.2991257" cy="22.0689495" r="1"></circle>
                <path d="M35.29,29.51 L24.16,23.46" id="Shape" stroke="#F6D660" stroke-width="0.6" stroke-linecap="round" stroke-linejoin="round"></path>
                <circle id="Oval" fill="#F6D660" fill-rule="nonzero" cx="25.51" cy="24.21" r="1"></circle>
                <polygon id="Shape" fill="#ED5565" fill-rule="nonzero" points="32.41 27.3 36.27 26.48 38.07 27.13 39.65 30.32 35.11 31.49 30.92 30.3"></polygon>
                <path d="M39.65,27.53 C39.6742875,25.7661121 38.6356697,24.1605967 37.0168587,23.4596393 C35.3980476,22.7586819 33.5165398,23.099761 32.246792,24.3243552 C30.9770442,25.5489494 30.5680914,27.4168799 31.21,29.06 L39.36,29.06 C39.5483341,28.5717162 39.6465894,28.0533347 39.65,27.53 Z" id="Shape" fill="#ED5565" fill-rule="nonzero"></path>
                <circle id="Oval" fill="#F6D660" fill-rule="nonzero" cx="29.18" cy="30.59" r="1.83"></circle>
                <rect id="Rectangle-path" fill="#F6D660" fill-rule="nonzero" transform="translate(29.200570, 29.090078) rotate(6.070000) translate(-29.200570, -29.090078) " x="25.7505705" y="28.3550782" width="6.9" height="1.47" rx="0.49"></rect>
                <circle id="Oval" fill="#F6D660" fill-rule="nonzero" cx="41.38" cy="30.59" r="1.83"></circle>
                <rect id="Rectangle-path" fill="#F6D660" fill-rule="nonzero" transform="translate(41.401021, 29.087125) rotate(173.930000) translate(-41.401021, -29.087125) " x="37.9510213" y="28.3521251" width="6.9" height="1.47" rx="0.49"></rect>
                <path d="M38.54,22.81 C36.6818736,21.1646846 33.8881264,21.1646846 32.03,22.81 L35.28,26.43 L38.54,22.81 Z" id="Shape" stroke="#F6D660" stroke-width="0.6" fill="#F6D660" fill-rule="nonzero" stroke-linecap="round" stroke-linejoin="round"></path>
                <polygon id="Shape" fill="#F6D660" fill-rule="nonzero" points="36.56 31.07 34 31.07 34.87 15.32 35.69 15.32"></polygon>
                <path d="M35.11,15.28 C35.1412895,15.5163619 35.1138117,15.7567925 35.03,15.98 C35.03,15.98 35.31,15.81 35.3,15.67 L35.18,16.27 L35.47,16.01 L35.21,16.53 L35.61,16.13 C35.5264045,16.3459602 35.4226108,16.5535475 35.3,16.75 L35.64,16.57 L35.35,17.1 C35.35,17.1 35.79,16.83 35.81,16.7 C35.83,16.57 35.46,17.39 35.4,17.4 C35.34,17.41 35.73,17.18 35.78,17.03 C35.6858943,17.2486149 35.5685531,17.4564764 35.43,17.65 C35.43,17.65 35.86,17.35 35.89,17.18 C35.8029212,17.5047381 35.6752478,17.8172019 35.51,18.11 C35.51,18.11 35.8,17.97 35.82,17.91 C35.6801692,18.1638873 35.5088114,18.3990842 35.31,18.61 C35.5145858,18.5379526 35.6924446,18.4054303 35.82,18.23 C35.793211,18.5233912 35.6859362,18.8036898 35.51,19.04 C35.7294974,18.8429451 35.8860232,18.5855472 35.96,18.3 C36.0436506,18.5862421 36.0906919,18.8819306 36.1,19.18 C36.160693,18.7755979 36.160693,18.3644021 36.1,17.96 C36.1,17.96 36.42,18.46 36.39,18.61 C36.39,18.61 36.39,17.61 36.12,17.41 C36.2781683,17.5882489 36.4004084,17.7953779 36.48,18.02 C36.3721378,17.6232557 36.2106485,17.2430829 36,16.89 L36.5,17.48 C36.3504742,17.1063521 36.1592647,16.7507694 35.93,16.42 L36.29,16.84 C36.29,16.84 36.09,16.28 35.93,16.21 C35.8377299,16.1721214 35.7530427,16.1179216 35.68,16.05 L36.11,16.23 C36.11,16.23 35.63,15.53 35.47,15.51 L36.04,16.02 C36.04,16.02 36.04,15.6 35.9,15.51 C36.0775572,15.6678715 36.2323649,15.8496022 36.36,16.05 C36.4066847,15.8451633 36.346462,15.6306201 36.2,15.48 C36.4051958,15.6854631 36.5863599,15.9135956 36.74,16.16 C36.7278193,15.9567148 36.6804497,15.7570858 36.6,15.57 C36.8002043,15.8074581 36.9745227,16.0655834 37.12,16.34 C37.1120022,16.0739801 37.0249707,15.8163669 36.87,15.6 C37.1207369,15.8797061 37.3204334,16.2012513 37.46,16.55 C37.46,16.55 37.39,15.76 37.28,15.67 C37.17,15.58 37.76,16.58 37.83,16.78 C37.83,16.78 37.83,16.19 37.74,16.1 C37.9029331,16.3371178 38.0309103,16.5964401 38.12,16.87 C38.12,16.87 38.12,16.19 37.98,16.1 C38.1414623,16.3481206 38.2755776,16.6129984 38.38,16.89 C38.3688633,16.6992131 38.3318582,16.5108237 38.27,16.33 C38.3956732,16.5001558 38.4935564,16.6891717 38.56,16.89 L38.47,16.39 C38.5780662,16.5462594 38.668611,16.713935 38.74,16.89 L38.65,16.53 C38.7576377,16.6150351 38.8549649,16.7123623 38.94,16.82 C38.7365647,16.5194408 38.5019277,16.2412283 38.24,15.99 C37.7462216,15.7021485 37.2232944,15.4675017 36.68,15.29 C36.56,15.29 35.42,15.22 35.34,15.29 L35.75,15.29 L35.59,15.13 L35.75,15.29 L36,15.29 L35.8,15 L35.98,15.18 L36.32,15.18 C36.2285174,15.0677973 36.1206378,14.9700315 36,14.89 C36.1190568,14.972046 36.2266677,15.0695684 36.32,15.18 L36.61,15.18 L36.29,14.86 L36.61,15.18 C36.7105736,15.1822241 36.8094862,15.2060995 36.9,15.25 C36.800027,15.0965908 36.6862187,14.9526568 36.56,14.82 C36.6925323,14.9470486 36.80694,15.0917407 36.9,15.25 C36.9863938,15.2751044 37.0701256,15.3085971 37.15,15.35 C37.15,15.35 36.97,14.89 36.88,14.84 C37.0254789,14.991494 37.152989,15.1592705 37.26,15.34 C37.26,15.34 37.26,14.86 37.14,14.82 C37.2797607,15.0215993 37.4002894,15.2358725 37.5,15.46 C37.4954927,15.2537144 37.465259,15.0487976 37.41,14.85 C37.5509906,15.0789181 37.6714599,15.3198567 37.77,15.57 C37.7571176,15.364507 37.727012,15.1604575 37.68,14.96 C37.68,14.96 38.02,15.46 37.97,15.57 C37.92,15.68 38.11,15 37.97,14.89 C38.1084861,15.0908299 38.1881438,15.3263394 38.2,15.57 L38.2,15.25 C38.2488043,15.3887448 38.2790661,15.5333288 38.29,15.68 C38.2840802,15.583424 38.2840802,15.486576 38.29,15.39 C38.29,15.39 38.49,15.59 38.45,15.75 C38.4054256,15.469528 38.3212522,15.196806 38.2,14.94 C38.382736,15.1958634 38.5433179,15.4668453 38.68,15.75 C38.68,15.93 38.68,15.57 38.68,15.57 C38.7494866,15.6926489 38.7904986,15.8293556 38.8,15.97 C38.8,15.97 38.91,15.34 38.57,15.07 C38.7609558,15.2674319 38.8866279,15.5187762 38.93,15.79 L39,15.58 C39.0725738,15.7557463 39.119715,15.9409438 39.14,16.13 C39.2137499,15.8467641 39.1467675,15.5453431 38.96,15.32 C39.2378781,15.5827099 39.4088341,15.9388683 39.44,16.32 L39.44,15.73 C39.5471475,15.9227389 39.6310665,16.1275013 39.69,16.34 C39.69,16.34 39.69,15.48 39.15,15.16 C38.592369,14.889823 37.9795945,14.7528902 37.36,14.76 C36.660444,14.7247428 35.959556,14.7247428 35.26,14.76 L35.74,14.53 L35.51,14.53 C35.5865622,14.5356594 35.6634378,14.5356594 35.74,14.53 C35.832485,14.4997561 35.9227109,14.4629974 36.01,14.42 C35.9010399,14.3754101 35.7867511,14.3451572 35.67,14.33 L36.01,14.42 L36.33,14.3 L35.97,14.22 C36.0859802,14.2623122 36.2070152,14.2892088 36.33,14.3 C36.4366074,14.2563545 36.5470978,14.2228725 36.66,14.2 C36.75,14.2 36.35,14 36.2,14 C36.4892473,13.9307595 36.7907527,13.9307595 37.08,14 C36.879621,13.8792949 36.6596198,13.7946791 36.43,13.75 C36.7675963,13.7720068 37.1023907,13.8255739 37.43,13.91 C37.3233121,13.7942476 37.1837093,13.713976 37.03,13.68 C37.2859189,13.6920487 37.5371393,13.7531564 37.77,13.86 C37.5904401,13.7139817 37.3919791,13.5928869 37.18,13.5 C37.4597055,13.5577322 37.7315962,13.6483625 37.99,13.77 C37.99,13.77 37.67,13.43 37.56,13.43 C37.45,13.43 37.99,13.61 37.99,13.61 C37.8934168,13.5201974 37.7859034,13.4429222 37.67,13.38 C37.9532083,13.44961 38.2256846,13.5572549 38.48,13.7 C38.48,13.7 38.05,13.13 37.96,13.13 C38.1216328,13.2050483 38.275675,13.2954644 38.42,13.4 C38.3338047,13.2993709 38.2365217,13.208797 38.13,13.13 C38.3571466,13.2097491 38.5750645,13.3136792 38.78,13.44 C38.5460359,13.1214708 38.1752145,12.932352 37.78,12.93 C37.1956628,13.0466188 36.6368753,13.2667472 36.13,13.58 C35.7255119,13.8109923 35.4010828,14.1598407 35.2,14.58 C35.0684119,14.3129147 34.9074146,14.0613564 34.72,13.83 C34.2721112,13.3459761 33.6576012,13.0494392 33,13 C33.2250469,13.0922284 33.4453239,13.1956918 33.66,13.31 C33.4772038,13.3254542 33.2998651,13.3800199 33.14,13.47 C33.3994158,13.4838116 33.6570936,13.5206227 33.91,13.58 C33.7080872,13.6300529 33.5107287,13.6969541 33.32,13.78 C33.6144591,13.7859184 33.9083082,13.8092928 34.2,13.85 C33.9997788,13.8892355 33.8026117,13.9427045 33.61,14.01 C33.9052051,14.0297077 34.199027,14.0664355 34.49,14.12 C34.58,14.12 33.83,14.24 33.83,14.24 C34.1174004,14.281422 34.3991922,14.3552246 34.67,14.46 L34.17,14.53 C34.17,14.53 34.83,14.67 34.87,14.84 C34.3278032,14.6126757 33.7696333,14.425505 33.2,14.28 C32.5451638,14.102383 31.8548362,14.102383 31.2,14.28 C30.75,14.5 30.29,15.02 30.34,15.34 C30.5140287,15.0341141 30.7614691,14.7763637 31.06,14.59 L30.61,15.2 L31.13,14.75 C31.0029137,14.9008038 30.9046153,15.0736734 30.84,15.26 C30.84,15.44 30.84,15.19 30.84,15.19 C31.0523144,14.902527 31.286332,14.6317353 31.54,14.38 C31.407088,14.5754314 31.2868414,14.7791826 31.18,14.99 C31.18,14.99 31.83,14.33 31.95,14.33 C31.7576343,14.5394061 31.5960172,14.7750977 31.47,15.03 C31.47,15.03 32.1,14.42 32.47,14.37 C32.2794754,14.5178119 32.105167,14.6854162 31.95,14.87 L32.49,14.44 C32.3798481,14.5914546 32.2828291,14.7520379 32.2,14.92 C32.2,14.92 32.56,14.47 32.86,14.44 C32.7259616,14.5709703 32.6053612,14.7150209 32.5,14.87 C32.7094707,14.709382 32.9378404,14.5750469 33.18,14.47 C33.0422536,14.577736 32.915019,14.698274 32.8,14.83 C32.9833562,14.7207953 33.1737769,14.6239146 33.37,14.54 L33.17,14.86 L33.53,14.61 L33.26,14.86 L33.53,14.86 L33.74,14.68 L33.54,14.85 L33.83,14.85 L33.91,14.73 L33.82,14.86 L34.13,14.86 L34.21,14.69 L34.13,14.86 L34.73,14.86 C33.9926238,14.7836429 33.250722,14.7602496 32.51,14.79 C31.601231,14.9338486 30.8087273,15.4867582 30.36,16.29 C30.18,16.79 30.36,16.92 30.36,16.92 C30.36,16.92 30.36,16.26 30.59,16.17 C30.59,16.17 30.5,16.67 30.59,16.8 L30.7,16.37 L30.82,16.62 C30.823704,16.4274787 30.8505638,16.2361027 30.9,16.05 C30.9003221,16.2500611 30.9306598,16.4489416 30.99,16.64 C30.99,16.64 30.99,15.85 31.13,15.64 C31.13,15.64 30.99,16.09 31.13,16.25 C31.13,16.25 31.13,15.52 31.44,15.34 C31.44,15.34 31.15,15.97 31.33,16.15 C31.33,16.15 31.49,15.38 31.85,15.15 C31.85,15.15 31.49,15.63 31.65,15.85 C31.65,15.85 32.03,15.04 32.35,14.94 C32.35,14.94 32.04,15.3 32.08,15.53 C32.08,15.53 32.44,14.94 32.64,14.92 L32.44,15.4 C32.44,15.4 32.8,14.94 32.94,14.92 C33.08,14.9 32.76,15.14 32.78,15.23 L33.19,14.89 L33.07,15.09 L33.3,14.97 L33.44,14.81 L33.3,14.97 L33.63,14.97 L33.73,14.85 L33.63,14.97 L33.89,14.97 L33.89,14.85 L33.89,14.97 L34.07,14.97 L34.07,14.83 L34.07,14.97 L34.3,14.97 C33.9679215,14.9290968 33.6320785,14.9290968 33.3,14.97 C32.8192458,15.2488199 32.3813741,15.595749 32,16 C31.332236,16.4612922 30.9743384,17.2540545 31.07,18.06 C31.0874519,17.8575273 31.1346245,17.6587281 31.21,17.47 C31.21,17.47 31.21,17.81 31.28,17.85 C31.2503995,17.6343443 31.2503995,17.4156557 31.28,17.2 C31.28,17.2 31.28,17.65 31.42,17.7 C31.3981486,17.4204263 31.3981486,17.1395737 31.42,16.86 C31.4252612,17.0236627 31.4556147,17.185548 31.51,17.34 C31.547127,16.9945936 31.6382356,16.6571544 31.78,16.34 C31.6891118,16.6650271 31.6586072,17.0039676 31.69,17.34 C31.7309846,17.1467482 31.7844295,16.9563505 31.85,16.77 C31.85,16.77 31.85,17.06 31.99,17.15 C31.9669684,16.9105526 31.9669684,16.6694474 31.99,16.43 C31.99,16.43 32.06,16.63 32.13,16.77 C32.1162385,16.5969398 32.1162385,16.4230602 32.13,16.25 C32.13,16.25 32.2,16.59 32.38,16.66 C32.3351443,16.5210099 32.3115447,16.3760407 32.31,16.23 C32.31,16.23 32.42,16.48 32.51,16.48 C32.464301,16.3404064 32.434119,16.1962033 32.42,16.05 L32.65,16.37 C32.6042173,16.2133659 32.57407,16.0525802 32.56,15.89 L32.76,16.16 C32.76,16.16 32.6,15.78 32.83,15.66 L32.9,15.98 C32.9162419,15.8368891 32.9795561,15.7032258 33.08,15.6 C33.0594369,15.6718918 33.0594369,15.7481082 33.08,15.82 C33.08,15.82 33.17,15.44 33.26,15.42 L33.26,15.71 C33.3049,15.6108003 33.3657003,15.5195998 33.44,15.44 L33.44,15.62 C33.5796713,15.5246141 33.7308782,15.4473306 33.89,15.39 L34.59,15.39 C34.4764236,15.4565649 34.3692942,15.5335641 34.27,15.62 L34.56,15.62 C34.56,15.62 34.05,15.62 33.91,15.82 C34.105879,15.7951072 34.304121,15.7951072 34.5,15.82 C34.5,15.82 33.91,15.91 33.8,16.09 C34.0099585,16.0410807 34.2244601,16.014268 34.44,16.01 C34.44,16.01 33.89,16.17 33.83,16.28 C34.0030066,16.2649495 34.1769934,16.2649495 34.35,16.28 C34.35,16.28 33.76,16.39 33.69,16.55 C33.69,16.55 34.26,16.48 34.3,16.55 C34.0645463,16.621309 33.8418106,16.7293021 33.64,16.87 L34.1,16.87 C34.1,16.87 33.62,16.98 33.58,17.12 C33.6988027,17.1439731 33.8211973,17.1439731 33.94,17.12 C33.7860526,17.2640533 33.6575745,17.4331034 33.56,17.62 C33.6784895,17.5190123 33.8056481,17.4286628 33.94,17.35 C33.7820977,17.5376727 33.6814383,17.7667598 33.65,18.01 L33.9,17.76 C33.7822855,17.9283776 33.6912171,18.1138873 33.63,18.31 L33.9,18.04 C33.9,18.04 33.79,18.79 33.9,18.9 L33.97,18.09 C33.97,18.09 34.15,18.09 34.33,18.72 L34.13,17.91 C34.13,17.91 34.42,18.11 34.42,18.34 C34.4406835,18.0509704 34.3432579,17.7659104 34.15,17.55 C34.3467489,17.7342618 34.5152302,17.9465484 34.65,18.18 C34.5297408,17.837211 34.3860691,17.5030907 34.22,17.18 L34.67,17.75 C34.661321,17.4343784 34.5325681,17.1339549 34.31,16.91 L34.83,17.34 C34.7707364,17.1181183 34.6798015,16.9059369 34.56,16.71 L34.85,17.05 C34.7573991,16.8192524 34.6364718,16.6009114 34.49,16.4 L34.85,16.78 C34.8144204,16.5291988 34.747219,16.2839137 34.65,16.05 L34.85,16.37 L34.76,15.87 L35,16 C35.001761,15.884713 34.9848766,15.7698992 34.95,15.66 C34.95,15.6 35.04,15.66 35.04,15.66 L35.11,15.22 L35.11,15.28 Z" id="Shape" stroke="#57A863" stroke-width="0.5" fill="#57A863" stroke-linecap="round" stroke-linejoin="round"></path>
                <path d="M35.28,29.21 C36.1503396,29.2154568 36.8545432,29.9196604 36.86,30.79 L33.7,30.79 C33.7054568,29.9196604 34.4096604,29.2154568 35.28,29.21 Z M35.28,28.61 C34.0782943,28.6154748 33.1054748,29.5882943 33.1,30.79 C33.1,31.1213708 33.3686292,31.39 33.7,31.39 L36.87,31.39 C37.2013708,31.39 37.47,31.1213708 37.47,30.79 C37.4645252,29.5882943 36.4917057,28.6154748 35.29,28.61 L35.28,28.61 Z" id="Shape" fill="#ED5565" fill-rule="nonzero"></path>
                <rect id="Rectangle-path" fill="#F6D660" fill-rule="nonzero" x="33.7" y="29.21" width="3.17" height="4.67" rx="1.58"></rect>
                <polyline id="Shape" stroke="#F6D660" stroke-linecap="round" stroke-linejoin="round" points="28.52 29.63 30.86 30.3 35.24 31.55 42.04 29.63"></polyline>
            </g>
        </g>
    </g>
</svg>