<?xml version="1.0" encoding="UTF-8"?>
<svg width="71px" height="48px" viewBox="0 0 71 48" version="1.1" xmlns="http://www.w3.org/2000/svg" xmlns:xlink="http://www.w3.org/1999/xlink">
    <!-- Generator: Sketch 48.1 (47250) - http://www.bohemiancoding.com/sketch -->
    <title>Honduras@2x</title>
    <desc>Created with Sketch.</desc>
    <defs></defs>
    <g id="Flags" stroke="none" stroke-width="1" fill="none" fill-rule="evenodd" transform="translate(-154.000000, -927.000000)">
        <g transform="translate(70.000000, 70.000000)" fill-rule="nonzero" id="Honduras">
            <g transform="translate(84.000000, 857.000000)">
                <g id="Bolivia-8">
                    <path d="M0.9,7.61 L0.9,16.61 L70.9,16.61 L70.9,7.61 C70.9,3.94282926 67.9271707,0.97 64.26,0.97 L7.55,0.97 C5.78723053,0.967345224 4.09575038,1.66574249 2.84834517,2.9112719 C1.60093997,4.15680131 0.899998001,5.84722853 0.9,7.61 Z" id="Shape" fill="#3BAFDA"></path>
                    <polygon id="Shape" fill="#FFFFFF" points="0.9 32.31 70.9 32.31 70.9 16.64 0.9 16.64"></polygon>
                    <path d="M0.9,41.32 C0.889336954,43.0896923 1.58557087,44.7904208 2.83413554,46.0446181 C4.08270021,47.2988154 5.78027762,48.0026974 7.55,48 L64.27,48 C67.9371707,48 70.91,45.0271707 70.91,41.36 L70.91,32.36 L0.91,32.36 L0.9,41.32 Z" id="Shape" fill="#3BAFDA"></path>
                </g>
                <path d="M34.6,26.88 C34.37,27.04 34.24,26.95 34.3,26.68 L34.55,25.68 C34.6034778,25.3756586 34.5023,25.0646305 34.28,24.85 L33.54,24.2 C33.33,24.02 33.38,23.86 33.66,23.85 L34.66,23.85 C34.9592131,23.8254184 35.2149373,23.6247733 35.31,23.34 L35.64,22.22 C35.72,21.95 35.86,21.95 35.96,22.22 L36.35,23.32 C36.4641969,23.6000227 36.7282305,23.7902822 37.03,23.81 L38.09,23.81 C38.37,23.81 38.43,23.97 38.22,24.15 L37.41,24.86 C37.1920662,25.0766753 37.1013354,25.3904528 37.17,25.69 L37.43,26.59 C37.51,26.86 37.38,26.96 37.14,26.81 L36.28,26.27 C36.0181638,26.1139121 35.6918362,26.1139121 35.43,26.27 L34.6,26.88 Z" id="Shape_2_copy_15" fill="#3BAFDA"></path>
                <path d="M23.6,23.38 C23.37,23.54 23.24,23.45 23.3,23.18 L23.55,22.18 C23.6034778,21.8756586 23.5023,21.5646305 23.28,21.35 L22.54,20.7 C22.33,20.52 22.38,20.36 22.66,20.35 L23.66,20.35 C23.9592131,20.3254184 24.2149373,20.1247733 24.31,19.84 L24.64,18.72 C24.72,18.45 24.86,18.45 24.96,18.72 L25.35,19.82 C25.4641969,20.1000227 25.7282305,20.2902822 26.03,20.31 L27.09,20.31 C27.37,20.31 27.43,20.47 27.22,20.65 L26.41,21.36 C26.1920662,21.5766753 26.1013354,21.8904528 26.17,22.19 L26.43,23.09 C26.51,23.36 26.38,23.46 26.14,23.31 L25.28,22.77 C25.0181638,22.6139121 24.6918362,22.6139121 24.43,22.77 L23.6,23.38 Z" id="Shape_2_copy_16-2" fill="#3BAFDA"></path>
                <path d="M23.6,30.38 C23.37,30.54 23.24,30.45 23.3,30.18 L23.55,29.18 C23.6034778,28.8756586 23.5023,28.5646305 23.28,28.35 L22.54,27.7 C22.33,27.52 22.38,27.36 22.66,27.35 L23.66,27.35 C23.9592131,27.3254184 24.2149373,27.1247733 24.31,26.84 L24.64,25.72 C24.72,25.45 24.86,25.44 24.96,25.72 L25.35,26.82 C25.4641969,27.1000227 25.7282305,27.2902822 26.03,27.31 L27.09,27.31 C27.37,27.31 27.43,27.47 27.22,27.65 L26.41,28.36 C26.1920662,28.5766753 26.1013354,28.8904528 26.17,29.19 L26.43,30.09 C26.51,30.36 26.38,30.46 26.14,30.31 L25.28,29.77 C25.0181638,29.6139121 24.6918362,29.6139121 24.43,29.77 L23.6,30.38 Z" id="Shape_2_copy_17-2" fill="#3BAFDA"></path>
                <path d="M45.6,23.38 C45.37,23.54 45.24,23.45 45.3,23.18 L45.55,22.18 C45.6034778,21.8756586 45.5023,21.5646305 45.28,21.35 L44.54,20.7 C44.33,20.52 44.38,20.36 44.66,20.35 L45.66,20.35 C45.9592131,20.3254184 46.2149373,20.1247733 46.31,19.84 L46.64,18.72 C46.72,18.45 46.86,18.45 46.96,18.72 L47.35,19.82 C47.4641969,20.1000227 47.7282305,20.2902822 48.03,20.31 L49.09,20.31 C49.37,20.31 49.43,20.47 49.22,20.65 L48.41,21.36 C48.1920662,21.5766753 48.1013354,21.8904528 48.17,22.19 L48.43,23.09 C48.51,23.36 48.38,23.46 48.14,23.31 L47.28,22.77 C47.0181638,22.6139121 46.6918362,22.6139121 46.43,22.77 L45.6,23.38 Z" id="Shape_2_copy_18-2" fill="#3BAFDA"></path>
                <path d="M45.6,30.38 C45.37,30.54 45.24,30.45 45.3,30.18 L45.55,29.18 C45.6034778,28.8756586 45.5023,28.5646305 45.28,28.35 L44.54,27.7 C44.33,27.52 44.38,27.36 44.66,27.35 L45.66,27.35 C45.9592131,27.3254184 46.2149373,27.1247733 46.31,26.84 L46.64,25.72 C46.72,25.45 46.86,25.44 46.96,25.72 L47.35,26.82 C47.4641969,27.1000227 47.7282305,27.2902822 48.03,27.31 L49.09,27.31 C49.37,27.31 49.43,27.47 49.22,27.65 L48.41,28.36 C48.1920662,28.5766753 48.1013354,28.8904528 48.17,29.19 L48.43,30.09 C48.51,30.36 48.38,30.46 48.14,30.31 L47.28,29.77 C47.0181638,29.6139121 46.6918362,29.6139121 46.43,29.77 L45.6,30.38 Z" id="Shape_2_copy_18-2-2" fill="#3BAFDA"></path>
            </g>
        </g>
    </g>
</svg>