<?xml version="1.0" encoding="UTF-8"?>
<svg width="71px" height="48px" viewBox="0 0 71 48" version="1.1" xmlns="http://www.w3.org/2000/svg" xmlns:xlink="http://www.w3.org/1999/xlink">
    <!-- Generator: Sketch 48.1 (47250) - http://www.bohemiancoding.com/sketch -->
    <title>Hong_Kong@2x</title>
    <desc>Created with Sketch.</desc>
    <defs></defs>
    <g id="Flags" stroke="none" stroke-width="1" fill="none" fill-rule="evenodd" transform="translate(-747.000000, -1111.000000)">
        <g transform="translate(70.000000, 70.000000)" fill-rule="nonzero" id="Hong_Kong">
            <g transform="translate(677.000000, 1041.000000)">
                <rect id="Rectangle-path" fill="#EC5565" x="0.25" y="0.75" width="70" height="47" rx="6.64"></rect>
                <g id="_ffffffff" transform="translate(21.000000, 10.000000)" fill="#FFFFFF">
                    <path d="M15,1 C15.6019725,0.907431971 16.2122271,0.880607591 16.82,0.92 C16.2736489,1.18151007 15.8302177,1.61790277 15.56,2.16 C15.2742246,2.79604132 15.2742246,3.52395868 15.56,4.16 C15.71,4.53 15.98,4.84 16.1,5.22 C16.3341293,5.98598692 16.2952521,6.80947744 15.99,7.55 C15.7579642,8.19671146 15.357515,8.76976798 14.83,9.21 C14.55,9.44 14.19,9.55 13.89,9.76 C13.0387442,10.2811777 12.4773083,11.1676555 12.37,12.16 C12.3016897,12.9442354 12.5666609,13.7210002 13.1,14.3 C12.0928974,13.5212312 11.4292091,12.3804049 11.25,11.12 C11.0442889,9.82248052 11.3141823,8.49432111 12.01,7.38 L11.84,7.27 C10.5968161,9.2539242 10.7164101,11.8012765 12.14,13.66 C12.3437057,13.9148715 12.5751285,14.1462943 12.83,14.35 C11.8536559,13.8623842 10.9862111,13.1820353 10.28,12.35 C9.41314403,11.2989054 8.90197284,9.99997041 8.82,8.64 C8.61527541,4.88511492 11.2852254,1.5844001 15,1 Z M12.31,5.24 C12.31,5.52666667 12.3266667,5.81333333 12.36,6.1 L11.6,6.53 L12.44,6.74 L12.61,7.59 L13.07,6.86 L13.93,6.96 L13.38,6.29 L13.74,5.51 L12.94,5.83 L12.31,5.24 Z" id="Shape"></path>
                    <path d="M1.16,12 C0.757058136,10.4289999 0.872814283,8.76982843 1.49,7.27 C1.57021571,7.86989086 1.84821674,8.42589291 2.28,8.85 C2.78803237,9.28643066 3.45421597,9.49280276 4.12,9.42 C4.55,9.42 4.96,9.22 5.4,9.23 C6.26237567,9.2742028 7.07950326,9.62947566 7.7,10.23 C8.13370632,10.6121598 8.47553746,11.0873051 8.7,11.62 C8.88,12.03 8.85,12.5 9,12.92 C9.29065373,13.9426061 10.0760278,14.7505268 11.09,15.07 C11.7249244,15.250434 12.4024831,15.2080866 13.01,14.95 C11.9436281,15.6626754 10.6414931,15.9317115 9.38,15.7 C8.10327502,15.482651 6.94478612,14.8201512 6.11,13.83 L5.96,13.96 C6.76808835,14.9208084 7.87268831,15.5856791 9.1,15.85 C10.3058983,16.124347 11.569904,15.9650185 12.67,15.4 C12.76,15.34 12.92,15.33 12.93,15.19 L12.93,15.27 C12.68,15.44 12.48,15.66 12.24,15.84 C11.3461739,16.5800593 10.2856514,17.091444 9.15,17.33 C7.8824938,17.5773998 6.5700207,17.4416267 5.38,16.94 C3.27191884,16.0517255 1.69228703,14.2395778 1.1,12.03 L1.16,12 Z M4.85,11.64 C4.85,11.93 4.85,12.21 4.9,12.5 L4.15,12.93 L4.97,13.13 C5.05,13.41 5.09,13.7 5.15,13.99 L5.61,13.26 L6.47,13.36 L5.92,12.69 L6.28,11.91 L5.48,12.22 L4.85,11.64 Z" id="Shape"></path>
                    <path d="M18.46,8.08 C20.8402085,7.43271571 23.386455,8.01396492 25.25,9.63 C26.4049218,10.6507308 27.2182955,12.0016991 27.58,13.5 C27.1498189,13.0437344 26.5727687,12.7534392 25.95,12.68 C25.2852579,12.6463632 24.6354396,12.8846299 24.15,13.34 C23.83,13.61 23.61,13.98 23.26,14.22 C22.491495,14.7191409 21.5637077,14.9118352 20.66,14.76 C19.9040009,14.6898985 19.1964029,14.3573275 18.66,13.82 C18.2087405,13.335893 17.6298099,12.9892279 16.99,12.82 C16.171203,12.5975979 15.2962456,12.7397785 14.59,13.21 C14.2461389,13.450545 13.9565686,13.7605555 13.74,14.12 C14.1328258,13.031456 14.9026812,12.1196918 15.91,11.55 C17.1348238,10.8320157 18.5914783,10.6203344 19.97,10.96 L20.03,10.77 C17.4249207,10.0903269 14.7101365,11.3927468 13.61,13.85 C13.7936834,12.613683 14.2740406,11.4402391 15.01,10.43 C15.8703413,9.2907355 17.083331,8.46801205 18.46,8.09 L18.46,8.08 Z M20.64,10.28 C20.64,10.57 20.64,10.86 20.69,11.14 L19.94,11.56 L20.78,11.78 C20.84,12.06 20.89,12.34 20.95,12.63 L21.42,11.9 L22.28,12 L21.73,11.33 L22.09,10.55 L21.29,10.87 L20.64,10.28 Z" id="Shape"></path>
                    <path d="M14.25,14.46 C15.5648679,14.2337398 16.9160145,14.3543779 18.17,14.81 C19.5302091,15.3325881 20.6749794,16.2977175 21.42,17.55 C22.7338044,19.7645453 22.8019772,22.5028211 21.6,24.78 C20.9657355,25.9446123 20.0385166,26.9235349 18.91,27.62 C19.247682,27.0095285 19.3269097,26.2892766 19.13,25.62 C18.8318852,24.873975 18.22138,24.2963713 17.46,24.04 C16.7056594,23.7169238 16.1165904,23.0989434 15.83,22.33 C15.4941666,21.551895 15.410245,20.6882027 15.59,19.86 C15.7265312,19.4835333 15.8868544,19.1161259 16.07,18.76 C16.4037848,17.9272042 16.378451,16.9934716 16,16.18 C15.6225985,15.3762849 14.8754193,14.8084286 14,14.66 C15.028608,14.6675403 16.0250084,15.0196252 16.83,15.66 C18.0972185,16.61596 18.8856804,18.0760746 18.99,19.66 L19.19,19.66 C19.0331152,17.4274301 17.5687409,15.4997953 15.46,14.75 C15.0662133,14.6161887 14.6554776,14.5387549 14.24,14.52 L14.25,14.46 Z M18.39,19.82 C18.39,20.11 18.39,20.4 18.39,20.7 C18.14,20.83 17.89,20.97 17.65,21.11 L18.48,21.32 C18.54,21.6 18.59,21.89 18.65,22.17 L19.11,21.44 L19.97,21.54 L19.42,20.87 L19.78,20.09 L18.98,20.41 L18.39,19.82 Z" id="Shape"></path>
                    <path d="M13.62,15.08 C14.1560302,17.0194035 13.5204682,19.093753 11.99,20.4 C11.5335484,20.8185194 11.0094588,21.1566417 10.44,21.4 L10.51,21.59 C12.461437,20.7980746 13.81046,18.9865295 14.01,16.89 C14.0530758,16.3597681 14.0091632,15.8260604 13.88,15.31 C14.4961613,16.4936057 14.7958581,17.8164055 14.75,19.15 C14.6599688,20.7420411 13.9913911,22.246341 12.87,23.38 C11.1591432,25.1187205 8.7021561,25.9040588 6.3,25.48 C5.00516285,25.2365628 3.7957094,24.6611248 2.79,23.81 C3.40662723,23.9227836 4.04328244,23.8166744 4.59,23.51 C5.14917484,23.1441305 5.53544905,22.5665242 5.66,21.91 C5.76,21.51 5.72,21.08 5.86,20.69 C6.14928402,19.9133772 6.70116615,19.2624393 7.42,18.85 C7.95491293,18.5081088 8.56677857,18.3052994 9.2,18.26 C9.58,18.26 9.95,18.37 10.33,18.38 C11.316607,18.446159 12.278906,18.0553402 12.94,17.32 C13.460592,16.7166158 13.7004986,15.9205621 13.6,15.13 L13.62,15.08 Z M8.66,20.62 C8.66,20.91 8.66,21.19 8.71,21.48 L7.96,21.9 C8.24,21.97 8.53,22.04 8.8,22.13 C8.8,22.41 8.91,22.69 8.96,22.97 L9.42,22.24 L10.28,22.34 C10.1,22.12 9.92,21.9 9.73,21.68 C9.84,21.41 9.97,21.15 10.09,20.89 L9.29,21.21 L8.66,20.62 Z" id="Shape"></path>
                </g>
            </g>
        </g>
    </g>
</svg>