<?xml version="1.0" encoding="UTF-8"?>
<svg width="71px" height="48px" viewBox="0 0 71 48" version="1.1" xmlns="http://www.w3.org/2000/svg" xmlns:xlink="http://www.w3.org/1999/xlink">
    <!-- Generator: Sketch 48.1 (47250) - http://www.bohemiancoding.com/sketch -->
    <title>Hungary-3@2x</title>
    <desc>Created with Sketch.</desc>
    <defs></defs>
    <g id="Flags" stroke="none" stroke-width="1" fill="none" fill-rule="evenodd" transform="translate(-239.000000, -927.000000)">
        <g transform="translate(70.000000, 70.000000)" fill-rule="nonzero" id="Hungary-3">
            <g transform="translate(169.000000, 857.000000)">
                <g id="Bolivia-10">
                    <path d="M0.52,7.61 L0.52,16.61 L70.52,16.61 L70.52,7.61 C70.52,3.94282926 67.5471707,0.97 63.88,0.97 L7.17,0.97 C5.40723053,0.967345224 3.71575038,1.66574249 2.46834517,2.9112719 C1.22093997,4.15680131 0.519998001,5.84722853 0.52,7.61 Z" id="Shape" fill="#ED5565"></path>
                    <polygon id="Shape" fill="#FFFFFF" points="0.52 32.31 70.52 32.31 70.52 16.64 0.52 16.64"></polygon>
                    <path d="M0.52,41.32 C0.52,44.9871707 3.49282926,47.96 7.16,47.96 L63.88,47.96 C67.5471707,47.96 70.52,44.9871707 70.52,41.32 L70.52,32.32 L0.52,32.32 L0.52,41.32 Z" id="Shape" fill="#57A863"></path>
                </g>
            </g>
        </g>
    </g>
</svg>