<?xml version="1.0" encoding="UTF-8"?>
<svg width="71px" height="48px" viewBox="0 0 71 48" version="1.1" xmlns="http://www.w3.org/2000/svg" xmlns:xlink="http://www.w3.org/1999/xlink">
    <!-- Generator: Sketch 48.1 (47250) - http://www.bohemiancoding.com/sketch -->
    <title>India@2x</title>
    <desc>Created with Sketch.</desc>
    <defs></defs>
    <g id="Flags" stroke="none" stroke-width="1" fill="none" fill-rule="evenodd" transform="translate(-408.000000, -927.000000)">
        <g transform="translate(70.000000, 70.000000)" fill-rule="nonzero" id="India">
            <g transform="translate(338.000000, 857.000000)">
                <g id="Hungary-4">
                    <g id="Bolivia-14">
                        <path d="M0.77,7.61 L0.77,16.61 L70.77,16.61 L70.77,7.61 C70.77,3.94282926 67.7971707,0.97 64.13,0.97 L7.41,0.97 C5.64896251,0.97 3.96005253,1.66956942 2.71481097,2.91481097 C1.46956942,4.16005253 0.77,5.84896251 0.77,7.61 Z" id="Shape" fill="#FC6E51"></path>
                        <polygon id="Shape" fill="#FFFFFF" points="0.77 32.31 70.77 32.31 70.77 16.64 0.77 16.64"></polygon>
                        <path d="M0.77,41.32 C0.77,44.9871707 3.74282926,47.96 7.41,47.96 L64.13,47.96 C67.7971707,47.96 70.77,44.9871707 70.77,41.32 L70.77,32.32 L0.77,32.32 L0.77,41.32 Z" id="Shape" fill="#57A863"></path>
                    </g>
                </g>
                <path d="M41.67,24.09 L41.28,23.42 C41.1488282,23.1655608 41.0738048,22.8859279 41.06,22.6 L41.06,21.82 C41.0460695,21.5519192 40.9048496,21.3066425 40.68,21.16 L40.03,20.79 C39.7877557,20.6372501 39.5827499,20.4322443 39.43,20.19 L39.05,19.54 C38.9033575,19.3151504 38.6580808,19.1739305 38.39,19.16 L37.61,19.16 C37.3240721,19.1461952 37.0444392,19.0711718 36.79,18.94 L36.12,18.56 C35.8811524,18.4388438 35.5988476,18.4388438 35.36,18.56 L34.71,18.94 C34.4563844,19.0732887 34.1762746,19.1484401 33.89,19.16 L33.14,19.16 C32.8719192,19.1739305 32.6266425,19.3151504 32.48,19.54 L32.09,20.21 C31.9369859,20.4520332 31.7320332,20.6569859 31.49,20.81 L30.82,21.2 C30.5951504,21.3466425 30.4539305,21.5919192 30.44,21.86 L30.44,22.61 C30.4284401,22.8962746 30.3532887,23.1763844 30.22,23.43 L29.84,24.08 C29.7204385,24.3192265 29.7204385,24.6007735 29.84,24.84 L30.23,25.51 C30.3611718,25.7644392 30.4361952,26.0440721 30.45,26.33 L30.45,27.11 C30.4639305,27.3780808 30.6051504,27.6233575 30.83,27.77 L31.48,28.14 C31.7224577,28.2924826 31.9275174,28.4975423 32.08,28.74 L32.46,29.39 C32.6066425,29.6148496 32.8519192,29.7560695 33.12,29.77 L33.9,29.77 C34.1859279,29.7838048 34.4655608,29.8588282 34.72,29.99 L35.39,30.37 C35.6288476,30.4911562 35.9111524,30.4911562 36.15,30.37 L36.8,29.99 C37.0533671,29.8560774 37.3336232,29.7808867 37.62,29.77 L38.37,29.77 C38.6380808,29.7560695 38.8833575,29.6148496 39.03,29.39 L39.42,28.72 C39.5747831,28.4793873 39.7793873,28.2747831 40.02,28.12 L40.69,27.73 C40.9148496,27.5833575 41.0560695,27.3380808 41.07,27.07 L41.07,26.32 C41.0815599,26.0337254 41.1567113,25.7536156 41.29,25.5 L41.67,24.85 C41.7911562,24.6111524 41.7911562,24.3288476 41.67,24.09 Z M39.33,24.7 L39.1,25.09 C39.0199518,25.244898 38.9755358,25.4157288 38.97,25.59 L38.97,26 C38.9614805,26.1623741 38.8760469,26.3109542 38.74,26.4 L38.33,26.64 C38.1850297,26.7321202 38.0621202,26.8550297 37.97,27 L37.74,27.41 C37.6509542,27.5460469 37.5023741,27.6314805 37.34,27.64 L36.88,27.64 C36.7091287,27.6470018 36.5418696,27.6913767 36.39,27.77 L36,28 C35.8557697,28.0747207 35.6842303,28.0747207 35.54,28 L35.13,27.77 C34.9749818,27.690266 34.8042231,27.6458688 34.63,27.64 L34.16,27.64 C33.9976259,27.6314805 33.8490458,27.5460469 33.76,27.41 L33.53,27.02 C33.4378798,26.8750297 33.3149703,26.7521202 33.17,26.66 L32.79,26.43 C32.6539531,26.3409542 32.5685195,26.1923741 32.56,26.03 L32.56,25.56 C32.5523643,25.3892252 32.508025,25.2221001 32.43,25.07 L32.2,24.66 C32.126923,24.5153736 32.126923,24.3446264 32.2,24.2 L32.43,23.81 C32.510368,23.6552246 32.5548032,23.4843199 32.56,23.31 L32.56,22.86 C32.5685195,22.6976259 32.6539531,22.5490458 32.79,22.46 L33.2,22.22 C33.3449703,22.1278798 33.4678798,22.0049703 33.56,21.86 L33.79,21.45 C33.8790458,21.3139531 34.0276259,21.2285195 34.19,21.22 L34.65,21.22 C34.8208713,21.2129982 34.9881304,21.1686233 35.14,21.09 L35.53,20.86 C35.6746264,20.786923 35.8453736,20.786923 35.99,20.86 L36.4,21.09 C36.554898,21.1700482 36.7257288,21.2144642 36.9,21.22 L37.37,21.22 C37.5323741,21.2285195 37.6809542,21.3139531 37.77,21.45 L38,21.84 C38.0921202,21.9849703 38.2150297,22.1078798 38.36,22.2 L38.76,22.43 C38.8960469,22.5190458 38.9814805,22.6676259 38.99,22.83 L38.99,23.3 C38.9973216,23.4708227 39.0416784,23.638014 39.12,23.79 L39.35,24.2 C39.423077,24.3446264 39.423077,24.5153736 39.35,24.66 L39.33,24.7 Z" id="Shape" fill="#4758A9"></path>
            </g>
        </g>
    </g>
</svg>