<?xml version="1.0" encoding="UTF-8"?>
<svg width="71px" height="48px" viewBox="0 0 71 48" version="1.1" xmlns="http://www.w3.org/2000/svg" xmlns:xlink="http://www.w3.org/1999/xlink">
    <!-- Generator: Sketch 48.1 (47250) - http://www.bohemiancoding.com/sketch -->
    <title>Iraq@2x</title>
    <desc>Created with Sketch.</desc>
    <defs></defs>
    <g id="Flags" stroke="none" stroke-width="1" fill="none" fill-rule="evenodd" transform="translate(-239.000000, -989.000000)">
        <g transform="translate(70.000000, 70.000000)" fill-rule="nonzero" id="Iraq">
            <g transform="translate(169.000000, 919.000000)">
                <g id="Iran-2">
                    <path d="M0.52,6.89 L0.52,15.89 L70.52,15.89 L70.52,6.89 C70.52,3.22282926 67.5471707,0.25 63.88,0.25 L7.17,0.25 C5.40723053,0.247345224 3.71575038,0.945742489 2.46834517,2.1912719 C1.22093997,3.43680131 0.519998001,5.12722853 0.52,6.89 Z" id="Shape" fill="#ED5565"></path>
                    <polygon id="Shape" fill="#FFFFFF" points="0.52 31.59 70.52 31.59 70.52 15.92 0.52 15.92"></polygon>
                    <path d="M0.52,40.61 C0.52,44.2771707 3.49282926,47.25 7.16,47.25 L63.88,47.25 C67.5471707,47.25 70.52,44.2771707 70.52,40.61 L70.52,31.61 L0.52,31.61 L0.52,40.61 Z" id="Shape" fill="#434A54"></path>
                </g>
                <path d="M23.69,27.13 C23.37,27.36 23.18,27.23 23.27,26.84 L23.62,25.41 C23.7000735,24.9826657 23.561221,24.5435916 23.25,24.24 L22.25,23.33 C21.95,23.07 22.03,22.85 22.42,22.84 L23.89,22.84 C24.3116193,22.8100799 24.6741926,22.5302679 24.81,22.13 L25.27,20.57 C25.38,20.19 25.58,20.18 25.72,20.57 L26.27,22.11 C26.4397646,22.5142849 26.8316158,22.7807438 27.27,22.79 L28.77,22.79 C29.16,22.79 29.24,23.01 28.94,23.27 L27.8,24.27 C27.4913769,24.5704632 27.3624083,25.0104738 27.46,25.43 L27.82,26.69 C27.93,27.07 27.75,27.21 27.41,27.01 L26.19,26.26 C25.822374,26.0453425 25.367626,26.0453425 25,26.26 L23.69,27.13 Z" id="Shape_2_copy_34-2" fill="#57A863"></path>
                <path d="M43.69,27.13 C43.37,27.36 43.18,27.23 43.27,26.84 L43.62,25.41 C43.7000735,24.9826657 43.561221,24.5435916 43.25,24.24 L42.25,23.33 C41.95,23.07 42.03,22.85 42.42,22.84 L43.89,22.84 C44.3116193,22.8100799 44.6741926,22.5302679 44.81,22.13 L45.27,20.57 C45.38,20.19 45.58,20.18 45.72,20.57 L46.27,22.11 C46.4397646,22.5142849 46.8316158,22.7807438 47.27,22.79 L48.77,22.79 C49.16,22.79 49.24,23.01 48.94,23.27 L47.8,24.27 C47.4913769,24.5704632 47.3624083,25.0104738 47.46,25.43 L47.82,26.69 C47.93,27.07 47.75,27.21 47.41,27.01 L46.19,26.26 C45.822374,26.0453425 45.367626,26.0453425 45,26.26 L43.69,27.13 Z" id="Shape_2_copy_34-3" fill="#57A863"></path>
                <path d="M33.69,27.13 C33.37,27.36 33.18,27.23 33.27,26.84 L33.62,25.41 C33.7000735,24.9826657 33.561221,24.5435916 33.25,24.24 L32.25,23.33 C31.95,23.07 32.03,22.85 32.42,22.84 L33.89,22.84 C34.3116193,22.8100799 34.6741926,22.5302679 34.81,22.13 L35.27,20.57 C35.38,20.19 35.58,20.18 35.72,20.57 L36.27,22.11 C36.4397646,22.5142849 36.8316158,22.7807438 37.27,22.79 L38.77,22.79 C39.16,22.79 39.24,23.01 38.94,23.27 L37.8,24.27 C37.4913769,24.5704632 37.3624083,25.0104738 37.46,25.43 L37.82,26.69 C37.93,27.07 37.75,27.21 37.41,27.01 L36.19,26.26 C35.822374,26.0453425 35.367626,26.0453425 35,26.26 L33.69,27.13 Z" id="Shape_2_copy_34-4" fill="#57A863"></path>
            </g>
        </g>
    </g>
</svg>