<?xml version="1.0" encoding="UTF-8"?>
<svg width="71px" height="48px" viewBox="0 0 71 48" version="1.1" xmlns="http://www.w3.org/2000/svg" xmlns:xlink="http://www.w3.org/1999/xlink">
    <!-- Generator: Sketch 48.1 (47250) - http://www.bohemiancoding.com/sketch -->
    <title>Israel@2x</title>
    <desc>Created with Sketch.</desc>
    <defs></defs>
    <g id="Flags" stroke="none" stroke-width="1" fill="none" fill-rule="evenodd" transform="translate(-408.000000, -989.000000)">
        <g transform="translate(70.000000, 70.000000)" fill-rule="nonzero" id="Israel">
            <g transform="translate(338.000000, 919.000000)">
                <rect id="Rounded_Rectangle_7_copy-26" fill="#FFFFFF" x="0.77" y="0.25" width="70" height="47" rx="6.36"></rect>
                <path d="M45.67,19 C45.7999614,18.8547567 45.8216512,18.6423603 45.7237306,18.4738457 C45.62581,18.3053312 45.4305391,18.2190066 45.24,18.26 L40.44,18.26 C39.9029936,18.2336089 39.4083487,17.9604468 39.1,17.52 L36.68,13.52 C36.6101685,13.3318683 36.4306738,13.2070329 36.23,13.2070329 C36.0293262,13.2070329 35.8498315,13.3318683 35.78,13.52 L33.43,17.46 C33.1290914,17.9050397 32.6365318,18.1827988 32.1,18.21 L27.3,18.21 C27.1076965,18.162797 26.907135,18.2468445 26.8059359,18.417043 C26.7047368,18.5872414 26.7266837,18.8035912 26.86,18.95 L29.29,22.95 C29.5371175,23.4159282 29.5371175,23.9740718 29.29,24.44 L26.86,28.44 C26.7266837,28.5864088 26.7047368,28.8027586 26.8059359,28.972957 C26.907135,29.1431555 27.1076965,29.227203 27.3,29.18 L32.09,29.18 C32.6242859,29.2064234 33.1158622,29.479932 33.42,29.92 L35.77,33.86 C35.8433295,34.0413567 36.0193793,34.1600695 36.215,34.1600695 C36.4106207,34.1600695 36.5866705,34.0413567 36.66,33.86 L39,30 C39.3041378,29.559932 39.7957141,29.2864234 40.33,29.26 L45.21,29.26 C45.4005391,29.3009934 45.59581,29.2146688 45.6937306,29.0461543 C45.7916512,28.8776397 45.7699614,28.6652433 45.64,28.52 L43.21,24.52 C42.9611098,24.0545144 42.9611098,23.4954856 43.21,23.03 L45.67,19 Z M36.07,17.93 C36.16,17.75 36.33,17.75 36.44,17.93 C36.55,18.11 36.44,18.26 36.27,18.26 C36.1834934,18.2823378 36.0923244,18.2474953 36.0427653,18.1731565 C35.9932061,18.0988177 35.9961087,18.0012608 36.05,17.93 L36.07,17.93 Z M31.17,26.85 C30.94,26.85 30.85,26.7 30.96,26.53 C30.9992392,26.4528636 31.0784567,26.4042833 31.165,26.4042833 C31.2515433,26.4042833 31.3307608,26.4528636 31.37,26.53 C31.48,26.71 31.37,26.85 31.16,26.85 L31.17,26.85 Z M31.38,21.01 C31.3429922,21.0928459 31.260736,21.1461917 31.17,21.1461917 C31.079264,21.1461917 30.9970078,21.0928459 30.96,21.01 C30.85,20.83 30.96,20.69 31.17,20.69 C31.38,20.69 31.48,20.84 31.37,21.01 L31.38,21.01 Z M36.45,29.61 C36.34,29.79 36.17,29.79 36.08,29.61 C36.0312309,29.5416935 36.0278168,29.4509085 36.0713177,29.3791319 C36.1148187,29.3073554 36.1968794,29.2683734 36.28,29.28 C36.49,29.28 36.56,29.42 36.45,29.6 L36.45,29.61 Z M38.51,26.11 C38.2090914,26.5550397 37.7165318,26.8327988 37.18,26.86 L35.38,26.86 C34.8438353,26.830662 34.3503946,26.5581649 34.04,26.12 L33.04,24.51 C32.794659,24.0471695 32.794659,23.4928305 33.04,23.03 L33.98,21.44 C34.2809086,20.9949603 34.7734682,20.7172012 35.31,20.69 L37.19,20.69 C37.7265318,20.7172012 38.2190914,20.9949603 38.52,21.44 L39.46,23.03 C39.701957,23.4971986 39.701957,24.0528014 39.46,24.52 L38.51,26.11 Z M41.39,26.86 C41.16,26.86 41.07,26.71 41.18,26.54 C41.2192392,26.4628636 41.2984567,26.4142833 41.385,26.4142833 C41.4715433,26.4142833 41.5507608,26.4628636 41.59,26.54 C41.7,26.71 41.59,26.86 41.37,26.86 L41.39,26.86 Z M41.6,21.02 C41.5607608,21.0971364 41.4815433,21.1457167 41.395,21.1457167 C41.3084567,21.1457167 41.2292392,21.0971364 41.19,21.02 C41.08,20.84 41.19,20.7 41.4,20.7 C41.61,20.7 41.72,20.84 41.6,21.02 Z" id="Shape" fill="#4758A9"></path>
                <path d="M64.4,0.25 L7.13,0.25 C3.75724608,0.249895607 0.970910598,2.88265354 0.78,6.25 L70.78,6.25 C70.5884702,2.87105645 67.7843293,0.233933412 64.4,0.25 Z" id="Shape" fill="#4758A9"></path>
                <path d="M7.13,47.25 L64.4,47.25 C67.7727539,47.2501044 70.5590894,44.6173465 70.75,41.25 L0.75,41.25 C0.941529833,44.6289435 3.74567067,47.2660666 7.13,47.25 Z" id="Shape" fill="#4758A9"></path>
            </g>
        </g>
    </g>
</svg>