<?xml version="1.0" encoding="UTF-8"?>
<svg width="71px" height="48px" viewBox="0 0 71 48" version="1.1" xmlns="http://www.w3.org/2000/svg" xmlns:xlink="http://www.w3.org/1999/xlink">
    <!-- Generator: Sketch 48.1 (47250) - http://www.bohemiancoding.com/sketch -->
    <title>kazakhstan@2x</title>
    <desc>Created with Sketch.</desc>
    <defs></defs>
    <g id="Flags" stroke="none" stroke-width="1" fill="none" fill-rule="evenodd" transform="translate(-408.000000, -1050.000000)">
        <g transform="translate(70.000000, 70.000000)" fill-rule="nonzero" id="kazakhstan">
            <g transform="translate(338.000000, 980.000000)">
                <rect id="Rounded_Rectangle_7_copy-27" fill="#3BAFDA" x="0.77" y="0.53" width="70" height="47" rx="6.36"></rect>
                <path d="M54.8,23.81 C52.980293,23.421988 51.1247409,24.2925444 50.26,25.94 C48.3544157,29.491492 44.6504277,31.7075731 40.62,31.7075731 C36.5895723,31.7075731 32.8855843,29.491492 30.98,25.94 C30.1183766,24.2886757 28.262095,23.4136883 26.44,23.8 C27.8599834,30.5008503 33.7753469,35.2940434 40.625,35.2940434 C47.4746531,35.2940434 53.3900166,30.5008503 54.81,23.8 L54.8,23.81 Z" id="Shape" fill="#F6D660"></path>
                <path d="M47.69,23.23 C47.704428,22.849625 47.803499,22.4772546 47.98,22.14 L48.48,21.27 C48.6370699,20.9551699 48.6370699,20.5848301 48.48,20.27 L47.96,19.38 C47.7847388,19.0422642 47.685743,18.6701765 47.67,18.29 L47.67,17.29 C47.6475617,16.9355397 47.4583291,16.6127312 47.16,16.42 L46.29,15.92 C45.9670075,15.7163335 45.6936665,15.4429925 45.49,15.12 L44.99,14.25 C44.7972688,13.9516709 44.4744603,13.7624383 44.12,13.74 L43.12,13.74 C42.7398235,13.724257 42.3677358,13.6252612 42.03,13.45 L41.13,12.94 C40.8151699,12.7829301 40.4448301,12.7829301 40.13,12.94 L39.27,13.45 C38.9327454,13.626501 38.560375,13.725572 38.18,13.74 L37.18,13.74 C36.8255397,13.7624383 36.5027312,13.9516709 36.31,14.25 L35.79,15.15 C35.5852885,15.4721563 35.3121563,15.7452885 34.99,15.95 L34.1,16.47 C33.8027391,16.6670036 33.6170632,16.9937932 33.6,17.35 L33.6,18.35 C33.5859075,18.7304253 33.4868171,19.1028685 33.31,19.44 L32.81,20.31 C32.6529301,20.6248301 32.6529301,20.9951699 32.81,21.31 L33.33,22.2 C33.5049573,22.5378534 33.6039349,22.9098725 33.62,23.29 L33.62,24.29 C33.6424383,24.6444603 33.8316709,24.9672688 34.13,25.16 L35,25.66 C35.3229925,25.8636665 35.5963335,26.1370075 35.8,26.46 L36.3,27.33 C36.4927312,27.6283291 36.8155397,27.8175617 37.17,27.84 L38.17,27.84 C38.5501765,27.855743 38.9222642,27.9547388 39.26,28.13 L40.16,28.64 C40.4748301,28.7970699 40.8451699,28.7970699 41.16,28.64 L42.02,28.13 C42.3571315,27.9531829 42.7295747,27.8540925 43.11,27.84 L44.11,27.84 C44.4644603,27.8175617 44.7872688,27.6283291 44.98,27.33 L45.5,26.44 C45.7047115,26.1178437 45.9778437,25.8447115 46.3,25.64 L47.19,25.12 C47.4872609,24.9229964 47.6729368,24.5962068 47.69,24.24 L47.69,23.23 Z" id="Shape" fill="#F6D660"></path>
                <rect id="Rectangle-path" fill="#F6D660" x="6.77" y="6.8" width="3.68" height="4.92"></rect>
                <rect id="Rectangle_13_copy" fill="#F6D660" x="6.77" y="14.19" width="3.68" height="4.92"></rect>
                <rect id="Rectangle_13_copy_2" fill="#F6D660" x="6.77" y="21.57" width="3.68" height="4.92"></rect>
                <rect id="Rectangle_13_copy_3" fill="#F6D660" x="6.77" y="28.95" width="3.68" height="4.92"></rect>
                <rect id="Rectangle_13_copy_4" fill="#F6D660" x="6.77" y="36.34" width="3.68" height="4.92"></rect>
            </g>
        </g>
    </g>
</svg>