<?xml version="1.0" encoding="UTF-8"?>
<svg width="71px" height="48px" viewBox="0 0 71 48" version="1.1" xmlns="http://www.w3.org/2000/svg" xmlns:xlink="http://www.w3.org/1999/xlink">
    <!-- Generator: Sketch 48.1 (47250) - http://www.bohemiancoding.com/sketch -->
    <title>Kiribati@2x</title>
    <desc>Created with Sketch.</desc>
    <defs>
        <rect id="path-1" x="0.52" y="0.53" width="70" height="47" rx="6.36"></rect>
    </defs>
    <g id="Flags" stroke="none" stroke-width="1" fill="none" fill-rule="evenodd" transform="translate(-154.000000, -1111.000000)">
        <g transform="translate(70.000000, 70.000000)" id="Kiribati">
            <g transform="translate(84.000000, 1041.000000)">
                <g id="Group">
                    <mask id="mask-2" fill="white">
                        <use xlink:href="#path-1"></use>
                    </mask>
                    <use id="Rounded_Rectangle_7_copy-16" fill="#FFFFFF" fill-rule="nonzero" xlink:href="#path-1"></use>
                    <rect id="Rectangle-path" fill="#ED5565" fill-rule="nonzero" mask="url(#mask-2)" x="-4.23" y="0.79" width="82.3" height="45.57"></rect>
                    <path d="M36.92,12.61 C36.5701514,12.6104342 36.234894,12.4698424 35.99,12.22 L33.64,9.84 L28.9,9.29 C27.5961494,9.12851515 26.6671127,7.94488671 26.82,6.64 C26.8275127,6.57085065 26.8624192,6.5075947 26.9169164,6.46437281 C26.9714135,6.42115092 27.0409568,6.40156737 27.11,6.41 L34.4,7.26 C34.6956165,7.29438788 34.9707131,7.42840928 35.18,7.64 L36.92,9.41 L38.66,7.64 C38.8692869,7.42840928 39.1443835,7.29438788 39.44,7.26 L46.73,6.41 C46.7990432,6.40156737 46.8685865,6.42115092 46.9230836,6.46437281 C46.9775808,6.5075947 47.0124873,6.57085065 47.02,6.64 C47.1728873,7.94488671 46.2438506,9.12851515 44.94,9.29 L40.19,9.84 L37.84,12.22 C37.5975378,12.4673754 37.2663777,12.6077585 36.92,12.61 Z" id="Shape" fill="#FFCE54" fill-rule="nonzero" mask="url(#mask-2)"></path>
                    <ellipse id="Oval" fill="#FFCE54" fill-rule="nonzero" mask="url(#mask-2)" cx="36.92" cy="25.01" rx="8.24" ry="8.36"></ellipse>
                    <rect id="Rectangle-path" fill="#4758A9" fill-rule="nonzero" mask="url(#mask-2)" x="-4.23" y="27.59" width="82.3" height="20.25"></rect>
                    <path d="M-4.23,40.4 C-1.49,40.4 1.26,42.19 4,42.19 C6.74,42.19 9.49,40.4 12.23,40.4 C14.97,40.4 17.72,42.19 20.46,42.19 C23.2,42.19 25.95,40.4 28.69,40.4 C31.43,40.4 34.18,42.19 36.92,42.19 C39.66,42.19 42.41,40.4 45.15,40.4 C47.89,40.4 50.64,42.19 53.38,42.19 C56.12,42.19 58.87,40.4 61.61,40.4 C64.35,40.4 67.1,42.19 69.84,42.19 C72.58,42.19 75.33,40.4 78.07,40.4 L78.07,37.4 C75.33,37.4 72.58,39.19 69.84,39.19 C67.1,39.19 64.35,37.4 61.61,37.4 C58.87,37.4 56.12,39.19 53.38,39.19 C50.64,39.19 47.89,37.4 45.15,37.4 C42.41,37.4 39.66,39.19 36.92,39.19 C34.18,39.19 31.43,37.4 28.69,37.4 C25.95,37.4 23.2,39.19 20.46,39.19 C17.72,39.19 14.97,37.4 12.23,37.4 C9.49,37.4 6.74,39.19 4,39.19 C1.26,39.19 -1.49,37.4 -4.23,37.4 L-4.23,40.4 Z" id="w" fill="#FFFFFF" fill-rule="nonzero" mask="url(#mask-2)"></path>
                    <path d="M-4.23,34.44 C-1.49,34.44 1.26,36.23 4,36.23 C6.74,36.23 9.49,34.44 12.23,34.44 C14.97,34.44 17.72,36.23 20.46,36.23 C23.2,36.23 25.95,34.44 28.69,34.44 C31.43,34.44 34.18,36.23 36.92,36.23 C39.66,36.23 42.41,34.44 45.15,34.44 C47.89,34.44 50.64,36.23 53.38,36.23 C56.12,36.23 58.87,34.44 61.61,34.44 C64.35,34.44 67.1,36.23 69.84,36.23 C72.58,36.23 75.33,34.44 78.07,34.44 L78.07,31.44 C75.33,31.44 72.58,33.23 69.84,33.23 C67.1,33.23 64.35,31.44 61.61,31.44 C58.87,31.44 56.12,33.23 53.38,33.23 C50.64,33.23 47.89,31.44 45.15,31.44 C42.41,31.44 39.66,33.23 36.92,33.23 C34.18,33.23 31.43,31.44 28.69,31.44 C25.95,31.44 23.2,33.23 20.46,33.23 C17.72,33.23 14.97,31.44 12.23,31.44 C9.49,31.44 6.74,33.23 4,33.23 C1.26,33.23 -1.49,31.44 -4.23,31.44 L-4.23,34.44 Z" id="w-2" fill="#FFFFFF" fill-rule="nonzero" mask="url(#mask-2)"></path>
                    <path d="M-4.23,28.48 C-1.49,28.48 1.26,30.27 4,30.27 C6.74,30.27 9.49,28.48 12.23,28.48 C14.97,28.48 17.72,30.27 20.46,30.27 C23.2,30.27 25.95,28.48 28.69,28.48 C31.43,28.48 34.18,30.27 36.92,30.27 C39.66,30.27 42.41,28.48 45.15,28.48 C47.89,28.48 50.64,30.27 53.38,30.27 C56.12,30.27 58.87,28.48 61.61,28.48 C64.35,28.48 67.1,30.27 69.84,30.27 C72.58,30.27 75.33,28.48 78.07,28.48 L78.07,25.48 C75.33,25.48 72.58,27.27 69.84,27.27 C67.1,27.27 64.35,25.48 61.61,25.48 C58.87,25.48 56.12,27.27 53.38,27.27 C50.64,27.27 47.89,25.48 45.15,25.48 C42.41,25.48 39.66,27.27 36.92,27.27 C34.18,27.27 31.43,25.48 28.69,25.48 C25.95,25.48 23.2,27.27 20.46,27.27 C17.72,27.27 14.97,25.48 12.23,25.48 C9.49,25.48 6.74,27.27 4,27.27 C1.26,27.27 -1.49,25.48 -4.23,25.48 L-4.23,28.48 Z" id="w-3" fill="#FFFFFF" fill-rule="nonzero" mask="url(#mask-2)"></path>
                </g>
            </g>
        </g>
    </g>
</svg>