<?xml version="1.0" encoding="UTF-8"?>
<svg width="71px" height="48px" viewBox="0 0 71 48" version="1.1" xmlns="http://www.w3.org/2000/svg" xmlns:xlink="http://www.w3.org/1999/xlink">
    <!-- Generator: Sketch 48.1 (47250) - http://www.bohemiancoding.com/sketch -->
    <title>Kosovo@2x</title>
    <desc>Created with Sketch.</desc>
    <defs></defs>
    <g id="Flags" stroke="none" stroke-width="1" fill="none" fill-rule="evenodd" transform="translate(-239.000000, -1111.000000)">
        <g transform="translate(70.000000, 70.000000)" fill-rule="nonzero" id="Kosovo">
            <g transform="translate(169.000000, 1041.000000)">
                <rect id="Rounded_Rectangle_7_copy-17" fill="#4A89DC" x="0.52" y="0.81" width="70" height="47" rx="6.36"></rect>
                <path d="M34.14,18.07 C34.1667261,18.0312336 34.2136546,18.0116801 34.26,18.02 C34.3932764,18.0427166 34.5177827,18.1015112 34.62,18.19 C34.7631916,18.3361937 34.890563,18.4970839 35,18.67 C35,18.74 35.11,18.84 35,18.85 C34.8922412,18.8676182 34.7877414,18.9013279 34.69,18.95 C34.6435555,19.0304443 34.6435555,19.1295557 34.69,19.21 C34.7873682,19.3383433 34.9143024,19.441263 35.06,19.51 C35.14,19.51 35.35,19.62 35.4,19.62 C35.485684,19.6226751 35.5627697,19.6727808 35.6,19.75 C35.5997399,19.8547542 35.6524015,19.9525543 35.74,20.01 C35.82,20.01 36.01,19.86 36.13,19.86 C36.3051355,19.8586459 36.479775,19.8787966 36.65,19.92 C36.7372637,19.9737779 36.8122237,20.0453306 36.87,20.13 C36.87,20.18 36.95,20.22 37.01,20.13 C37.1090156,20.0446983 37.2441758,20.0146627 37.37,20.05 C37.4337685,20.1290433 37.5162632,20.1909144 37.61,20.23 C37.67,20.23 37.81,20.36 37.85,20.36 C37.9331809,20.409938 37.9799582,20.5034925 37.97,20.6 C37.9711057,20.7690299 37.9946447,20.9371651 38.04,21.1 C38.090532,21.1661628 38.1185657,21.2467598 38.12,21.33 C38.1239955,21.502424 38.179742,21.6696635 38.28,21.81 C38.3922199,21.8154536 38.5035488,21.7876214 38.6,21.73 C38.6718253,21.7438207 38.737943,21.7786195 38.79,21.83 C38.8795429,21.9304069 38.9445801,22.0502121 38.98,22.18 C38.9682598,22.3731551 38.9682598,22.5668449 38.98,22.76 C39.0193196,22.9394939 39.0868226,23.1116268 39.18,23.27 C39.2344602,23.3460569 39.3065087,23.4078127 39.39,23.45 C39.4460091,23.3842179 39.5243694,23.3414759 39.61,23.33 C39.7308898,23.3326138 39.8499792,23.3598342 39.96,23.41 L40.13,23.61 C40.1795119,23.6566919 40.2371201,23.6939678 40.3,23.72 C40.3846039,23.758467 40.4714244,23.7918595 40.56,23.82 C40.6598996,23.8331347 40.7574956,23.8600577 40.85,23.9 C40.9310449,23.9221837 40.9996129,23.9763164 41.04,24.05 C40.9666779,24.1700251 40.9317864,24.309591 40.94,24.45 C40.9403283,24.6652614 40.9168523,24.879899 40.87,25.09 C40.819348,25.145303 40.7877985,25.2154129 40.78,25.29 C40.7515529,25.3811657 40.7515529,25.4788343 40.78,25.57 C40.8410703,25.5632926 40.9022857,25.5812971 40.95,25.62 C40.9547513,25.6606953 40.9817264,25.6953776 41.02,25.71 C41.0520297,25.7113281 41.0808683,25.6907291 41.09,25.66 C41.0964208,25.6167718 41.1278227,25.5814446 41.17,25.57 C41.2277242,25.5659458 41.2848555,25.5837993 41.33,25.62 C41.3689343,25.6730589 41.4363865,25.6968656 41.5,25.68 C41.59,25.68 41.9,25.81 42.09,25.81 C42.3286569,25.803712 42.567166,25.827227 42.8,25.88 C42.8072741,25.9435176 42.8277087,26.0048215 42.86,26.06 C42.9205443,26.1220291 42.9964592,26.1668879 43.08,26.19 C43.1640619,26.1863699 43.2463357,26.2149869 43.31,26.27 C43.3205054,26.3537318 43.3593178,26.4313566 43.42,26.49 C43.5014669,26.5454249 43.6085331,26.5454249 43.69,26.49 C43.6885056,26.4242269 43.7230143,26.3628781 43.78,26.33 C43.8347453,26.334644 43.8889902,26.3165624 43.93,26.28 C43.9780171,26.2165911 44.0507357,26.1765959 44.13,26.17 C44.24,26.17 44.39,26.34 44.41,26.3 C44.4527827,26.2456381 44.5217308,26.218825 44.59,26.23 C44.6680679,26.2766507 44.7333493,26.3419321 44.78,26.42 C44.789223,26.502315 44.8094015,26.5830289 44.84,26.66 C44.8774299,26.7633831 44.8774299,26.8766169 44.84,26.98 C44.7553658,27.0679138 44.6995505,27.1795444 44.68,27.3 C44.6858827,27.4357526 44.6547749,27.570553 44.59,27.69 C44.4967484,27.7276655 44.4368709,27.8194776 44.44,27.92 C44.4367605,28.1137601 44.3924518,28.3046285 44.31,28.48 C44.1998431,28.582913 44.1143793,28.7093995 44.06,28.85 C44.0574461,28.9720535 44.0266401,29.0918544 43.97,29.2 C43.8978167,29.2585618 43.836833,29.3297094 43.79,29.41 C43.7774086,29.4793788 43.7422545,29.5426562 43.69,29.59 C43.63,29.59 43.43,29.72 43.4,29.76 C43.3486188,29.8251482 43.2879756,29.8824223 43.22,29.93 C43.22,29.93 43.15,29.93 43.22,30 C43.3013977,30.0987636 43.3471888,30.2220472 43.35,30.35 C43.3528942,30.5652366 43.2862595,30.775662 43.16,30.95 C43.002259,30.9853073 42.8482325,31.0355333 42.7,31.1 C42.6222541,31.1872063 42.531112,31.2614703 42.43,31.32 C42.3259993,31.3845333 42.2480953,31.4836839 42.21,31.6 C42.2364008,31.7691602 42.2940487,31.9319307 42.38,32.08 C42.5544908,32.2063858 42.7123962,32.3542121 42.85,32.52 C42.8122153,32.6769207 42.7107504,32.8109993 42.57,32.89 L42.16,32.89 C42.0157561,32.9277008 41.8642439,32.9277008 41.72,32.89 C41.7242288,32.8312495 41.6977441,32.7744965 41.65,32.74 C41.5780447,32.743898 41.508681,32.7681753 41.45,32.81 C41.3802248,32.8852748 41.2992767,32.9493587 41.21,33 C41.1005959,33.0478537 40.9867015,33.0847019 40.87,33.11 C40.7733329,33.1085951 40.6776036,33.1291085 40.59,33.17 C40.5744297,33.2191622 40.5312719,33.2544731 40.48,33.26 C40.3770563,33.263715 40.2769593,33.2947796 40.19,33.35 C40.19,33.4 40.07,33.6 40.03,33.64 C39.957196,33.7178016 39.9085589,33.8150758 39.89,33.92 C39.89,34.01 39.71,34.25 39.69,34.38 C39.7210969,34.5114812 39.786682,34.6322959 39.88,34.73 C39.7915014,34.8215317 39.6669903,34.8691389 39.54,34.86 C39.3146881,34.8705626 39.0897072,34.8330658 38.88,34.75 C38.8898779,34.6135118 38.8898779,34.4764882 38.88,34.34 C38.8536026,34.2099207 38.8063245,34.0849717 38.74,33.97 C38.6939275,33.9621644 38.6578356,33.9260725 38.65,33.88 C38.6479886,33.8142653 38.6033926,33.7575067 38.54,33.74 L38.31,33.62 C38.2522519,33.6196833 38.2006238,33.5839407 38.18,33.53 C38.1503674,33.4346557 38.0687546,33.3647019 37.97,33.35 C37.8299377,33.3443392 37.6902499,33.3681884 37.56,33.42 C37.5502852,33.4844437 37.526376,33.5459246 37.49,33.6 C37.4322484,33.6605534 37.3599518,33.7053085 37.28,33.73 C37.1876887,33.7326349 37.0978252,33.7602853 37.02,33.81 C36.9525827,33.8896596 36.8614936,33.9457144 36.76,33.97 C36.6400795,33.972155 36.5215247,33.995866 36.41,34.04 C36.3588764,34.0917897 36.3181429,34.1528899 36.29,34.22 C36.2762555,34.2796657 36.2296657,34.3262555 36.17,34.34 C36.1,34.34 35.97,34.48 35.92,34.48 C35.82777,34.4831235 35.7380326,34.510735 35.66,34.56 C35.5782284,34.6421043 35.4737379,34.6978326 35.36,34.72 C35.1819615,34.7250751 35.0046674,34.7451461 34.83,34.78 C34.6794334,34.8210002 34.5348745,34.8815132 34.4,34.96 C34.3198996,35.0407833 34.2554768,35.1357222 34.21,35.24 C34.2113132,35.3238683 34.1906261,35.4066166 34.15,35.48 C34.0976212,35.4969135 34.0615709,35.5449805 34.06,35.6 C34.0583929,35.7018918 34.0308609,35.8016955 33.98,35.89 C33.8853032,36.0143493 33.8296212,36.1639947 33.82,36.32 C33.8175637,36.5458541 33.844455,36.771069 33.9,36.99 C33.9929084,37.1038783 34.0487417,37.2434617 34.06,37.39 C34.0643086,37.5878835 34.0475476,37.7856637 34.01,37.98 C33.9550384,38.029526 33.8903167,38.0669965 33.82,38.09 C33.7653236,38.0909762 33.715511,38.1216301 33.69,38.17 C33.6867886,38.2374601 33.6661138,38.3029301 33.63,38.36 C33.5341142,38.4211759 33.4236575,38.4556936 33.31,38.46 C33.1192296,38.4614735 32.9312422,38.5059069 32.76,38.59 C32.6624348,38.701726 32.5387679,38.7876058 32.4,38.84 C32.2820543,38.8415725 32.1678293,38.7987381 32.08,38.72 C32.0316361,38.5566951 31.998166,38.3893445 31.98,38.22 C31.9777962,37.9781069 32.0184228,37.7377329 32.1,37.51 C32.2058341,37.4072998 32.2907362,37.2850407 32.35,37.15 C32.3675767,37.0574942 32.3675767,36.9625058 32.35,36.87 C32.2904591,36.7312533 32.2631085,36.5808253 32.27,36.43 C32.2753623,36.1605335 32.2451004,35.8915395 32.18,35.63 C32.1065961,35.6212765 32.0487235,35.5634039 32.04,35.49 C31.9694967,35.342141 31.9125953,35.1881728 31.87,35.03 C31.8735956,34.8079719 31.8500886,34.5863344 31.8,34.37 C31.7272118,34.3008504 31.6723051,34.2150588 31.64,34.12 C31.64,34.05 31.49,33.91 31.49,33.86 C31.4795855,33.7476512 31.4560932,33.6369018 31.42,33.53 C31.440339,33.4209402 31.440339,33.3090598 31.42,33.2 C31.3177247,33.1043264 31.227098,32.9969169 31.15,32.88 C31.127311,32.8064109 31.0719738,32.7473846 31,32.72 L30.63,32.57 C30.63,32.57 30.44,32.49 30.42,32.47 C30.3759347,32.4310655 30.3250906,32.400559 30.27,32.38 C30.27,32.38 30.09,32.29 30.05,32.29 C29.9600316,32.2399126 29.8922041,32.1578057 29.86,32.06 C29.86,31.93 29.78,31.56 29.75,31.52 C29.6207807,31.450351 29.4767708,31.4126341 29.33,31.41 L28.65,31.41 C28.5765689,31.3780883 28.5089748,31.3341521 28.45,31.28 C28.3742268,31.1847575 28.3258277,31.070674 28.31,30.95 C28.3061707,30.7673501 28.2792914,30.5859148 28.23,30.41 C28.1682942,30.307729 28.1147933,30.2007272 28.07,30.09 C28.0672973,30.0434658 28.0456057,30.0000827 28.01,29.97 C27.9678233,29.9614046 27.9334809,29.9308781 27.92,29.89 C27.9288948,29.8035616 27.9288948,29.7164384 27.92,29.63 C27.8903772,29.5177638 27.8233528,29.4189909 27.73,29.35 C27.6434519,29.35 27.5592385,29.3219289 27.49,29.27 C27.4874859,29.2055221 27.4666755,29.1430908 27.43,29.09 C27.3713833,29.0379005 27.3035545,28.9972031 27.23,28.97 C27.1753236,28.9690238 27.125511,28.9383699 27.1,28.89 C27.0926495,28.8156493 27.06873,28.7438909 27.03,28.68 C26.9832258,28.6141252 26.9832258,28.5258748 27.03,28.46 C27.1253196,28.4232287 27.1886734,28.3321577 27.19,28.23 C27.1846863,28.031024 27.1578636,27.8332066 27.11,27.64 C27.0411818,27.5310684 26.9643,27.4274451 26.88,27.33 C26.8426782,27.2852155 26.7944681,27.2507797 26.74,27.23 C26.682887,27.2220737 26.6282422,27.2015819 26.58,27.17 C26.5277852,27.113148 26.4900517,27.0445417 26.47,26.97 C26.4648745,26.8643355 26.4446701,26.7599462 26.41,26.66 C26.3603477,26.5072547 26.3268315,26.3497285 26.31,26.19 C26.3146741,26.0360282 26.3450946,25.8839255 26.4,25.74 L26.57,25.55 C26.642033,25.4712172 26.7309037,25.4096914 26.83,25.37 C26.9285516,25.3728529 27.024817,25.4003573 27.11,25.45 C27.1653833,25.5201931 27.2376246,25.575234 27.32,25.61 C27.3795656,25.6010086 27.4375054,25.6341171 27.46,25.69 C27.5617088,25.8079798 27.7152635,25.8679036 27.87,25.85 C28.1474835,25.8567487 28.4233339,25.8056653 28.68,25.7 C28.7379954,25.573218 28.7880911,25.4429692 28.83,25.31 C28.8217021,25.1417254 28.8790665,24.9768028 28.99,24.85 C29.1034178,24.8201105 29.2138748,24.7799443 29.32,24.73 C29.3824986,24.7147338 29.4297745,24.6635183 29.44,24.6 C29.4516926,24.486787 29.5307514,24.3919164 29.64,24.36 C29.7829263,24.3602792 29.92489,24.3366186 30.06,24.29 C30.094039,24.2424826 30.1525804,24.2190661 30.21,24.23 C30.269,24.2783821 30.3437708,24.3033056 30.42,24.3 C30.4983874,24.2162268 30.5895091,24.1453543 30.69,24.09 C30.76,24.09 30.96,23.91 31.04,23.87 C31.139662,23.826299 31.2234563,23.752979 31.28,23.66 C31.2200527,23.5866647 31.1696503,23.506021 31.13,23.42 C31.0470241,23.2919096 30.9798684,23.1542404 30.93,23.01 C30.9310533,22.8578195 30.9651743,22.7076867 31.03,22.57 C31.1140699,22.4866977 31.2122598,22.4189805 31.32,22.37 C31.4527324,22.3365233 31.5737714,22.2673582 31.67,22.17 C31.806798,22.0359491 31.9337914,21.8922461 32.05,21.74 C32.05,21.6875189 32.0815559,21.640185 32.13,21.62 C32.1984987,21.6257196 32.2641634,21.6499118 32.32,21.69 C32.3890151,21.7255903 32.4709849,21.7255903 32.54,21.69 C32.5881667,21.6358652 32.6285551,21.5752827 32.66,21.51 C32.66,21.51 32.66,21.32 32.66,21.21 C32.6908722,21.0358668 32.7554103,20.8694264 32.85,20.72 C32.9265652,20.6323448 32.9529744,20.5116169 32.92,20.4 C32.8118431,20.2682921 32.7148413,20.1278067 32.63,19.98 C32.5372846,19.8128173 32.4192164,19.6610153 32.28,19.53 C32.2113834,19.514523 32.1550725,19.4657202 32.13,19.4 C32.13,19.34 32.02,19.15 32.01,19.07 C32.040407,18.9129836 32.1707577,18.7948533 32.33,18.78 C32.5518238,18.7794625 32.7729984,18.7560046 32.99,18.71 C33.0409844,18.6527726 33.1019835,18.6053289 33.17,18.57 C33.2931614,18.4961736 33.4239152,18.4358257 33.56,18.39 C33.6745826,18.3882219 33.7873235,18.3608908 33.89,18.31 C33.9462482,18.2406926 34.0182489,18.1858349 34.1,18.15 C34.1189234,18.1265151 34.1325662,18.0992297 34.14,18.07 Z" id="Shape" fill="#F6D660"></path>
                <path d="M46.34,11.3 C46.14,10.68 45.81,10.68 45.61,11.3 C45.3645058,11.9618829 44.745366,12.4114494 44.04,12.44 C43.38,12.44 43.28,12.75 43.82,13.14 C44.3741126,13.5752689 44.6110106,14.3017561 44.42,14.98 C44.21,15.6 44.48,15.79 45.02,15.4 C45.6082948,15.0114276 46.3717052,15.0114276 46.96,15.4 C47.49,15.79 47.75,15.59 47.55,14.96 C47.3589894,14.2817561 47.5958874,13.5552689 48.15,13.12 C48.69,12.74 48.58,12.43 47.91,12.43 C47.2071304,12.4030803 46.5886839,11.9579564 46.34,11.3 Z M39.46,10.3 C39.26,9.68 38.93,9.68 38.73,10.3 C38.4845058,10.9618829 37.865366,11.4114494 37.16,11.44 C36.5,11.44 36.4,11.75 36.94,12.14 C37.4941126,12.5752689 37.7310106,13.3017561 37.54,13.98 C37.33,14.6 37.6,14.79 38.14,14.4 C38.7282948,14.0114276 39.4917052,14.0114276 40.08,14.4 C40.61,14.79 40.87,14.59 40.67,13.96 C40.4789894,13.2817561 40.7158874,12.5552689 41.27,12.12 C41.81,11.74 41.7,11.43 41.03,11.43 C40.3221204,11.3998346 39.7022794,10.9458109 39.46,10.28 L39.46,10.3 Z M17.67,13.43 C17.87,12.81 18.2,12.81 18.4,13.43 C18.6454942,14.0918829 19.264634,14.5414494 19.97,14.57 C20.63,14.57 20.72,14.88 20.18,15.27 C19.6258874,15.7052689 19.3889894,16.4317561 19.58,17.11 C19.79,17.73 19.52,17.92 18.98,17.53 C18.3925089,17.1387618 17.6274911,17.1387618 17.04,17.53 C16.51,17.92 16.25,17.72 16.45,17.09 C16.6410106,16.4117561 16.4041126,15.6852689 15.85,15.25 C15.31,14.87 15.42,14.56 16.09,14.56 C16.795366,14.5314494 17.4145058,14.0818829 17.66,13.42 L17.67,13.43 Z M24.67,11.33 C24.87,10.71 25.2,10.71 25.4,11.33 C25.6454942,11.9918829 26.264634,12.4414494 26.97,12.47 C27.63,12.47 27.73,12.78 27.19,13.17 C26.6358874,13.6052689 26.3989894,14.3317561 26.59,15.01 C26.8,15.63 26.53,15.82 25.99,15.43 C25.4017052,15.0414276 24.6382948,15.0414276 24.05,15.43 C23.52,15.82 23.26,15.62 23.46,14.99 C23.6510106,14.3117561 23.4141126,13.5852689 22.86,13.15 C22.32,12.77 22.43,12.46 23.1,12.46 C23.805366,12.4314494 24.4245058,11.9818829 24.67,11.32 L24.67,11.33 Z M31.55,10.33 C31.75,9.71 32.08,9.71 32.28,10.33 C32.5254942,10.9918829 33.144634,11.4414494 33.85,11.47 C34.51,11.47 34.6,11.78 34.06,12.17 C33.5058874,12.6052689 33.2689894,13.3317561 33.46,14.01 C33.67,14.63 33.4,14.82 32.86,14.43 C32.2717052,14.0414276 31.5082948,14.0414276 30.92,14.43 C30.39,14.82 30.13,14.62 30.33,13.99 C30.5210106,13.3117561 30.2841126,12.5852689 29.73,12.15 C29.19,11.77 29.3,11.46 29.97,11.46 C30.675366,11.4314494 31.2945058,10.9818829 31.54,10.32 L31.55,10.33 Z M53.34,13.46 C53.14,12.84 52.81,12.84 52.61,13.46 C52.3645058,14.1218829 51.745366,14.5714494 51.04,14.6 C50.38,14.6 50.29,14.91 50.83,15.3 C51.3841126,15.7352689 51.6210106,16.4617561 51.43,17.14 C51.22,17.76 51.49,17.95 52.03,17.56 C52.6174911,17.1687618 53.3825089,17.1687618 53.97,17.56 C54.5,17.95 54.76,17.75 54.56,17.12 C54.3689894,16.4417561 54.6058874,15.7152689 55.16,15.28 C55.7,14.9 55.59,14.59 54.92,14.59 C54.214634,14.5614494 53.5954942,14.1118829 53.35,13.45 L53.34,13.46 Z" id="Shape" fill="#FFFFFF"></path>
            </g>
        </g>
    </g>
</svg>