<?xml version="1.0" encoding="UTF-8"?>
<svg width="71px" height="48px" viewBox="0 0 71 48" version="1.1" xmlns="http://www.w3.org/2000/svg" xmlns:xlink="http://www.w3.org/1999/xlink">
    <!-- Generator: Sketch 48.1 (47250) - http://www.bohemiancoding.com/sketch -->
    <title>Kyrgystan@2x</title>
    <desc>Created with Sketch.</desc>
    <defs></defs>
    <g id="Flags" stroke="none" stroke-width="1" fill="none" fill-rule="evenodd" transform="translate(-408.000000, -1111.000000)">
        <g transform="translate(70.000000, 70.000000)" fill-rule="nonzero" id="Kyrgystan">
            <g transform="translate(338.000000, 1041.000000)">
                <rect id="Rounded_Rectangle_7_copy-58" fill="#ED5565" x="0.76" y="0.83" width="70" height="47" rx="6.36"></rect>
                <path d="M48,28.6 C48.0253139,27.9440275 48.1960978,27.3018798 48.5,26.72 L49.37,25.21 C49.6480451,24.6597991 49.6480451,24.0102009 49.37,23.46 L48.48,21.91 C48.1812491,21.3164677 48.0173417,20.664253 48,20 L48,18.21 C47.9628408,17.5955593 47.6362832,17.0352161 47.12,16.7 L45.61,15.84 C45.0531342,15.4883046 44.5816954,15.0168658 44.23,14.46 L43.36,12.95 C43.0247839,12.4337168 42.4644407,12.1071592 41.85,12.07 L40,12.07 C39.3443731,12.0424013 38.7027149,11.8717476 38.12,11.57 L36.57,10.68 C36.0197991,10.4019549 35.3702009,10.4019549 34.82,10.68 L33.32,11.56 C32.7389339,11.867379 32.0967439,12.0415901 31.44,12.07 L29.71,12.07 C29.0955593,12.1071592 28.5352161,12.4337168 28.2,12.95 L27.3,14.5 C26.9462344,15.0552075 26.4752075,15.5262344 25.92,15.88 L24.38,16.78 C23.8647864,17.1194887 23.5417854,17.6838123 23.51,18.3 L23.51,20.03 C23.4853529,20.6860726 23.3145306,21.3283645 23.01,21.91 L22.14,23.42 C21.8619549,23.9702009 21.8619549,24.6197991 22.14,25.17 L23.03,26.72 C23.3349202,27.3020332 23.5089797,27.9436642 23.54,28.6 L23.54,30.39 C23.5771592,31.0044407 23.9037168,31.5647839 24.42,31.9 L25.93,32.76 C26.4866553,33.1119586 26.9580414,33.5833447 27.31,34.14 L28.18,35.65 C28.5152161,36.1662832 29.0755593,36.4928408 29.69,36.53 L31.48,36.53 C32.1356269,36.5575987 32.7772851,36.7282524 33.36,37.03 L34.91,37.92 C35.4602009,38.1980451 36.1097991,38.1980451 36.66,37.92 L38.16,37.04 C38.7409423,36.7323073 39.3832044,36.5580766 40.04,36.53 L41.77,36.53 C42.3844407,36.4928408 42.9447839,36.1662832 43.28,35.65 L44.17,34.1 C44.5237656,33.5447925 44.9947925,33.0737656 45.55,32.72 L47.09,31.82 C47.6052136,31.4805113 47.9282146,30.9161877 47.96,30.3 L48,28.6 Z" id="Shape" fill="#F6D660"></path>
                <path d="M35.76,16 C40.3439634,16 44.06,19.7160366 44.06,24.3 C44.06,28.8839634 40.3439634,32.6 35.76,32.6 C31.1760366,32.6 27.46,28.8839634 27.46,24.3 C27.46,19.7160366 31.1760366,16 35.76,16 Z M35.76,14 C30.0714671,14 25.46,18.6114671 25.46,24.3 C25.46,29.9885329 30.0714671,34.6 35.76,34.6 C41.4485329,34.6 46.06,29.9885329 46.06,24.3 C46.0544874,18.613752 41.446248,14.0055126 35.76,14 Z" id="Shape" fill="#ED5565"></path>
                <circle id="Oval" fill="#F6D660" cx="35.76" cy="24.33" r="8.3"></circle>
                <path d="M37.74,20.41 C39.1837061,19.8169599 40.7292366,19.5112505 42.29,19.51 L42.51,19.51 C41.9866755,18.778811 41.3484172,18.1371757 40.62,17.61 C38.9209253,17.8101786 37.273356,18.3220777 35.76,19.12 C34.246644,18.3220777 32.5990747,17.8101786 30.9,17.61 C30.1715828,18.1371757 29.5333245,18.778811 29.01,19.51 L29.23,19.51 C30.7907634,19.5112505 32.3362939,19.8169599 33.78,20.41 C31.1492987,22.4163433 29.3141493,25.2895212 28.6,28.52 C29.0543166,29.2979272 29.6318167,29.9970062 30.31,30.59 C30.6026097,26.8603562 32.6179156,23.4805588 35.76,21.45 C38.9020844,23.4805588 40.9173903,26.8603562 41.21,30.59 C41.8881833,29.9970062 42.4656834,29.2979272 42.92,28.52 C42.2058507,25.2895212 40.3707013,22.4163433 37.74,20.41 Z" id="Shape" fill="#ED5565"></path>
            </g>
        </g>
    </g>
</svg>