<?xml version="1.0" encoding="UTF-8"?>
<svg width="71px" height="48px" viewBox="0 0 71 48" version="1.1" xmlns="http://www.w3.org/2000/svg" xmlns:xlink="http://www.w3.org/1999/xlink">
    <!-- Generator: Sketch 48.1 (47250) - http://www.bohemiancoding.com/sketch -->
    <title>Layer_7@2x</title>
    <desc>Created with Sketch.</desc>
    <defs></defs>
    <g id="Flags" stroke="none" stroke-width="1" fill="none" fill-rule="evenodd" transform="translate(-578.000000, -805.000000)">
        <g transform="translate(70.000000, 70.000000)" fill-rule="nonzero" id="Layer_7">
            <g transform="translate(508.000000, 735.000000)">
                <g id="trindad_and_tobago">
                    <rect id="Rounded_Rectangle_7_copy-66" fill="#ED5565" x="0.01" y="0.4" width="70" height="47" rx="6.36"></rect>
                    <path d="M0,6.76 C0.0051929608,3.39110735 2.63650441,0.610688261 6,0.42 L70,41.14 C69.9453798,44.6134169 67.1138463,47.4004294 63.64,47.4 L63.07,47.4 L0,7.3 L0,6.76 Z" id="Shape" fill="#434A54"></path>
                    <path d="M0.12,5.59 L65.46,47.13 C64.8728375,47.3067849 64.2631946,47.3977261 63.65,47.4 L60.29,47.4 L0,9.08 L0,6.77 C0.00327221216,6.37379379 0.0434457696,5.9787538 0.12,5.59 Z" id="Shape" fill="#FFFFFF"></path>
                    <path d="M69.76,42.76 L3.91,0.89 C4.68918446,0.564467508 5.52555029,0.397874313 6.37,0.4 L8.73,0.4 L70.01,39.4 L70.01,41 C70.0094707,41.5954774 69.9253155,42.1879298 69.76,42.76 Z" id="Shape" fill="#FFFFFF"></path>
                </g>
            </g>
        </g>
    </g>
</svg>