<?xml version="1.0" encoding="UTF-8"?>
<svg width="71px" height="48px" viewBox="0 0 71 48" version="1.1" xmlns="http://www.w3.org/2000/svg" xmlns:xlink="http://www.w3.org/1999/xlink">
    <!-- Generator: Sketch 48.1 (47250) - http://www.bohemiancoding.com/sketch -->
    <title>Lebanon@2x</title>
    <desc>Created with Sketch.</desc>
    <defs></defs>
    <g id="Flags" stroke="none" stroke-width="1" fill="none" fill-rule="evenodd" transform="translate(-239.000000, -1173.000000)">
        <g transform="translate(70.000000, 70.000000)" fill-rule="nonzero" id="Lebanon">
            <g transform="translate(169.000000, 1103.000000)">
                <rect id="Rectangle-path" fill="#FFFFFF" x="0.52" y="8.1" width="70" height="31"></rect>
                <path d="M64.16,0.1 L6.89,0.1 C3.37746899,0.1 0.53,2.94746619 0.53,6.45999374 L0.53,8.09999213 L70.53,8.09999213 L70.53,6.45999374 C70.5300021,4.77148449 69.85856,3.15227788 68.663665,1.95925981 C67.4687699,0.766241744 65.8485088,0.0973451112 64.16,0.1 Z" id="Shape" fill="#ED5565"></path>
                <path d="M0.52,40.73 C0.52,44.242531 3.36746899,47.09 6.88,47.09 L64.15,47.09 C67.662531,47.09 70.51,44.242531 70.51,40.73 L70.51,39.09 L0.51,39.09 L0.52,40.73 Z" id="Shape" fill="#ED5565"></path>
                <path d="M43.09,31.32 C43.2352266,31.3451653 43.3811234,31.279263 43.4582476,31.1536608 C43.5353718,31.0280586 43.5281422,30.8681313 43.44,30.75 L40.72,25.75 C40.6318578,25.6318687 40.6246282,25.4719414 40.7017524,25.3463392 C40.7788766,25.220737 40.9247734,25.1548347 41.07,25.18 L41.71,25.18 C42.07,25.18 42.21,24.94 42.01,24.65 L38.52,19.54 C38.32,19.25 38.45,19.01 38.82,19.01 L39.46,19.01 C39.82,19.01 39.95,18.78 39.74,18.49 L35.98,13.35 C35.898478,13.2152789 35.7524663,13.13297 35.595,13.13297 C35.4375337,13.13297 35.291522,13.2152789 35.21,13.35 L31.33,18.5 C31.12,18.78 31.24,19.02 31.6,19.02 L32.23,19.02 C32.59,19.02 32.73,19.26 32.53,19.55 L29.04,24.66 C28.84,24.95 28.97,25.19 29.34,25.19 L30,25.19 C30.1452266,25.1648347 30.2911234,25.230737 30.3682476,25.3563392 C30.4453718,25.4819414 30.4381422,25.6418687 30.35,25.76 L27.62,30.76 C27.5318578,30.8781313 27.5246282,31.0380586 27.6017524,31.1636608 C27.6788766,31.289263 27.8247734,31.3551653 27.97,31.33 L33.82,31.33 C33.9923967,31.3273273 34.158792,31.393259 34.2825705,31.5132866 C34.406349,31.6333143 34.4773681,31.7976027 34.48,31.97 L34.48,33.46 C34.4826319,33.6323973 34.553651,33.7966857 34.6774295,33.9167134 C34.801208,34.036741 34.9676033,34.1026727 35.14,34.1 L36,34.1 C36.1723967,34.1026727 36.338792,34.036741 36.4625705,33.9167134 C36.586349,33.7966857 36.6573681,33.6323973 36.66,33.46 L36.66,32 C36.6626319,31.8276027 36.733651,31.6633143 36.8574295,31.5432866 C36.981208,31.423259 37.1476033,31.3573273 37.32,31.36 L43.07,31.36 L43.09,31.32 Z" id="Shape" fill="#57A863"></path>
            </g>
        </g>
    </g>
</svg>