<?xml version="1.0" encoding="UTF-8"?>
<svg width="71px" height="48px" viewBox="0 0 71 48" version="1.1" xmlns="http://www.w3.org/2000/svg" xmlns:xlink="http://www.w3.org/1999/xlink">
    <!-- Generator: Sketch 48.1 (47250) - http://www.bohemiancoding.com/sketch -->
    <title>Liberia@2x</title>
    <desc>Created with Sketch.</desc>
    <defs></defs>
    <g id="Flags" stroke="none" stroke-width="1" fill="none" fill-rule="evenodd" transform="translate(-408.000000, -1173.000000)">
        <g transform="translate(70.000000, 70.000000)" fill-rule="nonzero" id="Liberia">
            <g transform="translate(338.000000, 1103.000000)">
                <path d="M64.4,0.1 L7.13,0.1 C6.89351396,0.0869236722 6.65648604,0.0869236722 6.42,0.1 L65.12,0.1 C64.8801884,0.0865524395 64.6398116,0.0865524395 64.4,0.1 Z" id="Shape" fill="#FFFFFF"></path>
                <path d="M7.13,47.1 L64.4,47.1 C64.6364843,47.1131377 64.8735157,47.1131377 65.11,47.1 L6.41,47.1 C6.64980986,47.1135107 6.89019014,47.1135107 7.13,47.1 Z" id="Shape" fill="#FFFFFF"></path>
                <path d="M70.74,41.19 L0.74,41.19 C0.961395721,44.2439023 3.3274041,46.7065682 6.37,47.05 L65.07,47.05 C68.1282687,46.7245392 70.5154814,44.2573317 70.74,41.19 Z" id="Shape" fill="#FFFFFF"></path>
                <path d="M70.77,41.19 L70.77,40.73 C70.77,40.88 70.77,41.04 70.77,41.19 Z" id="Shape" fill="#ED5565"></path>
                <path d="M0.77,40.73 L0.77,41.19 C0.78,41 0.77,40.89 0.77,40.73 Z" id="Shape" fill="#ED5565"></path>
                <path d="M0.77,40.73 C0.77,40.88 0.77,41.04 0.77,41.19 L70.77,41.19 C70.77,41.04 70.77,40.89 70.77,40.73 L70.77,35.32 L0.77,35.32 L0.77,40.73 Z" id="Shape" fill="#ED5565"></path>
                <rect id="Rectangle-path" fill="#FFFFFF" x="0.77" y="29.46" width="70" height="5.86"></rect>
                <rect id="Rectangle-path" fill="#ED5565" x="0.77" y="23.6" width="70" height="5.86"></rect>
                <rect id="Rectangle-path" fill="#FFFFFF" x="0.77" y="17.73" width="70" height="5.86"></rect>
                <rect id="Rectangle-path" fill="#ED5565" x="0.77" y="11.87" width="70" height="5.86"></rect>
                <path d="M70.77,6.46 L70.77,6 C70.75,6.16 70.77,6.31 70.77,6.46 Z" id="Shape" fill="#FFFFFF"></path>
                <path d="M0.77,6 L0.77,6.46 C0.77,6.31 0.77,6.15 0.77,6 Z" id="Shape" fill="#FFFFFF"></path>
                <path d="M0.79,6 C0.79,6.15 0.79,6.3 0.79,6.46 L0.79,11.87 L70.79,11.87 L70.79,6.46 C70.79,6.31 70.79,6.15 70.79,6 L0.79,6 Z" id="Shape" fill="#FFFFFF"></path>
                <path d="M0.79,6 L70.79,6 C70.5686043,2.94609772 68.2025959,0.483431803 65.16,0.14 L6.46,0.14 C3.40173126,0.465460799 1.01451855,2.93266829 0.79,6 Z" id="Shape" fill="#ED5565"></path>
                <path d="M30.09,0.14 L6.42,0.14 C3.20254104,0.501441013 0.770124849,3.22230302 0.77,6.46 L0.77,29.46 L30.09,29.46 L30.09,0.14 Z" id="Shape" fill="#4758A9"></path>
                <path d="M11,22 C10.22,22.55 9.77,22.24 10,21.31 L10.84,17.83 C11.0323885,16.7906124 10.6906281,15.7240196 9.93,14.99 L7.39,12.79 C6.67,12.16 6.86,11.63 7.81,11.6 L11.37,11.5 C12.3865035,11.4199437 13.2585746,10.7442851 13.59,9.78 L14.71,5.98 C14.98,5.06 15.47,5.04 15.79,5.98 L17.13,9.73 C17.5220938,10.6815917 18.422783,11.3260504 19.45,11.39 L23.08,11.39 C24.08,11.39 24.23,11.92 23.5,12.55 L20.74,14.97 C19.9901969,15.7007617 19.6756194,16.7695672 19.91,17.79 L20.79,20.85 C21.06,21.77 20.61,22.12 19.79,21.62 L16.79,19.8 C15.8792574,19.2988845 14.7679162,19.3333744 13.89,19.89 L11,22 Z" id="Shape" fill="#FFFFFF"></path>
            </g>
        </g>
    </g>
</svg>