<?xml version="1.0" encoding="UTF-8"?>
<svg width="71px" height="48px" viewBox="0 0 71 48" version="1.1" xmlns="http://www.w3.org/2000/svg" xmlns:xlink="http://www.w3.org/1999/xlink">
    <!-- Generator: Sketch 48.1 (47250) - http://www.bohemiancoding.com/sketch -->
    <title>Libya@2x</title>
    <desc>Created with Sketch.</desc>
    <defs></defs>
    <g id="Flags" stroke="none" stroke-width="1" fill="none" fill-rule="evenodd" transform="translate(-70.000000, -1234.000000)">
        <g transform="translate(70.000000, 70.000000)" fill-rule="nonzero" id="Libya">
            <g transform="translate(0.000000, 1164.000000)">
                <g id="Hungary-2">
                    <g id="Bolivia-6">
                        <path d="M0.28,7 L0.28,16 L70.28,16 L70.28,7 C70.28,5.23896251 69.5804306,3.55005253 68.335189,2.30481097 C67.0899475,1.05956942 65.4010375,0.36 63.64,0.36 L6.93,0.36 C5.16723053,0.357345224 3.47575038,1.05574249 2.22834517,2.3012719 C0.980939967,3.54680131 0.279998001,5.23722853 0.28,7 Z" id="Shape" fill="#ED5565"></path>
                        <polygon id="Shape" fill="#434A54" points="0.28 31.73 70.28 31.73 70.28 16.06 0.28 16.06"></polygon>
                        <path d="M0.28,40.74 C0.28,44.4071707 3.25282926,47.38 6.92,47.38 L63.64,47.38 C67.3071707,47.38 70.28,44.4071707 70.28,40.74 L70.28,31.74 L0.28,31.74 L0.28,40.74 Z" id="Shape" fill="#57A863"></path>
                    </g>
                </g>
                <path d="M37.41,26.52 C37.15,26.7 37,26.6 37.08,26.28 L37.37,25.12 C37.4549839,24.7588857 37.3449968,24.3796199 37.08,24.12 L36.25,23.37 C36.01,23.16 36.08,22.98 36.39,22.97 L37.56,22.97 C37.8993051,22.9473058 38.1914521,22.7222737 38.3,22.4 L38.68,21.13 C38.77,20.82 38.93,20.82 39.04,21.13 L39.47,22.39 C39.5922664,22.7106242 39.8879662,22.9323991 40.23,22.96 L41.43,22.96 C41.74,22.96 41.81,23.14 41.57,23.35 L40.65,24.15 C40.3988631,24.3929038 40.2927122,24.7492675 40.37,25.09 L40.65,26.09 C40.74,26.4 40.59,26.51 40.32,26.34 L39.32,25.72 C39.0150275,25.5255408 38.6249725,25.5255408 38.32,25.72 L37.41,26.52 Z M39.11,28.42 C37.7966404,29.1504266 36.2243966,29.2513813 34.8284054,28.6949237 C33.4324142,28.1384661 32.3607469,26.9836191 31.91,25.55 C31.5755252,24.528213 31.5373858,23.4325717 31.8,22.39 C32.1641586,20.9354221 33.1619043,19.7210659 34.5182127,19.0816633 C35.8745212,18.4422608 37.4461917,18.4453208 38.8,19.09 C38.8796923,19.1127637 38.9641852,19.0747419 39,19 C39.0225354,18.9252068 38.9942585,18.8444154 38.93,18.8 C37.2684287,17.4492888 35.0303251,17.0448912 33.0011363,17.7287279 C30.9719474,18.4125645 29.4351227,20.0891129 28.93,22.17 C28.5973954,23.4284857 28.6426079,24.7570378 29.06,25.99 C29.5773065,27.5932762 30.7123776,28.9242037 32.213897,29.6881017 C33.7154164,30.4519997 35.4595036,30.585844 37.06,30.06 L37.15,30.06 C37.9481211,29.7784546 38.6799083,29.3359787 39.3,28.76 C39.3605751,28.7129301 39.3846618,28.632641 39.36,28.56 C39.3273251,28.4765023 39.2354181,28.4327371 39.15,28.46 L39.11,28.42 Z M39.25,26.88 C39.14,27.18 38.96,27.18 38.85,26.88 L38.42,25.76 C38.27939,25.4363983 37.9869825,25.2039718 37.64,25.14 L36.53,25.01 C36.21,25.01 36.17,24.79 36.42,24.6 L37.42,23.91 C37.6846567,23.6972066 37.7951514,23.3459914 37.7,23.02 L37.29,21.76 C37.19,21.46 37.29,21.36 37.58,21.55 L38.65,22.34 C38.9401876,22.5231396 39.3098124,22.5231396 39.6,22.34 L40.6,21.68 C40.86,21.51 41.01,21.61 40.94,21.92 L40.64,23.1 C40.5738778,23.4428619 40.6913851,23.7953838 40.95,24.03 L41.77,24.71 C42.02,24.91 41.96,25.09 41.64,25.11 L40.49,25.11 C40.1491894,25.1390153 39.8526102,25.3547092 39.72,25.67 L39.25,26.88 Z" id="Shape_6_copy-2" fill="#FFFFFF"></path>
            </g>
        </g>
    </g>
</svg>