<?xml version="1.0" encoding="UTF-8"?>
<svg width="71px" height="48px" viewBox="0 0 71 48" version="1.1" xmlns="http://www.w3.org/2000/svg" xmlns:xlink="http://www.w3.org/1999/xlink">
    <!-- Generator: Sketch 48.1 (47250) - http://www.bohemiancoding.com/sketch -->
    <title>Liechtenstein@2x</title>
    <desc>Created with Sketch.</desc>
    <defs></defs>
    <g id="Flags" stroke="none" stroke-width="1" fill="none" fill-rule="evenodd" transform="translate(-154.000000, -1234.000000)">
        <g transform="translate(70.000000, 70.000000)" fill-rule="nonzero" id="Liechtenstein">
            <g transform="translate(84.000000, 1164.000000)">
                <path d="M64.54,0.38 L7.27,0.38 C3.75746899,0.38 0.91,3.22746806 0.91,6.73999791 L0.91,24.3799921 L70.91,24.3799921 L70.91,6.73999791 C70.9100021,5.05148755 70.23856,3.43227988 69.043665,2.23926103 C67.8487699,1.04624218 66.2285088,0.377345109 64.54,0.38 Z" id="Shape" fill="#4758A9"></path>
                <path d="M0.9,41 C0.9,44.512531 3.74746899,47.36 7.26,47.36 L64.53,47.36 C68.042531,47.36 70.89,44.512531 70.89,41 L70.89,24.36 L0.89,24.36 L0.9,41 Z" id="Shape" fill="#ED5565"></path>
                <path d="M21.87,9.49 C21.6201235,9.83767275 21.2181525,10.0437913 20.79,10.0437913 C20.3618475,10.0437913 19.9598765,9.83767275 19.71,9.49 L17.99,7.36 C17.7406219,7.00824002 17.3361897,6.79920413 16.905,6.79920413 C16.4738103,6.79920413 16.0693781,7.00824002 15.82,7.36 L14.11,9.49 C13.8601235,9.83767275 13.4581525,10.0437913 13.03,10.0437913 C12.6018475,10.0437913 12.1998765,9.83767275 11.95,9.49 L9.83,6.85 C9.23,6.11 8.83,6.28 8.91,7.23 L9.69,15.65 C9.79489235,16.6161536 10.598475,17.3556206 11.57,17.38 L22.27,17.38 C23.2394453,17.3550394 24.0398273,16.614579 24.14,15.65 L24.88,7.22 C24.96,6.22 24.55,6.1 23.96,6.85 L21.87,9.49 Z" id="Shape" fill="#F6BB42"></path>
            </g>
        </g>
    </g>
</svg>