<?xml version="1.0" encoding="UTF-8"?>
<svg width="71px" height="48px" viewBox="0 0 71 48" version="1.1" xmlns="http://www.w3.org/2000/svg" xmlns:xlink="http://www.w3.org/1999/xlink">
    <!-- Generator: Sketch 48.1 (47250) - http://www.bohemiancoding.com/sketch -->
    <title>Lithuania@2x</title>
    <desc>Created with Sketch.</desc>
    <defs></defs>
    <g id="Flags" stroke="none" stroke-width="1" fill="none" fill-rule="evenodd" transform="translate(-239.000000, -1234.000000)">
        <g transform="translate(70.000000, 70.000000)" fill-rule="nonzero" id="Lithuania">
            <g transform="translate(169.000000, 1164.000000)">
                <g id="Jordan">
                    <g id="Equatorial_Guinea-2">
                        <path d="M0.52,7 L0.52,16 L70.52,16 L70.52,7 C70.52,5.23896251 69.8204306,3.55005253 68.575189,2.30481097 C67.3299475,1.05956942 65.6410375,0.36 63.88,0.36 L7.17,0.36 C5.40723053,0.357345224 3.71575038,1.05574249 2.46834517,2.3012719 C1.22093997,3.54680131 0.519998001,5.23722853 0.52,7 Z" id="Shape" fill="#F6BB42"></path>
                        <polygon id="Shape" fill="#57A863" points="0.52 31.73 70.52 31.73 70.52 16.06 0.52 16.06"></polygon>
                        <path d="M0.52,40.74 C0.52,44.4071707 3.49282926,47.38 7.16,47.38 L63.88,47.38 C67.5471707,47.38 70.52,44.4071707 70.52,40.74 L70.52,31.74 L0.52,31.74 L0.52,40.74 Z" id="Shape" fill="#ED5565"></path>
                    </g>
                </g>
            </g>
        </g>
    </g>
</svg>