<?xml version="1.0" encoding="UTF-8"?>
<svg width="71px" height="48px" viewBox="0 0 71 48" version="1.1" xmlns="http://www.w3.org/2000/svg" xmlns:xlink="http://www.w3.org/1999/xlink">
    <!-- Generator: Sketch 48.1 (47250) - http://www.bohemiancoding.com/sketch -->
    <title>Luxembourg@2x</title>
    <desc>Created with Sketch.</desc>
    <defs></defs>
    <g id="Flags" stroke="none" stroke-width="1" fill="none" fill-rule="evenodd" transform="translate(-324.000000, -1234.000000)">
        <g transform="translate(70.000000, 70.000000)" fill-rule="nonzero" id="Luxembourg">
            <g transform="translate(254.000000, 1164.000000)">
                <g id="Jordan-4">
                    <g id="Equatorial_Guinea-5">
                        <path d="M0.15,7 L0.15,16 L70.15,16 L70.15,7 C70.15,5.23896251 69.4504306,3.55005253 68.205189,2.30481097 C66.9599475,1.05956942 65.2710375,0.36 63.51,0.36 L6.79,0.36 C5.02896251,0.36 3.34005253,1.05956942 2.09481097,2.30481097 C0.84956942,3.55005253 0.15,5.23896251 0.15,7 Z" id="Shape" fill="#ED5565"></path>
                        <polygon id="Shape" fill="#FFFFFF" points="0.15 31.73 70.15 31.73 70.15 16.06 0.15 16.06"></polygon>
                        <path d="M0.15,40.74 C0.15,44.4071707 3.12282926,47.38 6.79,47.38 L63.5,47.38 C67.1671707,47.38 70.14,44.4071707 70.14,40.74 L70.14,31.74 L0.14,31.74 L0.15,40.74 Z" id="Shape" fill="#3BAFDA"></path>
                    </g>
                </g>
            </g>
        </g>
    </g>
</svg>