<?xml version="1.0" encoding="UTF-8"?>
<svg width="71px" height="48px" viewBox="0 0 71 48" version="1.1" xmlns="http://www.w3.org/2000/svg" xmlns:xlink="http://www.w3.org/1999/xlink">
    <!-- Generator: Sketch 48.1 (47250) - http://www.bohemiancoding.com/sketch -->
    <title>macau@2x</title>
    <desc>Created with Sketch.</desc>
    <defs></defs>
    <g id="Flags" stroke="none" stroke-width="1" fill="none" fill-rule="evenodd" transform="translate(-662.000000, -1050.000000)">
        <g transform="translate(70.000000, 70.000000)" fill-rule="nonzero" id="macau">
            <g transform="translate(592.000000, 980.000000)">
                <path d="M41.14,35 L32.36,35 C30.95,35 29.54,35 28.13,35 C28.5708314,35.3072115 29.0477373,35.5590984 29.55,35.75 C33.3166667,35.81 37.0833333,35.81 40.85,35.75 C41.2269133,35.7927108 41.6085982,35.7552239 41.97,35.64 C42.3486045,35.4589812 42.715939,35.2552776 43.07,35.03 L43.07,35 C42.4277015,34.9483971 41.7822985,34.9483971 41.14,35 Z" id="Shape" fill="#FFFFFF"></path>
                <path d="M27.14,33.79 C26.92,33.79 26.68,33.74 26.48,33.86 L27.21,34.43 C32.8233333,34.49 38.4366667,34.49 44.05,34.43 C44.31,34.22 44.58,34.03 44.83,33.81 C38.93,33.88 33,33.68 27.14,33.79 Z" id="Shape" fill="#FFFFFF"></path>
                <path d="M6.59,47.52 C6.81652055,47.5315099 7.04347945,47.5315099 7.27,47.52 L64,47.52 C44.89,47.54 25.74,47.56 6.59,47.52 Z" id="Shape" fill="#FFFFFF"></path>
                <path d="M38.15,36.2 C35.6,36.2 33.06,36.15 30.51,36.26 C33.8156392,37.5662276 37.4943608,37.5662276 40.8,36.26 C39.9195349,36.1717043 39.0335591,36.1516445 38.15,36.2 Z" id="Shape" fill="#FFFFFF"></path>
                <path d="M45.61,31 C43.93,31 42.24,31 40.61,31 C38.7484146,30.8762474 36.9846847,30.121371 35.61,28.86 C34.2356393,30.1784946 32.4234013,30.9439782 30.52,31.01 L24,31.01 C24.1624796,31.2665253 24.3394326,31.5135917 24.53,31.75 C26.19,31.85 27.85,31.85 29.53,31.81 C30.7023967,31.8765 31.8777961,31.7515294 33.01,31.44 C33.9749018,31.1025858 34.8796533,30.6130747 35.69,29.99 C36.9647935,31.0298508 38.5291695,31.651411 40.17,31.77 C42.38,31.84 44.6,31.87 46.82,31.77 C47.0141244,31.5468808 47.1912855,31.3095519 47.35,31.06 C46.7731763,30.9853393 46.1905964,30.9652503 45.61,31 Z" id="Shape" fill="#FFFFFF"></path>
                <path d="M25.27,32.67 C25.44,32.87 25.64,33.09 25.93,33.05 C27.48,32.99 29.04,33.05 30.59,33.05 L45.52,33.05 C45.77,33.05 45.89,32.77 46.07,32.64 C39.13,32.64 32.2,32.49 25.27,32.67 Z" id="Shape" fill="#FFFFFF"></path>
                <path d="M70.63,40.91 L70.63,7.19 C70.6300166,3.53062557 67.6693578,0.561022212 64.01,0.55 L7.25,0.55 C3.59064217,0.561022212 0.6299834,3.53062557 0.63,7.19 L0.63,40.91 C0.629528598,44.3296272 3.22629434,47.1903974 6.63,47.52 C25.78,47.52 44.93,47.52 64.08,47.52 C67.7003241,47.4709603 70.6139737,44.5306208 70.63,40.91 Z M45.23,17.91 C45.36,17.52 45.4,17.12 45.49,16.72 C45.76,17.03 45.83,17.46 46.06,17.79 C46.47,17.79 46.88,17.68 47.29,17.66 C46.98,17.95 46.66,18.22 46.38,18.53 L46.9,19.63 C46.5244616,19.4605326 46.1603579,19.2667893 45.81,19.05 C45.49,19.32 45.22,19.64 44.88,19.88 C44.95,19.48 45.05,19.08 45.1,18.68 C44.7511931,18.4546754 44.3869598,18.2541801 44.01,18.08 C44.4084992,17.9982632 44.8133649,17.9514193 45.22,17.94 L45.23,17.91 Z M41,12.62 C41.35,12.84 41.68,13.09 42,13.32 C42.37,13.1 42.68,12.82 43,12.58 C42.88,12.97 42.78,13.36 42.63,13.74 C42.9473241,14.0137346 43.2812967,14.2675538 43.63,14.5 C43.2136196,14.5218437 42.7963804,14.5218437 42.38,14.5 C42.24,14.89 42.13,15.3 41.99,15.69 C41.83,15.29 41.71,14.89 41.57,14.49 C41.1514404,14.5327395 40.7306301,14.5494384 40.31,14.54 C40.63,14.26 40.99,14.04 41.31,13.76 C41.24,13.4 41.1,13 41,12.62 Z M35.06,11.22 C35.2899972,10.65969 35.4837301,10.0851715 35.64,9.5 C35.8811454,10.0536693 36.078419,10.6254284 36.23,11.21 L38,11.21 C37.51,11.58 37,11.92 36.52,12.3 C36.67,12.88 36.91,13.44 37.06,14.02 C36.54,13.72 36.06,13.32 35.61,13.02 C35.08,13.32 34.61,13.74 34.11,14.02 C34.25,13.45 34.48,12.9 34.64,12.33 C34.1682238,11.935186 33.67407,11.5679095 33.16,11.23 C33.81,11.19 34.42,11.2 35,11.21 L35.06,11.22 Z M28.29,12.6 C28.65,12.81 28.95,13.1 29.29,13.32 C29.64,13.1 29.97,12.85 30.29,12.62 C30.19,13.01 30.03,13.39 29.92,13.78 C30.2329004,14.0591495 30.567264,14.3132658 30.92,14.54 C30.5118246,14.5947024 30.0981754,14.5947024 29.69,14.54 C29.5214443,14.9294262 29.3810831,15.3304584 29.27,15.74 C29.1005672,15.3582823 28.9731514,14.9592697 28.89,14.55 C28.46,14.55 28.03,14.55 27.6,14.55 C27.95,14.31 28.3,14.07 28.6,13.82 C28.49,13.38 28.38,13 28.25,12.6 L28.29,12.6 Z M25.29,17.83 C25.48,17.48 25.65,17.11 25.81,16.74 C25.9427956,17.1291537 26.033317,17.531471 26.08,17.94 C26.49,17.94 26.91,18.02 27.31,18.09 C26.9684311,18.3011094 26.6144568,18.4914541 26.25,18.66 C26.295921,19.0770522 26.3660392,19.4910835 26.46,19.9 C26.1246481,19.6606582 25.8161853,19.3857239 25.54,19.08 L24.43,19.68 C24.59,19.31 24.76,18.94 24.95,18.58 C24.6703923,18.2600071 24.3661266,17.9624286 24.04,17.69 C24.4322408,17.7155171 24.8228124,17.7622522 25.21,17.83 L25.29,17.83 Z M30.59,36.26 C33.13,36.15 35.68,36.2 38.23,36.2 C39.1120128,36.1316919 39.9979872,36.1316919 40.88,36.2 C37.558452,37.5466837 33.8469087,37.5681584 30.51,36.26 L30.59,36.26 Z M43.15,35.09 C42.795939,35.3152776 42.4286045,35.5189812 42.05,35.7 C41.6885982,35.8152239 41.3069133,35.8527108 40.93,35.81 C37.1633333,35.8566667 33.3966667,35.8566667 29.63,35.81 C29.1277373,35.6190984 28.6508314,35.3672115 28.21,35.06 C29.62,35.01 31.03,35.06 32.44,35.06 L41.22,35.06 C41.8622985,35.0083971 42.5077015,35.0083971 43.15,35.06 L43.15,35.09 Z M44.15,34.43 C38.5366667,34.49 32.9233333,34.49 27.31,34.43 L26.58,33.86 C26.78,33.74 27.02,33.8 27.24,33.79 C33.14,33.68 39.03,33.88 44.93,33.79 C44.58,34 44.31,34.22 44,34.43 L44.15,34.43 Z M45.62,33.02 L30.59,33.02 C29.04,33.02 27.48,33.02 25.93,33.02 C25.64,33.02 25.44,32.84 25.27,32.64 C32.2,32.46 39.14,32.64 46.07,32.57 C45.89,32.74 45.77,33 45.52,33 L45.62,33.02 Z M46.85,31.76 C44.64,31.87 42.42,31.84 40.2,31.76 C38.5591695,31.641411 36.9947935,31.0198508 35.72,29.98 C34.9096533,30.6030747 34.0049018,31.0925858 33.04,31.43 C31.9077961,31.7415294 30.7323967,31.8665 29.56,31.8 C27.9,31.8 26.23,31.8 24.56,31.74 C24.3694326,31.5035917 24.1924796,31.2565253 24.03,31 L30.58,31 C32.4834013,30.9339782 34.2956393,30.1684946 35.67,28.85 C37.0446847,30.111371 38.8084146,30.8662474 40.67,30.99 C42.35,30.99 44.04,30.99 45.67,30.99 C46.225528,30.9396468 46.784472,30.9396468 47.34,30.99 C47.1646918,31.2623487 46.9673651,31.5198768 46.75,31.76 L46.85,31.76 Z M45.85,27.26 C44.6617176,28.5319379 43.0665538,29.348973 41.34,29.57 C40.862104,29.6262788 40.381189,29.6529963 39.9,29.65 C40.2472043,29.7513281 40.6086332,29.79524 40.97,29.78 C41.7760331,29.7452389 42.5750276,29.6143112 43.35,29.39 C44.5048429,28.9946419 45.5690193,28.3724557 46.48,27.56 C46.78,27.63 47.09,27.67 47.39,27.74 C46.6062602,28.6426336 45.623855,29.3511976 44.52,29.81 C42.6956849,30.5430286 40.6680468,30.592743 38.81,29.95 C37.6401473,29.5352092 36.5848243,28.8499345 35.73,27.95 C34.6208925,29.1612065 33.1457737,29.976034 31.53,30.27 C29.584598,30.6493217 27.5676472,30.29297 25.87,29.27 C25.2033377,28.8479985 24.5976956,28.3365674 24.07,27.75 C24.3709345,27.7134725 24.6685223,27.6532862 24.96,27.57 C26.1386001,28.6186108 27.5739513,29.3362865 29.12,29.65 C29.9402649,29.7954936 30.7797351,29.7954936 31.6,29.65 C31.3942974,29.6217695 31.1857026,29.6217695 30.98,29.65 C28.9679765,29.6129315 27.0550017,28.7699257 25.67,27.31 C24.8539689,26.5445829 24.233296,25.5947133 23.86,24.54 C25.4428966,23.8963696 27.1669179,23.6791429 28.86,23.91 C30.4186303,24.1748029 31.8922672,24.8053824 33.16,25.75 C31.4656172,24.0641168 29.1702014,23.1214852 26.78,23.13 C26.53,22.85 26.32,22.54 26.1,22.25 C28.2893651,22.1564251 30.4407265,22.8440101 32.17,24.19 C32.57,24.45 32.84,24.86 33.23,25.12 C32.184604,23.7471776 31.647441,22.0544073 31.71,20.33 C31.68566,19.0078736 32.0320748,17.7053538 32.71,16.57 C32.9146068,17.0049431 33.1589797,17.4200423 33.44,17.81 C32.9920599,18.8318958 32.7312549,19.9259223 32.67,21.04 C32.671532,22.5536406 33.0976787,24.0364927 33.9,25.32 C33.4591734,24.3700438 33.1658006,23.3584137 33.03,22.32 C32.7896251,19.7669261 33.8310217,17.2608315 35.81,15.63 C37.4639925,17.0925555 38.4529196,19.1642496 38.55,21.37 C38.5750604,22.8480779 38.2020251,24.3056786 37.47,25.59 C38.381018,24.2730219 38.8725256,22.7113523 38.88,21.11 C38.8348335,19.9764753 38.5699281,18.8625144 38.1,17.83 C38.3910038,17.4340999 38.6327787,17.0042777 38.82,16.55 C39.5199831,17.7200632 39.867224,19.0673577 39.82,20.43 C39.8489694,22.0847345 39.3440234,23.7047698 38.38,25.05 C40.2266228,23.1478115 42.8020152,22.1314968 45.45,22.26 C45.2007237,22.518081 44.9856304,22.8071127 44.81,23.12 C42.9790907,23.1134412 41.1884108,23.6569161 39.67,24.68 C39.2360046,24.978524 38.8278982,25.3130374 38.45,25.68 C39.6605275,24.8158916 41.0411162,24.2193409 42.5,23.93 C44.2393836,23.6630281 46.0185767,23.8703128 47.65,24.53 C47.2426825,25.583213 46.5834541,26.5205534 45.73,27.26 L45.85,27.26 Z" id="Shape" fill="#039188"></path>
                <path d="M44.87,19.91 C45.21,19.67 45.49,19.35 45.8,19.08 C46.1503579,19.2967893 46.5144616,19.4905326 46.89,19.66 L46.37,18.56 C46.66,18.25 46.98,17.98 47.28,17.69 C46.87,17.69 46.46,17.79 46.05,17.82 C45.82,17.49 45.75,17.06 45.48,16.75 C45.39,17.15 45.35,17.55 45.22,17.94 C44.8091279,17.9607066 44.4008811,18.0175934 44,18.11 C44.3769598,18.2841801 44.7411931,18.4846754 45.09,18.71 C45,19.11 44.94,19.51 44.87,19.91 Z" id="Shape" fill="#F2D660"></path>
                <path d="M24.89,18.59 C24.7,18.95 24.53,19.32 24.37,19.69 L25.48,19.09 C25.7561853,19.3957239 26.0646481,19.6706582 26.4,19.91 C26.3060392,19.5010835 26.235921,19.0870522 26.19,18.67 C26.5544568,18.5014541 26.9084311,18.3111094 27.25,18.1 C26.84,18.03 26.43,17.98 26.02,17.95 C25.973317,17.541471 25.8827956,17.1391537 25.75,16.75 C25.58,17.12 25.42,17.49 25.23,17.84 C24.8227939,17.7733996 24.4121317,17.7299963 24,17.71 C24.3188385,17.980028 24.6163867,18.2742329 24.89,18.59 Z" id="Shape" fill="#F2D660"></path>
                <path d="M41.62,14.53 C41.77,14.93 41.89,15.34 42.04,15.73 C42.18,15.33 42.29,14.93 42.43,14.54 C42.8463804,14.5618437 43.2636196,14.5618437 43.68,14.54 C43.3312967,14.3075538 42.9973241,14.0537346 42.68,13.78 C42.82,13.4 42.93,13.01 43.05,12.62 C42.7,12.86 42.38,13.14 42.05,13.36 C41.71,13.12 41.38,12.88 41.05,12.66 C41.18,13.05 41.32,13.45 41.44,13.85 C41.12,14.13 40.76,14.35 40.44,14.63 C40.8349431,14.6196376 41.2289455,14.5862476 41.62,14.53 Z" id="Shape" fill="#F2D660"></path>
                <path d="M34.16,14 C34.68,13.69 35.16,13.27 35.66,13 C36.15,13.34 36.6,13.74 37.11,14 C36.96,13.42 36.72,12.86 36.57,12.28 C37.05,11.9 37.57,11.56 38.05,11.19 L36.2,11.19 C36.048419,10.6054284 35.8511454,10.0336693 35.61,9.48 C35.4537301,10.0651715 35.2599972,10.63969 35.03,11.2 C34.43,11.2 33.82,11.2 33.22,11.2 C33.73407,11.5379095 34.2282238,11.905186 34.7,12.3 C34.53,12.89 34.3,13.44 34.16,14 Z" id="Shape" fill="#F2D660"></path>
                <path d="M28.87,14.54 C28.9531514,14.9492697 29.0805672,15.3482823 29.25,15.73 C29.3610831,15.3204584 29.5014443,14.9194262 29.67,14.53 C30.0781754,14.5847024 30.4918246,14.5847024 30.9,14.53 C30.547264,14.3032658 30.2129004,14.0491495 29.9,13.77 C30.02,13.38 30.17,13 30.27,12.61 C29.93,12.84 29.6,13.09 29.27,13.31 C28.92,13.09 28.62,12.8 28.27,12.59 C28.4,12.98 28.51,13.38 28.64,13.76 C28.3,14.02 27.95,14.25 27.64,14.49 C28,14.54 28.44,14.54 28.87,14.54 Z" id="Shape" fill="#F2D660"></path>
                <path d="M42.35,23.92 C40.8911162,24.2093409 39.5105275,24.8058916 38.3,25.67 C38.6778982,25.3030374 39.0860046,24.968524 39.52,24.67 C41.0384108,23.6469161 42.8290907,23.1034412 44.66,23.11 C44.8356304,22.7971127 45.0507237,22.508081 45.3,22.25 C42.6520152,22.1214968 40.0766228,23.1378115 38.23,25.04 C39.1940234,23.6947698 39.6989694,22.0747345 39.67,20.42 C39.717224,19.0573577 39.3699831,17.7100632 38.67,16.54 C38.4827787,16.9942777 38.2410038,17.4240999 37.95,17.82 C38.4199281,18.8525144 38.6848335,19.9664753 38.73,21.1 C38.7225256,22.7013523 38.231018,24.2630219 37.32,25.58 C38.0520251,24.2956786 38.4250604,22.8380779 38.4,21.36 C38.3029196,19.1542496 37.3139925,17.0825555 35.66,15.62 C33.6810217,17.2508315 32.6396251,19.7569261 32.88,22.31 C33.0158006,23.3484137 33.3091734,24.3600438 33.75,25.31 C32.9476787,24.0264927 32.521532,22.5436406 32.52,21.03 C32.5812549,19.9159223 32.8420599,18.8218958 33.29,17.8 C33.0089797,17.4100423 32.7646068,16.9949431 32.56,16.56 C31.8820748,17.6953538 31.53566,18.9978736 31.56,20.32 C31.497441,22.0444073 32.034604,23.7371776 33.08,25.11 C32.69,24.85 32.42,24.44 32.02,24.18 C30.2907265,22.8340101 28.1393651,22.1464251 25.95,22.24 C26.17,22.54 26.38,22.85 26.63,23.12 C29.0202014,23.1114852 31.3156172,24.0541168 33.01,25.74 C31.7422672,24.7953824 30.2686303,24.1648029 28.71,23.9 C27.0169179,23.6691429 25.2928966,23.8863696 23.71,24.53 C24.083296,25.5847133 24.7039689,26.5345829 25.52,27.3 C26.9050017,28.7599257 28.8179765,29.6029315 30.83,29.64 C31.0357026,29.6117695 31.2442974,29.6117695 31.45,29.64 C30.6297351,29.7854936 29.7902649,29.7854936 28.97,29.64 C27.4239513,29.3262865 25.9886001,28.6086108 24.81,27.56 C24.5185223,27.6432862 24.2209345,27.7034725 23.92,27.74 C24.4476956,28.3265674 25.0533377,28.8379985 25.72,29.26 C27.4176472,30.28297 29.434598,30.6393217 31.38,30.26 C32.9957737,29.966034 34.4708925,29.1512065 35.58,27.94 C36.4348243,28.8399345 37.4901473,29.5252092 38.66,29.94 C40.5180468,30.582743 42.5456849,30.5330286 44.37,29.8 C45.473855,29.3411976 46.4562602,28.6326336 47.24,27.73 C46.94,27.66 46.63,27.62 46.33,27.55 C45.4190193,28.3624557 44.3548429,28.9846419 43.2,29.38 C42.4250276,29.6043112 41.6260331,29.7352389 40.82,29.77 C40.4586332,29.78524 40.0972043,29.7413281 39.75,29.64 C40.231189,29.6429963 40.712104,29.6162788 41.19,29.56 C42.9165538,29.338973 44.5117176,28.5219379 45.7,27.25 C46.5002115,26.4910098 47.1071208,25.5515005 47.47,24.51 C45.8467829,23.8590911 44.078721,23.6553496 42.35,23.92 Z" id="Shape" fill="#FFFFFF"></path>
            </g>
        </g>
    </g>
</svg>