<?xml version="1.0" encoding="UTF-8"?>
<svg width="71px" height="48px" viewBox="0 0 71 48" version="1.1" xmlns="http://www.w3.org/2000/svg" xmlns:xlink="http://www.w3.org/1999/xlink">
    <!-- Generator: Sketch 48.1 (47250) - http://www.bohemiancoding.com/sketch -->
    <title>Malaysia@2x</title>
    <desc>Created with Sketch.</desc>
    <defs></defs>
    <g id="Flags" stroke="none" stroke-width="1" fill="none" fill-rule="evenodd" transform="translate(-154.000000, -1295.000000)">
        <g transform="translate(70.000000, 70.000000)" fill-rule="nonzero" id="Malaysia">
            <g transform="translate(84.000000, 1225.000000)">
                <path d="M64.54,0.66 L7.27,0.66 C7.03351396,0.646923672 6.79648604,0.646923672 6.56,0.66 L65.26,0.66 C65.0201884,0.64655244 64.7798116,0.64655244 64.54,0.66 Z" id="Shape" fill="#FFFFFF"></path>
                <path d="M7.27,47.66 L64.54,47.66 C64.7764843,47.6731377 65.0135157,47.6731377 65.25,47.66 L6.56,47.66 C6.79648434,47.6731377 7.03351566,47.6731377 7.27,47.66 Z" id="Shape" fill="#FFFFFF"></path>
                <path d="M70.88,41.76 L0.88,41.76 C1.10139572,44.8139023 3.4674041,47.2765682 6.51,47.62 L65.21,47.62 C68.2682687,47.2945392 70.6554814,44.8273317 70.88,41.76 Z" id="Shape" fill="#FFFFFF"></path>
                <path d="M70.9,41.76 L70.9,41.3 C70.9,41.45 70.9,41.61 70.9,41.76 Z" id="Shape" fill="#ED5565"></path>
                <path d="M0.9,41.3 L0.9,41.76 C0.92,41.61 0.9,41.45 0.9,41.3 Z" id="Shape" fill="#ED5565"></path>
                <path d="M0.9,41.3 C0.9,41.45 0.9,41.61 0.9,41.76 L70.9,41.76 C70.9,41.61 70.9,41.46 70.9,41.3 L70.9,35.89 L0.9,35.89 L0.9,41.3 Z" id="Shape" fill="#ED5565"></path>
                <rect id="Rectangle-path" fill="#FFFFFF" x="0.9" y="30.03" width="70" height="5.86"></rect>
                <rect id="Rectangle-path" fill="#ED5565" x="0.9" y="24.16" width="70" height="5.86"></rect>
                <rect id="Rectangle-path" fill="#FFFFFF" x="0.9" y="18.3" width="70" height="5.86"></rect>
                <rect id="Rectangle-path" fill="#ED5565" x="0.9" y="12.43" width="70" height="5.86"></rect>
                <path d="M70.9,7 L70.9,6.54 C70.89,6.72 70.9,6.87 70.9,7 Z" id="Shape" fill="#FFFFFF"></path>
                <path d="M0.9,6.57 L0.9,7.03 C0.9,6.88 0.9,6.72 0.9,6.57 Z" id="Shape" fill="#FFFFFF"></path>
                <path d="M0.93,6.57 C0.93,6.72 0.93,6.87 0.93,7.03 L0.93,12.44 L70.93,12.44 L70.93,7 C70.93,6.85 70.93,6.69 70.93,6.54 L0.93,6.57 Z" id="Shape" fill="#FFFFFF"></path>
                <path d="M0.93,6.57 L70.93,6.57 C70.7086043,3.51609772 68.3425959,1.0534318 65.3,0.71 L6.56,0.71 C3.5174041,1.0534318 1.15139572,3.51609772 0.93,6.57 Z" id="Shape" fill="#ED5565"></path>
                <path d="M30.23,0.71 L6.56,0.71 C3.34993209,1.0654292 0.91592965,3.77035417 0.9,7 L0.9,30 L30.22,30 L30.23,0.71 Z" id="Shape" fill="#4758A9"></path>
                <path d="M19.07,18.74 C18.71,18.97 18.52,18.83 18.63,18.42 L19.06,16.91 C19.1642493,16.4578294 19.0325251,15.9836221 18.71,15.65 L17.62,14.65 C17.31,14.36 17.4,14.13 17.83,14.13 L19.41,14.13 C19.8555008,14.1063453 20.2462645,13.8249954 20.41,13.41 L20.97,11.76 C21.11,11.36 21.32,11.36 21.45,11.76 L21.98,13.43 C22.1385609,13.8568508 22.5268012,14.1557958 22.98,14.2 L24.59,14.27 C25.01,14.27 25.09,14.52 24.76,14.79 L23.49,15.79 C23.1457977,16.098884 22.9899686,16.5663715 23.08,17.02 L23.42,18.38 C23.52,18.79 23.32,18.93 22.96,18.7 L21.68,17.85 C21.2814332,17.6174809 20.7885668,17.6174809 20.39,17.85 L19.07,18.74 Z M19.69,21.53 C19.3422266,21.6996081 18.9809891,21.8400893 18.61,21.95 C16.8913943,22.4622311 15.0396806,22.2705863 13.462406,21.4172451 C11.8851314,20.5639039 10.7115654,19.118804 10.2,17.4 C9.8283613,16.0398411 9.86312486,14.6006296 10.3,13.26 C11.5072012,9.69716555 15.3457787,7.75786105 18.93,8.9 C19.2950684,9.01662326 19.649657,9.16381096 19.99,9.34 C20.1110244,9.37358462 20.2374743,9.30817951 20.28,9.19 C20.3108594,9.092966 20.2742447,8.98719026 20.19,8.93 C19.3318972,8.18651136 18.3316585,7.62515291 17.25,7.28 C12.7470594,5.84744128 7.92622985,8.2845396 6.41,12.76 C5.399098,15.7573385 6.14908155,19.0683124 8.35292022,21.3374656 C10.5567589,23.6066188 13.8444233,24.4529555 16.87,23.53 C17.9640605,23.2103947 18.9837754,22.6767439 19.87,21.96 C19.9579949,21.9056707 19.9989096,21.7992925 19.97,21.7 C19.93595,21.5792075 19.8113543,21.50801 19.69,21.54 L19.69,21.53 Z M21.69,19.31 C21.55,19.71 21.31,19.72 21.15,19.31 L20.56,17.85 C20.3621304,17.432783 19.967399,17.1433133 19.51,17.08 L18.03,16.96 C17.61,16.96 17.54,16.69 17.87,16.43 L19.12,15.43 C19.4687397,15.1376967 19.6102488,14.6659998 19.48,14.23 L18.9,12.58 C18.76,12.18 18.9,12.05 19.28,12.29 L20.73,13.29 C21.1155443,13.5305942 21.6044557,13.5305942 21.99,13.29 L23.31,12.35 C23.65,12.1 23.86,12.24 23.76,12.65 L23.39,14.24 C23.3085539,14.6940093 23.4718786,15.1573957 23.82,15.46 L24.92,16.32 C25.25,16.58 25.18,16.82 24.76,16.85 L23.23,16.97 C22.7799501,17.0368855 22.3992339,17.3376512 22.23,17.76 L21.69,19.31 Z" id="Shape" fill="#FFCE54"></path>
            </g>
        </g>
    </g>
</svg>