<?xml version="1.0" encoding="UTF-8"?>
<svg width="71px" height="48px" viewBox="0 0 71 48" version="1.1" xmlns="http://www.w3.org/2000/svg" xmlns:xlink="http://www.w3.org/1999/xlink">
    <!-- Generator: Sketch 48.1 (47250) - http://www.bohemiancoding.com/sketch -->
    <title>Maldives@2x</title>
    <desc>Created with Sketch.</desc>
    <defs></defs>
    <g id="Flags" stroke="none" stroke-width="1" fill="none" fill-rule="evenodd" transform="translate(-239.000000, -1295.000000)">
        <g transform="translate(70.000000, 70.000000)" fill-rule="nonzero" id="Maldives">
            <g transform="translate(169.000000, 1225.000000)">
                <rect id="Rounded_Rectangle_7_copy-59" fill="#57A863" x="0.52" y="0.66" width="70" height="47" rx="6.36"></rect>
                <path d="M62.52,8.66 L62.52,39.66 L8.52,39.66 L8.52,8.66 L62.52,8.66 Z M64.16,0.66 L6.89,0.66 C3.37746899,0.66 0.53,3.50746899 0.53,7.02 L0.53,41.29 C0.53,44.802531 3.37746899,47.65 6.89,47.65 L64.16,47.65 C67.672531,47.65 70.52,44.802531 70.52,41.29 L70.52,7 C70.52,3.48746899 67.672531,0.64 64.16,0.64 L64.16,0.66 Z" id="Rounded_Rectangle_7_copy-60" fill="#ED5565"></path>
                <path d="M42.09,30.33 C41.7422266,30.4996081 41.3809891,30.6400893 41.01,30.75 C39.2913943,31.2622311 37.4396806,31.0705863 35.862406,30.2172451 C34.2851314,29.3639039 33.1115654,27.918804 32.6,26.2 C32.2283613,24.8398411 32.2631249,23.4006296 32.7,22.06 C33.9072012,18.4971656 37.7457787,16.557861 41.33,17.7 C41.6950684,17.8166233 42.049657,17.963811 42.39,18.14 C42.5110244,18.1735846 42.6374743,18.1081795 42.68,17.99 C42.7108594,17.892966 42.6742447,17.7871903 42.59,17.73 C41.7318972,16.9865114 40.7316585,16.4251529 39.65,16.08 C35.1470594,14.6474413 30.3262299,17.0845396 28.81,21.56 C27.799098,24.5573385 28.5490816,27.8683124 30.7529202,30.1374656 C32.9567589,32.4066188 36.2444233,33.2529555 39.27,32.33 C40.3640605,32.0103947 41.3837754,31.4767439 42.27,30.76 C42.3579949,30.7056707 42.3989096,30.5992925 42.37,30.5 C42.33595,30.3792075 42.2113543,30.30801 42.09,30.34 L42.09,30.33 Z" id="Shape" fill="#FFFFFF"></path>
            </g>
        </g>
    </g>
</svg>