<?xml version="1.0" encoding="UTF-8"?>
<svg width="71px" height="48px" viewBox="0 0 71 48" version="1.1" xmlns="http://www.w3.org/2000/svg" xmlns:xlink="http://www.w3.org/1999/xlink">
    <!-- Generator: Sketch 48.1 (47250) - http://www.bohemiancoding.com/sketch -->
    <title>Malta@2x</title>
    <desc>Created with Sketch.</desc>
    <defs></defs>
    <g id="Flags" stroke="none" stroke-width="1" fill="none" fill-rule="evenodd" transform="translate(-408.000000, -1295.000000)">
        <g transform="translate(70.000000, 70.000000)" fill-rule="nonzero" id="Malta">
            <g transform="translate(338.000000, 1225.000000)">
                <path d="M1.05,43.19 C1.11,43.39 1.18,43.5833333 1.26,43.77 C1.42123596,44.1482532 1.61883033,44.5099513 1.85,44.85 C1.96333333,45.0166667 2.08666667,45.18 2.22,45.34 C2.66344605,45.8715255 3.19031101,46.3274663 3.78,46.69 C4.78042199,47.3317027 5.94151794,47.6782985 7.13,47.69 L35.84,47.69 C35.84,32.0233333 35.84,16.3566667 35.84,0.69 L7.13,0.69 C3.61746899,0.69 0.77,3.53746899 0.77,7.05 L0.77,41.32 C0.759058764,41.5365285 0.759058764,41.7534715 0.77,41.97 C0.822797441,42.3849186 0.916589215,42.7935828 1.05,43.19 Z" id="Shape" fill="#FFFFFF"></path>
                <path d="M47.45,47.66 L64.4,47.66 C64.9749185,47.6573273 65.546811,47.5765895 66.1,47.42 L66.29,47.42 L66.5,47.34 L66.87,47.2 L67.1,47.09 L67.43,46.93 L67.48,46.93 C67.64,46.84 67.8,46.75 67.95,46.64 L68.19,46.46 L68.44,46.27 L68.54,46.18 C68.8145798,45.9452093 69.0688185,45.6876254 69.3,45.41 L69.51,45.12 L69.66,44.92 L69.8,44.69 C69.86,44.59 69.92,44.5 69.98,44.39 C70.1710382,44.0389915 70.3284074,43.6706807 70.45,43.29 C70.45,43.13 70.54,42.97 70.57,42.81 L70.57,42.68 C70.6562856,42.2587934 70.6998397,41.8299537 70.7,41.4 L70.7,7 C70.6998397,6.57004634 70.6562856,6.14120656 70.57,5.72 C70.57,5.53 70.48,5.34 70.43,5.16 C70.3084074,4.77931927 70.1510382,4.4110085 69.96,4.06 C69.9,3.96 69.84,3.86 69.78,3.76 L69.64,3.53 L69.49,3.33 L69.28,3.04 L69.14,2.89 L68.87,2.59 L68.62,2.37 L68.42,2.18 L68.29,2.09 C68.0103688,1.86877104 67.7126565,1.67141115 67.4,1.5 L67.07,1.34 L66.84,1.23 L66.47,1.09 L66.26,1.01 L66.07,1.01 C65.516811,0.853410459 64.9449185,0.772672696 64.37,0.77 L35.85,0.77 C35.85,16.4366667 35.85,32.1033333 35.85,47.77 L47.45,47.66 Z" id="Shape" fill="#ED5565"></path>
                <path d="M25.81,14.71 L21.81,14.71 L21.81,10.71 C21.81,9.6054305 20.9145695,8.71 19.81,8.71 L16.81,8.71 C15.7054305,8.71 14.81,9.6054305 14.81,10.71 L14.81,14.71 L10.81,14.71 C9.7054305,14.71 8.81,15.6054305 8.81,16.71 L8.81,19.71 C8.81,20.8145695 9.7054305,21.71 10.81,21.71 L14.81,21.71 L14.81,25.71 C14.81,26.8145695 15.7054305,27.71 16.81,27.71 L19.81,27.71 C20.9145695,27.71 21.81,26.8145695 21.81,25.71 L21.81,21.71 L25.81,21.71 C26.9145695,21.71 27.81,20.8145695 27.81,19.71 L27.81,16.71 C27.81,15.6054305 26.9145695,14.71 25.81,14.71 Z" id="Shape" fill="#CCD1D9"></path>
            </g>
        </g>
    </g>
</svg>