<?xml version="1.0" encoding="UTF-8"?>
<svg width="71px" height="48px" viewBox="0 0 71 48" version="1.1" xmlns="http://www.w3.org/2000/svg" xmlns:xlink="http://www.w3.org/1999/xlink">
    <!-- Generator: Sketch 48.1 (47250) - http://www.bohemiancoding.com/sketch -->
    <title>Marshall_Islands@2x</title>
    <desc>Created with Sketch.</desc>
    <defs></defs>
    <g id="Flags" stroke="none" stroke-width="1" fill="none" fill-rule="evenodd" transform="translate(-70.000000, -1356.000000)">
        <g transform="translate(70.000000, 70.000000)" fill-rule="nonzero" id="Marshall_Islands">
            <g transform="translate(0.000000, 1286.000000)">
                <rect id="Rounded_Rectangle_7_copy-61" fill="#4758A9" x="0.28" y="0.95" width="70" height="47" rx="6.36"></rect>
                <path d="M70.28,10.75 L3.52,47.12 C4.07244716,47.4343865 4.66916132,47.6636326 5.29,47.8 L70.29,19.96 L70.28,10.75 Z" id="Shape" fill="#FFFFFF"></path>
                <path d="M69,3.53 L2.39,46.31 C2.75537287,46.6421372 3.15806829,46.9307356 3.59,47.17 L70.28,11.17 L70.28,7.35 C70.2807413,5.97124721 69.8313024,4.62995282 69,3.53 Z" id="Shape" fill="#F6D660"></path>
                <polygon id="Shape" fill="#FFFFFF" points="16.87 6.54 16.46 13.16 14.68 8.94 15.36 13.43 12.61 9.8 14.41 13.94 10.8 11.2 13.61 14.65 9.53 12.88 13.1 15.53 8.66 14.95 12.86 16.58 6.27 17.17 12.87 17.6 8.69 19.29 13.09 18.71 9.53 21.29 13.66 19.51 10.85 23 14.43 20.34 12.65 24.39 15.52 20.87 14.74 25.26 16.54 21.16 16.95 27.64 17.59 21.18 19.15 25.31 18.56 20.86 21.41 24.39 19.54 20.27 23.12 23.1 20.27 19.56 24.53 21.3 20.76 18.6 25.35 19.36 21 17.68 27.83 17.26 21 16.64 25.5 15.17 20.84 15.74 24.69 13.1 20.35 14.81 23.35 11.25 19.7 14.05 21.46 9.77 18.62 13.4 19.23 8.86 17.55 13.14"></polygon>
            </g>
        </g>
    </g>
</svg>