<?xml version="1.0" encoding="UTF-8"?>
<svg width="71px" height="48px" viewBox="0 0 71 48" version="1.1" xmlns="http://www.w3.org/2000/svg" xmlns:xlink="http://www.w3.org/1999/xlink">
    <!-- Generator: Sketch 48.1 (47250) - http://www.bohemiancoding.com/sketch -->
    <title>Mauritania@2x</title>
    <desc>Created with Sketch.</desc>
    <defs></defs>
    <g id="Flags" stroke="none" stroke-width="1" fill="none" fill-rule="evenodd" transform="translate(-154.000000, -1356.000000)">
        <g transform="translate(70.000000, 70.000000)" fill-rule="nonzero" id="Mauritania">
            <g transform="translate(84.000000, 1286.000000)">
                <rect id="Rounded_Rectangle_7_copy-64" fill="#ED5565" x="0.9" y="0.95" width="70" height="47" rx="6.36"></rect>
                <rect id="Rounded_Rectangle_7_copy-65" fill="#57A863" x="0.9" y="8.02" width="70" height="32.85"></rect>
                <path d="M39.46,20.92 C39.62,21.47 39.36,21.66 38.88,21.36 L37.08,20.22 C36.527352,19.9230981 35.862648,19.9230981 35.31,20.22 L33.59,21.22 C33.1,21.51 32.83,21.3 33,20.76 L33.62,18.76 C33.7706764,18.1677205 33.5544352,17.5425868 33.07,17.17 L31.14,15.81 C30.67,15.48 30.76,15.2 31.32,15.19 L33.69,15.19 C34.3040226,15.1497644 34.8405646,14.7609658 35.07,14.19 L35.78,12.19 C35.97,11.65 36.3,11.64 36.52,12.19 L37.36,14.19 C37.6293822,14.7501382 38.1714336,15.1291951 38.79,15.19 L40.68,15.28 C41.25,15.28 41.36,15.62 40.92,15.99 L39.33,17.31 C38.8761111,17.7284209 38.6847197,18.3600127 38.83,18.96 L39.46,20.92 Z" id="Shape" fill="#F6D660"></path>
                <path d="M44.26,18.83 C44.4873242,19.2966323 44.6746622,19.781704 44.82,20.28 C45.5060111,22.5834087 45.2486848,25.0650096 44.1046534,27.1786545 C42.960622,29.2922994 41.0236413,30.8647705 38.72,31.55 L38.61,31.55 C35.3152067,32.5079446 31.7604866,31.5801179 29.3541674,29.1341111 C26.9478483,26.6881044 26.0782905,23.1186834 27.09,19.84 C27.2484842,19.3469582 27.4492292,18.8685159 27.69,18.41 C27.742419,18.2470799 27.6528928,18.0725038 27.49,18.02 C27.3618303,17.9762841 27.2201175,18.0208224 27.14,18.13 C26.1368984,19.2783258 25.378149,20.6188965 24.91,22.07 C23.8088762,25.5553037 24.4103163,29.3555018 26.5338746,32.3304497 C28.6574329,35.3053977 32.0560261,37.1089498 35.71,37.2 C40.1638381,37.2853191 44.2614736,34.775282 46.2088716,30.7688379 C48.1562697,26.7623939 47.5985912,21.9895647 44.78,18.54 C44.7054369,18.4233912 44.5626059,18.3703397 44.43,18.41 C44.3503639,18.4311032 44.2824034,18.4830379 44.2411256,18.5543359 C44.1998479,18.6256339 44.1886483,18.7104302 44.21,18.79 L44.26,18.83 Z" id="Shape" fill="#F6D660"></path>
            </g>
        </g>
    </g>
</svg>