<?xml version="1.0" encoding="UTF-8"?>
<svg width="71px" height="48px" viewBox="0 0 71 48" version="1.1" xmlns="http://www.w3.org/2000/svg" xmlns:xlink="http://www.w3.org/1999/xlink">
    <!-- Generator: Sketch 48.1 (47250) - http://www.bohemiancoding.com/sketch -->
    <title>Mexico@2x</title>
    <desc>Created with Sketch.</desc>
    <defs></defs>
    <g id="Flags" stroke="none" stroke-width="1" fill="none" fill-rule="evenodd" transform="translate(-324.000000, -1356.000000)">
        <g transform="translate(70.000000, 70.000000)" fill-rule="nonzero" id="Mexico">
            <g transform="translate(254.000000, 1286.000000)">
                <g id="Mali-4">
                    <g id="France-9">
                        <g id="Belgium-13">
                            <g id="Bahamas-16">
                                <path d="M6.51,0.95 C2.99746899,0.95 0.15,3.79746899 0.15,7.31 L0.15,41.58 C0.15,45.092531 2.99746899,47.94 6.51,47.94 L23.51,47.94 C23.51,32.2733333 23.51,16.6066667 23.51,0.94 L6.51,0.95 Z" id="Shape" fill="#57A863"></path>
                                <path d="M23.49,0.95 C23.49,16.6166667 23.49,32.2833333 23.49,47.95 L46.84,47.95 C46.84,32.2833333 46.84,16.6166667 46.84,0.95 L23.49,0.95 Z" id="Shape" fill="#FFFFFF"></path>
                                <path d="M63.78,0.95 L46.83,0.95 C46.83,16.6166667 46.83,32.2833333 46.83,47.95 L63.78,47.95 C67.292531,47.95 70.14,45.102531 70.14,41.59 L70.14,7.32 C70.1426549,5.63149117 69.4737576,4.01123007 68.2807384,2.81633501 C67.0877191,1.62143996 65.4685109,0.949997913 63.78,0.95 Z" id="Shape" fill="#ED5565"></path>
                            </g>
                        </g>
                    </g>
                </g>
                <g id="coa" transform="translate(25.000000, 16.000000)">
                    <g id="branches" transform="translate(0.000000, 7.000000)" fill="#57A863">
                        <path d="M19.3,3.37 C19.5541699,3.17265259 19.7167193,2.88006367 19.75,2.56 C19.7814565,2.259515 19.6954552,1.95851022 19.51,1.72 C19.5067949,1.57666694 19.4210747,1.44808669 19.29,1.39 L19.18,1.39 C19.1396573,1.29180602 19.0893968,1.19798645 19.03,1.11 C18.9578634,1.02820483 18.8540602,0.981346375 18.745,0.981346375 C18.6359398,0.981346375 18.5321366,1.02820483 18.46,1.11 C18.3552559,1.22186766 18.2645831,1.34612297 18.19,1.48 C18.0941393,1.40852001 17.979384,1.3667908 17.86,1.36 C17.7645238,1.35202738 17.6701151,1.38470731 17.6,1.45 C17.4689809,1.59475588 17.4689809,1.81524412 17.6,1.96 C17.6128004,2.00578889 17.6128004,2.05421111 17.6,2.1 L17.6,2.24 C17.5315837,2.49210746 17.5315837,2.75789254 17.6,3.01 C17.3873651,3.0851414 17.2438189,3.28451113 17.24,3.51 C17.2474578,3.6001798 17.2711732,3.68826572 17.31,3.77 C17.3472927,3.84571879 17.406534,3.90844485 17.48,3.95 C17.3156929,4.0280537 17.1612712,4.12540656 17.02,4.24 C16.672464,4.48958368 16.46746,4.89213688 16.47,5.32 C16.4665808,5.37661509 16.4665808,5.43338491 16.47,5.49 C16.3054782,5.47361209 16.1437861,5.54129714 16.04,5.67 C15.9745776,5.74517617 15.9267494,5.83399995 15.9,5.93 C15.8785683,5.98808617 15.8785683,6.05191383 15.9,6.11 L15.82,6.11 C15.6274541,6.12566235 15.479364,6.28681921 15.48,6.48 C15.4774402,6.50326313 15.4774402,6.52673687 15.48,6.55 C15.410573,6.61772032 15.337105,6.68117 15.26,6.74 C14.9751379,6.93162837 14.744401,7.19335979 14.59,7.5 C14.4542099,7.42314767 14.2928516,7.4053198 14.1435593,7.45067443 C13.994267,7.49602906 13.8700934,7.60060076 13.8,7.74 C13.8,7.79 13.8,7.74 13.8,7.85 C13.8,7.96 13.8,7.99 13.8,8.01 C13.7934703,8.04973352 13.7934703,8.09026648 13.8,8.13 C13.6408016,8.05526033 13.4656348,8.02091392 13.29,8.03 C12.9962435,8.02348726 12.7061321,8.09601511 12.45,8.24 C12.3171163,8.32343197 12.1988695,8.42816486 12.1,8.55 C12.0424311,8.62226877 11.9751241,8.68621036 11.9,8.74 C11.8115316,8.79051348 11.7175914,8.83077358 11.62,8.86 L11.48,8.86 C11.3673274,8.81618841 11.2498306,8.78597492 11.13,8.77 C10.9571869,8.75100759 10.7828131,8.75100759 10.61,8.77 C10.46,8.77 10.34,8.98 10.29,9.15 C10.2848946,9.01260008 10.2040198,8.88936237 10.08,8.83 C9.90336467,8.74976877 9.71361058,8.70233025 9.52,8.69 C9.30002163,8.69621478 9.08167399,8.72980673 8.87,8.79 C8.78977657,8.6436021 8.64526708,8.54355707 8.48,8.52 L8.37,8.52 C8.24073435,8.35608969 8.04825181,8.2544008 7.84,8.24 C7.68217052,8.22210107 7.52251949,8.24986647 7.38,8.32 C7.29465215,8.27074506 7.19848664,8.2432692 7.1,8.24 C6.94381323,8.22731516 6.78812092,8.2697767 6.66,8.36 L6.66,8.3 C6.6686113,8.27061795 6.6686113,8.23938205 6.66,8.21 C6.66375529,8.16007051 6.66375529,8.10992949 6.66,8.06 C6.67681822,8.00799254 6.67681822,7.95200746 6.66,7.9 C6.64499912,7.86081977 6.62481984,7.82382443 6.6,7.79 C6.56430656,7.74244362 6.52025535,7.70178097 6.47,7.67 C6.34802454,7.47487436 6.10862295,7.38819447 5.89,7.46 C5.85178444,7.42579385 5.80775757,7.39870039 5.76,7.38 C5.75559142,7.27650805 5.73184923,7.1747558 5.69,7.08 C5.58596007,6.85084881 5.38976862,6.67645641 5.15,6.6 C5.10160685,6.4234889 4.98209035,6.27499871 4.82,6.19 C4.71291764,6.15417036 4.59708236,6.15417036 4.49,6.19 L4.49,6.14 C4.49890928,6.09375856 4.49890928,6.04624144 4.49,6 C4.47262733,5.92345901 4.4384716,5.85173197 4.39,5.79 C4.36784422,5.57136882 4.2055366,5.39283044 3.99,5.35 C4.00373152,5.22237271 3.95537776,5.09590904 3.86,5.01 C3.82752112,4.98065939 3.7903349,4.95699543 3.75,4.94 C3.74588219,4.81607811 3.71875432,4.69400267 3.67,4.58 C3.60313294,4.31852841 3.35928176,4.14194653 3.09,4.16 C3.02476919,4.07968013 2.9321849,4.02626612 2.83,4.01 L2.83,3.94 L2.97,3.94 C3.07613784,3.87269485 3.15971952,3.77518288 3.21,3.66 C3.23895252,3.57575136 3.23895252,3.48424864 3.21,3.4 C3.29351652,3.19057998 3.2233533,2.95119956 3.04,2.82 L2.96,2.82 C3.00670886,2.71147928 3.00670886,2.58852072 2.96,2.48 C3.04417669,2.37049148 3.09300942,2.23794551 3.1,2.1 C3.10252802,1.95645952 3.0444403,1.81850119 2.94,1.72 C2.94204784,1.69003495 2.94204784,1.65996505 2.94,1.63 C2.97679055,1.48520679 2.93932414,1.33159451 2.84,1.22 C2.71079416,1.05770496 2.48578202,1.00770226 2.3,1.1 L2.2,1.1 L2.14,1.1 C2.02236375,1.08426578 1.90336001,1.11672134 1.81,1.19 C1.69218037,1.28636982 1.59952553,1.40990961 1.54,1.55 L1.47,1.55 C1.32497003,1.5906172 1.20241431,1.68794086 1.13,1.82 C1.06362932,1.94222344 1.03574378,2.08165118 1.05,2.22 C0.979233896,2.26914401 0.921002883,2.33422573 0.88,2.41 C0.68,2.78 0.95,3.07 1.19,3.24 C1.15024219,3.27026672 1.11635188,3.30754607 1.09,3.35 C0.985174434,3.5329412 1.01814392,3.7637276 1.17,3.91 C1.20764328,4.02371028 1.28137825,4.12202358 1.38,4.19 C1.49093895,4.2569731 1.62226271,4.28181814 1.75,4.26 L1.69,4.33 C1.68370775,4.37310492 1.68370775,4.41689508 1.69,4.46 C1.56550383,4.51206749 1.47796015,4.6262549 1.46,4.76 C1.42058708,4.98417495 1.50926241,5.21164643 1.69,5.35 C1.7080963,5.63817755 1.88007962,5.89424161 2.14,6.02 C2.15104174,6.10588217 2.18184865,6.18803393 2.23,6.26 C2.31284647,6.35881341 2.42487545,6.42883152 2.55,6.46 C2.49665747,6.5323148 2.46854972,6.62015151 2.47,6.71 C2.48124634,6.82299635 2.53062088,6.92879895 2.61,7.01 C2.65670534,7.06703898 2.71938504,7.10882545 2.79,7.13 L2.79,7.19 C2.8666764,7.2716822 2.96902798,7.32462267 3.08,7.34 C3.12729687,7.36325138 3.18270313,7.36325138 3.23,7.34 C3.3028108,7.32071322 3.37088409,7.28667657 3.43,7.24 L3.43,7.32 C3.35341919,7.59898763 3.46174639,7.89588439 3.7,8.06 C3.71004454,8.27278893 3.80779412,8.47190845 3.97,8.61 C4.13240211,8.76875824 4.3440073,8.86750733 4.57,8.89 L4.7,8.89 L4.81,8.96 C4.80779215,9.06077926 4.83948571,9.15938143 4.9,9.24 C4.93924384,9.2935419 4.9864581,9.34075616 5.04,9.38 C5.07155522,9.40617235 5.10953247,9.42343474 5.15,9.43 L5.32,9.43 C5.37748655,9.4688458 5.44204087,9.49602657 5.51,9.51 C5.52932513,9.61603003 5.59061998,9.70977509 5.68,9.77 C5.78706823,9.82744007 5.9099136,9.84849928 6.03,9.83 C6.07865828,9.86075285 6.1331186,9.88117547 6.19,9.89 C6.23625259,10.0230732 6.33863113,10.1291081 6.47,10.18 C6.60446179,10.2147179 6.74553821,10.2147179 6.88,10.18 C6.95477908,10.3017478 7.07255466,10.3909717 7.21,10.43 C7.38153477,10.4902208 7.56846523,10.4902208 7.74,10.43 C7.79708351,10.471726 7.86155275,10.5022641 7.93,10.52 L8,10.52 C8.18413606,10.5024431 8.3585496,10.4291894 8.5,10.31 C8.59919537,10.3799345 8.71873745,10.4150939 8.84,10.41 C9.01313957,10.4136899 9.17993138,10.3447976 9.3,10.22 L9.37,10.22 L9.6,10.07 C9.71053078,10.0116615 9.82818615,9.96796097 9.95,9.94 C10.0670854,9.90486817 10.1601204,9.81555453 10.2,9.7 C10.2312002,9.83941535 10.3281457,9.95500422 10.46,10.01 C10.5924885,10.0532727 10.7226609,10.103339 10.85,10.16 C10.9,10.16 10.98,10.25 10.98,10.23 C11.077353,10.4157267 11.2703104,10.531501 11.48,10.53 C11.6363086,10.5256053 11.7826991,10.4524101 11.88,10.33 C12.0772325,10.4813357 12.312676,10.5748207 12.56,10.6 C13.0010909,10.5411126 13.426029,10.3949339 13.81,10.17 L13.98,10.09 C14.0727985,10.0758693 14.1672015,10.0758693 14.26,10.09 C14.4660242,10.0900714 14.6345783,9.92595285 14.64,9.72 C14.6437648,9.69011811 14.6437648,9.65988189 14.64,9.63 L14.75,9.68 C14.8112416,9.70301995 14.8787584,9.70301995 14.94,9.68 C15.0556968,9.67856344 15.1678729,9.64000292 15.26,9.57 C15.337444,9.51111712 15.3964305,9.4313119 15.43,9.34 C15.4402414,9.29052444 15.4402414,9.23947556 15.43,9.19 C15.4483515,9.11105243 15.4483515,9.02894757 15.43,8.95 C15.7788641,8.9329147 16.1199451,8.84082282 16.43,8.68 C16.7694637,8.45464082 16.986896,8.08611139 17.02,7.68 C17.071175,7.61418486 17.0992856,7.53336666 17.1,7.45 L17.21,7.45 C17.2489497,7.46296325 17.2910503,7.46296325 17.33,7.45 L17.43,7.45 C17.5059354,7.43353647 17.575432,7.39531333 17.63,7.34 L17.7,7.27 C17.7399966,7.24069833 17.7683356,7.19818984 17.78,7.15 C17.78,7.15 17.78,7.03 17.78,7 C17.7910577,6.94723982 17.7910577,6.89276018 17.78,6.84 C17.7683549,6.76516445 17.7410981,6.69361538 17.7,6.63 L17.84,6.56 C18.2318637,6.26308829 18.5077442,5.83865686 18.62,5.36 C18.6811911,5.22307155 18.7657916,5.09786272 18.87,4.99 C18.9923135,4.86728626 19.0130916,4.67612735 18.92,4.53 C18.884198,4.47012558 18.8321984,4.42159256 18.77,4.39 L18.87,4.39 C18.9281624,4.36953521 18.9823078,4.33907844 19.03,4.3 C19.03,4.3 19.08,4.3 19.11,4.22 C19.140876,4.17236142 19.1676394,4.12218014 19.19,4.07 L19.19,4 C19.1937443,3.96342892 19.1937443,3.92657108 19.19,3.89 C19.1821421,3.79228921 19.154949,3.69711336 19.11,3.61 L19.3,3.37 Z" id="Shape"></path>
                    </g>
                    <path d="M15.14,11.81 L15.14,11.68 C15.1358822,11.5560781 15.1087543,11.4340027 15.06,11.32 C14.99,11.19 14.59,10.88 14.43,10.9 C14.1714101,10.9943043 13.9409123,11.1525565 13.76,11.36 C13.51,11.6 13.54,11.8 13.19,11.78 L13,11.78 L13,11.7 C13.0133333,11.6272727 13.0133333,11.5527273 13,11.48 C12.995828,11.388129 12.9790027,11.2972727 12.95,11.21 L12.75,10.98 C12.75,10.98 12.37,10.77 12.35,10.78 L12,10.78 L11.42,11.1 L11.36,11.1 L11,11.19 L10.91,11.19 L11.23,10.73 L10.6,10.8 L10.41,10.8 L10.19,10.8 C10.1135763,10.7771819 10.0422732,10.7398327 9.98,10.69 C9.88937281,10.6236085 9.792202,10.5666463 9.69,10.52 C9.53458806,10.4511286 9.37411618,10.3942948 9.21,10.35 C9.07971452,10.3117363 8.94553696,10.2882553 8.81,10.28 C8.68842514,10.2830817 8.57034069,10.3212854 8.47,10.39 C8.31467257,10.4969999 8.18491171,10.637005 8.09,10.8 C7.95772639,10.6421373 7.80659924,10.5010853 7.64,10.38 L7.58,10.33 C7.33066503,10.1605657 7.04075987,10.0604794 6.74,10.04 C6.48560155,10.0188379 6.2353841,10.1145092 6.06,10.3 C6.06365203,10.2400556 6.06365203,10.1799444 6.06,10.12 C6.01709638,9.79460779 5.85712223,9.49598938 5.61,9.28 C5.40420219,9.05751036 5.1130105,8.93375389 4.81,8.94 C4.69721928,8.95878058 4.5926929,9.01104377 4.51,9.09 C4.42460898,9.18134834 4.36883504,9.29638209 4.35,9.42 L4.35,9.48 C4.35,9.48 4.35,9.48 4.35,9.54 C4.34619524,9.58658912 4.34619524,9.63341088 4.35,9.68 L4.35,9.78 L4.41,9.95 L4.47,10.04 L4.47,10.09 L4.57,10.23 L4.82,10.44 L4.92,10.49 L5.06,10.56 L5.13,10.56 L5.23,10.56 L5.31,10.56 L5.38,10.56 L5.52,10.56 L5.65,10.56 L5.83,10.56 C5.82570879,10.5931952 5.82570879,10.6268048 5.83,10.66 C5.85295383,10.7676873 5.90887671,10.8655524 5.99,10.94 C6.28357632,11.1447867 6.63207401,11.256306 6.99,11.26 L7.28,11.26 C7.49404927,11.2553168 7.70227135,11.1893799 7.88,11.07 C7.89711105,11.2414963 7.97517155,11.4011655 8.1,11.52 C8.2272488,11.646342 8.3861288,11.7361438 8.56,11.78 C8.84834927,11.8491716 9.14349616,11.886065 9.44,11.89 C9.62003693,11.8953703 9.79956931,11.8682711 9.97,11.81 C10.1094776,11.75683 10.2382092,11.6789135 10.35,11.58 C10.3090264,11.7332696 10.2888457,11.8913523 10.29,12.05 C10.29,12.18 10.29,12.33 10.29,12.46 C8.53,12.46 7.1,12.89 7.1,13.46 C7.1,14.03 8.53,14.46 10.29,14.46 C12.05,14.46 13.48,14.03 13.48,13.46 C13.48,12.89 12.57,12.69 11.32,12.56 C11.3428099,12.4734201 11.3875885,12.3941964 11.45,12.33 C11.6884589,12.1611929 11.9685868,12.0609002 12.26,12.04 C12.3891825,12.034256 12.5155118,12.000113 12.63,11.94 L12.71,11.94 L13.11,12.11 L13.46,12.21 L13.56,12.21 L13.88,12.21 C14.2356698,12.1779982 14.5785339,12.0614244 14.88,11.87 L14.94,11.87 L15,11.87 L15.14,11.76 L15.14,11.81 Z" id="Shape" fill="#039188"></path>
                    <g id="eagle_snake" transform="translate(3.000000, 0.000000)">
                        <path d="M3.83,8.83 L3.59,8.47 L3.48,8.47 L3.55,8.47 C3.50403363,8.48143341 3.45596637,8.48143341 3.41,8.47 C3.33386887,8.46844343 3.26165529,8.43594732 3.21,8.38 C3.13970222,8.30966344 3.09409058,8.21844016 3.08,8.12 C3.05798409,7.98954393 3.02107618,7.86204388 2.97,7.74 C2.87084805,7.57102039 2.73394488,7.42727206 2.57,7.32 C2.41,7.19 2.26,7.07 2.24,6.93 C2.23710864,6.90341171 2.23710864,6.87658829 2.24,6.85 C2.25042038,6.7247832 2.28434575,6.60265184 2.34,6.49 L2.34,6.4 C2.38275851,6.30947395 2.40332673,6.21006093 2.4,6.11 C2.4,6.11 2.4,6.11 2.4,6.04 C2.40151782,6.0100192 2.40151782,5.9799808 2.4,5.95 C2.35981236,5.73576353 2.22840941,5.54960934 2.04,5.44 C1.95174013,5.38105774 1.85796706,5.33082217 1.76,5.29 C1.76,5.29 1.7,5.15 1.62,5.13 C1.54,5.11 1.5,5.26 1.46,5.29 L1.46,5.2 C1.44303582,5.14420423 1.39705758,5.10205751 1.34,5.09 C1.2962709,5.08012604 1.2513141,5.10056095 1.23,5.14 C1.23,5.14 1.23,5.02 1.08,5.02 C0.93,5.02 0.97,5.19 0.94,5.19 C0.91,5.19 0.77,5.19 0.75,5.3 C0.73,5.41 0.85,5.42 0.86,5.44 C0.846028963,5.49580553 0.846028963,5.55419447 0.86,5.61 C0.86,5.68 1.03,5.61 1.08,5.61 C1.07720266,5.62654929 1.07720266,5.64345071 1.08,5.66 C1.13,5.74 1.3,5.66 1.3,5.66 L1.3,5.59 C1.3,5.65 1.3,5.76 1.39,5.78 C1.45281878,5.79332039 1.51714846,5.76517615 1.55,5.71 L1.65,5.78 C1.71073893,5.8252764 1.75611598,5.88810616 1.78,5.96 C1.75929165,6.09331146 1.7152874,6.22193927 1.65,6.34 C1.57077112,6.50587934 1.52652032,6.68628648 1.52,6.87 C1.52,6.87 1.52,6.93 1.52,6.96 C1.5151746,7.01656394 1.5151746,7.07343606 1.52,7.13 C1.534795,7.2361307 1.58397244,7.33448558 1.66,7.41 C1.70957911,7.47631846 1.7666205,7.53671524 1.83,7.59 C1.98665159,7.69303612 2.12803587,7.81758893 2.25,7.96 C2.32927779,8.13756747 2.37990607,8.32657971 2.4,8.52 C2.41779983,8.62326171 2.4480191,8.72399261 2.49,8.82 C2.52907182,8.91120896 2.59544987,8.98806776 2.68,9.04 C2.80426748,9.11291858 2.94592129,9.15092327 3.09,9.15 L3.25,9.15 L3.44,9.1 C3.51411396,9.07178968 3.58460919,9.0348636 3.65,8.99 C3.72537701,8.95699166 3.788382,8.90098722 3.83,8.83 Z M2.94,7.98 L2.94,7.88 L2.94,7.97 L2.94,7.98 Z" id="Shape" fill="#57A863"></path>
                        <path d="M3.21,2.55 C3.4,2.55 3.29,2 3.29,2 L3.16,2.11 C3.20697755,2.17426962 3.23472201,2.25056691 3.24,2.33 C3.24922741,2.39969591 3.24922741,2.47030409 3.24,2.54 L3.21,2.55 Z" id="Shape" fill="#57A863"></path>
                        <path d="M5.32,8.3 L5.19,8.01 L5.19,7.81 L5.19,7.61 L5.19,7.42 L5.13,7.24 L5.03,7.08 L4.94,7 L4.85,6.92 L4.68,6.87 L4.52,6.87 L4.21,6.87 L3.88,6.87 L3.75,6.87 L3.5,6.75 L3.34,6.48 L3.34,6.16 L3.41,5.98 L3.51,5.84 L3.57,5.78 L3.79,5.56 L3.84,5.56 L4.01,5.42 L4.14,5.32 L4.32,5.17 C4.37737818,5.12409703 4.42789043,5.0702173 4.47,5.01 L4.67,4.78 L4.81,4.53 C4.73451187,4.45784321 4.64637359,4.40021433 4.55,4.36 C4.64648214,4.40000915 4.73465629,4.45766148 4.81,4.53 L4.81,4.33 L4.81,4.08 L4.71,3.91 L4.59,3.74 L4.46,3.59 L4.39,3.52 L4.07,3.52 L3.9,3.72 L3.68,3.97 L4.03,4.23 C4.03640021,4.25289445 4.03640021,4.27710555 4.03,4.3 C3.86,4.68 3.49,4.86 3.16,5.1 C2.98544623,5.21584169 2.83584169,5.36544623 2.72,5.54 C2.58725986,5.76344479 2.52132447,6.02024578 2.53,6.28 C2.49962888,6.68685439 2.67633333,7.08161966 3,7.33 C3.17832792,7.44688261 3.38678167,7.50941873 3.6,7.51 L3.76,7.51 L4.1,7.51 L4.3,7.51 C4.33586457,7.49915378 4.37413543,7.49915378 4.41,7.51 C4.41686292,7.52941125 4.41686292,7.55058875 4.41,7.57 C4.40233859,7.62010314 4.37761194,7.66602407 4.34,7.7 L4.24,7.78 L4.51,8.03 L4.51,8.31 L4.81,8.37 L4.88,8.37 L4.97,8.37 L5.32,8.3 Z" id="Shape" fill="#57A863"></path>
                        <path d="M2.37,3.45 C2.37,3.62 2.44,3.78 2.56,3.83 C2.79271188,3.85408358 3.02728812,3.85408358 3.26,3.83 L3.36,3.83 L3.36,3.76 L3.52,3.22 C3.45902723,3.24460823 3.3951876,3.26140813 3.33,3.27 L3,3.27 L2.88,3.27 C2.85773737,3.21898991 2.85773737,3.16101009 2.88,3.11 C2.97,3.11 3.08,3.04 3.26,2.97 C3.44,2.9 3.55,2.71 3.52,2.7 C3.49,2.69 3.43,2.79 3.28,2.86 C3.16023772,2.92272652 3.02410112,2.94716129 2.89,2.93 C2.84,2.93 2.89,2.84 2.89,2.77 C2.93770968,2.67238641 2.99824503,2.58158339 3.07,2.5 C3.10648954,2.41834743 3.12360203,2.32936249 3.12,2.24 C3.12,2.15 3.33,2.04 3.34,2.01 C3.35,1.98 3.34,1.9 3.25,1.9 C3.16,1.9 3.07,2.04 3.07,2.04 L3.01,2.04 C2.97720444,2.03153222 2.94279556,2.03153222 2.91,2.04 L2.79,2.12 L2.69,2.2 C2.52381248,2.32134732 2.38709509,2.47857231 2.29,2.66 C2.29,2.83 2.44,3.02 2.45,3.04 C2.41541996,3.175003 2.38870833,3.31190008 2.37,3.45 Z" id="Shape" fill="#57A863"></path>
                        <g id="eagle" transform="translate(3.000000, 0.000000)">
                            <path d="M11,5.26 C11,5.26 10.87,5.18 10.71,5.04 L10.49,4.7 C10.2682951,4.13487738 9.98668841,3.59513124 9.65,3.09 C9.26209694,2.52745404 8.76571627,2.04807271 8.19,1.68 C8.19950709,1.64354324 8.21653885,1.60947972 8.24,1.58 C8.24,1.58 8.42,1.38 8.36,1.35 C8.3,1.32 8.13,1.35 8.01,1.35 C7.89,1.35 7.82,1.35 7.49,1.09 C6.67808702,0.590002608 5.75248517,0.304407986 4.8,0.26 C4.29,0.26 4.06,0.41 4.03,0.51 L4.03,0.59 C3.85,0.59 3.28,0.59 3.3,1.11 C3.3,1.32 3.35,1.39 3.52,1.44 C3.81078681,1.47200428 4.08735833,1.58263288 4.32,1.76 C4.51519684,1.89730403 4.6309545,2.12135112 4.63,2.36 C4.62797026,2.4638033 4.60412021,2.56601781 4.56,2.66 L4.74,3.54 L4.87,4.01 L4.87,4.11 L4.99,4.96 L5.8,6.35 L5.99,6.35 L6.16,6.35 C6.25645357,6.25730321 6.33153126,6.14468668 6.38,6.02 L6.47,6.02 C6.47,6.07 6.68,6.34 6.81,6.4 C6.94,6.46 7.01,6.4 7.13,6.53 C7.33377842,6.77270066 7.52406532,7.02641653 7.7,7.29 C7.73703715,7.34549248 7.77709762,7.39890644 7.82,7.45 C7.852,7.46333333 7.888,7.46333333 7.92,7.45 C7.99,7.45 8.01,7.45 7.98,7.4 C7.87059471,7.28485138 7.78556274,7.14880021 7.73,7 C7.66312436,6.75858433 7.56566815,6.52670577 7.44,6.31 L7.59,6.31 C7.79380575,6.41273975 7.9664339,6.56810508 8.09,6.76 C8.11597326,6.93103283 8.17003506,7.09659711 8.25,7.25 C8.30902799,7.39896098 8.38628302,7.54003537 8.48,7.67 C8.48,7.77 8.58,7.85 8.64,7.86 C8.7,7.87 8.64,7.75 8.58,7.67 C8.52,7.59 8.52,7.37 8.42,7.09 C8.36816808,6.86137289 8.29793936,6.63730985 8.21,6.42 L8.13,6.35 L8.19,6.35 L8.29,6.42 C8.41858928,6.56598674 8.51713501,6.73589317 8.58,6.92 C8.64,7.09 8.71,7.37 8.79,7.63 C8.87,7.89 9,8.18 9.03,8.11 C9.05317546,7.80322524 9.00526655,7.49523933 8.89,7.21 C8.79544975,6.91914629 8.7448915,6.61579684 8.74,6.31 C8.83311475,6.3589185 8.90448524,6.44099455 8.94,6.54 C9.04,6.76 8.94,6.9 9.09,7.54 C9.15699376,7.83354626 9.26470317,8.11628348 9.41,8.38 C9.48,8.59 9.41,9.1 9.51,9.21 C9.54046063,8.8172564 9.54046063,8.4227436 9.51,8.03 C9.51,7.76 9.51,7.75 9.43,7.09 C9.35,6.43 9.35,6.34 9.34,6.32 C9.4321089,6.42106452 9.49441372,6.54567417 9.52,6.68 C9.64,7.1 9.64,7.81 9.72,7.99 C9.77734352,8.09994937 9.82745001,8.21352408 9.87,8.33 C9.95,8.56 9.8,9.52 9.96,9.52 C10.12,9.52 10.09,8.22 10.06,7.83 C10.03,7.44 10,6.36 9.99,6.25 C10.0753975,6.35146115 10.1491887,6.46214806 10.21,6.58 L10.21,6.65 C10.21,6.93 10.21,7.9 10.29,8.23 C10.343645,8.46372266 10.3804066,8.70100174 10.4,8.94 C10.3835334,9.17543344 10.3501134,9.40937326 10.3,9.64 C10.3,9.73 10.3,9.89 10.41,9.88 C10.52,9.87 10.41,9.67 10.48,9.56 C10.5057515,9.48980448 10.5392945,9.42271852 10.58,9.36 C10.64,9.19 10.65,8.06 10.75,7.5 C10.8796224,7.13343673 10.9504967,6.74869048 10.96,6.36 C10.9605284,5.97911776 10.8857621,5.60188772 10.74,5.25 L10.92,5.25 C10.9447154,5.26245972 10.9729781,5.26599256 11,5.26 Z M8.31,1.75 L8.2,1.68 L8.31,1.75 Z" id="Shape" fill="#866F57"></path>
                            <path d="M2.77,8.52 C2.65754182,8.51087941 2.55495189,8.45225659 2.49,8.36 C2.49,8.31 2.57,8.25 2.56,8.21 C2.55,8.17 2.5,8.11 2.47,8.11 C2.41739357,7.9577372 2.32400052,7.82283612 2.2,7.72 C2.08,7.66 2.2,7.83 2.2,7.9 C2.18716191,7.95593954 2.18716191,8.01406046 2.2,8.07 C2.24208835,8.12475426 2.26650471,8.19102725 2.27,8.26 C2.27,8.26 2.27,8.32 2.18,8.35 L2.07,8.35 C1.96744824,8.30693195 1.85996698,8.27670284 1.75,8.26 C1.76333333,8.228 1.76333333,8.192 1.75,8.16 C1.75096341,8.0759601 1.70963475,7.99705992 1.64,7.95 C1.60085145,7.93832816 1.55914855,7.93832816 1.52,7.95 C1.50545203,7.90446714 1.50545203,7.85553286 1.52,7.81 C1.52,7.66 1.61,7.64 1.61,7.64 C1.57029828,7.63309172 1.52970172,7.63309172 1.49,7.64 L1.42,7.64 L1.35,7.64 C1.29398791,7.62781924 1.23601209,7.62781924 1.18,7.64 C1.03,7.64 0.92,7.84 0.89,7.95 L0.81,7.95 C0.714680382,7.98677126 0.651326612,8.0778423 0.65,8.18 C0.625247914,8.16570938 0.594752086,8.16570938 0.57,8.18 C0.52524957,8.27148753 0.52524957,8.37851247 0.57,8.47 C0.57706281,8.53397422 0.605207211,8.59378107 0.65,8.64 C0.65,8.71 0.74,8.84 0.8,8.84 C0.838774002,8.89717134 0.901191407,8.93388746 0.97,8.94 C1.06014359,8.93155159 1.14475453,8.89277158 1.21,8.83 C1.28128802,8.81677656 1.34925803,8.78958856 1.41,8.75 C1.46348131,8.74657898 1.51516234,8.72935196 1.56,8.7 C1.61746236,8.7609089 1.68985898,8.80572586 1.77,8.83 C1.85,8.83 2.02,8.66 2.11,8.54 C2.11,8.54 2.18,8.67 2.25,8.67 L2.39,8.89 L2.92,8.89 L3.14,8.67 C3.14,8.67 3,8.53 2.77,8.52 Z M2.35,8.52 L2.4,8.52 L2.4,8.6 L2.35,8.52 Z" id="Shape" fill="#F6D660"></path>
                            <path d="M7.39,11.48 C7.39376476,11.4501181 7.39376476,11.4198819 7.39,11.39 C7.42509179,11.310361 7.42509179,11.219639 7.39,11.14 L7.39,11.08 C7.32,10.99 7.25,10.99 7.25,10.99 C7.25,10.9568629 7.22313708,10.93 7.19,10.93 C7.19,10.93 7.19,10.75 7.08,10.72 C6.99222407,10.691704 6.89777593,10.691704 6.81,10.72 C6.79206527,10.6861658 6.76837847,10.6557113 6.74,10.63 C6.70555564,10.5946428 6.65925277,10.5732723 6.61,10.57 L6.52,10.48 C6.49281183,10.440888 6.44760251,10.4182833 6.4,10.42 C6.37254554,10.3754461 6.33887268,10.3350387 6.3,10.3 L6.09,10.12 L6.09,9.78 L5.68,10.19 C5.68,10.19 5.68,10.19 5.68,10.26 L5.47,10.39 L5.29,10.47 C5.29,10.47 5.29,10.47 5.14,10.47 L5,10.47 C4.95358984,10.4432051 4.89641016,10.4432051 4.85,10.47 C4.74189456,10.4784654 4.64839634,10.5485891 4.61,10.65 C4.55747417,10.6368749 4.50252583,10.6368749 4.45,10.65 C4.33,10.65 4.2,10.73 4.21,10.88 C4.19974742,10.9328406 4.19974742,10.9871594 4.21,11.04 C4.23208024,11.0769931 4.26300688,11.1079198 4.3,11.13 C4.3,11.13 4.21,10.97 4.3,10.92 C4.39,10.87 4.47,10.92 4.54,10.92 C4.60713209,10.9483375 4.68286791,10.9483375 4.75,10.92 C4.74487371,10.9464203 4.74487371,10.9735797 4.75,11 C4.65609871,11.0540003 4.59589029,11.151839 4.59,11.26 C4.59,11.4180961 4.69044964,11.5587256 4.84,11.61 L4.9,11.61 C4.9,11.61 4.78,11.44 4.85,11.34 C4.92,11.24 4.96,11.34 5,11.34 C5.04,11.34 5,11.34 5,11.34 C5.06688634,11.3695267 5.14311366,11.3695267 5.21,11.34 C5.29886667,11.3070613 5.34696906,11.2108565 5.32,11.12 L5.41,11.06 C5.5,11 5.6,10.91 5.68,10.87 C5.76,10.83 5.68,10.92 5.8,10.93 C5.8314068,10.9460272 5.8685932,10.9460272 5.9,10.93 C5.91860269,10.9843425 5.97310507,11.0178824 6.03,11.01 C6.09227149,11.0177189 6.15116948,10.9798559 6.17,10.92 L6.3,10.92 C6.29221598,10.9392426 6.29221598,10.9607574 6.3,10.98 C6.3,10.98 6.3,10.98 6.3,10.98 C6.30430159,11.073689 6.3552242,11.1590024 6.43564653,11.2072558 C6.51606885,11.2555092 6.61530892,11.2602934 6.7,11.22 C6.7,11.22 6.75,11.22 6.76,11.22 C6.76,11.22 6.91,11.22 6.96,11.31 C7.01,11.4 6.81,11.53 6.81,11.53 C6.86604433,11.541877 6.92395567,11.541877 6.98,11.53 L7.08,11.53 C7.12320654,11.5756281 7.18617837,11.5969424 7.24821555,11.5869364 C7.31025273,11.5769304 7.36333003,11.5368985 7.39,11.48 Z" id="Shape" fill="#F6D660"></path>
                            <path d="M9.68,9.87 L9.48,9.72 C9.48,9.72 8.88,9.25 8.11,8.72 L6.51,7.52 C6.52052387,7.29378095 6.4934911,7.06738145 6.43,6.85 C6.38124734,6.69410605 6.31053715,6.54595136 6.22,6.41 C6.37,6.29 6.36,6.06 6.36,5.91 C6.36,5.76 6.17,5.55 6.25,5.65 C6.3069428,5.72811223 6.33519859,5.8234755 6.33,5.92 C6.31920467,6.05807126 6.24543422,6.18348102 6.13,6.26 C6.05168609,6.30090405 5.95831391,6.30090405 5.88,6.26 C5.81949833,6.06395581 5.73555811,5.87592971 5.63,5.7 C5.51,5.47 5.26,5.1 5.26,5.09 L5.26,4.99 C5.26,4.99 5.16,4.77 5.1,4.67 C5.03923097,4.55687787 4.9857877,4.43997074 4.94,4.32 C4.95809091,4.13043063 4.95809091,3.93956937 4.94,3.75 C4.92412251,3.59664706 4.89056634,3.4456443 4.84,3.3 C4.91242029,3.27669205 4.95841326,3.20561201 4.95,3.13 C4.86061932,3.05547027 4.78306938,2.96780511 4.72,2.87 C4.62469363,2.71139951 4.53790398,2.54783441 4.46,2.38 C4.37051018,2.23628101 4.25114164,2.11350194 4.11,2.02 C4.13133577,1.95846357 4.13133577,1.89153643 4.11,1.83 C4.11,1.83 4.11,1.9 3.91,1.9 C3.75655387,1.87819022 3.60783579,1.83087083 3.47,1.76 C3.34452508,1.71728156 3.21251283,1.69697198 3.08,1.7 C3.05363554,1.70567766 3.02636446,1.70567766 3,1.7 L2.92,1.7 C2.9032382,1.53433752 2.83703739,1.37754612 2.73,1.25 C2.71982456,1.31922799 2.69961206,1.386603 2.67,1.45 C2.61598554,1.54570272 2.54864576,1.63324443 2.47,1.71 C2.46255705,1.59879902 2.44583216,1.48841474 2.42,1.38 C2.42,1.17 2.3,1.22 2.3,1.22 L2.3,1.3 C2.30276926,1.52122017 2.2548804,1.74014069 2.16,1.94 L1.99,2.02 C1.99,2.02 2.06,1.93 2.05,1.74 C2.04,1.55 1.9,1.47 1.9,1.47 C1.91941188,1.58921496 1.91941188,1.71078504 1.9,1.83 C1.87115014,1.97115889 1.80561719,2.10222478 1.71,2.21 C1.71946616,2.14032003 1.71946616,2.06967997 1.71,2 C1.71,1.73 1.59,1.74 1.59,1.74 C1.58379979,1.82283092 1.56350848,1.90399614 1.53,1.98 C1.47516842,2.15955544 1.37930732,2.32388875 1.25,2.46 C0.99,2.74 0.88,2.75 0.91,2.87 C0.914846105,2.89940787 0.931418075,2.92559052 0.955923094,2.94255553 C0.980428114,2.95952054 1.0107684,2.96581562 1.04,2.96 L1.12,2.96 L1.17,2.96 C1.31399848,3.04176176 1.47473288,3.08964009 1.64,3.1 C1.74,3.1 1.82,3.02 2,3.02 C2.18,3.02 2.22,3.08 2.22,3.08 C2.25826836,3.13783559 2.30966573,3.18580646 2.37,3.22 C2.37,3.22 2.5,3.22 2.56,3.22 C2.59747723,3.2764271 2.61827386,3.34228308 2.62,3.41 L2.67,3.41 C2.6500173,3.48236681 2.62323123,3.55268025 2.59,3.62 C2.53,3.75 2.42,3.86 2.43,3.88 L2.49,3.88 L2.56,3.88 L2.34,4.23 C2.24,4.39 2.09,4.62 2.13,4.62 L2.27,4.62 C2.26710864,4.64658829 2.26710864,4.67341171 2.27,4.7 C2.09975617,4.9312988 1.98357006,5.1978434 1.93,5.48 C1.93,5.76 1.98,5.7 2.07,5.96 C2.13034459,6.179694 2.17380456,6.40368004 2.2,6.63 C2.2,6.63 2.2,6.63 2.2,6.63 C2.25968308,6.61028048 2.31676373,6.58341899 2.37,6.55 L2.52,6.79 C2.48978054,6.97208785 2.5105471,7.15898686 2.58,7.33 C2.70322175,7.54004804 2.8509199,7.73474106 3.02,7.91 L2.9,7.81 C2.86583931,7.76853796 2.82083303,7.73737976 2.77,7.72 C2.71028809,7.68971094 2.63971191,7.68971094 2.58,7.72 C2.58,7.72 2.58,7.72 2.58,7.72 C2.60983014,7.81902813 2.65360237,7.91330677 2.71,8 C2.80170401,8.07285264 2.90256343,8.13336829 3.01,8.18 C2.90946678,8.18253207 2.81061835,8.20639204 2.72,8.25 C2.6513542,8.31581224 2.59091579,8.3896814 2.54,8.47 C2.54,8.53 2.65,8.61 2.87,8.71 C2.80401368,8.7234694 2.73598632,8.7234694 2.67,8.71 C2.51,8.71 2.49,8.6 2.47,8.61 C2.47,8.61 2.53,8.7 2.53,8.7 C2.4503754,8.68903972 2.3696246,8.68903972 2.29,8.7 C2.20544269,8.7061446 2.12822291,8.75027019 2.08,8.82 C2.19630143,8.90398448 2.32931117,8.96196308 2.47,8.99 L2.9,9.1 C2.86427344,9.16188022 2.86427344,9.23811978 2.9,9.3 C2.9,9.3 3.03,9.4 3.41,9.3 C3.5485483,9.26519613 3.68272956,9.21487816 3.81,9.15 L3.88,9.15 C3.88,9.15 4.01,9.44 4.1,9.43 C4.19,9.42 4.24,8.97 4.24,8.78 L4.73,9.34 C4.73,9.34 4.82,9.45 4.88,9.44 C4.88,9.44 4.99,9.66 5.09,9.84 C5.19,10.02 5.28,10.2 5.37,10.16 C5.46,10.12 5.48,9.99 5.49,9.97 L5.49,10 C5.63,10.13 5.86,10.4 5.9,10.39 C5.9,10.39 5.9,10.27 5.9,10.27 C5.92007968,10.1407754 5.92007968,10.0092246 5.9,9.88 C5.99,10.01 6.15,10.23 6.21,10.2 C6.22717731,10.0940249 6.22717731,9.98597512 6.21,9.88 C6.27,9.94 6.37,10.03 6.41,10.01 C6.45,9.99 6.41,9.78 6.41,9.74 C6.41447322,9.69010005 6.41447322,9.63989995 6.41,9.59 L6.41,9.52 L7.02,10.24 C7.0822019,10.2998245 7.16382531,10.3353129 7.25,10.34 C7.34177957,10.352933 7.43118404,10.3041669 7.47,10.22 C7.5542714,10.3151198 7.66614617,10.3815454 7.79,10.41 C7.92399727,10.4224676 8.05419777,10.3611968 8.13,10.25 L8.23,10.32 C8.48147132,10.3408233 8.7315184,10.2658091 8.93,10.11 L8.99,10.11 C9.38,10.27 9.72,9.91 9.68,9.87 Z M5.93,6.41 C5.93261989,6.4299142 5.93261989,6.4500858 5.93,6.47 C5.93154074,6.45002967 5.93154074,6.42997033 5.93,6.41 Z M3.09,3.74 C3.08422619,3.69685899 3.08422619,3.65314101 3.09,3.61 C3.07998325,3.67616415 3.07663313,3.74316667 3.08,3.81 L3.09,3.74 Z M2.8,3.9 C2.75789203,3.93151307 2.71047524,3.95522146 2.66,3.97 L2.8,3.9 Z" id="Shape" fill="#866F57"></path>
                            <polygon id="Shape" fill="#866F57" points="2.34 1.3 2.34 1.31 2.34 1.3"></polygon>
                            <path d="M2.39,3.28 C2.39,3.13 2.18,3.04 1.98,3.04 C1.78,3.04 1.74,3.12 1.6,3.12 C1.46,3.12 1.24,2.92 0.94,2.92 L0.88,2.92 L0.81,2.98 L0.76,2.98 L0.76,3.03 C0.754072556,3.05295689 0.754072556,3.07704311 0.76,3.1 C0.76,3.1 0.67,3.1 0.54,3.26 C0.484129682,3.31762366 0.43997937,3.38554722 0.41,3.46 C0.40486078,3.50318096 0.40486078,3.54681904 0.41,3.59 C0.401633626,3.62956252 0.401633626,3.67043748 0.41,3.71 L0.48,3.86 L0.61,4 L0.71,4.06 L0.78,4.06 L0.92,4.06 C0.979622932,4.06493748 1.03832517,4.04292414 1.08,4 L0.96,3.89 L0.83,3.67 C0.822379001,3.640484 0.822379001,3.609516 0.83,3.58 C0.889472478,3.37749808 1.07911886,3.24144742 1.29,3.25 L1.41,3.25 L1.47,3.25 L1.56,3.35 L1.64,3.46 C1.64,3.46 2.46,3.45 2.39,3.28 Z" id="Shape" fill="#F6D660"></path>
                        </g>
                        <g id="eagle2" transform="translate(4.000000, 3.000000)">
                            <path d="M0.34,0.39 L0.29,0.39 C0.29,0.39 0.29,0.39 0.29,0.39 L0.34,0.39 Z" id="Shape" fill="#F9C83A"></path>
                            <path d="M0.38,0.43 L0.31,0.43 C0.31,0.43 0.31,0.43 0.31,0.43 L0.38,0.43 Z" id="Shape" fill="#8F4620"></path>
                            <path d="M1.06,5.42 C1.08271084,5.42762231 1.10728916,5.42762231 1.13,5.42 C1.13,5.42 1.13,5.42 1.13,5.42 L1.06,5.42 Z" id="Shape" fill="#977C2E"></path>
                        </g>
                    </g>
                </g>
            </g>
        </g>
    </g>
</svg>