<?xml version="1.0" encoding="UTF-8"?>
<svg width="71px" height="48px" viewBox="0 0 71 48" version="1.1" xmlns="http://www.w3.org/2000/svg" xmlns:xlink="http://www.w3.org/1999/xlink">
    <!-- Generator: Sketch 48.1 (47250) - http://www.bohemiancoding.com/sketch -->
    <title>Micronesia_Federated@2x</title>
    <desc>Created with Sketch.</desc>
    <defs></defs>
    <g id="Flags" stroke="none" stroke-width="1" fill="none" fill-rule="evenodd" transform="translate(-408.000000, -1356.000000)">
        <g transform="translate(70.000000, 70.000000)" fill-rule="nonzero" id="Micronesia_Federated">
            <g transform="translate(338.000000, 1286.000000)">
                <rect id="Rounded_Rectangle_7_copy-62" fill="#3BAFDA" x="0.77" y="0.95" width="70" height="47" rx="6.36"></rect>
                <path d="M27.72,27.91 C27.82,28.34 27.6,28.49 27.23,28.24 L25.86,27.24 C25.4321984,26.9816438 24.9042791,26.9516909 24.45,27.16 L23.02,27.9 C22.61,28.11 22.41,27.9 22.57,27.52 L23.18,25.95 C23.3308458,25.4979155 23.1924014,24.9995159 22.83,24.69 L21.36,23.56 C21.01,23.29 21.09,23.07 21.54,23.08 L23.43,23.08 C23.9211865,23.0666033 24.364278,22.7814835 24.58,22.34 L25.26,20.76 C25.44,20.34 25.7,20.35 25.85,20.76 L26.41,22.38 C26.5989758,22.8315174 27.0144847,23.1479141 27.5,23.21 L29,23.34 C29.45,23.34 29.52,23.63 29.16,23.9 L27.82,24.9 C27.437897,25.2071612 27.2506858,25.6962026 27.33,26.18 L27.72,27.91 Z" id="Shape" fill="#FFFFFF"></path>
                <path d="M48.72,27.91 C48.82,28.34 48.6,28.49 48.23,28.24 L46.86,27.24 C46.4321984,26.9816438 45.9042791,26.9516909 45.45,27.16 L44.02,27.9 C43.61,28.11 43.41,27.9 43.57,27.52 L44.18,25.95 C44.3308458,25.4979155 44.1924014,24.9995159 43.83,24.69 L42.36,23.56 C42.01,23.29 42.09,23.07 42.54,23.08 L44.43,23.08 C44.9211865,23.0666033 45.364278,22.7814835 45.58,22.34 L46.26,20.76 C46.44,20.34 46.7,20.35 46.85,20.76 L47.41,22.38 C47.5989758,22.8315174 48.0144847,23.1479141 48.5,23.21 L50,23.34 C50.45,23.34 50.52,23.63 50.16,23.9 L48.82,24.9 C48.437897,25.2071612 48.2506858,25.6962026 48.33,26.18 L48.72,27.91 Z" id="Shape_21_copy" fill="#FFFFFF"></path>
                <path d="M38.22,17.41 C38.32,17.84 38.1,17.99 37.73,17.73 L36.36,16.73 C35.9321984,16.4716438 35.4042791,16.4416909 34.95,16.65 L33.52,17.39 C33.11,17.6 32.91,17.39 33.07,17.01 L33.68,15.44 C33.8308458,14.9879155 33.6924014,14.4895159 33.33,14.18 L31.86,13.05 C31.51,12.78 31.59,12.56 32.04,12.57 L33.93,12.57 C34.4211865,12.5566033 34.864278,12.2714835 35.08,11.83 L35.76,10.25 C35.94,9.83 36.2,9.84 36.35,10.25 L36.91,11.87 C37.0989758,12.3215174 37.5144847,12.6379141 38,12.7 L39.5,12.83 C39.95,12.83 40.02,13.12 39.66,13.39 L38.32,14.39 C37.937897,14.6971612 37.7506858,15.1862026 37.83,15.67 L38.22,17.41 Z" id="Shape_21_copy_2" fill="#FFFFFF"></path>
                <path d="M38.22,38.41 C38.32,38.84 38.1,38.99 37.73,38.73 L36.36,37.73 C35.9321984,37.4716438 35.4042791,37.4416909 34.95,37.65 L33.52,38.39 C33.11,38.6 32.91,38.39 33.07,38.01 L33.68,36.44 C33.8308458,35.9879155 33.6924014,35.4895159 33.33,35.18 L31.86,34.05 C31.51,33.78 31.59,33.56 32.04,33.57 L33.93,33.57 C34.4211865,33.5566033 34.864278,33.2714835 35.08,32.83 L35.76,31.25 C35.94,30.83 36.2,30.84 36.35,31.25 L36.91,32.87 C37.0989758,33.3215174 37.5144847,33.6379141 38,33.7 L39.5,33.83 C39.95,33.83 40.02,34.12 39.66,34.39 L38.32,35.39 C37.937897,35.6971612 37.7506858,36.1862026 37.83,36.67 L38.22,38.41 Z" id="Shape_21_copy_3" fill="#FFFFFF"></path>
            </g>
        </g>
    </g>
</svg>