<?xml version="1.0" encoding="UTF-8"?>
<svg width="71px" height="47px" viewBox="0 0 71 47" version="1.1" xmlns="http://www.w3.org/2000/svg" xmlns:xlink="http://www.w3.org/1999/xlink">
    <!-- Generator: Sketch 48.1 (47250) - http://www.bohemiancoding.com/sketch -->
    <title>Moldova@2x</title>
    <desc>Created with Sketch.</desc>
    <defs></defs>
    <g id="Flags" stroke="none" stroke-width="1" fill="none" fill-rule="evenodd" transform="translate(-493.000000, -70.000000)">
        <g transform="translate(70.000000, 70.000000)" id="Moldova">
            <g transform="translate(423.000000, 0.000000)">
                <g id="Mali-5" fill-rule="nonzero">
                    <g id="France-10">
                        <g id="Belgium-14">
                            <g id="Bahamas-17">
                                <path d="M6.75,0 C3.23746899,-2.15080493e-16 0.39,2.84746899 0.39,6.36 L0.39,40.64 C0.39,44.152531 3.23746899,47 6.75,47 L23.75,47 C23.75,31.3333333 23.75,15.6666667 23.75,0 L6.75,0 Z" id="Shape" fill="#4758A9"></path>
                                <path d="M23.73,0 C23.73,15.6666667 23.73,31.3333333 23.73,47 L47.08,47 C47.08,31.3333333 47.08,15.6666667 47.08,0 L23.73,0 Z" id="Shape" fill="#F6D660"></path>
                                <path d="M64,0 L47.08,0 C47.08,15.6666667 47.08,31.3333333 47.08,47 L64,47 C67.512531,47 70.36,44.152531 70.36,40.64 L70.36,6.36 C70.36,2.84746899 67.512531,2.15080493e-16 64,0 Z" id="Shape" fill="#ED5565"></path>
                            </g>
                        </g>
                    </g>
                </g>
                <path d="M42.09,28.82 L42.09,27.12 C42.09,24 42.01,19.26 42.01,17.94 C42.0197362,17.4162724 41.8921728,16.8991233 41.64,16.44 C41.5209206,16.2302189 41.3727889,16.0383211 41.2,15.87 C41.0890277,15.7626332 40.9685327,15.6655678 40.84,15.58 C40.7074291,15.5154998 40.5525709,15.5154998 40.42,15.58 C40.3535944,15.6002079 40.2922399,15.6342937 40.24,15.68 L37.24,18.43 C37.1929827,18.4667073 37.1270173,18.4667073 37.08,18.43 L37,18.3 L36.88,18.19 L36.78,18.07 L36.7,18 C36.4634894,17.5681262 36.342905,17.0823433 36.35,16.59 C36.35,16.38 36.51,16.17 36.63,15.73 C36.7159632,15.4040893 36.7463892,15.0660224 36.72,14.73 C36.717093,14.6722003 36.6763279,14.6232822 36.62,14.61 C36.3599829,14.5318515 36.105982,14.4349302 35.86,14.32 C35.5492017,14.1662931 35.2067208,14.0875224 34.86,14.09 C34.6990254,14.0749045 34.5369154,14.1024977 34.39,14.17 C34.28,14.24 34.29,14.34 34.25,14.37 C34.1551397,14.4313767 34.0425835,14.4595158 33.93,14.45 C33.44,14.45 33.43,14.97 33.43,14.97 C33.6455861,15.0428734 33.8506719,15.1437353 34.04,15.27 C34.3459326,15.5321109 34.4999278,15.930245 34.45,16.33 C34.4839663,16.9026365 34.3594026,17.473553 34.09,17.98 L34.02,18.06 L33.92,18.18 L33.8,18.29 L33.73,18.35 C33.6829827,18.3867073 33.6170173,18.3867073 33.57,18.35 L30.57,15.6 C30.5177601,15.5542937 30.4564056,15.5202079 30.39,15.5 C30.2574291,15.4354998 30.1025709,15.4354998 29.97,15.5 C29.8414673,15.5855678 29.7209723,15.6826332 29.61,15.79 C29.4908014,15.909191 29.3836184,16.0398202 29.29,16.18 C28.9591082,16.6801522 28.7914107,17.2705869 28.81,17.87 C28.81,19.19 28.81,23.93 28.73,27.05 L28.73,29.45 C28.725898,29.5347935 28.7732518,29.6137166 28.85,29.65 C28.9198515,29.6957162 29.0101485,29.6957162 29.08,29.65 L29.22,29.52 L29.55,29.2 L29.73,29.01 C30.7456362,28.0078957 31.441592,26.727337 31.73,25.33 L31.96,25.46 L32.19,25.6 C32.61,25.85 33.19,26.21 33.03,26.29 C32.87,26.37 32.03,27.46 31.45,28.2 L31.37,28.2 C31.0165378,28.2 30.73,28.4865378 30.73,28.84 C30.73,29.1934622 31.0165378,29.48 31.37,29.48 C31.5875786,29.4817685 31.7911513,29.3728715 31.9104428,29.1909014 C32.0297343,29.0089313 32.0484014,28.7788184 31.96,28.58 L33.9,26.19 L34.72,26.41 L34.72,26.52 L32.28,30.39 C32.28,30.39 32.28,30.39 32.28,30.39 C32.2537588,30.4362823 32.2367764,30.4872295 32.23,30.54 C32.2076373,30.6969176 32.2777255,30.8526691 32.41,30.94 L35,32.8 C35.0522737,32.8351477 35.1095984,32.8621241 35.17,32.88 L35.35,32.88 L35.53,32.88 C35.5904016,32.8621241 35.6477263,32.8351477 35.7,32.8 L38.46,31 C38.5922745,30.9126691 38.6623627,30.7569176 38.64,30.6 C38.6332236,30.5472295 38.6162412,30.4962823 38.59,30.45 C38.59,30.45 38.59,30.45 38.59,30.45 L36.15,26.58 L36.15,26.47 L36.97,26.25 L38.91,28.64 C38.8215986,28.8388184 38.8402657,29.0689313 38.9595572,29.2509014 C39.0788487,29.4328715 39.2824214,29.5417685 39.5,29.54 C39.8534622,29.54 40.14,29.2534622 40.14,28.9 C40.14,28.5465378 39.8534622,28.26 39.5,28.26 L39.42,28.26 C38.82,27.52 37.95,26.45 37.84,26.35 C37.73,26.25 38.26,25.91 38.68,25.66 L38.91,25.52 L39.14,25.39 C39.428408,26.787337 40.1243638,28.0678957 41.14,29.07 L41.32,29.26 L41.65,29.58 L41.79,29.71 C41.8598515,29.7557162 41.9501485,29.7557162 42.02,29.71 C42.0967482,29.6737166 42.144102,29.5947935 42.14,29.51 L42.09,28.82 Z" id="Shape" fill="#866F57" fill-rule="nonzero"></path>
                <path d="M32.06,19.2 L38.71,19.2 L38.71,24.76 C38.71,25.7982953 37.8682953,26.64 36.83,26.64 L33.94,26.64 C32.9017047,26.64 32.06,25.7982953 32.06,24.76 L32.06,19.2 Z" id="Shape" stroke="#F6D660" stroke-linecap="round" stroke-linejoin="round"></path>
                <rect id="Rectangle-path" fill="#ED5565" fill-rule="nonzero" x="32.06" y="19.2" width="6.65" height="3.47"></rect>
                <path d="M33.94,26.64 L36.83,26.64 C37.8682953,26.64 38.71,25.7982953 38.71,24.76 L38.71,22.66 L32.06,22.66 L32.06,24.76 C32.06,25.7982953 32.9017047,26.64 33.94,26.64 Z" id="Shape" fill="#0046AE" fill-rule="nonzero"></path>
                <path d="M36.24,22.59 C36.7320456,22.4509605 37.0713265,22.0013111 37.07,21.49 C37.07,20.79 36.24,20.49 36.21,20.28 C36.13,20.57 36.49,20.96 36.49,21.43 C36.49,21.9 36.04,22.07 36.04,22.07 C36.04,22.07 35.89,22.14 35.85,22.14 C35.81,22.14 35.72,22.02 35.63,22.02 C35.54,22.02 35.49,22.15 35.38,22.15 C35.27,22.15 35.21,22.02 35.13,22.02 C35.05,22.02 35,22.13 34.91,22.14 C34.82,22.15 34.83,22.07 34.72,22.07 C34.61,22.07 34.27,22.07 34.27,21.43 C34.27,20.79 34.63,20.56 34.55,20.28 C34.55,20.45 33.69,20.79 33.69,21.49 C33.6886735,22.0013111 34.0279544,22.4509605 34.52,22.59 L34.28,23.02 C34.4691947,23.025368 34.6529813,23.0843184 34.81,23.19 C35.03,23.38 35.01,23.78 35.01,24.07 C35.034365,24.2721659 34.9807206,24.4760145 34.86,24.64 C34.7,24.77 34.6,24.78 34.6,24.94 C34.6,25.1 34.7,25.1 34.86,25.18 C35.02,25.26 35.06,25.44 35.37,25.44 C35.68,25.44 35.67,25.29 35.88,25.18 C36.09,25.07 36.14,25.07 36.14,24.94 C36.14,24.81 36.03,24.77 35.88,24.64 C35.7592794,24.4760145 35.705635,24.2721659 35.73,24.07 C35.73,23.78 35.73,23.38 35.93,23.19 C36.0870187,23.0843184 36.2708053,23.025368 36.46,23.02 L36.24,22.59 Z" id="Shape" stroke="#F6D660" stroke-width="0.08" fill="#F6D660" fill-rule="nonzero" stroke-linecap="round" stroke-linejoin="round"></path>
                <polygon id="Shape" stroke="#F6D660" stroke-width="0.08" fill="#F6D660" fill-rule="nonzero" stroke-linecap="round" stroke-linejoin="round" points="35.39 20.2 35.25 20.59 34.88 20.41 35.06 20.78 34.67 20.92 35.06 21.06 34.88 21.43 35.25 21.25 35.39 21.64 35.53 21.25 35.9 21.43 35.72 21.06 36.11 20.92 35.72 20.78 35.9 20.41 35.53 20.59"></polygon>
                <path d="M34.41,22.63 C34.1171059,22.5623071 33.8477404,22.4172641 33.63,22.21 C33.3951869,22.4160564 33.1190058,22.5694904 32.82,22.66 C33.1041093,22.7909809 33.3752985,22.9483376 33.63,23.13 C33.8578342,22.9178063 34.1220609,22.7484301 34.41,22.63 Z" id="Shape" stroke="#F6D660" stroke-width="0.08" fill="#F6D660" fill-rule="nonzero" stroke-linecap="round" stroke-linejoin="round"></path>
                <path d="M36.37,22.63 C36.6579391,22.7484301 36.9221658,22.9178063 37.15,23.13 C37.4047015,22.9483376 37.6758907,22.7909809 37.96,22.66 C37.6609942,22.5694904 37.3848131,22.4160564 37.15,22.21 C36.9322596,22.4172641 36.6628941,22.5623071 36.37,22.63 Z" id="Shape" stroke="#F6D660" stroke-width="0.08" fill="#F6D660" fill-rule="nonzero" stroke-linecap="round" stroke-linejoin="round"></path>
                <path d="M34.66,24.36 C34.6707144,24.4897792 34.6707144,24.6202208 34.66,24.75 C34.8304445,24.6949309 34.9595052,24.5544824 35,24.38 C35,24.25 35.06,23.75 34.92,23.67 L34.55,23.6 C34.6376839,23.8471791 34.6816738,24.1077345 34.68,24.37 L34.66,24.36 Z" id="Shape" stroke="#F6D660" stroke-width="0.08" fill="#F6D660" fill-rule="nonzero" stroke-linecap="round" stroke-linejoin="round"></path>
                <path d="M35.88,23.67 C35.74,23.75 35.77,24.25 35.8,24.38 C35.8404948,24.5544824 35.9695555,24.6949309 36.14,24.75 C36.1292856,24.6202208 36.1292856,24.4897792 36.14,24.36 C36.1381216,24.097718 36.1821174,23.8371275 36.27,23.59 L35.88,23.67 Z" id="Shape" stroke="#F6D660" stroke-width="0.08" fill="#F6D660" fill-rule="nonzero" stroke-linecap="round" stroke-linejoin="round"></path>
                <path d="M33.64,23.83 C33.5137935,23.8642139 33.4382026,23.9931632 33.47,24.12 L33.47,24.17 L33.39,24.17 C33.2786055,24.1931008 33.198734,24.2912354 33.198734,24.405 C33.198734,24.5187646 33.2786055,24.6168992 33.39,24.64 L33.45,24.64 L33.45,24.69 C33.4028682,24.7710056 33.4072006,24.8720358 33.461094,24.9487092 C33.5149874,25.0253826 33.6085815,25.0636711 33.7007616,25.046755 C33.7929416,25.0298389 33.8668423,24.9608132 33.89,24.87 C33.8926199,24.8500858 33.8926199,24.8299142 33.89,24.81 C33.9501289,24.8878244 34.0516528,24.9210889 34.1461774,24.8939372 C34.2407021,24.8667854 34.3090959,24.7847129 34.3187571,24.6868416 C34.3284183,24.5889703 34.2773915,24.4951093 34.19,24.45 L34.24,24.45 C34.3497433,24.3777145 34.3809465,24.2306136 34.31,24.12 C34.2640788,24.0439073 34.1784269,24.0010813 34.09,24.01 C34.0538278,24.0014839 34.0161722,24.0014839 33.98,24.01 C33.983146,23.9436533 33.9574559,23.8791859 33.9095405,23.833187 C33.861625,23.7871882 33.7961631,23.7641497 33.73,23.77 L33.64,23.83 Z" id="Shape" stroke="#F6D660" stroke-width="0.08" fill="#F6D660" fill-rule="nonzero" stroke-linecap="round" stroke-linejoin="round"></path>
                <path d="M36.43,24.53 C36.4686265,24.7907056 36.6631199,25.001076 36.92,25.06 C36.8756927,24.9870024 36.8483528,24.9049825 36.84,24.82 C36.8253188,24.6754116 36.8742743,24.5315901 36.974119,24.4259852 C37.0739636,24.3203803 37.2148161,24.2634433 37.36,24.27 L37.51,24.27 C37.3904352,24.1065122 37.2024236,24.0069767 37,24 C36.8503604,23.9784616 36.6990104,24.0257856 36.5882946,24.1287319 C36.4775788,24.2316782 36.419387,24.3791912 36.43,24.53 Z" id="Shape" stroke="#F6D660" stroke-width="0.08" fill="#F6D660" fill-rule="nonzero" stroke-linecap="round" stroke-linejoin="round"></path>
            </g>
        </g>
    </g>
</svg>