<?xml version="1.0" encoding="UTF-8"?>
<svg width="71px" height="48px" viewBox="0 0 71 48" version="1.1" xmlns="http://www.w3.org/2000/svg" xmlns:xlink="http://www.w3.org/1999/xlink">
    <!-- Generator: Sketch 48.1 (47250) - http://www.bohemiancoding.com/sketch -->
    <title>Montserrart@2x</title>
    <desc>Created with Sketch.</desc>
    <defs></defs>
    <g id="Flags" stroke="none" stroke-width="1" fill="none" fill-rule="evenodd" transform="translate(-578.000000, -1234.000000)">
        <g transform="translate(70.000000, 70.000000)" id="Montserrart">
            <g transform="translate(508.000000, 1164.000000)">
                <path d="M64.17,0.43 L5.85,0.43 C2.90062069,0.793733708 0.552057458,3.07286116 0.1,6.01 L0.1,41.73 C0.59388474,44.9719958 3.38060151,47.3678925 6.66,47.37 L63.38,47.37 C67.0471707,47.37 70.02,44.3971707 70.02,40.73 L70.02,7 C70.0084659,3.64710648 67.4991005,0.828896057 64.17,0.43 Z" id="Shape" fill="#4658A9" fill-rule="nonzero"></path>
                <path d="M25,0.38 L6.6,0.38 C2.95624648,0.401934389 0.0109093412,3.3561968 0,7 L0,24.33 L25,24.33 L25,0.38 Z" id="Shape" fill="#4658A9" fill-rule="nonzero"></path>
                <path d="M10.54,17.79 L10.54,24.35 L14.44,24.35 L14.44,17.64 L21.15,24.35 L25,24.35 L25,21.35 L18,14.35 L25,14.35 L25,10.35 L18,10.35 L25,3.35 L25,0.35 L21.17,0.35 L14.47,7.05 L14.47,0.35 L10.57,0.35 L10.57,6.91 L4.41,0.75 C2.84670719,1.31647757 1.55185751,2.44724162 0.78,3.92 L7.19,10.33 L-1.26217745e-28,10.33 L-1.26217745e-28,14.33 L7.16,14.33 L-5.68434189e-14,21.49 L-5.68434189e-14,24.32 L4,24.32 L10.54,17.79 Z" id="Shape" fill="#FFFFFF" fill-rule="nonzero"></path>
                <path d="M11.54,15 L11.54,24.31 L13.44,24.31 L13.44,14.86 L22.89,24.31 L25,24.31 L25,23.08 L15.22,13.3 L25,13.3 L25,11.35 L15.22,11.35 L25,1.57 L25,0.34 L22.91,0.34 L13.46,9.79 L13.46,0.34 L11.56,0.34 L11.56,9.64 L3.23,1.3 C2.5563927,1.70866358 1.96051707,2.23344041 1.47,2.85 L9.96,11.34 L0,11.34 L0,13.29 L9.93,13.29 L-5.68434189e-14,23.22 L-5.68434189e-14,24.31 L2.23,24.31 L11.54,15 Z" id="Shape" fill="#EC5463" fill-rule="nonzero"></path>
                <path d="M39.32,13.48 L55.72,13.48 L55.72,25.18 C55.86,29.88 52.93,32.8 47.55,34.12 C43.73,33.12 39.32,31.2 39.32,25.32 L39.32,13.49 L39.32,13.48 Z" id="Shape" fill="#92DBFC" fill-rule="nonzero"></path>
                <path d="M47.53,35.12 L47.29,35.12 C45.07,34.57 38.29,32.88 38.29,25.35 L38.29,13.51 C38.29,12.9577153 38.7377153,12.51 39.29,12.51 L55.69,12.51 C56.2422847,12.51 56.69,12.9577153 56.69,13.51 L56.69,25.21 C56.79,28.69 55.32,33.27 47.76,35.12 L47.53,35.12 Z M40.32,14.48 L40.32,25.32 C40.32,29.39 42.56,31.79 47.55,33.09 C52.49,31.82 54.83,29.24 54.72,25.21 L54.72,14.48 L40.32,14.48 Z" id="Shape" fill="#FFFFFF" fill-rule="nonzero"></path>
                <path d="M39.32,13.48 L55.72,13.48 L55.72,25.18 C55.86,29.88 52.93,32.8 47.55,34.12 C43.73,33.12 39.32,31.2 39.32,25.32 L39.32,13.49 L39.32,13.48 Z" id="Shape" fill="#92DBFC" fill-rule="nonzero"></path>
                <path d="M39.38,26.58 C39.98,31.48 44,33.23 47.53,34.11 C52.36,32.93 55.2,30.45 55.63,26.56 L39.38,26.58 Z" id="Shape" fill="#E77329" fill-rule="nonzero"></path>
                <polygon id="Shape" fill="#434A54" fill-rule="nonzero" points="46.88 15.66 46.88 14.19 48 14.19 48 15.65 51.19 15.65 51.19 16.79 48 16.79 48 30.27 46.86 30.27 46.86 16.77 43.68 16.77 43.68 15.6"></polygon>
                <path d="M46.43,24.3 L46.43,29.77" id="Shape" stroke="#434A54" stroke-width="0.1" stroke-linecap="round" stroke-linejoin="round"></path>
                <path d="M46.1,24.4 L46.1,29.4" id="Shape" stroke="#434A54" stroke-width="0.1" stroke-linecap="round" stroke-linejoin="round"></path>
                <path d="M45.75,25.1 L45.75,29.1" id="Shape" stroke="#434A54" stroke-width="0.1" stroke-linecap="round" stroke-linejoin="round"></path>
                <path d="M45.46,25.41 L45.46,28.66" id="Shape" stroke="#434A54" stroke-width="0.1" stroke-linecap="round" stroke-linejoin="round"></path>
                <path d="M45.14,25.6 L45.14,28.31" id="Shape" stroke="#434A54" stroke-width="0.1" stroke-linecap="round" stroke-linejoin="round"></path>
                <path d="M44.81,25.77 L44.81,27.95" id="Shape" stroke="#434A54" stroke-width="0.1" stroke-linecap="round" stroke-linejoin="round"></path>
                <path d="M44.52,25.94 L44.52,27.61" id="Shape" stroke="#434A54" stroke-width="0.1" stroke-linecap="round" stroke-linejoin="round"></path>
                <path d="M44.3,27.12 L47.22,30.12 C48.22,29.01 47.53,24.86 46.22,24.12 C46.0988033,24.6004699 45.8500369,25.0392662 45.5,25.39 C44.87,25.82 43.32,26.33 43.83,26.65 C43.8859631,26.538378 44.0001347,26.467902 44.125,26.467902 C44.2498653,26.467902 44.3640369,26.538378 44.42,26.65 C44.6,27.18 44.02,27.34 43.8,27.33 C43.6275818,27.3247765 43.4643106,27.2512322 43.3461456,27.1255646 C43.2279805,26.999897 43.1646133,26.8324132 43.17,26.66 C43.183794,26.3000955 43.3900626,25.9754134 43.71,25.81 C43.8798952,25.7010688 44.0609179,25.6105574 44.25,25.54 C44.8149226,25.3455556 45.2436297,24.8792426 45.39,24.3 C45.63,23.3 45.87,23.46 45.92,23.45 C47.39,23.6 48.36,26.23 48.41,28.09 C48.498777,29.2202975 48.1794673,30.3449769 47.51,31.26 C47.36,31.34 44,27.26 44,27.26 L44.32,27.08 L44.3,27.12 Z" id="Shape" fill="#F5BB43" fill-rule="nonzero"></path>
                <path d="M48,18.49 C48.2,18.32 48.31,18.21 48.43,18.23 C48.5684215,18.2597315 48.7115785,18.2597315 48.85,18.23 C49.1801931,18.1652936 49.5198069,18.1652936 49.85,18.23 C49.9943918,18.2615606 50.1264479,18.334539 50.23,18.44 C50.5565127,18.7165362 50.6930386,19.1573196 50.58,19.57 C50.49,20.29 50.52,20.57 50.48,21.01 C50.41,21.72 50.25,22.31 49.97,22.26 C50.36,22.93 50.39,23.51 50.64,23.97 C50.9526605,24.7393202 51.0595025,25.5768236 50.95,26.4 C50.85,27.4 50.58,29.71 51.39,31.25 C51.26,31.35 50.93,31.25 50.64,30.94 C50.35,30.63 50.22,30.64 49.99,30.82 C49.26,31.38 48.57,32.05 47.56,31.38 C47.33,31.23 47.26,31.04 47.43,30.57 C47.8306377,29.4233274 48.023657,28.2144171 48,27 L48,18.51 L48,18.49 Z" id="Shape" fill="#55A963" fill-rule="nonzero"></path>
                <path d="M48.74,17.77 C48.8099833,17.9535557 48.8099833,18.1564443 48.74,18.34 C48.6278095,18.5598476 48.6278095,18.8201524 48.74,19.04 C48.97,18.71 49.3,18.78 49.49,18.59 C49.68,18.4 49.72,18.21 49.87,18.18 C49.6445198,18.0552149 49.5177737,17.8056836 49.55,17.55 C49.55,17.18 50.11,16.89 49.65,16.33 C49.4224817,16.0545152 49.0205696,16.0020918 48.73,16.21 C48.6513298,16.2685451 48.5864701,16.3436458 48.54,16.43 C48.54,16.49 48.54,16.64 48.48,16.72 C48.4297744,16.7797876 48.3727191,16.8334868 48.31,16.88 C48.31,16.88 48.24,16.96 48.31,17.01 C48.38,17.06 48.36,17.01 48.4,17.01 L48.33,17.13 C48.33,17.13 48.33,17.19 48.33,17.21 C48.33,17.23 48.33,17.34 48.33,17.42 C48.33,17.5 48.23,17.58 48.39,17.67 C48.5046429,17.7143765 48.6271616,17.7347963 48.75,17.73 L48.74,17.77 Z" id="Shape" fill="#FFE1CF" fill-rule="nonzero"></path>
                <path d="M46.86,19.68 C46.59,19.75 46.16,19.68 45.86,19.68 C45.72,19.68 45.6,19.62 45.62,19.48 C45.6448316,19.2908113 45.6448316,19.0991887 45.62,18.91 C45.6236871,18.4798958 45.7336127,18.0573692 45.94,17.68 C46.109671,17.3702133 46.218303,17.0307384 46.26,16.68 C46.2394905,16.5299188 46.2958641,16.3795892 46.41,16.28 C46.4750173,16.2342981 46.5267718,16.1721928 46.56,16.1 C46.64,15.98 46.72,15.95 46.73,16.02 C46.7468667,16.0651426 46.7468667,16.1148574 46.73,16.16 C46.82,16.09 46.96,16 47,15.98 C47.04,15.96 47.21,15.84 47.21,15.98 C47.21,16.12 47.32,15.98 47.34,15.98 C47.36,15.98 47.34,16.04 47.34,16.06 C47.34,16.08 47.44,16.13 47.34,16.21 C47.24,16.29 47.44,16.28 47.34,16.35 C47.24,16.42 47.14,16.48 47.11,16.55 C47.0113104,16.6638191 46.8927066,16.7587022 46.76,16.83 C46.67,16.83 46.66,16.92 46.66,17.06 C46.6758162,17.6387511 46.6152952,18.2170629 46.48,18.78 C46.48,18.88 46.48,18.96 46.56,18.93 C46.6826197,18.8884309 46.8106167,18.8648525 46.94,18.86 L46.94,19.7 L46.86,19.68 Z" id="Shape" fill="#FFE1CF" fill-rule="nonzero"></path>
                <path d="M46.92,22.88 C47.301548,22.7124623 47.7007213,22.5883496 48.11,22.51 C48.414387,22.4106436 48.7089668,22.2834388 48.99,22.13 C49.19,22.02 49.36,21.88 49.47,21.84 C49.6068571,21.7990696 49.7219209,21.7055802 49.79,21.58 C50.122018,21.0229564 50.3205364,20.3965964 50.37,19.75 C50.37,19.41 50.28,19.04 49.96,19.31 C49.621369,19.603641 49.3690214,19.9838908 49.23,20.41 C49.1652297,20.6729607 49.0713151,20.9278716 48.95,21.17 C48.95,21.28 48.81,21.28 48.68,21.3 C48.2605642,21.3655074 47.8685408,21.5493768 47.55,21.83 C47.1697627,22.1112081 46.7723212,22.3683761 46.36,22.6 C46.05,22.77 45.99,22.79 45.93,22.93 C45.8811564,23.0415439 45.8172259,23.1458517 45.74,23.24 C45.687463,23.2963178 45.6651459,23.3744277 45.68,23.45 C45.68,23.51 45.68,23.8 45.68,23.9 C45.68,24 45.68,24.02 45.74,24.03 C45.8,24.04 45.83,24.03 45.85,23.9 C45.85,24.02 45.99,23.98 46,23.9 C46,24.03 46.16,23.95 46.17,23.84 C46.17,23.92 46.3,23.84 46.31,23.84 C46.3326815,23.7444706 46.3627726,23.6508539 46.4,23.56 C46.4491264,23.4302932 46.5278877,23.3138634 46.63,23.22 C46.76,23.13 46.7,23.03 46.96,22.9 L46.92,22.88 Z" id="Shape" fill="#FFE1CF" fill-rule="nonzero"></path>
                <path d="M50,30.77 C50,30.88 50.08,31 50.1,31.07 C50.12,31.14 50.1,31.16 50.1,31.2 C49.9895579,31.4313744 49.9121361,31.6771045 49.87,31.93 C49.8488222,32.0272387 49.8079859,32.1191204 49.75,32.2 C49.75,32.27 49.75,32.32 49.81,32.39 C49.8845278,32.4179745 49.9679282,32.3828586 50,32.31 C50.0208943,32.3354366 50.0520821,32.3501788 50.085,32.3501788 C50.1179179,32.3501788 50.1491057,32.3354366 50.17,32.31 C50.17,32.31 50.29,32.31 50.33,32.25 C50.37,32.19 50.44,32.25 50.46,32.18 C50.48,32.11 50.6,32.18 50.6,32.04 C50.5932653,32.0070068 50.5932653,31.9729932 50.6,31.94 C50.6110413,31.8939864 50.6110413,31.8460136 50.6,31.8 C50.6080862,31.718082 50.6355047,31.639254 50.68,31.57 C50.7513027,31.4756578 50.7835332,31.3574793 50.77,31.24 C50.77,31.12 50.69,31.13 50.64,30.97 C50.59,30.81 50.39,30.71 50.24,30.7 C50.1302792,30.7047104 50.0265189,30.7512237 49.95,30.83 L50,30.77 Z" id="Shape" fill="#FFE1CF" fill-rule="nonzero"></path>
                <path d="M47.3,31.6 C47.5052185,31.7512478 47.7935983,31.7113183 47.95,31.51 C47.8377685,31.4644939 47.7305337,31.4075254 47.63,31.34 C47.5379007,31.4472459 47.4258193,31.5355525 47.3,31.6 Z" id="Shape" fill="#FFE1CF" fill-rule="nonzero"></path>
                <path d="M48.59,16.23 C48.64,15.89 48.96,15.94 49.11,15.98 C49.2285899,16.0060165 49.3514101,16.0060165 49.47,15.98 C49.76,15.9 49.97,15.98 49.94,16.28 C50.0328914,16.3555125 50.0847684,16.4703831 50.08,16.59 C50.08,16.71 50.08,16.75 50.2,16.77 C50.32,16.79 50.53,16.91 50.38,17.1 C50.5418328,17.1909514 50.6171266,17.3833689 50.56,17.56 C50.5127864,17.6229515 50.4386893,17.66 50.36,17.66 C50.2813107,17.66 50.2072136,17.6229515 50.16,17.56 C50.0320371,17.6248291 49.8774703,17.6050129 49.77,17.51 C49.7,17.6 49.51,17.59 49.48,17.51 C49.4513726,17.4409676 49.3922216,17.3892105 49.32,17.37 C49.24,17.37 49.24,17.13 49.32,17.11 C49.2960382,17.0558664 49.2960382,16.9941336 49.32,16.94 C49.32,16.94 49.32,16.84 49.26,16.79 C49.1700777,16.6886727 49.1467067,16.5445515 49.2,16.42 C49.0449272,16.432848 48.8918494,16.3781774 48.78,16.27 C48.79,16.22 48.64,16.17 48.59,16.23 Z" id="Shape" stroke="#E77329" stroke-width="0.1" fill="#E77329" fill-rule="nonzero" stroke-linecap="round" stroke-linejoin="round"></path>
                <path d="M48.59,16.59 C48.66,16.68 48.73,16.67 48.74,16.73 C48.7322188,16.756099 48.7322188,16.783901 48.74,16.81 C48.74,16.81 48.74,16.81 48.68,16.81 L48.57,16.81 C48.57,16.81 48.49,16.81 48.57,16.81 C48.65,16.81 48.57,16.81 48.57,16.81 C48.5627247,16.7941273 48.5627247,16.7758727 48.57,16.76 C48.57,16.76 48.57,16.76 48.57,16.76 C48.57,16.76 48.57,16.68 48.57,16.7 L48.59,16.59 Z" id="Shape" fill="#434A54" fill-rule="nonzero"></path>
                <path d="M48.63,16.5 C48.7382322,16.5106415 48.8400438,16.5562812 48.92,16.63 C48.98,16.69 48.92,16.63 48.92,16.63 C48.8747265,16.6310666 48.8311216,16.6128979 48.8,16.58 C48.7545876,16.5376964 48.6997348,16.5068417 48.64,16.49 C48.64,16.49 48.59,16.49 48.64,16.49 L48.63,16.5 Z" id="Shape" fill="#434A54" fill-rule="nonzero"></path>
            </g>
        </g>
    </g>
</svg>