<?xml version="1.0" encoding="UTF-8"?>
<svg width="71px" height="47px" viewBox="0 0 71 47" version="1.1" xmlns="http://www.w3.org/2000/svg" xmlns:xlink="http://www.w3.org/1999/xlink">
    <!-- Generator: Sketch 48.1 (47250) - http://www.bohemiancoding.com/sketch -->
    <title>Morocco@2x</title>
    <desc>Created with Sketch.</desc>
    <defs></defs>
    <g id="Flags" stroke="none" stroke-width="1" fill="none" fill-rule="evenodd" transform="translate(-831.000000, -70.000000)">
        <g transform="translate(70.000000, 70.000000)" fill-rule="nonzero" id="Morocco">
            <g transform="translate(761.000000, 0.000000)">
                <rect id="Rounded_Rectangle_7_copy-35" fill="#ED5565" x="0.87" y="0" width="70" height="47" rx="6.36"></rect>
                <path d="M30.64,33.18 C29.72,33.83 29.19,33.46 29.45,32.36 L30.45,28.27 C30.6771638,27.047604 30.2751885,25.7928401 29.38,24.93 L26.38,22.34 C25.53,21.6 25.75,20.98 26.87,20.94 L31.06,20.82 C32.2541491,20.7357854 33.2839275,19.949695 33.68,18.82 L35,14.32 C35.32,13.24 35.89,13.22 36.27,14.32 L37.85,18.73 C38.2982557,19.8672799 39.3604942,20.6454766 40.58,20.73 L44.86,20.73 C45.98,20.73 46.21,21.36 45.36,22.1 L42.1,24.95 C41.2086762,25.8054353 40.8294123,27.0645913 41.1,28.27 L42.1,31.87 C42.41,32.96 41.89,33.36 40.93,32.77 L37.46,30.62 C36.3884009,30.0317532 35.0814593,30.0739126 34.05,30.73 L30.64,33.18 Z" id="Shape_2_copy_35-2" fill="#57A863"></path>
            </g>
        </g>
    </g>
</svg>