<?xml version="1.0" encoding="UTF-8"?>
<svg width="71px" height="48px" viewBox="0 0 71 48" version="1.1" xmlns="http://www.w3.org/2000/svg" xmlns:xlink="http://www.w3.org/1999/xlink">
    <!-- Generator: Sketch 48.1 (47250) - http://www.bohemiancoding.com/sketch -->
    <title>Mozambique-3@2x</title>
    <desc>Created with Sketch.</desc>
    <defs></defs>
    <g id="Flags" stroke="none" stroke-width="1" fill="none" fill-rule="evenodd" transform="translate(-493.000000, -131.000000)">
        <g transform="translate(70.000000, 70.000000)" fill-rule="nonzero" id="Mozambique-3">
            <g transform="translate(423.000000, 61.000000)">
                <g id="Equatorial_Guinea-8">
                    <path d="M0.39,6.93 L0.39,15.93 L70.39,15.93 L70.39,6.93 C70.39,3.26282926 67.4171707,0.29 63.75,0.29 L7,0.29 C3.34455042,0.306515754 0.38996269,3.27451311 0.39,6.93 Z" id="Shape" fill="#57A863"></path>
                    <polygon id="Shape" fill="#434A54" points="0.39 31.63 70.39 31.63 70.39 16 0.39 16"></polygon>
                    <path d="M0.39,40.64 C0.39,44.3071707 3.36282926,47.28 7.03,47.28 L63.75,47.28 C67.4171707,47.28 70.39,44.3071707 70.39,40.64 L70.39,31.64 L0.39,31.64 L0.39,40.64 Z" id="Shape" fill="#F6D660"></path>
                    <rect id="Rectangle-path" fill="#FFFFFF" x="0.39" y="31.13" width="70" height="1"></rect>
                    <polygon id="Shape" fill="#FFFFFF" points="70.39 16.46 0.39 16.46 0.39 15.46 70.39 15.46"></polygon>
                    <path d="M2.51,1.91 C1.15534581,3.11308 0.380117561,4.83823582 0.38,6.65 L0.38,40.92 C0.380117561,42.7317642 1.15534581,44.45692 2.51,45.66 L28.38,23.78 L2.51,1.91 Z" id="Shape" fill="#ED5565"></path>
                </g>
            </g>
        </g>
    </g>
</svg>