<?xml version="1.0" encoding="UTF-8"?>
<svg width="70px" height="48px" viewBox="0 0 70 48" version="1.1" xmlns="http://www.w3.org/2000/svg" xmlns:xlink="http://www.w3.org/1999/xlink">
    <!-- Generator: Sketch 48.1 (47250) - http://www.bohemiancoding.com/sketch -->
    <title>Myanmar@2x</title>
    <desc>Created with Sketch.</desc>
    <defs></defs>
    <g id="Flags" stroke="none" stroke-width="1" fill="none" fill-rule="evenodd" transform="translate(-578.000000, -131.000000)">
        <g transform="translate(70.000000, 70.000000)" fill-rule="nonzero" id="Myanmar">
            <g transform="translate(508.000000, 61.000000)">
                <g id="Mozambique-5">
                    <g id="Equatorial_Guinea-11">
                        <path d="M0,6.93 L0,15.93 L70,15.93 L70,6.93 C70,3.26282926 67.0271707,0.29 63.36,0.29 L6.65,0.29 C4.88723053,0.287345224 3.19575038,0.985742489 1.94834517,2.2312719 C0.700939967,3.47680131 -1.9990797e-06,5.16722853 0,6.93 Z" id="Shape" fill="#F6D660"></path>
                        <polygon id="Shape" fill="#57A863" points="0 31.63 70 31.63 70 16 0 16"></polygon>
                        <path d="M0,40.64 C0,44.3071707 2.97282926,47.28 6.64,47.28 L63.36,47.28 C67.0271707,47.28 70,44.3071707 70,40.64 L70,31.64 L0,31.64 L0,40.64 Z" id="Shape" fill="#ED5565"></path>
                    </g>
                </g>
                <path d="M27.77,36.24 C26.52,37.14 25.77,36.61 26.19,35.08 L27.6,29.37 C27.9332525,27.672065 27.4183011,25.9182449 26.22,24.67 L22.22,20.99 C21.08,19.99 21.39,19.07 22.91,19.04 L28.57,18.95 C30.2134728,18.8243161 31.6208983,17.7243953 32.14,16.16 L34,9.92 C34.45,8.41 35.22,8.39 35.72,9.92 L37.77,16.12 C38.3442079,17.6779976 39.7659235,18.7647337 41.42,18.91 L47.19,19.05 C48.7,19.05 49,19.95 47.84,20.98 L43.4,24.91 C42.1880715,26.109496 41.6617855,27.8387214 42,29.51 L43.33,34.57 C43.73,36.1 43.02,36.65 41.73,35.81 L37.08,32.75 C35.6524833,31.9097554 33.8735576,31.9445604 32.48,32.84 L27.77,36.24 Z" id="Shape_2_copy_21-4" fill="#FFFFFF"></path>
            </g>
        </g>
    </g>
</svg>