<?xml version="1.0" encoding="UTF-8"?>
<svg width="71px" height="48px" viewBox="0 0 71 48" version="1.1" xmlns="http://www.w3.org/2000/svg" xmlns:xlink="http://www.w3.org/1999/xlink">
    <!-- Generator: Sketch 48.1 (47250) - http://www.bohemiancoding.com/sketch -->
    <title>Nauru@2x</title>
    <desc>Created with Sketch.</desc>
    <defs></defs>
    <g id="Flags" stroke="none" stroke-width="1" fill="none" fill-rule="evenodd" transform="translate(-747.000000, -131.000000)">
        <g transform="translate(70.000000, 70.000000)" fill-rule="nonzero" id="Nauru">
            <g transform="translate(677.000000, 61.000000)">
                <rect id="Rounded_Rectangle_7_copy-30" fill="#4758A9" x="0.25" y="0.28" width="70" height="47" rx="6.36"></rect>
                <rect id="Rectangle_1_copy_18" fill="#F6D660" x="0.25" y="22.28" width="70" height="3"></rect>
                <path d="M12.08,41.68 C11.54,42.07 11.22,41.85 11.38,41.19 L11.97,38.71 C12.0989409,37.9804715 11.8637778,37.2339221 11.34,36.71 L9.57,35.14 C9.07,34.69 9.2,34.31 9.86,34.29 L12.34,34.22 C13.0505846,34.1565556 13.655651,33.6772173 13.88,33 L14.66,30.3 C14.85,29.64 15.19,29.63 15.41,30.3 L16.35,32.97 C16.6344675,33.6361261 17.2763146,34.0795841 18,34.11 L20.53,34.11 C21.19,34.11 21.33,34.49 20.83,34.94 L18.9,36.66 C18.376857,37.1833124 18.1579988,37.9379958 18.32,38.66 L18.94,40.84 C19.12,41.5 18.81,41.74 18.25,41.38 L16.19,40.08 C15.5587524,39.7441375 14.7962213,39.7708261 14.19,40.15 L12.08,41.68 Z M16.08,42.28 C15.91,42.92 15.52,42.94 15.22,42.28 L14.1,40 C13.7324664,39.3418995 13.0692739,38.902255 12.32,38.82 L9.94,38.69 C9.26,38.69 9.12,38.28 9.63,37.85 L11.52,36.26 C12.0393736,35.7705664 12.2095228,35.0147872 11.95,34.35 L10.84,31.76 C10.57,31.13 10.84,30.91 11.41,31.28 L13.84,32.78 C14.468378,33.1327579 15.2418051,33.1018208 15.84,32.7 L17.84,31.16 C18.36,30.76 18.7,30.96 18.6,31.62 L18.19,34.15 C18.1195981,34.8899093 18.4327789,35.6143757 19.02,36.07 L20.89,37.39 C21.45,37.79 21.36,38.17 20.7,38.24 L18.27,38.5 C17.5560148,38.6109217 16.9647586,39.1132962 16.74,39.8 L16.08,42.28 Z" id="Shape_2_copy_21-3" fill="#FFFFFF"></path>
            </g>
        </g>
    </g>
</svg>