<?xml version="1.0" encoding="UTF-8"?>
<svg width="71px" height="48px" viewBox="0 0 71 48" version="1.1" xmlns="http://www.w3.org/2000/svg" xmlns:xlink="http://www.w3.org/1999/xlink">
    <!-- Generator: Sketch 48.1 (47250) - http://www.bohemiancoding.com/sketch -->
    <title>Nepal@2x</title>
    <desc>Created with Sketch.</desc>
    <defs></defs>
    <g id="Flags" stroke="none" stroke-width="1" fill="none" fill-rule="evenodd" transform="translate(-831.000000, -131.000000)">
        <g transform="translate(70.000000, 70.000000)" fill-rule="nonzero" id="Nepal">
            <g transform="translate(761.000000, 61.000000)">
                <rect id="Rounded_Rectangle_7_copy-36" fill="#FFFFFF" x="0.87" y="0.28" width="70" height="47" rx="6.36"></rect>
                <path d="M31.21,46.66 C31.3640593,46.2856298 31.2772053,45.8553076 30.99,45.57 L11.7,26.28 L30.29,26.28 C30.6962651,26.2823626 31.06358,26.0386962 31.219371,25.6634815 C31.3751619,25.2882668 31.2884599,24.8560905 31,24.57 L6.73,0.31 C5.26533048,0.427016744 3.886778,1.04913273 2.83,2.07 L23,22.28 L4.46,22.28 C4.05373493,22.2776374 3.68641996,22.5213038 3.53062905,22.8965185 C3.37483814,23.2717332 3.46154005,23.7039095 3.75,23.99 L23,43.28 L2.61,43.28 C2.21111355,43.278611 1.84955313,43.5144113 1.69,43.88 C1.68798181,43.9166389 1.68798181,43.9533611 1.69,43.99 C2.80341444,46.010158 4.92335493,47.2691118 7.23,47.28 L30.31,47.28 C30.7063877,47.2700412 31.0594502,47.0268203 31.21,46.66 Z" id="Shape" fill="#4758A9"></path>
                <path d="M6.87,24.28 L27.87,24.28 L4.5,0.91 C2.28419803,1.96307198 0.871649464,4.19668872 0.87,6.65 L0.87,40.92 C0.870762947,42.5424345 1.4934933,44.1028393 2.61,45.28 L27.87,45.28 L6.87,24.28 Z" id="Shape" fill="#ED5565"></path>
                <path d="M6.76,40.52 C6.42,40.75 6.22,40.62 6.32,40.24 L6.69,38.81 C6.76867585,38.3799906 6.61699711,37.9401222 6.29,37.65 L5.18,36.75 C4.87,36.49 4.95,36.27 5.36,36.26 L6.91,36.26 C7.3565811,36.2483507 7.75176476,35.9677703 7.91,35.55 L8.4,33.99 C8.52,33.61 8.73,33.61 8.87,33.99 L9.45,35.53 C9.63127167,35.9247139 10.0162866,36.186524 10.45,36.21 L12,36.21 C12.42,36.21 12.5,36.42 12.19,36.69 L10.99,37.69 C10.6649363,37.9804809 10.5265104,38.4265198 10.63,38.85 L11.01,40.1 C11.13,40.48 10.93,40.62 10.58,40.41 L9.3,39.66 C8.90757828,39.4447524 8.43242172,39.4447524 8.04,39.66 L6.76,40.52 Z M9.26,40.87 C9.15,41.24 8.91,41.25 8.72,40.87 L8.02,39.55 C7.77711269,39.1618035 7.36616515,38.9100518 6.91,38.87 L5.42,38.8 C5,38.8 4.91,38.56 5.23,38.32 L6.41,37.41 C6.71899246,37.1345553 6.82634125,36.6972084 6.68,36.31 L5.98,34.82 C5.81,34.46 5.98,34.33 6.34,34.54 L7.86,35.41 C8.25039017,35.6330348 8.72960983,35.6330348 9.12,35.41 L10.36,34.52 C10.68,34.29 10.9,34.41 10.83,34.79 L10.58,36.25 C10.539235,36.6869183 10.7382149,37.1116637 11.1,37.36 L12.27,38.12 C12.62,38.35 12.57,38.57 12.15,38.61 L10.63,38.76 C10.1807525,38.7984141 9.79266687,39.0894784 9.63,39.51 L9.26,40.87 Z" id="Shape_2_copy_36" fill="#FFFFFF"></path>
                <path d="M11.39,14 C11.4696611,14.1438811 11.5365828,14.294455 11.59,14.45 C12.1063091,15.9660167 11.2959706,17.6135557 9.78,18.13 C9.19106172,18.3208382 8.5602286,18.3416349 7.96,18.19 C7.21870378,18.0057014 6.58098841,17.5344582 6.18715728,16.8799483 C5.79332615,16.2254385 5.67564328,15.4412818 5.86,14.7 L5.86,14.63 C5.90652612,14.4717299 5.96675387,14.3178145 6.04,14.17 C6.05279474,14.1176753 6.02184478,14.0646183 5.97,14.05 C5.93662675,14.028022 5.89337325,14.028022 5.86,14.05 C5.08446638,15.0060601 4.85289265,16.2928216 5.24644483,17.4592777 C5.639997,18.6257339 6.60378364,19.5091912 7.8,19.8 C8.52529493,19.9897983 9.29040596,19.9619761 10,19.72 C11.9136587,19.1041931 12.9657852,17.0536657 12.35,15.14 L12.35,15.08 C12.1879219,14.6194936 11.932603,14.1973663 11.6,13.84 C11.5666268,13.818022 11.5233732,13.818022 11.49,13.84 C11.4381552,13.8546183 11.4072053,13.9076753 11.42,13.96 L11.39,14 Z" id="Shape_6_copy_3" fill="#FFFFFF"></path>
                <path d="M7.39,19.37 C7.15,19.53 7.01,19.44 7.08,19.17 L7.34,18.17 C7.39910204,17.8663245 7.2924912,17.5541071 7.06,17.35 L6.28,16.72 C6.06,16.54 6.12,16.39 6.41,16.38 L7.5,16.38 C7.80505263,16.3609591 8.07087449,16.1655018 8.18,15.88 L8.52,14.79 C8.6,14.52 8.75,14.52 8.85,14.79 L9.26,15.87 C9.38756963,16.1507869 9.66189906,16.336249 9.97,16.35 L11.08,16.35 C11.37,16.35 11.43,16.5 11.21,16.69 L10.36,17.39 C10.1346748,17.5938792 10.0387754,17.904593 10.11,18.2 L10.38,19.08 C10.46,19.35 10.32,19.45 10.08,19.3 L9.18,18.77 C8.90307124,18.6169565 8.56692876,18.6169565 8.29,18.77 L7.39,19.37 Z M9.14,19.61 C9.06,19.87 8.89,19.88 8.76,19.61 L8.27,18.68 C8.10285432,18.403344 7.81229503,18.2245383 7.49,18.2 L6.49,18.15 C6.19,18.15 6.13,17.98 6.35,17.81 L7.18,17.17 C7.40475749,16.9824085 7.48169427,16.6706121 7.37,16.4 L6.88,15.4 C6.76,15.15 6.88,15.06 7.13,15.2 L8.19,15.81 C8.46281442,15.9651629 8.79718558,15.9651629 9.07,15.81 L9.94,15.19 C10.17,15.03 10.32,15.11 10.27,15.38 L10.09,16.38 C10.0601155,16.685971 10.1977751,16.9842334 10.45,17.16 L11.27,17.69 C11.52,17.85 11.48,18.01 11.19,18.03 L10.13,18.13 C9.82591402,18.1693479 9.56829174,18.3731386 9.46,18.66 L9.14,19.61 Z" id="Shape_2_copy_37" fill="#FFFFFF"></path>
            </g>
        </g>
    </g>
</svg>