<?xml version="1.0" encoding="UTF-8"?>
<svg width="71px" height="48px" viewBox="0 0 71 48" version="1.1" xmlns="http://www.w3.org/2000/svg" xmlns:xlink="http://www.w3.org/1999/xlink">
    <!-- Generator: Sketch 48.1 (47250) - http://www.bohemiancoding.com/sketch -->
    <title>new_zealand@2x</title>
    <desc>Created with Sketch.</desc>
    <defs></defs>
    <g id="Flags" stroke="none" stroke-width="1" fill="none" fill-rule="evenodd" transform="translate(-578.000000, -192.000000)">
        <g transform="translate(70.000000, 70.000000)" fill-rule="nonzero" id="new_zealand">
            <g transform="translate(508.000000, 122.000000)">
                <path d="M64.17,0.62 L5.85,0.62 C2.90062069,0.983733708 0.552057458,3.26286116 0.1,6.2 L0.1,41.92 C0.59388474,45.1619958 3.38060151,47.5578925 6.66,47.56 L63.38,47.56 C67.0471707,47.56 70.02,44.5871707 70.02,40.92 L70.02,7.21 C70.0185641,3.849475 67.506656,1.01982123 64.17,0.62 Z" id="Shape" fill="#4658A9"></path>
                <path d="M25,0.57 L6.6,0.57 C2.96019521,0.608373563 0.0297977241,3.56999294 0.03,7.21 L0.03,24.54 L25.03,24.54 L25,0.57 Z" id="Shape" fill="#4658A9"></path>
                <path d="M10.54,18 L10.54,24.56 L14.44,24.56 L14.44,17.85 L21.15,24.56 L25,24.56 L25,21.56 L18,14.56 L25,14.56 L25,10.56 L18,10.56 L25,3.56 L25,0.56 L21.17,0.56 L14.47,7.26 L14.47,0.56 L10.57,0.56 L10.57,7.12 L4.39,1 C2.82670719,1.56647757 1.53185751,2.69724162 0.76,4.17 L7.17,10.58 L0,10.58 L0,14.58 L7.16,14.58 L0,21.71 L0,24.54 L4,24.54 L10.54,18 Z" id="Shape" fill="#FFFFFF"></path>
                <path d="M11.54,15.23 L11.54,24.54 L13.44,24.54 L13.44,15.09 L22.89,24.54 L25,24.54 L25,23.3 L15.22,13.52 L25,13.52 L25,11.57 L15.22,11.57 L25,1.79 L25,0.56 L22.91,0.56 L13.44,10 L13.44,0.55 L11.54,0.55 L11.54,9.85 L3.21,1.51 C2.5363927,1.91866358 1.94051707,2.44344041 1.45,3.06 L9.94,11.55 L0,11.55 L0,13.5 L9.93,13.5 L0,23.45 L0,24.54 L2.23,24.54 L11.54,15.23 Z" id="Shape" fill="#EC5463"></path>
                <path d="M41.7,13.45 C41.38,13.68 41.19,13.55 41.29,13.16 L41.64,11.73 C41.7200735,11.3026657 41.581221,10.8635916 41.27,10.56 L40.27,9.65 C39.97,9.39 40.05,9.17 40.44,9.16 L41.9,9.16 C42.3178745,9.12622548 42.6756097,8.84711342 42.81,8.45 L43.27,6.88 C43.38,6.5 43.58,6.49 43.71,6.88 L44.26,8.42 C44.427665,8.82599717 44.8207954,9.09332585 45.26,9.1 L46.75,9.1 C47.14,9.1 47.22,9.32 46.92,9.58 L45.79,10.58 C45.4831102,10.8815042 45.3544293,11.3205333 45.45,11.74 L45.81,13 C45.92,13.38 45.74,13.52 45.4,13.32 L44.19,12.57 C43.8235503,12.3510381 43.3664497,12.3510381 43,12.57 L41.7,13.45 Z" id="Shape" fill="#ED5565"></path>
                <path d="M53.7,17.45 C53.38,17.68 53.19,17.55 53.29,17.16 L53.64,15.73 C53.7200735,15.3026657 53.581221,14.8635916 53.27,14.56 L52.27,13.65 C51.97,13.39 52.05,13.17 52.44,13.16 L53.9,13.16 C54.3178745,13.1262255 54.6756097,12.8471134 54.81,12.45 L55.27,10.88 C55.38,10.5 55.58,10.49 55.71,10.88 L56.26,12.42 C56.427665,12.8259972 56.8207954,13.0933259 57.26,13.1 L58.75,13.1 C59.14,13.1 59.22,13.32 58.92,13.58 L57.79,14.58 C57.4831102,14.8815042 57.3544293,15.3205333 57.45,15.74 L57.81,17 C57.92,17.38 57.74,17.52 57.4,17.32 L56.19,16.57 C55.8235503,16.3510381 55.3664497,16.3510381 55,16.57 L53.7,17.45 Z" id="Shape_2_copy-4" fill="#ED5565"></path>
                <path d="M35.7,24.45 C35.38,24.68 35.19,24.55 35.29,24.16 L35.64,22.73 C35.7200735,22.3026657 35.581221,21.8635916 35.27,21.56 L34.27,20.65 C33.97,20.39 34.05,20.17 34.44,20.16 L35.9,20.16 C36.3178745,20.1262255 36.6756097,19.8471134 36.81,19.45 L37.27,17.88 C37.38,17.5 37.58,17.49 37.71,17.88 L38.26,19.42 C38.427665,19.8259972 38.8207954,20.0933259 39.26,20.1 L40.75,20.1 C41.14,20.1 41.22,20.32 40.92,20.58 L39.79,21.58 C39.4831102,21.8815042 39.3544293,22.3205333 39.45,22.74 L39.81,24 C39.92,24.38 39.74,24.52 39.4,24.32 L38.19,23.57 C37.8235503,23.3510381 37.3664497,23.3510381 37,23.57 L35.7,24.45 Z" id="Shape_2_copy_2-4" fill="#ED5565"></path>
                <path d="M50.2,29.48 C49.97,29.64 49.84,29.55 49.9,29.28 L50.15,28.28 C50.2034778,27.9756586 50.1023,27.6646305 49.88,27.45 L49.13,26.8 C48.92,26.62 48.97,26.46 49.25,26.45 L50.25,26.45 C50.5492131,26.4254184 50.8049373,26.2247733 50.9,25.94 L51.23,24.82 C51.31,24.55 51.45,24.54 51.55,24.82 L51.95,25.92 C52.0641969,26.2000227 52.3282305,26.3902822 52.63,26.41 L53.7,26.41 C53.98,26.41 54.04,26.57 53.83,26.75 L53.02,27.46 C52.8003396,27.6756486 52.7093273,27.9903996 52.78,28.29 L53.04,29.19 C53.12,29.46 52.99,29.56 52.75,29.42 L51.88,28.88 C51.6175739,28.7260688 51.2924261,28.7260688 51.03,28.88 L50.2,29.48 Z" id="Shape_2_copy_3-3" fill="#ED5565"></path>
            </g>
        </g>
    </g>
</svg>