<?xml version="1.0" encoding="UTF-8"?>
<svg width="70px" height="48px" viewBox="0 0 70 48" version="1.1" xmlns="http://www.w3.org/2000/svg" xmlns:xlink="http://www.w3.org/1999/xlink">
    <!-- Generator: Sketch 48.1 (47250) - http://www.bohemiancoding.com/sketch -->
    <title>new_caledonia@2x</title>
    <desc>Created with Sketch.</desc>
    <defs></defs>
    <g id="Flags" stroke="none" stroke-width="1" fill="none" fill-rule="evenodd" transform="translate(-578.000000, -1356.000000)">
        <g transform="translate(70.000000, 70.000000)" fill-rule="nonzero" id="new_caledonia">
            <g transform="translate(508.000000, 1286.000000)">
                <path d="M1.5321076e-14,7.59 L-7.55238705e-06,16.59 L10.78,16.59 C11.9008533,14.6522104 13.4211794,12.9750794 15.24,11.67 C19.9692793,8.28931182 26.1801685,7.80059873 31.38,10.4 C34.1212864,11.7779956 36.401069,13.9257176 37.94,16.58 L70,16.58 L70,7.58 C70,3.91282926 67.0271707,0.94 63.36,0.94 L6.65,0.94 C4.88549642,0.937340608 3.1924973,1.63710956 1.94480343,2.88480343 C0.697109565,4.1324973 -0.002659392,5.82549642 1.5321076e-14,7.59 Z" id="Shape" fill="#4658A9"></path>
                <path d="M10.79,32.31 L0,32.31 L0,41.31 C0,44.9771707 2.97282926,47.95 6.64,47.95 L63.36,47.95 C67.0271707,47.95 70,44.9771707 70,41.31 L70,32.31 L10.79,32.31 Z" id="Shape" fill="#51C161"></path>
                <path d="M39.64,28 C39.290537,29.4989538 38.7210266,30.9378945 37.95,32.27 L70,32.27 L70,16.59 L38,16.59 C39.9717172,20.0484649 40.5578261,24.1262108 39.64,28 Z" id="Shape" fill="#EC5565"></path>
                <path d="M8.69,24.46 C8.68694698,21.7072786 9.41140456,19.002637 10.79,16.62 L0,16.62 L0,32.3 L10.78,32.3 C9.40534061,29.9162087 8.68438107,27.2117481 8.69,24.46 Z" id="Shape" fill="#EC5565"></path>
                <path d="M23,9.39 C30.5638351,8.68814468 37.47809,13.6963172 39.1694595,21.101955 C40.8608289,28.5075929 36.8063496,36.0209085 29.6877815,38.6723589 C22.5692133,41.3238094 14.5875833,38.2935791 11.0221921,31.5859575 C7.45680098,24.8783358 9.41005045,16.5672871 15.59,12.15 C17.7721262,10.5902659 20.3292269,9.63782353 23,9.39" id="Shape" stroke="#FFFFFF" stroke-width="2" fill="#FFFFFF"></path>
                <path d="M23,9.39 C30.5638351,8.68814468 37.47809,13.6963172 39.1694595,21.101955 C40.8608289,28.5075929 36.8063496,36.0209085 29.6877815,38.6723589 C22.5692133,41.3238094 14.5875833,38.2935791 11.0221921,31.5859575 C7.45680098,24.8783358 9.41005045,16.5672871 15.59,12.15 C17.7721262,10.5902659 20.3292269,9.63782353 23,9.39" id="Shape" fill="#434A54"></path>
                <path d="M24.68,9.31 C31.8633493,9.46390237 37.9520712,14.639168 39.2614221,21.7038543 C40.570773,28.7685406 36.741089,35.7820582 30.09,38.5 C29.09,37.5 28.19,36.5 27.15,35.57 C26.4398042,35.0325451 25.57055,34.747486 24.68,34.76 C24.68,34.52 24.68,34.2833333 24.68,34.05 C25.3860761,33.7519397 25.8861494,33.1079059 26,32.35 C26.2371387,31.3850232 26.0197889,30.3645843 25.41,29.58 C25.2070482,29.3609222 24.9576113,29.190075 24.68,29.08 L24.68,28.86 C25.5100312,29.0047329 26.2142722,29.5516435 26.56,30.32 C26.9401961,31.3019461 27.42996,32.2378647 28.02,33.11 C27.7495717,31.8285435 27.5492739,30.5332845 27.42,29.23 C27.3856966,28.7343304 27.1375017,28.2780898 26.74,27.98 C26.1290383,27.5860283 25.4169678,27.3776174 24.69,27.38 L24.69,27.06 L27,27.06 L27,26.43 L24.7,26.43 L24.7,26.12 C25.3169872,26.0875258 25.8943796,25.806047 26.3,25.34 C26.5253206,25.0262638 26.5253206,24.6037362 26.3,24.29 C25.8952534,23.8158933 25.3126522,23.5300206 24.69,23.5 C24.69,23.42 24.69,23.27 24.69,23.2 L27,23.2 C27,22.99 27,22.78 27,22.57 L24.7,22.57 L24.7,22.26 C25.4191143,22.2992297 26.135182,22.1401036 26.77,21.8 C27.2252018,21.4854179 27.5036436,20.973085 27.52,20.42 C27.579497,19.5966129 27.7407237,18.7837615 28,18 C27.5270051,18.5602163 27.1115793,19.1666039 26.76,19.81 C26.5475967,20.286341 26.1998468,20.6897309 25.76,20.97 C25.4492783,21.1291027 25.1085745,21.2210928 24.76,21.24 C24.76,21.1 24.76,20.95 24.76,20.81 C25.3970566,20.701551 25.9515457,20.312307 26.27,19.75 C26.6786442,19.0135705 26.6077873,18.10424 26.09,17.44 C25.7564831,17.026668 25.2835467,16.7493068 24.76,16.66 C24.76,15.94 24.76,15.22 24.76,14.5 C25.6236562,13.7014223 26.3351891,12.7527118 26.86,11.7 C26.9661773,11.4687789 27.0043312,11.2121075 26.97,10.96 C26.3274252,11.5807288 25.5744993,12.0758963 24.75,12.42 C24.75,11.3933333 24.75,10.3666667 24.75,9.34 M17.38,11.07 C19.4617442,9.97751302 21.7694372,9.38518232 24.12,9.34 C24.12,10.46 24.12,11.58 24.12,12.7 C23.41,13.02 22.54,13.37 22.31,14.19 C22.22,14.75 22.25,15.32 22.21,15.88 C22.53,15.78 22.76,15.51 23.08,15.41 C23.4269575,15.2760786 23.7615611,15.1121228 24.08,14.92 C24.08,15.5 24.08,16.08 24.08,16.66 C23.4539758,16.7547334 22.9015352,17.1205882 22.57,17.66 C22.1618309,18.3869253 22.2247111,19.2868971 22.73,19.95 C23.0620743,20.3802207 23.5441232,20.6694501 24.08,20.76 L24.08,21.19 C23.7556153,21.1764646 23.4366999,21.1018249 23.14,20.97 C22.6413367,20.6899838 22.2479912,20.2544942 22.02,19.73 C21.6720986,19.1015825 21.2634812,18.5087523 20.8,17.96 C21.046124,18.7188588 21.2005552,19.5044436 21.26,20.3 C21.2627507,20.7971594 21.4644211,21.2725253 21.82,21.62 C22.4773821,22.084431 23.2782112,22.3005839 24.08,22.23 C24.08,22.34 24.08,22.44 24.08,22.55 L21.78,22.55 L21.78,23.17 L24.08,23.17 L24.08,23.47 C23.4703932,23.5032678 22.8987451,23.7765084 22.49,24.23 C22.2382163,24.5571655 22.2382163,25.0128345 22.49,25.34 C22.8949941,25.7929003 23.4633676,26.0662951 24.07,26.1 L24.07,26.41 L21.77,26.41 C21.77,26.6166667 21.77,26.8266667 21.77,27.04 L24.07,27.04 L24.07,27.36 C23.3038329,27.3518837 22.5547454,27.5864112 21.93,28.03 C21.5714896,28.3331724 21.3543271,28.7711168 21.33,29.24 C21.2058426,30.5373162 21.0054968,31.826208 20.73,33.1 C21.3188601,32.2429786 21.8054972,31.3200462 22.18,30.35 C22.5178562,29.5582262 23.2323891,28.9903606 24.08,28.84 L24.08,29.06 C23.6134805,29.2481667 23.2350006,29.6052232 23.02,30.06 C22.6106795,30.9082559 22.5637547,31.8864587 22.89,32.77 C23.0746378,33.348981 23.5125056,33.8126058 24.08,34.03 C24.08,34.2633333 24.08,34.5 24.08,34.74 C23.0353899,34.6864442 22.0073289,35.0172735 21.19,35.67 C20.19,36.53 19.31,37.45 18.39,38.37 C13.0252174,36.0589669 9.46545516,30.8712378 9.2391487,25.0342393 C9.01284225,19.1972408 12.1602551,13.7494676 17.33,11.03" id="Shape" fill="#F2D660"></path>
            </g>
        </g>
    </g>
</svg>