<?xml version="1.0" encoding="UTF-8"?>
<svg width="71px" height="48px" viewBox="0 0 71 48" version="1.1" xmlns="http://www.w3.org/2000/svg" xmlns:xlink="http://www.w3.org/1999/xlink">
    <!-- Generator: Sketch 48.1 (47250) - http://www.bohemiancoding.com/sketch -->
    <title>North_America@2x</title>
    <desc>Created with Sketch.</desc>
    <defs></defs>
    <g id="Flags" stroke="none" stroke-width="1" fill="none" fill-rule="evenodd" transform="translate(-493.000000, -1418.000000)">
        <g transform="translate(70.000000, 70.000000)" fill-rule="nonzero" id="North_America">
            <g transform="translate(423.000000, 1348.000000)">
                <path d="M64,0.3 L6.75,0.3 C3.23746899,0.3 0.39,3.14746899 0.39,6.66 L0.39,40.93 C0.39,44.442531 3.23746899,47.29 6.75,47.29 L64,47.29 C67.512531,47.29 70.36,44.442531 70.36,40.93 L70.36,6.66 C70.36,3.14746899 67.512531,0.3 64,0.3 Z" id="Shape" fill="#4A88DC"></path>
                <path d="M34.88,41 C34.49,40.37 34.39,39.52 33.78,39.1 C33.3292359,38.8819614 32.8518361,38.7239488 32.36,38.63 C31.89,38.46 31.43,37.97 31.62,37.51 C31.81,37.05 32.39,37.02 32.82,37.18 C33.25,37.34 33.62,37.65 34.06,37.77 C35.0076613,37.8995688 35.9431845,37.4611646 36.45,36.65 C36.7356281,36.2478482 36.9993449,35.8305748 37.24,35.4 C37.7540888,34.7231755 38.35605,34.1178514 39.03,33.6 L40.08,32.86 C40.5392376,32.4349741 41.0420181,32.0595647 41.58,31.74 C41.86,31.62 42.17,31.57 42.46,31.46 C42.7548567,31.3833207 43.0047057,31.1877867 43.15,30.92 C43.31,30.53 43.15,30.12 42.78,29.63 C42.669208,29.5284408 42.5747619,29.4103832 42.5,29.28 C42.39,29.03 42.5,28.74 42.5,28.46 C42.4174462,28.0114335 42.148509,27.6189306 41.76,27.38 C41.362476,27.1471165 41.0210696,26.8296086 40.76,26.45 C40.5907343,26.1043472 40.4567243,25.74252 40.36,25.37 C40.2651061,24.6531267 40.2651061,23.9268733 40.36,23.21 C40.5047487,22.2391954 40.4503095,21.2490832 40.2,20.3 C39.7582252,18.7586237 38.8919201,17.3725355 37.7,16.3 C37.0422711,15.7659653 36.4691192,15.1354982 36,14.43 C35.8785613,14.1952053 35.7974322,13.9416768 35.76,13.68 C35.7313789,13.5819191 35.7113039,13.4815443 35.7,13.38 C35.7,12.44 36.54,11.85 36.54,10.63 C36.54,9.68 37.9,9.68 38.14,11.22 C38.14,11.22 38.14,11.22 38.14,11.22 C38.1150965,11.6685104 38.2419067,12.1123458 38.5,12.48 C38.6795072,12.6647134 38.9338353,12.7568613 39.19,12.73 C39.3900932,12.6859828 39.5871629,12.6292 39.78,12.56 C40.4529829,12.4524247 41.126416,12.7499882 41.5,13.32 C41.8576806,13.8858028 42.0958927,14.5187664 42.2,15.18 C42.4533333,16.32 42.69,17.4633333 42.91,18.61 C42.9665882,18.8560877 42.996759,19.1075106 43,19.36 C42.977125,19.6289556 42.9370429,19.8961695 42.88,20.16 C42.7639386,21.9470305 43.6400261,23.6530957 45.16,24.6 C45.54,24.87 45.79,24.51 45.87,24.35 C46.33,23.51 46.16,22.23 46.97,21.68 C47.18,21.54 47.43,21.47 47.63,21.31 C47.8709577,21.0496843 48.0791704,20.7608732 48.25,20.45 C48.96,19.52 50.49,19.45 51.09,18.45 C51.69,17.45 51.09,16.2 51.56,15.22 C51.79,14.78 52.23,14.45 52.36,13.97 C52.49,13.49 52.17,12.76 52.24,12.15 C52.24,11.88 52.38,11.63 52.41,11.36 C52.41,11.25 52.47,10.67 52.51,10 C52.51,9.55 52.68,7.79 52.67,7.49 C52.59,5.91 51.67,5.25 49.43,5.01 C46.82,4.72 45.08,6.46 42.18,5.59 C41.6430955,5.42972333 41.0893792,5.3324035 40.53,5.3 L40.17,5.3 C40.0071716,5.28183693 39.8428284,5.28183693 39.68,5.3 C36.18,5.66 33.16,9.69 31.2,10.99 C31.2,10.99 31.2,10.99 31.2,10.99 C30.7468402,11.2914682 30.2514418,11.5240021 29.73,11.68 C29.0352242,11.8971429 28.2792999,11.6478487 27.85,11.06 C27.67,10.75 27.63,10.36 27.39,10.06 C26.85,9.49 25.89,10 25.39,10.57 C24.3315927,11.7063249 23.5571522,13.077016 23.13,14.57 C22.9348209,15.0300937 22.9643784,15.5547401 23.21,15.99 C23.5113062,16.2936372 23.9222482,16.4630606 24.35,16.46 C24.7734549,16.4561357 25.1905684,16.5629994 25.56,16.77 C25.9,17.02 25.74,17.43 25.7,17.85 C25.7,18.01 26.12,18.33 26.12,18.33 C26.2086586,18.5201746 26.2086586,18.7398254 26.12,18.93 C25.89,19.24 25.4,19.08 25.12,18.85 C24.84,18.62 24.45,18.33 24.12,18.46 C23.94,18.52 23.8,18.67 23.62,18.69 C23.24,18.69 23.07,18.22 22.73,18.05 C22.21,17.79 21.73,18.4 21.22,18.69 C20.502869,18.9696358 19.703814,18.9516391 19,18.64 L18,18.34 L16.22,17.65 C15.6715264,17.4670138 15.0784736,17.4670138 14.53,17.65 C13.7872002,17.9302453 13.1074025,18.3551189 12.53,18.9 C12.4150126,18.9827953 12.3222641,19.0927194 12.26,19.22 C12.2084486,19.4754857 12.2586816,19.7410031 12.4,19.96 C12.627778,20.4789345 12.7305353,21.0440994 12.7,21.61 C12.5584982,22.3311001 12.4948001,23.0653048 12.51,23.8 C12.6901746,24.7138969 13.3849015,25.4398475 14.29,25.66 C15.1948305,25.8562924 16.1396037,25.6237896 16.85,25.03 C17.0724614,24.8133358 17.3210412,24.6252213 17.59,24.47 C18.1548179,24.2580486 18.790624,24.3775031 19.24,24.78 C19.4596501,24.9649548 19.6516084,25.1804869 19.81,25.42 C19.98,25.67 20.29,26.2 20.52,26.49 C20.7262811,26.769749 20.9842683,27.0073688 21.28,27.19 C21.6712085,27.3389362 22.0384518,27.5444577 22.37,27.8 C22.5967052,28.1554631 22.7844552,28.5343158 22.93,28.93 C23.22,29.43 23.81,29.78 23.93,30.36 C23.9408375,30.7022713 23.8795079,31.0429909 23.75,31.36 C23.5102823,32.2369288 23.5955157,33.1709451 23.99,33.99 C24.2337047,34.4525866 24.525303,34.8883083 24.86,35.29 L27.27,38.38 C27.45,38.62 29.18,39.9 29.57,40.22 C30.27,40.78 31.41,40.31 32.13,40.83 C32.2881894,40.9819419 32.4625652,41.1160771 32.65,41.23 C32.8618409,41.2880901 33.080345,41.3183446 33.3,41.32 C33.7,41.38 35.3,43.32 35.84,42.87 C36.15,42.54 35.32,41.72 34.88,41 Z" id="Shape" fill="#FFFFFF"></path>
            </g>
        </g>
    </g>
</svg>