<?xml version="1.0" encoding="UTF-8"?>
<svg width="71px" height="48px" viewBox="0 0 71 48" version="1.1" xmlns="http://www.w3.org/2000/svg" xmlns:xlink="http://www.w3.org/1999/xlink">
    <!-- Generator: Sketch 48.1 (47250) - http://www.bohemiancoding.com/sketch -->
    <title>North_Korea@2x</title>
    <desc>Created with Sketch.</desc>
    <defs></defs>
    <g id="Flags" stroke="none" stroke-width="1" fill="none" fill-rule="evenodd" transform="translate(-493.000000, -1111.000000)">
        <g transform="translate(70.000000, 70.000000)" fill-rule="nonzero" id="North_Korea">
            <g transform="translate(423.000000, 1041.000000)">
                <path d="M70.39,7.46 C70.39,3.79282926 67.4171707,0.82 63.75,0.82 L7,0.82 C3.33282926,0.82 0.36,3.79282926 0.36,7.46 L0.36,8.65 L70.36,8.65 L70.39,7.46 Z" id="Shape" fill="#4658A9"></path>
                <path d="M70.39,41.17 L70.3900302,40 L0.39,40 L0.39,41.19 C0.39,42.9510375 1.08956942,44.6399475 2.33481097,45.885189 C3.58005253,47.1304306 5.26896251,47.83 7.03,47.83 L63.75,47.83 C65.5145082,47.830008 67.2064562,47.1276938 68.4522743,45.8781233 C69.6980923,44.6285528 70.3953148,42.9345002 70.39,41.17 Z" id="Shape" fill="#4658A9"></path>
                <rect id="Rectangle-path" fill="#FFFFFF" x="0.39" y="8.65" width="70" height="1.31"></rect>
                <rect id="Rectangle-path" fill="#FFFFFF" x="0.39" y="38.68" width="70" height="1.31"></rect>
                <rect id="Rectangle-path" fill="#EC5565" x="0.39" y="9.95" width="70" height="28.72"></rect>
                <path d="M34.14,24.34 C34.14,30.1058528 29.4658528,34.78 23.7,34.78 C17.9341472,34.78 13.26,30.1058528 13.26,24.34 C13.26,18.5741472 17.9341472,13.9 23.7,13.9 C29.4658528,13.9 34.14,18.5741472 34.14,24.34 Z" id="Shape" fill="#FFFFFF"></path>
                <path d="M18,32.94 C17.8411484,32.9378626 17.6870784,32.8853388 17.56,32.79 C17.2946616,32.6001395 17.184979,32.2589046 17.29,31.95 L18.77,27.41 C19.0934186,26.4225267 18.7417507,25.339228 17.9,24.73 L14.04,21.92 C13.7743464,21.7299794 13.6622128,21.3898853 13.7627526,21.0791258 C13.8632924,20.7683664 14.1533854,20.5584043 14.48,20.56 L19.26,20.56 C20.2975918,20.5632311 21.2187407,19.8966102 21.54,18.91 L23.02,14.37 C23.1177435,14.0559013 23.4110985,13.8440338 23.74,13.85 C24.0689015,13.8440338 24.3622565,14.0559013 24.46,14.37 L25.94,18.91 C26.2612593,19.8966102 27.1824082,20.5632311 28.22,20.56 L33,20.56 C33.3266146,20.5584043 33.6167076,20.7683664 33.7172474,21.0791258 C33.8177872,21.3898853 33.7056536,21.7299794 33.44,21.92 L29.58,24.73 C28.7382493,25.339228 28.3865814,26.4225267 28.71,27.41 L30.19,31.95 C30.2948208,32.2611556 30.1850628,32.6043193 29.9191288,32.7968922 C29.6531948,32.9894651 29.2929167,32.9866723 29.03,32.79 L25.1,30 C24.2622535,29.3912136 23.1277465,29.3912136 22.29,30 L18.43,32.81 C18.3033156,32.8962494 18.1532491,32.9416183 18,32.94 Z" id="Shape" fill="#EC5565"></path>
            </g>
        </g>
    </g>
</svg>