<?xml version="1.0" encoding="UTF-8"?>
<svg width="71px" height="48px" viewBox="0 0 71 48" version="1.1" xmlns="http://www.w3.org/2000/svg" xmlns:xlink="http://www.w3.org/1999/xlink">
    <!-- Generator: Sketch 48.1 (47250) - http://www.bohemiancoding.com/sketch -->
    <title>northern_ireland@2x</title>
    <desc>Created with Sketch.</desc>
    <defs></defs>
    <g id="Flags" stroke="none" stroke-width="1" fill="none" fill-rule="evenodd" transform="translate(-747.000000, -1295.000000)">
        <g transform="translate(70.000000, 70.000000)" id="northern_ireland">
            <g transform="translate(677.000000, 1225.000000)">
                <rect id="Rectangle-path" fill="#FFFFFF" fill-rule="nonzero" x="0.25" y="0.59" width="70" height="47" rx="6.64"></rect>
                <polygon id="Shape" fill="#EC5565" fill-rule="nonzero" points="39.95 19.41 39.95 0.63 30.56 0.63 30.56 19.41 0.25 19.41 0.25 28.8 30.56 28.8 30.56 47.58 39.95 47.58 39.95 28.8 70.25 28.8 70.25 19.41"></polygon>
                <path d="M35,35.15 L32.27,29.48 C32.2278926,29.3870616 32.1316261,29.3309062 32.03,29.34 L25.76,29.81 C25.665512,29.8203344 25.5738281,29.7739314 25.5262039,29.6916714 C25.4785797,29.6094114 25.4839899,29.5067961 25.54,29.43 L29.08,24.24 C29.1354249,24.1585331 29.1354249,24.0514669 29.08,23.97 L25.54,18.78 C25.4839899,18.7032039 25.4785797,18.6005886 25.5262039,18.5183286 C25.5738281,18.4360686 25.665512,18.3896656 25.76,18.4 L32.03,18.87 C32.1316261,18.8790938 32.2278926,18.8229384 32.27,18.73 L35,13.06 C35.0381518,12.9724929 35.1245377,12.9159166 35.22,12.9159166 C35.3154623,12.9159166 35.4018482,12.9724929 35.44,13.06 L38.17,18.73 C38.2121074,18.8229384 38.3083739,18.8790938 38.41,18.87 L44.68,18.4 C44.774488,18.3896656 44.8661719,18.4360686 44.9137961,18.5183286 C44.9614203,18.6005886 44.9560101,18.7032039 44.9,18.78 L41.36,23.97 C41.3045751,24.0514669 41.3045751,24.1585331 41.36,24.24 L44.9,29.43 C44.9560101,29.5067961 44.9614203,29.6094114 44.9137961,29.6916714 C44.8661719,29.7739314 44.774488,29.8203344 44.68,29.81 L38.41,29.34 C38.3083739,29.3309062 38.2121074,29.3870616 38.17,29.48 L35.44,35.15 C35.4018482,35.2375071 35.3154623,35.2940834 35.22,35.2940834 C35.1245377,35.2940834 35.0381518,35.2375071 35,35.15 Z" id="Shape" fill="#FFFFFF" fill-rule="nonzero"></path>
                <path d="M36.52,29 C36.8071881,29 37.04,28.7671881 37.04,28.48 C37.04,28.03 37.04,27.48 37.04,27.23 L37.04,27.12 C37.3889378,26.8591911 37.6673355,26.5154903 37.85,26.12 C38.04,25.61 38.14,24.66 38.31,24.19 C38.54,23.37 39.01,22.57 38.45,22.63 C37.89,22.69 37.62,23.37 37.2,24.26 C37.2,23.98 37.05,23.06 37.02,22.26 C36.99,21.46 36.96,20.75 36.94,20.45 C36.9621435,20.0689502 36.9420208,19.6866201 36.88,19.31 C36.8350494,19.1545058 36.6918502,19.0481293 36.53,19.05 C36.3353737,19.0637029 36.179029,19.2158221 36.16,19.41 C36.1546805,19.496585 36.1546805,19.583415 36.16,19.67 C36.16,19.89 36.16,20.35 36.16,20.75 C36.16,21.33 36.16,22.4 36.1,22.49 C36.1,22.3 36.02,21.25 35.99,20.4 C35.99,20.08 35.99,19.76 35.99,19.46 C36.0013238,19.2334748 36.0013238,19.0065252 35.99,18.78 C35.99,18.46 35.79,18.3 35.56,18.31 C35.33,18.32 35.24,18.43 35.17,18.78 C35.1519653,19.0063079 35.1519653,19.2336921 35.17,19.46 C35.17,19.7 35.17,20.18 35.17,20.46 C35.17,21.46 35.12,22.07 35.09,22.46 C35.09,22.33 35.01,21.55 34.96,20.74 C34.96,20.37 34.96,19.74 34.96,19.48 C34.96,19.22 34.9,18.9 34.61,18.93 C34.32,18.96 34.3,19.02 34.24,19.42 C34.2232735,19.7264386 34.2232735,20.0335614 34.24,20.34 C34.24,20.91 34.19,22.44 34.24,22.6 C34.29,22.76 34.24,22.38 34.17,21.95 C34.1,21.52 34.08,20.62 34.07,20.36 C34.06,20.1 33.92,19.95 33.74,19.95 C33.56,19.95 33.37,20.11 33.33,20.43 C33.29,20.75 33.24,23.29 33.2,23.61 C33.1289252,24.4230253 33.1490504,25.2414507 33.26,26.05 C33.44,26.71 33.85,27.05 33.85,27.48 L33.85,28.58 C33.85,28.8671881 34.0828119,29.1 34.37,29.1 L36.52,29 Z" id="Shape" stroke="#FFFFFF" stroke-width="0.15" fill="#EC5565" fill-rule="nonzero" stroke-linecap="round" stroke-linejoin="round"></path>
                <path d="M38.88,11.52 C38.8814598,11.4966895 38.8814598,11.4733105 38.88,11.45 C38.88,10.69 37.25,10.07 35.23,10.07 C33.21,10.07 31.58,10.69 31.58,11.45 C31.5769634,11.4832642 31.5769634,11.5167358 31.58,11.55 L32.41,12.64 L32.7,12.54 C32.8172208,12.5273031 32.9318489,12.4969603 33.04,12.45 C33.1947177,12.3684982 33.3551378,12.2983144 33.52,12.24 L34.05,12.34 L34.41,12.05 L34.84,12.25 L35.25,11.94 L35.64,12.26 L36.11,12.02 C36.2431097,12.1415899 36.3833591,12.2551252 36.53,12.36 C36.53,12.36 36.93,12.13 36.93,12.13 L37.21,12.48 L37.62,12.3 L37.94,12.72 L38.88,11.52 Z" id="Shape" fill="#B42B39" fill-rule="nonzero"></path>
                <path d="M37.35,12.44 L37.06,12.02 C37.06,12.02 36.68,12.29 36.64,12.3 C36.4851262,12.172415 36.3381862,12.0354936 36.2,11.89 L35.71,12.18 L35.3,11.8 L34.87,12.17 L34.42,11.93 L34.04,12.28 L33.48,12.15 C33.3070719,12.2201736 33.1398957,12.3037617 32.98,12.4 C32.8671378,12.4568952 32.7453875,12.4940967 32.62,12.51 L32.32,12.63 L32.55,12.92 L32.87,13.72 L37.63,13.72 L37.95,12.92 L38.11,12.72 L37.78,12.22 L37.35,12.44 Z" id="Shape" fill="#FFFFFF" fill-rule="nonzero"></path>
                <ellipse id="Oval" stroke="#FFFFFF" stroke-width="0.96" stroke-linecap="round" stroke-linejoin="round" cx="35.25" cy="13.72" rx="2.16" ry="1"></ellipse>
                <path d="M32.59,12.92 C32.93,12.57 33.68,12.4 35.25,12.4" id="Shape" stroke="#FFFFFF" stroke-width="0.49" stroke-linecap="round" stroke-linejoin="round"></path>
                <path d="M35.25,12.4 C36.81,12.4 37.57,12.57 37.91,12.92" id="Shape" stroke="#FFFFFF" stroke-width="0.49" stroke-linecap="round" stroke-linejoin="round"></path>
                <ellipse id="Oval" stroke="#FFFFFF" stroke-width="0.48" stroke-linecap="round" stroke-linejoin="round" cx="35.25" cy="13.72" rx="2.16" ry="1"></ellipse>
                <ellipse id="Oval" fill="#B42B39" fill-rule="nonzero" cx="35.25" cy="13.72" rx="2.16" ry="1"></ellipse>
                <path d="M31.75,11.2 C31.4122875,10.6478518 31.4480235,9.9450454 31.84,9.43 C32.2209128,9.04664675 32.8027052,8.94633773 33.29,9.18 C33.9147425,9.47019154 34.6027883,9.59748002 35.29,9.55 C35.9745227,9.55952079 36.6541885,9.43378262 37.29,9.18" id="Shape" stroke="#FFFFFF" stroke-width="0.48" stroke-linecap="round" stroke-linejoin="round"></path>
                <path d="M38.76,11.2 C39.0977125,10.6478518 39.0619765,9.9450454 38.67,9.43 C38.2890872,9.04664675 37.7072948,8.94633773 37.22,9.18" id="Shape" stroke="#FFFFFF" stroke-width="0.48" stroke-linecap="round" stroke-linejoin="round"></path>
                <path d="M35.25,12.09 L35.25,9.05" id="Shape" stroke="#FFFFFF" stroke-width="0.48" stroke-linecap="round" stroke-linejoin="round"></path>
                <path d="M38.29,12.31 C38.07,12.85 37.51,12.68 37.77,11.98 C37.77,11.98 37.6,12.53 37.25,12.45 C36.9,12.37 36.93,12.11 36.98,11.7 C36.98,11.7 36.98,12.35 36.49,12.31 C36,12.27 36.13,11.54 36.13,11.54 C36.13,11.54 36.13,12.21 35.69,12.19 C35.25,12.17 35.27,11.79 35.26,11.53 C35.26,11.79 35.17,12.2 34.83,12.22 C34.49,12.24 34.39,11.57 34.39,11.57 C34.39,11.57 34.39,12.3 34.03,12.34 C33.67,12.38 33.54,11.73 33.54,11.73 C33.54,12.14 33.48,12.42 33.27,12.48 C33.06,12.54 32.75,12.01 32.75,12.01 C33.01,12.71 32.45,12.88 32.23,12.34" id="Shape" stroke="#FFFFFF" stroke-width="0.29" stroke-linecap="round" stroke-linejoin="round"></path>
                <circle id="Oval" fill="#FFFFFF" fill-rule="nonzero" cx="35.25" cy="9.13" r="1"></circle>
            </g>
        </g>
    </g>
</svg>