<?xml version="1.0" encoding="UTF-8"?>
<svg width="71px" height="48px" viewBox="0 0 71 48" version="1.1" xmlns="http://www.w3.org/2000/svg" xmlns:xlink="http://www.w3.org/1999/xlink">
    <!-- Generator: Sketch 48.1 (47250) - http://www.bohemiancoding.com/sketch -->
    <title>Northern_Cyprus@2x</title>
    <desc>Created with Sketch.</desc>
    <defs></defs>
    <g id="Flags" stroke="none" stroke-width="1" fill="none" fill-rule="evenodd" transform="translate(-831.000000, -1356.000000)">
        <g transform="translate(70.000000, 70.000000)" fill-rule="nonzero" id="Northern_Cyprus">
            <g transform="translate(761.000000, 1286.000000)">
                <g id="Old-2">
                    <g id="Cyprus-2">
                        <rect id="Rectangle-path" fill="#FFFFFF" x="0.87" y="8.95" width="70" height="31"></rect>
                        <path d="M64.51,0.95 L7.23,0.95 C3.71746899,0.95 0.87,3.79746899 0.87,7.31 L0.87,8.95 L70.87,8.95 L70.87,7.31 C70.87,3.79746899 68.022531,0.95 64.51,0.95 Z" id="Shape" fill="#ED5565"></path>
                        <path d="M0.87,41.59 C0.87,45.102531 3.71746899,47.95 7.23,47.95 L64.51,47.95 C68.022531,47.95 70.87,45.102531 70.87,41.59 L70.87,39.95 L0.87,39.95 L0.87,41.59 Z" id="Shape" fill="#ED5565"></path>
                        <path d="M40.22,28.62 C39.79,28.91 39.55,28.73 39.69,28.23 L40.21,26.36 C40.3373429,25.8007934 40.1758708,25.2149875 39.78,24.8 L38.46,23.56 C38.08,23.21 38.2,22.92 38.71,22.92 L40.63,22.92 C41.1822343,22.9013656 41.6701155,22.5551273 41.87,22.04 L42.55,20.04 C42.71,19.54 42.98,19.55 43.13,20.04 L43.77,22.1 C43.9402265,22.6431939 44.4144663,23.0351277 44.98,23.1 L46.98,23.19 C47.49,23.19 47.59,23.5 47.18,23.83 L45.6,25 C45.1806976,25.3854686 44.991416,25.9608846 45.1,26.52 L45.51,28.2 C45.64,28.71 45.39,28.88 44.96,28.6 L43.41,27.6 C42.929653,27.3128096 42.330347,27.3128096 41.85,27.6 L40.22,28.62 Z M40.97,32.07 C40.5485029,32.2766519 40.1102723,32.4472608 39.66,32.58 C35.3411495,33.8666668 30.7969457,31.4087674 29.51,27.09 L29.51,26.92 C29.2755202,26.0877086 29.170955,25.2242026 29.2,24.36 C29.209365,23.4935748 29.3509978,22.6336614 29.62,21.81 C31.0198866,17.4381091 35.6961901,15.026121 40.07,16.42 C40.4841503,16.5667412 40.8855077,16.747352 41.27,16.96 C41.3979509,16.9851175 41.5269328,16.9217502 41.5852463,16.8051232 C41.6435599,16.6884961 41.6168646,16.5472903 41.52,16.46 C40.4846652,15.5593126 39.2768049,14.878828 37.97,14.46 C32.4842136,12.7256889 26.6284598,15.7519067 24.87,21.23 C24.2097614,23.2302338 24.1610177,25.3819197 24.73,27.41 C25.656333,30.7687934 28.2224224,33.4288603 31.5457403,34.4753519 C34.8690581,35.5218435 38.4963049,34.8120186 41.18,32.59 C41.2852799,32.5207368 41.3337775,32.3914097 41.3,32.27 C41.2608317,32.1212674 41.109028,32.0319711 40.96,32.07 L40.97,32.07 Z" id="Shape" fill="#ED5565"></path>
                    </g>
                </g>
            </g>
        </g>
    </g>
</svg>