<?xml version="1.0" encoding="UTF-8"?>
<svg width="71px" height="48px" viewBox="0 0 71 48" version="1.1" xmlns="http://www.w3.org/2000/svg" xmlns:xlink="http://www.w3.org/1999/xlink">
    <!-- Generator: Sketch 48.1 (47250) - http://www.bohemiancoding.com/sketch -->
    <title>Pakistan@2x</title>
    <desc>Created with Sketch.</desc>
    <defs></defs>
    <g id="Flags" stroke="none" stroke-width="1" fill="none" fill-rule="evenodd" transform="translate(-662.000000, -253.000000)">
        <g transform="translate(70.000000, 70.000000)" fill-rule="nonzero" id="Pakistan">
            <g transform="translate(592.000000, 183.000000)">
                <path d="M64.2699931,0.85 L18.63,0.85 L18.63,47.85 L64.2699931,47.85 C67.7825236,47.85 70.6299921,45.002531 70.6299921,41.49 L70.6299921,7.22 C70.632647,5.53149117 69.9637498,3.91123007 68.7707308,2.71633501 C67.5777117,1.52143996 65.9585038,0.849997913 64.2699931,0.85 Z" id="Shape" fill="#57A863"></path>
                <path d="M48,27.56 C47.46,27.93 47.15,27.72 47.3,27.1 L47.88,24.77 C48.0130176,24.0722391 47.7789731,23.3550061 47.26,22.87 L45.5,21.39 C45,20.97 45.13,20.61 45.79,20.59 L48.25,20.52 C48.9483036,20.4738947 49.552944,20.0184513 49.79,19.36 L50.56,16.81 C50.75,16.19 51.08,16.18 51.31,16.81 L52.24,19.32 C52.5215655,19.9619323 53.1401149,20.391051 53.84,20.43 L56.35,20.43 C57.01,20.43 57.14,20.79 56.64,21.21 L54.73,22.83 C54.2206576,23.3158056 54.0041827,24.0335907 54.16,24.72 L54.77,26.77 C54.95,27.39 54.65,27.62 54.08,27.28 L52.08,26.06 C51.4505241,25.7211114 50.6880289,25.7439862 50.08,26.12 L48,27.56 Z M56.55,30.09 C56.1519256,30.5296285 55.71701,30.9344345 55.25,31.3 C50.6733851,34.8665818 44.090602,34.1489433 40.39,29.68 C39.7078382,28.8438256 39.1611827,27.9057378 38.77,26.9 C38.3568499,25.9096027 38.1036937,24.8598482 38.02,23.79 C37.6312868,18.0436954 41.9737808,13.069973 47.72,12.68 C48.3156425,12.6305607 48.9143575,12.6305607 49.51,12.68 L49.56,12.68 C49.685043,12.6889316 49.8053524,12.6304752 49.8756089,12.5266506 C49.9458654,12.4228261 49.9553953,12.2894068 49.9006089,12.1766506 C49.8458224,12.0638944 49.735043,11.9889316 49.61,11.98 C47.9325095,11.4252756 46.1618765,11.2077698 44.4,11.34 C40.9347842,11.561026 37.6993596,13.1497742 35.4057007,15.7566309 C33.1120419,18.3634877 31.9480973,21.7748402 32.17,25.24 L32.17,25.29 C32.2694958,26.5874049 32.5662394,27.8620536 33.05,29.07 C33.5435217,30.2813313 34.2178516,31.4108339 35.05,32.42 C39.705855,38.0228138 47.9725098,38.9088432 53.71,34.42 C55.0876298,33.3474613 56.2339689,32.007231 57.08,30.48 C57.1733333,30.3555556 57.1733333,30.1844444 57.08,30.06 C57.0059787,29.9890699 56.9058459,29.9520312 56.8034843,29.957718 C56.7011227,29.9634047 56.6057089,30.0113071 56.54,30.09 L56.55,30.09 Z" id="Shape" fill="#FFFFFF"></path>
                <path d="M7,0.85 C3.48746899,0.85 0.64,3.69746899 0.64,7.21 L0.64,41.48 C0.64,44.992531 3.48746899,47.84 7,47.84 L18.64,47.84 L18.64,0.84 L7,0.85 Z" id="Shape" fill="#FFFFFF"></path>
            </g>
        </g>
    </g>
</svg>