<?xml version="1.0" encoding="UTF-8"?>
<svg width="71px" height="48px" viewBox="0 0 71 48" version="1.1" xmlns="http://www.w3.org/2000/svg" xmlns:xlink="http://www.w3.org/1999/xlink">
    <!-- Generator: Sketch 48.1 (47250) - http://www.bohemiancoding.com/sketch -->
    <title>Palestine@2x</title>
    <desc>Created with Sketch.</desc>
    <defs></defs>
    <g id="Flags" stroke="none" stroke-width="1" fill="none" fill-rule="evenodd" transform="translate(-578.000000, -1111.000000)">
        <g transform="translate(70.000000, 70.000000)" fill-rule="nonzero" id="Palestine">
            <g transform="translate(508.000000, 1041.000000)">
                <path d="M2.26,46.15 L20.75,32.28 C20.8117367,32.2270162 20.8830092,32.1862891 20.96,32.16 C21.59,31.61 22.3,31.16 22.96,30.63 C25.74,28.55 28.51,26.46 31.3,24.38 L31.3,24.27 C27.87,21.72 24.47,19.14 21.04,16.59 L20.98,16.49 C20.6919163,16.3309485 20.4205519,16.1433386 20.17,15.93 L8.3,7.03 L2.3,2.5 C0.866325354,3.7649899 0.0495898934,5.58806013 0.06,7.5 L0.06,41.22 C0.059512886,43.1012812 0.859472482,44.893918 2.26,46.15 Z" id="Shape" fill="#EC5565"></path>
                <path d="M20.16,15.93 C20.4105519,16.1433386 20.6819163,16.3309485 20.97,16.49 L69.97,16.49 L69.97,7.49 C69.97,3.82282926 66.9971707,0.85 63.33,0.85 L6.65,0.85 C5.02812068,0.848005922 3.46211525,1.44237617 2.25,2.52 L8.25,7.05 L20.16,15.93 Z" id="Shape" fill="#434A54"></path>
                <path d="M21,16.59 C24.43,19.14 27.83,21.72 31.26,24.27 L31.26,24.38 C28.48,26.45 25.7,28.55 22.92,30.63 C22.26,31.15 21.55,31.63 20.92,32.16 L69.92,32.16 L69.92,16.48 L21,16.48 L21,16.59 Z" id="Shape" fill="#FFFFFF"></path>
                <path d="M20.75,32.28 L2.26,46.15 C3.46954059,47.2253325 5.03156612,47.8195427 6.65,47.82 L63.37,47.82 C67.0371707,47.82 70.01,44.8471707 70.01,41.18 L70.01,32.18 L21,32.18 C20.9105183,32.195228 20.8252992,32.2293156 20.75,32.28 Z" id="Shape" fill="#55A963"></path>
            </g>
        </g>
    </g>
</svg>