<?xml version="1.0" encoding="UTF-8"?>
<svg width="71px" height="48px" viewBox="0 0 71 48" version="1.1" xmlns="http://www.w3.org/2000/svg" xmlns:xlink="http://www.w3.org/1999/xlink">
    <!-- Generator: Sketch 48.1 (47250) - http://www.bohemiancoding.com/sketch -->
    <title>panama@2x</title>
    <desc>Created with Sketch.</desc>
    <defs></defs>
    <g id="Flags" stroke="none" stroke-width="1" fill="none" fill-rule="evenodd" transform="translate(-831.000000, -253.000000)">
        <g transform="translate(70.000000, 70.000000)" fill-rule="nonzero" id="panama">
            <g transform="translate(761.000000, 183.000000)">
                <path d="M0.87,24.84 L0.87,41.48 C0.870869144,42.1210145 0.968640529,42.7582142 1.16,43.37 C1.22,43.57 1.29,43.7633333 1.37,43.95 C1.54562965,44.3195073 1.75661344,44.6711469 2,45 C2.11333333,45.1666667 2.23666667,45.33 2.37,45.49 C2.58067407,45.7447101 2.81141191,45.982136 3.06,46.2 L3.11,46.2 C3.3642854,46.4203868 3.63507738,46.6209734 3.92,46.8 C4.40629297,47.1021654 4.93098913,47.337606 5.48,47.5 L5.54,47.5 C5.77665813,47.567393 6.01707265,47.6208185 6.26,47.66 L6.45,47.66 C6.72173829,47.6978053 6.99565294,47.7178479 7.27,47.72 L36,47.72 C36,40.0533333 36,32.3866667 36,24.72 L0.87,24.84 Z" id="Shape" fill="#4758A9"></path>
                <path d="M70.87,7.2 C70.87,7.2 70.87,7.2 70.87,7.2 C70.8671908,6.78341723 70.8236503,6.3681075 70.74,5.96 C70.74,5.77 70.65,5.58 70.6,5.4 C70.4784074,5.01931927 70.3210382,4.6510085 70.13,4.3 C70.07,4.2 70.01,4.1 69.95,4 L69.81,3.77 L69.66,3.57 L69.45,3.28 L69.31,3.13 L69.04,2.83 L68.79,2.61 L68.59,2.42 L68.53,2.42 L68.47,2.42 C68.1903965,2.19873283 67.8926809,2.00137076 67.58,1.83 L67.32,1.7 L67.2,1.64 L67.03,1.56 L66.83,1.49 L66.53,1.38 L66.45,1.38 L66.26,1.38 C66.0100162,1.31183927 65.7562463,1.25841401 65.5,1.22 L65.38,1.22 C65.1083207,1.18164135 64.8343693,1.16159613 64.56,1.16 L36,1.16 C36,9.16 36,17.16 36,25.16 L70.92,25.16 L70.92,7.2 L70.87,7.2 Z" id="Shape" fill="#ED5565"></path>
                <path d="M36,47.84 L64.56,47.84 C64.8343693,47.8384039 65.1083207,47.8183586 65.38,47.78 L65.5,47.78 C65.756226,47.7414736 66.0099894,47.6880497 66.26,47.62 L66.45,47.62 L66.53,47.62 L66.83,47.51 L67.03,47.44 L67.18,47.37 L67.39,47.27 L67.59,47.18 L67.87,47.01 L68.07,46.89 L68.26,46.75 L68.44,46.62 L68.56,46.53 L68.66,46.44 C68.9346124,46.2052443 69.1888539,45.9476575 69.42,45.67 L69.63,45.38 L69.78,45.18 L69.92,44.95 C69.98,44.85 70.04,44.76 70.1,44.65 C70.2910382,44.2989915 70.4484074,43.9306807 70.57,43.55 C70.57,43.39 70.66,43.23 70.69,43.07 L70.69,42.96 C70.7730046,42.5551683 70.8165418,42.1432391 70.82,41.73 C70.82,41.73 70.82,41.73 70.82,41.68 L70.82,24.84 L36,24.84 C36,32.5066667 36,40.1733333 36,47.84 Z" id="Shape" fill="#FFFFFF"></path>
                <path d="M50.78,41.18 C50.32,41.5 50.05,41.32 50.19,40.77 L50.69,38.77 C50.8048447,38.1596601 50.6057795,37.5324172 50.16,37.1 L48.66,35.81 C48.23,35.44 48.34,35.13 48.91,35.11 L51,35 C51.5961128,34.9553551 52.1097695,34.5632507 52.31,34 L52.97,31.76 C53.13,31.22 53.42,31.21 53.61,31.76 L54.4,33.96 C54.6258992,34.529415 55.1588254,34.9184123 55.77,34.96 L57.91,34.96 C58.47,34.96 58.58,35.27 58.16,35.64 L56.54,37 C56.0970762,37.4292465 55.9111755,38.0590326 56.05,38.66 L56.57,40.46 C56.73,41 56.46,41.21 55.98,40.91 L54.24,39.84 C53.701241,39.548653 53.0470138,39.5716083 52.53,39.9 L50.78,41.18 Z" id="Shape_2_copy_23-3" fill="#ED5565"></path>
                <path d="M36,0.84 L7.24,0.84 C6.90482206,0.843725189 6.57045683,0.873818059 6.24,0.93 L6.09,0.93 C5.77745049,0.989939453 5.46990066,1.07351278 5.17,1.18 L5,1.24 C4.70715032,1.35209598 4.4230348,1.4857974 4.15,1.64 L4.03,1.71 C3.51137286,2.00896781 3.04242893,2.38682191 2.64,2.83 L2.5,2.98 C2.31997246,3.18254977 2.15297068,3.39631206 2,3.62 C1.28800894,4.67056833 0.908245338,5.91089717 0.91,7.18 L0.909993947,24.82 L36,24.82 C36,16.8333333 36,8.84 36,0.84 Z" id="Shape" fill="#FFFFFF"></path>
                <path d="M15.79,17.68 C15.33,18.01 15.06,17.82 15.2,17.27 L15.7,15.27 C15.8148447,14.6596601 15.6157795,14.0324172 15.17,13.6 L13.67,12.3 C13.24,11.93 13.35,11.62 13.92,11.6 L16.02,11.54 C16.6161128,11.4953551 17.1297695,11.1032507 17.33,10.54 L17.99,8.3 C18.15,7.76 18.44,7.75 18.63,8.3 L19.42,10.5 C19.6458992,11.069415 20.1788254,11.4584123 20.79,11.5 L22.93,11.5 C23.49,11.5 23.6,11.81 23.18,12.18 L21.55,13.6 C21.1070762,14.0292465 20.9211755,14.6590326 21.06,15.26 L21.58,17.06 C21.74,17.6 21.47,17.81 20.99,17.51 L19.25,16.44 C18.7117501,16.1464905 18.0563544,16.1694868 17.54,16.5 L15.79,17.68 Z" id="Shape_2_copy_22-2-2" fill="#4758A9"></path>
            </g>
        </g>
    </g>
</svg>