<?xml version="1.0" encoding="UTF-8"?>
<svg width="71px" height="48px" viewBox="0 0 71 48" version="1.1" xmlns="http://www.w3.org/2000/svg" xmlns:xlink="http://www.w3.org/1999/xlink">
    <!-- Generator: Sketch 48.1 (47250) - http://www.bohemiancoding.com/sketch -->
    <title>papua_new_guinea@2x</title>
    <desc>Created with Sketch.</desc>
    <defs></defs>
    <g id="Flags" stroke="none" stroke-width="1" fill="none" fill-rule="evenodd" transform="translate(-493.000000, -315.000000)">
        <g transform="translate(70.000000, 70.000000)" fill-rule="nonzero" id="papua_new_guinea">
            <g transform="translate(423.000000, 245.000000)">
                <rect id="Rounded_Rectangle_7_copy-41" fill="#434A54" x="0.39" y="0.13" width="70" height="47" rx="6.36"></rect>
                <path d="M64,0.13 L6.75,0.13 C5.05240039,0.126254369 3.42420923,0.803466623 2.23,2.01 L68.12,45.63 C69.5573379,44.4247879 70.3882833,42.6457595 70.39,40.77 L70.39,6.5 C70.3926819,4.80628005 69.7196708,3.18145042 68.5201527,1.98568671 C67.3206346,0.789922998 65.6937032,0.122008622 64,0.13 Z" id="Shape" fill="#ED5565"></path>
                <path d="M11.83,23.87 C11.56,24.06 11.4,23.95 11.48,23.63 L11.77,22.44 C11.8459407,22.0755157 11.7287921,21.6976171 11.46,21.44 L10.58,20.68 C10.33,20.47 10.4,20.28 10.72,20.27 L11.95,20.27 C12.3016771,20.2453248 12.6046861,20.0131491 12.72,19.68 L13.11,18.38 C13.2,18.06 13.37,18.06 13.48,18.38 L13.94,19.67 C14.07639,19.9968201 14.3865578,20.2178146 14.74,20.24 L16,20.24 C16.33,20.24 16.4,20.42 16.15,20.64 L15.15,21.47 C14.8773397,21.7249469 14.7693755,22.1105333 14.87,22.47 L15.17,23.52 C15.26,23.84 15.11,23.95 14.83,23.78 L13.83,23.15 C13.5205989,22.9713672 13.1394011,22.9713672 12.83,23.15 L11.83,23.87 Z" id="Shape_2_copy_4-2" fill="#FFFFFF"></path>
                <path d="M21.92,27.2 C21.65,27.39 21.5,27.28 21.57,26.96 L21.86,25.77 C21.937935,25.4054233 21.820489,25.0265653 21.55,24.77 L20.67,24.01 C20.42,23.8 20.49,23.61 20.81,23.6 L22.04,23.6 C22.3916771,23.5753248 22.6946861,23.3431491 22.81,23.01 L23.2,21.71 C23.29,21.39 23.46,21.39 23.57,21.71 L24,23 C24.13639,23.3268201 24.4465578,23.5478146 24.8,23.57 L26.05,23.57 C26.38,23.57 26.45,23.75 26.2,23.97 L25.2,24.8 C24.9273397,25.0549469 24.8193755,25.4405333 24.92,25.8 L25.22,26.85 C25.31,27.17 25.16,27.28 24.88,27.11 L23.88,26.48 C23.5705989,26.3013672 23.1894011,26.3013672 22.88,26.48 L21.92,27.2 Z" id="Shape_2_copy_4-2-2" fill="#FFFFFF"></path>
                <path d="M6.78,33 C6.51,33.19 6.36,33.08 6.43,32.76 L6.72,31.57 C6.79594067,31.2055157 6.67879211,30.8276171 6.41,30.57 L5.53,29.81 C5.28,29.6 5.35,29.41 5.67,29.4 L6.9,29.4 C7.25167711,29.3753248 7.55468608,29.1431491 7.67,28.81 L8.06,27.51 C8.15,27.19 8.32,27.19 8.43,27.51 L8.89,28.8 C9.02639002,29.1268201 9.33655776,29.3478146 9.69,29.37 L11,29.37 C11.33,29.37 11.4,29.55 11.15,29.77 L10.15,30.6 C9.87733967,30.8549469 9.76937548,31.2405333 9.87,31.6 L10.17,32.65 C10.26,32.97 10.11,33.08 9.83,32.91 L8.83,32.29 C8.52059892,32.1113672 8.13940108,32.1113672 7.83,32.29 L6.78,33 Z" id="Shape_2_copy_4-3" fill="#FFFFFF"></path>
                <path d="M13.78,42 C13.51,42.19 13.36,42.08 13.43,41.76 L13.72,40.57 C13.7959407,40.2055157 13.6787921,39.8276171 13.41,39.57 L12.53,38.81 C12.28,38.6 12.35,38.41 12.67,38.4 L13.9,38.4 C14.2516771,38.3753248 14.5546861,38.1431491 14.67,37.81 L15.06,36.51 C15.15,36.19 15.32,36.19 15.43,36.51 L15.89,37.8 C16.02639,38.1268201 16.3365578,38.3478146 16.69,38.37 L18,38.37 C18.33,38.37 18.4,38.55 18.15,38.77 L17.15,39.6 C16.8773397,39.8549469 16.7693755,40.2405333 16.87,40.6 L17.17,41.65 C17.26,41.97 17.11,42.08 16.83,41.91 L15.83,41.29 C15.5205989,41.1113672 15.1394011,41.1113672 14.83,41.29 L13.78,42 Z" id="Shape_2_copy_24-2" fill="#FFFFFF"></path>
                <path d="M16.34,33.07 C16.16,33.2 16.05,33.13 16.1,32.91 L16.3,32.09 C16.3471548,31.8455607 16.2682423,31.5937924 16.09,31.42 L15.49,30.9 C15.32,30.75 15.36,30.63 15.59,30.62 L16.43,30.62 C16.6698847,30.6000169 16.8746043,30.4386033 16.95,30.21 L17.21,29.31 C17.27,29.09 17.39,29.09 17.46,29.31 L17.78,30.19 C17.8724902,30.41542 18.0866746,30.5672962 18.33,30.58 L19.18,30.58 C19.4,30.58 19.45,30.71 19.28,30.85 L18.63,31.42 C18.4539633,31.594802 18.3819312,31.8488099 18.44,32.09 L18.65,32.81 C18.71,33.03 18.65,33.11 18.42,32.99 L17.73,32.56 C17.5201751,32.4364285 17.2598249,32.4364285 17.05,32.56 L16.34,33.07 Z" id="Shape_2_copy_25-2" fill="#FFFFFF"></path>
                <polygon id="Shape" fill="#F6D660" points="42.67 14 54.03 15 54.03 15 50.84 26.61"></polygon>
                <polygon id="Rectangle_16_copy" fill="#F6D660" points="56.93 4.71 53.2 15.48 53.2 15.48 65.11 17.29"></polygon>
            </g>
        </g>
    </g>
</svg>