<?xml version="1.0" encoding="UTF-8"?>
<svg width="71px" height="48px" viewBox="0 0 71 48" version="1.1" xmlns="http://www.w3.org/2000/svg" xmlns:xlink="http://www.w3.org/1999/xlink">
    <!-- Generator: Sketch 48.1 (47250) - http://www.bohemiancoding.com/sketch -->
    <title>peru@2x</title>
    <desc>Created with Sketch.</desc>
    <defs></defs>
    <g id="Flags" stroke="none" stroke-width="1" fill="none" fill-rule="evenodd" transform="translate(-662.000000, -315.000000)">
        <g transform="translate(70.000000, 70.000000)" fill-rule="nonzero" id="peru">
            <g transform="translate(592.000000, 245.000000)">
                <path d="M7,0.14 C3.48746899,0.14 0.64,2.98746899 0.64,6.5 L0.64,40.77 C0.64,42.4567769 1.3100695,44.0744678 2.50280087,45.2671991 C3.69553224,46.4599305 5.31322312,47.13 7,47.13 L24,47.13 C24,31.4633333 24,15.7966667 24,0.13 L7,0.14 Z" id="Shape" fill="#ED5565"></path>
                <path d="M24,0.14 C24,15.8066667 24,31.4733333 24,47.14 L47.35,47.14 C47.35,31.4733333 47.35,15.8066667 47.35,0.14 L24,0.14 Z" id="Shape" fill="#FFFFFF"></path>
                <path d="M64.27,0.14 L47.32,0.14 C47.32,15.8066667 47.32,31.4733333 47.32,47.14 L64.27,47.14 C67.782531,47.14 70.63,44.292531 70.63,40.78 L70.63,6.5 C70.63,2.98746899 67.782531,0.14 64.27,0.14 Z" id="Shape" fill="#ED5565"></path>
            </g>
        </g>
    </g>
</svg>