<?xml version="1.0" encoding="UTF-8"?>
<svg width="71px" height="48px" viewBox="0 0 71 48" version="1.1" xmlns="http://www.w3.org/2000/svg" xmlns:xlink="http://www.w3.org/1999/xlink">
    <!-- Generator: Sketch 48.1 (47250) - http://www.bohemiancoding.com/sketch -->
    <title>philippines@2x</title>
    <desc>Created with Sketch.</desc>
    <defs></defs>
    <g id="Flags" stroke="none" stroke-width="1" fill="none" fill-rule="evenodd" transform="translate(-747.000000, -315.000000)">
        <g transform="translate(70.000000, 70.000000)" fill-rule="nonzero" id="philippines">
            <g transform="translate(677.000000, 245.000000)">
                <path d="M63.89,0.12 L6.61,0.12 C3.09746899,0.12 0.25,2.96746899 0.25,6.48 L0.25,24.12 L70.25,24.12 L70.25,6.48 C70.25,2.96746899 67.402531,0.12 63.89,0.12 Z" id="Shape" fill="#4758A9"></path>
                <path d="M0.25,40.75 C0.25,44.262531 3.09746899,47.11 6.61,47.11 L63.88,47.11 C65.5667769,47.11 67.1844678,46.4399305 68.3771991,45.2471991 C69.5699305,44.0544678 70.24,42.4367769 70.24,40.75 L70.24,24.12 L0.24,24.12 L0.25,40.75 Z" id="Shape" fill="#ED5565"></path>
                <path d="M2.15,1.95 C0.931164836,3.14574529 0.246154249,4.78256006 0.25,6.49 L0.25,40.76 C0.251149023,42.4851958 0.955294766,44.1354245 2.2,45.33 L25.25,24.12 L2.15,1.95 Z" id="Shape" fill="#FFFFFF"></path>
                <circle id="Ellipse_3_copy_2-4" fill="#F6D660" cx="10.25" cy="23.62" r="4"></circle>
            </g>
        </g>
    </g>
</svg>