<?xml version="1.0" encoding="UTF-8"?>
<svg width="71px" height="48px" viewBox="0 0 71 48" version="1.1" xmlns="http://www.w3.org/2000/svg" xmlns:xlink="http://www.w3.org/1999/xlink">
    <!-- Generator: Sketch 48.1 (47250) - http://www.bohemiancoding.com/sketch -->
    <title>Puerto_Rico@2x</title>
    <desc>Created with Sketch.</desc>
    <defs></defs>
    <g id="Flags" stroke="none" stroke-width="1" fill="none" fill-rule="evenodd" transform="translate(-831.000000, -1111.000000)">
        <g transform="translate(70.000000, 70.000000)" fill-rule="nonzero" id="Puerto_Rico">
            <g transform="translate(761.000000, 1041.000000)">
                <path d="M17.14,10.14 L33.3,19.47 C33.35,19.47 33.4,19.55 33.47,19.54 L70.87,19.54 L70.87,10.15 L17.14,10.14 Z" id="Shape" fill="#FFFFFF"></path>
                <path d="M18.49,37.55 C18.05,37.81 17.6,38.05 17.17,38.32 C21.51,38.32 25.84,38.32 30.17,38.32 L70.86,38.32 L70.86,28.92 L33.43,28.92 L18.49,37.55 Z" id="Shape" fill="#FFFFFF"></path>
                <path d="M3.35,46.28 C7.96,43.63 12.56,40.96 17.17,38.28 C17.6,38.01 18.05,37.77 18.49,37.51 L33.42,28.89 L41.51,24.22 L33.6,19.66 L33.46,19.55 C33.4,19.55 33.35,19.55 33.29,19.48 L17.13,10.15 L3.37,2.2 C1.77910068,3.4568459 0.850729157,5.37253317 0.85,7.4 L0.85,41.12 C0.858053379,43.1300417 1.77755775,45.0278987 3.35,46.28 Z" id="Shape" fill="#3CAFDA"></path>
                <path d="M17.14,10.14 L70.87,10.14 L70.87,7.39 C70.87,5.62896251 70.1704306,3.94005253 68.925189,2.69481097 C67.6799475,1.44956942 65.9910375,0.75 64.23,0.75 L7.51,0.75 C6.00981168,0.74742466 4.5533692,1.25523996 3.38,2.19 L17.14,10.14 Z" id="Shape" fill="#EC5565"></path>
                <polygon id="Shape" fill="#EC5565" points="33.62 19.65 41.53 24.21 41.53 24.21 33.44 28.88 70.89 28.88 70.89 19.49 33.49 19.49"></polygon>
                <path d="M17.17,38.32 C12.56,40.96 7.95,43.63 3.35,46.32 C4.52737969,47.2719876 5.9958988,47.7909114 7.51,47.79 L64.23,47.79 C67.8971707,47.79 70.87,44.8171707 70.87,41.15 L70.87,38.37 L30.19,38.37 C25.85,38.32 21.51,38.33 17.17,38.32 Z" id="Shape" fill="#EC5565"></path>
                <path d="M11.52,29.23 C10.98,29.61 10.65,29.39 10.8,28.74 L11.34,26.31 C11.4573272,25.5700334 11.1986377,24.8202088 10.65,24.31 L8.82,22.76 C8.3,22.32 8.42,21.95 9.09,21.93 L11.6,21.87 C12.31052,21.8228018 12.9205737,21.3474352 13.14,20.67 L13.87,18.02 C14.05,17.38 14.39,17.37 14.63,18.02 L15.63,20.65 C15.9311302,21.3157938 16.571395,21.7643626 17.3,21.82 L19.86,21.82 C20.53,21.82 20.67,22.2 20.18,22.64 L18.27,24.32 C17.7318538,24.8342391 17.5238054,25.6047889 17.73,26.32 L18.4,28.47 C18.6,29.12 18.29,29.36 17.71,29 L15.6,27.71 C14.9722975,27.3680747 14.2098327,27.3871363 13.6,27.76 L11.52,29.23 Z" id="Shape" fill="#FFFFFF"></path>
            </g>
        </g>
    </g>
</svg>