<?xml version="1.0" encoding="UTF-8"?>
<svg width="71px" height="48px" viewBox="0 0 71 48" version="1.1" xmlns="http://www.w3.org/2000/svg" xmlns:xlink="http://www.w3.org/1999/xlink">
    <!-- Generator: Sketch 48.1 (47250) - http://www.bohemiancoding.com/sketch -->
    <title>saaint_kitts_nevis@2x</title>
    <desc>Created with Sketch.</desc>
    <defs></defs>
    <g id="Flags" stroke="none" stroke-width="1" fill="none" fill-rule="evenodd" transform="translate(-493.000000, -437.000000)">
        <g transform="translate(70.000000, 70.000000)" fill-rule="nonzero" id="saaint_kitts_nevis">
            <g transform="translate(423.000000, 367.000000)">
                <rect id="Rounded_Rectangle_7_copy-42" fill="#ED5565" x="0.39" y="0.7" width="70" height="47" rx="6.36"></rect>
                <path d="M64.73,0.74 C64.4968403,0.72726987 64.2631597,0.72726987 64.03,0.74 L6.75,0.74 C3.23746899,0.74 0.39,3.58746899 0.39,7.1 L0.39,41.37 L28.39,29.73 L64.73,0.74 Z" id="Shape" fill="#57A863"></path>
                <path d="M70.39,7.06 C70.384807,3.69110735 67.7534956,0.910688261 64.39,0.72 L0.39,41.44 C0.444620199,44.9134169 3.2761537,47.7004294 6.75,47.7 L7.32,47.7 L70.39,7.6 L70.39,7.06 Z" id="Shape" fill="#434A54"></path>
                <path d="M70.28,5.89 L4.94,47.43 C5.52716255,47.6067849 6.13680543,47.6977261 6.75,47.7 L10.11,47.7 L70.39,9.38 L70.39,7.07 C70.3900237,6.67410571 70.3531982,6.27906853 70.28,5.89 Z" id="Shape" fill="#FFCE54"></path>
                <path d="M0.63,43.06 L66.48,1.19 C65.7008155,0.864467508 64.8644497,0.697874313 64.02,0.7 L61.66,0.7 L0.38,39.7 L0.38,41.37 C0.386949917,41.942013 0.47104171,42.5104735 0.63,43.06 Z" id="Shape" fill="#FFCE54"></path>
                <path d="M30.81,30.6 C30.68,30.87 30.51,30.86 30.43,30.6 L30.13,29.52 C30.0229721,29.2074353 29.7684718,28.9679056 29.45,28.88 L28.45,28.67 C28.16,28.61 28.13,28.44 28.38,28.28 L29.33,27.7 C29.5963531,27.5186308 29.7298654,27.1966305 29.67,26.88 L29.39,25.67 C29.32,25.38 29.45,25.3 29.68,25.49 L30.61,26.31 C30.8615762,26.5068368 31.2037869,26.5418356 31.49,26.4 L32.49,25.85 C32.75,25.7 32.88,25.85 32.78,26.1 L32.41,27.19 C32.31751,27.5060735 32.3971761,27.8474997 32.62,28.09 L33.32,28.79 C33.54,29 33.46,29.17 33.17,29.15 L32.1,29.15 C31.7778927,29.1587894 31.486347,29.3429235 31.34,29.63 L30.81,30.6 Z" id="Shape_2_copy_7-2" fill="#FFFFFF"></path>
                <path d="M40,24.65 C39.87,24.92 39.7,24.91 39.62,24.65 L39.31,23.57 C39.2029721,23.2574353 38.9484718,23.0179056 38.63,22.93 L37.63,22.72 C37.34,22.66 37.32,22.49 37.57,22.33 L38.51,21.75 C38.7747237,21.5677656 38.9046954,21.2448056 38.84,20.93 L38.57,19.72 C38.5,19.43 38.62,19.35 38.85,19.54 L39.79,20.36 C40.0415762,20.5568368 40.3837869,20.5918356 40.67,20.45 L41.67,19.9 C41.93,19.76 42.07,19.9 41.97,20.15 L41.59,21.24 C41.49751,21.5560735 41.5771761,21.8974997 41.8,22.14 L42.5,22.84 C42.72,23.05 42.64,23.22 42.35,23.2 L41.28,23.2 C40.9578927,23.2087894 40.666347,23.3929235 40.52,23.68 L40,24.65 Z" id="Shape_2_copy_19-2" fill="#FFFFFF"></path>
            </g>
        </g>
    </g>
</svg>