<?xml version="1.0" encoding="UTF-8"?>
<svg width="71px" height="48px" viewBox="0 0 71 48" version="1.1" xmlns="http://www.w3.org/2000/svg" xmlns:xlink="http://www.w3.org/1999/xlink">
    <!-- Generator: Sketch 48.1 (47250) - http://www.bohemiancoding.com/sketch -->
    <title>samoa@2x</title>
    <desc>Created with Sketch.</desc>
    <defs></defs>
    <g id="Flags" stroke="none" stroke-width="1" fill="none" fill-rule="evenodd" transform="translate(-747.000000, -437.000000)">
        <g transform="translate(70.000000, 70.000000)" fill-rule="nonzero" id="samoa">
            <g transform="translate(677.000000, 367.000000)">
                <rect id="Rectangle-path" fill="#FFFFFF" x="0.25" y="0.68" width="70" height="47" rx="6.64"></rect>
                <path d="M64.41,0.73 L6.09,0.73 C3.14062069,1.09373371 0.792057458,3.37286116 0.34,6.31 L0.34,42 C0.83388474,45.2419958 3.62060151,47.6378925 6.9,47.64 L63.62,47.64 C67.2871707,47.64 70.26,44.6671707 70.26,41 L70.26,7.32 C70.2585641,3.959475 67.746656,1.12982123 64.41,0.73 Z" id="Shape" fill="#ED5565"></path>
                <path d="M25.22,0.68 L6.82,0.68 C3.18019521,0.718373563 0.249797724,3.67999294 0.25,7.32 L0.25,24.65 L25.25,24.65 L25.22,0.68 Z" id="Shape" fill="#4658A9"></path>
                <path d="M9.64,9.66 C9.43,9.81 9.32,9.73 9.37,9.47 L9.59,8.54 C9.64108529,8.26253574 9.5511702,7.97780463 9.35,7.78 L8.68,7.19 C8.49,7.02 8.54,6.88 8.79,6.87 L9.73,6.87 C10.000922,6.84835188 10.2329329,6.66746205 10.32,6.41 L10.61,5.41 C10.68,5.16 10.81,5.16 10.89,5.41 L11.24,6.41 C11.3395508,6.66507507 11.5769056,6.84017287 11.85,6.86 L12.85,6.86 C13.1,6.86 13.15,7 12.96,7.17 L12.23,7.82 C12.0295118,8.01784937 11.9462021,8.30564676 12.01,8.58 L12.24,9.4 C12.31,9.65 12.24,9.74 11.98,9.61 L11.2,9.12 C10.966016,8.97997375 10.673984,8.97997375 10.44,9.12 L9.64,9.66 Z" id="Shape" fill="#FFFFFF"></path>
                <path d="M17.34,12.27 C17.14,12.42 17.02,12.34 17.07,12.08 L17.29,11.15 C17.3392995,10.8726492 17.2496431,10.5887373 17.05,10.39 L16.38,9.8 C16.19,9.63 16.24,9.49 16.49,9.48 L17.43,9.48 C17.6996596,9.45016332 17.9247083,9.26064857 18,9 L18.29,8 C18.36,7.75 18.49,7.75 18.57,8 L18.92,9 C19.0195508,9.25507507 19.2569056,9.43017287 19.53,9.45 L20.53,9.45 C20.78,9.45 20.83,9.59 20.64,9.76 L19.91,10.41 C19.7112154,10.6088594 19.6281817,10.8957029 19.69,11.17 L19.92,11.99 C19.99,12.24 19.92,12.33 19.66,12.2 L18.88,11.71 C18.646641,11.5677302 18.353359,11.5677302 18.12,11.71 L17.34,12.27 Z" id="Shape_2_copy-2" fill="#FFFFFF"></path>
                <path d="M5.8,16.83 C5.59,16.98 5.48,16.9 5.54,16.64 L5.76,15.71 C5.80929952,15.4326492 5.71964314,15.1487373 5.52,14.95 L4.85,14.36 C4.66,14.19 4.71,14.05 4.96,14.04 L5.9,14.04 C6.17193244,14.0209685 6.40522412,13.8390801 6.49,13.58 L6.78,12.58 C6.85,12.33 6.98,12.33 7.06,12.58 L7.41,13.58 C7.50955082,13.8350751 7.74690562,14.0101729 8.02,14.03 L9.02,14.03 C9.27,14.03 9.32,14.17 9.13,14.34 L8.4,14.99 C8.20121537,15.1888594 8.11818173,15.4757029 8.18,15.75 L8.41,16.57 C8.48,16.82 8.41,16.91 8.15,16.78 L7.37,16.29 C7.13664103,16.1477302 6.84335897,16.1477302 6.61,16.29 L5.8,16.83 Z" id="Shape_2_copy_2-2" fill="#FFFFFF"></path>
                <path d="M15.09,20.11 C14.94,20.22 14.86,20.11 14.9,19.98 L15.06,19.31 C15.0953489,19.1130112 15.03182,18.9112134 14.89,18.77 L14.41,18.35 C14.27,18.23 14.31,18.13 14.49,18.12 L15.16,18.12 C15.3539263,18.1052461 15.5197833,17.9749298 15.58,17.79 L15.79,17.06 C15.84,16.88 15.93,16.88 15.99,17.06 L16.24,17.78 C16.3127741,17.9625229 16.4839343,18.0870031 16.68,18.1 L17.36,18.1 C17.54,18.1 17.58,18.2 17.44,18.32 L16.92,18.78 C16.776987,18.9202884 16.7164955,19.1244472 16.76,19.32 L16.93,19.91 C16.93,20.09 16.93,20.15 16.74,20.06 L16.18,19.71 C16.0110128,19.6074305 15.7989872,19.6074305 15.63,19.71 L15.09,20.11 Z" id="Shape_2_copy_3-2" fill="#FFFFFF"></path>
            </g>
        </g>
    </g>
</svg>