<?xml version="1.0" encoding="UTF-8"?>
<svg width="71px" height="48px" viewBox="0 0 71 48" version="1.1" xmlns="http://www.w3.org/2000/svg" xmlns:xlink="http://www.w3.org/1999/xlink">
    <!-- Generator: Sketch 48.1 (47250) - http://www.bohemiancoding.com/sketch -->
    <title>san_marino@2x</title>
    <desc>Created with Sketch.</desc>
    <defs></defs>
    <g id="Flags" stroke="none" stroke-width="1" fill="none" fill-rule="evenodd" transform="translate(-831.000000, -437.000000)">
        <g transform="translate(70.000000, 70.000000)" fill-rule="nonzero" id="san_marino">
            <g transform="translate(761.000000, 367.000000)">
                <g id="poland-2">
                    <path d="M64.51,0.68 L7.24,0.68 C3.72746899,0.68 0.88,3.52746801 0.88,7.03999782 L0.88,24.6799918 L70.88,24.6799918 L70.88,6.99999783 C70.8579864,3.49919515 68.0108687,0.674426272 64.51,0.68 Z" id="Shape" fill="#FFFFFF"></path>
                    <path d="M0.87,41.31 C0.87,44.822531 3.71746899,47.67 7.23,47.67 L64.5,47.67 C68.012531,47.67 70.86,44.822531 70.86,41.31 L70.86,24.68 L0.86,24.68 L0.87,41.31 Z" id="Shape" fill="#3BAFDA"></path>
                </g>
                <path d="M19.57,26 C19.4153603,26 19.29,26.1253603 19.29,26.28 C19.29,26.4346397 19.4153603,26.56 19.57,26.56 C19.7246397,26.56 19.85,26.4346397 19.85,26.28 C19.85,26.1253603 19.7246397,26 19.57,26 Z M22.57,29.73 C22.4153603,29.73 22.29,29.8553603 22.29,30.01 C22.29,30.1646397 22.4153603,30.29 22.57,30.29 C22.7246397,30.29 22.85,30.1646397 22.85,30.01 C22.85,29.8553603 22.7246397,29.73 22.57,29.73 Z M53,24.47 C52.9405002,24.2449706 53.0441504,24.0086481 53.25,23.9 C53.45,23.67 53.58,23.43 53.31,23.2 L53.21,23.2 C53.4,22.86 53.3,22.45 53.06,22.43 C52.6318199,22.4068155 52.209544,22.5381114 51.87,22.8 C51.25,22.19 51.13,22.86 50.95,23.45 C50.8196769,23.3652313 50.6582616,23.3432201 50.51,23.39 C50.5633277,23.9234808 50.4172757,24.4578175 50.1,24.89 C49.85,24.98 49.54,25.08 49.25,25.2 C49.3593486,25.1019872 49.4361137,24.9728823 49.47,24.83 C49.4980002,24.5716016 49.651309,24.3435079 49.88,24.22 C50.122435,24.1145312 50.2374861,23.8357537 50.14,23.59 C50.0657346,23.5290807 50.0311069,23.4321784 50.0499448,23.337989 C50.0687827,23.2437995 50.1380168,23.1676696 50.23,23.14 C50.4305715,23.0861989 50.5508087,22.8813504 50.5,22.68 C50.3795972,22.4933906 50.3433004,22.2647208 50.4,22.05 C50.48,21.87 50.13,21.7 49.83,21.99 C49.5680562,22.2513989 49.4718844,22.6360862 49.58,22.99 C49.64,23.22 49.37,23.19 49.21,23.15 C49.3423017,23.0130471 49.4111183,22.8268954 49.3997136,22.6368172 C49.3883089,22.4467389 49.2977279,22.2701511 49.15,22.15 C48.84,21.92 48.79,22.1 48.55,22.4 C48.4228958,22.5369614 48.3773026,22.7307324 48.43,22.91 C48.4646673,22.9789244 48.470441,23.0588219 48.4460434,23.1320145 C48.4216459,23.2052071 48.3690885,23.2656609 48.3,23.3 C48.2197181,23.3464879 48.1702881,23.4322298 48.1702881,23.525 C48.1702881,23.6177702 48.2197181,23.7035121 48.3,23.75 C48.49,23.91 48.47,24.02 48.3,24.22 C48.1398693,24.4406783 48.1398693,24.7393217 48.3,24.96 C48.4199302,25.165236 48.455767,25.4089262 48.4,25.64 C48.3454483,26.0745476 48.1606859,26.4824192 47.87,26.81 C47.6640973,27.0293625 47.5042794,27.2877915 47.4,27.57 C47.0845598,27.8807397 46.715211,28.1314903 46.31,28.31 C46.3301203,28.1740739 46.3301203,28.0359261 46.31,27.9 C46.3799853,27.6345528 46.4268273,27.3635383 46.45,27.09 C46.4687004,27.0422424 46.4957938,26.9982156 46.53,26.96 C46.9,26.61 46.62,26.16 46.86,25.96 C47.1,25.76 47.09,25.53 46.86,25.55 C46.63,25.57 46.72,25.55 46.72,25.47 C46.7511229,25.3843359 46.7878695,25.3008208 46.83,25.22 L46.83,25.17 C46.8869784,25.1094268 46.9311888,25.03801 46.96,24.96 L47.05,24.83 C47.1397342,24.9318807 47.2077832,25.0509665 47.25,25.18 C47.13,25.43 47.17,25.68 47.38,25.64 C47.87,25.95 48.22,25.72 47.82,25.2 C47.89,25.03 47.82,24.96 47.49,24.96 C47.3553606,24.8565523 47.2516107,24.7182191 47.19,24.56 C47.27,24.11 47.58,23.65 47.58,23.42 C47.609647,23.1379317 47.7328596,22.8739047 47.93,22.67 C48.1850411,22.320622 48.3057376,21.8910844 48.27,21.46 C48.4889567,21.1231784 48.7667122,20.8284866 49.09,20.59 C49.29,20.44 49.44,20.18 49.26,20.07 C49.1645541,20.0257957 49.1034681,19.9301853 49.1034681,19.825 C49.1034681,19.7198147 49.1645541,19.6242043 49.26,19.58 C49.4173449,19.5032313 49.5064826,19.3330593 49.48,19.16 C49.77,19.04 49.99,19.16 49.99,19.3 C49.99,19.44 50.08,19.55 50.23,19.51 C50.4148933,19.4736116 50.6051067,19.4736116 50.79,19.51 C51.04,19.51 50.99,19.51 50.97,19.3 C50.95,19.09 50.97,19.02 51.17,19.21 C51.2067025,19.2662157 51.2644728,19.305307 51.3303053,19.3184735 C51.3961378,19.33164 51.4644994,19.317775 51.52,19.28 L51.59,19.21 C51.6340394,18.9836332 51.5348076,18.7534155 51.34,18.63 C51.14,18.51 51.05,18.39 51.14,18.28 C51.23,18.17 51.27,18.16 50.96,18.08 C50.3566681,17.9632298 49.7372843,18.1811611 49.34,18.65 L49.25,18.55 C49.12,18.46 49.17,18.34 49.25,18.21 C49.33,18.08 49.25,17.9 48.89,18.09 C48.6427414,18.1854858 48.4666667,18.407493 48.43,18.67 C48.43,18.84 48.43,18.9 48.2,18.98 C47.9783676,19.0840644 47.8806101,19.3462323 47.98,19.57 C48.0513708,19.7190689 48.1881965,19.8263107 48.35,19.86 C48.54,19.86 48.6,20.14 48.35,20.06 C48.1,19.98 47.84,20.06 47.96,20.31 C47.984233,20.6095106 47.984233,20.9104894 47.96,21.21 C47.8022003,21.4339377 47.7311255,21.7075755 47.76,21.98 C47.7181534,22.2682349 47.60848,22.5424184 47.44,22.78 C47.44,22.11 47.37,20.55 47.36,19.31 C47.3896755,19.1884517 47.3896755,19.0615483 47.36,18.94 C47.5,18.45 47.89,17.56 48.36,17.51 C48.5330959,17.5364843 48.7044593,17.4527952 48.79,17.3 C48.7844354,17.2442515 48.801378,17.1885907 48.8370596,17.1453971 C48.8727413,17.1022035 48.9242033,17.0750587 48.98,17.07 C49.1,17.07 49.15,16.86 48.98,16.69 C48.9253481,16.6145091 48.903061,16.520339 48.9180781,16.4283597 C48.9330951,16.3363804 48.9841759,16.2541887 49.06,16.2 L49.11,16.2 C49.3086167,16.1334886 49.4159609,15.9188001 49.35,15.72 L49.35,15.64 C49.2406537,15.4961735 49.0585427,15.4277582 48.8815444,15.4640109 C48.7045461,15.5002635 48.5639966,15.634766 48.52,15.81 C48.42,16.01 48.36,16.09 48.21,15.99 C48.0940087,15.9183612 47.9469746,15.9205933 47.8332113,15.99572 C47.719448,16.0708467 47.6596605,16.2051949 47.68,16.34 C47.8460519,16.8039981 47.7946445,17.3180716 47.54,17.74 L47.48,17.85 C47.48,17.68 47.56,17.53 47.59,17.44 C47.6854013,17.1756108 47.5910082,16.8801195 47.36,16.72 C47.17,16.66 47.19,16.58 47.36,16.29 C47.59,15.74 47.36,15.6 47.09,15.49 C46.8696947,15.4323536 46.6976464,15.2603053 46.64,15.04 C46.6099938,14.9327129 46.5376212,14.8422553 46.4395331,14.7894386 C46.3414449,14.7366219 46.2260872,14.725994 46.12,14.76 C46.001165,14.7917766 45.9058925,14.8805344 45.8657923,14.9968249 C45.8256921,15.1131155 45.8460082,15.2417313 45.92,15.34 C45.9829056,15.4020166 46.0183213,15.4866644 46.0183213,15.575 C46.0183213,15.6633356 45.9829056,15.7479834 45.92,15.81 C45.79,15.96 45.92,16.26 46.24,16.18 C46.2144235,16.3688232 46.3161663,16.5519602 46.49,16.63 C46.61,16.72 46.56,16.86 46.43,17.08 C46.4249621,16.9931898 46.3848129,16.9121679 46.3187907,16.8555775 C46.2527686,16.7989871 46.1665594,16.7717018 46.08,16.78 C45.77,16.84 45.71,16.78 45.63,16.57 C45.4719055,16.3807734 45.1909715,16.3540178 45,16.51 C44.76,16.71 44.42,17.32 45.12,17.25 C45.42,17.25 45.57,17.25 45.42,17.42 C45.3147155,17.5278642 45.287775,17.689899 45.3524922,17.8260283 C45.4172095,17.9621576 45.559881,18.0435571 45.71,18.03 C45.916344,18.0259224 46.1210969,18.066873 46.31,18.15 C46.02,18.26 45.99,18.43 46.23,18.55 C46.629539,18.6135244 46.9628767,18.88939 47.1,19.27 C47.1477915,19.5475846 47.1745344,19.8283844 47.18,20.11 C47.18,20.22 47.08,20.11 47.09,20.11 C47.09,20.0602944 47.0497056,20.02 47,20.02 C46.84,19.69 46.62,19.53 46.49,19.63 C46.4270017,19.8813248 46.5217526,20.1458378 46.73,20.3 C46.56,20.53 46.73,20.79 46.91,20.73 C47.0008612,20.6582006 47.1291388,20.6582006 47.22,20.73 C47.2997049,21.1899055 47.2997049,21.6600945 47.22,22.12 C47.1615977,22.381809 47.1896683,22.6554971 47.3,22.9 C47.3704734,23.1620106 47.3704734,23.4379894 47.3,23.7 C47.1720228,24.0305312 47.0076792,24.3458028 46.81,24.64 C46.663151,24.6992049 46.5424797,24.8092287 46.47,24.95 C46.4988656,24.6789325 46.5913795,24.4185229 46.74,24.19 C46.8190639,24.1137281 46.8534764,24.0022311 46.8311517,23.8946666 C46.808827,23.7871022 46.7328863,23.6985086 46.63,23.66 C46.39,23.56 45.85,23.78 46.14,24.58 C46.08,24.4 45.91,24.44 45.75,24.72 C45.6001282,24.8957167 45.6001282,25.1542833 45.75,25.33 C45.9030449,25.4458798 45.9382419,25.6614612 45.83,25.82 C45.7288698,26.0143924 45.794181,26.2538665 45.98,26.37 C46.1507822,26.5518371 46.2184532,26.8074829 46.16,27.05 C46.1301151,27.3425722 46.1301151,27.6374278 46.16,27.93 C46.07,28.29 45.92,28.63 45.85,28.93 C45.8046199,29.0859961 45.7299575,29.2319272 45.63,29.36 C45.6815994,29.2510056 45.7023506,29.1299572 45.69,29.01 C45.6678533,28.8437182 45.7108504,28.6753126 45.81,28.54 C45.9036069,28.3470472 45.844468,28.1147156 45.67,27.99 C45.5928097,27.942504 45.5377772,27.8661549 45.5171235,27.7779073 C45.4964698,27.6896596 45.5119045,27.5968182 45.56,27.52 L45.63,27.44 C45.6990088,27.3719558 45.7124914,27.2655248 45.6626298,27.1824221 C45.6127682,27.0993195 45.5125138,27.0611307 45.42,27.09 L45.31,27.09 C45.31,26.55 45.22,25.52 45.2,25.09 C45.1669802,24.6247446 45.3386248,24.1682428 45.67,23.84 C45.77909,23.7900013 45.8636911,23.6985013 45.9050024,23.5858342 C45.9463137,23.4731671 45.9409128,23.3486664 45.89,23.24 C45.8497685,23.1498802 45.8472081,23.0474223 45.8828881,22.9554056 C45.9185681,22.8633888 45.9895311,22.78944 46.08,22.75 C46.2947916,22.5941509 46.3707019,22.3089416 46.261801,22.0669395 C46.1529001,21.8249375 45.889094,21.6926006 45.63,21.75 C45.87,21.48 45.52,20.91 45.73,20.75 C45.9099501,20.6566692 46.0306068,20.478785 46.0507776,20.2770778 C46.0709483,20.0753705 45.9879054,19.8771164 45.83,19.75 C45.94,19.36 45.59,19.32 45.69,18.99 C45.79,18.66 45.52,18.56 45.32,18.85 C45.12,19.14 45.07,19.08 44.93,18.91 C44.8548888,18.7890497 44.7269704,18.7107793 44.585087,18.6989557 C44.4432037,18.6871321 44.3040946,18.7431501 44.21,18.85 C44.11,19.67 44.07,25.17 44.83,25.26 C44.83,25.55 44.98,26.49 45.06,27.12 C45.0040157,27.096658 44.9530789,27.0627001 44.91,27.02 C44.7,26.84 44.62,27.08 44.72,27.31 C44.82,27.54 44.51,27.47 44.72,27.72 C44.8060349,27.8478414 44.8765317,27.9854781 44.93,28.13 C44.6,27.93 44.43,28.36 44.54,28.74 C44.5976087,28.9344364 44.6179657,29.1380061 44.6,29.34 L44.6,29.28 C44.4266546,29.1374279 44.2895738,28.9557959 44.2,28.75 L44.2,28.58 C44.2014375,28.4426657 44.2470158,28.3094367 44.33,28.2 C44.54,27.93 44.82,27.55 44.08,26.87 C43.6698177,27.4423725 43.3712664,28.0869718 43.2,28.77 C43.2629555,29.1734523 43.4866242,29.5342083 43.82,29.77 C43.6962011,29.7624829 43.5754096,29.8100674 43.49,29.9 C43.4237458,30.0354988 43.2800484,30.1153307 43.13,30.1 L43.06,30.1 C42.80246,30.0112873 42.5176779,30.0562528 42.3,30.22 C42.1066703,30.4133588 41.986491,30.6678563 41.96,30.94 C41.9782342,31.1439261 41.9049641,31.3454187 41.76,31.49 C41.61,31.6 41.42,31.86 41.69,32.04 C41.8347066,32.0963565 41.9952934,32.0963565 42.14,32.04 C41.7577189,32.3641113 41.325452,32.6241468 40.86,32.81 C40.9680439,32.3753302 40.9951623,31.9244867 40.94,31.48 L40.37,32.15 C40.49,33.4 39.73,33.7 38.91,34.28 C38.26,34.73 36.77,35.87 35.79,36.67 C35.68,36.56 35.59,36.45 35.51,36.35 C34.771341,35.5590233 33.9423275,34.8575503 33.04,34.26 C32.206095,33.7513693 31.3294443,33.3163899 30.42,32.96 C29.8510243,32.68672 29.4152325,32.1969044 29.21,31.6 C29.1775638,31.1293372 28.8536676,30.7294654 28.4,30.6 C28.5365215,30.5647503 28.6255348,30.4334849 28.6077683,30.29361 C28.5900019,30.153735 28.4709988,30.0488912 28.33,30.0488912 C28.1890012,30.0488912 28.0699981,30.153735 28.0522317,30.29361 C28.0344652,30.4334849 28.1234785,30.5647503 28.26,30.6 L28.09,30.6 C27.951417,29.9984355 27.9720974,29.3711309 28.15,28.78 C28.3789395,27.9710218 28.2894839,27.1050915 27.9,26.36 C27.792122,26.871757 27.5922125,27.3596717 27.31,27.8 C27.0580468,28.7497776 27.2255374,29.7620034 27.77,30.58 L27.26,30.58 C27.17,30.43 27.1,30.28 27.05,30.19 C27,30.1 26.68,29.89 26.41,29.64 C26.3974146,29.1014338 26.5103973,28.5673341 26.74,28.08 C26.95,27.67 26.35,26.67 26.45,25.66 C26.2898603,25.8570946 26.1585471,26.0759499 26.06,26.31 C26.0755026,26.0535674 26.0755026,25.7964326 26.06,25.54 C26.6224321,24.5683894 26.6673674,23.3813506 26.18,22.37 C26.5215464,21.5093095 26.782661,20.6188415 26.96,19.71 L26.87,19.8 C27,18.8 26.87,17.8 26.87,17.64 C26.4315029,18.5794946 26.2028718,19.6032158 26.2,20.64 C26.112768,20.8151884 26.0456731,20.9996993 26,21.19 C25.9006792,20.6710501 25.7038707,20.1756355 25.42,19.73 C24.79,21.83 25.66,22.99 25.87,23.92 C25.87,24.09 25.82,24.25 25.79,24.43 C25.56,23.81 25,23.2 24.88,22.74 C24.51,24.14 25.46,25.85 25.88,26.87 C25.8418337,27.0379958 25.8151057,27.2083868 25.8,27.38 C25.7705515,27.2225493 25.7165605,27.0706997 25.64,26.93 C25.3012205,26.4148789 25.0699329,25.8366598 24.96,25.23 C24.7415866,25.6319674 24.628086,26.0825303 24.63,26.54 C24.63,26.44 24.63,26.35 24.56,26.27 C24.6449458,26.2044577 24.6830237,26.0948382 24.6570015,25.9907496 C24.6309794,25.8866611 24.5457956,25.807857 24.44,25.79 C24.4227299,25.185657 24.4969009,24.5821747 24.66,24 C24.4443809,23.9163729 24.3099032,23.7003936 24.33,23.47 C24.33,23.27 24.33,23.1 24.33,22.8 C24.767936,21.6014444 24.9352682,20.3208409 24.82,19.05 C24.7035442,19.3113351 24.5593859,19.5594215 24.39,19.79 C24.2444076,19.1692415 24.5529751,18.5312573 25.13,18.26 C26.73,17 26.43,16.14 27.01,15.71 C26.4120192,16.0184701 25.8600261,16.4089043 25.37,16.87 C25.9903972,16.1181998 26.4162518,15.2252789 26.61,14.27 C25.904899,14.6854518 25.3698861,15.3373881 25.1,16.11 C25.0571508,16.593628 24.956431,17.0703682 24.8,17.53 L24.67,17.73 C24.8294758,16.8420124 24.7676529,15.9284075 24.49,15.07 C24.3892115,15.5352318 24.2135958,15.9810256 23.97,16.39 C23.7390254,17.2192226 23.8172093,18.1041221 24.19,18.88 C24.0986376,19.3003193 24.0783568,19.7329773 24.13,20.16 C23.900399,20.4471977 23.7580935,20.7942842 23.72,21.16 C23.59,22.01 24.24,22.24 24.12,22.88 C24.0769338,23.1714288 24.0535475,23.4654277 24.05,23.76 C24.0166827,23.868128 24.0571175,23.9853892 24.15,24.05 C24.268177,24.1684954 24.3000949,24.348034 24.23,24.5 C24.23,24.61 24.11,25 24.04,25.41 C23.9483404,25.2472491 23.8937092,25.0662831 23.88,24.88 C23.7335468,25.1402558 23.6353033,25.4248234 23.59,25.72 C23.19,24.58 24.3,24.56 23.2,22.24 C22.9735433,22.8032531 22.8515532,23.4030377 22.84,24.01 C22.7870076,23.5511925 22.6656643,23.1028963 22.48,22.68 C22.58,21.78 23.1,21.86 23.05,20.68 C22.9035017,20.0505498 22.934659,19.3927841 23.14,18.78 C22.8552311,19.0677954 22.6278505,19.4071693 22.47,19.78 C22.2916422,19.2544116 22.1938681,18.7048535 22.18,18.15 C21.7188299,18.8984525 21.5053783,19.7732543 21.57,20.65 C21.2352184,20.3967783 20.941731,20.0931706 20.7,19.75 C20.92,21.22 21.19,22.18 21.62,22.48 C21.8000712,22.6208966 21.9526212,22.7937866 22.07,22.99 C21.9380715,23.0152719 21.8426783,23.1306728 21.8426783,23.265 C21.8426783,23.3993272 21.9380715,23.5147281 22.07,23.54 C22.15306,23.5441603 22.2336713,23.511183 22.29,23.45 C22.36,23.59 22.42,23.73 22.47,23.88 L22.33,23.8 C21.8066174,23.6274099 21.3376736,23.3205275 20.97,22.91 C21.0020772,23.674932 21.4680191,24.3544306 22.17,24.66 C22.680438,24.9742872 23.1420173,25.3617443 23.54,25.81 C23.4944953,26.2347846 23.5671657,26.6638857 23.75,27.05 C23.2771317,26.6909505 22.8680823,26.2548566 22.54,25.76 C22.5462417,26.812984 23.1406707,27.7741063 24.08,28.25 C24.4400099,28.4059729 24.7765694,28.6112742 25.08,28.86 L25.18,28.94 C25.2600629,29.3369274 25.5080612,29.6797487 25.86,29.88 C26.1915954,30.0772096 26.4888264,30.3271538 26.74,30.62 C25.67,30.62 24.34,30.5 23.97,30.45 C23.71,30.11 23.47,29.78 23.3,29.54 C23.4271182,28.4759675 23.144682,27.4034251 22.51,26.54 C22.2047882,27.2520034 22.2047882,28.0579966 22.51,28.77 C22.3969139,28.6779605 22.2725835,28.600674 22.14,28.54 C22.0115071,28.2476226 21.8645436,27.9637159 21.7,27.69 C21.48,26.69 21.92,26.15 20.23,24.36 C20.079842,24.8924838 20.1151032,25.4601904 20.33,25.97 C20.1527582,25.654782 20.0150529,25.3189155 19.92,24.97 C19.63,23.8 18.65,23.91 18.26,23.33 C18.79,25.21 19.16,25.42 19.51,25.68 C19.8952002,25.9814291 20.2532371,26.316043 20.58,26.68 C19.93,26.58 19.32,26.84 18.91,26.38 C19.36,27.78 21.18,27.43 21.86,28.44 C21.7203146,28.426727 21.5796854,28.426727 21.44,28.44 C20.8831701,28.4938325 20.3234969,28.371404 19.84,28.09 C20.23,29.32 22.31,28.89 23.13,29.85 C23.3187391,30.045301 23.4771631,30.2677687 23.6,30.51 L23.48,30.57 L22.63,30.52 C21.4,29.52 21.12,29.19 19.37,29.28 C19.7679275,29.6485695 20.1960981,29.9830778 20.65,30.28 C19.8795681,30.331323 19.151117,30.6495783 18.59,31.18 C19.1177072,31.1788555 19.6451072,31.2055593 20.17,31.26 C20.0674923,31.6383391 19.8674987,31.9831557 19.59,32.26 C20.39,31.75 21.27,31.93 21.91,31.67 C22.492912,31.4636723 23.0396303,31.1666896 23.53,30.79 L23.61,30.79 C23.4980376,30.8516166 23.4420028,30.981224 23.4738122,31.1049993 C23.5056216,31.2287747 23.6172026,31.3153059 23.745,31.3153059 C23.8727974,31.3153059 23.9843784,31.2287747 24.0161878,31.1049993 C24.0479972,30.981224 23.9919624,30.8516166 23.88,30.79 L24.1,30.79 L24.56,30.85 C24.5384482,30.9645538 24.5875778,31.0808783 24.6847204,31.1453016 C24.781863,31.2097248 24.908137,31.2097248 25.0052796,31.1453016 C25.1024222,31.0808783 25.1515518,30.9645538 25.13,30.85 C25.73,30.85 26.4,30.92 26.81,30.9 L27.02,30.9 C27.18,31.11 27.29,31.29 27.39,31.42 C27.621337,31.6878207 27.8684424,31.9416047 28.13,32.18 C27.7493349,32.2439628 27.3606651,32.2439628 26.98,32.18 L26.83,32.18 C26.9648975,32.1424963 27.0513558,32.0111131 27.0324303,31.8723842 C27.0135048,31.7336554 26.8950138,31.6302316 26.755,31.6302316 C26.6149862,31.6302316 26.4964952,31.7336554 26.4775697,31.8723842 C26.4586442,32.0111131 26.5451025,32.1424963 26.68,32.18 C26.3427296,32.2204919 26.0086187,32.2839729 25.68,32.37 C24.68,32.18 23.98,31.44 22.61,31.92 C22.8973175,31.9890654 23.1623122,32.1301665 23.38,32.33 C21.96,32.22 20.68,33.17 20.38,33.17 C20.8281916,33.2794147 21.2887512,33.3298409 21.75,33.32 L21.46,33.43 C20.1583418,33.3401335 18.9039395,33.9351219 18.15,35 C18.7734649,34.7866006 19.4166421,34.6358559 20.07,34.55 C19.8672586,34.8489214 19.5873519,35.0873604 19.26,35.24 C20.3621666,35.6016261 21.5591479,35.0701145 22.03,34.01 C21.9435355,34.4450868 21.7148778,34.8390816 21.38,35.13 C22.1072361,34.95317 22.7421132,34.510896 23.16,33.89 C23.1192594,34.0281322 23.0858791,34.1683294 23.06,34.31 C23.4124253,33.9720873 23.8652046,33.7579824 24.35,33.7 C24.97,33.56 25.3,32.82 25.87,32.57 C25.7491086,32.629953 25.6147315,32.6575175 25.48,32.65 C25.6618488,32.5572245 25.8677364,32.5223283 26.07,32.55 C26.1312416,32.5730199 26.1987584,32.5730199 26.26,32.55 C26.2031558,32.6852736 26.2603829,32.8414864 26.3911597,32.9080267 C26.5219366,32.9745671 26.6819006,32.9288631 26.7577842,32.8032769 C26.8336677,32.6776907 26.7997292,32.514824 26.68,32.43 C26.795017,32.3810936 26.924983,32.3810936 27.04,32.43 C27.242821,32.5384726 27.4809433,32.5601201 27.7,32.49 C27.8879063,32.406985 28.1020937,32.406985 28.29,32.49 C27.9025613,32.7007276 27.620056,33.0629139 27.51,33.49 C27.1201314,34.0300334 26.8850197,34.6662181 26.83,35.33 C27.3260647,35.163873 27.7659048,34.8625652 28.1,34.46 C28.2966767,34.1072618 28.3605315,33.6957532 28.28,33.3 C28.2526495,33.0474049 28.2526495,32.7925951 28.28,32.54 C28.359877,32.5887266 28.425431,32.6577308 28.47,32.74 C28.5407779,32.979346 28.771628,33.1346452 29.02,33.11 C29.2361219,33.0921472 29.4525197,33.1410113 29.64,33.25 C30.2494124,33.4554935 30.8413189,33.7096454 31.41,34.01 C32.6829052,34.7852927 33.896265,35.6543659 35.04,36.61 L35.42,36.99 L35.13,37.24 C34.8679627,37.4177178 34.6547712,37.658418 34.51,37.94 C34.3919017,38.2314352 34.1714197,38.469698 33.89,38.61 C33.5936727,38.7442548 33.3607569,38.9879205 33.24,39.29 C32.95382,39.4962021 32.6891494,39.7307204 32.45,39.99 C32.1704518,40.3365963 32.2099357,40.8411125 32.54,41.14 C32.6895639,40.9758348 32.8021043,40.7814468 32.87,40.57 C33.065833,40.2310894 33.3317588,39.9378891 33.65,39.71 C33.8605372,39.6207593 34.0188603,39.4403446 34.08,39.22 C34.2025778,38.9638564 34.392745,38.7460285 34.63,38.59 C34.9319788,38.4212193 35.1812193,38.1719788 35.35,37.87 C35.4669498,37.6846587 35.600858,37.5105781 35.75,37.35 C35.9757445,37.5818934 36.1676363,37.8444822 36.32,38.13 C36.5396893,38.5155379 36.8316911,38.8550749 37.18,39.13 C37.5128376,39.4380402 37.7961689,39.7955773 38.02,40.19 C38.1784387,40.5142121 38.3730064,40.8194822 38.6,41.1 C38.6679939,41.1703252 38.7453951,41.2309 38.83,41.28 C39.0173559,40.7242018 38.9120918,40.1114146 38.55,39.65 C38.2296496,39.4310177 37.9823305,39.1209981 37.84,38.76 C37.7165317,38.4279669 37.4742163,38.1535803 37.16,37.99 C36.7652205,37.6889653 36.3971855,37.3543881 36.06,36.99 C36.1893748,36.8619414 36.3262854,36.7417272 36.47,36.63 C36.96,36.25 39.47,34.56 40.24,33.9 C40.5135507,33.622817 40.8151713,33.3748178 41.14,33.16 C41.3489224,33.1900857 41.5610776,33.1900857 41.77,33.16 C42.0295618,33.1952509 42.2223828,33.4180662 42.22,33.68 C42.22,33.93 42.39,33.96 42.65,33.91 C42.728016,33.8798603 42.8159357,33.8907292 42.8842632,33.9389604 C42.9525908,33.9871916 42.9922741,34.0663954 42.99,34.15 C43.0645642,34.4161976 43.3139601,34.5949313 43.59,34.58 L45.01,33.95 C44.9790963,33.7440521 45.0032472,33.5335938 45.08,33.34 C45.17,33.22 44.97,33.06 44.71,33 C44.4678041,32.9319432 44.2083372,33.0145008 44.05,33.21 C43.9827753,33.2879079 43.8812727,33.3273801 43.7790757,33.315357 C43.6768786,33.3033338 43.5873082,33.2413823 43.54,33.15 C43.4226742,32.9384827 43.2018218,32.8052097 42.96,32.8 C42.8285858,32.86934 42.6714142,32.86934 42.54,32.8 C42.3281588,32.7361011 42.099147,32.765182 41.91,32.88 C41.7861713,32.9357958 41.6547339,32.9728679 41.52,32.99 C41.7097468,32.8922517 41.8820619,32.76386 42.03,32.61 C42.3318835,32.4267402 42.6769091,32.3266828 43.03,32.32 C43.1115645,32.437336 43.2471925,32.50515 43.39,32.5 C43.7442401,32.6317848 44.1257797,32.6730323 44.5,32.62 L44.68,32.54 C45.197591,32.5827408 45.7044887,32.7111549 46.18,32.92 C46.5033672,33.1241851 46.8695757,33.2508179 47.25,33.29 C47.6,33.29 47.53,33.46 47.49,33.62 C47.2226824,33.8794095 47.0962018,34.2514111 47.15,34.62 C47.2392603,34.7671802 47.28115,34.9382295 47.27,35.11 C47.2407496,35.1731965 47.2588398,35.2482133 47.3136797,35.2911314 C47.3685196,35.3340496 47.4456854,35.333581 47.5,35.29 C47.62,35.19 47.7,35.29 47.66,35.45 C47.646077,35.5391293 47.6855441,35.6281689 47.7609332,35.6777104 C47.8363223,35.7272518 47.9337128,35.7281471 48.01,35.68 C48.22,35.56 48.34,35.68 48.38,35.82 C48.42,35.96 49.04,35.96 48.98,35.72 C48.92,35.48 48.91,35.33 49.08,35.27 C49.2067491,35.1750734 49.2655651,35.0143099 49.23,34.86 C49.2824145,34.8740006 49.3375855,34.8740006 49.39,34.86 C49.5080418,34.7768103 49.5500645,34.6213265 49.49,34.49 C49.5789276,34.5915995 49.7051653,34.652915 49.84,34.66 C49.7303532,34.9087502 49.709179,35.1875434 49.78,35.45 C49.94,35.76 50.05,35.68 50.21,35.51 C50.37,35.34 50.56,35.51 50.39,35.74 C50.2701323,35.9400414 50.3271602,36.1988602 50.52,36.33 C50.6785388,36.4382419 50.8941202,36.4030449 51.01,36.25 C51.1430658,36.1573978 51.1784931,35.9758332 51.09,35.84 C51.0341479,35.6570784 51.1028598,35.4590263 51.26,35.35 C51.42,35.17 51.5,34.76 51.26,34.7 C51.0494623,34.6571569 50.8674084,34.5260781 50.76,34.34 C50.9975352,34.4551131 51.2834457,34.3568314 51.4,34.12 C51.61,33.88 51.3,33.61 50.95,33.49 C50.6,33.37 50.6,33.16 50.68,33.12 C50.76,33.08 50.68,32.92 50.35,32.85 C49.617265,32.7946593 48.8804339,32.8622585 48.17,33.05 L47.91,33.05 C47.5291762,33.0664749 47.1487827,33.0087366 46.79,32.88 L46.86,32.88 C47.17,32.88 47.5,32.7 47.72,32.72 C47.8697621,32.7499063 48.0210891,32.6762878 48.09,32.54 C48.2,32.42 48.26,32.34 48.42,32.4 C48.4795051,32.44261 48.556902,32.4511661 48.6242775,32.4225826 C48.6916529,32.3939991 48.7392868,32.3323995 48.75,32.26 L48.83,32.14 C48.9447132,32.2367747 49.0825104,32.3022283 49.23,32.33 C49.3672906,32.3591243 49.4824513,32.4519958 49.54,32.58 C49.6532381,32.6931708 49.8367619,32.6931708 49.95,32.58 L50.01,32.51 C51.01,32.39 50.58,31.84 49.94,31.85 C49.81,31.63 49.56,31.85 49.47,31.95 C49.4047422,32.0362768 49.2881813,32.065417 49.19,32.02 L49.03,31.94 L49.28,31.77 C49.45,31.67 49.47,31.5 49.28,31.42 C49.09,31.34 49.21,31.17 49.44,31.01 C49.67,30.85 49.67,30.6 49.38,30.36 C49.2257137,30.2439321 49.0250003,30.2092001 48.8406837,30.2666752 C48.656367,30.3241503 48.5109691,30.4668094 48.45,30.65 C48.32,30.97 48.23,30.99 48.05,30.91 C48.1227964,30.7332781 48.2097457,30.5627238 48.31,30.4 C48.47,30.13 48.23,29.97 47.9,29.99 C47.6789196,29.9734246 47.4682852,30.0865431 47.36,30.28 C47.2991342,30.4094599 47.1803404,30.5022676 47.04,30.53 C46.8267731,30.6005027 46.679441,30.7956182 46.67,31.02 C46.4829787,31.4296484 46.2061346,31.7919382 45.86,32.08 C45.748842,32.2132266 45.598289,32.3077599 45.43,32.35 L45.01,32.25 C45.0781651,32.1862633 45.1051561,32.0898667 45.08,32 C45.0212679,31.8030599 45.0794151,31.5898537 45.23,31.45 C45.3375005,31.2680236 45.3375005,31.0419764 45.23,30.86 C45.1741261,30.7493937 45.133747,30.6316212 45.11,30.51 C45.48,30.22 45.87,30.08 46.04,29.92 C46.2503082,29.7576855 46.5165596,29.6857257 46.78,29.72 C47.2725292,29.7194229 47.7607165,29.6278878 48.22,29.45 C48.6374664,29.4529758 49.0324725,29.6395065 49.3,29.96 C49.4080395,30.2316606 49.6677361,30.4126613 49.96,30.42 C50.1243203,30.2802984 50.3656797,30.2802984 50.53,30.42 C50.6745474,30.5855401 50.9116321,30.6345921 51.11,30.54 C51.2383309,30.4362842 51.4216691,30.4362842 51.55,30.54 C51.75,30.63 52.22,30.68 52,29.98 L52.21,29.85 C52.58,29.59 52.59,29.45 52.36,29.19 C52.2209056,28.978202 51.9699518,28.8684097 51.72,28.91 C51.5891253,28.9462112 51.4508747,28.9462112 51.32,28.91 C52.1,28.33 51.76,28.17 51.15,27.91 C50.54,27.65 50.3,27.91 50.28,28.08 C50.26,28.25 50.17,28.28 49.93,28.17 C49.7305877,28.0802808 49.4956983,28.1585773 49.39,28.35 C49.39,28.47 49.3,28.5 49.11,28.5 C48.841171,28.5759396 48.616361,28.760864 48.49,29.01 C48.4188766,29.0335549 48.351518,29.0672342 48.29,29.11 C47.23,29.64 46.39,29.23 46.04,29.43 C46.216897,29.1121224 46.3609731,28.7770617 46.47,28.43 C46.7107288,28.403847 46.9428214,28.3253451 47.15,28.2 C47.1931735,28.2231572 47.2250426,28.2629119 47.2382523,28.3100894 C47.2514619,28.3572668 47.2448708,28.4077904 47.22,28.45 C47.14,28.55 47.22,28.88 47.47,28.8 C47.82,29.07 48.38,29.08 47.94,28.41 C47.9547386,28.3462215 47.9427867,28.2791903 47.9069132,28.2244362 C47.8710398,28.169682 47.8143581,28.1319565 47.75,28.12 L47.65,28.12 C47.5335354,28.1483625 47.4105471,28.1185472 47.32,28.04 C47.5222032,27.9006003 47.6926054,27.7199739 47.82,27.51 C47.9024016,27.3413111 48.0306253,27.1992254 48.19,27.1 C48.5374941,26.7162696 48.7453697,26.2265287 48.78,25.71 L48.97,25.6 C49.4413819,25.228418 50.0780996,25.1440338 50.63,25.38 C51.0348884,25.7506545 51.5902328,25.9098532 52.13,25.81 C52.3905235,25.6150461 52.7181322,25.5322439 53.04,25.58 C53.2445488,25.6569733 53.4753879,25.5921763 53.61,25.42 C53.6455461,25.254683 53.774683,25.1255461 53.94,25.09 C54.2,25.02 54.2,24.41 53.23,24.47 L53,24.47 Z M23.9,32.62 C23.8096503,32.6472668 23.7224852,32.6841443 23.64,32.73 L23.89,32.6 L23.95,32.6 L23.9,32.62 Z M22.03,33.43 C22.0889761,33.3234393 22.1669221,33.2285485 22.26,33.15 L22.42,33.15 C22.2791767,33.2346526 22.1512096,33.3390467 22.04,33.46 L22.03,33.43 Z M28.68,32.43 C28.2137096,32.1767618 27.857535,31.7600376 27.68,31.26 C27.4526562,31.1588122 27.2610165,30.991563 27.13,30.78 C27.5654963,30.68552 28.0143078,30.868222 28.26,31.24 C28.3844413,31.6833215 28.5695238,32.1073287 28.81,32.5 L28.68,32.43 Z M43.92,29.77 L43.86,29.77 L43.92,29.77 Z M44.12,30.16 C44.1579489,30.2492514 44.2122098,30.3306428 44.28,30.4 C44.1984422,30.3446846 44.1439829,30.2575497 44.13,30.16 L44.12,30.16 Z M44.25,29.5 C44.25,29.5 44.25,29.5 44.25,29.5 C44.1546666,29.5976106 44.0948105,29.7243647 44.08,29.86 C44.1076387,29.7154548 44.173212,29.5808571 44.27,29.47 L44.25,29.5 Z M23.78,29.63 C23.6253603,29.63 23.5,29.7553603 23.5,29.91 C23.5,30.0646397 23.6253603,30.19 23.78,30.19 C23.9346397,30.19 24.06,30.0646397 24.06,29.91 C24.06,29.7553603 23.9346397,29.63 23.78,29.63 Z M26.4,28.86 C26.2453603,28.86 26.12,28.9853603 26.12,29.14 C26.12,29.2946397 26.2453603,29.42 26.4,29.42 C26.5546397,29.42 26.68,29.2946397 26.68,29.14 C26.68,28.9853603 26.5546397,28.86 26.4,28.86 Z" id="Shape" fill="#57A863"></path>
                <path d="M39.38,17.62 C39.2301551,17.5761537 39.0758498,17.549318 38.92,17.54 C39.21,17.66 39.3,17.36 39.19,17.2 C39.08,17.04 39.19,16.98 39.27,16.79 C39.3241074,16.6169986 39.4014826,16.4521559 39.5,16.3 L39.57,16.3 C39.71,16.36 39.88,16.12 39.7,15.96 C39.9786046,15.5441356 40.31536,15.1703371 40.7,14.85 C40.6137026,14.8386853 40.5262974,14.8386853 40.44,14.85 L40.54,14.68 C40.5921084,14.6961654 40.6478916,14.6961654 40.7,14.68 C40.8546562,14.6793487 40.9867145,14.5681835 41.0137318,14.415904 C41.0407491,14.2636246 40.9549929,14.1138149 40.81,14.06 C40.81,13.92 40.89,13.78 40.92,13.64 C41.1132997,13.64 41.27,13.4832997 41.27,13.29 C41.27,13.0967003 41.1132997,12.94 40.92,12.94 C40.8795102,12.7342367 40.7825606,12.5437999 40.64,12.39 C40.6891942,12.3007812 40.6879617,12.1922914 40.6367534,12.1042131 C40.5855452,12.0161349 40.4918731,11.961389 40.39,11.96 C40.3103876,11.9587773 40.2340197,11.9915064 40.18,12.05 C40.05129,11.9830184 39.917551,11.9261793 39.78,11.88 C39.8137298,11.8071418 39.8168482,11.7238036 39.7886575,11.6486284 C39.7604668,11.5734532 39.7033197,11.5127147 39.63,11.48 L39.52,11.48 C39.3636628,11.479907 39.2353909,11.6037557 39.23,11.76 L38.78,11.67 C38.8406424,11.5923612 38.8521959,11.4871167 38.8098408,11.398171 C38.7674858,11.3092254 38.6784979,11.2518577 38.58,11.25 C38.4955162,11.2497054 38.4165987,11.2921 38.3702018,11.362704 C38.3238048,11.433308 38.3162057,11.522569 38.35,11.6 L38.05,11.55 C38.068022,11.4260572 37.9835607,11.3104785 37.86,11.29 C37.7525454,11.2882115 37.659525,11.364319 37.64,11.47 L37.33,11.4 C37.297735,11.3303339 37.2267136,11.2869319 37.15,11.29 C37.1139846,11.2802262 37.0760154,11.2802262 37.04,11.29 L36.9,11.29 C36.9734918,11.27466 37.0401034,11.2360954 37.09,11.18 C37.25,10.96 37.09,10.84 36.82,10.95 C36.55,11.06 36.48,10.8 36.41,10.48 C36.406334,10.1788013 36.2204637,9.90988265 35.94,9.8 L35.84,9.7 C35.9881183,9.58309437 36.0791147,9.40838116 36.09,9.22 C36.1168217,8.94073782 35.9527755,8.67826395 35.69,8.58 L35.69,8.26 L36.17,8.26 L36.17,7.72 L35.69,7.72 L35.69,7.21 L35.21,7.21 L35.21,7.73 L34.73,7.73 L34.73,8.27 L35.21,8.27 L35.21,8.59 C34.9472245,8.68826395 34.7831783,8.95073782 34.81,9.23 C34.8208853,9.41838116 34.9118817,9.59309437 35.06,9.71 L34.96,9.81 C34.6795363,9.91988265 34.493666,10.1888013 34.49,10.49 C34.42,10.81 34.29,11.06 34.08,10.96 C33.87,10.86 33.65,10.96 33.81,11.19 C33.8583801,11.247925 33.9256766,11.2868862 34,11.3 L33.86,11.3 C33.8239846,11.2902262 33.7860154,11.2902262 33.75,11.3 C33.6732864,11.2969319 33.602265,11.3403339 33.57,11.41 L33.26,11.48 C33.240475,11.374319 33.1474546,11.2982115 33.04,11.3 C32.9168959,11.3053574 32.8198835,11.4067794 32.82,11.53 L32.52,11.58 C32.546179,11.5177639 32.5460717,11.447585 32.5197025,11.3854292 C32.4933334,11.3232734 32.4429447,11.2744261 32.38,11.25 L32.29,11.25 C32.1915021,11.2518577 32.1025142,11.3092254 32.0601592,11.398171 C32.0178041,11.4871167 32.0293576,11.5923612 32.09,11.67 L31.63,11.76 C31.6300962,11.6091828 31.510721,11.4853863 31.36,11.48 C31.2614749,11.4848648 31.1716377,11.5378541 31.1197154,11.6217286 C31.0677931,11.7056031 31.0604219,11.8096428 31.1,11.9 C30.9628298,11.9471767 30.8291638,12.0039848 30.7,12.07 C30.6467674,12.010402 30.5698693,11.9774457 30.49,11.98 C30.3887029,11.9834749 30.2960095,12.0378637 30.2435657,12.1245978 C30.1911218,12.211332 30.1860192,12.3186826 30.23,12.41 C30.0910707,12.5663055 29.9946522,12.7556989 29.95,12.96 C29.7567003,12.96 29.6,13.1167003 29.6,13.31 C29.6,13.5032997 29.7567003,13.66 29.95,13.66 C29.9757801,13.8026274 30.0125565,13.9430464 30.06,14.08 C29.9150071,14.1338149 29.8292509,14.2836246 29.8562682,14.435904 C29.8832855,14.5881835 30.0153438,14.6993487 30.17,14.7 C30.2223499,14.7144845 30.2776501,14.7144845 30.33,14.7 L30.43,14.87 C30.3437026,14.8586853 30.2562974,14.8586853 30.17,14.87 C30.5533354,15.1916908 30.8899133,15.5652923 31.17,15.98 C30.99,16.14 31.17,16.38 31.3,16.32 L31.37,16.32 C31.4685174,16.4721559 31.5458926,16.6369986 31.6,16.81 C31.6,17 31.66,17.12 31.68,17.22 C31.7,17.32 31.68,17.68 31.95,17.56 C31.7367182,17.5588763 31.5244359,17.5892023 31.32,17.65 C27.67,18.78 26.87,23.23 28.96,27.37 C29.2786519,30.6494417 32.0351135,33.1510493 35.33,33.1510493 C38.6248865,33.1510493 41.3813481,30.6494417 41.7,27.37 C43.83,23.2 43,18.74 39.38,17.62 Z M37.32,17.97 C36.85,18.22 36.23,18.59 35.81,18.84 C35.7512037,18.7928226 35.6830197,18.7587307 35.61,18.74 C35.61,18.45 35.55,18.49 35.37,18.49 C35.19,18.49 35.15,18.49 35.13,18.74 C35.0569803,18.7587307 34.9887963,18.7928226 34.93,18.84 C34.49,18.58 33.83,18.19 33.35,17.94 C34.0491948,18.0350071 34.7544306,18.0784577 35.46,18.07 C36.0814584,18.0745976 36.7026168,18.041202 37.32,17.97 Z M33.68,13.06 C33.3364815,13.4406191 33.3364815,14.0193809 33.68,14.4 C33.4679857,14.0686807 33.1563928,13.8131045 32.79,13.67 L34.35,11.84 L34.51,11.77 C34.5355397,12.2941013 34.7088863,12.8002734 35.01,13.23 C34.8621308,13.5424562 34.7869176,13.8843344 34.79,14.23 C34.6722691,13.6608217 34.2421984,13.207504 33.68,13.06 Z M32.56,14.77 C32.4422924,14.6271561 32.3041355,14.5024778 32.15,14.4 L32.34,14.18 C32.3690754,14.3935576 32.4441349,14.5982653 32.56,14.78 L32.56,14.77 Z M38.36,14.77 C38.3985458,14.7026033 38.4319732,14.6324057 38.46,14.56 C38.4642139,14.5167691 38.4642139,14.4732309 38.46,14.43 C38.4644257,14.3734197 38.4644257,14.3165803 38.46,14.26 C38.4557057,14.2335062 38.4557057,14.2064938 38.46,14.18 L38.65,14.4 C38.4951597,14.5055264 38.3569656,14.6336087 38.24,14.78 L38.36,14.77 Z M38.15,13.67 C37.7836072,13.8131045 37.4720143,14.0686807 37.26,14.4 C37.6035185,14.0193809 37.6035185,13.4406191 37.26,13.06 C36.7110117,13.2106922 36.2910872,13.6537319 36.17,14.21 C36.1730824,13.8643344 36.0978692,13.5224562 35.95,13.21 C36.2511137,12.7802734 36.4244603,12.2741013 36.45,11.75 L36.61,11.82 L38.15,13.67 Z" id="Shape" fill="#FFCE54"></path>
            </g>
        </g>
    </g>
</svg>