<?xml version="1.0" encoding="UTF-8"?>
<svg width="71px" height="48px" viewBox="0 0 71 48" version="1.1" xmlns="http://www.w3.org/2000/svg" xmlns:xlink="http://www.w3.org/1999/xlink">
    <!-- Generator: Sketch 48.1 (47250) - http://www.bohemiancoding.com/sketch -->
    <title>Sao_Tome_and_Principe@2x</title>
    <desc>Created with Sketch.</desc>
    <defs></defs>
    <g id="Flags" stroke="none" stroke-width="1" fill="none" fill-rule="evenodd" transform="translate(-493.000000, -498.000000)">
        <g transform="translate(70.000000, 70.000000)" fill-rule="nonzero" id="Sao_Tome_and_Principe">
            <g transform="translate(423.000000, 428.000000)">
                <g id="Equatorial_Guinea-10">
                    <path d="M0.39,7.62 L0.39,16.62 L70.39,16.62 L70.39,7.62 C70.39,3.95282926 67.4171707,0.98 63.75,0.98 L7,0.98 C3.34455042,0.996515754 0.38996269,3.96451311 0.39,7.62 Z" id="Shape" fill="#57A863"></path>
                    <polygon id="Shape" fill="#FFCE54" points="0.39 32.33 70.39 32.33 70.39 16.66 0.39 16.66"></polygon>
                    <path d="M0.39,41.34 C0.378928637,45.0032876 3.33673299,47.9834657 7,48 L63.72,48 C67.3871707,48 70.36,45.0271707 70.36,41.36 L70.36,32.36 L0.36,32.36 L0.39,41.34 Z" id="Shape" fill="#57A863"></path>
                    <path d="M2.51,2.61 C1.15534581,3.81308 0.380117561,5.53823582 0.38,7.35 L0.38,41.62 C0.380117561,43.4317642 1.15534581,45.15692 2.51,46.36 L28.38,24.48 L2.51,2.61 Z" id="Shape" fill="#ED5565"></path>
                </g>
                <path d="M37.51,29.33 C37,29.65 36.71,29.45 36.87,28.9 L37.48,26.9 C37.6286418,26.2790113 37.4252099,25.6264937 36.95,25.2 L35.35,23.85 C34.89,23.47 35.02,23.15 35.64,23.15 L37.94,23.15 C38.5838471,23.1342228 39.1588604,22.7430573 39.41,22.15 L40.2,19.92 C40.39,19.38 40.71,19.38 40.9,19.92 L41.7,22.17 C41.9663742,22.75037 42.5323583,23.1353932 43.17,23.17 L45.52,23.25 C46.13,23.25 46.25,23.59 45.77,23.95 L43.94,25.34 C43.4495963,25.74032 43.2222493,26.3799745 43.35,27 L43.87,28.83 C44.02,29.38 43.73,29.58 43.21,29.27 L41.34,28.14 C40.7523891,27.8271104 40.0476109,27.8271104 39.46,28.14 L37.51,29.33 Z" id="Shape" fill="#434A54"></path>
                <path d="M55.17,29.33 C54.66,29.65 54.37,29.45 54.53,28.9 L55.14,26.9 C55.2886418,26.2790113 55.0852099,25.6264937 54.61,25.2 L53.01,23.85 C52.55,23.47 52.68,23.15 53.3,23.15 L55.6,23.15 C56.2438471,23.1342228 56.8188604,22.7430573 57.07,22.15 L57.86,19.92 C58.05,19.38 58.37,19.38 58.56,19.92 L59.36,22.17 C59.6263742,22.75037 60.1923583,23.1353932 60.83,23.17 L63.18,23.25 C63.79,23.25 63.91,23.59 63.43,23.95 L61.6,25.34 C61.1059005,25.7380142 60.8745602,26.3780559 61,27 L61.52,28.83 C61.67,29.38 61.38,29.58 60.86,29.27 L59,28.13 C58.4123891,27.8171104 57.7076109,27.8171104 57.12,28.13 L55.17,29.33 Z" id="Shape_19_copy" fill="#434A54"></path>
            </g>
        </g>
    </g>
</svg>