<?xml version="1.0" encoding="UTF-8"?>
<svg width="71px" height="48px" viewBox="0 0 71 48" version="1.1" xmlns="http://www.w3.org/2000/svg" xmlns:xlink="http://www.w3.org/1999/xlink">
    <!-- Generator: Sketch 48.1 (47250) - http://www.bohemiancoding.com/sketch -->
    <title>saudi_arabia@2x</title>
    <desc>Created with Sketch.</desc>
    <defs></defs>
    <g id="Flags" stroke="none" stroke-width="1" fill="none" fill-rule="evenodd" transform="translate(-578.000000, -498.000000)">
        <g transform="translate(70.000000, 70.000000)" fill-rule="nonzero" id="saudi_arabia">
            <g transform="translate(508.000000, 428.000000)">
                <rect id="Rounded_Rectangle_7_copy-47" fill="#57A863" x="0.01" y="0.98" width="70" height="47" rx="6.36"></rect>
                <path d="M10,35 L61,35 C61,35 60.1,37 59,37 L12,37 C10.9,37 10,35 10,35 Z" id="Rounded_Rectangle_2" fill="#FFFFFF"></path>
                <rect id="Rectangle-path" fill="#FFFFFF" x="51.01" y="31.98" width="2" height="8"></rect>
                <path d="M9.38,13.3 C9.26,14.94 9.11,17.84 10.5,18.13 C12.17,18.29 11.25,15.27 11.85,14.72 C11.96,14.45 12.18,14.45 12.19,14.79 L12.19,17.35 C12.16498,17.9408696 12.5640047,18.4659021 13.14,18.6 C13.5015074,18.4708983 13.900163,18.6525081 14.04,19.01 C14.1066667,20.49 14.1766667,21.9666667 14.25,23.44 C14.36,25.66 15.25,23.74 15.32,20.95 C15.32,19.31 15,17.95 15.21,17.62 C15.21,17.31 15.61,17.29 15.89,17.44 C16.1938719,17.8475488 16.697203,18.0550288 17.2,17.98 C18.2,17.69 18.85,17.18 18.87,16.38 C18.8428042,15.5957178 18.6839224,14.8215916 18.4,14.09 C18.4,13.95 18.2,13.59 18.25,13.45 C18.44,13.74 18.72,13.72 18.78,13.45 C18.6673349,12.8917778 18.349847,12.3959259 17.89,12.06 C17.711888,11.8754839 17.440829,11.8151086 17.2012424,11.9065872 C16.9616557,11.9980657 16.7998123,12.223731 16.79,12.48 C16.76264,13.3777411 17.0610024,14.2550687 17.63,14.95 C17.8054243,15.3348688 17.8777906,15.7587287 17.84,16.18 C17.5546014,16.3399479 17.1947996,16.2628475 17,16 C16.6933249,15.7852 16.4174397,15.5295014 16.18,15.24 C16.3862668,14.5849717 16.361558,13.8790044 16.11,13.24 C16.0141674,12.8437306 15.8295159,12.4744277 15.57,12.16 C15.5017108,12.0551947 15.3850902,11.9919901 15.26,11.9919901 C15.1349098,11.9919901 15.0182892,12.0551947 14.95,12.16 C14.658345,13.0134629 14.6831887,13.9433282 15.02,14.78 C15.1996084,15.0579328 15.3156997,15.3720621 15.36,15.7 C15.25,16.02 15.01,15.94 14.84,15.58 C14.6387607,14.7961307 14.5412616,13.9892416 14.55,13.18 C14.48,12.55 14.4,11.18 13.98,10.86 C13.8852561,10.7262124 13.721328,10.6597787 13.560174,10.6898608 C13.39902,10.7199428 13.2700981,10.8410419 13.23,11 C13.1811324,11.6090213 13.1811324,12.2209787 13.23,12.83 C13.4723761,13.7994405 13.6428395,14.7854544 13.74,15.78 C13.74,17.17 12.94,16.38 12.98,15.69 C13.1680969,14.813309 13.1680969,13.906691 12.98,13.03 C12.9438063,12.7678373 12.7022483,12.5844322 12.44,12.62 L12.36,12.62 C11.6647927,13.0470398 11.240833,13.8041106 11.24,14.62 C11.1417862,15.0155677 11.0650077,15.4161511 11.01,15.82 C10.92,16.46 10.5,16.91 10.21,15.73 C10,14.91 9.81,12.81 9.38,13.3 Z M13.92,20.04 C12.45,20.77 11.02,21.45 9.57,22.15 C9.62,21.15 11.64,19.35 13.02,19.33 C13.92,19.33 13.69,19.68 13.93,20.04 L13.92,20.04 Z M9.72,24.27 C8.9,25.59 8.83,27.55 9.28,28.14 C9.51461623,28.3986149 9.86713807,28.5161222 10.21,28.45 C10.705874,28.052543 10.9439143,27.4152093 10.83,26.79 C10.66,26.52 10.52,26.48 10.35,26.71 C9.99,27.45 9.84,26.94 9.81,26.53 C9.76757595,25.8350933 9.80110774,25.1376319 9.91,24.45 C10,23.86 9.91,24.04 9.72,24.28 L9.72,24.27 Z M44.72,22.16 C43.93,20.44 42.83,18.74 42.48,18.09 C42.13,17.44 39.48,13.58 39.12,13.14 C38.26,12.14 40.51,13.57 38.83,11.53 L37.63,10.53 C37.36,10.34 36.71,9.99 36.63,10.53 C36.5730177,10.9334856 36.5933803,11.344131 36.69,11.74 C36.8637952,12.1039822 37.0894792,12.440824 37.36,12.74 C40.1554127,16.4732238 42.605504,20.4529486 44.68,24.63 C45.04,24.46 44.96,22.41 44.75,22.12 L44.72,22.16 Z M41.25,27.92 C41.2678479,28.1873341 41.3922273,28.4363247 41.5952557,28.6111547 C41.7982841,28.7859847 42.062978,28.8720295 42.33,28.85 C43.5,28.71 44.54,28.05 45.49,26.3 C45.8869736,25.7007489 46.1339244,25.0147743 46.21,24.3 C46.3291104,20.96778 46.067416,17.6328547 45.43,14.36 C45.3791651,14.1328089 45.3791651,13.8971911 45.43,13.67 C45.6043036,13.6364073 45.766524,13.5570229 45.9,13.44 C46.1,13.23 45.37,11.52 44.9,10.86 C44.75,10.56 44.7,10.37 44.45,10.86 C44.152974,11.437049 44.0116526,12.0816125 44.04,12.73 C44.6,16.64 44.77,20.07 45.14,23.98 C45.201357,24.3852314 45.1007761,24.7983314 44.86,25.13 C43.8358933,26.2870859 42.578288,27.2141012 41.17,27.85 L41.25,27.92 Z M57.09,27.92 C56.25,28.41 56.25,28.98 56.93,29 C58.1,28.86 59.49,28.76 60.44,27.31 C60.7771569,26.6258756 60.9743437,25.8813255 61.02,25.12 C61.1759553,21.8359322 60.9578872,18.5447816 60.37,15.31 C60.3042886,14.980505 60.267482,14.6459002 60.26,14.31 C60.34,14.11 60.72,14.31 60.86,14.11 C61,13.91 59.86,12.36 59.45,11.7 C59.3,11.4 59.25,11.21 59,11.7 C58.7211237,12.281346 58.6369664,12.937072 58.76,13.57 C59.3852918,17.2785984 59.7793855,21.0224882 59.94,24.78 C59.9010335,25.1208964 59.8238827,25.4563344 59.71,25.78 C59.3741747,26.2743467 58.9851862,26.7304023 58.55,27.14 C58.17,27.42 57.36,27.7 57.09,27.91 L57.09,27.92 Z M57.72,24.11 C57.72,23.11 57.72,22.26 57.72,21.52 C57.7125065,20.8752042 57.5729701,20.2387823 57.31,19.65 C57.17877,19.1197152 57.1083167,18.576218 57.1,18.03 C56.99,17.43 57.02,16.53 56.85,15.82 C56.7662961,15.4047014 56.7161344,14.9833426 56.7,14.56 C56.77,14.36 57.04,14.56 57.17,14.34 C57.3,14.12 56.49,11.87 56.05,11.22 C55.9,10.93 55.61,11.03 55.26,11.5 C54.984639,12.0237603 54.9553462,12.6425703 55.18,13.19 C56.0961288,17.3536291 56.5422521,21.6068956 56.51,25.87 C56.51,26.23 57.75,24.8 57.74,24.12 L57.72,24.11 Z M51.5,18.61 C50.6620777,18.3140095 49.9543935,17.7337085 49.5,16.97 C49.401872,16.6794538 49.4271734,16.3613794 49.57,16.09 C49.7674791,15.9168255 50.0444293,15.8668206 50.29,15.96 C50.3769256,16.069718 50.4414783,16.1954259 50.48,16.33 C50.77,16.47 50.89,16.39 50.92,16.27 C50.95,16.15 50.83,15.94 50.83,15.71 C50.8519863,15.4599166 51.0249435,15.2488419 51.2658255,15.1781242 C51.5067074,15.1074066 51.7663164,15.1914894 51.92,15.39 C52.1072493,15.7265993 52.2069659,16.1048348 52.21,16.49 C52.21,16.67 51.93,16.49 51.77,16.49 C51.6223548,16.5664016 51.5354582,16.7243955 51.55,16.89 C51.55,17.34 51.47,18.06 51.46,18.61 L51.5,18.61 Z M41.73,25.22 C41.7942441,23.703392 41.7742133,22.1843865 41.67,20.67 C41.61,18.79 41.31,15.15 41.16,14.54 C41,13.4 41.63,14.67 41.54,14 C41.2600806,12.8903688 40.7221587,11.8624926 39.97,11 C39.74,10.66 39.74,10.59 39.38,11.08 C39.1169216,11.8240981 39.1169216,12.6359019 39.38,13.38 C39.8884888,15.5802813 40.2228565,17.8172007 40.38,20.07 C40.540514,22.313218 40.5605531,24.56428 40.44,26.81 C41.1391242,26.5550203 41.6293719,25.920811 41.7,25.18 L41.73,25.22 Z M59.49,23 C58.56,21.42 57.15,19.7 56.77,19.07 C56.39,18.44 53.22,14.28 52.77,13.87 C51.61,12.63 53.3,13.67 52.55,12.71 C52.1402793,12.2083287 51.6775989,11.7523538 51.17,11.35 C50.9,11.17 50.73,10.83 50.64,11.41 C50.6109344,11.9229219 50.6109344,12.4370781 50.64,12.95 C50.7030684,13.3178794 50.8616986,13.6627278 51.1,13.95 C54.236364,17.5497606 57.0410972,21.4255136 59.48,25.53 C59.83,25.34 59.72,23.32 59.48,23.04 L59.49,23 Z M24.49,18.45 L24.39,19.09 C24.35968,19.1917205 24.2661431,19.2614435 24.16,19.2614435 C24.0538569,19.2614435 23.96032,19.1917205 23.93,19.09 C23.75,18.27 23.02,18.17 22.57,19.43 C22.27,19.67 21.73,19.72 21.67,19.36 C21.74,18.51 21.4,18.36 20.72,18.8 C20.5,17.12 20.28,15.51 20.06,13.8 C20.3272318,13.9195678 20.6396101,13.8727111 20.86,13.68 C20.58,12.79 19.98,10.97 19.65,10.84 C19.49,10.64 19.35,10.77 19.14,10.84 C18.7115657,10.9661393 18.4567469,11.405482 18.56,11.84 C18.98,14.42 19.26,16.39 19.67,18.97 C19.7318934,19.2651739 19.5445349,19.5551336 19.25,19.62 L19.16,19.62 C18.61,19.25 18.47,18.49 17.54,18.52 C16.7621512,18.6315278 16.1423355,19.2271949 16,20 C15.8666619,20.5554432 15.8666619,21.1345568 16,21.69 C16.3759303,22.1447436 17.0036215,22.3026788 17.55,22.08 C17.8196775,21.8662591 18.124118,21.7005082 18.45,21.59 C18.55,21.71 18.45,23.08 16.51,24.14 C15.32,24.68 14.38,24.8 13.87,23.82 C13.55,23.21 13.87,20.88 13.12,21.42 C10.83,27.42 18.49,28.23 19.35,21.66 C19.43,21.39 19.75,21.12 19.81,21.56 C19.63,27.5 13.88,27.91 12.9,26.04 C12.669643,25.3985916 12.554537,24.7214978 12.56,24.04 C12.41,22.87 11.81,23.32 11.71,24.48 C11.6386131,24.9598135 11.6151642,25.4455413 11.64,25.93 C11.95,30.62 19.36,28.61 20.56,24.73 C21.2,22.58 20.46,21 20.8,21.01 C21.3699281,21.5094402 22.2359674,21.4558708 22.74,20.89 L22.74,20.84 C22.7888119,20.766754 22.8648628,20.7160436 22.9512453,20.6991427 C23.0376278,20.6822417 23.1271826,20.700551 23.2,20.75 L23.25,20.75 C23.544777,20.9606033 23.9194373,21.0254556 24.2678521,20.9261866 C24.6162668,20.8269176 24.9004861,20.5743398 25.04,20.24 C25.1705486,19.5029794 25.2507342,18.757921 25.28,18.01 C24.9792449,18.0653775 24.7109792,18.2334907 24.53,18.48 L24.49,18.45 Z M17.7,20.64 C17.5746966,20.7082994 17.4280452,20.7261837 17.29,20.69 C17.1459173,20.7013404 17.0073773,20.6320703 16.93,20.51 C16.9269437,20.3497111 16.9881617,20.1948655 17.1,20.08 C17.1904867,19.9712178 17.3317122,19.9183357 17.4713935,19.9409312 C17.6110747,19.9635267 17.728425,20.0582372 17.78,20.19 C17.8350114,20.343574 17.8045718,20.5147963 17.7,20.64 Z M26.08,11.92 C25.23,14.37 26.57,17.06 27.49,16.8 C28.16,17.08 28.58,15.8 28.86,14.39 C29.05,14 29.19,13.95 29.28,14.16 C29.28,16.03 29.41,16.45 29.89,17.02 C30.4627801,17.5203639 31.3172199,17.5203639 31.89,17.02 L32.72,16.18 C32.9131491,15.9958729 33.2168509,15.9958729 33.41,16.18 C33.5839594,16.5416583 33.8451306,16.8543764 34.17,17.09 C34.7425818,17.2845065 35.3756915,17.1502105 35.82,16.74 C36.13,16.21 36.2,16.03 36.34,15.83 C36.4476219,15.6569001 36.6726473,15.5995407 36.85,15.7 L36.93,15.76 C36.7956732,15.9369128 36.7547315,16.1676752 36.82,16.38 C36.9533673,16.5008343 37.1566327,16.5008343 37.29,16.38 C37.7548465,16.0019725 38.1018335,15.4988413 38.29,14.93 C38.29,14.49 38.07,14.53 37.91,14.62 C37.75,14.71 37.69,14.79 37.48,14.92 C37.1404512,15.0634858 36.7482028,14.9928811 36.48,14.74 C36.3017115,14.2082599 36.1515041,13.6675135 36.03,13.12 C36.03,13.12 35.68,12.36 36.03,12.32 C36.19,12.32 36.54,12.44 36.59,12.15 C36.5556186,11.5750246 36.2971103,11.0364655 35.87,10.65 C35.5905631,10.316887 35.0944747,10.2721943 34.76,10.55 L34.69,10.62 C34.4852741,10.8632087 34.375198,11.1721319 34.38,11.49 C34.2846748,11.9054742 34.3881734,12.3416466 34.66,12.67 C35.1508762,13.3692709 35.3808979,14.2185819 35.31,15.07 C35.117884,15.3545859 34.7931954,15.5207057 34.45,15.51 C34.23,15.51 33.86,15.36 33.66,13.89 C33.51,12.78 33.66,11.22 33.23,10.49 C33.06,10.05 32.93,9.62 32.52,10.38 C32.1645103,10.860992 32.0743489,11.488365 32.28,12.05 C33.0429787,13.0552705 32.9446802,14.4699142 32.05,15.36 C31.7926393,15.6374723 31.3774442,15.6997515 31.05,15.51 C30.7063981,15.3369542 30.4732527,15.0022778 30.43,14.62 C30.5056974,13.6593076 30.4721495,12.6931283 30.33,11.74 C30.2697819,11.5705427 30.1247657,11.4453269 29.9483408,11.4104522 C29.7719159,11.3755776 29.5901644,11.4361997 29.47,11.57 C28.6592501,12.4842029 28.1190763,13.6061024 27.91,14.81 C27.67,15.6 27.41,15.37 27.23,15.05 C26.79,14.63 26.76,11.38 26.23,11.91 L26.08,11.92 Z M15.61,11.92 C16.18,12.2 17.26,12.08 17.21,11.15 C17.21,11.07 17.21,10.79 17.21,10.71 C17.09,10.44 16.77,10.5 16.7,10.79 C16.7327714,10.8838892 16.7327714,10.9861108 16.7,11.08 C16.7,11.08 16.47,11.08 16.48,10.84 C16.4678531,10.7587707 16.4332131,10.6825628 16.38,10.62 C16.3411775,10.6062742 16.2988225,10.6062742 16.26,10.62 C16.203868,10.6182239 16.1540119,10.655616 16.14,10.71 C16.1312156,10.7797244 16.1312156,10.8502756 16.14,10.92 C16.1410926,10.9749104 16.1099778,11.0253879 16.0604315,11.049084 C16.0108851,11.0727801 15.9520598,11.0653174 15.91,11.03 C15.8668466,11.0038541 15.8375373,10.95989 15.83,10.91 C15.8419872,10.8338019 15.8419872,10.7561981 15.83,10.68 C15.79345,10.6386026 15.7442216,10.6104721 15.69,10.6 C15.5852009,10.6171613 15.4915274,10.6752918 15.4296256,10.7615792 C15.3677238,10.8478666 15.3426749,10.9552279 15.36,11.06 C15.311122,11.3954336 15.4638435,11.7282881 15.75,11.91 L15.61,11.92 Z M32.41,19.1 C32.98,19.38 34.34,19.22 34.01,18.33 C34.01,18.25 34.01,17.97 34.01,17.89 C33.9,17.62 33.58,17.68 33.5,17.97 C33.5372762,18.0630731 33.5372762,18.1669269 33.5,18.26 C33.5,18.26 33.27,18.26 33.28,18.02 C33.2689395,17.9384535 33.2341665,17.8619529 33.18,17.8 C33.1413299,17.785413 33.0986701,17.785413 33.06,17.8 C32.98,17.8 32.98,17.8 32.94,17.89 C32.9301515,17.9596536 32.9301515,18.0303464 32.94,18.1 C32.9457355,18.1334402 32.937047,18.1677455 32.9160852,18.1944241 C32.8951235,18.2211027 32.8638478,18.2376609 32.83,18.24 C32.7923926,18.2595658 32.7476074,18.2595658 32.71,18.24 C32.6685984,18.2120688 32.639859,18.1689596 32.63,18.12 C32.6465166,18.0442229 32.6465166,17.9657771 32.63,17.89 C32.5945161,17.8473129 32.5447915,17.8188988 32.49,17.81 C32.3878358,17.8271276 32.2966831,17.8841968 32.2366503,17.968618 C32.1766174,18.0530391 32.1526373,18.1578755 32.17,18.26 C32.1136882,18.5940362 32.2635296,18.9292076 32.55,19.11 L32.41,19.1 Z M42.2,16.1 C42.77,16.38 43.85,16.26 43.8,15.33 C43.8,15.25 43.8,14.97 43.8,14.89 C43.69,14.62 43.37,14.68 43.3,14.97 C43.3327714,15.0638892 43.3327714,15.1661108 43.3,15.26 C43.3,15.26 43.07,15.26 43.08,15.02 C43.0695265,14.9382854 43.0346791,14.8616212 42.98,14.8 C42.9417424,14.783303 42.8982576,14.783303 42.86,14.8 C42.803868,14.7982239 42.7540119,14.835616 42.74,14.89 C42.7302824,14.9596627 42.7302824,15.0303373 42.74,15.1 C42.7457355,15.1334402 42.737047,15.1677455 42.7160852,15.1944241 C42.6951235,15.2211027 42.6638478,15.2376609 42.63,15.24 C42.5923926,15.2595658 42.5476074,15.2595658 42.51,15.24 C42.4685984,15.2120688 42.439859,15.1689596 42.43,15.12 C42.4413655,15.0437546 42.4413655,14.9662454 42.43,14.89 C42.3915085,14.8510567 42.3430929,14.8233907 42.29,14.81 C42.0777015,14.8409339 41.930253,15.0375319 41.96,15.25 L41.96,15.31 C41.911122,15.6454336 42.0638435,15.9782881 42.35,16.16 L42.2,16.1 Z M47.27,23.56 C46.5751857,24.5659369 46.4503419,25.8597719 46.94,26.98 C47.1652356,27.586238 47.6020957,28.0905806 48.17,28.4 C48.3380017,28.556006 48.5613406,28.6384729 48.7904133,28.6290846 C49.019486,28.6196964 49.2353277,28.5192304 49.39,28.35 L49.46,28.26 C50.05,27.65 50.06,26.08 50.33,25.77 C50.3692125,25.570266 50.5213561,25.4117746 50.7193214,25.3644351 C50.9172867,25.3170955 51.1246715,25.3896128 51.25,25.55 C51.4629084,25.8574561 51.747876,26.1080903 52.08,26.28 C52.5754324,26.7841281 53.368934,26.8398877 53.93,26.41 C54.4039219,26.1471169 54.7610824,25.7149527 54.93,25.2 C55.22,24.43 55.06,20.85 55,18.73 C55,18.56 54.43,15.82 54.43,15.79 C54.43,15.76 54.36,14.39 54.3,14.06 C54.3,13.93 54.3,13.89 54.39,13.91 C54.4653437,13.9823385 54.5535179,14.0399908 54.65,14.08 C54.8,14.08 54.93,13.85 54.84,13.62 L53.48,11.07 C53.37,10.96 53.22,10.84 53.05,11.07 C52.83158,11.2618663 52.7074704,11.5392878 52.71,11.83 C52.71,12.43 52.86,13.05 52.9,13.65 L53.44,16.75 C53.62,18.96 53.66,20.75 53.83,22.98 C53.8920816,23.655561 53.6834739,24.3281407 53.25,24.85 C53.0412453,24.9898059 52.7687547,24.9898059 52.56,24.85 C52.1820235,24.4348498 51.8469867,23.9825501 51.56,23.5 C51.4488353,23.3324129 51.2611045,23.2316625 51.06,23.2316625 C50.8588955,23.2316625 50.6711647,23.3324129 50.56,23.5 C49.76,24.29 49.39,25.75 48.85,26.77 C48.7388353,26.9375871 48.5511045,27.0383375 48.35,27.0383375 C48.1488955,27.0383375 47.9611647,26.9375871 47.85,26.77 C47.2740116,25.8166756 47.0609905,24.6876636 47.25,23.59 L47.27,23.56 Z M42.46,10.68 C43.0119792,11.0952321 43.2983789,11.7749541 43.21,12.46 C43.11,13.1 42.84,13.78 42.64,13.69 C42.44,13.6 42.79,13.06 42.58,12.48 C42.3036324,12.0746852 42.056346,11.6502881 41.84,11.21 C41.8037325,11.0454578 41.8603264,10.874254 41.9875161,10.7637449 C42.1147058,10.6532359 42.2921357,10.6211075 42.45,10.68 L42.46,10.68 Z M49,24.27 C49.0474669,23.3455169 49.0140061,22.4186538 48.9,21.5 C48.9,20.76 48.07,15.1 47.9,14.5 C47.7,13.44 48.67,14.36 48.56,13.74 C48.23,12.96 47.39,11.83 47.13,11.16 C46.97,10.87 47.04,10.61 46.69,11.08 C46.3788699,11.9229928 46.2692828,12.8270863 46.37,13.72 C47.21,18.16 48.07,21.85 47.94,26.07 C48.33,26.07 48.79,25.15 48.94,24.23 L49,24.27 Z M57.77,12.55 C58.2447362,13.0776335 58.492617,13.7709812 58.46,14.48 C58.37,15.17 58.12,15.91 57.94,15.81 C57.8686656,15.3771375 57.851868,14.9370406 57.89,14.5 C57.6366426,14.0570746 57.4095831,13.5996164 57.21,13.13 C57.1526063,12.9689735 57.1914094,12.7893324 57.3101496,12.6663514 C57.4288899,12.5433704 57.6070594,12.4982899 57.77,12.55 Z M23,21.88 C23.4338846,22.2209793 23.6790673,22.7484937 23.66,23.3 C23.677486,23.6973715 23.4883888,24.0755659 23.16,24.3 C23.0874333,23.971821 23.0705313,23.6337807 23.11,23.3 C22.9445253,22.9360563 22.7254237,22.5989768 22.46,22.3 C22.34,21.89 22.72,21.82 22.99,21.88 L23,21.88 Z M11,10.45 C11.5091072,10.7502444 11.7704866,11.3413638 11.65,11.92 C11.6588729,12.3131541 11.4761306,12.6860976 11.16,12.92 C11.070674,12.594661 11.0368664,12.256585 11.06,11.92 C10.8353057,11.6040175 10.637926,11.2694757 10.47,10.92 C10.35,10.54 10.73,10.39 11,10.45 Z M24,15.07 C23.4781768,15.4145992 23.308461,16.1021658 23.61,16.65 C23.8007249,16.9015766 24.1271184,17.0090476 24.43,16.92 C24.93,16.98 25.22,15.98 25.22,15.98 C25.22,15.98 25.22,15.7 24.65,16.23 C24.5917134,16.2569839 24.5250429,16.2594786 24.4649027,16.236926 C24.4047626,16.2143734 24.3561717,16.1686557 24.33,16.11 C24.3274902,16.0900787 24.3274902,16.0699213 24.33,16.05 C24.2723204,15.7881491 24.3003674,15.5146907 24.41,15.27 C24.49,15.02 24.31,14.91 24.02,15.08 L24,15.07 Z M27.8,10.07 C27.3657132,10.3760374 27.0821031,10.852357 27.02,11.38 C27.02,11.73 26.94,11.72 27.17,11.94 C27.4,12.16 27.49,12.15 27.82,11.94 C27.9822702,11.8358987 28.0944216,11.6694805 28.13,11.48 C28.21,11.09 27.72,11.67 27.66,11.23 C27.6385365,10.8317916 27.8285552,10.4517542 28.16,10.23 C28.16,9.96 28.16,9.77 27.8,9.99 L27.8,10.07 Z M30.86,10.62 C30.7399592,11.1188 30.6663121,11.627634 30.64,12.14 C30.55,12.52 31.04,12.68 31.25,12.19 C31.4637981,11.6612487 31.5855547,11.0998157 31.61,10.53 C31.5,9.95 31.12,9.97 30.86,10.61 L30.86,10.62 Z M50.16,20.54 C50.23,20.47 52.88,18.54 52.88,18.54 C53.15,18.44 53.09,19.54 52.97,19.54 C52.1490369,20.3558828 51.199759,21.0315254 50.16,21.54 C49.9366604,21.2440771 49.9366604,20.8359229 50.16,20.54 Z M52.58,20.54 C53.05,20.77 53.24,22.16 53.18,22.54 C53.2731283,23.0428014 53.0138815,23.5448348 52.55,23.76 C52.4699322,23.3653365 52.4463632,22.9612963 52.48,22.56 C52.2854902,22.1140736 52.1412673,21.6478647 52.05,21.17 C51.9775571,21.0108341 52.003887,20.8241124 52.1175184,20.6911851 C52.2311498,20.5582578 52.411502,20.5032003 52.58,20.55 L52.58,20.54 Z M36.79,26.54 C37.0143903,26.2820755 37.2735355,26.0565855 37.56,25.87 C37.7337183,25.8050339 37.9290115,25.8394974 38.07,25.96 C38.0166225,26.2473437 37.9832092,26.5380392 37.97,26.83 C37.9725172,26.9034608 38.0048757,26.9727201 38.0596045,27.0217873 C38.1143333,27.0708545 38.1867012,27.0954879 38.26,27.09 L38.33,27.09 C38.6828989,26.8232993 39.1181645,26.688827 39.56,26.71 C39.88,26.71 39.89,27.28 39.69,27.29 C39.1115116,27.4338695 38.5487478,27.6348566 38.01,27.89 C37.8541461,27.9932623 37.6463341,27.967816 37.52,27.83 C37.4326963,27.6747662 37.4326963,27.4852338 37.52,27.33 C37.52,27.05 37.43,26.89 37.2,26.93 C36.97,26.97 36.87,27.09 36.78,26.93 C36.7070608,26.8219595 36.7336987,26.6754513 36.84,26.6 L36.79,26.54 Z M55.37,27.28 C55.5022241,27.4126825 55.5022241,27.6273175 55.37,27.76 C55.19,27.93 55.06,28.03 54.87,28.2 C54.68,28.37 54.73,28.58 55,28.65 C55.5951032,28.5987032 56.1636051,28.3803153 56.64,28.02 C56.7592152,27.9200494 56.8031744,27.7562015 56.75,27.61 C56.5885874,27.5317418 56.4063612,27.5072114 56.23,27.54 C56.15,27.54 55.9,27.54 56.02,27.27 C56.1086034,27.1436902 56.1792756,27.0057112 56.23,26.86 C56.3,26.69 56.23,26.57 55.96,26.48 C55.7215844,26.4409998 55.4784156,26.4409998 55.24,26.48 C55.0846782,26.5052193 54.9728899,26.6428048 54.98,26.8 C55.0072607,27.0123516 55.1692299,27.1824192 55.38,27.22 L55.37,27.28 Z M40.15,22.13 L39.9,21.98 L34.9,21.98 C34.65,21.88 34.72,21.8 34.9,21.72 C36.09,21.56 38.21,21.21 38.35,19.16 C38.4619603,18.4970575 38.1654537,17.8316224 37.5976623,17.4715657 C37.0298709,17.1115091 36.3015314,17.1270529 35.7496182,17.5110057 C35.1977051,17.8949585 34.9298582,18.5724377 35.07,19.23 C35.07,19.51 35.16,20.05 34.88,20.11 C33.05,20.28 31.06,21.43 30.99,22.26 C30.88,22.34 30.63,22.11 30.66,21.76 C30.579347,20.2496471 30.1516053,18.7782156 29.41,17.46 C28.83,16.88 29.01,17.07 28.63,17.35 C28.3797796,17.6420812 28.2766631,18.0324508 28.35,18.41 C28.35,18.41 28.82,19.75 29.21,20.67 C29.5343412,21.6346589 29.6468982,22.6579048 29.54,23.67 C28.884912,25.016896 27.8395642,26.1354182 26.54,26.88 C26.1369497,27.0653266 25.6730503,27.0653266 25.27,26.88 C25.0304631,26.7142949 24.9032072,26.4289332 24.94,26.14 C26.2644155,25.4253201 27.3311907,24.3130758 27.99,22.96 C28.2917972,22.2277722 28.3201918,21.4114275 28.07,20.66 C27.9969763,20.2657246 27.8171057,19.8990654 27.55,19.6 C27.71,19.49 28.18,19.85 28.25,19.6 C28.1157006,18.9847553 27.8107063,18.4198226 27.37,17.97 C27.1163184,17.6760028 26.6768755,17.6320585 26.37,17.87 C25.9772941,18.3098096 25.8722573,18.93614 26.1,19.48 C26.3,19.97 26.83,20.06 27.21,21.04 C27.2813208,21.3725865 27.2605764,21.7183273 27.15,22.04 C26.4848084,22.8603287 25.714911,23.5898821 24.86,24.21 C24.8,24.28 24.86,24.21 24.86,23.91 C24.86,23.61 24.99,22.81 24.95,22.81 C24.29,23.24 24.07,24.56 23.95,24.95 C22.28,26.11 20.39,26.95 19.3,28.16 C18.73,29.06 23.21,27.16 23.73,26.9 C23.8391716,27.1957921 23.9764671,27.4804292 24.14,27.75 C24.7218329,28.4652833 25.6682044,28.7742228 26.56,28.54 C27.9976888,27.9374017 29.2182899,26.9120968 30.06,25.6 C30.1346442,25.4040198 30.3539424,25.3055594 30.55,25.38 L30.6,25.38 C31.25,26.85 33.13,27.9 35.6,28.01 C36.16,27.32 35.89,27.01 35.66,26.84 C35.1312665,26.6418824 34.657951,26.3194791 34.28,25.9 C34.2301366,25.42481 34.5233965,24.9807307 34.98,24.84 C36.5282443,24.6954065 38.0587717,24.4006879 39.55,23.96 C39.6112952,23.4042406 39.7848006,22.8667144 40.06,22.38 C40.1766749,22.2931279 40.2667325,22.1753602 40.32,22.04 L40.15,22.13 Z M36.06,19 C36.2193654,18.8674236 36.4506346,18.8674236 36.61,19 C36.805193,19.068941 36.9259314,19.2646205 36.9,19.47 C36.7406346,19.6025764 36.5093654,19.6025764 36.35,19.47 C36.1561881,19.4005632 36.0387857,19.2034949 36.07,19 L36.06,19 Z M34.06,24.08 C33.4925299,24.1411495 33.0618109,24.6192476 33.06,25.19 C33.26,26.28 32.79,25.9 32.51,25.76 C31.7601888,25.324214 31.2515897,24.5686863 31.13,23.71 C31.1127999,23.426295 31.3265765,23.1813426 31.61,23.16 L31.7,23.16 C32.387104,23.2869731 33.0820348,23.3671574 33.78,23.4 C34.36,23.4 34.65,23.89 34.11,24.08 L34.06,24.08 Z M25.17,12.08 C25.558851,11.7897465 25.639374,11.2395059 25.35,10.85 L25.26,10.75 C24.8889354,10.5628204 24.4510646,10.5628204 24.08,10.75 C23.6962519,11.0829346 23.6231309,11.6506981 23.91,12.07 C24.2,12.21 24.49,12.51 24.3,12.67 C23.41,13.67 20.96,15.29 21.25,15.35 C21.7836961,15.4298544 22.3263039,15.4298544 22.86,15.35 C23.8133648,14.5284051 24.6964349,13.6286102 25.5,12.66 L25.17,12.39 C25.0822698,12.3343201 25.0555405,12.2184929 25.11,12.13 L25.17,12.07 L25.17,12.08 Z M24.78,12.08 C24.5995692,12.084889 24.4371646,11.9712057 24.38,11.8 C24.2949666,11.6831591 24.3170043,11.5200803 24.43,11.43 C24.6104308,11.425111 24.7728354,11.5387943 24.83,11.71 C24.9128135,11.829387 24.8862977,11.9929013 24.77,12.08 L24.78,12.08 Z" id="Shape" fill="#FFFFFF"></path>
            </g>
        </g>
    </g>
</svg>