<?xml version="1.0" encoding="UTF-8"?>
<svg width="71px" height="48px" viewBox="0 0 71 48" version="1.1" xmlns="http://www.w3.org/2000/svg" xmlns:xlink="http://www.w3.org/1999/xlink">
    <!-- Generator: Sketch 48.1 (47250) - http://www.bohemiancoding.com/sketch -->
    <title>scotland@2x</title>
    <desc>Created with Sketch.</desc>
    <defs></defs>
    <g id="Flags" stroke="none" stroke-width="1" fill="none" fill-rule="evenodd" transform="translate(-662.000000, -1295.000000)">
        <g transform="translate(70.000000, 70.000000)" fill-rule="nonzero" id="scotland">
            <g transform="translate(592.000000, 1225.000000)">
                <path d="M65.41,47.43 C68.4591356,46.7624835 70.6316989,44.0613464 70.63,40.94 L70.63,39.6 L44.8,24.1 C44.88,23.95 45.09,23.91 45.22,23.81 L70.63,8.56 L70.63,7.22 C70.6316989,4.09865362 68.4591356,1.39751648 65.41,0.73 L35.63,18.59 L5.85,0.73 C2.79688959,1.39345701 0.619325674,4.09563479 0.62,7.22 L0.62,8.56 L26.48,24.08 L0.62,39.6 L0.62,40.94 C0.619325674,44.0643652 2.79688959,46.766543 5.85,47.43 L35.63,29.57 L65.41,47.43 Z" id="Shape" fill="#FFFFFF"></path>
                <path d="M65.41,0.75 C64.9437747,0.645894286 64.4677017,0.59225226 63.99,0.59 L7.27,0.59 C6.79265493,0.588890285 6.31657786,0.639180117 5.85,0.74 L35.63,18.6 L65.41,0.75 Z" id="Shape" fill="#4A88DC"></path>
                <polygon id="Shape" fill="#4A88DC" points="0.63 8.57 0.63 39.57 26.49 24.05"></polygon>
                <path d="M44.8,24.11 L70.63,39.61 L70.63,8.61 L45.22,23.86 C45.09,23.92 44.89,24 44.8,24.11 Z" id="Shape" fill="#4A88DC"></path>
                <path d="M35.63,29.57 L5.85,47.43 C6.31622529,47.5341057 6.79229827,47.5877477 7.27,47.59 L64,47.59 C64.4777017,47.5877477 64.9537747,47.5341057 65.42,47.43 L35.63,29.57 Z" id="Shape" fill="#4A88DC"></path>
            </g>
        </g>
    </g>
</svg>