<?xml version="1.0" encoding="UTF-8"?>
<svg width="71px" height="47px" viewBox="0 0 71 47" version="1.1" xmlns="http://www.w3.org/2000/svg" xmlns:xlink="http://www.w3.org/1999/xlink">
    <!-- Generator: Sketch 48.1 (47250) - http://www.bohemiancoding.com/sketch -->
    <title>senegal@2x</title>
    <desc>Created with Sketch.</desc>
    <defs></defs>
    <g id="Flags" stroke="none" stroke-width="1" fill="none" fill-rule="evenodd" transform="translate(-662.000000, -499.000000)">
        <g transform="translate(70.000000, 70.000000)" fill-rule="nonzero" id="senegal">
            <g transform="translate(592.000000, 429.000000)">
                <g id="romania-2">
                    <path d="M7,0 C3.48746899,0 0.64,2.84746899 0.64,6.36 L0.64,40.63 C0.637345109,42.3185088 1.3062424,43.9387699 2.49926164,45.133665 C3.69228088,46.32856 5.31148908,47.0000021 7,47 L24,47 C24,31.3333333 24,15.6666667 24,-5.68434189e-14 L7,0 Z" id="Shape" fill="#57A863"></path>
                    <path d="M24,0 C24,15.6666667 24,31.3333333 24,47 L47.35,47 C47.35,31.3333333 47.35,15.6666667 47.35,0 L24,0 Z" id="Shape" fill="#FFCE54"></path>
                    <path d="M64.27,0 L47.32,0 C47.32,15.6666667 47.32,31.3333333 47.32,47 L64.27,47 C67.782531,47 70.63,44.152531 70.63,40.64 L70.63,6.35 C70.6244833,2.84137487 67.7786295,-4.33704122e-06 64.27,0 Z" id="Shape" fill="#ED5565"></path>
                </g>
                <path d="M31.23,31 C30.49,31.49 30.08,31.19 30.32,30.33 L31.19,27.15 C31.3934183,26.1965137 31.1041166,25.2046219 30.42,24.51 L28.11,22.41 C27.45,21.81 27.64,21.33 28.53,21.33 L31.84,21.33 C32.7867091,21.2898386 33.6175992,20.6873448 33.95,19.8 L35.09,16.33 C35.37,15.49 35.82,15.49 36.09,16.33 L37.23,19.82 C37.5765078,20.7102518 38.3983361,21.326623 39.35,21.41 L42.72,21.54 C43.61,21.54 43.72,22.06 43.08,22.62 L40.45,24.78 C39.7391354,25.4346026 39.4207982,26.4123525 39.61,27.36 L40.35,30.2 C40.57,31.06 40.15,31.36 39.41,30.88 L36.71,29.12 C35.8794035,28.6332026 34.8505965,28.6332026 34.02,29.12 L31.23,31 Z" id="Shape" fill="#57A863"></path>
            </g>
        </g>
    </g>
</svg>