<?xml version="1.0" encoding="UTF-8"?>
<svg width="70px" height="48px" viewBox="0 0 70 48" version="1.1" xmlns="http://www.w3.org/2000/svg" xmlns:xlink="http://www.w3.org/1999/xlink">
    <!-- Generator: Sketch 48.1 (47250) - http://www.bohemiancoding.com/sketch -->
    <title>singapore@2x</title>
    <desc>Created with Sketch.</desc>
    <defs></defs>
    <g id="Flags" stroke="none" stroke-width="1" fill="none" fill-rule="evenodd" transform="translate(-578.000000, -560.000000)">
        <g transform="translate(70.000000, 70.000000)" fill-rule="nonzero" id="singapore">
            <g transform="translate(508.000000, 490.000000)">
                <path d="M63.64,47.27 L6.37,47.27 C4.679757,47.2726597 3.05797677,46.6023908 1.862793,45.407207 C0.667609227,44.2120232 -0.00265971069,42.590243 -5.10702591e-14,40.9 L-7.88540473e-06,23.27 L70.0000079,23.27 L70,40.9 C70.0026549,42.5885088 69.3337576,44.2087699 68.1407384,45.403665 C66.9477191,46.59856 65.3285109,47.2700021 63.64,47.27 Z" id="Shape" fill="#FFFFFF"></path>
                <path d="M0,6.63 C0,3.11746899 2.84746899,0.27 6.36,0.27 L63.63,0.27 C67.142531,0.27 69.99,3.11746899 69.99,6.63 L69.99,23.27 L0,23.27 L0,6.63 Z" id="Shape" fill="#ED5565"></path>
                <path d="M19.4,9.91 C19.25,10.01 19.16,9.91 19.2,9.78 L19.36,9.14 C19.3951712,8.9471076 19.3268963,8.74986905 19.18,8.62 L18.69,8.21 C18.55,8.09 18.59,8 18.77,7.99 L19.46,7.99 C19.6541409,7.97813061 19.8228817,7.85255604 19.89,7.67 L20.11,6.97 C20.16,6.8 20.26,6.8 20.32,6.97 L20.58,7.66 C20.6592418,7.84017119 20.833419,7.96015997 21.03,7.97 L21.73,7.97 C21.91,7.97 21.95,8.07 21.81,8.19 L21.27,8.64 C21.126866,8.77184144 21.0657406,8.97049903 21.11,9.16 L21.28,9.73 C21.33,9.9 21.28,9.96 21.09,9.87 L20.52,9.53 C20.3456978,9.43391601 20.1343022,9.43391601 19.96,9.53 L19.4,9.91 Z M16.4,12.43 C16.25,12.53 16.16,12.43 16.2,12.3 L16.36,11.66 C16.3976179,11.4688977 16.3332396,11.2719758 16.19,11.14 L15.7,10.73 C15.56,10.62 15.6,10.52 15.78,10.51 L16.47,10.51 C16.6641409,10.4981306 16.8328817,10.372556 16.9,10.19 L17.12,9.49 C17.17,9.32 17.27,9.32 17.33,9.49 L17.59,10.18 C17.6692418,10.3601712 17.843419,10.48016 18.04,10.49 L18.75,10.49 C18.93,10.49 18.97,10.59 18.83,10.71 L18.29,11.16 C18.146866,11.2918414 18.0857406,11.490499 18.13,11.68 L18.3,12.25 C18.35,12.42 18.3,12.48 18.11,12.39 L17.54,12.05 C17.3656978,11.953916 17.1543022,11.953916 16.98,12.05 L16.4,12.43 Z M22.54,12.43 C22.39,12.53 22.3,12.43 22.34,12.3 L22.5,11.66 C22.5331806,11.467265 22.4652344,11.270976 22.32,11.14 L21.83,10.73 C21.69,10.62 21.73,10.52 21.91,10.51 L22.6,10.51 C22.7941409,10.4981306 22.9628817,10.372556 23.03,10.19 L23.25,9.49 C23.3,9.32 23.4,9.32 23.46,9.49 L23.72,10.18 C23.7992418,10.3601712 23.973419,10.48016 24.17,10.49 L24.87,10.49 C25.05,10.49 25.09,10.59 24.95,10.71 L24.41,11.16 C24.266866,11.2918414 24.2057406,11.490499 24.25,11.68 L24.42,12.25 C24.47,12.42 24.42,12.48 24.23,12.39 L23.66,12.05 C23.4856978,11.953916 23.2743022,11.953916 23.1,12.05 L22.54,12.43 Z M21.48,15.88 C21.33,15.98 21.24,15.88 21.28,15.75 L21.44,15.11 C21.4768458,14.9140095 21.4085834,14.7130145 21.26,14.58 L20.77,14.17 C20.63,14.05 20.67,13.95 20.85,13.95 L21.54,13.95 C21.733229,13.9356606 21.9007776,13.8109733 21.97,13.63 L22.19,12.93 C22.24,12.76 22.34,12.76 22.4,12.93 L22.66,13.62 C22.7392418,13.8001712 22.913419,13.92016 23.11,13.93 L23.82,13.93 C24,13.93 24.04,14.03 23.9,14.15 L23.36,14.6 C23.216866,14.7318414 23.1557406,14.930499 23.2,15.12 L23.37,15.69 C23.42,15.86 23.37,15.92 23.18,15.83 L22.61,15.49 C22.4356978,15.393916 22.2243022,15.393916 22.05,15.49 L21.48,15.88 Z M17.69,15.88 C17.54,15.98 17.45,15.88 17.49,15.75 L17.65,15.11 C17.6868458,14.9140095 17.6185834,14.7130145 17.47,14.58 L16.98,14.17 C16.84,14.05 16.88,13.95 17.06,13.95 L17.75,13.95 C17.943229,13.9356606 18.1107776,13.8109733 18.18,13.63 L18.4,12.93 C18.45,12.76 18.55,12.76 18.61,12.93 L18.87,13.62 C18.9492418,13.8001712 19.123419,13.92016 19.32,13.93 L20.02,13.93 C20.2,13.93 20.24,14.03 20.1,14.15 L19.56,14.6 C19.416866,14.7318414 19.3557406,14.930499 19.4,15.12 L19.57,15.69 C19.62,15.86 19.57,15.92 19.38,15.83 L18.81,15.49 C18.6356978,15.393916 18.4243022,15.393916 18.25,15.49 L17.69,15.88 Z M16.14,16.32 C15.8700148,16.4593822 15.5890775,16.5764394 15.3,16.67 C12.52203,17.6140325 9.49591168,16.1850322 8.46,13.44 C8.11031623,12.4167128 8.07893735,11.3114788 8.37,10.27 C9.24093055,7.47240541 12.1775204,5.87344774 15,6.66 C15.2946629,6.73963772 15.5822946,6.8433189 15.86,6.97 C15.953709,6.99599697 16.0511232,6.94286195 16.08,6.85 C16.1043609,6.77278885 16.0708897,6.68911089 16,6.65 C14.2234608,5.29149382 11.8980711,4.87976504 9.76308767,5.54570495 C7.6281042,6.21164486 5.94915905,7.87239802 5.26,10 C4.89273742,11.2564357 4.93123105,12.596714 5.37,13.83 C6.17832494,15.9113093 7.94379434,17.472837 10.108249,18.0209008 C12.2727036,18.5689645 14.5685692,18.0358116 16.27,16.59 C16.3371094,16.5478076 16.3661504,16.4648333 16.34,16.39 C16.2989012,16.2985792 16.1938536,16.2548093 16.1,16.29 L16.14,16.32 Z" id="Shape" fill="#FFFFFF"></path>
            </g>
        </g>
    </g>
</svg>