<?xml version="1.0" encoding="UTF-8"?>
<svg width="71px" height="48px" viewBox="0 0 71 48" version="1.1" xmlns="http://www.w3.org/2000/svg" xmlns:xlink="http://www.w3.org/1999/xlink">
    <!-- Generator: Sketch 48.1 (47250) - http://www.bohemiancoding.com/sketch -->
    <title>slovakia-2@2x</title>
    <desc>Created with Sketch.</desc>
    <defs></defs>
    <g id="Flags" stroke="none" stroke-width="1" fill="none" fill-rule="evenodd" transform="translate(-662.000000, -560.000000)">
        <g transform="translate(70.000000, 70.000000)" fill-rule="nonzero" id="slovakia-2">
            <g transform="translate(592.000000, 490.000000)">
                <g id="Sierra_leone-3">
                    <path d="M0.63,6.92 L0.63,15.92 L70.63,15.92 L70.63,6.92 C70.63,3.25282926 67.6571707,0.28 63.99,0.28 L7.27,0.28 C3.60282926,0.28 0.63,3.25282926 0.63,6.92 Z" id="Shape" fill="#FFFFFF"></path>
                    <polygon id="Shape" fill="#4758A9" points="0.63 31.62 70.63 31.62 70.63 15.95 0.63 15.95"></polygon>
                    <path d="M0.63,40.63 C0.63,44.2971707 3.60282926,47.27 7.27,47.27 L64,47.27 C67.6671707,47.27 70.64,44.2971707 70.64,40.63 L70.64,31.63 L0.64,31.63 L0.63,40.63 Z" id="Shape" fill="#ED5565"></path>
                </g>
                <path d="M23.77,35.62 C23.5453839,35.6206553 23.3222621,35.5834683 23.11,35.51 C22.73,35.38 13.85,32.18 13.77,24.16 L13.77,13.93 C13.77,12.8254305 14.6654305,11.93 15.77,11.93 L31.77,11.93 C32.8745695,11.93 33.77,12.8254305 33.77,13.93 L33.77,24.12 C33.77,32.12 24.77,35.36 24.43,35.5 C24.2183251,35.576873 23.995187,35.6174435 23.77,35.62 Z M17.77,15.94 L17.77,24.13 C17.77,28.35 22.09,30.7 23.77,31.46 C25.45,30.7 29.77,28.33 29.77,24.13 L29.77,15.94 L17.77,15.94 Z" id="Shape" fill="#FFFFFF"></path>
                <path d="M15.77,13.93 L15.77,24.12 C15.84,30.83 23.77,33.61 23.77,33.61 C23.77,33.61 31.77,30.83 31.77,24.12 L31.77,13.93 L15.77,13.93 Z" id="Shape" fill="#ED5565"></path>
                <rect id="Rectangle-path" fill="#FFFFFF" x="22.52" y="13.56" width="2.5" height="15.64"></rect>
                <rect id="Rectangle-path" fill="#FFFFFF" x="19.48" y="16.46" width="8.58" height="2.5"></rect>
                <rect id="Rectangle-path" fill="#FFFFFF" x="18.14" y="21.46" width="11.25" height="2.5"></rect>
                <path d="M23.76,33.62 C23.76,33.62 30.17,31.38 31.5,26.08 L16,26.08 C17.4,31.38 23.76,33.62 23.76,33.62 Z" id="Shape" fill="#4758A9"></path>
            </g>
        </g>
    </g>
</svg>