<?xml version="1.0" encoding="UTF-8"?>
<svg width="71px" height="48px" viewBox="0 0 71 48" version="1.1" xmlns="http://www.w3.org/2000/svg" xmlns:xlink="http://www.w3.org/1999/xlink">
    <!-- Generator: Sketch 48.1 (47250) - http://www.bohemiancoding.com/sketch -->
    <title>solomon_islands@2x</title>
    <desc>Created with Sketch.</desc>
    <defs></defs>
    <g id="Flags" stroke="none" stroke-width="1" fill="none" fill-rule="evenodd" transform="translate(-747.000000, -1356.000000)">
        <g transform="translate(70.000000, 70.000000)" fill-rule="nonzero" id="solomon_islands">
            <g transform="translate(677.000000, 1286.000000)">
                <rect id="Rounded_Rectangle_7_copy-63" fill="#57A863" x="0.25" y="0.95" width="70" height="47" rx="6.36"></rect>
                <path d="M64.59,1 C64.3568398,0.987289697 64.1231602,0.987289697 63.89,1 L6.61,1 C3.09746899,1 0.25,3.84746899 0.25,7.36 L0.25,41.63 C0.25,41.63 0.25,41.7 0.25,41.73 L0.72,41.43 L28.25,29.99 L64.59,1 Z" id="Shape" fill="#4758A9"></path>
                <path d="M70.25,7.85 L70.25,7.31 C70.2473116,4.74407063 68.7006182,2.43192171 66.33,1.45 L66.09,1.36 L66.04,1.36 L65.51,1.19 L64.93,1.07 C64.72,1.07 64.51,1.07 64.3,1.02 L0.3,41.72 C0.303524631,41.9574092 0.320216944,42.19444 0.35,42.43 C0.35,42.5 0.35,42.58 0.35,42.65 C0.35,42.72 0.43,43.05 0.48,43.25 C0.48,43.25 0.48,43.31 0.48,43.35 C1.1513961,45.7288511 3.14026944,47.5032381 5.58,47.9 L5.75,47.9 C6.03167654,47.9389496 6.31564506,47.9589944 6.6,47.96 L7.16,47.96 L70.23,7.86 L70.25,7.85 Z" id="Shape" fill="#FFCE54"></path>
                <path d="M6.54,12 C6.26,12.17 6.11,12.05 6.22,11.74 L6.61,10.55 C6.70125094,10.1991081 6.61538232,9.82576627 6.38,9.55 L5.57,8.73 C5.34,8.49 5.42,8.31 5.75,8.33 L6.98,8.38 C7.33847921,8.37634494 7.66060281,8.16028643 7.8,7.83 L8.29,6.54 C8.41,6.23 8.58,6.23 8.67,6.54 L9.02,7.87 C9.12383079,8.2095644 9.41761024,8.45633913 9.77,8.5 L11.02,8.6 C11.35,8.6 11.4,8.81 11.14,9.01 L10.14,9.78 C9.84753874,10.0237667 9.70663827,10.4045788 9.77,10.78 L9.99,11.86 C10.05,12.19 9.89,12.3 9.62,12.1 L8.62,11.4 C8.31059892,11.2213672 7.92940108,11.2213672 7.62,11.4 L6.54,12 Z" id="Shape_2_copy_7-3" fill="#FFFFFF"></path>
                <path d="M18.54,12 C18.26,12.17 18.11,12.05 18.22,11.74 L18.61,10.55 C18.7012509,10.1991081 18.6153823,9.82576627 18.38,9.55 L17.57,8.73 C17.34,8.49 17.42,8.31 17.75,8.33 L18.98,8.38 C19.3384792,8.37634494 19.6606028,8.16028643 19.8,7.83 L20.29,6.54 C20.41,6.23 20.58,6.23 20.67,6.54 L21.02,7.87 C21.1238308,8.2095644 21.4176102,8.45633913 21.77,8.5 L23.02,8.6 C23.35,8.6 23.4,8.81 23.14,9.01 L22.14,9.78 C21.8475387,10.0237667 21.7066383,10.4045788 21.77,10.78 L21.99,11.86 C22.05,12.19 21.89,12.3 21.62,12.1 L20.62,11.4 C20.3105989,11.2213672 19.9294011,11.2213672 19.62,11.4 L18.54,12 Z" id="Shape_2_copy_38" fill="#FFFFFF"></path>
                <path d="M18.54,23 C18.26,23.17 18.11,23.05 18.22,22.74 L18.61,21.55 C18.7012509,21.1991081 18.6153823,20.8257663 18.38,20.55 L17.57,19.73 C17.34,19.49 17.42,19.31 17.75,19.33 L18.98,19.38 C19.3384792,19.3763449 19.6606028,19.1602864 19.8,18.83 L20.29,17.54 C20.41,17.23 20.58,17.23 20.67,17.54 L21.02,18.87 C21.1238308,19.2095644 21.4176102,19.4563391 21.77,19.5 L23.02,19.6 C23.35,19.6 23.4,19.81 23.14,20.01 L22.14,20.78 C21.8475387,21.0237667 21.7066383,21.4045788 21.77,21.78 L21.99,22.86 C22.05,23.19 21.89,23.3 21.62,23.1 L20.62,22.4 C20.3105989,22.2213672 19.9294011,22.2213672 19.62,22.4 L18.54,23 Z" id="Shape_2_copy_39" fill="#FFFFFF"></path>
                <path d="M6.54,23 C6.26,23.17 6.11,23.05 6.22,22.74 L6.61,21.55 C6.70125094,21.1991081 6.61538232,20.8257663 6.38,20.55 L5.57,19.73 C5.34,19.49 5.42,19.31 5.75,19.33 L6.98,19.38 C7.33847921,19.3763449 7.66060281,19.1602864 7.8,18.83 L8.29,17.54 C8.41,17.23 8.58,17.23 8.67,17.54 L9.02,18.87 C9.12383079,19.2095644 9.41761024,19.4563391 9.77,19.5 L11.02,19.6 C11.35,19.6 11.4,19.81 11.14,20.01 L10.14,20.78 C9.84753874,21.0237667 9.70663827,21.4045788 9.77,21.78 L9.99,22.86 C10.05,23.19 9.89,23.3 9.62,23.1 L8.62,22.4 C8.31059892,22.2213672 7.92940108,22.2213672 7.62,22.4 L6.54,23 Z" id="Shape_2_copy_40" fill="#FFFFFF"></path>
                <path d="M12.54,17.47 C12.26,17.64 12.11,17.52 12.22,17.21 L12.61,16.02 C12.7012509,15.6691081 12.6153823,15.2957663 12.38,15.02 L11.57,14.2 C11.34,13.96 11.42,13.78 11.75,13.8 L12.98,13.85 C13.3384792,13.8463449 13.6606028,13.6302864 13.8,13.3 L14.29,12.01 C14.41,11.7 14.58,11.7 14.67,12.01 L15.02,13.34 C15.1238308,13.6795644 15.4176102,13.9263391 15.77,13.97 L17.02,14.07 C17.35,14.07 17.4,14.28 17.14,14.48 L16.14,15.25 C15.8475387,15.4937667 15.7066383,15.8745788 15.77,16.25 L15.99,17.33 C16.05,17.66 15.89,17.77 15.62,17.57 L14.62,16.87 C14.3105989,16.6913672 13.9294011,16.6913672 13.62,16.87 L12.54,17.47 Z" id="Shape_2_copy_41" fill="#FFFFFF"></path>
            </g>
        </g>
    </g>
</svg>