<?xml version="1.0" encoding="UTF-8"?>
<svg width="71px" height="48px" viewBox="0 0 71 48" version="1.1" xmlns="http://www.w3.org/2000/svg" xmlns:xlink="http://www.w3.org/1999/xlink">
    <!-- Generator: Sketch 48.1 (47250) - http://www.bohemiancoding.com/sketch -->
    <title>somali@2x</title>
    <desc>Created with Sketch.</desc>
    <defs></defs>
    <g id="Flags" stroke="none" stroke-width="1" fill="none" fill-rule="evenodd" transform="translate(-831.000000, -560.000000)">
        <g transform="translate(70.000000, 70.000000)" fill-rule="nonzero" id="somali">
            <g transform="translate(761.000000, 490.000000)">
                <rect id="Rounded_Rectangle_7_copy-38" fill="#4A89DC" x="0.87" y="0.24" width="70" height="47" rx="6.36"></rect>
                <path d="M31.47,31.27 C30.73,31.76 30.32,31.46 30.56,30.61 L31.43,27.43 C31.6352923,26.4764456 31.3457333,25.483672 30.66,24.79 L28.36,22.69 C27.7,22.09 27.89,21.61 28.78,21.61 L32.09,21.61 C33.0367091,21.5698386 33.8675992,20.9673448 34.2,20.08 L35.34,16.61 C35.62,15.77 36.07,15.77 36.34,16.61 L37.48,20.1 C37.8265078,20.9902518 38.6483361,21.606623 39.6,21.69 L42.97,21.82 C43.86,21.82 44.02,22.34 43.33,22.9 L40.7,25.06 C39.9891354,25.7146026 39.6707982,26.6923525 39.86,27.64 L40.6,30.48 C40.82,31.34 40.4,31.64 39.66,31.16 L37,29.4 C36.1694035,28.9132026 35.1405965,28.9132026 34.31,29.4 L31.47,31.27 Z" id="Shape" fill="#FFFFFF"></path>
            </g>
        </g>
    </g>
</svg>