<?xml version="1.0" encoding="UTF-8"?>
<svg width="71px" height="48px" viewBox="0 0 71 48" version="1.1" xmlns="http://www.w3.org/2000/svg" xmlns:xlink="http://www.w3.org/1999/xlink">
    <!-- Generator: Sketch 48.1 (47250) - http://www.bohemiancoding.com/sketch -->
    <title>south_sudan@2x</title>
    <desc>Created with Sketch.</desc>
    <defs></defs>
    <g id="Flags" stroke="none" stroke-width="1" fill="none" fill-rule="evenodd" transform="translate(-578.000000, -621.000000)">
        <g transform="translate(70.000000, 70.000000)" fill-rule="nonzero" id="south_sudan">
            <g transform="translate(508.000000, 551.000000)">
                <path d="M0,7.19 L0,16.19 L70,16.19 L70,7.19 C70,3.52282926 67.0271707,0.55 63.36,0.55 L6.65,0.55 C4.88723053,0.547345224 3.19575038,1.24574249 1.94834517,2.4912719 C0.700939967,3.73680131 -1.9990797e-06,5.42722853 0,7.19 Z" id="Shape" fill="#434A54"></path>
                <polygon id="Shape" fill="#ED5565" points="0 31.9 70 31.9 70 16.22 0 16.22"></polygon>
                <path d="M0,40.91 C0,44.5771707 2.97282926,47.55 6.64,47.55 L63.36,47.55 C67.0271707,47.55 70,44.5771707 70,40.91 L70,31.91 L0,31.91 L0,40.91 Z" id="Shape" fill="#57A863"></path>
                <rect id="Rectangle-path" fill="#FFFFFF" x="0.01" y="31.02" width="70" height="1.75"></rect>
                <polygon id="Shape" fill="#FFFFFF" points="70 17.1 70 15.35 0 15.35 0 17.1"></polygon>
                <path d="M2.23,2.24 C0.816855513,3.49710561 0.00890032183,5.29862731 0.01,7.19 L0.01,40.91 C0.00890032183,42.8013727 0.816855513,44.6028944 2.23,45.86 L33,24 L2.23,2.24 Z" id="Shape" fill="#4758A9"></path>
                <path d="M10.14,30 C9.74,30.54 9.36,30.43 9.31,29.74 L9.13,27.2 C9.03525153,26.4567519 8.57829936,25.8087787 7.91,25.47 L5.72,24.47 C5.1,24.2 5.11,23.8 5.72,23.58 L8.09,22.75 C8.75889219,22.4762011 9.20238642,21.8325457 9.22,21.11 L9.15,18.29 C9.15,17.61 9.45,17.49 9.87,18.04 L11.58,20.3 C12.0445914,20.8632235 12.7920373,21.1084792 13.5,20.93 L15.95,20.18 C16.59,19.98 16.83,20.3 16.49,20.88 L15.15,23.11 C14.8020869,23.7679598 14.8210216,24.5594299 15.2,25.2 L16.46,27.09 C16.84,27.66 16.61,27.99 15.95,27.82 L13.58,27.21 C12.860637,27.0654782 12.1198925,27.3264659 11.65,27.89 L10.14,30 Z" id="Shape_19_copy_2" fill="#FFCE54"></path>
            </g>
        </g>
    </g>
</svg>