<?xml version="1.0" encoding="UTF-8"?>
<svg width="70px" height="48px" viewBox="0 0 70 48" version="1.1" xmlns="http://www.w3.org/2000/svg" xmlns:xlink="http://www.w3.org/1999/xlink">
    <!-- Generator: Sketch 48.1 (47250) - http://www.bohemiancoding.com/sketch -->
    <title>South_America@2x</title>
    <desc>Created with Sketch.</desc>
    <defs></defs>
    <g id="Flags" stroke="none" stroke-width="1" fill="none" fill-rule="evenodd" transform="translate(-578.000000, -1418.000000)">
        <g transform="translate(70.000000, 70.000000)" fill-rule="nonzero" id="South_America">
            <g transform="translate(508.000000, 1348.000000)">
                <path d="M63.64,0.3 L6.37,0.3 C2.85746899,0.3 0.01,3.14746899 0.01,6.66 L0.01,40.93 C0.01,44.442531 2.85746899,47.29 6.37,47.29 L63.64,47.29 C67.152531,47.29 70,44.442531 70,40.93 L70,6.66 C70,3.14746899 67.152531,0.3 63.64,0.3 Z" id="Shape" fill="#4A88DC"></path>
                <path d="M34.63,15.75 C34.54,15.16 34.03,14.56 33.42,14.66 C33.2552878,14.7024532 33.0883702,14.7358367 32.92,14.76 C32.6134759,14.7498231 32.3229567,14.6207035 32.11,14.4 C31.42,13.78 31,12.79 30.11,12.49 C29.8200373,12.4267084 29.5357517,12.3397504 29.26,12.23 C28.92,12.05 28.67,11.66 28.26,11.64 C28.097021,11.6510475 27.9359108,11.6812557 27.78,11.73 C27.2828046,11.7760409 26.7834958,11.6677991 26.35,11.42 C25.6023629,11.154377 24.9203683,10.7315404 24.35,10.18 C23.73,9.48 23.49,8.48 22.8,7.84 C22.1781118,7.38082152 21.5073721,6.99179252 20.8,6.68 C20.1721078,6.37132945 19.7511664,5.75698266 19.69,5.06 C19.69,4.81 20.36,4.83 20.59,4.87 L23.17,5.29 C23.3921283,5.30964667 23.6072132,5.37792757 23.8,5.49 C24.11,5.7 24.28,6.16 24.66,6.19 C24.85,6.19 25.04,6.09 25.23,6.1 C25.71,6.1 25.87,6.78 26.23,7.1 C26.3955793,7.18342249 26.5558808,7.27693172 26.71,7.38 C26.9187282,7.64545892 27.0025799,7.98815718 26.94,8.32 C26.8684791,8.90210542 26.9548281,9.49273271 27.19,10.03 C27.4503679,10.5703728 28.0673247,10.8384299 28.64,10.66 C29.03,10.49 29.23,10.07 29.53,9.77 C29.83,9.47 30.4,9.31 30.63,9.67 C30.86,10.03 30.63,10.3 30.52,10.61 C30.41,10.92 30.33,11.34 30.62,11.5 C30.7293335,11.5511592 30.8494001,11.5751725 30.97,11.57 C31.5,11.57 32.18,11.75 32.24,12.28 C32.2359595,12.4626321 32.2090841,12.644041 32.16,12.82 C32.092372,13.4571426 32.5291363,14.0380391 33.16,14.15 C33.4929728,14.1719247 33.8270272,14.1719247 34.16,14.15 C34.46,14.15 34.9,13.81 35.26,13.62 C35.6297526,13.4426811 36.0146179,13.2987749 36.41,13.19 L38.01,12.75 C38.5821955,12.6495229 39.1698041,12.8028121 39.62,13.17 C40.27,13.7 40.72,14.48 41.47,14.87 C42.6,15.45 44.23,15.05 44.99,16.07 C45.33,16.52 45.37,17.14 45.67,17.62 C46.18,18.44 47.26,18.62 48.2,18.87 C49.14,19.12 50.2,19.64 50.28,20.6 C50.39,21.9 48.62,22.79 48.74,24.08 C48.74,24.4 48.92,24.69 48.95,25.01 C49.03,25.86 48.25,26.55 47.47,26.9 C46.8057251,27.1370204 46.1991102,27.5118949 45.69,28 C44.8485967,28.7914007 44.1692964,29.7390245 43.69,30.79 C42.49,33.09 38.84,34.05 38.8,37.66 C38.8,38.81 37.86,38.78 37.8,40.28 C37.8,40.97 38.44,41.91 38.22,42.42 C38,42.93 37.22,43 36.69,42.51 C36.0669821,41.9338248 35.5963119,41.2123596 35.32,40.41 C34.58,36.74 35.76,34.05 36.44,30.41 C36.76,28.64 37.72,26.04 36.61,24.62 C35.79,23.62 34.68,23.36 34.23,21.75 C33.85,20.38 32.37,19.42 33.13,18.23 C33.4263786,17.8067839 33.7611273,17.4117804 34.13,17.05 C34.5059467,16.729219 34.6940969,16.2400285 34.63,15.75 Z" id="Shape" fill="#FFFFFF"></path>
            </g>
        </g>
    </g>
</svg>