<?xml version="1.0" encoding="UTF-8"?>
<svg width="71px" height="48px" viewBox="0 0 71 48" version="1.1" xmlns="http://www.w3.org/2000/svg" xmlns:xlink="http://www.w3.org/1999/xlink">
    <!-- Generator: Sketch 48.1 (47250) - http://www.bohemiancoding.com/sketch -->
    <title>Sri_Lanka@2x</title>
    <desc>Created with Sketch.</desc>
    <defs></defs>
    <g id="Flags" stroke="none" stroke-width="1" fill="none" fill-rule="evenodd" transform="translate(-747.000000, -621.000000)">
        <g transform="translate(70.000000, 70.000000)" fill-rule="nonzero" id="Sri_Lanka">
            <g transform="translate(677.000000, 551.000000)">
                <rect id="Rounded_Rectangle_7_copy-57" fill="#FFCE54" x="0.25" y="0.52" width="70" height="47" rx="6.36"></rect>
                <polygon id="Rectangle_1_copy_13" fill="#57A863" points="5.25 42.52 5.25 5.52 13.36 5.52 13.36 42.52"></polygon>
                <polygon id="Rectangle_1_copy_33" fill="#FF8416" points="13.36 42.52 13.36 5.52 21.47 5.52 21.47 42.52"></polygon>
                <polygon id="Rectangle_1_copy_34" fill="#ED5565" points="26.47 42.52 26.47 5.52 65.26 5.52 65.26 42.52"></polygon>
                <path d="M59.54,16.69 C59.4307072,16.4741757 59.2203325,16.3276647 58.98,16.3 C58.7459104,16.2787545 58.5167847,16.3764147 58.37,16.56 C58.2288676,16.7054095 58.1722323,16.9130723 58.22,17.11 C57.7397845,16.8980564 57.3025423,16.5997827 56.93,16.23 C55.8454457,15.2963283 54.5978836,14.5708438 53.25,14.09 C52.3290306,13.8780545 51.3782991,13.8273037 50.44,13.94 C49.6553099,14.0830298 48.9212947,14.4276379 48.31,14.94 C47.896439,15.3292847 47.661949,15.8720429 47.661949,16.44 C47.661949,17.0079571 47.896439,17.5507153 48.31,17.94 L48.46,18.12 L48.37,18.26 C48.1042544,18.6837396 48.1240726,19.2267594 48.42,19.63 C48.68,19.98 48.75,19.98 48.81,19.98 C48.87,19.98 49.03,19.7 49.04,19.61 C49.0272171,19.4183395 49.1348723,19.2389142 49.31,19.16 C49.45,19.11 49.56,19.16 50.46,19.49 C51.8903606,19.9054053 53.4054541,19.9330152 54.85,19.57 C55.5634738,19.401101 56.3065262,19.401101 57.02,19.57 C57.324877,19.6824655 57.5560953,19.9360598 57.64,20.25 C57.7099266,20.5843614 57.6043411,20.9312852 57.36,21.17 C57.14,21.41 56.96,21.52 56.12,21.75 C55.4188724,21.9327098 54.6904488,21.9869181 53.97,21.91 C53.2411348,21.8667944 52.5097194,21.9070558 51.79,22.03 C50.9933469,22.1591422 50.1834637,22.1860263 49.38,22.11 L47.67,22.11 L47.33,21.65 C47.2313255,21.496228 47.1697072,21.3216428 47.15,21.14 C47.15,21.09 47.15,21.04 47.15,21 L47.35,21.12 C47.4189987,21.1684924 47.5110013,21.1684924 47.58,21.12 C47.69,21.02 47.67,20.86 47.46,20.36 C47.4162442,20.2345054 47.3926188,20.1028782 47.39,19.97 C47.39,19.97 47.39,19.97 47.39,19.92 C47.4395042,19.9485812 47.5004958,19.9485812 47.55,19.92 C47.61,19.87 47.63,19.85 47.67,18.59 C47.71,17.33 47.67,16.99 47.33,16.59 L47.26,16.5 L47.41,16.34 C47.7079482,16.0482289 47.9072412,15.6706211 47.98,15.26 L48.11,14.46 L47.47,15.06 C47.3569497,15.2081292 47.1755159,15.2875065 46.99,15.27 C46.8304103,15.2915043 46.672181,15.2220378 46.58,15.09 C46.2999796,14.8144519 45.9565982,14.6118569 45.58,14.5 C45.4857796,14.4519184 45.3742204,14.4519184 45.28,14.5 C45.2195123,14.5482596 45.1860039,14.6227228 45.19,14.7 C45.158054,14.8188502 45.1110039,14.9331148 45.05,15.04 L44.99,15.14 L44.81,14.96 C44.6124083,14.7557686 44.3690313,14.6015156 44.1,14.51 C43.83,14.44 43.65,14.39 43.52,14.51 C43.39,14.63 43.4,14.76 43.4,14.93 C43.4,15.1 43.34,15.24 43.34,15.24 C43.34,15.24 43.26,15.24 43.05,15.07 C42.6981066,14.7666163 42.2200523,14.6545724 41.77,14.77 L41.1,14.84 L41.26,15.25 C41.26,15.35 41.26,15.37 41.19,15.52 C40.9804405,15.7881595 40.648885,15.9313312 40.31,15.9 C40.0779253,15.898355 39.8474937,15.9390194 39.63,16.02 C39.4430717,16.0881298 39.248125,16.1318248 39.05,16.15 L38.58,16.22 C38.6172199,16.0062146 38.558727,15.7868662 38.42,15.62 C38.2563961,15.4407664 38.0225462,15.342111 37.78,15.35 C37.5173317,15.3385302 37.2661696,15.4584882 37.11,15.67 C36.9316852,15.97352 36.9022074,16.3419914 37.03,16.67 C37.03,16.79 37.12,16.98 37.15,17.09 C37.307947,17.3969703 37.5176924,17.6743755 37.77,17.91 C37.9765656,18.110957 38.1702817,18.3247126 38.35,18.55 C38.454448,18.6960524 38.5913753,18.8158638 38.75,18.9 L39.29,19.2 L39.23,18.73 C39.3020096,18.7927107 39.3789217,18.8495588 39.46,18.9 C39.59,18.98 39.71,19.05 39.82,18.99 C39.88888,18.9432545 39.9271256,18.8629387 39.92,18.78 C39.9162998,18.7400856 39.9162998,18.6999144 39.92,18.66 C40.0900199,18.930872 40.2805795,19.1882947 40.49,19.43 L40.63,19.6 C39.7651469,19.5156911 38.9220957,19.2786888 38.14,18.9 C37.47,18.6 37.26,18.54 37.14,18.68 C37.0561166,18.759603 37.0184451,18.8763846 37.04,18.99 C37.1070494,19.2107529 37.2483668,19.4015314 37.44,19.53 C37.321732,19.6262888 37.24046,19.7605643 37.21,19.91 L37.01,20.54 L36.82,21.13 L37.47,21.07 C37.6683525,21.052345 37.8654048,21.0222862 38.06,20.98 L37.74,21.57 L38.34,21.45 C38.5084476,21.4138317 38.6726677,21.3602088 38.83,21.29 L38.9,21.29 L38.99,21.42 C39.04,21.51 39.21,21.77 39.43,21.72 C39.65,21.67 39.63,21.59 39.66,21.42 L39.71,21.53 C39.89,21.92 40.07,22.1 40.26,22.08 C40.45,22.06 40.45,22.08 40.48,21.82 C40.5182461,21.7396428 40.576854,21.6706923 40.65,21.62 C40.6957188,21.5759212 40.7564993,21.550894 40.82,21.55 C40.82,21.55 40.89,21.61 40.92,21.69 C40.95,21.77 40.92,22 40.16,22.47 C38.8030876,23.2165632 37.8687286,24.5497789 37.63,26.08 C37.5549972,26.4865699 37.5549972,26.9034301 37.63,27.31 C37.42,27.08 37.13,26.79 36.71,26.38 L35.55,25.25 C35.8746577,25.0724013 36.0746951,24.7300296 36.07,24.36 C36.0418975,24.0141075 35.7965756,23.7245472 35.46,23.64 C35.3346834,23.613846 35.2053166,23.613846 35.08,23.64 C35.08,23.3 35.14,22.64 35.17,21.09 C35.25,16.96 35.55,13.82 35.95,13.09 C36.05,12.91 36.12,12.77 36,12.66 C35.88,12.55 35.75,12.66 35.42,12.85 C34.8329365,13.2589834 34.3583388,13.8092416 34.04,14.45 C33.34,15.77 33.04,17.57 33.04,21.31 C33.0168969,22.0936748 33.033585,22.8780171 33.09,23.66 C32.9550732,23.6291594 32.8149268,23.6291594 32.68,23.66 C32.3396352,23.7269234 32.0811793,24.0055712 32.04,24.35 C32.0109646,24.7876119 32.2704613,25.1930755 32.68,25.35 C32.8269761,25.4177243 32.9813536,25.4680648 33.14,25.5 C33.066725,25.5773246 33.0367336,25.6860433 33.06,25.79 C33.0534426,25.8263735 33.0534426,25.8636265 33.06,25.9 C32.9946975,25.9158042 32.9355414,25.9506019 32.89,26 C32.82,26.08 32.76,26.23 32.89,26.49 C32.9380706,26.5848638 33.0151362,26.6619294 33.11,26.71 C33.0121297,26.8019554 32.9735781,26.9407412 33.01,27.07 C33.0417505,27.1705975 33.1093719,27.256014 33.2,27.31 C33.1754342,27.3881141 33.1754342,27.4718859 33.2,27.55 C33.1911773,27.7332658 33.2996116,27.9019413 33.47,27.97 C33.4521271,28.045625 33.4521271,28.124375 33.47,28.2 L33.34,28.14 C33.1982509,28.0557088 33.0217491,28.0557088 32.88,28.14 C32.7732032,28.2086931 32.7032181,28.3220155 32.6896218,28.448267 C32.6760254,28.5745184 32.7202778,28.7001433 32.81,28.79 C32.9874508,28.9226973 33.211516,28.9769066 33.43,28.94 C33.3964425,29.0179043 33.3490049,29.0890606 33.29,29.15 L33.01,29.46 L33.24,29.78 C33.4237547,30.0555044 33.4237547,30.4144956 33.24,30.69 L33.19,30.75 C33.0882125,30.5929165 32.905827,30.5075446 32.72,30.53 C32.5680725,30.5659342 32.450935,30.6869763 32.42,30.84 C32.35,31.09 32.42,31.23 32.67,31.42 C32.8231735,31.5580454 33.0152763,31.6453649 33.22,31.67 C33.1857867,31.7153959 33.1453959,31.7557867 33.1,31.79 L32.58,32.19 L33.3,32.3 L33.51,32.3 C33.57,32.52 33.76,32.95 33.96,32.95 C34.16,32.95 34.25,32.77 34.29,32.72 C34.3783159,32.5967942 34.430286,32.4512779 34.44,32.3 L34.65,32.3 L35.38,32.2 L34.84,31.77 L34.73,31.67 C35.0732075,31.6220987 35.3754596,31.4193686 35.55,31.12 C35.6003233,30.9740033 35.5740316,30.812497 35.48,30.69 C35.3680824,30.5624229 35.1960804,30.5050889 35.03,30.54 C34.90347,30.5657861 34.8004428,30.6573658 34.76,30.78 L34.7,30.72 C34.445356,30.4352993 34.445356,30.0047007 34.7,29.72 C34.91,29.48 34.87,29.37 34.65,29.16 C34.5637128,29.0726193 34.4987006,28.9665467 34.46,28.85 L34.57,28.85 C34.7365046,28.9485731 34.9434954,28.9485731 35.11,28.85 C35.2521008,28.7575168 35.3104122,28.5784176 35.25,28.42 C35.1742814,28.2739902 35.0327938,28.1734595 34.87,28.15 C34.9727961,28.1338338 35.0675546,28.0846997 35.14,28.01 C35.186632,28.0666996 35.2404129,28.1171192 35.3,28.16 C35.46,28.28 35.46,28.28 35.46,28.94 C35.46,29.6 35.46,29.78 35.65,29.94 C35.84,30.1 35.83,30.11 35.95,30.06 C36.0357558,30.0175818 36.0842662,29.9246036 36.07,29.83 C36.1198373,29.7669887 36.190949,29.7243217 36.27,29.71 C36.4995029,29.8848432 36.7166841,30.0752944 36.92,30.28 C37.1847322,30.5596281 37.4918222,30.7958512 37.83,30.98 L38.08,30.98 C38.2221349,30.9618485 38.3605083,30.921349 38.49,30.86 C38.8883808,30.6545406 39.2313935,30.3561196 39.49,29.99 C39.761809,30.1815036 40.0457367,30.3552005 40.34,30.51 C40.5418607,30.6495307 40.7758306,30.735549 41.02,30.76 C41.09,31 41.18,31.27 41.28,31.57 C41.81,33.14 41.63,33.57 41.07,33.92 C40.88,34.03 40.78,34.05 40.16,34.05 C39.54,34.05 39.35,34.05 39.09,34.26 C38.7940719,34.5574065 38.6043011,34.9439767 38.55,35.36 C38.5477041,35.4495343 38.5934797,35.5334563 38.67,35.58 C38.8,35.65 38.97,35.58 39.26,35.45 L39.39,35.37 C39.4840037,35.4873886 39.62059,35.5628705 39.77,35.58 C40.0143048,35.6068306 40.2599345,35.5427533 40.46,35.4 L40.56,35.33 L40.63,35.4 C40.7864984,35.531916 40.9853418,35.6029315 41.19,35.6 C41.3984089,35.5986539 41.6011896,35.5322258 41.77,35.41 L41.87,35.34 C42.0449423,35.4512941 42.2436421,35.5198112 42.45,35.54 C42.87,35.59 42.93,35.54 43.18,35.2 C43.3533287,34.9955157 43.420042,34.7212501 43.36,34.46 C43.36,34.3 43.3,34.04 43.3,33.88 C43.2954527,33.8267636 43.2954527,33.7732364 43.3,33.72 C43.3958599,33.6703398 43.4963358,33.6301495 43.6,33.6 C43.8146247,33.5288286 44.0249729,33.4453571 44.23,33.35 C44.39,33.26 44.96,32.67 44.96,32.45 C44.96,32.23 44.82,32.23 44.4,32.19 C43.98,32.15 43.84,32.06 43.77,31.91 C43.7,31.76 43.77,31.41 44.06,30.98 C44.23,30.72 44.38,30.47 44.52,30.22 L44.8,30.16 C44.95,30.16 45.75,29.78 46.41,29.48 C47.5052799,28.8717225 48.7281136,28.5291921 49.98,28.48 L49.98,28.76 C50.0576163,29.4943911 50.3860742,30.1795614 50.91,30.7 C51.5116708,31.2762517 51.8047312,32.1034982 51.7,32.93 L51.7,33.93 L51.54,34.08 C51.39,34.22 51.37,34.24 50.73,34.28 C50.09,34.32 49.95,34.34 49.73,34.54 C49.5067356,34.7093353 49.3536595,34.9549689 49.3,35.23 C49.2483835,35.3304223 49.2483835,35.4495777 49.3,35.55 C49.3585788,35.614019 49.4435293,35.6472605 49.53,35.64 C49.7167253,35.6092984 49.8943206,35.5375773 50.05,35.43 L50.22,35.32 L50.32,35.41 C50.4487436,35.5496749 50.6300421,35.6291313 50.82,35.6291313 C51.0099579,35.6291313 51.1912564,35.5496749 51.32,35.41 C51.4468227,35.5784479 51.6495057,35.6722826 51.86,35.66 C52.15,35.66 52.3,35.66 52.45,35.43 L52.59,35.52 C52.7688719,35.647274 52.9806881,35.7201943 53.2,35.73 C53.322305,35.7314482 53.4417209,35.6928136 53.54,35.62 L53.59,35.67 C53.74,35.78 53.95,35.67 54.22,35.51 L54.36,35.42 C54.4529957,35.5533939 54.5985368,35.6407186 54.76,35.66 C54.9931496,35.6811201 55.2246879,35.6051466 55.4,35.45 L55.51,35.36 L55.63,35.45 C55.8406535,35.6267305 56.1224562,35.6934733 56.39,35.63 C56.5424188,35.5887271 56.6741987,35.4925634 56.76,35.36 C57.0480782,35.5703359 57.4068318,35.6600243 57.76,35.61 C57.8604831,35.595877 57.947017,35.5319172 57.99,35.44 C58.0221702,35.2560814 57.9749354,35.0671422 57.86,34.92 C57.6125362,34.637416 57.4496527,34.2908553 57.39,33.92 C57.39,33.58 57.46,33.42 57.92,33.08 C58.38,32.74 58.63,32.34 58.54,32.08 C58.4839539,31.911461 58.3160553,31.8065244 58.14,31.83 C57.94,31.83 57.71,31.62 57.56,31.29 C57.22,30.52 57.29,29.66 57.82,28.19 C58.2418328,27.2857049 58.4537819,26.2977487 58.44,25.3 C58.4945644,24.7927062 58.4188448,24.2798777 58.22,23.81 C58.0763621,23.4582755 57.8953216,23.1230153 57.68,22.81 L57.47,22.52 L57.75,22.29 C58.344644,21.8408306 58.6567011,21.1101605 58.57,20.37 C58.4435696,19.6199109 57.9302001,18.9924593 57.22,18.72 C56.7795635,18.5171056 56.2913113,18.4409244 55.81,18.5 C55.2673917,18.508748 54.7260644,18.5555294 54.19,18.64 C53.6704997,18.7212492 53.1457888,18.7646966 52.62,18.77 C51.86,18.77 51.76,18.77 51.51,18.62 C51.26,18.47 51.23,18.45 51.18,18.12 C51.1615257,17.981044 51.0698984,17.8626922 50.94,17.81 C50.73,17.74 50.33,18.11 50.16,18.35 C50.0986401,18.2525593 50.0483297,18.1485844 50.01,18.04 C49.94,17.84 49.94,17.61 50.38,17.39 L50.99,17.1 L50.53,16.82 C50.2693625,16.670443 49.9598895,16.6308592 49.67,16.71 C49.370163,16.7736716 49.1077151,16.9534304 48.94,17.21 L48.89,17.29 L48.73,17.14 C48.5307008,16.9662911 48.4392133,16.6994526 48.49,16.44 C48.5612067,16.1824437 48.7624437,15.9812067 49.02,15.91 C49.1708013,15.849373 49.3391987,15.849373 49.49,15.91 C49.5338187,15.9327691 49.5663588,15.9725403 49.58,16.02 C49.66,16.31 49.86,16.28 49.9,16.27 C50.17,16.22 50.33,15.74 50.28,15.38 L50.28,15.26 C50.6718334,15.3405445 51.0245391,15.5521679 51.28,15.86 C51.4780287,16.207073 51.4780287,16.632927 51.28,16.98 L50.89,17.62 L51.51,17.5 C51.9130973,17.4165156 52.2700573,17.1844915 52.51,16.85 C52.7257279,16.4487034 52.7513889,15.9721414 52.58,15.55 C52.8328771,15.6580861 53.0386485,15.8532142 53.16,16.1 C53.2774664,16.2591979 53.3003778,16.4692191 53.22,16.65 C53.1717291,16.8234688 53.097561,16.9886614 53,17.14 C52.9,17.27 52.82,17.38 52.88,17.5 C52.9259212,17.5760927 53.0115731,17.6189187 53.1,17.61 C53.4275579,17.5705838 53.7349224,17.4308727 53.98,17.21 C54.0892638,17.0779172 54.1770088,16.9294257 54.24,16.77 C54.4743747,17.1054893 54.800844,17.3659701 55.18,17.52 C55.63,17.71 55.8,17.73 55.88,17.59 C55.96,17.45 55.8,17.31 55.74,17.26 C55.621424,17.0717983 55.5336529,16.8658738 55.48,16.65 C55.7,16.81 56.06,17.1 56.48,17.49 C56.9244397,17.9927824 57.5590787,18.2865296 58.23,18.3 C58.6317003,18.3150985 59.0116608,18.117519 59.23,17.78 C59.5490974,17.5159287 59.6723742,17.0824715 59.54,16.69 Z M34.4,28 C34.4905561,27.994781 34.5790643,27.9709518 34.66,27.93 C34.6811558,27.9564516 34.7086829,27.9770969 34.74,27.99 C34.6537026,27.9786853 34.5662974,27.9786853 34.48,27.99 L34.4,28 Z M55.25,34 C54.794884,34.075725 54.3750928,34.2926171 54.05,34.62 C54.0289921,34.4395634 53.9887637,34.2618881 53.93,34.09 C53.79,33.66 53.83,33.43 54.38,32.78 C54.46,32.69 54.85,32.22 54.85,32.01 C54.8570476,31.9254712 54.8279827,31.8419096 54.77,31.78 C54.68,31.69 54.54,31.69 54.32,31.69 C54.1,31.69 54.02,31.69 53.9,31.55 C53.78,31.41 53.65,31.18 53.95,30.8 L54.15,30.55 L54.34,30.67 C55.89,31.67 55.89,31.67 55.96,32.75 C56.03,33.83 56,33.86 55.25,34 Z" id="Shape" fill="#FFCE54"></path>
            </g>
        </g>
    </g>
</svg>