<?xml version="1.0" encoding="UTF-8"?>
<svg width="71px" height="48px" viewBox="0 0 71 48" version="1.1" xmlns="http://www.w3.org/2000/svg" xmlns:xlink="http://www.w3.org/1999/xlink">
    <!-- Generator: Sketch 48.1 (47250) - http://www.bohemiancoding.com/sketch -->
    <title>Syria@2x</title>
    <desc>Created with Sketch.</desc>
    <defs></defs>
    <g id="Flags" stroke="none" stroke-width="1" fill="none" fill-rule="evenodd" transform="translate(-831.000000, -682.000000)">
        <g transform="translate(70.000000, 70.000000)" fill-rule="nonzero" id="Syria">
            <g transform="translate(761.000000, 612.000000)">
                <g id="sudan-2">
                    <path d="M0.87,7.44 L0.87,16.44 L70.87,16.44 L70.87,7.44 C70.87,3.77282926 67.8971707,0.8 64.23,0.8 L7.51,0.8 C3.84282926,0.8 0.87,3.77282926 0.87,7.44 Z" id="Shape" fill="#ED5565"></path>
                    <path d="M0.87,41.15 C0.87,44.8171707 3.84282926,47.79 7.51,47.79 L64.23,47.79 C67.8971707,47.79 70.87,44.8171707 70.87,41.15 L70.87,32.15 L0.87,32.15 L0.87,41.15 Z" id="Shape" fill="#434A54"></path>
                    <polygon id="Shape" fill="#FFFFFF" points="70.87 16.47 0.87 16.47 0.87 32.15 70.87 32.15"></polygon>
                </g>
                <path d="M24.15,29 C23.69,29.31 23.43,29.12 23.58,28.58 L24.12,26.58 C24.2476418,25.9781493 24.0677344,25.3522216 23.64,24.91 L22.21,23.59 C21.8,23.21 21.92,22.91 22.47,22.91 L24.52,22.91 C25.1190343,22.8731156 25.6364851,22.478115 25.83,21.91 L26.53,19.72 C26.7,19.19 26.98,19.19 27.16,19.72 L27.87,21.92 C28.0805896,22.4756125 28.588524,22.8633487 29.18,22.92 L31.28,23 C31.82,23 31.93,23.33 31.51,23.68 L29.87,25.04 C29.4281369,25.4579108 29.2317805,26.0734126 29.35,26.67 L29.81,28.46 C29.95,29 29.68,29.19 29.22,28.89 L27.55,27.78 C27.0350142,27.4753535 26.3949858,27.4753535 25.88,27.78 L24.15,29 Z" id="Shape" fill="#57A863"></path>
                <path d="M42.15,29 C41.69,29.31 41.43,29.12 41.58,28.58 L42.12,26.58 C42.2476418,25.9781493 42.0677344,25.3522216 41.64,24.91 L40.21,23.59 C39.8,23.21 39.92,22.91 40.47,22.91 L42.52,22.91 C43.1190343,22.8731156 43.6364851,22.478115 43.83,21.91 L44.53,19.72 C44.7,19.19 44.98,19.19 45.16,19.72 L45.87,21.92 C46.0805896,22.4756125 46.588524,22.8633487 47.18,22.92 L49.28,23 C49.82,23 49.93,23.33 49.51,23.68 L47.87,25.04 C47.4281369,25.4579108 47.2317805,26.0734126 47.35,26.67 L47.81,28.46 C47.95,29 47.68,29.19 47.22,28.89 L45.55,27.78 C45.0350142,27.4753535 44.3949858,27.4753535 43.88,27.78 L42.15,29 Z" id="Shape" fill="#57A863"></path>
            </g>
        </g>
    </g>
</svg>