<?xml version="1.0" encoding="UTF-8"?>
<svg width="71px" height="48px" viewBox="0 0 71 48" version="1.1" xmlns="http://www.w3.org/2000/svg" xmlns:xlink="http://www.w3.org/1999/xlink">
    <!-- Generator: Sketch 48.1 (47250) - http://www.bohemiancoding.com/sketch -->
    <title>Tahiti@2x</title>
    <desc>Created with Sketch.</desc>
    <defs></defs>
    <g id="Flags" stroke="none" stroke-width="1" fill="none" fill-rule="evenodd" transform="translate(-831.000000, -989.000000)">
        <g transform="translate(70.000000, 70.000000)" fill-rule="nonzero" id="Tahiti">
            <g transform="translate(761.000000, 919.000000)">
                <rect id="Rectangle-path" fill="#FFFFFF" x="0.87" y="11.92" width="70" height="23.56"></rect>
                <path d="M64.23,0.19 L7.51,0.19 C3.84282926,0.19 0.87,3.16282926 0.87,6.83 L0.87,11.91 L70.87,11.91 L70.87,6.83 C70.87,3.16282926 67.8971707,0.19 64.23,0.19 Z" id="Shape" fill="#EC5565"></path>
                <path d="M0.87,40.55 C0.87,44.2171707 3.84282926,47.19 7.51,47.19 L64.23,47.19 C67.8971707,47.19 70.87,44.2171707 70.87,40.55 L70.87,35.48 L0.87,35.48 L0.87,40.55 Z" id="Shape" fill="#EC5565"></path>
                <g id="_ffffffff-3" transform="translate(25.000000, 12.000000)" fill="#FFFFFF">
                    <path d="M10.47,0.76 L11.28,0.76 C12.8799635,0.822946202 14.4438419,1.25412492 15.85,2.02 C17.2815257,2.80628274 18.5158761,3.90728228 19.46,5.24 C20.2266196,6.32366367 20.7922747,7.53626554 21.13,8.82 C21.583498,10.5462377 21.6246049,12.3549418 21.25,14.1 C20.6848126,16.722935 19.1804344,19.0488532 17.02,20.64 C15.4051828,21.8276026 13.4810414,22.5222384 11.48,22.64 L10.29,22.64 C8.72427013,22.5488416 7.19949352,22.1044 5.83,21.34 C4.75921376,20.7284124 3.80186392,19.9368228 3,19 C1.49076799,17.2705664 0.557564059,15.1140614 0.33,12.83 C0.33,12.46 0.33,12.08 0.25,11.71 L0.25,11.63 C0.252864945,11.580041 0.252864945,11.529959 0.25,11.48 C0.269560706,10.1089368 0.540724017,8.75312019 1.05,7.48 C1.8516103,5.44983388 3.24531336,3.70770505 5.05,2.48 C6.64638567,1.39739517 8.51284734,0.781012653 10.44,0.7 L10.47,0.76 Z M10.64,1.39 C10.2009271,1.42790328 9.78805004,1.61493306 9.47,1.92 C9.26977913,2.15856418 9.11091613,2.42896929 9,2.72 C9,4.95 9,7.18 9,9.41 C9,9.49 9,9.59 9.1,9.61 L12.7,10.61 L12.92,10.66 C12.9546651,10.6550862 12.9858827,10.6363975 13.0065873,10.608164 C13.0272919,10.5799305 13.0357329,10.5445391 13.03,10.51 C13.03,8.76 13.03,7.01 13.03,5.26 C13.0388105,5.2036758 13.0388105,5.1463242 13.03,5.09 C13.03,5.03 12.92,5.03 12.86,5.03 C12.5809901,5.02568474 12.3095342,4.93867963 12.08,4.78 C11.6383589,4.47939273 11.3218311,4.02771819 11.19,3.51 C11.0692298,3.09628776 11.1548185,2.64973816 11.42,2.31 C11.7738712,1.95050363 12.2555883,1.74559413 12.76,1.74 C12.84,1.74 12.95,1.74 12.94,1.6 C12.93,1.46 12.86,1.5 12.8,1.49 C12.0862414,1.37147429 11.3599351,1.34793659 10.64,1.42 L10.64,1.39 Z M6.22,2.5 C6.92,3.9 7.62666667,5.29666667 8.34,6.69 C8.34,5.49 8.34,4.29 8.52,3.1 C8.5368297,2.80695557 8.6151976,2.52074238 8.75,2.26 L8.41,1.65 C7.65214219,1.84571119 6.9203134,2.13105728 6.23,2.5 L6.22,2.5 Z M12.61,4.57 C12.9,4.57 13.19,4.57 13.47,4.57 C13.75,4.57 13.47,4.78 13.47,4.88 C13.47,5.49 13.47,6.1 13.47,6.71 L15.82,2.65 C15.0775787,2.21356487 14.280659,1.87731183 13.45,1.65 L12.6,4.53 L12.61,4.57 Z M3.66,4.41 L5.1,6 C5.14907846,5.94564349 5.21094843,5.90439685 5.28,5.88 C5.57501659,5.83574968 5.87498341,5.83574968 6.17,5.88 C6.31583209,5.87275924 6.46172024,5.89311572 6.6,5.94 C6.69037246,6.00186585 6.72740052,6.11706427 6.69,6.22 C6.69,6.36 6.48,6.43 6.5,6.59 C6.52,6.75 6.75,6.77 6.8,6.93 C6.82766522,7.0180205 6.80460055,7.11412329 6.74,7.18 C6.67,7.25 6.56,7.32 6.59,7.43 C6.62,7.54 6.79,7.54 6.88,7.62 L8.47,9.11 C8.47,8.58333333 8.47,8.06 8.47,7.54 C8.47,7.44 8.4,7.36 8.35,7.27 L5.51,3 C4.84339351,3.43435797 4.22930665,3.94441919 3.68,4.52 L3.66,4.41 Z M16.39,3.1 L13.62,7.27 C13.62,7.35 13.48,7.43 13.49,7.54 C13.49,8.09 13.49,8.65 13.49,9.2 L15.43,7.4 C15.4778103,7.36327955 15.5156337,7.31514069 15.54,7.26 C15.46,7.18 15.31,7.13 15.3,6.99 C15.29,6.85 15.53,6.81 15.55,6.66 C15.5669494,6.59102601 15.5669494,6.51897399 15.55,6.45 C15.55,6.39 15.41,6.37 15.38,6.29 C15.35,6.21 15.32,6.08 15.38,6.01 C15.5490858,5.92161623 15.739927,5.88344799 15.93,5.9 C16.2030135,5.88130037 16.4769865,5.88130037 16.75,5.9 C16.8241656,5.91555463 16.8930569,5.95000028 16.95,6 L18.24,4.72 C17.6844056,4.10352271 17.0565462,3.5562442 16.37,3.09 L16.39,3.1 Z M1.79,7.25 L4.52,8.53 L4.94,8.1 C4.83,8 4.69,7.9 4.68,7.74 C4.67,7.58 4.97,7.53 4.96,7.34 C4.95,7.15 4.69,7.17 4.65,7.01 C4.61,6.85 4.78,6.72 4.89,6.61 L3.12,5.11 C2.59482794,5.76549749 2.14843849,6.48039187 1.79,7.24 L1.79,7.25 Z M16.98,6.5 C17.0680375,6.64935374 17.1417011,6.80672604 17.2,6.97 C17.2,7.15 17.03,7.26 16.95,7.41 C16.87,7.56 17.16,7.57 17.2,7.7 C17.24,7.83 17.13,7.98 17.02,8.07 C17.1838513,8.19054075 17.2948919,8.36963851 17.33,8.57 L19.92,7.25 C19.581527,6.53973218 19.1656748,5.86900269 18.68,5.25 L17,6.49 L16.98,6.5 Z M5.13,6.23 C5.13,6.38 5.3,6.43 5.33,6.57 C5.36,6.71 5.09,6.82 5.08,7 C5.07,7.18 5.3,7.28 5.42,7.41 C5.31,7.49 5.13,7.54 5.1,7.69 C5.07,7.84 5.26,8.04 5.39,8.18 C5.26,8.28 5.02,8.33 5.02,8.53 C5.02,9.57666667 5.02,10.62 5.02,11.66 L4.57,11.66 L4.57,11.12 L0.82,10.94 C0.762985934,11.7279025 0.79653857,12.5197447 0.92,13.3 L4.57,13.3 L4.57,11.66 L5.03,11.66 C5.03,12.53 5.03,13.41 5.03,14.28 C5.14502076,14.9809681 5.47732937,15.6280954 5.98,16.13 C6.39110253,16.5433086 6.94713578,16.7800711 7.53,16.79 C8.03893234,16.7822146 8.52696355,16.5862897 8.9,16.24 C9.42414849,15.7207389 9.79446678,15.0666253 9.97,14.35 C9.97,14.26 10.05,14.16 9.97,14.06 C9.94886574,14.0218021 9.90865474,13.9980948 9.865,13.9980948 C9.82134526,13.9980948 9.78113426,14.0218021 9.76,14.06 C9.56241043,14.3621091 9.27066365,14.5905855 8.93,14.71 C8.45454663,14.8577449 7.94545337,14.8577449 7.47,14.71 C7.03218012,14.6208781 6.64746782,14.3620062 6.4,13.99 C6.34,13.41 6.4,12.83 6.34,12.25 C6.34,10.97 6.34,9.68 6.34,8.4 C6.34,8.23 6.07,8.23 6.09,8.06 C6.1886863,7.99802338 6.2793682,7.92413442 6.36,7.84 C6.45309534,7.73423439 6.45309534,7.57576561 6.36,7.47 C6.27,7.41 6.16,7.37 6.07,7.31 C6.16,7.2 6.33,7.18 6.41,7.06 C6.48027884,6.93512938 6.44077338,6.77710756 6.32,6.7 C6.21,6.63 6.09,6.59 5.99,6.52 C6.08707484,6.40575228 6.20187026,6.30783853 6.33,6.23 C6.36910311,6.2120807 6.39417424,6.17301342 6.39417424,6.13 C6.39417424,6.08698658 6.36910311,6.0479193 6.33,6.03 C6.01,6.03 5.69,6.03 5.33,6.03 C5.23,6.03 5.09,6.03 5.05,6.14 L5.13,6.23 Z M15.55,6.14 C15.61,6.24 15.74,6.29 15.79,6.4 C15.84,6.51 15.71,6.54 15.65,6.6 C15.5181802,6.67677193 15.4561604,6.83388883 15.5,6.98 C15.55,7.12 15.71,7.16 15.81,7.25 C15.91,7.34 15.71,7.34 15.65,7.38 C15.5245641,7.42234557 15.4483351,7.5493939 15.47,7.68 C15.47,7.86 15.67,7.94 15.79,8.04 C15.74,8.2 15.48,8.21 15.52,8.4 C15.52,9.3 15.52,10.2 15.52,11.1 C15.52,12 15.52,12.9 15.52,13.8 C15.5076865,13.9848609 15.4120257,14.1541069 15.26,14.26 C14.8702238,14.5731918 14.3896932,14.7520754 13.89,14.77 C13.3803636,14.8168401 12.8721617,14.6665269 12.47,14.35 C12.3416674,14.244329 12.2303643,14.1195346 12.14,13.98 C12.1177671,13.9464826 12.0802209,13.9263325 12.04,13.9263325 C11.9997791,13.9263325 11.9622329,13.9464826 11.94,13.98 C11.89,14.06 11.94,14.15 11.94,14.23 C12.0746739,14.7637097 12.3050725,15.2685537 12.62,15.72 C12.870207,16.0886647 13.2158419,16.3824543 13.62,16.57 C14.1329688,16.7955467 14.7170312,16.7955467 15.23,16.57 C15.9083665,16.2328967 16.4285457,15.6445561 16.68,14.93 C16.8032886,14.6458541 16.8679141,14.3397332 16.87,14.03 C16.87,12.17 16.87,10.31 16.87,8.45 C16.87,8.25 16.63,8.21 16.51,8.1 C16.64,7.97 16.8,7.84 16.8,7.65 C16.8,7.46 16.6,7.43 16.48,7.33 C16.59,7.2 16.8,7.11 16.82,6.92 C16.84,6.73 16.6,6.65 16.57,6.48 C16.54,6.31 16.71,6.32 16.76,6.22 C16.81,6.12 16.68,6.03 16.58,6.04 C16.25,6.04 15.91,6.04 15.58,6.04 C15.5379659,6.03087357 15.4944687,6.04708472 15.4686606,6.08149545 C15.4428526,6.11590619 15.4394691,6.1622027 15.46,6.2 L15.55,6.14 Z M1.36,7.79 C1.06192589,8.5670041 0.853901413,9.37561537 0.74,10.2 L4.48,10.55 C4.48,10.03 4.48,9.55 4.48,8.98 L1.39,7.79 L1.36,7.79 Z M17.14,9.01 C17.14,9.54 17.14,10.08 17.14,10.61 L20.65,10.2 C20.5330221,9.38272232 20.3250646,8.58107947 20.03,7.81 L17.1,9.01 L17.14,9.01 Z M13.3,9.49 C13.3,9.73 13.3,9.98 13.3,10.22 L15.01,9.44 C15.01,9.09 15.01,8.73 15.01,8.37 C15.1088939,8.22001198 15.1706001,8.04860585 15.19,7.87 C14.54,8.39 13.92,8.95 13.29,9.49 L13.3,9.49 Z M6.35,8.25 C6.35,8.32 6.46,8.33 6.52,8.36 C6.52,8.73 6.52,9.1 6.52,9.47 L8.25,10.33 C8.25,10.03 8.25,9.73 8.25,9.43 C7.74,9.07 7.25,8.63 6.8,8.26 C6.6905369,8.16797628 6.56513073,8.0967998 6.43,8.05 C6.31,8.05 6.31,8.18 6.33,8.25 L6.35,8.25 Z M6.5,9.8 C6.5,10.02 6.5,10.25 6.5,10.47 L8.23,10.47 L6.5,9.75 L6.5,9.8 Z M13.29,10.52 L14.93,10.45 C14.93,10.24 14.93,10.02 14.93,9.8 L13.26,10.51 L13.29,10.52 Z M17.02,11.06 C17.02,11.78 17.02,12.5 17.02,13.22 L20.54,13.22 C20.6597125,12.4158153 20.6898968,11.6008369 20.63,10.79 L16.99,11.06 L17.02,11.06 Z M7.27,10.97 C7.25687793,11.1063517 7.25687793,11.2436483 7.27,11.38 C7.18094042,11.2508893 7.0840942,11.1273268 6.98,11.01 C6.94962671,10.9755599 6.90592009,10.9558301 6.86,10.9558301 C6.81407991,10.9558301 6.77037329,10.9755599 6.74,11.01 C6.68615309,11.0734487 6.68615309,11.1665513 6.74,11.23 L7.19,11.8 C7.04,11.99 6.86,12.17 6.72,12.37 C6.58,12.57 6.86,12.67 6.98,12.55 C7.1,12.43 7.26,12.23 7.4,12.07 C7.52,12.22 7.63,12.39 7.77,12.54 C7.80230091,12.5783325 7.84987285,12.6004555 7.9,12.6004555 C7.95012715,12.6004555 7.99769909,12.5783325 8.03,12.54 C8.03,12.48 8.03,12.41 8.03,12.35 C7.8823196,12.1856416 7.74536991,12.0119493 7.62,11.83 C7.79,11.63 7.96,11.44 8.12,11.24 C8.28,11.04 8.03,10.93 7.9,11.02 C7.79298026,11.1168054 7.69583706,11.2239978 7.61,11.34 C7.62595252,11.2205302 7.62595252,11.0994698 7.61,10.98 C7.58253429,10.9190273 7.52187326,10.8798212 7.455,10.8798212 C7.38812674,10.8798212 7.32746571,10.9190273 7.3,10.98 L7.27,10.97 Z M8.92,10.98 C8.91295752,11.1065688 8.91295752,11.2334312 8.92,11.36 C8.82713164,11.2310512 8.72696827,11.1075164 8.62,10.99 C8.5782707,10.9535729 8.52066884,10.9413207 8.46772638,10.9576107 C8.41478392,10.9739007 8.37403333,11.0164152 8.36,11.07 C8.34676893,11.1393938 8.36931513,11.2107902 8.42,11.26 L8.84,11.8 L8.42,12.29 C8.3635744,12.3354796 8.33992702,12.410363 8.36,12.48 C8.38147099,12.5305017 8.42599972,12.5675332 8.47956943,12.5794376 C8.53313915,12.5913419 8.58916084,12.576655 8.63,12.54 C8.77,12.39 8.9,12.22 9.04,12.06 L9.38,12.5 C9.4215932,12.568016 9.50297321,12.600568 9.58,12.58 C9.63172221,12.5670388 9.67358884,12.5291634 9.69164986,12.4789939 C9.70971087,12.4288245 9.70159258,12.3729545 9.67,12.33 L9.27,11.81 C9.44,11.61 9.62,11.42 9.77,11.21 C9.92,11 9.65,10.91 9.53,11.01 C9.43257792,11.1066269 9.34233821,11.2102355 9.26,11.32 C9.27538208,11.2004929 9.27538208,11.0795071 9.26,10.96 C9.23253429,10.8990273 9.17187326,10.8598212 9.105,10.8598212 C9.03812674,10.8598212 8.97746571,10.8990273 8.95,10.96 L8.92,10.98 Z M10.61,10.96 C10.5966905,11.0963426 10.5966905,11.2336574 10.61,11.37 C10.5163062,11.2240121 10.4055227,11.089729 10.28,10.97 C10.2135268,10.9446208 10.1382805,10.9633241 10.0914257,11.0168725 C10.0445709,11.0704208 10.0360215,11.1474839 10.07,11.21 L10.53,11.8 C10.38,11.99 10.2,12.17 10.06,12.37 C9.92,12.57 10.17,12.66 10.3,12.57 C10.43,12.48 10.59,12.24 10.74,12.07 L11.02,12.43 C11.08,12.51 11.17,12.63 11.29,12.58 C11.41,12.53 11.41,12.42 11.38,12.32 C11.2335953,12.1580636 11.0966991,11.9877781 10.97,11.81 C11.13,11.61 11.31,11.42 11.47,11.22 C11.63,11.02 11.38,10.92 11.25,11 C11.1434264,11.0972509 11.0463243,11.2043981 10.96,11.32 C10.9738436,11.203744 10.9738436,11.086256 10.96,10.97 C10.9325343,10.9090273 10.8718733,10.8698212 10.805,10.8698212 C10.7381267,10.8698212 10.6774657,10.9090273 10.65,10.97 L10.61,10.96 Z M12.36,10.97 C12.3472727,11.1030296 12.3472727,11.2369704 12.36,11.37 C12.2706707,11.241088 12.1738368,11.1175413 12.07,11 C12.0396267,10.9655599 11.9959201,10.9458301 11.95,10.9458301 C11.9040799,10.9458301 11.8603733,10.9655599 11.83,11 C11.7761531,11.0634487 11.7761531,11.1565513 11.83,11.22 L12.27,11.79 L11.83,12.31 C11.7955599,12.3403733 11.7758301,12.3840799 11.7758301,12.43 C11.7758301,12.4759201 11.7955599,12.5196267 11.83,12.55 C11.8950316,12.6097335 11.9949684,12.6097335 12.06,12.55 L12.46,12.09 C12.58,12.24 12.69,12.41 12.82,12.56 C12.8521667,12.6020297 12.9020737,12.6266801 12.955,12.6266801 C13.0079263,12.6266801 13.0578333,12.6020297 13.09,12.56 C13.09,12.5 13.09,12.43 13.09,12.37 C12.9429947,12.2050743 12.8060791,12.0314252 12.68,11.85 C12.85,11.65 13.02,11.46 13.18,11.26 C13.34,11.06 13.09,10.96 12.96,11.04 C12.8535528,11.1373769 12.756462,11.2445116 12.67,11.36 C12.6854929,11.2405001 12.6854929,11.1194999 12.67,11 C12.6425343,10.9390273 12.5818733,10.8998212 12.515,10.8998212 C12.4481267,10.8998212 12.3874657,10.9390273 12.36,11 L12.36,10.97 Z M14.01,11 C14.0015411,11.1298624 14.0015411,11.2601376 14.01,11.39 C13.9168972,11.2553205 13.8132375,11.1282538 13.7,11.01 C13.637525,10.9569724 13.5450842,10.9597185 13.485867,11.016361 C13.4266498,11.0730035 13.4198001,11.1652311 13.47,11.23 L13.93,11.83 L13.51,12.32 C13.4518767,12.3687172 13.4282919,12.4473334 13.45,12.52 C13.4703266,12.5742808 13.5169085,12.6144647 13.5735837,12.6266093 C13.6302589,12.638754 13.6892163,12.6211857 13.73,12.58 C13.87,12.43 14,12.26 14.14,12.11 C14.26,12.26 14.37,12.42 14.5,12.57 C14.5375129,12.6164446 14.5969541,12.6393482 14.6559327,12.6300834 C14.7149113,12.6208185 14.764467,12.5807928 14.7859327,12.5250833 C14.8073984,12.4693739 14.7975129,12.4064445 14.76,12.36 L14.37,11.85 C14.53,11.65 14.71,11.47 14.86,11.27 C15.01,11.07 14.77,10.95 14.63,11.05 C14.529577,11.1467019 14.4360169,11.2502862 14.35,11.36 C14.3638436,11.243744 14.3638436,11.126256 14.35,11.01 C14.3225343,10.9490273 14.2618733,10.9098212 14.195,10.9098212 C14.1281267,10.9098212 14.0674657,10.9490273 14.04,11.01 L14.01,11 Z M6.48,13.01 C6.42612225,13.0462782 6.39952296,13.1115285 6.41268284,13.1751346 C6.42584273,13.2387407 6.47615005,13.2880793 6.54,13.3 C6.68,13.3 6.81,13.3 6.95,13.3 L15.1,13.3 C15.1897085,13.3154728 15.2777861,13.2651427 15.31,13.18 C15.3231243,13.126716 15.3097201,13.0703736 15.274007,13.0287083 C15.2382938,12.987043 15.1846643,12.9651795 15.13,12.97 L6.65,12.97 C6.59444044,12.9541588 6.53555956,12.9541588 6.48,12.97 L6.48,13.01 Z M8.35,13.42 C7.89406141,13.6633337 7.49785585,14.0048903 7.19,14.42 C7.75,14.42 8.32,14.42 8.88,14.42 C9.08977344,14.32456 9.28503134,14.1999989 9.46,14.05 C9.65539529,13.8548252 9.81154863,13.6239898 9.92,13.37 C9.4,13.37 8.92,13.37 8.35,13.37 L8.35,13.42 Z M11.78,13.37 C11.8587756,13.5380596 11.9524854,13.6987048 12.06,13.85 C12.2565075,14.0908607 12.5064539,14.2826004 12.79,14.41 C12.8425258,14.4231251 12.8974742,14.4231251 12.95,14.41 L14.52,14.41 C14.2822132,14.0742913 13.9837513,13.7860043 13.64,13.56 C13.52,13.49 13.41,13.36 13.25,13.38 L11.79,13.38 L11.78,13.37 Z M2.84,14.38 C2.61875486,14.535449 2.34910277,14.60641 2.08,14.58 C1.65373705,14.4602184 1.26712328,14.2289405 0.96,13.91 C1.04213618,14.3323103 1.15920524,14.7470692 1.31,15.15 L5.07,15.15 C4.86763226,14.7562045 4.75493688,14.322498 4.74,13.88 C4.52578469,13.8020831 4.29569459,13.7780438 4.07,13.81 C3.63453282,13.9162413 3.22143293,14.0990888 2.85,14.35 L2.84,14.38 Z M17.04,13.89 C17.0236025,14.329099 16.9109477,14.7592355 16.71,15.15 L20.21,15.15 C20.33,14.82 20.42,14.49 20.51,14.15 C20.278352,14.3540496 20.0002485,14.4982514 19.7,14.57 C19.4976847,14.6033462 19.2900278,14.5681501 19.11,14.47 C18.7636336,14.2672849 18.4064328,14.083677 18.04,13.92 C17.7178614,13.7978269 17.3621386,13.7978269 17.04,13.92 L17.04,13.89 Z M10.53,14.4 C10.2159736,14.4336491 9.95433616,14.6556445 9.87,14.96 C9.81,14.96 9.87,15.12 9.92,15.18 C9.97970964,15.1883479 10.0402904,15.1883479 10.1,15.18 L11.9,15.12 C11.9246679,14.8814609 11.8072806,14.6505992 11.6,14.53 C11.2655316,14.3647086 10.8855585,14.3154528 10.52,14.39 L10.53,14.4 Z M10.64,15.39 C10.0623918,15.5040642 9.54059901,15.8107938 9.16,16.26 C9.06512124,16.3598847 8.98740694,16.4747667 8.93,16.6 C8.93,16.69 9.01,16.76 9.09,16.74 L12.74,16.74 C12.85,16.74 12.87,16.6 12.81,16.53 C12.4915282,16.0428262 12.0305905,15.6656954 11.49,15.45 C11.2164425,15.357726 10.9238072,15.3370694 10.64,15.39 Z M1.56,15.76 C1.7,16.07 1.84,16.37 2.01,16.66 L6.39,16.66 C6.02616064,16.4735999 5.68967665,16.2380611 5.39,15.96 C5.31332102,15.8764554 5.24930677,15.7821186 5.2,15.68 C5.07021273,15.7442452 4.94922143,15.8249061 4.84,15.92 C4.63321532,16.0641203 4.37963364,16.1248371 4.13,16.09 C3.54,16 3.13,15.5 2.52,15.42 C2.17246218,15.4062222 1.83389645,15.5322839 1.58,15.77 L1.56,15.76 Z M19.24,15.42 C18.67,15.51 18.24,15.96 17.7,16.08 C17.4818245,16.1174455 17.2576343,16.096751 17.05,16.02 C16.8948969,15.898247 16.7311302,15.7879551 16.56,15.69 C16.5135317,15.7913697 16.4529289,15.8856407 16.38,15.97 C16.0810332,16.2516858 15.7445046,16.490621 15.38,16.68 L19.56,16.68 C19.7455223,16.3564326 19.9124594,16.0225583 20.06,15.68 C19.8389745,15.5056289 19.5608189,15.4200426 19.28,15.44 L19.24,15.42 Z M4.09,17 C3.61304829,17.2110156 3.15475541,17.4619058 2.72,17.75 C2.8813648,17.9823706 3.05494199,18.2060181 3.24,18.42 L18.47,18.47 C18.6952978,18.2052854 18.9056257,17.9281867 19.1,17.64 C18.6995719,17.2889313 18.2129108,17.050778 17.69,16.95 C17.4784143,16.9132677 17.2608481,16.9339883 17.06,17.01 C16.670277,17.1816792 16.2956318,17.385727 15.94,17.62 C15.7128094,17.7597588 15.4391989,17.8029605 15.18,17.74 C14.7525701,17.5632434 14.3352637,17.3629363 13.93,17.14 C13.6444056,16.9905634 13.3169319,16.9412663 13,17 C12.34,17.14 11.81,17.61 11.14,17.74 C10.7847932,17.7761887 10.4287224,17.6800496 10.14,17.47 C9.70227145,17.1524388 9.1803598,16.9715095 8.64,16.95 C8.13013712,17.0136164 7.65023389,17.2257475 7.26,17.56 C7.02227811,17.7533848 6.70901116,17.8270946 6.41,17.76 C5.82,17.59 5.41,17.09 4.79,16.93 C4.5528995,16.8750184 4.30451126,16.896009 4.08,16.99 L4.09,17 Z M6.24,18.62 C5.52695419,18.8318461 4.82592439,19.0822139 4.14,19.37 C4.35,19.56 4.56,19.75 4.79,19.92 C4.83496555,19.9378197 4.88503445,19.9378197 4.93,19.92 L16.62,19.92 C16.72,19.92 16.84,19.92 16.92,19.87 C17,19.82 17.33,19.53 17.53,19.36 C16.8618193,18.7864731 16.0105668,18.4708003 15.13,18.47 C14.7667263,18.4705076 14.4143011,18.5938564 14.13,18.82 C13.7910872,19.0780735 13.3584302,19.1798752 12.94,19.1 C12.41,19.03 12.01,18.64 11.48,18.55 C10.9565783,18.4848799 10.4254711,18.5716622 9.95,18.8 C9.55602399,19.0192724 9.11078045,19.1297205 8.66,19.12 C8.08839007,18.9462673 7.52743201,18.7392471 6.98,18.5 C6.75463214,18.4347193 6.51536786,18.4347193 6.29,18.5 L6.24,18.62 Z M8.29,20.28 C7.76812249,20.4444851 7.28027825,20.7019584 6.85,21.04 C9.51460313,22.2384671 12.5739968,22.1908359 15.2,20.91 C14.6216672,20.5369484 13.9642117,20.3040996 13.28,20.23 C12.8177572,20.2383404 12.3685473,20.3845948 11.99,20.65 C11.6995143,20.8722662 11.3536387,21.0106164 10.99,21.05 C10.55,21.05 10.26,20.66 9.89,20.46 C9.38547895,20.2151667 8.80134473,20.1933978 8.28,20.4 L8.29,20.28 Z" id="Shape"></path>
                </g>
                <g id="_ff9c10ff" transform="translate(25.000000, 13.000000)" fill="#F5BB43">
                    <path d="M6.24,1.53 C6.9303134,1.16105728 7.66214219,0.875711188 8.42,0.68 L8.76,1.29 C8.61849581,1.44713776 8.52482122,1.6414258 8.49,1.85 C8.41,3.35 8.38,4.52 8.36,5.71 C7.65333333,4.32333333 6.94666667,2.93 6.24,1.53 Z" id="Shape"></path>
                    <path d="M12.62,3.6 L13.51,0.73 C14.3281427,0.956922674 15.1118923,1.29329587 15.84,1.73 L13.49,5.79 C13.49,5.18 13.49,4.57 13.49,3.96 C13.49,3.86 13.42,3.96 13.28,3.89 C13.14,3.82 12.91,3.64 12.62,3.6 Z" id="Shape"></path>
                    <path d="M3.69,3.48 C4.23930665,2.90441919 4.85339351,2.39435797 5.52,1.96 L8.34,6.24 C8.34,6.32 8.47,6.4 8.46,6.51 C8.46,7.03666667 8.46,7.56 8.46,8.08 L6.87,6.59 C6.79,6.51 6.62,6.53 6.58,6.4 C6.54,6.27 6.66,6.22 6.73,6.15 C6.79460055,6.08412329 6.81766522,5.9880205 6.79,5.9 C6.79,5.75 6.53,5.72 6.49,5.56 C6.45,5.4 6.66,5.34 6.68,5.19 C6.71740052,5.08706427 6.68037246,4.97186585 6.59,4.91 C6.45172024,4.86311572 6.30583209,4.84275924 6.16,4.85 C5.86498341,4.80574968 5.56501659,4.80574968 5.27,4.85 C5.20094843,4.87439685 5.13907846,4.91564349 5.09,4.97 L3.69,3.48 Z" id="Shape"></path>
                    <path d="M16.4,2.06 C17.0865462,2.5262442 17.7144056,3.07352271 18.27,3.69 L17,5 C16.9430569,4.95000028 16.8741656,4.91555463 16.8,4.9 C16.5269865,4.88130037 16.2530135,4.88130037 15.98,4.9 C15.789927,4.88344799 15.5990858,4.92161623 15.43,5.01 C15.34,5.08 15.36,5.2 15.43,5.29 C15.5,5.38 15.55,5.39 15.6,5.45 C15.6169494,5.51897399 15.6169494,5.59102601 15.6,5.66 C15.6,5.81 15.35,5.83 15.35,5.99 C15.35,6.15 15.5,6.17 15.59,6.26 C15.5656337,6.31514069 15.5278103,6.36327955 15.48,6.4 L13.54,8.2 C13.54,7.65 13.54,7.09 13.54,6.54 C13.54,6.43 13.62,6.36 13.67,6.27 L16.4,2.06 Z" id="Shape"></path>
                    <path d="M1.81,6.22 C2.16843849,5.46039187 2.61482794,4.74549749 3.14,4.09 L4.91,5.59 C4.8,5.7 4.66,5.82 4.67,5.99 C4.68,6.16 4.93,6.16 4.98,6.32 C5.03,6.48 4.72,6.55 4.7,6.72 C4.68,6.89 4.85,6.98 4.96,7.08 L4.54,7.51 L1.81,6.22 Z" id="Shape"></path>
                    <path d="M17,5.49 L18.71,4.23 C19.1956748,4.84900269 19.611527,5.51973218 19.95,6.23 L17.36,7.55 C17.3248919,7.34963851 17.2138513,7.17054075 17.05,7.05 C17.16,6.96 17.27,6.83 17.23,6.68 C17.19,6.53 17,6.52 16.98,6.39 C16.96,6.26 17.23,6.13 17.23,5.95 C17.167925,5.78979474 17.0909192,5.63578316 17,5.49 Z" id="Shape"></path>
                    <path d="M1.54,6.85 L4.63,8.04 C4.63,8.56 4.63,9.04 4.63,9.61 L0.89,9.26 C1.01357943,8.43440862 1.23167842,7.62576466 1.54,6.85 Z" id="Shape"></path>
                    <path d="M17.3,8.07 L20.23,6.87 C20.5250646,7.64107947 20.7330221,8.44272232 20.85,9.26 L17.34,9.67 C17.32,9.13 17.31,8.6 17.3,8.07 Z" id="Shape"></path>
                    <path d="M13.49,8.54 C14.12,8 14.74,7.44 15.39,6.92 C15.3706001,7.09860585 15.3088939,7.27001198 15.21,7.42 C15.21,7.77 15.21,8.13 15.21,8.49 L13.5,9.27 C13.5,9 13.5,8.79 13.49,8.54 Z" id="Shape"></path>
                    <path d="M6.55,7.3 C6.55,7.23 6.55,7.07 6.65,7.1 C6.78513073,7.1467998 6.9105369,7.21797628 7.02,7.31 C7.52,7.68 7.96,8.12 8.47,8.48 C8.47,8.78 8.47,9.08 8.47,9.38 L6.74,8.52 C6.74,8.15 6.74,7.78 6.74,7.41 C6.66,7.38 6.57,7.38 6.55,7.3 Z" id="Shape"></path>
                    <path d="M6.72,8.85 L8.45,9.57 L6.72,9.57 C6.72,9.3 6.72,9.08 6.72,8.85 Z" id="Shape"></path>
                    <path d="M13.51,9.62 L15.18,8.91 C15.18,9.12 15.18,9.34 15.18,9.56 L13.51,9.62 Z" id="Shape"></path>
                    <path d="M17.27,10.17 L20.91,9.9 C20.9698968,10.7108369 20.9397125,11.5258153 20.82,12.33 L17.3,12.33 C17.2866667,11.61 17.2766667,10.89 17.27,10.17 Z" id="Shape"></path>
                    <path d="M0.85,9.94 L4.6,10.12 L4.6,12.34 L0.95,12.34 C0.82344976,11.5466108 0.789889589,10.7411667 0.85,9.94 Z" id="Shape"></path>
                </g>
                <g id="_083d9cff" transform="translate(26.000000, 25.000000)" fill="#4A88DC">
                    <path d="M2,1.47 C2.37143293,1.21908876 2.78453282,1.03624127 3.22,0.93 C3.44569459,0.898043813 3.67578469,0.922083078 3.89,1 C3.90493688,1.44249802 4.01763226,1.87620448 4.22,2.27 L0.46,2.27 C0.309205236,1.86706919 0.19213618,1.45231025 0.11,1.03 C0.417123281,1.34894048 0.803737054,1.58021836 1.23,1.7 C1.50617835,1.72027257 1.78018618,1.63842608 2,1.47 Z" id="Shape"></path>
                    <path d="M16.16,1 C16.4821386,0.877826941 16.8378614,0.877826941 17.16,1 C17.5264328,1.16367699 17.8836336,1.34728486 18.23,1.55 C18.4100278,1.64815008 18.6176847,1.68334617 18.82,1.65 C19.1202485,1.57825137 19.398352,1.43404956 19.63,1.23 C19.54,1.57 19.45,1.9 19.33,2.23 L15.83,2.23 C16.0267577,1.84834119 16.1392928,1.42889187 16.16,1 Z" id="Shape"></path>
                    <path d="M9.65,1.48 C10.0155585,1.40545284 10.3955316,1.45470861 10.73,1.62 C10.9372806,1.74059919 11.0546679,1.97146086 11.03,2.21 L9.23,2.27 C9.17029036,2.2783479 9.10970964,2.2783479 9.05,2.27 C8.96,2.21 9,2.05 9,2.05 C9.0794968,1.7448189 9.337051,1.51896368 9.65,1.48 Z" id="Shape"></path>
                    <path d="M9.76,2.51 C10.0438072,2.45706941 10.3364425,2.47772601 10.61,2.57 C11.1505905,2.78569542 11.6115282,3.16282621 11.93,3.65 C11.99,3.72 11.93,3.86 11.86,3.86 L8.21,3.86 C8.12,3.86 8.03,3.86 8.05,3.72 C8.10740694,3.59476671 8.18512124,3.4798847 8.28,3.38 C8.66059901,2.93079379 9.18239184,2.62406422 9.76,2.51 Z" id="Shape"></path>
                    <path d="M0.68,2.88 C0.933896446,2.64228387 1.27246218,2.51622216 1.62,2.53 C2.21,2.62 2.62,3.11 3.23,3.2 C3.47963364,3.23483709 3.73321532,3.17412035 3.94,3.03 C4.04922143,2.93490606 4.17021273,2.85424519 4.3,2.79 C4.34930677,2.89211861 4.41332102,2.98645539 4.49,3.07 C4.78967665,3.34806111 5.12616064,3.5835999 5.49,3.77 L1.11,3.77 C1,3.49 0.82,3.18 0.68,2.88 Z" id="Shape"></path>
                    <path d="M18.34,2.53 C18.6208189,2.51004258 18.8989745,2.59562891 19.12,2.77 C18.9724594,3.11255827 18.8055223,3.44643258 18.62,3.77 L14.44,3.77 C14.8045046,3.58062102 15.1410332,3.34168576 15.44,3.06 C15.5129289,2.97564074 15.5735317,2.88136969 15.62,2.78 C15.7911302,2.87795514 15.9548969,2.98824703 16.11,3.11 C16.3176343,3.18675102 16.5418245,3.2074455 16.76,3.17 C17.36,3.06 17.78,2.61 18.34,2.53 Z" id="Shape"></path>
                    <path d="M3.09,4 C3.31451126,3.90600896 3.5628995,3.8850184 3.8,3.94 C4.4,4.1 4.8,4.6 5.42,4.77 C5.71901116,4.83709463 6.03227811,4.76338476 6.27,4.57 C6.66023389,4.23574753 7.14013712,4.0236164 7.65,3.96 C8.1903598,3.98150948 8.71227145,4.16243885 9.15,4.48 C9.43872243,4.69004957 9.79479324,4.78618868 10.15,4.75 C10.81,4.62 11.34,4.15 12.01,4.01 C12.3118735,3.95410429 12.6237102,3.99614969 12.9,4.13 C13.3052637,4.35293629 13.7225701,4.55324338 14.15,4.73 C14.4091989,4.79296051 14.6828094,4.74975885 14.91,4.61 C15.2656318,4.37572701 15.640277,4.17167921 16.03,4 C16.2308481,3.9239883 16.4484143,3.90326771 16.66,3.94 C17.1829108,4.04077799 17.6695719,4.27893126 18.07,4.63 C17.8756257,4.91818668 17.6652978,5.1952854 17.44,5.46 L2.21,5.41 C2.02494199,5.19601815 1.8513648,4.97237062 1.69,4.74 C2.13470555,4.45385291 2.60308068,4.2062832 3.09,4 Z" id="Shape"></path>
                    <path d="M5.25,5.62 C5.47536786,5.55471928 5.71463214,5.55471928 5.94,5.62 C6.48743201,5.85924706 7.04839007,6.0662673 7.62,6.24 C8.07078045,6.24972045 8.51602399,6.13927245 8.91,5.92 C9.38547106,5.69166216 9.9165783,5.60487994 10.44,5.67 C10.96,5.75 11.37,6.14 11.9,6.22 C12.3184302,6.29987517 12.7510872,6.19807352 13.09,5.94 C13.3743011,5.71385638 13.7267263,5.59050756 14.09,5.59 C14.9705668,5.59080029 15.8218193,5.90647308 16.49,6.48 C16.29,6.66 16.09,6.83 15.88,6.99 C15.67,7.15 15.68,6.99 15.58,7.04 L3.89,7.04 C3.84503445,7.05781971 3.79496555,7.05781971 3.75,7.04 C3.53,6.87 3.31,6.68 3.1,6.49 C3.79973393,6.15979506 4.51754133,5.86933347 5.25,5.62 Z" id="Shape"></path>
                    <path d="M7.28,7.4 C7.8010666,7.25067584 8.36042726,7.31924263 8.83,7.59 C9.19,7.79 9.49,8.14 9.93,8.18 C10.2936387,8.14061642 10.6395143,8.00226618 10.93,7.78 C11.3085473,7.51459483 11.7577572,7.36834042 12.22,7.36 C12.9042117,7.43409958 13.5616672,7.66694842 14.14,8.04 C11.5139968,9.32083585 8.45460313,9.36846713 5.79,8.17 C6.23453507,7.82302352 6.73982236,7.5619019 7.28,7.4 Z" id="Shape"></path>
                </g>
                <g id="_630810ff" transform="translate(30.000000, 13.000000)" fill="#EC5565">
                    <path d="M3.49,12.57 C4.01,12.57 4.49,12.57 5.06,12.57 C4.95154863,12.8239898 4.79539529,13.0548252 4.6,13.25 C4.42503134,13.3999989 4.22977344,13.52456 4.02,13.62 C3.46,13.62 2.9,13.62 2.33,13.62 C2.63221604,13.1867183 3.02884932,12.8276968 3.49,12.57 Z" id="Shape"></path>
                    <path d="M6.92,12.53 L8.38,12.53 C8.53,12.53 8.64,12.64 8.77,12.71 C9.11375127,12.9360043 9.41221318,13.2242913 9.65,13.56 L8.08,13.56 C8.02747417,13.5731251 7.97252583,13.5731251 7.92,13.56 C7.63645389,13.4326004 7.38650751,13.2408607 7.19,13 C7.08644982,12.8515172 6.99610456,12.6942495 6.92,12.53 Z" id="Shape"></path>
                    <path d="M5.67,0.45 C6.38993511,0.377936586 7.11624139,0.40147429 7.83,0.52 C7.89,0.52 7.97,0.52 7.97,0.63 C7.97,0.74 7.87,0.77 7.79,0.77 C7.28558829,0.775594133 6.80387121,0.980503635 6.45,1.34 C6.18481848,1.67973816 6.09922981,2.12628776 6.22,2.54 C6.3518311,3.05771819 6.66835893,3.50939273 7.11,3.81 C7.33953415,3.96867963 7.61099009,4.05568474 7.89,4.06 C7.95,4.06 8.03,4.06 8.06,4.12 C8.0688105,4.1763242 8.0688105,4.2336758 8.06,4.29 C8.06,6.04 8.06,7.79 8.06,9.54 C8.06573294,9.57453906 8.05729188,9.60993046 8.03658728,9.638164 C8.01588268,9.66639755 7.98466508,9.68508615 7.95,9.69 L7.73,9.64 L4.13,8.64 C4.03,8.64 4.03,8.52 4.03,8.44 C4.03,6.21 4.03,3.98 4.03,1.75 C4.14091613,1.45896929 4.29977913,1.18856418 4.5,0.95 C4.81805004,0.644933057 5.2309271,0.457903278 5.67,0.42" id="Shape" stroke="#FFFFFF" stroke-width="1.05" stroke-linecap="round" stroke-linejoin="round"></path>
                    <path d="M0.14,5.23 C0.14,5.12 0.32,5.12 0.42,5.12 C0.74,5.12 1.06,5.12 1.42,5.12 C1.45910311,5.1379193 1.48417424,5.17698658 1.48417424,5.22 C1.48417424,5.26301342 1.45910311,5.3020807 1.42,5.32 C1.29187026,5.39783853 1.17707484,5.49575228 1.08,5.61 C1.18,5.69 1.3,5.73 1.41,5.79 C1.53077338,5.86710756 1.57027884,6.02512938 1.5,6.15 C1.42,6.27 1.25,6.29 1.16,6.4 C1.25,6.46 1.36,6.49 1.45,6.56 C1.54309534,6.66576561 1.54309534,6.82423439 1.45,6.93 C1.3693682,7.01413442 1.2786863,7.08802338 1.18,7.15 C1.18,7.32 1.45,7.31 1.43,7.49 C1.43,8.77 1.43,10.06 1.43,11.34 C1.43,11.92 1.43,12.5 1.49,13.08 C1.73746782,13.4520062 2.12218012,13.7108781 2.56,13.8 C3.03545337,13.9477449 3.54454663,13.9477449 4.02,13.8 C4.36066365,13.6805855 4.65241043,13.4521091 4.85,13.15 C4.87113426,13.1118021 4.91134526,13.0880948 4.955,13.0880948 C4.99865474,13.0880948 5.03886574,13.1118021 5.06,13.15 C5.06,13.25 5.06,13.34 5.06,13.44 C4.88446678,14.1566253 4.51414849,14.8107389 3.99,15.33 C3.61696355,15.6762897 3.12893234,15.8722146 2.62,15.88 C2.03713578,15.8700711 1.48110253,15.6333086 1.07,15.22 C0.567329372,14.7180954 0.235020763,14.0709681 0.12,13.37 C0.12,12.5 0.12,11.62 0.12,10.75 C0.12,9.70333333 0.12,8.66 0.12,7.62 C0.12,7.42 0.35,7.37 0.49,7.27 C0.36,7.13 0.18,6.99 0.2,6.78 C0.22,6.57 0.41,6.58 0.52,6.5 C0.41,6.36 0.2,6.28 0.18,6.09 C0.16,5.9 0.39,5.82 0.43,5.66 C0.47,5.5 0.21,5.47 0.23,5.32" id="Shape" stroke="#FFFFFF" stroke-width="1.05" stroke-linecap="round" stroke-linejoin="round"></path>
                    <path d="M10.64,5.26 C10.6194691,5.2222027 10.6228526,5.17590619 10.6486606,5.14149545 C10.6744687,5.10708472 10.7179659,5.09087357 10.76,5.1 C11.1,5.1 11.43,5.1 11.76,5.1 C11.86,5.1 11.98,5.17 11.94,5.28 C11.9,5.39 11.78,5.43 11.75,5.54 C11.72,5.65 11.99,5.8 12,5.98 C12.01,6.16 11.78,6.26 11.66,6.39 C11.78,6.48 11.97,6.53 11.98,6.71 C11.99,6.89 11.82,7.03 11.69,7.16 C11.82,7.26 12.06,7.31 12.05,7.51 C12.05,9.37 12.05,11.23 12.05,13.09 C12.0479141,13.3997332 11.9832886,13.7058541 11.86,13.99 C11.6085457,14.7045561 11.0883665,15.2928967 10.41,15.63 C9.89703115,15.8555467 9.31296885,15.8555467 8.8,15.63 C8.39584187,15.4424543 8.050207,15.1486647 7.8,14.78 C7.48507248,14.3285537 7.25467387,13.8237097 7.12,13.29 C7.12,13.21 7.04,13.12 7.12,13.04 C7.14223294,13.0064826 7.17977909,12.9863325 7.22,12.9863325 C7.26022091,12.9863325 7.29776706,13.0064826 7.32,13.04 C7.41036429,13.1795346 7.52166741,13.304329 7.65,13.41 C8.0521617,13.7265269 8.56036357,13.8768401 9.07,13.83 C9.56969322,13.8120754 10.0502238,13.6331918 10.44,13.32 C10.5920257,13.2141069 10.6876865,13.0448609 10.7,12.86 C10.75,11.96 10.7,11.06 10.7,10.16 C10.7,9.26 10.7,8.36 10.7,7.46 C10.7,7.27 10.92,7.25 10.97,7.1 C10.85,7 10.67,6.91 10.65,6.74 C10.6283351,6.6093939 10.7045641,6.48234557 10.83,6.44 C10.88,6.44 11,6.44 10.99,6.31 C10.98,6.18 10.73,6.17 10.68,6.04 C10.6361604,5.89388883 10.6981802,5.73677193 10.83,5.66 C10.89,5.61 11.01,5.56 10.97,5.46 C10.93,5.36 10.8,5.3 10.73,5.2" id="Shape" stroke="#FFFFFF" stroke-width="1.05" stroke-linecap="round" stroke-linejoin="round"></path>
                    <path d="M5.67,0.45 C6.38993511,0.377936586 7.11624139,0.40147429 7.83,0.52 C7.89,0.52 7.97,0.52 7.97,0.63 C7.97,0.74 7.87,0.77 7.79,0.77 C7.28558829,0.775594133 6.80387121,0.980503635 6.45,1.34 C6.18481848,1.67973816 6.09922981,2.12628776 6.22,2.54 C6.3518311,3.05771819 6.66835893,3.50939273 7.11,3.81 C7.33953415,3.96867963 7.61099009,4.05568474 7.89,4.06 C7.95,4.06 8.03,4.06 8.06,4.12 C8.0688105,4.1763242 8.0688105,4.2336758 8.06,4.29 C8.06,6.04 8.06,7.79 8.06,9.54 C8.06573294,9.57453906 8.05729188,9.60993046 8.03658728,9.638164 C8.01588268,9.66639755 7.98466508,9.68508615 7.95,9.69 L7.73,9.64 L4.13,8.64 C4.03,8.64 4.03,8.52 4.03,8.44 C4.03,6.21 4.03,3.98 4.03,1.75 C4.14091613,1.45896929 4.29977913,1.18856418 4.5,0.95 C4.81805004,0.644933057 5.2309271,0.457903278 5.67,0.42" id="Shape"></path>
                    <path d="M0.14,5.23 C0.14,5.12 0.32,5.12 0.42,5.12 C0.74,5.12 1.06,5.12 1.42,5.12 C1.45910311,5.1379193 1.48417424,5.17698658 1.48417424,5.22 C1.48417424,5.26301342 1.45910311,5.3020807 1.42,5.32 C1.29187026,5.39783853 1.17707484,5.49575228 1.08,5.61 C1.18,5.69 1.3,5.73 1.41,5.79 C1.53077338,5.86710756 1.57027884,6.02512938 1.5,6.15 C1.42,6.27 1.25,6.29 1.16,6.4 C1.25,6.46 1.36,6.49 1.45,6.56 C1.54309534,6.66576561 1.54309534,6.82423439 1.45,6.93 C1.3693682,7.01413442 1.2786863,7.08802338 1.18,7.15 C1.18,7.32 1.45,7.31 1.43,7.49 C1.43,8.77 1.43,10.06 1.43,11.34 C1.43,11.92 1.43,12.5 1.49,13.08 C1.73746782,13.4520062 2.12218012,13.7108781 2.56,13.8 C3.03545337,13.9477449 3.54454663,13.9477449 4.02,13.8 C4.36066365,13.6805855 4.65241043,13.4521091 4.85,13.15 C4.87113426,13.1118021 4.91134526,13.0880948 4.955,13.0880948 C4.99865474,13.0880948 5.03886574,13.1118021 5.06,13.15 C5.06,13.25 5.06,13.34 5.06,13.44 C4.88446678,14.1566253 4.51414849,14.8107389 3.99,15.33 C3.61696355,15.6762897 3.12893234,15.8722146 2.62,15.88 C2.03713578,15.8700711 1.48110253,15.6333086 1.07,15.22 C0.567329372,14.7180954 0.235020763,14.0709681 0.12,13.37 C0.12,12.5 0.12,11.62 0.12,10.75 C0.12,9.70333333 0.12,8.66 0.12,7.62 C0.12,7.42 0.35,7.37 0.49,7.27 C0.36,7.13 0.18,6.99 0.2,6.78 C0.22,6.57 0.41,6.58 0.52,6.5 C0.41,6.36 0.2,6.28 0.18,6.09 C0.16,5.9 0.39,5.82 0.43,5.66 C0.47,5.5 0.21,5.47 0.23,5.32" id="Shape"></path>
                    <path d="M10.64,5.26 C10.6194691,5.2222027 10.6228526,5.17590619 10.6486606,5.14149545 C10.6744687,5.10708472 10.7179659,5.09087357 10.76,5.1 C11.1,5.1 11.43,5.1 11.76,5.1 C11.86,5.1 11.98,5.17 11.94,5.28 C11.9,5.39 11.78,5.43 11.75,5.54 C11.72,5.65 11.99,5.8 12,5.98 C12.01,6.16 11.78,6.26 11.66,6.39 C11.78,6.48 11.97,6.53 11.98,6.71 C11.99,6.89 11.82,7.03 11.69,7.16 C11.82,7.26 12.06,7.31 12.05,7.51 C12.05,9.37 12.05,11.23 12.05,13.09 C12.0479141,13.3997332 11.9832886,13.7058541 11.86,13.99 C11.6085457,14.7045561 11.0883665,15.2928967 10.41,15.63 C9.89703115,15.8555467 9.31296885,15.8555467 8.8,15.63 C8.39584187,15.4424543 8.050207,15.1486647 7.8,14.78 C7.48507248,14.3285537 7.25467387,13.8237097 7.12,13.29 C7.12,13.21 7.04,13.12 7.12,13.04 C7.14223294,13.0064826 7.17977909,12.9863325 7.22,12.9863325 C7.26022091,12.9863325 7.29776706,13.0064826 7.32,13.04 C7.41036429,13.1795346 7.52166741,13.304329 7.65,13.41 C8.0521617,13.7265269 8.56036357,13.8768401 9.07,13.83 C9.56969322,13.8120754 10.0502238,13.6331918 10.44,13.32 C10.5920257,13.2141069 10.6876865,13.0448609 10.7,12.86 C10.75,11.96 10.7,11.06 10.7,10.16 C10.7,9.26 10.7,8.36 10.7,7.46 C10.7,7.27 10.92,7.25 10.97,7.1 C10.85,7 10.67,6.91 10.65,6.74 C10.6283351,6.6093939 10.7045641,6.48234557 10.83,6.44 C10.88,6.44 11,6.44 10.99,6.31 C10.98,6.18 10.73,6.17 10.68,6.04 C10.6361604,5.89388883 10.6981802,5.73677193 10.83,5.66 C10.89,5.61 11.01,5.56 10.97,5.46 C10.93,5.36 10.8,5.3 10.73,5.2" id="Shape"></path>
                    <path d="M5,0.88 C4.74773093,1.01316646 4.54454093,1.22336301 4.42,1.48 C4.3208553,1.63276274 4.26234189,1.80830299 4.25,1.99 C4.25,4.15 4.25,6.31 4.25,8.47 L7.81,9.42 C7.81,7.70666667 7.81,5.99666667 7.81,4.29 C7.05552759,4.19724756 6.40766723,3.70944682 6.11,3.01 C5.85338219,2.59254581 5.80639408,2.07921423 5.98295855,1.62210845 C6.15952301,1.16500267 6.53938901,0.816550359 7.01,0.68 C6.72049377,0.656067274 6.42950623,0.656067274 6.14,0.68 C5.75034072,0.668275427 5.36239804,0.736335546 5,0.88 Z" id="Shape"></path>
                    <path d="M0.49,5.34 C0.553198832,5.44145769 0.571314365,5.56464331 0.54,5.68 C0.474054735,5.79397821 0.397014179,5.90116507 0.31,6 C0.44,6.13 0.64,6.24 0.64,6.44 C0.64,6.64 0.44,6.66 0.32,6.74 C0.38,6.88 0.52,6.96 0.6,7.1 C0.646884519,7.22978418 0.579746635,7.37301167 0.45,7.42 C0.38,7.48 0.24,7.5 0.26,7.61 C0.26,9.49 0.26,11.38 0.31,13.26 C0.36120491,13.636235 0.48336753,13.9993294 0.67,14.33 C0.971450788,14.9374102 1.51673161,15.3881756 2.17,15.57 C2.65838845,15.6842533 3.1723247,15.5821951 3.58,15.29 C4.11679895,14.8749903 4.50878147,14.3010159 4.7,13.65 C4.57630452,13.7398195 4.44592479,13.8200532 4.31,13.89 C3.7414156,14.1475609 3.09955617,14.1936613 2.5,14.02 C2.01654728,13.9070584 1.59238242,13.6183412 1.31,13.21 C1.25207363,12.9711156 1.22518535,12.7257601 1.23,12.48 C1.23,10.83 1.23,9.18 1.23,7.48 C1.1,7.38 0.95,7.26 0.98,7.08 C1.01,6.9 1.26,6.86 1.33,6.69 C1.22863913,6.649651 1.13150275,6.59940804 1.04,6.54 C0.984034886,6.49064341 0.951973835,6.41962015 0.951973835,6.345 C0.951973835,6.27037985 0.984034886,6.19935659 1.04,6.15 C1.13486994,6.08183704 1.23521153,6.02163208 1.34,5.97 C1.21,5.83 0.97,5.82 0.9,5.63 C0.83,5.44 0.9,5.38 1.01,5.28 L0.49,5.34 Z" id="Shape"></path>
                    <path d="M11,5.33 C11.0547711,5.43075938 11.0724648,5.54753822 11.05,5.66 C11.05,5.82 10.81,5.86 10.74,6.01 C10.88,6.1 11.1,6.19 11.08,6.39 C11.06,6.59 10.87,6.65 10.73,6.72 C10.78,6.89 11.03,6.93 11.05,7.12 C11.07,7.31 10.92,7.42 10.8,7.53 C10.8,9.23 10.8,10.93 10.8,12.63 C10.8046729,12.8296582 10.7776713,13.0287953 10.72,13.22 C10.5846308,13.4343953 10.3993492,13.6128147 10.18,13.74 C9.57629885,14.0919003 8.8619036,14.2026316 8.18,14.05 C7.86493131,13.9745004 7.56878258,13.834936 7.31,13.64 C7.45028994,14.0667597 7.66344062,14.4659943 7.94,14.82 C8.21766676,15.1763274 8.60379026,15.432573 9.04,15.55 C9.5641991,15.6639141 10.1120091,15.5433959 10.54,15.22 C11.0103171,14.8639383 11.3594928,14.3716006 11.54,13.81 C11.6154983,13.6143775 11.6626419,13.4089661 11.68,13.2 C11.68,11.33 11.68,9.46 11.68,7.58 C11.68,7.47 11.57,7.45 11.5,7.4 C11.4327192,7.37745276 11.3775768,7.32838656 11.347363,7.26418213 C11.3171491,7.1999777 11.3144891,7.12621391 11.34,7.06 C11.42,6.94 11.54,6.85 11.62,6.73 C11.5,6.64 11.31,6.58 11.3,6.41 C11.29,6.24 11.5,6.1 11.63,5.97 C11.5361587,5.87076442 11.4554946,5.75985131 11.39,5.64 C11.3649761,5.52962402 11.3866906,5.41381348 11.45,5.32 L11,5.33 Z" id="Shape"></path>
                    <path d="M2.55,10.08 C2.57746571,10.0190273 2.63812674,9.9798212 2.705,9.9798212 C2.77187326,9.9798212 2.83253429,10.0190273 2.86,10.08 C2.87595252,10.1994698 2.87595252,10.3205302 2.86,10.44 C2.94583706,10.3239978 3.04298026,10.2168054 3.15,10.12 C3.28,10.03 3.47,10.21 3.37,10.34 C3.27,10.47 3.04,10.73 2.87,10.93 C2.99536991,11.1119493 3.1323196,11.2856416 3.28,11.45 C3.28,11.51 3.28,11.58 3.28,11.64 C3.24769909,11.6783325 3.20012715,11.7004555 3.15,11.7004555 C3.09987285,11.7004555 3.05230091,11.6783325 3.02,11.64 C2.89,11.49 2.78,11.33 2.65,11.17 C2.51,11.33 2.38,11.5 2.23,11.65 C2.08,11.8 1.89,11.65 1.97,11.47 C2.05,11.29 2.29,11.09 2.44,10.9 L1.99,10.33 C1.93615309,10.2665513 1.93615309,10.1734487 1.99,10.11 C2.02037329,10.0755599 2.06407991,10.0558301 2.11,10.0558301 C2.15592009,10.0558301 2.19962671,10.0755599 2.23,10.11 C2.3340942,10.2273268 2.43094042,10.3508893 2.52,10.48 C2.51745433,10.3460215 2.52749844,10.2121 2.55,10.08 Z" id="Shape"></path>
                    <path d="M4.17,10.1 C4.19746571,10.0390273 4.25812674,9.9998212 4.325,9.9998212 C4.39187326,9.9998212 4.45253429,10.0390273 4.48,10.1 C4.49538208,10.2195071 4.49538208,10.3404929 4.48,10.46 C4.56233821,10.3502355 4.65257792,10.2466269 4.75,10.15 C4.88,10.05 5.07,10.21 4.99,10.35 C4.91,10.49 4.65,10.75 4.49,10.95 L4.89,11.47 C4.92159258,11.5129545 4.92971087,11.5688245 4.91164986,11.6189939 C4.89358884,11.6691634 4.85172221,11.7070388 4.8,11.72 C4.72297321,11.740568 4.6415932,11.708016 4.6,11.64 L4.26,11.2 C4.12,11.36 3.99,11.52 3.85,11.68 C3.80916084,11.716655 3.75313915,11.7313419 3.69956943,11.7194376 C3.64599972,11.7075332 3.60147099,11.6705017 3.58,11.62 C3.55992702,11.550363 3.5835744,11.4754796 3.64,11.43 L4.06,10.94 L3.64,10.4 C3.58931513,10.3507902 3.56676893,10.2793938 3.58,10.21 C3.59403333,10.1564152 3.63478392,10.1139007 3.68772638,10.0976107 C3.74066884,10.0813207 3.7982707,10.0935729 3.84,10.13 C3.94696827,10.2475164 4.04713164,10.3710512 4.14,10.5 C4.14216548,10.3661946 4.15218271,10.2326316 4.17,10.1 Z" id="Shape"></path>
                    <path d="M5.83,10.08 C5.85746571,10.0190273 5.91812674,9.9798212 5.985,9.9798212 C6.05187326,9.9798212 6.11253429,10.0190273 6.14,10.08 C6.1538436,10.196256 6.1538436,10.313744 6.14,10.43 C6.22632428,10.3143981 6.32342641,10.2072509 6.43,10.11 C6.56,10.03 6.74,10.2 6.65,10.33 C6.56,10.46 6.32,10.72 6.15,10.92 C6.27669913,11.0977781 6.41359533,11.2680636 6.56,11.43 C6.56,11.52 6.56,11.65 6.47,11.69 C6.38,11.73 6.26,11.62 6.2,11.54 L5.92,11.18 C5.77,11.34 5.64,11.53 5.48,11.68 C5.32,11.83 5.17,11.61 5.24,11.48 C5.31,11.35 5.56,11.11 5.71,10.91 L5.25,10.32 C5.21602146,10.2574839 5.2245709,10.1804208 5.2714257,10.1268725 C5.31828051,10.0733241 5.39352676,10.0546208 5.46,10.08 C5.58552268,10.199729 5.69630623,10.3340121 5.79,10.48 C5.79057274,10.3456975 5.80396684,10.2117565 5.83,10.08 Z" id="Shape"></path>
                    <path d="M7.54,10.08 C7.56746571,10.0190273 7.62812674,9.9798212 7.695,9.9798212 C7.76187326,9.9798212 7.82253429,10.0190273 7.85,10.08 C7.86549286,10.1994999 7.86549286,10.3205001 7.85,10.44 C7.93646199,10.3245116 8.03355283,10.2173769 8.14,10.12 C8.27,10.03 8.45,10.21 8.36,10.34 C8.27,10.47 8.03,10.73 7.86,10.93 C7.98607908,11.1114252 8.12299474,11.2850743 8.27,11.45 C8.27,11.51 8.27,11.58 8.27,11.64 C8.23783328,11.6820297 8.18792633,11.7066801 8.135,11.7066801 C8.08207367,11.7066801 8.03216672,11.6820297 8,11.64 C7.87,11.49 7.76,11.33 7.64,11.17 L7.24,11.63 C7.17496843,11.6897335 7.07503157,11.6897335 7.01,11.63 C6.97555993,11.5996267 6.95583005,11.5559201 6.95583005,11.51 C6.95583005,11.4640799 6.97555993,11.4203733 7.01,11.39 L7.45,10.87 L7.01,10.3 C6.95615309,10.2365513 6.95615309,10.1434487 7.01,10.08 C7.04037329,10.0455599 7.08407991,10.0258301 7.13,10.0258301 C7.17592009,10.0258301 7.21962671,10.0455599 7.25,10.08 C7.35383681,10.1975413 7.45067067,10.321088 7.54,10.45 C7.52911376,10.3269069 7.52911376,10.2030931 7.54,10.08 Z" id="Shape"></path>
                    <path d="M9.18,10.09 C9.20746571,10.0290273 9.26812674,9.9898212 9.335,9.9898212 C9.40187326,9.9898212 9.46253429,10.0290273 9.49,10.09 C9.5038436,10.206256 9.5038436,10.323744 9.49,10.44 C9.57601694,10.3302862 9.66957703,10.2267019 9.77,10.13 C9.91,10.03 10.1,10.22 10,10.35 C9.9,10.48 9.67,10.74 9.51,10.93 L9.9,11.44 C9.93751293,11.4864445 9.94739844,11.5493739 9.92593274,11.6050833 C9.90446705,11.6607928 9.85491131,11.7008185 9.7959327,11.7100834 C9.73695409,11.7193482 9.67751287,11.6964446 9.64,11.65 C9.51,11.5 9.4,11.34 9.28,11.19 C9.14,11.35 9.01,11.51 8.87,11.66 C8.82921634,11.7011857 8.77025891,11.718754 8.71358371,11.7066093 C8.65690851,11.6944647 8.61032655,11.6542808 8.59,11.6 C8.56829186,11.5273334 8.59187671,11.4487172 8.65,11.4 L9.07,10.91 L8.61,10.31 C8.55980008,10.2452311 8.56664984,10.1530035 8.62586701,10.096361 C8.68508417,10.0397185 8.77752501,10.0369724 8.84,10.09 C8.95323753,10.2082538 9.05689724,10.3353205 9.15,10.47 C9.15193457,10.3428255 9.16195479,10.2159027 9.18,10.09 Z" id="Shape"></path>
                    <path d="M1.62,12.09 C1.67555956,12.0741588 1.73444044,12.0741588 1.79,12.09 L10.27,12.09 C10.3246643,12.0851795 10.3782938,12.107043 10.414007,12.1487083 C10.4497201,12.1903736 10.4631243,12.246716 10.45,12.3 C10.4177861,12.3851427 10.3297085,12.4354728 10.24,12.42 L2.09,12.42 C1.95,12.42 1.82,12.42 1.68,12.42 C1.58887302,12.4365685 1.50156854,12.376127 1.485,12.285 C1.46843146,12.193873 1.52887302,12.1065685 1.62,12.09 Z" id="Shape"></path>
                </g>
            </g>
        </g>
    </g>
</svg>