<?xml version="1.0" encoding="UTF-8"?>
<svg width="71px" height="48px" viewBox="0 0 71 48" version="1.1" xmlns="http://www.w3.org/2000/svg" xmlns:xlink="http://www.w3.org/1999/xlink">
    <!-- Generator: Sketch 48.1 (47250) - http://www.bohemiancoding.com/sketch -->
    <title>taiwan@2x</title>
    <desc>Created with Sketch.</desc>
    <defs></defs>
    <g id="Flags" stroke="none" stroke-width="1" fill="none" fill-rule="evenodd" transform="translate(-493.000000, -744.000000)">
        <g transform="translate(70.000000, 70.000000)" fill-rule="nonzero" id="taiwan">
            <g transform="translate(423.000000, 674.000000)">
                <path d="M70.39,6.48 C70.39,6.48 70.39,6.48 70.39,6.48 C70.3871908,6.06341723 70.3436503,5.6481075 70.26,5.24 C70.26,5.05 70.17,4.86 70.12,4.68 C69.9984637,4.29929831 69.8410923,3.93098231 69.65,3.58 C69.59,3.48 69.53,3.38 69.47,3.29 L69.33,3.06 L69.18,2.85 L68.97,2.56 L68.83,2.41 L68.56,2.11 L68.31,1.89 L68.11,1.7 L68.05,1.7 L67.99,1.7 C67.7103688,1.47877104 67.4126565,1.28141115 67.1,1.11 L66.84,0.98 L66.72,0.92 L66.55,0.84 L66.35,0.77 L66.05,0.66 L65.97,0.66 L65.78,0.66 C65.5300001,0.591906064 65.2762341,0.538481641 65.02,0.5 L64.9,0.5 C64.6283143,0.461701214 64.3543669,0.441656285 64.08,0.44 L35.47,0.44 C35.47,8.44 35.47,16.44 35.47,24.44 L0.39,24.44 L0.39,41.08 C0.390869144,41.7210145 0.488640529,42.3582142 0.68,42.97 C0.74,43.17 0.81,43.3633333 0.89,43.55 C1.05123596,43.9282532 1.24883033,44.2899513 1.48,44.63 C1.59333333,44.7966667 1.71666667,44.96 1.85,45.12 C2.0606421,45.3747387 2.29138234,45.6121671 2.54,45.83 L2.59,45.83 C2.84433429,46.0503258 3.11512147,46.2509089 3.4,46.43 C3.88629297,46.7321654 4.41098913,46.967606 4.96,47.13 L5,47.13 C5.23664677,47.1974379 5.47706395,47.2508639 5.72,47.29 L5.91,47.29 C6.18174723,47.327721 6.45565638,47.3477631 6.73,47.35 L64,47.35 C64.2743717,47.3484644 64.5483271,47.3284189 64.82,47.29 L64.94,47.29 C65.196214,47.251407 65.4499736,47.1979839 65.7,47.13 L65.89,47.13 L65.97,47.13 L66.27,47.02 L66.47,46.95 L66.62,46.88 L66.83,46.78 L67.03,46.69 L67.31,46.52 L67.51,46.4 L67.7,46.26 L67.88,46.13 L68,46.04 L68.1,45.95 C68.3745473,45.7151744 68.6287831,45.4575933 68.86,45.18 L69.07,44.89 L69.22,44.69 L69.36,44.46 C69.42,44.36 69.48,44.27 69.54,44.17 C69.7310923,43.8190177 69.8884637,43.4507017 70.01,43.07 C70.01,42.91 70.1,42.75 70.13,42.59 L70.13,42.48 C70.2130046,42.0751683 70.2565418,41.6632391 70.26,41.25 C70.26,41.25 70.26,41.25 70.26,41.2 L70.26,6.48 L70.39,6.48 Z" id="Shape" fill="#ED5565"></path>
                <path d="M35.47,0.11 L6.75,0.11 C6.41482206,0.113725189 6.08045683,0.143818059 5.75,0.2 L5.6,0.2 C5.28745049,0.259939453 4.97990066,0.343512776 4.68,0.45 L4.51,0.51 C4.21715032,0.622095978 3.9330348,0.755797402 3.66,0.91 L3.54,0.98 C3.02137286,1.27896781 2.55242893,1.65682191 2.15,2.1 L2.01,2.25 C1.82997246,2.45254977 1.66297068,2.66631206 1.51,2.89 C0.798008945,3.94056833 0.418245338,5.18089717 0.42,6.45 L0.419993947,24.09 L35.5,24.09 C35.48,16.1033333 35.47,8.11 35.47,0.11 Z" id="Shape" fill="#4758A9"></path>
                <path d="M23.68,14.12 C23.6934282,13.8092708 23.7753836,13.5053526 23.92,13.23 L24.32,12.52 C24.4501282,12.2621545 24.4501282,11.9578455 24.32,11.7 L23.9,10.97 C23.7610213,10.6960273 23.6793583,10.3965964 23.66,10.09 L23.66,9.25 C23.6406581,8.96261101 23.4892428,8.700404 23.25,8.54 L22.54,8.14 C22.2758047,7.97673961 22.0532604,7.75419533 21.89,7.49 L21.48,6.78 C21.3217923,6.53842145 21.0583142,6.38627212 20.77,6.37 L19.93,6.37 C19.6195202,6.35497142 19.3159416,6.27310754 19.04,6.13 L18.32,5.71 C18.0586762,5.57969465 17.7513238,5.57969465 17.49,5.71 L16.79,6.12 C16.515017,6.26555724 16.2108827,6.34757097 15.9,6.36 L15.09,6.36 C14.8016858,6.37627212 14.5382077,6.52842145 14.38,6.77 L13.96,7.5 C13.794521,7.76243138 13.5724314,7.98452098 13.31,8.15 L12.59,8.57 C12.3472108,8.7270599 12.1946729,8.99121094 12.18,9.28 L12.18,10.1 C12.1685416,10.4066134 12.0900337,10.7069915 11.95,10.98 L11.54,11.69 C11.4098718,11.9478455 11.4098718,12.2521545 11.54,12.51 L11.96,13.24 C12.1046164,13.5153526 12.1865718,13.8192708 12.2,14.13 L12.2,15 C12.2178279,15.2878476 12.3696032,15.5506781 12.61,15.71 L13.32,16.11 C13.5841953,16.2732604 13.8067396,16.4958047 13.97,16.76 L14.38,17.47 C14.5382077,17.7115786 14.8016858,17.8637279 15.09,17.88 L15.93,17.88 C16.2404798,17.8950286 16.5440584,17.9768925 16.82,18.12 L17.55,18.54 C17.8078455,18.6701282 18.1121545,18.6701282 18.37,18.54 L19.07,18.13 C19.345473,17.9856912 19.6493213,17.9037546 19.96,17.89 L20.77,17.89 C21.0583142,17.8737279 21.3217923,17.7215786 21.48,17.48 L21.9,16.75 C22.0652119,16.4873554 22.2873554,16.2652119 22.55,16.1 L23.28,15.68 C23.5189807,15.5207122 23.6675889,15.2569326 23.68,14.97 L23.68,14.16 L23.68,14.12 Z" id="Shape" fill="#FFFFFF"></path>
            </g>
        </g>
    </g>
</svg>