<?xml version="1.0" encoding="UTF-8"?>
<svg width="71px" height="48px" viewBox="0 0 71 48" version="1.1" xmlns="http://www.w3.org/2000/svg" xmlns:xlink="http://www.w3.org/1999/xlink">
    <!-- Generator: Sketch 48.1 (47250) - http://www.bohemiancoding.com/sketch -->
    <title>tajikistan@2x</title>
    <desc>Created with Sketch.</desc>
    <defs></defs>
    <g id="Flags" stroke="none" stroke-width="1" fill="none" fill-rule="evenodd" transform="translate(-578.000000, -744.000000)">
        <g transform="translate(70.000000, 70.000000)" fill-rule="nonzero" id="tajikistan">
            <g transform="translate(508.000000, 674.000000)">
                <path d="M70,6.48 C70,6.48 70,6.48 70,6.48 C69.9971908,6.06341723 69.9536503,5.6481075 69.87,5.24 C69.87,5.05 69.78,4.86 69.73,4.68 C69.6084637,4.29929831 69.4510923,3.93098231 69.26,3.58 C69.2,3.48 69.14,3.38 69.08,3.29 L68.94,3.06 L68.79,2.85 L68.58,2.56 L68.44,2.41 L68.17,2.11 L67.92,1.89 L67.72,1.7 L67.66,1.7 L67.6,1.7 C67.3203688,1.47877104 67.0226565,1.28141115 66.71,1.11 L66.45,0.98 L66.33,0.92 L66.16,0.84 L65.96,0.77 L65.66,0.66 L65.58,0.66 L65.39,0.66 C65.1400001,0.591906064 64.8862341,0.538481641 64.63,0.5 L64.51,0.5 C64.2383143,0.461701214 63.9643669,0.441656285 63.69,0.44 L6.37,0.44 C6.03482206,0.443725189 5.70045683,0.473818059 5.37,0.53 L5.22,0.53 C4.90745049,0.589939453 4.59990066,0.673512776 4.3,0.78 L4.13,0.84 C3.83715032,0.952095978 3.5530348,1.0857974 3.28,1.24 L3.16,1.31 C2.64137286,1.60896781 2.17242893,1.98682191 1.77,2.43 L1.63,2.58 C1.44997246,2.78254977 1.28297068,2.99631206 1.13,3.22 C0.418008945,4.27056833 0.0382453379,5.51089717 0.04,6.78 L0.04,41.05 C0.040869144,41.6910145 0.138640529,42.3282142 0.33,42.94 C0.39,43.14 0.46,43.3333333 0.54,43.52 C0.701235964,43.8982532 0.898830334,44.2599513 1.13,44.6 C1.24333333,44.7666667 1.36666667,44.93 1.5,45.09 C1.7106421,45.3447387 1.94138234,45.5821671 2.19,45.8 L2.24,45.8 C2.49433429,46.0203258 2.76512147,46.2209089 3.05,46.4 C3.53629297,46.7021654 4.06098913,46.937606 4.61,47.1 L4.67,47.1 C4.90664677,47.1674379 5.14706395,47.2208639 5.39,47.26 L5.58,47.26 C5.85174723,47.297721 6.12565638,47.3177631 6.4,47.32 L63.67,47.32 C63.9443717,47.3184644 64.2183271,47.2984189 64.49,47.26 L64.61,47.26 C64.866214,47.221407 65.1199736,47.1679839 65.37,47.1 L65.56,47.1 L65.64,47.1 L65.94,46.99 L66.14,46.92 L66.29,46.85 L66.5,46.75 L66.7,46.66 L66.98,46.49 L67.18,46.37 L67.37,46.23 L67.55,46.1 L67.67,46.01 L67.77,45.92 C68.0445473,45.6851744 68.2987831,45.4275933 68.53,45.15 L68.74,44.86 L68.89,44.66 L69.03,44.43 C69.09,44.33 69.15,44.24 69.21,44.14 C69.4010923,43.7890177 69.5584637,43.4207017 69.68,43.04 C69.68,42.88 69.77,42.72 69.8,42.56 L69.8,42.45 C69.8830046,42.0451683 69.9265418,41.6332391 69.93,41.22 C69.93,41.22 69.93,41.22 69.93,41.17 L69.93,6.48 L70,6.48 Z" id="Shape" fill="#FFFFFF"></path>
                <path d="M70,6.49 C70,6.49 70,6.49 70,6.49 C69.9971908,6.07341723 69.9536503,5.6581075 69.87,5.25 C69.87,5.06 69.78,4.87 69.73,4.69 C69.6084637,4.30929831 69.4510923,3.94098231 69.26,3.59 C69.2,3.49 69.14,3.39 69.08,3.3 L68.94,3.07 L68.79,2.86 L68.58,2.57 L68.44,2.42 L68.17,2.12 L67.92,1.9 L67.72,1.71 L67.66,1.71 L67.6,1.71 C67.3203688,1.48877104 67.0226565,1.29141115 66.71,1.12 L66.45,0.99 L66.33,0.93 L66.16,0.85 L65.96,0.78 L65.66,0.67 L65.58,0.67 L65.39,0.67 C65.1400001,0.601906064 64.8862341,0.548481641 64.63,0.51 L64.51,0.51 C64.2383143,0.471701214 63.9643669,0.451656285 63.69,0.45 L6.37,0.45 C6.03482206,0.453725189 5.70045683,0.483818059 5.37,0.54 L5.22,0.54 C4.90745049,0.599939453 4.59990066,0.683512776 4.3,0.79 L4.13,0.85 C3.83715032,0.962095978 3.5530348,1.0957974 3.28,1.25 L3.16,1.32 C2.64137286,1.61896781 2.17242893,1.99682191 1.77,2.44 L1.63,2.59 C1.44997246,2.79254977 1.28297068,3.00631206 1.13,3.23 C0.418008945,4.28056833 0.0382453379,5.52089717 0.04,6.79 L0.0399939469,13.91 L70.04,13.91 L70,6.49 Z" id="Shape" fill="#ED5565"></path>
                <path d="M0,40.76 C0.000869144026,41.4010145 0.0986405289,42.0382142 0.29,42.65 C0.35,42.85 0.42,43.0433333 0.5,43.23 C0.661235964,43.6082532 0.858830334,43.9699513 1.09,44.31 C1.20333333,44.4766667 1.32666667,44.64 1.46,44.8 C1.6706421,45.0547387 1.90138234,45.2921671 2.15,45.51 L2.2,45.51 C2.45433429,45.7303258 2.72512147,45.9309089 3.01,46.11 C3.49629297,46.4121654 4.02098913,46.647606 4.57,46.81 L4.63,46.81 C4.86664677,46.8774379 5.10706395,46.9308639 5.35,46.97 L5.54,46.97 C5.75,46.97 5.96,46.97 6.17,46.97 L63.82,46.97 C64.03,46.97 64.24,46.97 64.45,46.97 L64.57,46.97 C64.826214,46.931407 65.0799736,46.8779839 65.33,46.81 L65.52,46.81 L65.6,46.81 L65.9,46.7 L66.1,46.63 L66.25,46.56 L66.46,46.46 L66.66,46.37 L66.94,46.2 L67.14,46.08 L67.33,45.94 L67.51,45.81 L67.63,45.72 L67.73,45.63 C68.0045473,45.3951744 68.2587831,45.1375933 68.49,44.86 L68.7,44.57 L68.85,44.37 L68.99,44.14 C69.05,44.04 69.11,43.95 69.17,43.85 C69.3610923,43.4990177 69.5184637,43.1307017 69.64,42.75 C69.64,42.59 69.73,42.43 69.76,42.27 L69.76,42.16 C69.8430046,41.7551683 69.8865418,41.3432391 69.89,40.93 C69.89,40.93 69.89,40.93 69.89,40.88 L69.89,33.73 L0,33.73 L0,40.76 Z" id="Shape" fill="#57A863"></path>
                <path d="M35,30.64 C36.855846,30.6390815 38.7053118,30.8572581 40.51,31.29 C40.6773094,31.333785 40.8515156,31.2488063 40.92,31.09 L42.44,27.79 C42.4848411,27.6912038 42.4840595,27.5777048 42.4378622,27.4795354 C42.3916648,27.3813661 42.3047077,27.3084203 42.2,27.28 C37.4803425,26.0120525 32.5096575,26.0120525 27.79,27.28 C27.6852923,27.3084203 27.5983352,27.3813661 27.5521378,27.4795354 C27.5059405,27.5777048 27.5051589,27.6912038 27.55,27.79 L29.07,31.09 C29.1384844,31.2488063 29.3126906,31.333785 29.48,31.29 C31.2879407,30.8564757 33.1408093,30.6382937 35,30.64 Z" id="Shape" fill="#FFCE54"></path>
                <path d="M37.41,24.83 C37.41,23.5017552 36.3332448,22.425 35.005,22.425 C33.6767552,22.425 32.6,23.5017552 32.6,24.83 L37.41,24.83 Z" id="Shape" stroke="#FFCE54" stroke-width="0.6" fill="#FFCE54" stroke-linecap="round" stroke-linejoin="round"></path>
                <path d="M30.59,21.32 C30.5454781,21.3201558 30.5039732,21.2975168 30.48,21.26 L29.96,20.37 L28.96,20.58 C28.9081748,20.590874 28.8553484,20.5664926 28.83,20.52 C28.7982451,20.4750419 28.7982451,20.4149581 28.83,20.37 L29.52,19.6 L29,18.71 C28.9682451,18.6650419 28.9682451,18.6049581 29,18.56 C29.0426816,18.532726 29.0973184,18.532726 29.14,18.56 L30.08,18.98 L30.77,18.21 C30.8083891,18.1730475 30.8654409,18.1632628 30.9139491,18.185312 C30.9624573,18.2073612 30.9925988,18.2567792 30.99,18.31 L30.88,19.31 L31.82,19.73 C31.868065,19.7545928 31.8959262,19.806335 31.89,19.86 C31.8861272,19.9153851 31.8447665,19.9608819 31.79,19.97 L30.79,20.18 L30.68,21.18 C30.6761272,21.2353851 30.6347665,21.2808819 30.58,21.29 L30.59,21.32 Z" id="Shape" fill="#FFCE54"></path>
                <path d="M39.42,21.32 C39.3652335,21.3108819 39.3238728,21.2653851 39.32,21.21 L39.21,20.21 L38.21,20 C38.1552335,19.9908819 38.1138728,19.9453851 38.11,19.89 C38.1040738,19.836335 38.131935,19.7845928 38.18,19.76 L39.12,19.34 L39.01,18.34 C39.0040738,18.286335 39.031935,18.2345928 39.08,18.21 C39.1226816,18.182726 39.1773184,18.182726 39.22,18.21 L39.91,18.98 L40.85,18.56 C40.8926816,18.532726 40.9473184,18.532726 40.99,18.56 C41.0217549,18.6049581 41.0217549,18.6650419 40.99,18.71 L40.47,19.6 L41.16,20.37 C41.1975129,20.3914359 41.2207403,20.4312564 41.2209327,20.4744615 C41.221125,20.5176666 41.1982532,20.5576924 41.1609327,20.5794615 C41.1236122,20.6012307 41.0775129,20.6014359 41.04,20.58 L40.04,20.37 L39.52,21.26 C39.4980105,21.2946679 39.4609374,21.3169118 39.42,21.32 Z" id="Shape" fill="#FFCE54"></path>
                <path d="M34.1,19 L34.03,19 C34.002726,18.9573184 34.002726,18.9026816 34.03,18.86 L34.35,17.86 L33.52,17.25 C33.4792392,17.2166286 33.4626472,17.1619575 33.4779853,17.1115608 C33.4933235,17.061164 33.5375593,17.0250057 33.59,17.02 L34.59,17.02 L34.91,16.02 C34.9269135,15.9676212 34.9749805,15.9315709 35.03,15.93 C35.0850195,15.9315709 35.1330865,15.9676212 35.15,16.02 L35.47,17.02 L36.47,17.02 C36.5224407,17.0250057 36.5666765,17.061164 36.5820147,17.1115608 C36.5973528,17.1619575 36.5807608,17.2166286 36.54,17.25 L35.71,17.86 L36.03,18.86 C36.057274,18.9026816 36.057274,18.9573184 36.03,19 C35.9850419,19.0317549 35.9249581,19.0317549 35.88,19 L35.05,18.39 L34.22,19 L34.1,19 Z" id="Shape" fill="#FFCE54"></path>
                <path d="M41.64,26.29 C41.5927495,26.2903588 41.5496869,26.2629554 41.53,26.22 L41.02,25.28 L40.02,25.49 C39.9620101,25.5231371 39.8881371,25.5029899 39.855,25.445 C39.8218629,25.3870101 39.8420101,25.3131371 39.9,25.28 L40.59,24.51 L40.07,23.62 C40.0382451,23.5750419 40.0382451,23.5149581 40.07,23.47 C40.1126816,23.442726 40.1673184,23.442726 40.21,23.47 L41.15,23.89 L41.84,23.12 C41.8826816,23.092726 41.9373184,23.092726 41.98,23.12 C42.028065,23.1445928 42.0559262,23.196335 42.05,23.25 L41.94,24.25 L42.88,24.67 C42.9462742,24.67 43,24.7237258 43,24.79 C43,24.8562742 42.9462742,24.91 42.88,24.91 L41.88,25.07 L41.76,26.2 C41.7529883,26.2539887 41.7130781,26.2978899 41.66,26.31 L41.64,26.29 Z" id="Shape" fill="#FFCE54"></path>
                <path d="M28.37,26.24 C28.3152335,26.2308819 28.2738728,26.1853851 28.27,26.13 L28.16,25.13 L27.16,24.92 C27.1052335,24.9108819 27.0638728,24.8653851 27.06,24.81 C27.0540738,24.756335 27.081935,24.7045928 27.13,24.68 L28.07,24.26 L27.96,23.26 C27.9540738,23.206335 27.981935,23.1545928 28.03,23.13 C28.0726816,23.102726 28.1273184,23.102726 28.17,23.13 L28.86,23.9 L29.8,23.48 C29.8426816,23.452726 29.8973184,23.452726 29.94,23.48 C29.9717549,23.5249581 29.9717549,23.5850419 29.94,23.63 L29.42,24.52 L30.11,25.29 C30.1417549,25.3349581 30.1417549,25.3950419 30.11,25.44 C30.0846516,25.4864926 30.0318252,25.510874 29.98,25.5 L28.98,25.29 L28.46,26.18 C28.4401398,26.2121238 28.4072913,26.2340228 28.37,26.24 Z" id="Shape" fill="#FFCE54"></path>
            </g>
        </g>
    </g>
</svg>