<?xml version="1.0" encoding="UTF-8"?>
<svg width="71px" height="48px" viewBox="0 0 71 48" version="1.1" xmlns="http://www.w3.org/2000/svg" xmlns:xlink="http://www.w3.org/1999/xlink">
    <!-- Generator: Sketch 48.1 (47250) - http://www.bohemiancoding.com/sketch -->
    <title>timor_leste@2x</title>
    <desc>Created with Sketch.</desc>
    <defs></defs>
    <g id="Flags" stroke="none" stroke-width="1" fill="none" fill-rule="evenodd" transform="translate(-662.000000, -1111.000000)">
        <g transform="translate(70.000000, 70.000000)" fill-rule="nonzero" id="timor_leste">
            <g transform="translate(592.000000, 1041.000000)">
                <path d="M2.92,46.21 L4.18,45.27 C13.46,38.31 22.7366667,31.35 32.01,24.39 C29.2,22.26 26.37,20.16 23.55,18.04 L2.86,2.53 C1.42632535,3.7949899 0.609589893,5.61806013 0.62,7.53 L0.62,41.25 C0.636246105,43.1574879 1.47452682,44.9652585 2.92,46.21 Z M6.35,24.7 L8.58,23.53 C9.19718945,23.1729144 9.53405132,22.4754121 9.43,21.77 L8.9,19.07 C8.77,18.42 9.08,18.26 9.58,18.72 L11.65,20.63 C12.2113272,21.0879139 12.9763889,21.2064985 13.65,20.94 L15.97,19.84 C16.58,19.55 16.87,19.84 16.62,20.43 L15.62,22.79 C15.3751822,23.4778766 15.524674,24.2445014 16.01,24.79 L17.57,26.41 C18.04,26.9 17.87,27.25 17.19,27.19 L14.72,26.97 C13.9777832,26.9413693 13.2808324,27.326425 12.91,27.97 L11.71,30.18 C11.39,30.76 11.01,30.71 10.85,30.06 L10.25,27.64 C10.0261951,26.9285503 9.46438958,26.3742355 8.75,26.16 L6.42,25.58 C5.82,25.4 5.76,25 6.36,24.7 L6.35,24.7 Z" id="Shape" fill="#434A54"></path>
                <path d="M47.68,24.38 C45.85,25.38 43.98,26.23 42.13,27.17 L3.77,46.35 L3.37,46.55 C4.5009067,47.3803456 5.86699531,47.8287029 7.27,47.83 L64,47.83 C65.7610375,47.83 67.4499475,47.1304306 68.695189,45.885189 C69.9404306,44.6399475 70.64,42.9510375 70.64,41.19 L70.64,7.47 C70.64,3.80282926 67.6671707,0.83 64,0.83 L7.27,0.83 C5.82713097,0.824178115 4.42210669,1.29134869 3.27,2.16 L45.12,23.09 C46,23.53 46.86,23.92 47.68,24.38 Z" id="Shape" fill="#EC5565"></path>
                <path d="M32,24.38 C22.7266667,31.3466667 13.45,38.3066667 4.17,45.26 L2.91,46.2 C3.05,46.32 3.2,46.44 3.35,46.55 L3.75,46.35 L42.11,27.17 C43.96,26.23 45.82,25.34 47.66,24.38 C46.84,23.91 45.97,23.52 45.13,23.09 L3.28,2.16 C3.13333333,2.27333333 2.99,2.39 2.85,2.51 L23.56,18 C26.37,20.15 29.2,22.25 32,24.38 Z" id="Shape" fill="#F2D660"></path>
                <path d="M6.48,25.56 L8.81,26.14 C9.52438958,26.3542355 10.0861951,26.9085503 10.31,27.62 L10.91,30.04 C11.07,30.69 11.46,30.74 11.77,30.16 L12.97,27.95 C13.3408324,27.306425 14.0377832,26.9213693 14.78,26.95 L17.25,27.17 C17.93,27.23 18.1,26.88 17.63,26.39 L16.07,24.77 C15.584674,24.2245014 15.4351822,23.4578766 15.68,22.77 L16.68,20.41 C16.93,19.8 16.68,19.53 16.03,19.82 L13.71,20.92 C13.0363889,21.1864985 12.2713272,21.0679139 11.71,20.61 L9.64,18.7 C9.14,18.24 8.84,18.4 8.96,19.05 L9.49,21.75 C9.59405132,22.4554121 9.25718945,23.1529144 8.64,23.51 L6.41,24.68 C5.76,25 5.82,25.4 6.48,25.56 Z" id="Shape" fill="#FFFFFF"></path>
            </g>
        </g>
    </g>
</svg>