<?xml version="1.0" encoding="UTF-8"?>
<svg width="71px" height="48px" viewBox="0 0 71 48" version="1.1" xmlns="http://www.w3.org/2000/svg" xmlns:xlink="http://www.w3.org/1999/xlink">
    <!-- Generator: Sketch 48.1 (47250) - http://www.bohemiancoding.com/sketch -->
    <title>togo@2x</title>
    <desc>Created with Sketch.</desc>
    <defs></defs>
    <g id="Flags" stroke="none" stroke-width="1" fill="none" fill-rule="evenodd" transform="translate(-831.000000, -744.000000)">
        <g transform="translate(70.000000, 70.000000)" fill-rule="nonzero" id="togo">
            <g transform="translate(761.000000, 674.000000)">
                <path d="M0.87,40.71 C0.87,44.222531 3.71746899,47.07 7.23,47.07 L64.5,47.07 C68.012531,47.07 70.86,44.222531 70.86,40.71 L70.86,35.32 L0.86,35.32 L0.87,40.71 Z" id="Shape" fill="#FFCE54"></path>
                <rect id="Rectangle-path" fill="#57A863" x="0.87" y="23.57" width="70" height="11.75"></rect>
                <rect id="Rectangle-path" fill="#FFCE54" x="0.87" y="11.82" width="70" height="11.75"></rect>
                <path d="M64.51,0.07 L7.24,0.07 C3.72746899,0.07 0.88,2.91746899 0.88,6.43 L0.88,11.82 L70.88,11.82 L70.88,6.43 C70.8800021,4.74148908 70.20856,3.12228088 69.013665,1.92926164 C67.8187699,0.7362424 66.1985088,0.0673451086 64.51,0.07 Z" id="Shape" fill="#57A863"></path>
                <path d="M27.87,0.07 L7.24,0.07 C3.72746899,0.07 0.88,2.91746899 0.88,6.43 L0.88,23.57 L27.88,23.57 L27.87,0.07 Z" id="Shape" fill="#ED5565"></path>
                <path d="M10,19.36 C9.26,19.85 8.85,19.55 9.09,18.69 L9.96,15.51 C10.1652923,14.5564456 9.87573327,13.563672 9.19,12.87 L6.89,10.77 C6.23,10.17 6.42,9.69 7.31,9.69 L10.62,9.69 C11.5667091,9.6498386 12.3975992,9.04734479 12.73,8.16 L13.87,4.69 C14.15,3.85 14.6,3.85 14.87,4.69 L16.01,8.18 C16.3565078,9.07025181 17.1783361,9.68662302 18.13,9.77 L21.5,9.9 C22.39,9.9 22.55,10.42 21.86,10.98 L19.23,13.14 C18.5191354,13.7946026 18.2007982,14.7723525 18.39,15.72 L19.13,18.56 C19.35,19.42 18.93,19.72 18.19,19.24 L15.49,17.48 C14.6594035,16.9932026 13.6305965,16.9932026 12.8,17.48 L10,19.36 Z" id="Shape" fill="#FFFFFF"></path>
            </g>
        </g>
    </g>
</svg>