<?xml version="1.0" encoding="UTF-8"?>
<svg width="71px" height="48px" viewBox="0 0 71 48" version="1.1" xmlns="http://www.w3.org/2000/svg" xmlns:xlink="http://www.w3.org/1999/xlink">
    <!-- Generator: Sketch 48.1 (47250) - http://www.bohemiancoding.com/sketch -->
    <title>tonga@2x</title>
    <desc>Created with Sketch.</desc>
    <defs></defs>
    <g id="Flags" stroke="none" stroke-width="1" fill="none" fill-rule="evenodd" transform="translate(-493.000000, -805.000000)">
        <g transform="translate(70.000000, 70.000000)" fill-rule="nonzero" id="tonga">
            <g transform="translate(423.000000, 735.000000)">
                <path d="M70.39,6.76 C70.39,6.76 70.39,6.76 70.39,6.76 C70.3871908,6.34341723 70.3436503,5.9281075 70.26,5.52 C70.26,5.33 70.17,5.14 70.12,4.96 C69.9984637,4.57929831 69.8410923,4.21098231 69.65,3.86 C69.59,3.76 69.53,3.66 69.47,3.57 L69.33,3.34 L69.18,3.13 L68.97,2.84 L68.83,2.69 L68.56,2.39 L68.31,2.17 L68.11,1.98 L68.05,1.98 L67.99,1.98 C67.7103688,1.75877104 67.4126565,1.56141115 67.1,1.39 L66.84,1.26 L66.72,1.2 L66.55,1.12 L66.35,1.05 L66.05,0.94 L65.97,0.94 L65.78,0.94 C65.5300001,0.871906064 65.2762341,0.818481641 65.02,0.78 L64.9,0.78 C64.6283143,0.741701214 64.3543669,0.721656285 64.08,0.72 L35.47,0.72 C35.47,8.72 35.47,16.72 35.47,24.72 L0.39,24.72 L0.39,41 C0.390869144,41.6410145 0.488640529,42.2782142 0.68,42.89 C0.74,43.09 0.81,43.2833333 0.89,43.47 C1.05123596,43.8482532 1.24883033,44.2099513 1.48,44.55 C1.59333333,44.7166667 1.71666667,44.88 1.85,45.04 C2.0606421,45.2947387 2.29138234,45.5321671 2.54,45.75 L2.59,45.75 C2.84433429,45.9703258 3.11512147,46.1709089 3.4,46.35 C3.88629297,46.6521654 4.41098913,46.887606 4.96,47.05 L5,47.05 C5.23664677,47.1174379 5.47706395,47.1708639 5.72,47.21 L5.91,47.21 C6.18174723,47.247721 6.45565638,47.2677631 6.73,47.27 L64,47.27 C64.2743717,47.2684644 64.5483271,47.2484189 64.82,47.21 L64.94,47.21 C65.196214,47.171407 65.4499736,47.1179839 65.7,47.05 L65.89,47.05 L65.97,47.05 L66.27,46.94 L66.47,46.87 L66.62,46.8 L66.83,46.7 L67.03,46.61 L67.31,46.44 L67.51,46.32 L67.7,46.18 L67.88,46.05 L68,45.96 L68.1,45.87 C68.3745473,45.6351744 68.6287831,45.3775933 68.86,45.1 L69.07,44.81 L69.22,44.61 L69.36,44.38 C69.42,44.28 69.48,44.19 69.54,44.09 C69.7310923,43.7390177 69.8884637,43.3707017 70.01,42.99 C70.01,42.83 70.1,42.67 70.13,42.51 L70.13,42.4 C70.2130046,41.9951683 70.2565418,41.5832391 70.26,41.17 C70.26,41.17 70.26,41.17 70.26,41.12 L70.26,6.76 L70.39,6.76 Z" id="Shape" fill="#ED5565"></path>
                <path d="M35.47,0.4 L6.75,0.4 C6.41482206,0.403725189 6.08045683,0.433818059 5.75,0.49 L5.6,0.49 C5.28745049,0.549939453 4.97990066,0.633512776 4.68,0.74 L4.51,0.8 C4.21715032,0.912095978 3.9330348,1.0457974 3.66,1.2 L3.54,1.27 C3.02137286,1.56896781 2.55242893,1.94682191 2.15,2.39 L2.01,2.54 C1.82997246,2.74254977 1.66297068,2.95631206 1.51,3.18 C0.798008945,4.23056833 0.418245338,5.47089717 0.42,6.74 L0.419993947,24.4 L35.5,24.4 C35.48,16.4 35.47,8.4 35.47,0.4 Z" id="Shape" fill="#FFFFFF"></path>
                <path d="M22.43,9.9 L20.43,9.9 L20.43,7.9 C20.43,6.7954305 19.5345695,5.9 18.43,5.9 L17.43,5.9 C16.3254305,5.9 15.43,6.7954305 15.43,7.9 L15.43,9.9 L13.43,9.9 C12.3254305,9.9 11.43,10.7954305 11.43,11.9 L11.43,12.9 C11.43,14.0045695 12.3254305,14.9 13.43,14.9 L15.43,14.9 L15.43,16.9 C15.43,18.0045695 16.3254305,18.9 17.43,18.9 L18.43,18.9 C19.5345695,18.9 20.43,18.0045695 20.43,16.9 L20.43,14.9 L22.43,14.9 C23.5345695,14.9 24.43,14.0045695 24.43,12.9 L24.43,11.9 C24.43,10.7954305 23.5345695,9.9 22.43,9.9 Z" id="Shape" fill="#ED5565"></path>
            </g>
        </g>
    </g>
</svg>