<?xml version="1.0" encoding="UTF-8"?>
<svg width="71px" height="48px" viewBox="0 0 71 48" version="1.1" xmlns="http://www.w3.org/2000/svg" xmlns:xlink="http://www.w3.org/1999/xlink">
    <!-- Generator: Sketch 48.1 (47250) - http://www.bohemiancoding.com/sketch -->
    <title>tunisia@2x</title>
    <desc>Created with Sketch.</desc>
    <defs></defs>
    <g id="Flags" stroke="none" stroke-width="1" fill="none" fill-rule="evenodd" transform="translate(-662.000000, -805.000000)">
        <g transform="translate(70.000000, 70.000000)" fill-rule="nonzero" id="tunisia">
            <g transform="translate(592.000000, 735.000000)">
                <rect id="Rounded_Rectangle_7_copy-54" fill="#ED5565" x="0.63" y="0.41" width="70" height="47" rx="6.36"></rect>
                <circle id="Oval" fill="#FFFFFF" cx="35.63" cy="23.91" r="13.17"></circle>
                <path d="M41,27.53 C40.62,27.78 40.41,27.62 40.53,27.19 L40.99,25.57 C41.1078462,25.0845161 40.9637873,24.5727278 40.61,24.22 L39.44,23.14 C39.11,22.83 39.21,22.59 39.66,22.59 L41.36,22.59 C41.8430955,22.5698834 42.2695922,22.2685966 42.45,21.82 L43.05,20.05 C43.2,19.62 43.43,19.62 43.56,20.05 L44.14,21.83 C44.308165,22.2871926 44.724808,22.6064891 45.21,22.65 L46.94,22.73 C47.39,22.73 47.48,23 47.12,23.28 L45.76,24.37 C45.3947337,24.6999344 45.2279596,25.1964664 45.32,25.68 L45.68,27.13 C45.79,27.57 45.58,27.72 45.2,27.47 L43.82,26.57 C43.3935866,26.3214053 42.8664134,26.3214053 42.44,26.57 L41,27.53 Z M41.66,30.53 C41.2860705,30.7109658 40.8981443,30.8614545 40.5,30.98 C36.6707745,32.1121222 32.6469789,29.9348017 31.5,26.11 C31.1060866,24.6545081 31.1408107,23.1162345 31.6,21.68 C32.2861288,19.6375654 33.8316645,17.9976613 35.8298999,17.1918282 C37.8281353,16.385995 40.0789344,16.4949421 41.99,17.49 C42.0522867,17.5118341 42.1208163,17.507053 42.1794677,17.4767813 C42.2381192,17.4465095 42.2817151,17.3934195 42.3,17.33 C42.3413898,17.2271733 42.303551,17.1094529 42.21,17.05 C41.2895771,16.2567041 40.2180448,15.6580067 39.06,15.29 C34.2395932,13.7514521 29.0752006,16.3581137 27.45,21.15 C27.1594167,22.0111631 27.0009526,22.9113738 26.98,23.82 C26.9763376,27.3377449 28.9875054,30.5468305 32.1549,32.0772405 C35.3222945,33.6076505 39.0863019,33.1889929 41.84,31 C41.9478606,30.9333477 41.9887451,30.7965053 41.9351262,30.6816078 C41.8815074,30.5667102 41.7503666,30.5101462 41.63,30.55 L41.66,30.53 Z" id="Shape" fill="#ED5565"></path>
            </g>
        </g>
    </g>
</svg>