<?xml version="1.0" encoding="UTF-8"?>
<svg width="71px" height="48px" viewBox="0 0 71 48" version="1.1" xmlns="http://www.w3.org/2000/svg" xmlns:xlink="http://www.w3.org/1999/xlink">
    <!-- Generator: Sketch 48.1 (47250) - http://www.bohemiancoding.com/sketch -->
    <title>turkey@2x</title>
    <desc>Created with Sketch.</desc>
    <defs></defs>
    <g id="Flags" stroke="none" stroke-width="1" fill="none" fill-rule="evenodd" transform="translate(-747.000000, -805.000000)">
        <g transform="translate(70.000000, 70.000000)" fill-rule="nonzero" id="turkey">
            <g transform="translate(677.000000, 735.000000)">
                <rect id="Rounded_Rectangle_7_copy-34" fill="#ED5565" x="0.25" y="0.35" width="70" height="47" rx="6.36"></rect>
                <path d="M41,29.39 C40.43,29.77 40.11,29.53 40.3,28.87 L41,26.38 C41.1644987,25.6364374 40.9469006,24.8598372 40.42,24.31 L38.66,22.66 C38.16,22.19 38.3,21.81 38.99,21.81 L41.55,21.81 C42.2855133,21.7771667 42.9306457,21.3090523 43.19,20.62 L44.1,17.91 C44.31,17.25 44.66,17.25 44.87,17.91 L45.73,20.65 C45.9834341,21.3460988 46.6129359,21.8357113 47.35,21.91 L50,22 C50.68,22 50.81,22.41 50.27,22.85 L48.22,24.53 C47.6695458,25.0380641 47.4200529,25.7941034 47.56,26.53 L48.11,28.76 C48.27,29.43 47.94,29.67 47.37,29.29 L45.31,28 C44.6711987,27.61111 43.8688013,27.61111 43.23,28 L41,29.39 Z M42,33.98 L41.95,33.98 C41.3866512,34.2550738 40.8012763,34.4825337 40.2,34.66 C34.4315873,36.3729098 28.3663543,33.0873887 26.65,27.32 L26.59,27.12 C25.4160622,23.1403812 26.5195895,18.8375158 29.4639081,15.9140789 C32.4082268,12.9906419 36.7188373,11.9177676 40.69,13.12 C41.2798203,13.3140024 41.8519165,13.5582306 42.4,13.85 L42.45,13.85 C42.6283302,13.9087853 42.8228608,13.8285074 42.9078321,13.661064 C42.9928033,13.4936207 42.9427371,13.2892189 42.79,13.18 C41.4110732,11.963249 39.7980891,11.0410576 38.05,10.47 C33.8368757,9.16376682 29.2549503,9.91043259 25.6745136,12.4866963 C22.094077,15.06296 19.9301923,19.1701675 19.83,23.58 C19.801655,24.9713346 19.9768402,26.3593408 20.35,27.7 C21.5987979,32.1725156 25.0251378,35.7098445 29.4555843,37.1005404 C33.8860309,38.4912364 38.7192554,37.5465453 42.3,34.59 C42.445293,34.4849707 42.4974139,34.2926808 42.4250494,34.1286547 C42.3526849,33.9646285 42.1755233,33.8734927 42,33.91 L42,33.98 Z" id="Shape" fill="#FFFFFF"></path>
            </g>
        </g>
    </g>
</svg>