<?xml version="1.0" encoding="UTF-8"?>
<svg width="71px" height="48px" viewBox="0 0 71 48" version="1.1" xmlns="http://www.w3.org/2000/svg" xmlns:xlink="http://www.w3.org/1999/xlink">
    <!-- Generator: Sketch 48.1 (47250) - http://www.bohemiancoding.com/sketch -->
    <title>Turks_and_Caicos_Islands@2x</title>
    <desc>Created with Sketch.</desc>
    <defs></defs>
    <g id="Flags" stroke="none" stroke-width="1" fill="none" fill-rule="evenodd" transform="translate(-747.000000, -1234.000000)">
        <g transform="translate(70.000000, 70.000000)" id="Turks_and_Caicos_Islands">
            <g transform="translate(677.000000, 1164.000000)">
                <path d="M64.41,0.36 L6.09,0.36 C3.14062069,0.723733708 0.792057458,3.00286116 0.34,5.94 L0.34,41.66 C0.83388474,44.9019958 3.62060151,47.2978925 6.9,47.3 L63.62,47.3 C65.3810375,47.3 67.0699475,46.6004306 68.315189,45.355189 C69.5604306,44.1099475 70.26,42.4210375 70.26,40.66 L70.26,7 C70.2839951,3.62042158 67.7656685,0.76201335 64.41,0.36 Z" id="Shape" fill="#4658A9" fill-rule="nonzero"></path>
                <path d="M25.22,0.31 L6.82,0.31 C3.18019521,0.348373563 0.249797724,3.30999294 0.25,6.95 L0.25,24.28 L25.25,24.28 L25.22,0.31 Z" id="Shape" fill="#4658A9" fill-rule="nonzero"></path>
                <path d="M10.78,17.72 L10.78,24.28 L14.68,24.28 L14.68,17.57 L21.39,24.28 L25.21,24.28 L25.21,21.28 L18.21,14.28 L25.21,14.28 L25.21,10.28 L18.21,10.28 L25.21,3.28 L25.21,0.28 L21.38,0.28 L14.68,6.98 L14.68,0.28 L10.78,0.28 L10.78,6.84 L4.62,0.68 C3.05670719,1.24647757 1.76185751,2.37724162 0.99,3.85 L7.4,10.26 L0.24,10.26 L0.24,14.26 L7.4,14.26 L0.24,21.42 L0.24,24.25 L4.24,24.25 L10.78,17.72 Z" id="Shape" fill="#FFFFFF" fill-rule="nonzero"></path>
                <path d="M11.78,15 L11.78,24.31 L13.68,24.31 L13.68,14.86 L23.13,24.31 L25.21,24.31 L25.21,23 L15.43,13.22 L25.21,13.22 L25.21,11.27 L15.43,11.27 L25.21,1.49 L25.21,0.26 L23.12,0.26 L13.67,9.71 L13.67,0.26 L11.77,0.26 L11.77,9.56 L3.44,1.22 C2.7663927,1.62866358 2.17051707,2.15344041 1.68,2.77 L10.17,11.26 L0.24,11.26 L0.24,13.21 L10.17,13.21 L0.24,23.14 L0.24,24.23 L2.47,24.23 L11.78,15 Z" id="Shape" fill="#EC5463" fill-rule="nonzero"></path>
                <path d="M56.81,12.74 L56.81,19.82 C56.81,25.63 54.53,30.95 47.76,34.18 C40.99,30.95 38.71,25.63 38.71,19.82 L38.71,12.74 L56.81,12.74 Z" id="Shape" stroke="#FFFFFF" stroke-width="2" stroke-linecap="round" stroke-linejoin="round"></path>
                <path d="M56.81,12.74 L56.81,19.82 C56.81,25.63 54.53,30.95 47.76,34.18 C40.99,30.95 38.71,25.63 38.71,19.82 L38.71,12.74 L56.81,12.74 Z" id="Shape" fill="#F2D660" fill-rule="nonzero"></path>
                <path d="M43.54,15.85 C43.4052967,15.7462357 43.2400354,15.6899765 43.07,15.69 C43.1046546,15.3265432 42.8654577,14.9933761 42.51,14.91 C42.26,14.82 42.17,14.72 42.13,14.53 C42.0849424,14.3345757 41.9274766,14.1849832 41.73,14.15 C41.525996,14.0668846 41.3493309,13.9283237 41.22,13.75 C41.13,13.64 41.1,13.66 41.03,13.85 C40.96,14.04 40.7,14.39 40.94,14.4 C40.758849,14.5047896 40.6890919,14.7314999 40.78,14.92 C40.66,15.02 40.57,15.16 40.78,15.21 C40.99,15.26 40.99,15.31 41,15.35 C40.85,15.35 40.81,15.64 41.16,15.71 C41.08,15.71 41.05,15.96 41.16,15.96 C40.96,15.96 40.8,16.25 40.55,16.25 C40.3,16.25 40.17,16.3 40.16,16.41 C40.1217299,16.5260859 40.04835,16.6274202 39.95,16.7 C40.0886566,16.7301394 40.2336013,16.7011504 40.35,16.62 C40.4598128,16.5383291 40.6101872,16.5383291 40.72,16.62 C40.8528416,16.7074288 41.0118057,16.7462867 41.17,16.73 C40.9476285,16.8568772 40.7881839,17.0706779 40.73,17.32 C40.7078115,17.5329641 40.585173,17.7224964 40.4,17.83 C40.1947887,17.9156954 40.0301843,18.0767214 39.94,18.28 C40.073124,18.6488071 40.3679414,18.936254 40.74,19.06 C41.1363372,19.2080296 41.4998456,19.4322498 41.81,19.72 C42.03,19.96 42.12,19.79 42.44,20.2 C42.76,20.61 43.07,21.4 43.44,21.53 C43.8187567,21.6893161 44.2561571,21.527478 44.44,21.16 C44.68,20.75 44.83,16.55 43.6,15.85 L43.54,15.85 Z" id="Shape" fill="#E77329" fill-rule="nonzero"></path>
                <path d="M44.1,14.1 C43.79,14.43 43.4,14.76 43.47,15.34 C43.54,15.92 43.6,16.89 43.06,17.22 C42.7732943,17.3811891 42.5841847,17.6730567 42.5542265,18.0006 C42.5242683,18.3281433 42.6572926,18.6494743 42.91,18.86 C43.396811,19.2590873 43.6853053,19.8506831 43.7,20.48 C43.81,21.03 44.09,21.48 44.53,21.09 C44.97,21.16 45.21,20.98 45.21,20.63 C45.21,20.28 45.21,20.08 45.56,19.97 C45.8233526,19.9060575 46.0372796,19.7146491 46.13,19.46 C46.28,19.17 46.37,19.03 46.28,18.86 C46.1839507,18.6042814 46.1665386,18.325688 46.23,18.06 C46.3,17.8 46.14,17.66 46.06,17.49 C45.9677267,17.333307 45.9390921,17.1471824 45.98,16.97 C46.0166913,16.7821595 45.9277485,16.5921453 45.76,16.5 C45.6166542,16.4270422 45.5390979,16.2678477 45.57,16.11 C45.57,15.94 45.46,15.83 45.3,15.7 C45.1195815,15.5667933 45.015156,15.3542129 45.02,15.13 C44.8672068,14.6888915 44.5426323,14.3282533 44.12,14.13 L44.1,14.1 Z" id="Shape" stroke="#FFFFFF" stroke-width="0.1" fill="#FFFFFF" fill-rule="nonzero" stroke-linecap="round" stroke-linejoin="round"></path>
                <path d="M44.22,21.23 C44.95,21.04 44.89,19.84 44.78,19.34 C44.5607746,18.7700907 44.5019772,18.1509887 44.61,17.55 C44.92,16.74 44.24,15.98 44.41,15.67 C44.5297327,15.5058971 44.5767397,15.2997895 44.54,15.1 C44.54,15 44.35,14.93 44.34,15.1 C44.3400376,15.2601756 44.2662547,15.4114304 44.14,15.51 C44.01,15.64 44.04,15.92 44.14,16.24 C44.3558349,16.6922341 44.3558349,17.2177659 44.14,17.67" id="Shape" fill="#E77329" fill-rule="nonzero"></path>
                <path d="M49.4,23.6 C49.52,23.78 49.4,23.97 49.61,24.05 C49.82,24.13 49.61,24.46 49.93,24.58 C50.25,24.7 49.93,24.99 50.21,25.13 C50.49,25.27 50.21,25.54 50.5,25.71 C50.79,25.88 50.44,26.25 50.69,26.39 C50.94,26.53 50.61,26.91 50.9,27.05 C51.19,27.19 50.78,27.48 51.04,27.69 C51.3,27.9 50.98,28.21 51.25,28.39 C51.52,28.57 51.08,28.83 51.35,29.09 C51.62,29.35 51.28,29.5 51.43,29.81 C51.58,30.12 51.33,30.81 50.75,30.81 C50.4301717,31.1925019 49.9476715,31.4003482 49.45,31.37 C49.16,31.58 48.23,31.87 47.75,31.37 C47.27,31.83 46.34,31.54 46.05,31.37 C45.5523285,31.4003482 45.0698283,31.1925019 44.75,30.81 C44.17,30.89 43.96,30.06 44.07,29.81 C44.18,29.56 43.95,29.29 44.15,29.09 C44.35,28.89 43.98,28.57 44.25,28.39 C44.52,28.21 44.19,27.89 44.46,27.69 C44.73,27.49 44.31,27.19 44.6,27.05 C44.89,26.91 44.6,26.53 44.81,26.39 C45.02,26.25 44.67,25.87 45,25.71 C45.33,25.55 45,25.25 45.29,25.13 C45.58,25.01 45.29,24.68 45.57,24.58 C45.85,24.48 45.65,24.14 45.89,24.05 C46.13,23.96 45.97,23.77 46.1,23.59 C47.1792216,23.9162101 48.3307784,23.9162101 49.41,23.59 L49.4,23.6 Z" id="Shape" fill="#51C161" fill-rule="nonzero"></path>
                <path d="M46.34,24.69 C46.3487816,24.7977584 46.316648,24.9048704 46.25,24.99 C46.06,25.24 46.33,25.36 46.13,25.63 C45.93,25.9 46.13,26.06 45.94,26.29 C45.75,26.52 45.94,26.72 45.75,26.97 C45.56,27.22 45.75,27.38 45.56,27.61 C45.37,27.84 45.56,28.09 45.37,28.31 C45.18,28.53 45.37,28.83 45.16,29.1 C44.95,29.37 45.16,29.58 44.99,29.78 C44.82,29.98 44.99,30.19 44.82,30.34 C45.07,30.15 45.07,29.86 45.25,29.72 C45.43,29.58 45.19,29.37 45.25,29.26 C45.31,29.15 45.25,28.72 45.46,28.51 C45.67,28.3 45.46,27.89 45.65,27.74 C45.84,27.59 45.65,27.16 45.9,27.02 C46.15,26.88 45.9,26.52 46.07,26.34 C46.24,26.16 46.07,25.86 46.24,25.64 C46.41,25.42 46.24,25.21 46.36,25.02 C46.48,24.83 46.41,24.34 46.28,24.68 L46.34,24.69 Z" id="Shape" fill="#FCC300" fill-rule="nonzero"></path>
                <path d="M46.94,24.95 C46.8,25.22 47.04,25.28 46.86,25.55 C46.68,25.82 46.96,26.03 46.76,26.3 C46.56,26.57 46.86,26.71 46.68,26.98 C46.5,27.25 46.76,27.39 46.6,27.6 C46.44,27.81 46.72,28.01 46.52,28.26 C46.32,28.51 46.6,28.69 46.44,28.92 C46.28,29.15 46.5,29.4 46.36,29.58 C46.22,29.76 46.46,30.04 46.26,30.28 C46.06,30.52 46.26,30.69 46.18,30.86 C46.43,30.78 46.34,30.44 46.43,30.36 C46.52,30.28 46.43,29.81 46.54,29.69 C46.65,29.57 46.45,29.18 46.54,29.02 C46.63,28.86 46.54,28.55 46.71,28.34 C46.88,28.13 46.66,27.84 46.76,27.7 C46.86,27.56 46.68,27.23 46.81,27.05 C46.94,26.87 46.81,26.58 46.9,26.41 C46.99,26.24 46.9,25.89 46.96,25.76 C47.02,25.63 47.18,25.05 46.96,24.95 L46.94,24.95 Z" id="Shape" fill="#FCC300" fill-rule="nonzero"></path>
                <path d="M47.74,25.17 C47.6,25.53 47.84,25.68 47.74,25.96 C47.64,26.24 47.84,26.47 47.74,26.78 C47.64,27.09 47.91,27.33 47.74,27.78 C47.57,28.23 47.85,28.29 47.74,28.69 C47.63,29.09 47.95,29.41 47.74,29.69 C47.53,29.97 47.98,30.13 47.74,30.48 C47.64,30.65 47.74,31.07 47.92,30.56 C48.1,30.05 47.8,29.99 47.92,29.78 C48.04,29.57 47.87,29.02 47.92,28.78 C47.97,28.54 47.78,28.1 47.92,27.78 C48.06,27.46 47.71,27.14 47.85,26.87 C47.99,26.6 47.79,26.27 47.91,26.05 C48.03,25.83 47.82,25.54 47.91,25.42 C48,25.3 47.86,24.84 47.74,25.19 L47.74,25.17 Z" id="Shape" fill="#FCC300" fill-rule="nonzero"></path>
                <path d="M49.3,23.85 C49.3,21.51 48.97,20.7 47.75,20.7 C46.53,20.7 46.2,21.51 46.2,23.85 L49.31,23.85 L49.3,23.85 Z" id="Shape" fill="#EC5565" fill-rule="nonzero"></path>
                <path d="M47.74,24.19 C48.2097326,24.1923705 48.6764272,24.1145881 49.12,23.96 C49.54,23.8 49.57,23.65 49.42,23.47 C49.27,23.29 49.09,23.42 48.87,23.47 C48.1311729,23.6790744 47.3488271,23.6790744 46.61,23.47 C46.39,23.37 46.17,23.3 46.06,23.47 C45.95,23.64 45.94,23.8 46.36,23.96 C46.8035241,24.1147786 47.2702517,24.1925666 47.74,24.19 Z" id="Shape" fill="#EC5565" fill-rule="nonzero"></path>
                <path d="M52.47,21.09 L53.02,22.09 C53.25,22.49 53.44,22.58 53.61,22.46 C53.78,22.34 53.61,22.01 53.5,21.86 C53.39,21.71 52.62,20.98 52.62,20.98 L52.47,21.14 L52.47,21.09 Z" id="Shape" fill="#EC5565" fill-rule="nonzero"></path>
                <path d="M52.39,21.13 L52.61,22.22 C52.7,22.68 52.85,22.83 53.05,22.78 C53.25,22.73 53.22,22.37 53.14,22.17 C53.06,21.97 52.59,21.03 52.59,21.03 L52.39,21.13 Z" id="Shape" fill="#EC5565" fill-rule="nonzero"></path>
                <path d="M52.26,21.15 C52.26,21.15 52.26,21.79 52.26,22.27 C52.26,22.75 52.38,22.92 52.58,22.91 C52.78,22.9 52.82,22.54 52.78,22.34 C52.74,22.14 52.47,21.1 52.47,21.1 L52.26,21.15 Z" id="Shape" fill="#EC5565" fill-rule="nonzero"></path>
                <path d="M52,21.09 L51.45,22.09 C51.22,22.49 51.03,22.58 50.86,22.46 C50.69,22.34 50.86,22.01 50.97,21.86 C51.08,21.71 51.85,20.98 51.85,20.98 L52,21.14 L52,21.09 Z" id="Shape" fill="#EC5565" fill-rule="nonzero"></path>
                <path d="M52.12,21.13 L51.9,22.22 C51.81,22.68 51.66,22.83 51.46,22.78 C51.26,22.73 51.29,22.37 51.37,22.17 C51.45,21.97 51.92,21.03 51.92,21.03 L52.12,21.13 Z" id="Shape" fill="#EC5565" fill-rule="nonzero"></path>
                <path d="M52.26,21.15 C52.26,21.15 52.26,21.79 52.26,22.27 C52.26,22.75 52.14,22.92 51.94,22.91 C51.74,22.9 51.7,22.54 51.74,22.34 C51.78,22.14 52.05,21.1 52.05,21.1 L52.26,21.15 Z" id="Shape" fill="#EC5565" fill-rule="nonzero"></path>
                <path d="M52.61,16.19 C53.0399522,15.7663063 53.5201968,15.3968874 54.04,15.09 C54.95,14.54 55.61,14.09 55.73,14.21 C55.300247,14.6339222 54.819973,15.0033638 54.3,15.31 C53.65,15.75 52.87,16.41 52.87,16.41 L52.61,16.19 Z" id="Shape" fill="#EC5565" fill-rule="nonzero"></path>
                <path d="M52.67,16.63 C53.1538623,16.3430432 53.6547943,16.0858981 54.17,15.86 C54.91125,15.5575631 55.7253691,15.481022 56.51,15.64 C55.8083945,15.7444009 55.1137811,15.8913383 54.43,16.08 C53.9147299,16.3057626 53.4137897,16.5629119 52.93,16.85 L52.67,16.63 Z" id="Shape" fill="#EC5565" fill-rule="nonzero"></path>
                <path d="M52.67,17.39 C53.1580692,17.175635 53.6590433,16.9919446 54.17,16.84 C54.9578145,16.5933635 55.8021855,16.5933635 56.59,16.84 C56.46,16.95 55.34,16.84 54.59,17.06 C54.0304351,17.1911599 53.4846365,17.375325 52.96,17.61 L52.7,17.39 L52.67,17.39 Z" id="Shape" fill="#EC5565" fill-rule="nonzero"></path>
                <path d="M52.72,18.17 C53.2010561,17.8375392 53.7658611,17.6469608 54.35,17.62 C55.0810458,17.5375147 55.8116335,17.7786086 56.35,18.28 C56.22,18.39 55.18,17.79 54.4,17.88 C53.8846189,17.9394675 53.3891309,18.1137426 52.95,18.39 L52.69,18.17 L52.72,18.17 Z" id="Shape" fill="#EC5565" fill-rule="nonzero"></path>
                <path d="M52.47,15.74 C52.47,15.74 53.31,15.19 53.31,14.74 C53.2399055,14.3420995 53.0790793,13.9656979 52.84,13.64 C53.05,13.64 53.52,14.3 53.52,14.74 C53.52,15.18 52.73,15.95 52.73,15.95 L52.47,15.73 L52.47,15.74 Z" id="Shape" fill="#EC5565" fill-rule="nonzero"></path>
                <path d="M52.47,15.74 C52.3905897,15.4128938 52.3569357,15.0763536 52.37,14.74 C52.3773935,14.1976235 52.6047713,13.681512 53,13.31 C53,13.48 52.58,14.08 52.58,14.74 C52.5969452,15.1467469 52.6471123,15.5514278 52.73,15.95 L52.47,15.73 L52.47,15.74 Z" id="Shape" fill="#EC5565" fill-rule="nonzero"></path>
                <path d="M51.9,16.19 C51.4700478,15.7663063 50.9898032,15.3968874 50.47,15.09 C49.56,14.54 48.9,14.09 48.78,14.21 C49.209753,14.6339222 49.690027,15.0033638 50.21,15.31 C50.86,15.75 51.64,16.41 51.64,16.41 L51.9,16.19 Z" id="Shape" fill="#EC5565" fill-rule="nonzero"></path>
                <path d="M51.84,16.63 C51.3561377,16.3430432 50.8552057,16.0858981 50.34,15.86 C49.59875,15.5575631 48.7846309,15.481022 48,15.64 C48.7016055,15.7444009 49.3962189,15.8913383 50.08,16.08 C50.5952701,16.3057626 51.0962103,16.5629119 51.58,16.85 L51.84,16.63 Z" id="Shape" fill="#EC5565" fill-rule="nonzero"></path>
                <path d="M51.84,17.39 C51.3519308,17.175635 50.8509567,16.9919446 50.34,16.84 C49.5521855,16.5933635 48.7078145,16.5933635 47.92,16.84 C48.05,16.95 49.17,16.84 49.92,17.06 C50.4795649,17.1911599 51.0253635,17.375325 51.55,17.61 L51.81,17.39 L51.84,17.39 Z" id="Shape" fill="#EC5565" fill-rule="nonzero"></path>
                <path d="M51.79,18.17 C51.3089439,17.8375392 50.7441389,17.6469608 50.16,17.62 C49.4289542,17.5375147 48.6983665,17.7786086 48.16,18.28 C48.29,18.39 49.33,17.79 50.11,17.88 C50.6253811,17.9394675 51.1208691,18.1137426 51.56,18.39 L51.82,18.17 L51.79,18.17 Z" id="Shape" fill="#EC5565" fill-rule="nonzero"></path>
                <path d="M52,15.74 C52,15.74 51.16,15.19 51.16,14.74 C51.2300945,14.3420995 51.3909207,13.9656979 51.63,13.64 C51.42,13.64 50.95,14.3 50.95,14.74 C50.95,15.18 51.74,15.95 51.74,15.95 L52,15.73 L52,15.74 Z" id="Shape" fill="#EC5565" fill-rule="nonzero"></path>
                <path d="M52,15.74 C52.0794103,15.4128938 52.1130643,15.0763536 52.1,14.74 C52.0926065,14.1976235 51.8652287,13.681512 51.47,13.31 C51.47,13.48 51.89,14.08 51.89,14.74 C51.8730548,15.1467469 51.8228877,15.5514278 51.74,15.95 L52,15.73 L52,15.74 Z" id="Shape" fill="#EC5565" fill-rule="nonzero"></path>
                <path d="M55,23.68 C54.7461869,22.9316541 54.6046502,22.1498323 54.58,21.36 C54.58,20.74 54.77,17.72 54.79,16.51 C54.81,15.3 54.06,14.64 53.33,14.64 C53.0465122,14.6385786 52.775743,14.757548 52.5850461,14.9673146 C52.3943492,15.1770812 52.3016473,15.45793 52.33,15.74 L52.64,15.74 C52.6290002,15.5395594 52.7010267,15.3434344 52.8391386,15.1977548 C52.9772505,15.0520751 53.169258,14.9696984 53.37,14.97 C54,14.97 54.48,15.49 54.52,16.51 C54.52,17.69 54.39,20.76 54.42,21.58 C54.4838489,22.3126146 54.6983294,23.0241451 55.05,23.67 L55,23.68 Z" id="Shape" fill="#EC5565" fill-rule="nonzero"></path>
                <path d="M49.54,23.68 C49.8373619,22.943578 49.980315,22.1539324 49.96,21.36 C49.96,20.74 49.77,17.72 49.75,16.51 C49.73,15.3 50.48,14.64 51.21,14.64 C51.4934878,14.6385786 51.764257,14.757548 51.9549539,14.9673146 C52.1456508,15.1770812 52.2383527,15.45793 52.21,15.74 L51.9,15.74 C51.9109998,15.5395594 51.8389733,15.3434344 51.7008614,15.1977548 C51.5627495,15.0520751 51.370742,14.9696984 51.17,14.97 C50.54,14.97 50.06,15.49 50.02,16.51 C50.02,17.69 50.15,20.76 50.12,21.58 C50.0914921,22.3189632 49.8746327,23.0383855 49.49,23.67 L49.54,23.68 Z" id="Shape" fill="#EC5565" fill-rule="nonzero"></path>
                <path d="M52.26,21.14 C52.84,21.14 52.91,20.92 52.91,20.92 C52.91,20.92 53.04,20.48 52.97,20.37 C52.9,20.26 52.26,20.26 52.26,20.26 L52.26,21.14 Z" id="Shape" fill="#EC5565" fill-rule="nonzero"></path>
                <path d="M52.26,20.7 C52.89,20.7 52.99,20.48 52.99,20.48 C52.99,20.48 53.2,20.04 53.09,19.93 C52.98,19.82 52.25,19.82 52.25,19.82 L52.25,20.7 L52.26,20.7 Z" id="Shape" fill="#EC5565" fill-rule="nonzero"></path>
                <path d="M52.26,20.26 C52.5552419,20.2681963 52.8466796,20.1918674 53.1,20.04 C53.1,20.04 53.31,19.6 53.2,19.49 C52.894236,19.4049665 52.5771355,19.367859 52.26,19.38 L52.26,20.26 Z" id="Shape" fill="#EC5565" fill-rule="nonzero"></path>
                <path d="M52.26,19.71 C53.2,19.71 53.2,19.43 53.2,19.43 C53.2,19.43 53.41,18.99 53.3,18.88 C52.9684253,18.8315763 52.6315747,18.8315763 52.3,18.88 L52.3,19.76 L52.26,19.71 Z" id="Shape" fill="#EC5565" fill-rule="nonzero"></path>
                <path d="M52.26,19.27 C53.2,19.27 53.26,19.05 53.26,19.05 C53.26,19.05 53.47,18.61 53.36,18.5 C52.9830748,18.4135198 52.5964846,18.3765416 52.21,18.39 L52.21,19.27 L52.26,19.27 Z" id="Shape" fill="#EC5565" fill-rule="nonzero"></path>
                <path d="M52.26,18.72 C53.2,18.72 53.41,18.5 53.41,18.5 C53.41,18.5 53.62,18.06 53.51,17.95 C53.0992295,17.8634913 52.6795659,17.8265609 52.26,17.84 L52.26,18.72 Z" id="Shape" fill="#EC5565" fill-rule="nonzero"></path>
                <path d="M52.26,18.17 C52.6886334,18.2049635 53.1190609,18.1292083 53.51,17.95 C53.51,17.95 53.61,17.51 53.51,17.4 C53.0992295,17.3134913 52.6795659,17.2765609 52.26,17.29 L52.26,18.17 Z" id="Shape" fill="#EC5565" fill-rule="nonzero"></path>
                <path d="M52.26,17.61 C52.6886334,17.6449635 53.1190609,17.5692083 53.51,17.39 C53.51,17.39 53.51,16.95 53.41,16.84 C53.0330748,16.7535198 52.6464846,16.7165416 52.26,16.73 L52.26,17.61 Z" id="Shape" fill="#EC5565" fill-rule="nonzero"></path>
                <path d="M52.26,17.06 C53.2,17.06 53.41,16.84 53.41,16.84 C53.41,16.84 53.41,16.4 53.31,16.29 C52.9831636,16.208343 52.6467713,16.1713399 52.31,16.18 L52.31,17.06 L52.26,17.06 Z" id="Shape" fill="#EC5565" fill-rule="nonzero"></path>
                <path d="M52.26,15.68 C52.6764042,15.7052946 53.0521817,15.9382766 53.26,16.3 L53.05,16.51 C52.94,16.62 52.21,16.62 52.22,16.62 L52.22,15.68 L52.26,15.68 Z" id="Shape" fill="#EC5565" fill-rule="nonzero"></path>
                <path d="M52.25,21.14 C51.67,21.14 51.6,20.92 51.6,20.92 C51.6,20.92 51.47,20.48 51.54,20.37 C51.61,20.26 52.25,20.26 52.25,20.26 L52.25,21.14 Z" id="Shape" fill="#EC5565" fill-rule="nonzero"></path>
                <path d="M52.25,20.7 C51.62,20.7 51.52,20.48 51.52,20.48 C51.52,20.48 51.31,20.04 51.42,19.93 C51.53,19.82 52.26,19.82 52.26,19.82 L52.26,20.7 L52.25,20.7 Z" id="Shape" fill="#EC5565" fill-rule="nonzero"></path>
                <path d="M52.25,20.26 C51.9547581,20.2681963 51.6633204,20.1918674 51.41,20.04 C51.41,20.04 51.2,19.6 51.31,19.49 C51.615764,19.4049665 51.9328645,19.367859 52.25,19.38 L52.25,20.26 Z" id="Shape" fill="#EC5565" fill-rule="nonzero"></path>
                <path d="M52.25,19.71 C51.31,19.71 51.31,19.43 51.31,19.43 C51.31,19.43 51.1,18.99 51.21,18.88 C51.5415747,18.8315763 51.8784253,18.8315763 52.21,18.88 L52.21,19.76 L52.25,19.71 Z" id="Shape" fill="#EC5565" fill-rule="nonzero"></path>
                <path d="M52.25,19.27 C51.31,19.27 51.25,19.05 51.25,19.05 C51.25,19.05 51.04,18.61 51.15,18.5 C51.5269252,18.4135198 51.9135154,18.3765416 52.3,18.39 L52.3,19.27 L52.25,19.27 Z" id="Shape" fill="#EC5565" fill-rule="nonzero"></path>
                <path d="M52.25,18.72 C51.31,18.72 51.1,18.5 51.1,18.5 C51.1,18.5 50.89,18.06 51,17.95 C51.4107705,17.8634913 51.8304341,17.8265609 52.25,17.84 L52.25,18.72 Z" id="Shape" fill="#EC5565" fill-rule="nonzero"></path>
                <path d="M52.25,18.17 C51.8213666,18.2049635 51.3909391,18.1292083 51,17.95 C51,17.95 50.9,17.51 51,17.4 C51.4107705,17.3134913 51.8304341,17.2765609 52.25,17.29 L52.25,18.17 Z" id="Shape" fill="#EC5565" fill-rule="nonzero"></path>
                <path d="M52.25,17.61 C51.8213666,17.6449635 51.3909391,17.5692083 51,17.39 C51,17.39 51,16.95 51.1,16.84 C51.4769252,16.7535198 51.8635154,16.7165416 52.25,16.73 L52.25,17.61 Z" id="Shape" fill="#EC5565" fill-rule="nonzero"></path>
                <path d="M52.25,17.06 C51.31,17.06 51.1,16.84 51.1,16.84 C51.1,16.84 51.1,16.4 51.2,16.29 C51.5268364,16.208343 51.8632287,16.1713399 52.2,16.18 L52.2,17.06 L52.25,17.06 Z" id="Shape" fill="#EC5565" fill-rule="nonzero"></path>
                <path d="M52.25,15.68 C51.8335958,15.7052946 51.4578183,15.9382766 51.25,16.3 L51.46,16.51 C51.57,16.62 52.3,16.62 52.29,16.62 L52.29,15.68 L52.25,15.68 Z" id="Shape" fill="#EC5565" fill-rule="nonzero"></path>
            </g>
        </g>
    </g>
</svg>