<?xml version="1.0" encoding="UTF-8"?>
<svg width="71px" height="48px" viewBox="0 0 71 48" version="1.1" xmlns="http://www.w3.org/2000/svg" xmlns:xlink="http://www.w3.org/1999/xlink">
    <!-- Generator: Sketch 48.1 (47250) - http://www.bohemiancoding.com/sketch -->
    <title>turkmenistan@2x</title>
    <desc>Created with Sketch.</desc>
    <defs></defs>
    <g id="Flags" stroke="none" stroke-width="1" fill="none" fill-rule="evenodd" transform="translate(-831.000000, -805.000000)">
        <g transform="translate(70.000000, 70.000000)" fill-rule="nonzero" id="turkmenistan">
            <g transform="translate(761.000000, 735.000000)">
                <rect id="Rounded_Rectangle_7_copy-39" fill="#57A863" x="0.87" y="0.35" width="70" height="47" rx="6.36"></rect>
                <rect id="Rectangle-path" fill="#ED5565" x="7.87" y="0.35" width="10" height="47"></rect>
                <path d="M35.7,8.05 C35.91,8.1 35.93,8.23 35.7,8.34 L34.96,8.74 C34.7467916,8.87156703 34.6121212,9.09975859 34.6,9.35 L34.6,10.15 C34.6,10.38 34.48,10.43 34.33,10.26 L33.76,9.64 C33.588179,9.47099572 33.3308396,9.4234869 33.11,9.52 L32.27,9.92 C32.07,10.02 31.99,9.92 32.1,9.73 L32.55,8.9 C32.6556007,8.68146119 32.6284919,8.42199183 32.48,8.23 L31.93,7.58 C31.78,7.41 31.84,7.29 32.07,7.32 L32.92,7.43 C33.1676648,7.44523904 33.405724,7.33187748 33.55,7.13 L33.95,6.49 C34.07,6.3 34.2,6.32 34.24,6.54 L34.37,7.35 C34.4249169,7.58929218 34.6045588,7.7804006 34.84,7.85 L35.7,8.05 Z M38.4,9.34 C38.7974802,9.48419631 39.1821625,9.66148469 39.55,9.87 C41.2332927,10.8389052 42.4625179,12.4370655 42.9670422,14.3126206 C43.4715666,16.1881757 43.210025,18.1873523 42.24,19.87 L42.18,19.97 C41.7817362,20.6334817 41.286226,21.2334872 40.71,21.75 C38.8297089,23.5601923 36.1366158,24.2493569 33.6179332,23.5648655 C31.0992506,22.880374 29.1254229,20.9229005 28.42,18.41 C28.42,18.41 28.42,18.41 28.42,18.41 C28.3573113,18.2851516 28.2071671,18.2321596 28.08,18.29 C27.981666,18.3369032 27.9250289,18.4420863 27.94,18.55 C27.9801872,19.7841311 28.276453,20.9964372 28.81,22.11 C30.1230571,24.7630078 32.6056731,26.6454867 35.5146003,27.1938588 C38.4235274,27.7422309 41.4211362,26.8928483 43.61,24.9 C44.3046482,24.2751676 44.8983494,23.5465342 45.37,22.74 C46.9610214,20.0648366 47.093234,16.7670651 45.7214773,13.9731194 C44.3497206,11.1791738 41.6596032,9.26709502 38.57,8.89 C38.4605526,8.86540928 38.3476739,8.91378583 38.29,9.01 C38.2217295,9.12884329 38.2618732,9.28049719 38.38,9.35 L38.4,9.34 Z M31.7,5.05 C31.91,5.1 31.93,5.23 31.7,5.34 L30.96,5.74 C30.7467916,5.87156703 30.6121212,6.09975859 30.6,6.35 L30.6,7.15 C30.6,7.38 30.48,7.43 30.33,7.26 L29.76,6.64 C29.588179,6.47099572 29.3308396,6.4234869 29.11,6.52 L28.27,6.92 C28.07,7.02 27.99,6.92 28.1,6.73 L28.55,5.9 C28.6556007,5.68146119 28.6284919,5.42199183 28.48,5.23 L27.93,4.58 C27.78,4.41 27.84,4.29 28.07,4.32 L28.92,4.43 C29.1676648,4.44523904 29.405724,4.33187748 29.55,4.13 L29.95,3.49 C30.07,3.3 30.2,3.32 30.24,3.54 L30.37,4.35 C30.4249169,4.58929218 30.6045588,4.7804006 30.84,4.85 L31.7,5.05 Z M30.7,9.05 C30.91,9.1 30.93,9.23 30.7,9.34 L29.96,9.74 C29.7467916,9.87156703 29.6121212,10.0997586 29.6,10.35 L29.6,11.15 C29.6,11.38 29.48,11.43 29.33,11.26 L28.76,10.64 C28.588179,10.4709957 28.3308396,10.4234869 28.11,10.52 L27.27,10.92 C27.07,11.02 26.99,10.92 27.1,10.73 L27.55,9.9 C27.6556007,9.68146119 27.6284919,9.42199183 27.48,9.23 L26.93,8.58 C26.78,8.41 26.84,8.29 27.07,8.32 L27.92,8.43 C28.1676648,8.44523904 28.405724,8.33187748 28.55,8.13 L28.95,7.49 C29.07,7.3 29.2,7.32 29.24,7.55 L29.37,8.36 C29.4249169,8.59929218 29.6045588,8.7904006 29.84,8.86 L30.7,9.05 Z M25.7,11.05 C25.91,11.1 25.93,11.23 25.7,11.34 L24.96,11.74 C24.7467916,11.871567 24.6121212,12.0997586 24.6,12.35 L24.6,13.15 C24.6,13.38 24.48,13.43 24.33,13.26 L23.76,12.64 C23.588179,12.4709957 23.3308396,12.4234869 23.11,12.52 L22.27,12.92 C22.07,13.02 21.99,12.92 22.1,12.73 L22.55,11.9 C22.6556007,11.6814612 22.6284919,11.4219918 22.48,11.23 L21.93,10.58 C21.78,10.41 21.84,10.29 22.07,10.32 L22.92,10.43 C23.1676648,10.445239 23.405724,10.3318775 23.55,10.13 L23.95,9.49 C24.07,9.3 24.2,9.32 24.24,9.54 L24.37,10.35 C24.4249169,10.5892922 24.6045588,10.7804006 24.84,10.85 L25.7,11.05 Z M29.7,14.05 C29.91,14.1 29.93,14.23 29.7,14.34 L28.96,14.74 C28.7467916,14.871567 28.6121212,15.0997586 28.6,15.35 L28.6,16.15 C28.6,16.38 28.48,16.43 28.33,16.26 L27.76,15.64 C27.588179,15.4709957 27.3308396,15.4234869 27.11,15.52 L26.27,15.92 C26.07,16.02 25.99,15.92 26.1,15.73 L26.55,14.9 C26.6556007,14.6814612 26.6284919,14.4219918 26.48,14.23 L25.93,13.58 C25.78,13.41 25.84,13.29 26.07,13.32 L26.92,13.43 C27.1676648,13.445239 27.405724,13.3318775 27.55,13.13 L27.95,12.49 C28.07,12.3 28.2,12.32 28.24,12.54 L28.37,13.35 C28.4249169,13.5892922 28.6045588,13.7804006 28.84,13.85 L29.7,14.05 Z" id="Shape" fill="#FFFFFF"></path>
            </g>
        </g>
    </g>
</svg>