<?xml version="1.0" encoding="UTF-8"?>
<svg width="71px" height="48px" viewBox="0 0 71 48" version="1.1" xmlns="http://www.w3.org/2000/svg" xmlns:xlink="http://www.w3.org/1999/xlink">
    <!-- Generator: Sketch 48.1 (47250) - http://www.bohemiancoding.com/sketch -->
    <title>tuvalu@2x</title>
    <desc>Created with Sketch.</desc>
    <defs></defs>
    <g id="Flags" stroke="none" stroke-width="1" fill="none" fill-rule="evenodd" transform="translate(-493.000000, -866.000000)">
        <g transform="translate(70.000000, 70.000000)" fill-rule="nonzero" id="tuvalu">
            <g transform="translate(423.000000, 796.000000)">
                <path d="M64.51,0.71 L9.18,0.71 L0.43,9.29 L0.43,42 C0.92388474,45.2419958 3.71060151,47.6378925 6.99,47.64 L63.7,47.64 C67.3671707,47.64 70.34,44.6671707 70.34,41 L70.34,7.3 C70.3397931,3.94623067 67.838722,1.11911945 64.51,0.71 Z" id="Shape" fill="#3BAFDA"></path>
                <path d="M25.4,0.71 L7,0.71 C3.36019521,0.748373563 0.429797724,3.70999294 0.43,7.35 L0.43,24.68 L25.43,24.68 L25.4,0.71 Z" id="Shape" fill="#4658A9"></path>
                <path d="M11,18.11 L11,24.67 L14.9,24.67 L14.9,18 L21.61,24.71 L25.43,24.71 L25.43,21.71 L18.43,14.71 L25.43,14.71 L25.43,10.71 L18.43,10.71 L25.43,3.71 L25.43,0.71 L21.6,0.71 L14.9,7.41 L14.9,0.71 L11,0.71 L11,7.27 L4.84,1.11 C3.27670719,1.67647757 1.98185751,2.80724162 1.21,4.28 L7.62,10.69 L0.46,10.69 L0.46,14.69 L7.62,14.69 L0.46,21.85 L0.46,24.68 L4.46,24.68 L11,18.11 Z" id="Shape" fill="#FFFFFF"></path>
                <path d="M12,15.37 L12,24.68 L13.9,24.68 L13.9,15.23 L23.35,24.68 L25.43,24.68 L25.43,23.45 L15.65,13.67 L25.43,13.67 L25.43,11.72 L15.65,11.72 L25.43,1.94 L25.43,0.71 L23.34,0.71 L13.89,10.16 L13.89,0.71 L12,0.71 L12,10 L3.67,1.66 C2.9963927,2.06866358 2.40051707,2.59344041 1.91,3.21 L10.4,11.7 L0.47,11.7 L0.47,13.65 L10.4,13.65 L0.47,23.58 L0.47,24.67 L2.7,24.67 L12,15.37 Z" id="Shape" fill="#EC5463"></path>
                <path d="M50.55,24.48 C50.29,24.66 50.14,24.56 50.22,24.25 L50.49,23.1 C50.5585853,22.7589202 50.4449684,22.4067077 50.19,22.17 L49.36,21.44 C49.12,21.23 49.18,21.06 49.5,21.05 L50.67,21.05 C51.005561,21.023428 51.2928539,20.7991034 51.4,20.48 L51.77,19.23 C51.86,18.93 52.02,18.92 52.12,19.23 L52.56,20.46 C52.6898695,20.7758942 52.9890613,20.9896026 53.33,21.01 L54.52,21.01 C54.83,21.01 54.9,21.19 54.66,21.39 L53.76,22.19 C53.5158896,22.4328415 53.4138852,22.7841899 53.49,23.12 L53.78,24.12 C53.87,24.42 53.72,24.54 53.45,24.37 L52.45,23.77 C52.1450275,23.5755408 51.7549725,23.5755408 51.45,23.77 L50.55,24.48 Z" id="Shape" fill="#FFCE54"></path>
                <path d="M56.25,22.44 C55.99,22.62 55.84,22.52 55.92,22.21 L56.19,21.06 C56.2585853,20.7189202 56.1449684,20.3667077 55.89,20.13 L55.06,19.4 C54.82,19.19 54.88,19.02 55.2,19.01 L56.37,19.01 C56.705561,18.983428 56.9928539,18.7591034 57.1,18.44 L57.47,17.19 C57.56,16.89 57.72,16.88 57.82,17.19 L58.26,18.42 C58.3898695,18.7358942 58.6890613,18.9496026 59.03,18.97 L60.22,18.97 C60.53,18.97 60.6,19.15 60.36,19.35 L59.46,20.15 C59.2158896,20.3928415 59.1138852,20.7441899 59.19,21.08 L59.48,22.08 C59.57,22.38 59.42,22.5 59.15,22.33 L58.15,21.73 C57.8450275,21.5355408 57.4549725,21.5355408 57.15,21.73 L56.25,22.44 Z" id="Shape_2_copy-3" fill="#FFCE54"></path>
                <path d="M55.06,34.35 C54.8,34.53 54.65,34.43 54.73,34.12 L55,33 C55.0685853,32.6589202 54.9549684,32.3067077 54.7,32.07 L53.87,31.34 C53.63,31.13 53.69,30.96 54.01,30.95 L55.18,30.95 C55.515561,30.923428 55.8028539,30.6991034 55.91,30.38 L56.28,29.13 C56.37,28.83 56.53,28.82 56.63,29.13 L57.07,30.36 C57.1998695,30.6758942 57.4990613,30.8896026 57.84,30.91 L59,30.91 C59.31,30.91 59.38,31.09 59.14,31.29 L58.24,32.09 C57.9958896,32.3328415 57.8938852,32.6841899 57.97,33.02 L58.26,34.02 C58.35,34.32 58.2,34.44 57.93,34.27 L56.93,33.67 C56.6250275,33.4755408 56.2349725,33.4755408 55.93,33.67 L55.06,34.35 Z" id="Shape_2_copy_2-3" fill="#FFCE54"></path>
                <path d="M61,17.77 C60.74,17.95 60.59,17.85 60.67,17.54 L60.94,16.39 C61.0085853,16.0489202 60.8949684,15.6967077 60.64,15.46 L59.81,14.73 C59.57,14.52 59.63,14.35 59.95,14.34 L61.12,14.34 C61.455561,14.313428 61.7428539,14.0891034 61.85,13.77 L62.22,12.52 C62.31,12.22 62.47,12.21 62.57,12.52 L63.01,13.75 C63.1398695,14.0658942 63.4390613,14.2796026 63.78,14.3 L64.97,14.3 C65.28,14.3 65.35,14.48 65.11,14.68 L64.21,15.48 C63.9658896,15.7228415 63.8638852,16.0741899 63.94,16.41 L64.23,17.41 C64.32,17.71 64.17,17.83 63.9,17.66 L62.9,17.06 C62.5950275,16.8655408 62.2049725,16.8655408 61.9,17.06 L61,17.77 Z" id="Shape_2_copy_43" fill="#FFCE54"></path>
                <path d="M61,30.52 C60.74,30.7 60.59,30.6 60.67,30.29 L60.94,29.14 C61.0085853,28.7989202 60.8949684,28.4467077 60.64,28.21 L59.81,27.48 C59.57,27.27 59.63,27.1 59.95,27.09 L61.12,27.09 C61.455561,27.063428 61.7428539,26.8391034 61.85,26.52 L62.22,25.27 C62.31,24.97 62.47,24.96 62.57,25.27 L63.01,26.5 C63.1398695,26.8158942 63.4390613,27.0296026 63.78,27.05 L64.97,27.05 C65.28,27.05 65.35,27.23 65.11,27.43 L64.21,28.23 C63.9658896,28.4728415 63.8638852,28.8241899 63.94,29.16 L64.23,30.16 C64.32,30.46 64.17,30.58 63.9,30.41 L62.9,29.81 C62.5950275,29.6155408 62.2049725,29.6155408 61.9,29.81 L61,30.52 Z" id="Shape_2_copy_43-2" fill="#FFCE54"></path>
                <path d="M43.57,34 C43.31,34.18 43.16,34.08 43.24,33.77 L43.51,32.62 C43.5785853,32.2789202 43.4649684,31.9267077 43.21,31.69 L42.38,30.96 C42.14,30.75 42.2,30.58 42.52,30.57 L43.69,30.57 C44.025561,30.543428 44.3128539,30.3191034 44.42,30 L44.79,28.75 C44.88,28.45 45.04,28.44 45.14,28.75 L45.58,29.98 C45.7098695,30.2958942 46.0090613,30.5096026 46.35,30.53 L47.54,30.53 C47.85,30.53 47.92,30.71 47.68,30.91 L46.78,31.71 C46.5358896,31.9528415 46.4338852,32.3041899 46.51,32.64 L46.8,33.64 C46.89,33.94 46.74,34.06 46.47,33.89 L45.47,33.29 C45.1650275,33.0955408 44.7749725,33.0955408 44.47,33.29 L43.57,34 Z" id="Shape_2_copy_43-3" fill="#FFCE54"></path>
                <path d="M50.55,38.85 C50.29,39.03 50.14,38.93 50.22,38.62 L50.49,37.47 C50.5585853,37.1289202 50.4449684,36.7767077 50.19,36.54 L49.36,35.81 C49.12,35.6 49.18,35.43 49.5,35.42 L50.67,35.42 C51.005561,35.393428 51.2928539,35.1691034 51.4,34.85 L51.77,33.6 C51.86,33.3 52.02,33.29 52.12,33.6 L52.56,34.83 C52.6898695,35.1458942 52.9890613,35.3596026 53.33,35.38 L54.52,35.38 C54.83,35.38 54.9,35.56 54.66,35.76 L53.76,36.56 C53.5158896,36.8028415 53.4138852,37.1541899 53.49,37.49 L53.78,38.49 C53.87,38.79 53.72,38.91 53.45,38.74 L52.45,38.14 C52.1450275,37.9455408 51.7549725,37.9455408 51.45,38.14 L50.55,38.85 Z" id="Shape_2_copy_44" fill="#FFCE54"></path>
                <path d="M43.57,40.44 C43.31,40.62 43.16,40.52 43.24,40.21 L43.51,39.06 C43.5785853,38.7189202 43.4649684,38.3667077 43.21,38.13 L42.38,37.4 C42.14,37.19 42.2,37.02 42.52,37.01 L43.69,37.01 C44.025561,36.983428 44.3128539,36.7591034 44.42,36.44 L44.79,35.19 C44.88,34.89 45.04,34.88 45.14,35.19 L45.58,36.42 C45.7098695,36.7358942 46.0090613,36.9496026 46.35,36.97 L47.54,36.97 C47.85,36.97 47.92,37.15 47.68,37.35 L46.78,38.15 C46.5358896,38.3928415 46.4338852,38.7441899 46.51,39.08 L46.8,40.08 C46.89,40.38 46.74,40.5 46.47,40.33 L45.47,39.73 C45.1650275,39.5355408 44.7749725,39.5355408 44.47,39.73 L43.57,40.44 Z" id="Shape_2_copy_44-2" fill="#FFCE54"></path>
                <path d="M35.78,42.64 C35.52,42.82 35.37,42.72 35.45,42.41 L35.72,41.26 C35.7885853,40.9189202 35.6749684,40.5667077 35.42,40.33 L34.59,39.6 C34.35,39.39 34.41,39.22 34.73,39.21 L35.9,39.21 C36.235561,39.183428 36.5228539,38.9591034 36.63,38.64 L37,37.39 C37.09,37.09 37.25,37.08 37.35,37.39 L37.79,38.62 C37.9198695,38.9358942 38.2190613,39.1496026 38.56,39.17 L39.75,39.17 C40.06,39.17 40.13,39.35 39.89,39.55 L38.99,40.35 C38.7458896,40.5928415 38.6438852,40.9441899 38.72,41.28 L39.01,42.28 C39.1,42.58 38.95,42.7 38.68,42.53 L37.68,41.93 C37.3750275,41.7355408 36.9849725,41.7355408 36.68,41.93 L35.78,42.64 Z" id="Shape_2_copy_44-3" fill="#FFCE54"></path>
            </g>
        </g>
    </g>
</svg>