<?xml version="1.0" encoding="UTF-8"?>
<svg width="71px" height="47px" viewBox="0 0 71 47" version="1.1" xmlns="http://www.w3.org/2000/svg" xmlns:xlink="http://www.w3.org/1999/xlink">
    <!-- Generator: Sketch 48.1 (47250) - http://www.bohemiancoding.com/sketch -->
    <title>uruguay@2x</title>
    <desc>Created with Sketch.</desc>
    <defs></defs>
    <g id="Flags" stroke="none" stroke-width="1" fill="none" fill-rule="evenodd" transform="translate(-493.000000, -928.000000)">
        <g transform="translate(70.000000, 70.000000)" fill-rule="nonzero" id="uruguay">
            <g transform="translate(423.000000, 858.000000)">
                <circle id="Oval" fill="#FFFFFF" cx="34.08" cy="23.53" r="7.83"></circle>
                <path d="M70.39,40.39 L70.39,37.53 L0.389998427,37.53 L0.39,40.39 C0.387828326,43.5653852 2.63417218,46.2978781 5.75,46.91 L65,46.91 C68.1277548,46.3104716 70.3893858,43.5746953 70.39,40.39 Z" id="Shape" fill="#4758A9"></path>
                <rect id="Rectangle-path" fill="#FFFFFF" x="0.39" y="28.15" width="70" height="9.37"></rect>
                <rect id="Rectangle-path" fill="#4758A9" x="0.39" y="18.78" width="70" height="9.37"></rect>
                <rect id="Rectangle-path" fill="#FFFFFF" x="0.39" y="9.4" width="70" height="9.37"></rect>
                <path d="M0.39,6.67 L0.39,9.4 L70.39,9.4 L70.39,6.67 C70.39,3.00282926 67.4171707,0.03 63.75,0.03 L7,0.03 C3.34455042,0.0465157538 0.38996269,3.01451311 0.39,6.67 Z" id="Shape" fill="#4758A9"></path>
                <path d="M28.51,0 L7,0 C3.33282926,0 0.36,2.97282926 0.36,6.64 L0.36,28.12 L28.48,28.12 L28.51,0 Z" id="Shape" fill="#FFFFFF"></path>
                <path d="M22.85,17 C22.8677302,16.5503247 22.9837855,16.1099973 23.19,15.71 L23.79,14.71 C23.979113,14.3323523 23.979113,13.8876477 23.79,13.51 L23.18,12.45 C22.9692038,12.0476579 22.8497011,11.6037907 22.83,11.15 L22.83,9.92 C22.7945927,9.51207942 22.5732677,9.14320433 22.23,8.92 L21.23,8.33 C20.8455865,8.08922431 20.5207757,7.7644135 20.28,7.38 L19.69,6.38 C19.4667957,6.03673232 19.0979206,5.81540726 18.69,5.78 L17.46,5.78 C17.0065075,5.75838067 16.5630472,5.63898751 16.16,5.43 L15.1,4.82 C14.7227303,4.62929458 14.2772697,4.62929458 13.9,4.82 L12.9,5.42 C12.5017925,5.63219341 12.0608493,5.75182917 11.61,5.77 L10.3,5.77 C9.87498213,5.79328335 9.4858378,6.01565154 9.25,6.37 L8.64,7.43 C8.40244909,7.83044624 8.07774594,8.17223903 7.69,8.43 L6.63,9.05 C6.29053634,9.27535918 6.07310397,9.64388861 6.04,10.05 L6.04,11.24 C6.02226983,11.6896753 5.90621454,12.1300027 5.7,12.53 L5.1,13.53 C4.91088702,13.9076477 4.91088702,14.3523523 5.1,14.73 L5.72,15.79 C5.92968925,16.1891955 6.04916906,16.6295639 6.07,17.08 L6.07,18.31 C6.10915977,18.7192613 6.33402642,19.0878951 6.68,19.31 L7.68,19.9 C8.0644135,20.1407757 8.38922431,20.4655865 8.63,20.85 L9.22,21.85 C9.4558378,22.2043485 9.84498213,22.4267167 10.27,22.45 L11.49,22.45 C11.9436904,22.4703492 12.3874193,22.5898146 12.79,22.8 L13.85,23.41 C14.2307511,23.6008733 14.6792489,23.6008733 15.06,23.41 L16.06,22.81 C16.4622214,22.5988954 16.9061588,22.4793738 17.36,22.46 L18.55,22.46 C18.9579206,22.4245927 19.3267957,22.2032677 19.55,21.86 L20.16,20.8 C20.3975509,20.3995538 20.7222541,20.057761 21.11,19.8 L22.17,19.18 C22.5121673,18.9557363 22.7331402,18.5874482 22.77,18.18 L22.85,17 Z" id="Shape" fill="#F6D660"></path>
            </g>
        </g>
    </g>
</svg>