<?xml version="1.0" encoding="UTF-8"?>
<svg width="71px" height="48px" viewBox="0 0 71 48" version="1.1" xmlns="http://www.w3.org/2000/svg" xmlns:xlink="http://www.w3.org/1999/xlink">
    <!-- Generator: Sketch 48.1 (47250) - http://www.bohemiancoding.com/sketch -->
    <title>uzbekistan@2x</title>
    <desc>Created with Sketch.</desc>
    <defs></defs>
    <g id="Flags" stroke="none" stroke-width="1" fill="none" fill-rule="evenodd" transform="translate(-578.000000, -927.000000)">
        <g transform="translate(70.000000, 70.000000)" fill-rule="nonzero" id="uzbekistan">
            <g transform="translate(508.000000, 857.000000)">
                <rect id="Rounded_Rectangle_7_copy-49" fill="#ED5565" x="0.01" y="0.96" width="70" height="47" rx="6.36"></rect>
                <path d="M63.64,1 L6.37,1 C2.85746899,1 0.01,3.84746759 0.01,7.35999687 L0.01,16.9999921 L70.01,16.9999921 L70.01,7.35999687 C70.0100021,5.67148679 69.33856,4.05227938 68.143665,2.85926073 C66.9487699,1.66624207 65.3285088,0.99734511 63.64,1 Z" id="Shape" fill="#3BAFDA"></path>
                <path d="M14.6,13.32 C13.3405757,13.9366706 11.8730261,13.9653354 10.5904815,13.3983157 C9.30793687,12.8312959 8.34147729,11.7265428 7.95,10.38 C7.68697876,9.42080149 7.71131834,8.4054933 8.02,7.46 C8.84909428,4.97204956 11.5151431,3.60347782 14.02,4.38 C14.2753499,4.46124337 14.5229875,4.56498347 14.76,4.69 C14.8482369,4.71623902 14.9413285,4.66747677 14.97,4.58 C14.9858133,4.51347399 14.9625663,4.4437328 14.91,4.4 C14.3104228,3.87576818 13.6091397,3.48087085 12.85,3.24 C11.032835,2.64029396 9.03860192,2.94332618 7.48160248,4.0557509 C5.92460305,5.16817562 4.99160196,6.95655563 4.97,8.87 C4.94982998,9.46789664 5.02407528,10.0652338 5.19,10.64 C5.61839988,12.1551943 6.63182672,13.437798 8.00684976,14.2050345 C9.38187279,14.9722711 11.005583,15.1611396 12.52,14.73 L12.59,14.73 C13.3593981,14.5021433 14.0763787,14.1249639 14.7,13.62 C14.754737,13.5777797 14.7784574,13.5066184 14.76,13.44 C14.7357798,13.3588116 14.6524681,13.3105785 14.57,13.33 L14.6,13.32 Z M18,13 C18.5522847,13 19,13.4477153 19,14 C19,14.5522847 18.5522847,15 18,15 C17.4477153,15 17,14.5522847 17,14 C17,13.4477153 17.4477153,13 18,13 Z M22,13 C22.5522847,13 23,13.4477153 23,14 C23,14.5522847 22.5522847,15 22,15 C21.4477153,15 21,14.5522847 21,14 C21,13.4477153 21.4477153,13 22,13 Z M22,9 C22.5522847,9 23,9.44771525 23,10 C23,10.5522847 22.5522847,11 22,11 C21.4477153,11 21,10.5522847 21,10 C21,9.44771525 21.4477153,9 22,9 Z M26,5 C26.5522847,5 27,5.44771525 27,6 C27,6.55228475 26.5522847,7 26,7 C25.4477153,7 25,6.55228475 25,6 C25,5.44771525 25.4477153,5 26,5 Z M26,9 C26.5522847,9 27,9.44771525 27,10 C27,10.5522847 26.5522847,11 26,11 C25.4477153,11 25,10.5522847 25,10 C25,9.44771525 25.4477153,9 26,9 Z M26,13 C26.5522847,13 27,13.4477153 27,14 C27,14.5522847 26.5522847,15 26,15 C25.4477153,15 25,14.5522847 25,14 C25,13.4477153 25.4477153,13 26,13 Z M30,5 C30.5522847,5 31,5.44771525 31,6 C31,6.55228475 30.5522847,7 30,7 C29.4477153,7 29,6.55228475 29,6 C29,5.44771525 29.4477153,5 30,5 Z M30,9 C30.5522847,9 31,9.44771525 31,10 C31,10.5522847 30.5522847,11 30,11 C29.4477153,11 29,10.5522847 29,10 C29,9.44771525 29.4477153,9 30,9 Z M30,13 C30.5522847,13 31,13.4477153 31,14 C31,14.5522847 30.5522847,15 30,15 C29.4477153,15 29,14.5522847 29,14 C29,13.4477153 29.4477153,13 30,13 Z M34,5 C34.5522847,5 35,5.44771525 35,6 C35,6.55228475 34.5522847,7 34,7 C33.4477153,7 33,6.55228475 33,6 C33,5.44771525 33.4477153,5 34,5 Z M34,9 C34.5522847,9 35,9.44771525 35,10 C35,10.5522847 34.5522847,11 34,11 C33.4477153,11 33,10.5522847 33,10 C33,9.44771525 33.4477153,9 34,9 Z M34,13 C34.5522847,13 35,13.4477153 35,14 C35,14.5522847 34.5522847,15 34,15 C33.4477153,15 33,14.5522847 33,14 C33,13.4477153 33.4477153,13 34,13 Z" id="Shape" fill="#FFFFFF"></path>
                <path d="M63.64,48 L6.37,48 C4.67453727,48.0026994 3.04817735,47.3283176 1.8521224,46.1266297 C0.656067452,44.9249419 -0.01066545,43.2954313 -7.74934316e-14,41.6 L-0.000126015761,32 L70,32 L70,41.64 C70,45.152531 67.152531,48 63.64,48 Z" id="Shape" fill="#52C162"></path>
                <rect id="Rectangle-path" fill="#F5F7FA" x="0.01" y="18.46" width="70" height="12"></rect>
            </g>
        </g>
    </g>
</svg>