<?xml version="1.0" encoding="UTF-8"?>
<svg width="71px" height="49px" viewBox="0 0 71 49" version="1.1" xmlns="http://www.w3.org/2000/svg" xmlns:xlink="http://www.w3.org/1999/xlink">
    <!-- Generator: Sketch 48.1 (47250) - http://www.bohemiancoding.com/sketch -->
    <title>vatican@2x</title>
    <desc>Created with Sketch.</desc>
    <defs></defs>
    <g id="Flags" stroke="none" stroke-width="1" fill="none" fill-rule="evenodd" transform="translate(-747.000000, -927.000000)">
        <g transform="translate(70.000000, 70.000000)" fill-rule="nonzero" id="vatican">
            <g transform="translate(677.000000, 857.000000)">
                <path d="M23.59,0.91 L6.59,0.91 C3.07746899,0.91 0.23,3.75746899 0.23,7.27 L0.23,41.54 C0.219058764,41.7565285 0.219058764,41.9734715 0.23,42.19 C0.271721635,42.6106438 0.355473034,43.0260508 0.48,43.43 C0.54,43.63 0.61,43.8233333 0.69,44.01 C0.851179079,44.3882808 1.04877639,44.7499843 1.28,45.09 C1.39333333,45.2566667 1.51666667,45.42 1.65,45.58 C2.09344605,46.1115255 2.62031101,46.5674663 3.21,46.93 C4.21042199,47.5717027 5.37151794,47.9182985 6.56,47.93 L35.27,47.93 C35.27,32.2633333 35.27,16.5966667 35.27,0.93 L23.59,0.91 Z" id="Shape" fill="#FFCE54"></path>
                <path d="M70.25,7.27 C70.2498397,6.84004634 70.2062856,6.41120656 70.12,5.99 C70.12,5.8 70.03,5.61 69.98,5.43 C69.8584074,5.04931927 69.7010382,4.6810085 69.51,4.33 C69.45,4.23 69.39,4.13 69.33,4.03 L69.19,3.8 L69.04,3.6 L68.83,3.31 L68.69,3.16 L68.42,2.86 L68.17,2.64 L67.97,2.45 L67.84,2.36 C67.5603688,2.13877104 67.2626565,1.94141115 66.95,1.77 L66.62,1.61 L66.39,1.5 L66.02,1.36 L65.81,1.28 L65.62,1.28 C65.066811,1.12341046 64.4949185,1.0426727 63.92,1.04 L35.33,1.04 C35.33,16.7066667 35.33,32.3733333 35.33,48.04 L63.89,48.04 C64.4649095,48.037204 65.0367854,47.9564686 65.59,47.8 L65.78,47.8 L65.99,47.72 L66.36,47.58 L66.59,47.47 L66.92,47.31 L66.97,47.31 C67.13,47.22 67.29,47.13 67.44,47.02 L67.68,46.84 L67.93,46.65 L68.03,46.56 C68.3045798,46.3252093 68.5588185,46.0676254 68.79,45.79 L69,45.5 L69.15,45.3 L69.29,45.07 C69.35,44.97 69.41,44.88 69.47,44.77 C69.6610382,44.4189915 69.8184074,44.0506807 69.94,43.67 C69.94,43.51 70.03,43.35 70.06,43.19 L70.06,43.06 C70.1462856,42.6387934 70.1898397,42.2099537 70.19,41.78 L70.19,7.28 L70.25,7.27 Z" id="Shape" fill="#FFFFFF"></path>
                <path d="M62.34,19.34 L61.98,19.66 L61.98,18.9 L60.98,17.76 L61.4,17.4 C61.4770359,17.4778871 61.6010018,17.4834717 61.6847289,17.4128269 C61.7684561,17.3421821 61.7838125,17.2190443 61.72,17.13 L61.72,17.08 L61.99,16.85 L61.99,16.9 C62.0744947,16.9787536 62.2055053,16.9787536 62.29,16.9 C62.3662286,16.8222313 62.3662286,16.6977687 62.29,16.62 L62.11,16.41 L62.29,16.25 L62.38,16.25 C62.6297789,16.2472117 62.8337404,16.0495258 62.844331,15.799956 C62.8549216,15.5503862 62.6684409,15.3361317 62.4197962,15.3121926 C62.1711515,15.2882535 61.947219,15.4629939 61.91,15.71 L61.67,15.9 L61.56,15.77 C61.4937258,15.6733502 61.3616498,15.6487258 61.265,15.715 C61.1683502,15.7812742 61.1437258,15.9133502 61.21,16.01 L60.94,16.24 L61.09,16.12 C60.5267504,16.0070278 60.0288257,15.6810483 59.7,15.21 C59.2603115,14.4514207 58.2895254,14.1919479 57.53,14.63 L57.4,14.72 C56.8958717,14.9997956 56.5328746,15.4789516 56.4,16.04 C56.3276859,16.4904495 56.3276859,16.9495505 56.4,17.4 C56.47,18.11 56.65,19.06 56.81,19.83 L56.32,20.24 C56.2422313,20.1637714 56.1177687,20.1637714 56.04,20.24 C55.9625394,20.3211491 55.9625394,20.4488509 56.04,20.53 L55.62,20.89 C55.5,20.62 55.12,19.82 54.99,19.43 C55.1873184,19.4138876 55.3600002,19.2910917 55.44,19.11 C55.57,19.29 55.7,18.96 55.55,18.83 L55.63,18.58 C55.73,18.67 55.81,18.45 55.73,18.35 C55.73,18.24 55.8,18.12 55.83,18 C55.8623521,18.0114382 55.8976479,18.0114382 55.93,18 C56.0146032,18.0001654 56.0847125,17.934438 56.09,17.85 C56.0901759,17.7709104 56.0289138,17.7052725 55.95,17.7 L56,17.34 C56,17.34 56,17.27 56,17.23 C56.18,17.23 56.3,17.03 56,16.97 L56.05,16.66 C56.22,16.66 56.28,16.46 56.05,16.39 L56.05,16 C56.162057,15.994658 56.2501273,15.9021842 56.25,15.79 C56.2504935,15.681402 56.1681056,15.5903417 56.06,15.58 L56.12,15.08 L55.97,15.16 L55.97,15.01 C56.1,15.01 56.12,14.79 55.9,14.73 C55.9,14.6233333 55.8666667,14.5166667 55.8,14.41 C55.97,14.41 56.02,14.19 55.8,14.13 L55.69,14.13 C55.6301532,13.991578 55.5599542,13.8578656 55.48,13.73 C55.5760844,13.7086495 55.6444478,13.623428 55.6444478,13.525 C55.6444478,13.426572 55.5760844,13.3413505 55.48,13.32 L55.55,12.82 L55.01,13.1 L55.17,13.34 C54.6868175,12.6892057 54.0007559,12.2177583 53.22,12 C53.2514,11.948749 53.2686526,11.89009 53.27,11.83 C53.268577,11.6692368 53.1635023,11.52779 53.01,11.48 L53.01,11.05 L53.34,11.05 L53.34,10.75 L53.01,10.75 L53.01,10.34 L52.76,10.34 L52.76,10.77 L52.45,10.77 L52.45,11.07 L52.76,11.07 L52.76,11.51 C52.621731,11.5665163 52.531007,11.70063 52.53,11.85 C52.5313474,11.91009 52.5486,11.968749 52.58,12.02 C51.8070597,12.2315847 51.1274606,12.6963882 50.65,13.34 L50.79,13.12 L50.26,12.84 L50.32,13.34 C50.2359744,13.321329 50.1490629,13.3558241 50.1007114,13.4270354 C50.05236,13.4982466 50.05236,13.5917534 50.1007114,13.6629646 C50.1490629,13.7341759 50.2359744,13.768671 50.32,13.75 C50.24,13.88 50.17,14.01 50.1,14.15 L50,14.15 C49.75,14.21 49.8,14.48 50,14.43 C50,14.54 49.92,14.64 49.89,14.75 C49.67,14.81 49.7,15.02 49.82,15.03 L49.82,15.18 L49.67,15.1 L49.73,15.6 C49.6258652,15.6150249 49.5489217,15.7047924 49.55,15.81 C49.5472805,15.8630603 49.5657851,15.9150221 49.6014307,15.9544199 C49.6370763,15.9938176 49.6869331,16.0174131 49.74,16.02 C49.74,16.15 49.74,16.28 49.74,16.41 C49.5,16.48 49.56,16.73 49.74,16.68 L49.79,16.99 C49.52,17.05 49.65,17.3 49.79,17.25 C49.7944983,17.2865287 49.7944983,17.3234713 49.79,17.36 L49.79,17.72 C49.7150499,17.7300803 49.6593252,17.7943781 49.66,17.87 C49.66,17.9528427 49.7271573,18.02 49.81,18.02 C49.842,18.0333333 49.878,18.0333333 49.91,18.02 C49.91,18.14 49.98,18.26 50.02,18.37 C49.94,18.47 50.02,18.69 50.11,18.6 L50.2,18.85 C50.05,18.98 50.2,19.31 50.3,19.13 C50.3584896,19.2830945 50.4972187,19.3909949 50.66,19.41 C50.54,19.78 50.14,20.62 50.02,20.9 L49.6,20.54 C49.6745584,20.448873 49.661127,20.3145584 49.57,20.24 C49.478873,20.1654416 49.3445584,20.178873 49.27,20.27 L48.78,19.86 C48.94,19.09 49.12,18.14 49.19,17.43 C49.2623141,16.9795505 49.2623141,16.5204495 49.19,16.07 C49.0596746,15.5052337 48.6963639,15.0220306 48.19,14.74 C47.4794077,14.2330045 46.4929505,14.3936944 45.98,15.1 L45.89,15.23 C45.5611743,15.7010483 45.0632496,16.0270278 44.5,16.14 L44.65,16.27 L44.38,16.04 C44.4462742,15.9433502 44.4216498,15.8112742 44.325,15.745 C44.2283502,15.6787258 44.0962742,15.7033502 44.03,15.8 L43.92,15.93 L43.68,15.74 C43.642781,15.4929939 43.4188485,15.3182535 43.1702038,15.3421926 C42.9215591,15.3661317 42.7350784,15.5803862 42.745669,15.829956 C42.7562596,16.0795258 42.9602211,16.2772117 43.21,16.28 L43.3,16.28 L43.48,16.44 L43.3,16.65 C43.2237714,16.7277687 43.2237714,16.8522313 43.3,16.93 C43.3844947,17.0087536 43.5155053,17.0087536 43.6,16.93 L43.6,16.88 L43.87,17.11 L43.87,17.16 C43.8061875,17.2490443 43.8215439,17.3721821 43.9052711,17.4428269 C43.9889982,17.5134717 44.1129641,17.5078871 44.19,17.43 L44.61,17.79 L43.61,18.93 L43.61,19.69 L43.25,19.37 L42.25,20.42 L42.25,21.1 L43.64,22.26 L44.58,21.2 L44.58,21 L44.88,20.81 L44.95,20.73 L45.48,20.39 L45.41,20.48 L45.41,21.23 L45.02,20.92 L44.09,21.99 L44.09,22.66 L45.52,23.87 L47.41,21.67 C47.5,21.8 47.61,21.93 47.73,22.07 C47.9940326,22.3656721 48.3435184,22.5718687 48.73,22.66 C49.2255361,22.7852934 49.7444639,22.7852934 50.24,22.66 L48.82,21.45 L50.34,22.75 C50.2614827,22.9323791 50.3409226,23.1442189 50.52,23.23 L50.6,23.23 C50.8358989,23.2701508 51.0587688,23.3661563 51.25,23.51 C51.1216943,23.6481359 51.1216943,23.8618641 51.25,24 L51.38,24.12 C50.5611114,24.7238349 49.8423234,25.4527467 49.25,26.28 L48.85,26.6 L48.5,26.18 L48.03,26.58 C47.5998112,26.348439 47.1185482,26.2281233 46.63,26.23 C46.0629664,26.2323081 45.5081976,26.3952715 45.03,26.7 C44.9105255,26.5523172 44.7299432,26.467554 44.54,26.47 C44.2722776,26.4682848 44.032713,26.6359645 43.9426664,26.8880951 C43.8526198,27.1402257 43.9317617,27.4217293 44.14,27.59 C43.8388732,28.0624481 43.6760597,28.6097788 43.67,29.17 C43.6680093,29.7467988 43.8386622,30.3109982 44.16,30.79 C44.0016645,30.9116873 43.9092039,31.100307 43.91,31.3 C43.91,31.6479394 44.1920606,31.93 44.54,31.93 C44.7463679,31.9276561 44.9393597,31.8274489 45.06,31.66 C45.5303305,31.955267 46.0746697,32.1112878 46.63,32.11 C46.8795113,32.1119601 47.1282324,32.0817103 47.37,32.02 C48.8473249,32.7437226 50.4494431,33.1781954 52.09,33.3 L52.09,34.17 C51.9632164,34.1947445 51.8717204,34.3058242 51.8717204,34.435 C51.8717204,34.5641758 51.9632164,34.6752555 52.09,34.7 L52.09,35.3 C52.0109104,35.2998241 51.9452725,35.3610862 51.94,35.44 C51.9429945,35.4836641 51.96491,35.5238426 52,35.55 C51.9179326,35.6530415 51.8691097,35.7785861 51.86,35.91 C51.86,36.15 51.77,38.08 51.77,38.24 C51.9597818,38.252877 52.1502182,38.252877 52.34,38.24 L52.34,38.32 C52.7932685,38.3987861 53.2567315,38.3987861 53.71,38.32 L53.64,36.09 C53.6257281,35.9601164 53.5955001,35.8324874 53.55,35.71 C53.5594451,35.6773357 53.5594451,35.6426643 53.55,35.61 C53.55,35.5326801 53.4873199,35.47 53.41,35.47 L53.33,35.47 L53.33,34.94 C53.4567836,34.9152555 53.5482796,34.8041758 53.5482796,34.675 C53.5482796,34.5458242 53.4567836,34.4347445 53.33,34.41 L53.33,33.29 C54.911148,33.140382 56.4489261,32.6888931 57.86,31.96 C58.1812676,32.073017 58.5194336,32.1305052 58.86,32.13 C59.4153303,32.1312878 59.9596695,31.975267 60.43,31.68 C60.5506403,31.8474489 60.7436321,31.9476561 60.95,31.95 C61.2995935,31.9500427 61.5845376,31.6695509 61.59,31.32 C61.5868883,31.1189342 61.4908899,30.9306298 61.33,30.81 C61.6513378,30.3309982 61.8219907,29.7667988 61.82,29.19 C61.8139403,28.6297788 61.6511268,28.0824481 61.35,27.61 C61.5720626,27.4480873 61.6610378,27.1593102 61.568605,26.9004982 C61.4761721,26.6416862 61.2243913,26.4746077 60.95,26.49 C60.7600568,26.487554 60.5794745,26.5723172 60.46,26.72 C59.9818024,26.4152715 59.4270336,26.2523081 58.86,26.25 C58.3714518,26.2481233 57.8901888,26.368439 57.46,26.6 L56.99,26.2 L56.64,26.62 L56.24,26.3 C55.6499065,25.483245 54.9383433,24.7615648 54.13,24.16 L54.28,24.02 C54.4083057,23.8818641 54.4083057,23.6681359 54.28,23.53 L54.22,23.53 C54.4059793,23.3919422 54.6217656,23.2994624 54.85,23.26 C55.0437066,23.2151788 55.1673597,23.025283 55.13,22.83 L55.13,22.75 L56.65,21.45 L55.22,22.66 C55.7155361,22.7852934 56.2344639,22.7852934 56.73,22.66 C57.1164816,22.5718687 57.4659674,22.3656721 57.73,22.07 C57.85,21.93 57.96,21.8 58.05,21.67 L59.94,23.87 L61.37,22.66 L61.37,22 L60.44,20.93 L60.05,21.24 L60.05,20.49 L59.98,20.4 L60.51,20.74 L60.58,20.82 L60.88,21.01 L60.88,21.22 L61.82,22.28 L63.21,21.12 L63.21,20.44 L62.34,19.34 Z M59.47,17.62 L58.24,18.62 C58.18,18.38 58.12,18.13 58.07,17.89 L57.96,16.34 C57.9807665,16.2711221 58.0075358,16.2041989 58.04,16.14 L58.39,16.27 C58.74,16.75 59.33,17.5 59.47,17.63 L59.47,17.62 Z M60.7,16.57 L59.49,17.57 L60.7,16.57 Z M53.89,22.11 C53.6830846,22.44641 53.4191378,22.7441962 53.11,22.99 C53.0509101,22.8792064 52.9355661,22.81 52.81,22.81 C52.6741392,22.8109415 52.5503808,22.8882905 52.49,23.01 C52.1723477,22.7595224 51.9015082,22.454828 51.69,22.11 C51.6660657,21.9955115 51.5849639,21.901363 51.4752815,21.8607399 C51.3655991,21.8201167 51.2427364,21.8387229 51.15,21.91 L51.06,21.83 C51.4266531,21.1452837 51.7312045,20.4290857 51.97,19.69 C52.24,19.69 52.53,19.69 52.84,19.69 L53.61,19.69 C53.852028,20.4246548 54.1564717,21.1372538 54.52,21.82 L54.43,21.9 C54.3386571,21.8287625 54.21733,21.8089315 54.1080592,21.8473787 C53.9987883,21.8858258 53.9166102,21.9772605 53.89,22.09 L53.89,22.11 Z M47.19,16.31 L47.54,16.18 C47.5724642,16.2441989 47.5992335,16.3111221 47.62,16.38 L47.51,17.93 C47.46,18.17 47.4,18.42 47.34,18.66 L46.11,17.66 C46.25,17.54 46.84,16.79 47.19,16.35 L47.19,16.31 Z M44.88,16.56 L46.05,17.56 L44.88,16.56 Z M50.07,27.24 C50.7327036,26.9594264 51.3340262,26.5517501 51.84,26.04 C51.3826869,27.3312955 50.6172186,28.491512 49.61,29.42 C49.614876,29.3434109 49.614876,29.2665891 49.61,29.19 C49.6130523,28.9014913 49.5691454,28.6144078 49.48,28.34 L49.99,27.93 L49.69,27.59 L50.07,27.24 Z M48.91,31.87 C49.1470873,31.816355 49.332161,31.6310978 49.385571,31.3939574 C49.438981,31.1568171 49.3511975,30.9101055 49.16,30.76 C49.2220006,30.663118 49.2787491,30.5629735 49.33,30.46 C50.5718225,29.6145141 51.5411374,28.4263216 52.12,27.04 L52.12,32.58 C51.0198811,32.5096312 49.9371757,32.2701543 48.91,31.87 Z M53.38,27.06 C53.9889305,28.4795418 55.0006483,29.6894311 56.29,30.54 L56.42,30.76 C56.2722273,30.8897889 56.1935463,31.0811433 56.2072801,31.2773404 C56.2210139,31.4735375 56.3255866,31.6520641 56.49,31.76 C55.5041534,32.1901527 54.4526616,32.4504899 53.38,32.53 L53.38,27.06 Z M56.09,28.33 C56.0008546,28.6044078 55.9569477,28.8914913 55.96,29.18 C55.96,29.28 55.96,29.38 55.96,29.48 C54.8780867,28.5119245 54.0621597,27.2828699 53.59,25.91 C54.1332989,26.4717568 54.7824474,26.920383 55.5,27.23 L55.87,27.57 L55.57,27.91 L56.09,28.33 Z" id="Shape" fill="#ED5565"></path>
            </g>
        </g>
    </g>
</svg>