<?xml version="1.0" encoding="UTF-8"?>
<svg width="71px" height="48px" viewBox="0 0 71 48" version="1.1" xmlns="http://www.w3.org/2000/svg" xmlns:xlink="http://www.w3.org/1999/xlink">
    <!-- Generator: Sketch 48.1 (47250) - http://www.bohemiancoding.com/sketch -->
    <title>venezuela@2x</title>
    <desc>Created with Sketch.</desc>
    <defs></defs>
    <g id="Flags" stroke="none" stroke-width="1" fill="none" fill-rule="evenodd" transform="translate(-831.000000, -927.000000)">
        <g transform="translate(70.000000, 70.000000)" fill-rule="nonzero" id="venezuela">
            <g transform="translate(761.000000, 857.000000)">
                <g id="slovakia">
                    <path d="M0.87,7.56 L0.87,16.56 L70.87,16.56 L70.87,7.56 C70.87,3.89282926 67.8971707,0.92 64.23,0.92 L7.51,0.92 C3.84282926,0.92 0.87,3.89282926 0.87,7.56 Z" id="Shape" fill="#F6D660"></path>
                    <polygon id="Shape" fill="#4758A9" points="0.87 32.26 70.87 32.26 70.87 16.59 0.87 16.59"></polygon>
                    <path d="M0.87,41.27 C0.87,44.9371707 3.84282926,47.91 7.51,47.91 L64.23,47.91 C67.8971707,47.91 70.87,44.9371707 70.87,41.27 L70.87,32.27 L0.87,32.27 L0.87,41.27 Z" id="Shape" fill="#ED5565"></path>
                </g>
                <path d="M34.56,23.82 C34.34,23.97 34.21,23.88 34.27,23.63 L34.53,22.68 C34.5917884,22.3940184 34.4965197,22.0967802 34.28,21.9 L33.57,21.29 C33.36,21.12 33.42,20.97 33.7,20.97 L34.7,20.97 C34.9894583,20.961336 35.2455562,20.7800975 35.35,20.51 L35.69,19.51 C35.77,19.26 35.91,19.26 36,19.51 L36.36,20.51 C36.4778563,20.7737104 36.7317973,20.9506996 37.02,20.97 L38.02,20.97 C38.29,20.97 38.34,21.12 38.13,21.29 L37.33,21.94 C37.109565,22.1299427 37.0131847,22.4267942 37.08,22.71 L37.32,23.55 C37.4,23.8 37.26,23.89 37.04,23.75 L36.2,23.24 C35.9457505,23.095553 35.6342495,23.095553 35.38,23.24 L34.56,23.82 Z" id="Shape" fill="#FFFFFF"></path>
                <path d="M30.05,25.65 C29.91,25.89 29.76,25.87 29.71,25.65 L29.49,24.65 C29.4076497,24.3728426 29.1885475,24.1575181 28.91,24.08 L27.99,23.88 C27.73,23.82 27.71,23.67 27.99,23.54 L28.89,23.05 C29.1379182,22.903533 29.2783595,22.6265515 29.25,22.34 L29.06,21.27 C29.01,21.01 29.13,20.95 29.32,21.13 L30.13,21.86 C30.3533966,22.0396631 30.6588824,22.0783322 30.92,21.96 L31.85,21.5 C32.09,21.38 32.21,21.5 32.1,21.73 L31.7,22.68 C31.6044083,22.9511556 31.6616736,23.2527529 31.85,23.47 L32.45,24.1 C32.64,24.29 32.56,24.43 32.29,24.42 L31.29,24.36 C30.9935623,24.3569096 30.71693,24.5084889 30.56,24.76 L30.05,25.65 Z" id="Shape" fill="#FFFFFF"></path>
                <path d="M24.27,29 C24.02,29.1 23.91,29 24.03,28.75 L24.48,27.88 C24.6024979,27.6179886 24.5797656,27.311103 24.42,27.07 L23.85,26.32 C23.69,26.11 23.77,25.97 24.04,26.03 L25.04,26.24 C25.3198318,26.2852203 25.6005425,26.1643587 25.76,25.93 L26.31,25 C26.45,24.77 26.58,24.8 26.61,25.06 L26.74,26.14 C26.7982675,26.4263223 27.0098154,26.6571018 27.29,26.74 L28.29,26.99 C28.55,27.05 28.58,27.21 28.29,27.33 L27.37,27.79 C27.1194968,27.9298448 26.9630568,28.1931218 26.96,28.48 L27.02,29.35 C27.02,29.61 26.88,29.67 26.69,29.49 L25.99,28.81 C25.7676842,28.6168334 25.4612183,28.5525134 25.18,28.64 L24.27,29 Z" id="Shape" fill="#FFFFFF"></path>
                <path d="M41.2,24.75 C41.04307,24.4984889 40.7664377,24.3469096 40.47,24.35 L39.47,24.41 C39.19,24.41 39.12,24.28 39.31,24.09 L39.91,23.46 C40.0983264,23.2427529 40.1555917,22.9411556 40.06,22.67 L39.66,21.72 C39.55,21.47 39.66,21.37 39.91,21.49 L40.84,21.95 C41.1011176,22.0683322 41.4066034,22.0296631 41.63,21.85 L42.44,21.12 C42.63,20.94 42.76,21.01 42.7,21.26 L42.51,22.33 C42.4816405,22.6165515 42.6220818,22.893533 42.87,23.04 L43.77,23.53 C44.01,23.66 43.99,23.82 43.77,23.87 L42.85,24.07 C42.5714525,24.1475181 42.3523503,24.3628426 42.27,24.64 L42.05,25.64 C42,25.9 41.84,25.92 41.71,25.64 L41.2,24.75 Z" id="Shape" fill="#FFFFFF"></path>
                <path d="M46.51,28.59 C46.2287817,28.5025134 45.9223158,28.5668334 45.7,28.76 L45,29.44 C44.81,29.63 44.66,29.57 44.67,29.3 L44.73,28.43 C44.7269432,28.1431218 44.5705032,27.8798448 44.32,27.74 L43.4,27.28 C43.16,27.16 43.18,27.01 43.4,26.94 L44.4,26.69 C44.6801846,26.6071018 44.8917325,26.3763223 44.95,26.09 L45.08,25.01 C45.08,24.75 45.25,24.72 45.38,24.95 L45.93,25.88 C46.0894575,26.1143587 46.3701682,26.2352203 46.65,26.19 L47.65,25.98 C47.92,25.92 48.01,26.05 47.84,26.27 L47.27,27.02 C47.1102344,27.261103 47.0875021,27.5679886 47.21,27.83 L47.66,28.7 C47.78,28.93 47.66,29.05 47.42,28.95 L46.51,28.59 Z" id="Shape" fill="#FFFFFF"></path>
            </g>
        </g>
    </g>
</svg>