<?xml version="1.0" encoding="UTF-8"?>
<svg width="71px" height="48px" viewBox="0 0 71 48" version="1.1" xmlns="http://www.w3.org/2000/svg" xmlns:xlink="http://www.w3.org/1999/xlink">
    <!-- Generator: Sketch 48.1 (47250) - http://www.bohemiancoding.com/sketch -->
    <title>vietnam@2x</title>
    <desc>Created with Sketch.</desc>
    <defs></defs>
    <g id="Flags" stroke="none" stroke-width="1" fill="none" fill-rule="evenodd" transform="translate(-493.000000, -989.000000)">
        <g transform="translate(70.000000, 70.000000)" fill-rule="nonzero" id="vietnam">
            <g transform="translate(423.000000, 919.000000)">
                <rect id="Rounded_Rectangle_7_copy-44" fill="#ED5565" x="0.39" y="0.25" width="70" height="47" rx="6.36"></rect>
                <path d="M31,31.28 C30.26,31.77 29.85,31.47 30.09,30.62 L30.96,27.44 C31.1652923,26.4864456 30.8757333,25.493672 30.19,24.8 L27.89,22.7 C27.23,22.1 27.42,21.62 28.31,21.62 L31.62,21.62 C32.5667091,21.5798386 33.3975992,20.9773448 33.73,20.09 L34.87,16.62 C35.15,15.78 35.6,15.78 35.87,16.62 L37,20.1 C37.3465078,20.9902518 38.1683361,21.606623 39.12,21.69 L42.49,21.82 C43.38,21.82 43.54,22.34 42.85,22.9 L40.22,25.06 C39.5091354,25.7146026 39.1907982,26.6923525 39.38,27.64 L40.12,30.48 C40.34,31.34 39.92,31.64 39.18,31.16 L36.48,29.4 C35.6494035,28.9132026 34.6205965,28.9132026 33.79,29.4 L31,31.28 Z" id="Shape" fill="#F6D660"></path>
            </g>
        </g>
    </g>
</svg>