<?xml version="1.0" encoding="UTF-8"?>
<svg width="71px" height="48px" viewBox="0 0 71 48" version="1.1" xmlns="http://www.w3.org/2000/svg" xmlns:xlink="http://www.w3.org/1999/xlink">
    <!-- Generator: Sketch 48.1 (47250) - http://www.bohemiancoding.com/sketch -->
    <title>Virgin_Islands_USA@2x</title>
    <desc>Created with Sketch.</desc>
    <defs></defs>
    <g id="Flags" stroke="none" stroke-width="1" fill="none" fill-rule="evenodd" transform="translate(-493.000000, -1173.000000)">
        <g transform="translate(70.000000, 70.000000)" fill-rule="nonzero" id="Virgin_Islands_USA">
            <g transform="translate(423.000000, 1103.000000)">
                <rect id="Rectangle-path" fill="#FFFFFF" x="0.39" y="0.1" width="70" height="47" rx="6.64"></rect>
                <path d="M23.85,31.15 C23.85,31.15 23.8,30.8 24.47,30.54 C25.14,30.28 25.19,29.32 25.06,28.68 C24.8728458,29.0084685 24.6085777,29.2864649 24.29,29.49 C23.9072898,29.6929316 23.6410671,30.0626854 23.57,30.49 C23.5651547,30.6416336 23.5450533,30.7923941 23.51,30.94 C23.3002811,30.4084692 23.3919047,29.8052805 23.75,29.36 C24.3923009,28.6800865 24.5103368,27.6584653 24.04,26.85 C24.0068665,27.2716574 23.8263069,27.6681805 23.53,27.97 C23.06,28.38 23,28.41 23.01,29.38 C23.01,29.38 23.01,29.72 22.84,29.83 C22.6507114,29.5569111 22.4961877,29.2613007 22.38,28.95 C22.28,28.6 22.24,28.45 22.65,28.04 C22.65,28.04 23.98,27.18 23.02,25.3 C22.9843408,25.6820079 22.8100341,26.0377358 22.53,26.3 C22.07,26.68 22.11,26.94 22.09,27.6 C22.07,28.26 22.02,28.22 21.97,28.31 C21.92,28.4 21.12,26.76 21.78,25.93 C22.44,25.1 22.78,24.93 22.08,23.39 C22.0943001,23.8461094 21.8945174,24.2826715 21.54,24.57 C20.96,24.96 21.1,25.87 21.1,25.87 C21.1193355,26.0702073 21.0919506,26.2721705 21.02,26.46 C21.02,26.46 20.21,24.87 21.02,24.02 C21.6407186,23.4358504 21.784948,22.5045405 21.37,21.76 C21.3338627,22.0475233 21.1867169,22.3095145 20.96,22.49 C20.6,22.75 20.31,23.01 20.37,24 C20.3889407,24.2980139 20.3687691,24.597225 20.31,24.89 C20.1311478,24.5717759 19.9837825,24.2368548 19.87,23.89 C19.7354627,23.5348067 19.780125,23.1365676 19.99,22.82 C20.8006023,21.8736001 20.8257705,20.4851559 20.05,19.51 C20.0128097,19.8802348 19.8968849,20.2382378 19.71,20.56 C19.4937369,21.048417 19.4582901,21.5978428 19.61,22.11 C19.6390107,22.4157142 19.5836726,22.7235322 19.45,23 C19.139533,22.3810923 18.9980937,21.6911443 19.04,21 C19.1695733,19.9297667 18.6403695,18.8871562 17.7,18.36 C17.7,18.36 16.97,20.06 17.97,20.93 C18.4799304,21.4521658 18.8482109,22.0957961 19.04,22.8 C19.04,22.8 18.39,22.74 17.81,21.6 C17.4507079,20.9096856 16.7032384,20.5120954 15.93,20.6 C16.1074356,21.6987907 16.9209743,22.587002 18,22.86 C18,22.86 19.19,23.06 19.42,23.94 C19.42,23.94 19.62,24.54 19.7,24.86 C19.3997813,24.712526 19.1468892,24.4838839 18.97,24.2 C18.62,23.68 18.67,23.62 17.49,23.51 C17.2072777,23.4732823 16.9476901,23.3345985 16.76,23.12 C16.76,23.12 17.26,24.99 18.53,24.97 C18.53,24.97 19.69,24.85 20.35,26.38 L20.05,26.18 C19.6110007,25.9287518 19.0952007,25.8469352 18.6,25.95 C18.1652026,26.0407422 17.7133683,26.00251 17.3,25.84 C17.3,25.84 18.16,27.42 19.38,26.95 C20.6,26.48 21.18,28.19 21.2,28.22 C21.0671312,28.1137953 20.9402689,28.0002869 20.82,27.88 C20.4012446,27.5189401 19.8083123,27.440406 19.31,27.68 C18.9123837,27.8013337 18.4876163,27.8013337 18.09,27.68 C18.478195,28.4026537 19.27896,28.8030363 20.09,28.68 C20.8363017,28.5295534 21.5778804,28.9582116 21.82,29.68 C21.7126192,29.6161692 21.6091053,29.5460469 21.51,29.47 C21.38,29.37 20.92,29.1 19.92,29.4 C18.92,29.7 18.56,29.4 18.56,29.4 C18.9067791,29.9972814 19.4997007,30.4108626 20.18,30.53 C20.4662799,30.5302082 20.7515849,30.4966429 21.03,30.43 C21.5311508,30.2199973 22.1108105,30.3964155 22.41,30.85 C22.2998171,30.860409 22.188928,30.8396173 22.09,30.79 C21.6656667,30.6486258 21.1990393,30.7232862 20.84,30.99 C20.5294213,31.2848905 20.1063287,31.4307845 19.68,31.39 C20.3381226,31.9056287 21.2475335,31.957481 21.96,31.52 C21.96,31.52 22.43,31.18 22.78,31.44 C23.13,31.7 23.85,31.15 23.85,31.15 Z" id="path5" fill="#55A963"></path>
                <path d="M42.65,23 C43.1364912,23.416114 43.8535088,23.416114 44.34,23 C44.5828415,23.2441104 44.9341899,23.3461148 45.27,23.27 C45.89,23.16 46,22.83 46.06,22.65 C46.3637038,22.8295306 46.7342463,22.8554686 47.06,22.72 C47.3094605,22.6079127 47.4807483,22.3719163 47.51,22.1 C47.9487438,22.1883389 48.4020781,22.044783 48.71,21.72 C49.12,21.18 48.87,20.65 48.65,20.59 C48.65,20.59 49.51,20.81 49.74,20.08 C49.8698142,19.7425313 49.7691105,19.3598569 49.49,19.13 C50.3698038,19.1432916 51.2402403,18.9479574 52.03,18.56 C52.03,18.56 52.64,18.17 52.28,17.77 C52.28,17.77 53.9,17.51 54.28,16.86 C54.395471,16.7249534 54.4400013,16.5431214 54.4,16.37 C54.3949774,16.2672182 54.3127818,16.1850226 54.21,16.18 C55.0631412,16.0716219 55.8786166,15.7632488 56.59,15.28 C56.7449,15.0974516 56.7941024,14.8476549 56.72,14.62 C56.7045891,14.560386 56.6810341,14.5031809 56.65,14.45 C57.5543231,14.2627016 58.4093633,13.8879828 59.16,13.35 C59.435207,13.0957928 59.5264928,12.6988982 59.39,12.35 C59.39,12.35 62.2,11.58 61.55,10.35 C61.55,10.35 62.86,9.92 62.45,8.74 C62.45,8.74 63.54,8.19 63.06,7.31 C62.58,6.43 61.21,7.46 59.56,7.91 C59.56,7.91 55.09,9.32 52.89,9.69 L46.64,19 L42.99,20.41 L42.65,23 Z" id="path15" fill="#F5BB43"></path>
                <path d="M42.61,16.16 C43.1261172,15.8822832 43.7535583,15.9130778 44.24,16.24 C44.4261002,16.3816893 44.6838998,16.3816893 44.87,16.24 C44.9932375,16.1234441 45.0570032,15.9573112 45.0433992,15.7882322 C45.0297951,15.6191533 44.9402876,15.4653528 44.8,15.37 C44.3615247,14.9857534 44.1202425,14.4238905 44.1435445,13.8413418 C44.1668464,13.258793 44.452235,12.717997 44.92,12.37 C44.92,12.37 46.64,11.37 52.92,9.74 C53.1825372,9.66248188 53.4573709,9.63533781 53.73,9.66 C54.0110629,9.72948686 54.2305131,9.94893713 54.3,10.23 C54.3807982,10.4859288 54.3553323,10.7635937 54.2293287,11.0005557 C54.1033251,11.2375177 53.8873607,11.4138859 53.63,11.49 C53.3472483,11.6154254 53.0566343,11.7223179 52.76,11.81 C53.0486334,11.7541448 53.3368111,11.9086748 53.45,12.18 C53.65,12.64 53.36,13.11 52.45,13.41 C52.2604138,13.4814677 52.0667372,13.5415742 51.87,13.59 C51.87,13.59 52.63,13.81 52.27,14.42 C51.9326974,14.9024863 51.378657,15.1869935 50.79,15.18 C50.79,15.18 51.65,15.27 51.04,16.09 C50.7666132,16.4337694 50.3667567,16.6535103 49.93,16.7 C49.93,16.7 50.57,16.7 50.25,17.29 C49.8304698,17.8798475 49.1537938,18.2330575 48.43,18.24 C48.2040017,18.2646159 47.9759983,18.2646159 47.75,18.24 C47.75,18.24 48.46,18.59 48.04,19.19 C47.7668095,19.4852659 47.3698873,19.633648 46.97,19.59 C47.0872407,19.9405169 46.935312,20.3245589 46.61,20.5 C46.3415277,20.6099222 46.0344059,20.5638539 45.81,20.38 C45.9181595,20.7888137 45.7093459,21.2149639 45.32,21.38 C45.0663072,21.4807707 44.7836928,21.4807707 44.53,21.38 C44.53,21.38 44.17,22.19 42.88,21.62 C41.59,21.05 42.61,16.16 42.61,16.16 Z" id="path17" fill="#F5BB43"></path>
                <path d="M26.28,29.49 C26.28,29.49 25.53,30.78 24.62,30.8 C24.62,30.8 23.06,30.61 22.62,31.02 C22.2129079,31.3196131 21.9427917,31.7698067 21.87,32.27 C21.74,33 22.12,33.15 22.21,33.19 C22.2221353,33.325082 22.2945479,33.4474858 22.4070961,33.5231648 C22.5196444,33.5988438 22.6603221,33.6197249 22.79,33.58 C22.79,33.58 22.79,34.12 23.73,33.86 C24.67,33.6 25.02,33.68 25.19,32.78 C25.36,31.88 25.53,31.89 25.69,31.78 C25.85,31.67 26.32,31.5 26.62,31.32 C27.1470401,31.0138435 27.707342,30.7689211 28.29,30.59 C28.65,30.59 28.57,29.35 28.57,29.35 L27.65,29.35 L27.21,28.69 L26.28,29.49 Z" id="path23" fill="#F5BB43"></path>
                <polygon id="polygon33" fill="#3CAFDA" points="50.77 20.86 50.92 25.74 50.92 25.74 50.06 25.24 50.06 25.24 48.63 31.43 48.04 31.01 49.43 25.08 49.43 25.08 48.46 25.1 48.46 25.1"></polygon>
                <polygon id="polygon45" fill="#3CAFDA" points="56.34 23.03 54.3 27.42 54.3 27.42 53.77 26.55 53.77 26.55 49.46 31.64 49 31.12 53.28 26.09 53.28 26.09 52.42 25.63 52.42 25.63"></polygon>
                <polygon id="Shape" fill="#F4C53D" points="22.84 19.63 23.43 21.42 26.46 20.95 26.46 19.67"></polygon>
                <polygon id="polygon49" fill="#3CAFDA" points="54.48 19.82 53.43 24.57 53.43 24.57 52.72 23.85 52.72 23.85 48.87 31.26 48.28 30.91 52.15 23.52 52.15 23.52 51.21 23.27 51.21 23.27"></polygon>
                <path d="M29.18,23 C28.6935088,23.416114 27.9764912,23.416114 27.49,23 C27.2471585,23.2441104 26.8958101,23.3461148 26.56,23.27 C25.94,23.16 25.83,22.83 25.77,22.65 C25.4662962,22.8295306 25.0957537,22.8554686 24.77,22.72 C24.5205395,22.6079127 24.3492517,22.3719163 24.32,22.1 C23.8812562,22.1883389 23.4279219,22.044783 23.12,21.72 C22.71,21.18 22.96,20.65 23.18,20.59 C23.18,20.59 22.32,20.81 22.09,20.08 C21.9601858,19.7425313 22.0608895,19.3598569 22.34,19.13 C21.4601962,19.1432916 20.5897597,18.9479574 19.8,18.56 C19.8,18.56 19.19,18.17 19.55,17.77 C19.55,17.77 17.93,17.51 17.55,16.86 C17.434529,16.7249534 17.3899987,16.5431214 17.43,16.37 C17.4350226,16.2672182 17.5172182,16.1850226 17.62,16.18 C16.7668588,16.0716219 15.9513834,15.7632488 15.24,15.28 C15.0851,15.0974516 15.0358976,14.8476549 15.11,14.62 C15.1254109,14.560386 15.1489659,14.5031809 15.18,14.45 C14.2756769,14.2627016 13.4206367,13.8879828 12.67,13.35 C12.394793,13.0957928 12.3035072,12.6988982 12.44,12.35 C12.44,12.35 9.63,11.58 10.28,10.35 C10.28,10.35 8.97,9.92 9.38,8.74 C9.38,8.74 8.29,8.19 8.77,7.31 C9.25,6.43 10.62,7.46 12.27,7.91 C12.27,7.91 16.74,9.32 18.94,9.69 L25.19,19 L28.84,20.41 L29.18,23 Z" id="path53" fill="#F5BB43"></path>
                <path d="M29.22,16.16 C28.7038828,15.8822832 28.0764417,15.9130778 27.59,16.24 C27.4038998,16.3816893 27.1461002,16.3816893 26.96,16.24 C26.8367625,16.1234441 26.7729968,15.9573112 26.7866008,15.7882322 C26.8002049,15.6191533 26.8897124,15.4653528 27.03,15.37 C27.4684753,14.9857534 27.7097575,14.4238905 27.6864555,13.8413418 C27.6631536,13.258793 27.377765,12.717997 26.91,12.37 C26.91,12.37 25.19,11.37 18.91,9.74 C18.6474628,9.66248188 18.3726291,9.63533781 18.1,9.66 C17.8189371,9.72948686 17.5994869,9.94893713 17.53,10.23 C17.4492018,10.4859288 17.4746677,10.7635937 17.6006713,11.0005557 C17.7266749,11.2375177 17.9426393,11.4138859 18.2,11.49 C18.4827517,11.6154254 18.7733657,11.7223179 19.07,11.81 C18.7813666,11.7541448 18.4931889,11.9086748 18.38,12.18 C18.18,12.64 18.47,13.11 19.38,13.41 C19.5695862,13.4814677 19.7632628,13.5415742 19.96,13.59 C19.96,13.59 19.2,13.81 19.56,14.42 C19.8973026,14.9024863 20.451343,15.1869935 21.04,15.18 C21.04,15.18 20.18,15.27 20.79,16.09 C21.0633868,16.4337694 21.4632433,16.6535103 21.9,16.7 C21.9,16.7 21.26,16.7 21.58,17.29 C21.9995302,17.8798475 22.6762062,18.2330575 23.4,18.24 C23.6259983,18.2646159 23.8540017,18.2646159 24.08,18.24 C24.08,18.24 23.37,18.59 23.79,19.19 C24.0631905,19.4852659 24.4601127,19.633648 24.86,19.59 C24.7427593,19.9405169 24.894688,20.3245589 25.22,20.5 C25.4884723,20.6099222 25.7955941,20.5638539 26.02,20.38 C25.9118405,20.7888137 26.1206541,21.2149639 26.51,21.38 C26.7636928,21.4807707 27.0463072,21.4807707 27.3,21.38 C27.3,21.38 27.66,22.19 28.95,21.62 C30.24,21.05 29.22,16.16 29.22,16.16 Z" id="path57" fill="#F5BB43"></path>
                <path d="M29.3,23.54 C28.9935366,24.46582 28.4019647,25.2709179 27.61,25.84 C26.968925,26.4042416 26.5652057,27.1902438 26.48,28.04 C26.48,29.24 26.27,29.37 25.82,29.78 C26.3431747,29.8196193 26.8555797,29.6168691 27.21,29.23 C27.21,29.23 27.21,30.23 27.05,30.36 C26.89,30.49 27.34,30.36 27.77,29.91 C27.9126567,29.7614375 28.0780612,29.6365403 28.26,29.54 C28.1015934,29.9834828 28.0806821,30.4644423 28.2,30.92 C28.2737792,30.7334678 28.4345495,30.5951305 28.63,30.55 C29.1152188,30.3856041 29.4694332,29.9659371 29.55,29.46 C29.55,29.46 29.72,28.82 30.76,28.26 C30.76,28.26 31.94,27.82 31.91,27.26 C31.88,26.7 29.3,23.54 29.3,23.54 Z" id="path71" fill="#F5BB43"></path>
                <path d="M45.55,29.49 C45.55,29.49 46.3,30.78 47.21,30.8 C47.21,30.8 48.77,30.61 49.21,31.02 C49.6170921,31.3196131 49.8872083,31.7698067 49.96,32.27 C50.09,33 49.71,33.15 49.62,33.19 C49.6078647,33.325082 49.5354521,33.4474858 49.4229039,33.5231648 C49.3103556,33.5988438 49.1696779,33.6197249 49.04,33.58 C49.04,33.58 49.04,34.12 48.1,33.86 C47.16,33.6 46.81,33.68 46.64,32.78 C46.47,31.88 46.3,31.89 46.14,31.78 C45.98,31.67 45.51,31.5 45.21,31.32 C44.6829599,31.0138435 44.122658,30.7689211 43.54,30.59 C43.18,30.59 43.26,29.35 43.26,29.35 L44.18,29.35 L44.62,28.69 L45.55,29.49 Z" id="path75" fill="#F5BB43"></path>
                <path d="M42.53,23.54 C42.8364634,24.46582 43.4280353,25.2709179 44.22,25.84 C44.861075,26.4042416 45.2647943,27.1902438 45.35,28.04 C45.35,29.24 45.56,29.37 46.01,29.78 C45.4868253,29.8196193 44.9744203,29.6168691 44.62,29.23 C44.62,29.23 44.62,30.23 44.78,30.36 C44.94,30.49 44.49,30.36 44.06,29.91 C43.9173433,29.7614375 43.7519388,29.6365403 43.57,29.54 C43.7284066,29.9834828 43.7493179,30.4644423 43.63,30.92 C43.5562208,30.7334678 43.3954505,30.5951305 43.2,30.55 C42.7147812,30.3856041 42.3605668,29.9659371 42.28,29.46 C42.28,29.46 42.11,28.82 41.07,28.26 C41.07,28.26 39.89,27.82 39.92,27.26 C39.95,26.7 42.53,23.54 42.53,23.54 Z" id="path77" fill="#F5BB43"></path>
                <path d="M37.08,36.64 C37.08,36.64 37.35,37.83 38.29,37.73 C38.29,37.73 38.95,37.67 38.9,36.56 C38.9,36.56 39.9,37.08 40.04,35.79 C40.04,35.79 40.93,36 40.92,34.79 C40.92,34.79 41.75,34.94 41.65,33.86 C41.8801057,33.9373334 42.1339215,33.8880599 42.318378,33.730247 C42.5028346,33.5724342 42.5907927,33.3293012 42.55,33.09 C42.55,33.09 44.66,32.74 40.27,28.74 L36.36,31.07 L37.08,36.64 Z" id="path91" fill="#F5BB43"></path>
                <path d="M36.64,31.31 C36.8101973,31.4730417 37.0526841,31.5363249 37.2808495,31.4772464 C37.5090149,31.4181678 37.6903175,31.2451534 37.76,31.02 C37.76,31.02 38.39,31.02 38.49,30.51 C38.7866487,30.4761649 39.0304343,30.2603547 39.1,29.97 C39.1,29.97 39.8,29.9 39.78,29.3 C39.78,29.3 41.06,29.2 39.78,27.76 C38.5,26.32 36.34,30.16 36.34,30.16 L36.64,31.31 Z" id="path93" fill="#F5BB43"></path>
                <path d="M34.75,36.64 C34.75,36.64 34.48,37.83 33.54,37.73 C33.54,37.73 32.88,37.67 32.93,36.56 C32.93,36.56 31.93,37.08 31.79,35.79 C31.79,35.79 30.9,36 30.91,34.79 C30.91,34.79 30.08,34.94 30.18,33.86 C29.9498943,33.9373334 29.6960785,33.8880599 29.511622,33.730247 C29.3271654,33.5724342 29.2392073,33.3293012 29.28,33.09 C29.28,33.09 27.17,32.74 31.56,28.74 L35.47,31.07 L34.75,36.64 Z" id="path105" fill="#F5BB43"></path>
                <path d="M35.19,31.31 C35.0198027,31.4730417 34.7773159,31.5363249 34.5491505,31.4772464 C34.3209851,31.4181678 34.1396825,31.2451534 34.07,31.02 C34.07,31.02 33.44,31.02 33.34,30.51 C33.0433513,30.4761649 32.7995657,30.2603547 32.73,29.97 C32.73,29.97 32.03,29.9 32.05,29.3 C32.05,29.3 30.77,29.2 32.05,27.76 C33.33,26.32 35.49,30.16 35.49,30.16 L35.19,31.31 Z" id="path107" fill="#F5BB43"></path>
                <path d="M35.92,30.95 C36.55,30.95 37.27,34.95 37.08,37.28 C37.01,38.14 36.55,38.85 35.92,38.85 C35.29,38.85 34.82,38.14 34.76,37.28 C34.57,34.9 35.29,30.95 35.92,30.95" id="path113" fill="#F5BB43"></path>
                <ellipse id="ellipse119" fill="#F5BB43" cx="35.92" cy="30.92" rx="1" ry="1.3"></ellipse>
                <path d="M35.92,30.63 C35.92,30.63 43.34,27.34 43.36,19.73 L28.48,19.73 C28.49,27.35 35.92,30.63 35.92,30.63 Z" id="path123" fill="#FFFFFF"></path>
                <path d="M29.62,19.74 L29.62,24.6 C29.9456567,25.2422183 30.3271242,25.854574 30.76,26.43 L30.76,19.73 L29.62,19.74 Z" id="path131" fill="#EC5565"></path>
                <path d="M31.91,19.74 L31.91,27.74 C31.91,27.74 32.63,28.44 33.05,28.74 L33.05,19.69 L31.91,19.74 Z" id="path133" fill="#EC5565"></path>
                <path d="M34.2,19.74 L34.2,29.65 C34.2,29.65 35.02,30.18 35.34,30.35 L35.34,19.74 L34.2,19.74 Z" id="path135" fill="#EC5565"></path>
                <path d="M42.21,19.74 L42.21,24.6 C41.8842983,25.2421929 41.5028332,25.8545448 41.07,26.43 L41.07,19.73 L42.21,19.74 Z" id="path143" fill="#EC5565"></path>
                <path d="M39.92,19.74 L39.92,27.74 C39.92,27.74 39.2,28.44 38.78,28.74 L38.78,19.69 L39.92,19.74 Z" id="path145" fill="#EC5565"></path>
                <path d="M37.63,19.74 L37.63,29.65 C37.63,29.65 36.81,30.18 36.49,30.35 L36.49,19.74 L37.63,19.74 Z" id="path147" fill="#EC5565"></path>
                <path d="M47.92,33.52 L47.63,34.7 L48.42,35.49 L47.3,40.21 L46.3,38.88 L44.83,39.57 L45.95,34.85 L46.95,34.56 L47.22,33.38 C47.4613853,33.295244 47.7297813,33.3489232 47.92,33.52 Z" id="path153" fill="#3CAFDA"></path>
                <path d="M48.18,32.74 L47.61,33.8 L48.18,34.8 L45.94,39.05 L45.31,37.49 L43.72,37.75 L45.96,33.5 L47,33.5 L47.55,32.44 C47.7962093,32.431989 48.03103,32.5438084 48.18,32.74 Z" id="path155" fill="#3CAFDA"></path>
                <path d="M48.28,33.05 L46.77,34.97 L47.12,36.06 L44.03,39.67 L43.75,38 L42.14,37.88 L45.23,34.27 L46.23,34.53 L47.83,32.53 C47.83,32.53 48.3,32.7 48.28,33.05 Z" id="path157" fill="#3CAFDA"></path>
                <path d="M23.69,33.31 C23.69,33.31 23.69,32.68 24.47,32.63 L26.83,35.91 C26.83,35.91 26.74,36.12 25.67,36.1 C25.5953477,36.1050511 25.5297585,36.1513494 25.5,36.22 C24.8219202,35.2985382 24.2167513,34.3255871 23.69,33.31 Z" id="path193" fill="#55A963"></path>
                <path d="M39.82,13.59 C39.65,13.81 38.96,13.89 38.96,13.89 C39.3939956,14.247847 39.7367439,14.7037022 39.96,15.22 C40.27,16 31.71,15.22 31.71,15.22 C31.9707249,15.0119983 32.1824108,14.749098 32.33,14.45 C32.0535317,14.5247251 31.7586424,14.4354822 31.57,14.22 C31.57,14.22 31.85,14.31 32.22,13.75 C32.4799187,13.405071 32.7939845,13.1045133 33.15,12.86 C33.15,12.86 32.97,12.97 32.54,12.74 C32.54,12.74 33.28,12.65 33.54,11.38 C33.6012864,11.1297205 33.7136361,10.8948076 33.87,10.69 C34.15,10.28 34.09,10.77 34.61,10.14 C34.61,10.14 34.85,9.7 34.61,9.43 C34.37,9.16 34.18,9.26 33.75,9 C33.32,8.74 33.12,8.59 33.27,8.19 C33.3582165,7.94860541 33.60691,7.80529051 33.86,7.85 C33.91,7.85 33.94,7.5 34.42,7.26 C35.0485316,7.08865488 35.7114684,7.08865488 36.34,7.26 C36.9922714,7.51801653 37.4997622,8.04741339 37.73,8.71 C38.17,9.83 37.61,10.26 38.82,11.95 C38.5560547,12.0038776 38.2839453,12.0038776 38.02,11.95 C38.4570737,12.6523723 39.0800898,13.2200092 39.82,13.59 Z" id="path9" fill="#F4C53D"></path>
                <polygon id="Shape" fill="#F4C53D" points="32.97 12.7 33.1 13.34 38.95 13.05 38.09 11.94"></polygon>
                <path d="M36.24,9 C36.1144943,8.93068573 36.0053609,8.835194 35.92,8.72 C35.8213117,8.57369228 35.6665885,8.47462937 35.4924081,8.44623038 C35.3182276,8.4178314 35.1400509,8.46261715 35,8.57 C34.874945,8.71253828 34.7119411,8.81658332 34.53,8.87 C34.6875162,8.92141437 34.8335516,9.00292251 34.96,9.11 C35.1151497,9.2863383 35.3465584,9.37591584 35.58,9.35 C35.84,9.35 35.88,9.18 36,9.1 C36.0723152,9.05059661 36.1540005,9.01656105 36.24,9 Z" id="path13" fill="#F5BB43"></path>
                <path d="M36.24,9 C36.1144943,8.93068573 36.0053609,8.835194 35.92,8.72 C35.8213117,8.57369228 35.6665885,8.47462937 35.4924081,8.44623038 C35.3182276,8.4178314 35.1400509,8.46261715 35,8.57 C34.874945,8.71253828 34.7119411,8.81658332 34.53,8.87 C34.6875162,8.92141437 34.8335516,9.00292251 34.96,9.11 C35.1151497,9.2863383 35.3465584,9.37591584 35.58,9.35 C35.84,9.35 35.88,9.18 36,9.1 C36.0723152,9.05059661 36.1540005,9.01656105 36.24,9 Z" id="path13-2" fill="#010002"></path>
                <path d="M43.36,14.21 C40.9897238,15.3149589 38.2405816,15.2558376 35.92,14.05 C33.5994184,15.2558376 30.8502762,15.3149589 28.48,14.21 L28.48,19.74 L43.36,19.74 L43.36,14.21 Z" id="path215" fill="#4658A9"></path>
                <path d="M9.94,28.54 C10.3,28.39 10.56,28.25 10.56,27.87 C10.5338148,27.6615396 10.4834767,27.4568314 10.41,27.26 L7.99,19.86 C7.90810267,19.5868909 7.80787514,19.3196175 7.69,19.06 C7.58,18.85 7.37,18.77 7.08,18.65 L10.16,18.65 C9.83,18.81 9.52,18.93 9.52,19.29 C9.53319707,19.48467 9.57358927,19.6765329 9.64,19.86 L11.5,25.67 L13.35,19.86 C13.4176024,19.6768743 13.4580311,19.484838 13.47,19.29 C13.47,18.93 13.15,18.79 12.84,18.65 L15.84,18.65 C15.5919938,18.7042795 15.3739168,18.8508558 15.23,19.06 C15.1120685,19.3195941 15.0118395,19.5868714 14.93,19.86 L12.51,27.26 C12.4426661,27.4620843 12.3924884,27.6694854 12.36,27.88 C12.36,27.88 12.25,28.35 12.98,28.55 L9.94,28.54 Z" id="path217" fill="#3CAFDA"></path>
                <path d="M61.55,27.78 L61.55,19.4 C61.5565986,19.2857193 61.5324255,19.1717604 61.48,19.07 C61.3372805,18.8835788 61.1474223,18.7385962 60.93,18.65 L63.7,18.65 C63.4778927,18.7302095 63.2858625,18.8768508 63.15,19.07 C63.0967466,19.175057 63.0725772,19.2924509 63.08,19.41 L63.08,27.79 C63.0725772,27.9075491 63.0967466,28.024943 63.15,28.13 C63.2983481,28.3106892 63.4866254,28.4544646 63.7,28.55 L60.93,28.55 C61.1443429,28.4561 61.3329747,28.3120539 61.48,28.13 C61.5350362,28.0219768 61.5592553,27.9008815 61.55,27.78 Z" id="path219" fill="#3CAFDA"></path>
                <path d="M31.65,10 C31.65,10 31.49,8.55 32.65,8.41 C33.2534632,8.30164393 33.8740999,8.33936218 34.46,8.52 L35,9.59 L34.81,10.31 L34.06,10.65 C34.06,10.65 34.19,9.55 33.18,9.52 C32.9109761,9.55246904 32.6390239,9.55246904 32.37,9.52 C32,9.48 31.74,9.93 31.65,10 Z" id="path7" fill="#F4C53D"></path>
            </g>
        </g>
    </g>
</svg>