<?xml version="1.0" encoding="UTF-8"?>
<svg width="71px" height="48px" viewBox="0 0 71 48" version="1.1" xmlns="http://www.w3.org/2000/svg" xmlns:xlink="http://www.w3.org/1999/xlink">
    <!-- Generator: Sketch 48.1 (47250) - http://www.bohemiancoding.com/sketch -->
    <title>wales@2x</title>
    <desc>Created with Sketch.</desc>
    <defs></defs>
    <g id="Flags" stroke="none" stroke-width="1" fill="none" fill-rule="evenodd" transform="translate(-831.000000, -1295.000000)">
        <g transform="translate(70.000000, 70.000000)" fill-rule="nonzero" id="wales">
            <g transform="translate(761.000000, 1225.000000)">
                <path d="M70.87,7.23 C70.87,3.56282926 67.8971707,0.59 64.23,0.59 L7.51,0.59 C3.84282926,0.59 0.87,3.56282926 0.87,7.23 L0.87,24.09 L70.87,24.09 L70.87,7.23 Z" id="Shape" fill="#FFFFFF"></path>
                <path d="M7.51,47.59 L64.23,47.59 C65.9910375,47.59 67.6799475,46.8904306 68.925189,45.645189 C70.1704306,44.3999475 70.87,42.7110375 70.87,40.95 L70.87,24.09 L0.87,24.09 L0.87,40.95 C0.87,42.7110375 1.56956942,44.3999475 2.81481097,45.645189 C4.06005253,46.8904306 5.74896251,47.59 7.51,47.59 Z" id="Shape" fill="#51C161"></path>
                <path d="M18,38.67 C18.1500234,38.6704 18.2951385,38.7234909 18.41,38.82 L18.47,38.82 L18.47,38.89 C18.5924911,39.0684225 18.7671235,39.2046358 18.97,39.28 L19.14,39.36 L19.14,39.55 L19.14,39.64 C19.1354013,39.7099245 19.1354013,39.7800755 19.14,39.85 L19.22,40.06 L19.01,40.11 C18.68,40.29 18.54,40.5 18.58,40.76 C18.6090453,40.9308351 18.685243,41.0901574 18.8,41.22 C18.7992605,41.1225148 18.8309173,41.0275444 18.89,40.95 C19.0051153,40.8070876 19.2011748,40.7580728 19.37,40.83 L19.43,40.83 C19.5836487,40.901106 19.7507014,40.9386076 19.92,40.94 C20.16,40.94 20.31,40.81 20.72,40.41 L20.85,40.28 C21.1061148,39.9907214 21.5416739,39.9471655 21.85,40.18 L21.95,40.23 L21.95,40.35 C21.9477709,40.3699379 21.9477709,40.3900621 21.95,40.41 C22.12079,40.4468906 22.2953098,40.4636714 22.47,40.46 C23.1060714,40.4476875 23.7352695,40.3259072 24.33,40.1 L24.44,40.1 C24.8725782,39.9380781 25.3284194,39.8469099 25.79,39.83 C26.1603952,39.8273519 26.527585,39.8987499 26.87,40.04 L27.1,40.13 C27.2123635,40.1815955 27.3296164,40.2217965 27.45,40.25 C27.5435428,40.2584511 27.6334191,40.2115592 27.68,40.13 L27.74,40.04 L27.85,40.04 C28.0560749,39.9736912 28.2819109,40.0320971 28.43,40.19 C28.4642865,40.2378394 28.4881353,40.292351 28.5,40.35 C28.6515552,40.2038868 28.747095,40.0092688 28.77,39.8 C28.77,39.56 28.55,39.35 28.12,39.17 L28.05,39.17 C27.8789352,38.9978273 27.6589404,38.8825919 27.42,38.84 C27.2705027,38.8476291 27.1226149,38.8745178 26.98,38.92 L26.73,38.98 C26.5167291,39.0344891 26.2993243,39.0712807 26.08,39.09 C25.54,39.09 25.51,38.66 25.48,38.32 C25.6963984,37.506586 26.0738522,36.7448775 26.59,36.08 C27.2780746,35.1858965 28.0159071,34.3312127 28.8,33.52 L28.87,33.45 L28.97,33.45 C29.81,33.45 30.3,33.61 30.44,34.02 C30.507467,34.2005705 30.507467,34.3994295 30.44,34.58 C30.7674475,34.4176094 31.0441336,34.1685919 31.24,33.86 C31.4828682,33.4456204 31.5126108,32.9399961 31.32,32.5 L31.15,32.11 L31.37,32.01 C31.535264,31.8969517 31.6749451,31.7504569 31.78,31.58 L31.84,31.32 L32.09,31.44 C32.4729749,31.5001456 32.8651564,31.4371164 33.21,31.26 C33.3183221,31.2027345 33.3953553,31.1000236 33.42,30.98 L33.42,30.75 L33.65,30.75 C34.0572018,30.7660285 34.4571121,30.6386235 34.78,30.39 C34.8904443,30.3088645 34.9627453,30.1859529 34.98,30.05 L34.98,29.51 L35.37,29.88 C35.37,29.88 35.37,29.88 35.52,29.88 L35.78,29.88 L35.78,30.14 C35.78,30.46 36.3,30.79 36.47,30.83 L36.77,30.65 L36.77,31.05 C36.8162951,31.3597753 37.0050575,31.6299646 37.28,31.78 C37.4535374,31.9068356 37.6653024,31.9703651 37.88,31.96 L38.34,31.78 L38.25,32.18 C38.4759886,32.3655857 38.7498664,32.4834572 39.04,32.52 L39.42,32.52 L39.29,32.88 C38.92,33.88 37.84,36.35 35.97,37.28 L35.91,37.28 L35.84,37.28 C35.3629197,37.198505 34.9071705,37.0216471 34.5,36.76 C34.2276377,36.5974495 33.9925411,36.379389 33.81,36.12 L33.81,36.06 C33.7495823,35.9428902 33.6682424,35.8378262 33.57,35.75 C33.4457748,35.6462309 33.2982167,35.5741676 33.14,35.54 C33.0692206,35.5643807 33.0019722,35.5980049 32.94,35.64 L32.86,35.7 L32.76,35.7 C32.45,35.65 32.05,35.62 31.88,35.83 C31.8428936,35.8736903 31.8156109,35.9248454 31.8,35.98 C32.0263706,35.9330759 32.2570398,36.0382934 32.37,36.24 L32.43,36.33 C32.5001836,36.4892781 32.5001836,36.6707219 32.43,36.83 L32.37,36.96 L32.22,36.96 C32.0746922,36.9689948 31.9353929,37.0212321 31.82,37.11 L31.74,37.17 L31.64,37.17 C31.24,37.17 30.98,37.25 30.89,37.55 C30.8776755,37.6261714 30.8776755,37.7038286 30.89,37.78 C31.0009214,37.64316 31.1756646,37.5747822 31.35,37.6 C31.47,37.6 31.68,37.71 31.76,38.08 L31.76,38.17 C31.8318577,38.3052617 31.9485222,38.4113204 32.09,38.47 L32.34,38.59 L32.2,38.83 L32.13,38.92 L32.13,39.07 L31.96,39.16 C31.56,39.3 31.35,39.51 31.34,39.77 C31.344891,39.9469359 31.4042582,40.1180531 31.51,40.26 L31.51,40.2 C31.6774718,39.9600918 31.9780406,39.851887 32.26,39.93 L32.42,39.93 L32.42,40.09 C32.4998061,40.1327195 32.5895444,40.1534283 32.68,40.15 C33.0404979,40.0492055 33.3794428,39.8831225 33.68,39.66 L34.04,39.44 C34.4063061,39.2872054 34.8068766,39.2354075 35.2,39.29 L35.28,39.29 L35.41,39.35 C35.41,39.35 35.49,39.42 35.69,39.42 C36.1680307,39.4141583 36.6377437,39.2941587 37.06,39.07 C37.5440497,38.814833 38.0828132,38.681 38.63,38.68 L38.69,38.68 C38.9649657,38.7040672 39.236535,38.7577105 39.5,38.84 C40.09,38.99 40.82,39.19 41.05,38.84 L41.05,38.77 L41.12,38.77 C41.2960541,38.6854603 41.5074184,38.740415 41.62,38.9 C41.6259707,38.9364236 41.6259707,38.9735764 41.62,39.01 C41.7715305,38.8776632 41.873754,38.6978908 41.91,38.5 C41.91,38.25 41.72,38.07 41.28,37.95 L41.18,37.95 L41.18,37.86 C41.0250933,37.7425567 40.8342483,37.6824758 40.64,37.69 C40.3792278,37.6985367 40.1233836,37.7633506 39.89,37.88 L39.69,37.96 C39.5265074,38.029696 39.337139,37.9941894 39.21,37.87 C39.1127775,37.7102997 39.1127775,37.5097003 39.21,37.35 C39.67,36.23 41.83,34.25 42.54,33.64 L42.61,33.64 C42.7076403,33.5984929 42.8013509,33.5482908 42.89,33.49 C43.54,33.25 43.89,33.49 44.04,33.79 C44.1077974,33.9497719 44.1077974,34.1302281 44.04,34.29 C45.04,33.84 44.96,33.29 44.94,33.13 L44.94,33.06 C44.99,32.26 44.22,31.83 43.63,31.57 L43.46,31.47 C43.1207291,31.1787751 42.9359855,30.746475 42.96,30.3 C42.9761805,30.1007642 43.0831319,29.9200533 43.25,29.81 C43.374289,29.7405475 43.525711,29.7405475 43.65,29.81 C43.864317,30.0126001 44.1452499,30.1299518 44.44,30.14 C44.5797927,30.3855982 44.7792802,30.5919647 45.02,30.74 C45.302938,30.9614445 45.6755614,31.032243 46.02,30.93 C46.02,30.93 46.02,31.33 46.65,31.42 C47.45,31.54 47.65,31.16 47.65,31.16 L47.79,31.44 C47.99,31.82 48.66,31.81 48.9,31.76 L49.12,31.69 L49.37,31.88 C49.7226868,32.0892498 50.1547099,32.1153202 50.53,31.95 L50.79,31.76 L50.91,32.06 C51.4185014,32.7677966 51.7603604,33.5814212 51.91,34.44 C52.2016992,35.4685161 52.1490216,36.5642109 51.76,37.56 C51.6573052,37.7139505 51.470831,37.7893337 51.29,37.75 L51.2,37.75 C50.9355068,37.6549954 50.6887687,37.5164165 50.47,37.34 C50.2308827,37.1497615 50.0189172,36.9277023 49.84,36.68 L49.76,36.54 C49.6768425,36.3624669 49.56912,36.1975168 49.44,36.05 C49.2851767,35.9372132 49.1012177,35.8712657 48.91,35.86 L48.82,35.86 L48.72,35.93 L48.6,35.93 C48.2821203,35.8093866 47.9228815,35.8922878 47.69,36.14 C47.6040153,36.2278016 47.5330672,36.3291561 47.48,36.44 L47.69,36.39 C47.9211544,36.3534131 48.1532133,36.4501044 48.29,36.64 L48.29,36.72 C48.3372454,36.8560141 48.3372454,37.0039859 48.29,37.14 L48.23,37.27 L48.09,37.27 C47.8534061,37.2846333 47.6363052,37.4060627 47.5,37.6 L47.43,37.69 L47.32,37.69 C47,37.69 46.8,37.81 46.72,37.99 C46.6552365,38.1779097 46.6552365,38.3820903 46.72,38.57 C46.7934997,38.450593 46.9016335,38.3564119 47.03,38.3 C47.2444973,38.213153 47.4905112,38.2882081 47.62,38.48 C47.7244925,38.6159395 47.872948,38.7113752 48.04,38.75 L48.76,38.91 L48.09,39.22 C47.81,39.35 47.47,39.57 47.47,39.85 C47.49194,40.038009 47.5806554,40.2118912 47.72,40.34 C47.7352458,40.2378974 47.776578,40.1414557 47.84,40.06 C47.9719822,39.8901889 48.2008084,39.8288961 48.4,39.91 L48.58,39.97 L48.58,40.16 C48.721514,40.2391269 48.8783986,40.2868744 49.04,40.3 C49.3191562,40.2524551 49.5830494,40.1393581 49.81,39.97 L50.09,39.8 C50.5568516,39.6145395 51.0584044,39.5326534 51.56,39.56 L51.66,39.56 L51.75,39.63 C52.3561114,39.989563 53.0944333,40.0486288 53.75,39.79 C53.9784146,39.7131619 54.2021312,39.6230074 54.42,39.52 C54.7297867,39.350329 55.0692616,39.241697 55.42,39.2 C55.7088739,39.219426 55.9894232,39.3049594 56.24,39.45 C56.64,39.65 56.81,39.71 57.06,39.45 L57.14,39.39 C57.3452556,39.2692269 57.6067711,39.3065863 57.77,39.48 C57.8455933,39.567665 57.8942141,39.6753252 57.91,39.79 C58.0479495,39.6649647 58.1366243,39.4947091 58.16,39.31 C58.16,39.03 57.85,38.82 57.58,38.69 L57.37,38.59 L57.43,38.43 C57.2259123,38.1855002 56.936194,38.0281223 56.62,37.99 C56.4749863,38.0156432 56.331448,38.0490242 56.19,38.09 C55.8379802,38.2531281 55.4320198,38.2531281 55.08,38.09 C54.6832655,37.77494 54.4395793,37.3057531 54.41,36.8 C54.31,36.3 54.05,32.86 54.03,32.62 L54.03,32.47 L54.15,32.39 C54.3165459,32.2749922 54.5088986,32.2028599 54.71,32.18 C54.9661837,32.1448527 55.2172788,32.2723931 55.34,32.5 C55.4108544,32.610207 55.4616381,32.7320878 55.49,32.86 C55.7917654,32.4256309 55.8834697,31.879073 55.74,31.37 C55.5696091,30.8428178 55.117285,30.456216 54.57,30.37 C53.7793897,30.296132 53.0414375,29.9413473 52.49,29.37 C51.939698,28.8529534 51.5095797,28.2214305 51.23,27.52 L51.15,27.34 L50.97,26.96 L51.23,26.87 C53.9479197,26.1108431 55.8689676,23.6893541 55.99,20.87 C55.9738349,19.7504974 55.5343723,18.6786376 54.76,17.87 L54.7,17.8 L54.7,17.71 C54.6996942,17.3171047 54.7708522,16.9274299 54.91,16.56 C54.9749993,16.3784958 55.0518308,16.2014493 55.14,16.03 L55.22,15.88 L55.53,15.39 L55.67,15.95 C55.6871924,16.0251475 55.7106065,16.0987346 55.74,16.17 C55.8,16.33 55.89,16.51 55.98,16.7 C56.0678233,16.8781194 56.164614,17.0516752 56.27,17.22 C56.5288692,14.9701188 57.3622493,12.8246816 58.69,10.99 L58.17,11.27 C56.5827044,12.0842395 55.129242,13.136398 53.86,14.39 C53.52,14.71 53.17,15.04 52.77,15.39 C53.3796586,15.310191 53.9713754,15.1276041 54.52,14.85 L55.32,14.44 L54.85,15.2 L54.6,15.61 L54.23,16.21 C54.1221421,16.388254 54.0018435,16.558677 53.87,16.72 C53.8186188,16.7851482 53.7579756,16.8424223 53.69,16.89 L53.64,16.89 L53.46,16.89 L53.46,16.84 C53.0143941,16.6209047 52.526423,16.5014712 52.03,16.49 C51.3036369,16.4237389 50.5813652,16.6541689 50.0275793,17.1288426 C49.4737935,17.6035162 49.1356093,18.2820483 49.09,19.01 C49.0773119,19.7344874 49.3629627,20.4323432 49.88,20.94 C50.2630923,21.325512 50.7865787,21.5385168 51.33,21.53 C51.8267121,21.5143763 52.3101555,21.3658901 52.73,21.1 C53.0947362,20.85859 53.374542,20.5088326 53.53,20.1 L53.91,19.1 L54.01,20.21 C54.013293,20.2599458 54.013293,20.3100542 54.01,20.36 C54.0447703,21.1740122 53.6692798,21.9512777 53.01,22.43 C52.3253166,22.8905366 51.5149602,23.1280549 50.69,23.11 C49.8741396,23.0393978 49.0795916,22.811899 48.35,22.44 L47.66,22.15 C46.0743169,21.4943747 44.3758711,21.1546855 42.66,21.15 C42.0663304,21.1040599 41.4707791,21.2107771 40.93,21.46 L40.84,21.52 L39.64,22.2 L40.52,21.14 C40.830211,20.7583448 41.2103277,20.4393183 41.64,20.2 C42.7316093,19.5934861 44.0368611,19.5054916 45.2,19.96 L45.34,20.03 L45.56,20.13 L45.65,20.13 L45.75,20.13 L45.9,20.13 L45.9,20.29 C45.9,20.35 45.9,20.41 45.9,20.46 C45.9259005,20.4055919 45.946011,20.3486122 45.96,20.29 L46.02,20.15 C46.0750901,20.0908429 46.1007764,20.0101146 46.09,19.93 C46.09,19.81 45.94,19.68 45.74,19.56 L45.66,19.56 L45.66,19.51 C45.6032598,19.4472659 45.5560852,19.3765041 45.52,19.3 C45.4529303,19.1527682 45.4026147,18.9984671 45.37,18.84 C45.2779179,18.4183016 45.2779179,17.9816984 45.37,17.56 C45.6737045,16.3577877 46.7704614,15.5269113 48.01,15.56 L48.13,15.56 C48.3896635,15.6177539 48.6541358,15.6512314 48.92,15.66 L49.13,15.66 L49.21,15.75 C49.2411043,15.7795272 49.2680207,15.8131728 49.29,15.85 C49.3255442,15.9145946 49.3460536,15.9863775 49.35,16.06 L49.41,15.94 C49.4420016,15.8459819 49.4420016,15.7440181 49.41,15.65 C49.41,15.65 49.41,15.65 49.32,15.59 L49.24,15.53 C48.0341416,14.2481558 47.7148781,12.3680484 48.43,10.76 C48.6865019,10.0721799 49.0473982,9.42796312 49.5,8.85 C49.7923367,8.43574953 50.1754065,8.0937229 50.62,7.85 L50.75,7.85 L50.75,7.9 L51,7.9 C51.0835642,7.87490177 51.16161,7.83418221 51.23,7.78 L51.4,7.65 C51.4728749,7.63840416 51.5471251,7.63840416 51.62,7.65 L51.68,7.65 L51.77,7.7 L51.85,7.78 C51.8904303,7.72215472 51.9208539,7.65792728 51.94,7.59 C51.9635508,7.53926655 51.9635508,7.48073345 51.94,7.43 C51.94,7.43 51.87,7.36 51.67,7.43 L51.51,7.43 L51.44,7.28 C51.4259702,7.24892044 51.4010796,7.22402982 51.37,7.21 C51.3008226,7.19482374 51.2291774,7.19482374 51.16,7.21 L50.97,7.15 C50.8269383,7.0463403 50.6632248,6.97471564 50.49,6.94 C50.341947,6.92454188 50.1925872,6.95232975 50.06,7.02 C49.6194714,7.26532029 49.2041388,7.5533735 48.82,7.88 L48.36,8.23 C46.36,9.75 44.1,9.92 41.57,9.98 C36.99,10.08 34.11,11.06 32.77,12.98 C32.0266252,14.2333162 31.6587171,15.673711 31.71,17.13 C31.71,17.45 31.71,17.76 31.65,18.05 C31.6086429,19.0042533 31.3116197,19.9298608 30.79,20.73 L30.53,21.05 L29.41,22.49 L29.78,21.58 C29.5424548,21.4769359 29.3431339,21.302093 29.21,21.08 L29.12,20.94 L29.21,20.81 C29.344046,20.5878402 29.5591937,20.4264794 29.81,20.36 C29.9515103,20.334248 30.0972566,20.3706845 30.21,20.46 C30.2874229,20.2491651 30.3148094,20.0232267 30.29,19.8 C30.246742,19.6057706 30.132651,19.4346341 29.97,19.32 L29.78,19.17 C29.6405451,19.0716873 29.5100389,18.9612589 29.39,18.84 C29.2235785,18.6543433 29.1126947,18.4256454 29.07,18.18 L29.07,18.01 L29.21,17.92 C29.4963676,17.7361603 29.8636324,17.7361603 30.15,17.92 C30.3994986,18.0812458 30.5643908,18.3450733 30.6,18.64 C30.7963645,18.4020337 30.9242678,18.1151155 30.97,17.81 C30.9904828,17.5149407 30.8934218,17.2237577 30.7,17 C30.587286,16.8571039 30.4671193,16.7202475 30.34,16.59 C30.24,16.48 30.13,16.37 30.05,16.26 C29.8264793,16.0285017 29.716674,15.7100662 29.75,15.39 L29.75,15.31 L29.81,15.25 C29.9003547,15.1528666 30.0091333,15.074682 30.13,15.02 C30.3552292,14.918303 30.6201607,14.9704864 30.79,15.15 C30.946748,15.3087956 31.0603381,15.5049967 31.12,15.72 C31.2209477,15.4926599 31.2786004,15.2484834 31.29,15 C31.2916093,14.6922328 31.1972308,14.3916197 31.02,14.14 C30.8434897,13.8966451 30.6387247,13.6750961 30.41,13.48 C30.2139043,13.320157 30.0361501,13.1390489 29.88,12.94 L29.88,12.88 L29.88,12.6 L29.99,12.46 C30.2110354,12.2967575 30.489504,12.2316609 30.76,12.28 C30.8632773,12.3016523 30.96162,12.3423458 31.05,12.4 C31.014124,12.0791586 30.9119641,11.7692739 30.75,11.49 C30.5415979,11.1540272 30.2181884,10.9052506 29.84,10.79 L29.53,10.69 L29.71,10.42 L29.78,10.32 L30.01,10.04 L30.32,9.65 C30.6490964,9.25045101 30.86647,8.77084891 30.95,8.26 C30.4837213,8.53558082 29.960137,8.69984258 29.42,8.74 L28.94,8.81 L29.17,8.38 C29.2681886,8.20577827 29.3550356,8.02540371 29.43,7.84 L29.5,7.66 C28.9880858,7.96986081 28.4315897,8.19920468 27.85,8.34 L27.43,8.45 L26.94,8.59 L26.68,8.69 L26.58,8.82 L26.39,8.82 C25.9592155,8.72120798 25.5211007,8.6576646 25.08,8.63 C24.5253719,8.58181319 23.9667922,8.64993268 23.44,8.83 C23.2992076,8.87917647 23.1723063,8.96149081 23.07,9.07 C23.019147,9.12322374 22.9968422,9.19757301 23.01,9.27 C23.01,9.27 23.01,9.39 23.22,9.53 L24.42,10.53 L22.96,9.93 C22.1360333,9.56733072 21.2498449,9.36700462 20.35,9.34 C20.0884852,9.34116706 19.8275439,9.36458487 19.57,9.41 C19.2629579,9.46135714 18.963823,9.55210592 18.68,9.68 L18.83,9.68 C18.9729587,9.73696803 19.110232,9.80727873 19.24,9.89 C19.3138855,9.9380312 19.3840807,9.99151326 19.45,10.05 L19.65,10.15 L19.89,10.25 L19.78,10.48 C19.5749467,11.0010586 19.4895118,11.5615113 19.53,12.12 L19.53,12.32 L19.33,12.32 L19.21,12.32 C18.9240849,12.3493563 18.6359151,12.3493563 18.35,12.32 C17.8342449,12.2908729 17.3302092,12.154647 16.87,11.92 L16.56,11.76 L16.76,11.94 C17.1617204,12.3199355 17.6722229,12.564697 18.22,12.64 C18.6847086,12.6840134 19.1534094,12.6570378 19.61,12.56 L20.08,12.48 L20.48,12.41 C20.7397013,12.3923756 21.0002987,12.3923756 21.26,12.41 C21.6903132,12.4078107 22.1162498,12.4964055 22.51,12.67 L22.87,12.84 L22.56,13.09 C22.4425414,13.1824306 22.3058571,13.2473556 22.16,13.28 C21.8661881,13.338204 21.5638119,13.338204 21.27,13.28 C21.0025345,13.2293978 20.7433925,13.1418953 20.5,13.02 L20.38,12.94 L20.12,12.74 L20.12,12.81 C20.1054846,13.2977982 19.9641806,13.7734067 19.71,14.19 C19.5992686,14.3765731 19.4648146,14.548002 19.31,14.7 C19.7,14.7 20.08,14.7 20.47,14.7 C20.5360133,14.6868 20.6039867,14.6868 20.67,14.7 L20.9,14.75 L20.82,15.08 C21.1197343,15.0349057 21.4062346,14.9257627 21.66,14.76 L22.16,14.4 L22.05,15.01 L22.05,15.11 C22.4444582,14.933375 22.801012,14.6820895 23.1,14.37 L23.19,14.28 L23.32,14.28 C23.6104303,14.3173601 23.8771775,14.4596253 24.07,14.68 L24.15,14.78 L24.23,14.86 L24.4,14.92 L24.4,15.11 L24.58,15.22 L24.45,15.4 C24.22,15.82 24.23,16.01 24.24,16.05 C24.2322188,16.076099 24.2322188,16.103901 24.24,16.13 L24.45,16.34 L24.21,16.51 C23.9946255,16.6541628 23.80809,16.8373067 23.66,17.05 C23.6488801,17.0892272 23.6488801,17.1307728 23.66,17.17 L23.89,17.51 L23.46,17.51 C23.2368378,17.6365219 23.0506707,17.8192414 22.92,18.04 C22.8752729,18.1084516 22.8509903,18.1882372 22.85,18.27 L23.02,18.51 L22.77,18.65 C22.4512507,18.8484508 22.1948033,19.1326223 22.03,19.47 C21.9659394,19.5756127 21.9314043,19.6964855 21.93,19.82 L22.16,19.98 L21.83,20.29 C21.5444719,20.4807878 21.3438053,20.7746211 21.27,21.11 C21.2432584,21.2352553 21.2432584,21.3647447 21.27,21.49 L21.43,21.69 L21.19,21.9 C21.13237,21.9532073 21.0819428,22.01372 21.04,22.08 C20.859674,22.3442111 20.7717781,22.6606367 20.79,22.98 C20.7881673,23.0970907 20.8120631,23.213156 20.86,23.32 L21.05,23.48 L20.87,23.75 C20.7256551,24.0089423 20.6596467,24.3042428 20.68,24.6 C20.6770184,24.7204203 20.7009322,24.8399896 20.75,24.95 C20.75,24.95 20.75,24.95 20.75,24.95 L21.19,24.95 L21.01,25.35 L20.89,25.59 C20.8331775,25.740215 20.6990244,25.8475374 20.54,25.87 C20.34,25.87 20.21,25.71 20.16,25.64 L19.84,25.01 C19.1926572,23.8109338 18.746718,22.513656 18.52,21.17 C18.4514854,21.0111862 18.3605608,20.8630128 18.25,20.73 C17.6680801,19.9937616 17.2888625,19.1181136 17.15,18.19 C17.1411513,17.9999604 17.1682941,17.8099603 17.23,17.63 C17.36,17.12 17.36,16.94 17.07,16.84 L16.95,16.84 L16.88,16.71 C16.7222248,16.3683762 16.3860278,16.1442449 16.01,16.13 C15.8834561,16.1308464 15.7581074,16.154561 15.64,16.2 L15.81,16.3 C15.9643217,16.4037861 16.0606758,16.5742588 16.07,16.76 L16.07,16.86 C15.9806678,17.0963266 15.9632707,17.3538044 16.02,17.6 C16.02,17.74 16.02,17.89 15.94,18.01 L15.83,18.1 L15.49,18.01 L15.49,17.83 C15.4952756,17.6536395 15.4263538,17.4831486 15.3,17.36 C15.2044414,17.2788525 15.0915489,17.2206958 14.97,17.19 L14,17 C13.74,17 13.35,17.05 13.21,17.28 C13.1628453,17.3584296 13.1385964,17.4484971 13.14,17.54 C13.3753522,17.4189721 13.6546478,17.4189721 13.89,17.54 L14,17.54 L14,17.65 C14.18,18.34 14.51,18.35 14.52,18.35 L14.77,18.35 L14.77,18.42 C15.2394165,18.5350226 15.5821043,18.9381848 15.62,19.42 L15.62,19.79 L15.27,19.66 C15.0548126,19.5949227 14.8251874,19.5949227 14.61,19.66 L14.48,19.66 L14.39,19.56 C14.1896682,19.4124152 13.9561681,19.3162681 13.71,19.28 C13.5197795,19.2925882 13.3396903,19.3702737 13.2,19.5 L13.11,19.63 L12.94,19.63 C12.7314382,19.6891153 12.5830367,19.8736145 12.57,20.09 C12.5580128,20.1661981 12.5580128,20.2438019 12.57,20.32 C12.7240613,20.1756803 12.9521627,20.1436661 13.14,20.24 L13.22,20.3 C13.47,20.57 13.78,20.79 14.65,20.3 L14.77,20.23 L14.89,20.3 C14.89,20.3 15.2,20.44 15.5,20.55 L15.67,20.61 L15.67,20.79 C15.791433,21.2854959 16.0051632,21.7536667 16.3,22.17 L16.35,22.26 L16.35,22.41 C16.2718457,22.7583515 16.1474071,23.0946721 15.98,23.41 L15.87,23.51 C15.5239962,23.8430091 15.3697453,24.3283351 15.46,24.8 L15.46,24.88 L15.46,24.95 C15.3869946,25.1546971 15.2192397,25.3112683 15.01,25.37 C15.0509913,25.4250107 15.0979436,25.4753168 15.15,25.52 C15.377962,25.6916687 15.692038,25.6916687 15.92,25.52 L16.17,25.24 L16.29,25.24 C16.46,25.24 16.74,24.93 16.84,24.62 L17.16,23.62 L17.33,24.62 C17.7385248,27.0322279 18.4473676,29.3838388 19.44,31.62 L19.44,31.71 L19.44,31.81 C19.3083937,32.3369501 18.8969501,32.7483937 18.37,32.88 L18.21,32.88 C18.4382688,33.0372813 18.7136208,33.1114145 18.99,33.09 C19.7258927,33.1834483 20.4336845,32.7743201 20.72,32.09 L20.72,31.95 L20.86,31.95 C21.4801353,31.7916272 22.0709363,31.5350508 22.61,31.19 C22.8096109,31.05416 23.0288074,30.9496201 23.26,30.88 L23.38,30.88 L23.47,30.96 L23.57,31.06 L23.63,31.13 C23.7935687,31.2813357 23.9932928,31.3880848 24.21,31.44 C24.2524317,31.4525012 24.2975683,31.4525012 24.34,31.44 L24.56,31.33 L24.67,31.56 C24.7304401,31.6800187 24.8197902,31.783115 24.93,31.86 L25.06,31.95 L25.06,32.1 C25.06,32.19 25.06,32.29 25.06,32.41 C24.9918669,33.0857059 24.868114,33.7546406 24.69,34.41 C24.3203652,35.7970839 23.6359825,37.0803016 22.69,38.16 L22.6,38.22 C22.1557812,38.3775906 21.6603912,38.2557089 21.34,37.91 C20.9790221,37.6094843 20.6830099,37.2386185 20.47,36.82 C20.4132524,36.5891133 20.2998315,36.3760194 20.14,36.2 C20.0629416,36.1337634 19.9698339,36.0889338 19.87,36.07 L19.62,36.07 L19.43,36.07 L19.29,36.01 C19.1640179,35.8860755 18.9692343,35.8653539 18.82,35.96 C18.6644843,36.059833 18.5452636,36.2071057 18.48,36.38 C18.680096,36.3854566 18.8656913,36.485678 18.98,36.65 L19.04,36.73 L19.04,36.83 C19.0110792,37.0108242 19.0663188,37.1949564 19.19,37.33 L19.5,37.7 L19.02,37.7 C18.7827419,37.713487 18.5633752,37.8304826 18.42,38.02 L18.36,38.09 L18.26,38.09 C17.9567394,38.0922152 17.6953113,38.3038475 17.63,38.6 C17.6255268,38.6499 17.6255268,38.7001 17.63,38.75 C17.7411985,38.6834172 17.8712275,38.6553029 18,38.67 Z M51.83,19.93 C51.6125177,19.9326684 51.4028846,19.8488246 51.2472259,19.6969167 C51.0915671,19.5450088 51.0026361,19.3374827 51,19.12 C50.9507065,18.7455462 51.1431218,18.3807588 51.48,18.21 C51.6347621,18.1434636 51.8015421,18.1094268 51.97,18.11 C52.1546594,18.1180836 52.3368929,18.1552053 52.51,18.22 C52.6499568,18.276585 52.7839477,18.3469303 52.91,18.43 L53.15,18.58 L52.97,18.8 C52.65,19.81 52.05,19.93 51.79,19.93 L51.83,19.93 Z M14.89,9.22 C15.0626675,10.4880566 15.5855932,11.6828206 16.4,12.67 C16.4213704,12.4672282 16.4213704,12.2627718 16.4,12.06 L16.28,11.47 L15.52,11.07 L17.17,11.36 L17.27,11.36 C17.3961745,11.375791 17.5238255,11.375791 17.65,11.36 C16.5982331,10.8212667 15.6529268,10.096193 14.86,9.22 L14.89,9.22 Z" id="Shape" fill="#EC5565"></path>
            </g>
        </g>
    </g>
</svg>