<?xml version="1.0" encoding="UTF-8"?>
<svg width="71px" height="48px" viewBox="0 0 71 48" version="1.1" xmlns="http://www.w3.org/2000/svg" xmlns:xlink="http://www.w3.org/1999/xlink">
    <!-- Generator: Sketch 48.1 (47250) - http://www.bohemiancoding.com/sketch -->
    <title>World@2x</title>
    <desc>Created with Sketch.</desc>
    <defs></defs>
    <g id="Flags" stroke="none" stroke-width="1" fill="none" fill-rule="evenodd" transform="translate(-70.000000, -1418.000000)">
        <g transform="translate(70.000000, 70.000000)" fill-rule="nonzero" id="World">
            <g transform="translate(0.000000, 1348.000000)">
                <path d="M63.92,0.3 L6.65,0.3 C3.13746899,0.3 0.29,3.14746899 0.29,6.66 L0.29,40.93 C0.29,44.442531 3.13746899,47.29 6.65,47.29 L63.92,47.29 C67.432531,47.29 70.28,44.442531 70.28,40.93 L70.28,6.66 C70.28,3.14746899 67.432531,0.3 63.92,0.3 Z" id="Shape" fill="#4A88DC"></path>
                <g id="mir" transform="translate(4.000000, 4.000000)" fill="#FFFFFF">
                    <path d="M28,16.36 C28.1906321,16.2935742 28.4024535,16.3535237 28.53,16.51 C28.61,16.65 28.8,16.65 28.96,16.64 C29.28,16.64 29.69,16.52 29.73,16.2 C29.77,15.88 29.54,15.75 29.39,15.54 C29.1077075,15.1603644 29.0362381,14.6638404 29.2,14.22 C29.2308253,14.1533936 29.2308253,14.0766064 29.2,14.01 C29.2,13.93 29.03,13.94 28.93,14.01 L28.55,14.12 C28.4103523,14.1415141 28.2846996,14.2169057 28.2,14.33 C28.06,14.58 28.36,14.89 28.28,15.16 C28.2,15.43 28.01,15.44 27.86,15.58 C27.6997049,15.7452207 27.6162408,15.9702108 27.63,16.2 C27.66,16.43 27.86,16.43 28,16.36 Z" id="Shape"></path>
                    <path d="M17.48,24.82 C18.015296,24.8883184 18.5245117,25.0913166 18.96,25.41 C19.1506394,25.5705437 19.3547237,25.7144064 19.57,25.84 C19.9,26 20.3,26.03 20.57,26.28 C20.84,26.53 20.83,26.66 21,26.81 C21.2667788,26.9893385 21.5787055,27.0898482 21.9,27.1 C22.2584939,27.1331423 22.602642,27.2570357 22.9,27.46 C23.1896109,27.6643628 23.349399,28.0067659 23.32,28.36 C23.25,28.83 22.79,29.14 22.6,29.57 C22.5060189,29.8700855 22.4390852,30.1779806 22.4,30.49 C22.3572692,30.8077261 22.1353802,31.0724358 21.83,31.17 C21.72,31.17 21.6,31.17 21.49,31.17 C21.14,31.25 21.01,31.67 20.92,32.02 C20.8283479,32.6068135 20.4546369,33.1113234 19.92,33.37 C19.8169711,33.3854525 19.7219962,33.4346987 19.65,33.51 C19.56,33.64 19.65,33.83 19.65,33.98 C19.65,34.13 19.43,34.16 19.3,34.21 C18.6602242,34.5428208 18.1679996,35.1028154 17.92,35.78 C17.8921717,35.8437626 17.8921717,35.9162374 17.92,35.98 C17.92,36.06 18.07,36.09 18.11,36.17 C18.1309767,36.2502531 18.1124016,36.3356987 18.06,36.4 L17.62,37.15 C17.494684,37.4478564 17.5998254,37.79272 17.87,37.97 C18.0662143,38.066886 18.2322001,38.2155817 18.35,38.4 C18.0901185,38.576472 17.7689346,38.6378851 17.4622801,38.5697397 C17.1556256,38.5015942 16.890681,38.3099303 16.73,38.04 C16.4333594,37.4721512 16.379249,36.808397 16.58,36.2 C16.6460965,35.9805774 16.6962274,35.7566593 16.73,35.53 C16.7494449,35.2470003 16.7494449,34.9629997 16.73,34.68 C16.73,33.41 17.31,32.22 17.48,30.96 C17.5715922,30.589826 17.4947106,30.1980959 17.27,29.89 C17.0685178,29.7345689 16.8581623,29.5909929 16.64,29.46 C16.3,29.17 16.2,28.69 15.95,28.32 C15.7,27.95 15.36,27.74 15.37,27.32 C15.4940282,26.7333427 15.4699706,26.1250302 15.3,25.55 C15.041626,25.0028793 14.5991783,24.5639712 14.05,24.31 C13.9079839,24.3083831 13.7667882,24.2882123 13.63,24.25 C13.5072354,24.1764162 13.3931786,24.0891962 13.29,23.99 C12.82,23.65 12.09,23.99 11.64,23.6 C11.38,23.39 10.27,22.6 10.15,22.41 L8.6,20.41 C8.38444397,20.1503746 8.19674803,19.8688307 8.04,19.57 C7.78610814,19.0439753 7.72933658,18.4443258 7.88,17.88 C7.96086764,17.6766638 7.99833566,17.458668 7.99,17.24 C7.93,16.87 7.55,16.64 7.36,16.32 C7.26655283,16.0644492 7.14585699,15.8197049 7,15.59 C6.78750353,15.4231221 6.55165454,15.2883513 6.3,15.19 C6.10954405,15.0725148 5.94324019,14.9197868 5.81,14.74 C5.66,14.55 5.46,14.21 5.35,14.05 C5.24718057,13.8961302 5.12254467,13.7580202 4.98,13.64 C4.69403984,13.368047 4.27488586,13.2897005 3.91,13.44 C3.73562859,13.5395367 3.57437925,13.6604737 3.43,13.8 C2.97236302,14.1832272 2.36378684,14.3344491 1.78,14.21 C1.19518825,14.0689507 0.746047337,13.6002819 0.63,13.01 C0.619583781,12.5370649 0.659812867,12.0643731 0.75,11.6 C0.77030874,11.2366777 0.705237558,10.873649 0.56,10.54 C0.468749107,10.3977807 0.436468242,10.2256161 0.47,10.06 C0.508324132,9.97695375 0.566753759,9.90477597 0.64,9.85 C1.01543193,9.49902552 1.45749766,9.22698507 1.94,9.05 C2.29372489,8.9318295 2.67627511,8.9318295 3.03,9.05 L4.18,9.5 L4.83,9.69 C5.2876222,9.88055562 5.8023778,9.88055562 6.26,9.69 C6.58,9.51 6.9,9.11 7.26,9.28 C7.62,9.45 7.59,9.71 7.83,9.69 C8.07,9.67 8.04,9.58 8.16,9.54 C8.28,9.5 8.63,9.65 8.83,9.79 C9.03,9.93 9.35,10.04 9.5,9.84 C9.55783556,9.7164326 9.55783556,9.5735674 9.5,9.45 C9.5,9.45 9.22,9.25 9.23,9.14 C9.23,8.87 9.36,8.6 9.14,8.44 C8.90180819,8.30665785 8.63296573,8.23772389 8.36,8.24 C8.08582719,8.24431487 7.82191078,8.13585607 7.63,7.94 C7.46804323,7.66233334 7.44943915,7.32373906 7.58,7.03 C7.85484881,6.06329379 8.35523014,5.17563102 9.04,4.44 C9.39,4.07 10.04,3.74 10.36,4.11 C10.52,4.28 10.54,4.53 10.66,4.73 C10.937152,5.10718968 11.4226423,5.26768235 11.87,5.13 C12.2240402,5.03581124 12.5613672,4.88738734 12.87,4.69 C14.13,3.85 16.08,1.25 18.34,1.02 C18.4463307,1.00802768 18.5536693,1.00802768 18.66,1.02 L18.92,1.02 C19.2794886,1.04215689 19.6351965,1.10591585 19.98,1.21 C21.85,1.77 22.98,0.65 24.66,0.84 C26.08,1 26.66,1.42 26.75,2.44 C26.75,2.63 26.67,3.77 26.65,4.06 C26.63,4.35 26.59,4.87 26.58,4.94 C26.57,5.01 26.49,5.28 26.47,5.45 C26.47,5.84 26.65,6.24 26.55,6.62 C26.45,7 26.18,7.14 26.03,7.43 C25.7,8.06 26.08,8.9 25.72,9.51 C25.36,10.12 24.35,10.19 23.89,10.79 C23.7802007,10.9924042 23.6458529,11.1804912 23.49,11.35 C23.36,11.45 23.2,11.5 23.06,11.59 C22.54,11.95 22.65,12.77 22.35,13.31 C22.3,13.41 22.14,13.65 21.89,13.47 C20.9070013,12.8587518 20.3416074,11.7548876 20.42,10.6 C20.4578262,10.4285683 20.4845484,10.2548739 20.5,10.08 C20.4970025,9.91833042 20.4768904,9.75743297 20.44,9.6 C20.3,8.86 20.1466667,8.12 19.98,7.38 C19.9132659,6.95353392 19.7601369,6.54519002 19.53,6.18 C19.2881802,5.81303666 18.8540905,5.62141149 18.42,5.69 C18.2958045,5.73471968 18.1688794,5.77146114 18.04,5.8 C17.8732853,5.81950341 17.7069809,5.76037292 17.59,5.64 C17.4262848,5.40266763 17.3454401,5.11795372 17.36,4.83 C17.21,3.83 16.36,3.83 16.36,4.45 C16.36,5.23 15.84,5.61 15.82,6.22 C15.8141408,6.28653793 15.8141408,6.35346207 15.82,6.42 C15.8461421,6.58781526 15.9002245,6.75006256 15.98,6.9 C16.2841637,7.35309666 16.6550123,7.75765867 17.08,8.1 C17.8492324,8.79501725 18.4071949,9.69260901 18.69,10.69 C18.8506143,11.3033799 18.8846389,11.9430428 18.79,12.57 C18.7290946,13.0313318 18.7290946,13.4986682 18.79,13.96 C18.8528392,14.2015041 18.9399494,14.4360315 19.05,14.66 C19.2134289,14.9038054 19.4285171,15.1086513 19.68,15.26 C19.9359978,15.4104903 20.1118706,15.6669714 20.16,15.96 C20.16,16.14 20.1,16.32 20.16,16.49 C20.2092181,16.5715303 20.2698303,16.6456119 20.34,16.71 C20.61,17.02 20.69,17.29 20.58,17.54 C20.4877418,17.7122409 20.3285787,17.8388479 20.14,17.89 C19.95,17.96 19.76,18 19.57,18.07 C19.2117967,18.2734219 18.876532,18.5148125 18.57,18.79 L17.89,19.27 C17.4534241,19.6033101 17.0633101,19.9934241 16.73,20.43 C16.5747531,20.7090123 16.4045036,20.9794086 16.22,21.24 C15.8922491,21.7611995 15.2901038,22.042722 14.68,21.96 C14.39,21.88 14.16,21.68 13.88,21.58 C13.6,21.48 13.22,21.52 13.11,21.79 C13,22.06 13.28,22.41 13.59,22.51 C13.9084774,22.5692939 14.2177888,22.6701563 14.51,22.81 C14.9,23.08 14.97,23.63 15.22,24.04 C15.5212931,24.5049202 16.0465608,24.7751666 16.6,24.75 L17.48,24.82 Z" id="Shape"></path>
                    <path d="M50.32,23.87 C50.32,23.78 50.48,23.59 50.57,23.59 C50.66,23.59 50.78,23.77 50.84,23.9 C50.990074,24.1723361 51.1786869,24.4215745 51.4,24.64 C51.6241022,24.8656864 51.701521,25.1985873 51.6,25.5 C51.48,25.75 51.17,25.87 51.08,26.13 C51.038812,26.3704766 51.1004923,26.6171974 51.25,26.81 C51.34,26.96 51.87,27.81 51.93,27.87 C51.9951624,28.0062991 51.9625727,28.1692479 51.85,28.27 C51.7350422,28.3663942 51.5973493,28.4317984 51.45,28.46 C50.2427301,28.8079204 48.9482534,28.6827638 47.83,28.11 C47.2656604,27.8283049 46.9741678,27.1911855 47.13,26.58 C47.0977516,26.2639074 47.020295,25.9540809 46.9,25.66 C46.7432077,25.31599 46.6484179,24.9469869 46.62,24.57 C46.6201217,24.4522978 46.5275806,24.35535 46.41,24.35 C46.13,24.35 45.84,24.05 45.73,23.75 L45.65,23.52 C45.5848307,23.3368691 45.4336413,23.197588 45.2457905,23.1476277 C45.0579397,23.0976674 44.8575341,23.1434392 44.71,23.27 C44.49,23.46 44.24,23.63 44.02,23.82 C43.6368978,24.1623646 43.3652073,24.6116989 43.24,25.11 C43.207069,25.2317152 43.1036965,25.321357 42.9785454,25.3367264 C42.8533942,25.3520959 42.7314033,25.2901303 42.67,25.18 C42.4058375,24.6403081 42.239913,24.0578793 42.18,23.46 C42.1750359,23.4200626 42.1542317,23.3837951 42.122263,23.3593484 C42.0902943,23.3349017 42.0498428,23.3243267 42.01,23.33 C41.8043007,23.3177882 41.6175748,23.2057527 41.51,23.03 C41.4007245,22.7986735 41.2556038,22.5860548 41.08,22.4 C40.9025889,22.2877414 40.69958,22.2223657 40.49,22.21 C39.7,22.09 40.07,22.82 39.76,23.33 C39.6773919,23.45797 39.5836982,23.5784333 39.48,23.69 C39.38,23.8 38.98,24.26 38.9,24.37 C38.7143978,24.6434097 38.5569295,24.9348935 38.43,25.24 C38.26,26.12 36.75,26.85 36.48,27.73 C36.21,28.61 36.86,29.12 36.59,29.73 C36.43,30.06 36.04,30.28 35.91,30.55 C35.8120148,30.7738932 35.6878135,30.985371 35.54,31.18 L33.85,33.24 C33.6852772,33.4531118 33.4292946,33.5755383 33.16,33.57 C32.78,33.57 32.67,33.25 32.58,32.98 L31.87,30.79 C31.6650783,30.3148189 31.5958498,29.7921442 31.67,29.28 C31.7820082,29.0092866 31.849545,28.7222553 31.87,28.43 C31.87,27.92 31.24,27.58 31.19,27.07 C31.204085,26.8168624 31.204085,26.5631376 31.19,26.31 C31.0579632,25.9346932 30.6857316,25.6989465 30.29,25.74 C29.9096459,25.7884513 29.5323661,25.8585652 29.16,25.95 C28.1963545,26.0443385 27.2675433,25.5622973 26.79,24.72 C26.4262545,24.0329419 26.3611608,23.2265044 26.61,22.49 C26.6130479,22.3092692 26.6804117,22.1355417 26.8,22 C27.89,20.65 27.89,19.9 27.8,19.56 C27.745898,19.487864 27.7052476,19.4065631 27.68,19.32 C27.6444577,19.0861861 27.714191,18.8486282 27.8704729,18.6711229 C28.0267548,18.4936175 28.2535674,18.3943578 28.49,18.4 C28.66,18.4 28.84,18.47 28.98,18.4 C29.12,18.33 29.12,17.98 28.92,17.76 C28.8691988,17.6980691 28.8497796,17.6161791 28.8673628,17.5380316 C28.884946,17.4598841 28.9375686,17.3942036 29.01,17.36 C30.01,16.89 30.51,15.98 31.4,15.7 C31.56,15.65 31.77,15.7 31.92,15.7 C32.5,15.35 31.74,15.03 31.74,15.03 C31.74,15.03 31.74,15.03 31.68,15.03 C31.45,14.86 31.44,14.5 31.2,14.34 C30.96,14.18 30.53,14.34 30.38,13.9 C30.3045484,13.6669357 30.3414876,13.412055 30.48,13.21 L32.41,10.21 C32.5520981,9.98467052 32.7198892,9.77660957 32.91,9.59 C34.06,8.49 34.98,9.16 35.76,9.78 C36.0386281,9.96735552 36.2656036,10.2218432 36.42,10.52 C36.5698347,10.8313956 36.4622898,11.2056517 36.17,11.39 C35.9,11.52 35.5,11.39 35.35,11.67 C35.2,11.95 35.49,12.22 35.77,12.21 C36.0483026,12.1684376 36.3031488,12.0303959 36.49,11.82 L37.68,10.76 C38.0082145,10.4720431 38.4519848,10.3537044 38.88,10.44 C39.7288417,10.292755 40.5074599,9.87538752 41.1,9.25 C41.3,8.75 42.88,8.62 43.58,8.48 C43.39,8.11 43.69,7.69 43.99,7.4 C44.4641651,6.95583569 44.9996242,6.58202464 45.58,6.29 C46.1487377,6.09039695 46.6554666,5.74568344 47.05,5.29 C47.2,5.06 47.33,4.75 47.61,4.73 C47.7592994,4.7343066 47.9031705,4.78694234 48.02,4.88 C48.7,5.32 49.47,6.1 49.08,6.8 C48.92,7.09 48.57,7.3 48.57,7.64 C49.1232867,7.85441461 49.7367133,7.85441461 50.29,7.64 C50.86,7.52 51.61,7.56 51.85,8.09 C51.97,8.35 51.94,8.69 52.13,8.91 C52.32,9.13 52.98,9.06 53.33,8.78 C53.68,8.5 54.03,8.13 54.48,8.16 C55.11,8.16 55.48,9.02 56.05,9.16 C56.3078705,9.17046247 56.5633131,9.21415659 56.81,9.29 C57.11,9.45 57.2,9.87 57.49,10.04 C57.78,10.21 58.3,10.04 58.71,9.89 C59.87,9.56 61.02,10.39 61.94,11.17 C62.09,11.3 62.26,11.47 62.23,11.67 C62.13,12.24 61.1,11.54 60.68,11.94 C60.49,12.12 60.55,12.43 60.49,12.69 C60.3,13.58 59,13.57 58.34,14.19 C57.98,14.53 57.74,15.77 57.48,16.19 C57.3481201,16.4167134 57.1829453,16.6223391 56.99,16.8 C56.9040144,16.9021609 56.7727213,16.9546782 56.64,16.94 C56.49,16.94 56.44,16.71 56.42,16.56 C56.3615888,16.0036126 56.437018,15.4413225 56.64,14.92 C56.71,14.75 56.78,14.54 56.64,14.41 C56.5,14.28 56.31,14.33 56.15,14.41 C55.8533762,14.4999883 55.5485458,14.5602844 55.24,14.59 C55.040696,14.5989704 54.8429141,14.6291405 54.65,14.68 C54.455847,14.7322219 54.2947562,14.8676846 54.21,15.05 C54.1567302,15.2672785 54.1778562,15.4961443 54.27,15.7 C54.36424,16.2585282 54.4143947,16.8236048 54.42,17.39 C54.3595443,17.6688519 54.4021754,17.9601647 54.54,18.21 C54.68,18.39 54.96,18.57 54.85,18.77 C54.74,18.97 54.54,18.9 54.43,19.03 C54.373715,19.1122072 54.345641,19.210466 54.35,19.31 C54.3481561,19.593239 54.2974103,19.874032 54.2,20.14 C54.1009016,20.4111721 53.8894386,20.626281 53.62,20.73 C53.26,20.85 52.77,20.73 52.56,21.04 C52.4950759,21.1653237 52.451159,21.3004527 52.43,21.44 C52.38,21.68 52.3,21.84 52.19,21.69 C52.1575071,21.6743104 52.129864,21.6501226 52.11,21.62 L51.48,20.62 C51.2937186,20.4665717 51.1463735,20.2712536 51.05,20.05 C50.89,19.7 50.47,19.33 50.19,19.58 C49.91,19.83 50.19,20.21 50.32,20.51 C50.5964021,21.1036641 50.5511673,21.7972644 50.2,22.35 C49.9005164,22.7164749 49.5423225,23.0307394 49.14,23.28 C48.8939246,23.3964032 48.6858839,23.5801725 48.54,23.81 C48.4487027,24.1355474 48.4016138,24.4718969 48.4,24.81 C48.2913534,25.1796453 48.1473551,25.5379665 47.97,25.88 C47.8531658,26.0737497 47.8531658,26.3162503 47.97,26.51 C48.1172818,26.6348383 48.3224325,26.6658044 48.5,26.59 C48.68,26.53 48.84,26.41 49.01,26.34 C49.2859325,26.2572783 49.566396,26.1905013 49.85,26.14 C50.1384725,26.0859927 50.3711593,25.8726966 50.45,25.59 C50.4595022,25.426034 50.4321667,25.2620212 50.37,25.11 C50.2991129,24.8782321 50.2489164,24.640635 50.22,24.4 C50.2041623,24.2175089 50.2387539,24.0341734 50.32,23.87 Z" id="Shape"></path>
                    <path d="M53.29,29 C53.116095,28.8715904 52.885889,28.8485698 52.69,28.94 C52.5,29.03 52.36,29.21 52.17,29.3 C52.0093721,29.3529545 51.8457531,29.3963636 51.68,29.43 C51.2998682,29.6153577 50.9882781,29.9164448 50.79,30.29 C50.5849454,30.663864 50.2130665,30.9167417 49.79,30.97 C49.6942539,30.9511331 49.5957461,30.9511331 49.5,30.97 C49.32,31.04 49.29,31.28 49.29,31.47 C49.3045187,32.0631258 49.3816125,32.6530616 49.52,33.23 C49.5401571,33.3512626 49.5918918,33.4650788 49.67,33.56 C49.89,33.79 50.28,33.65 50.56,33.49 C51.0752994,33.1220939 51.7270642,33.0012611 52.34,33.16 C52.84,33.37 53.12,33.91 53.58,34.16 C54.04,34.41 54.35,34.49 54.48,34.85 C54.55,35.04 54.58,35.33 54.79,35.32 C55,35.31 54.99,35.18 55.04,35.07 L56.04,32.79 C56.1329995,32.6092225 56.1906954,32.4123778 56.21,32.21 C56.1979633,31.9752027 56.1330116,31.7461627 56.02,31.54 C55.66,30.7466667 55.27,29.97 54.85,29.21 C54.76,29.06 54.63,28.88 54.46,28.9 C54.29,28.92 54.19,29.14 54.2,29.32 C54.2304016,29.4987163 54.2304016,29.6812837 54.2,29.86 C54.1546666,30.0828278 53.9436818,30.2318395 53.718522,30.2000522 C53.4933622,30.168265 53.331875,29.966669 53.35,29.74 C53.33,29.75 53.6,29.24 53.29,29 Z" id="Shape"></path>
                </g>
            </g>
        </g>
    </g>
</svg>