<?xml version="1.0" encoding="UTF-8"?>
<svg width="71px" height="47px" viewBox="0 0 71 47" version="1.1" xmlns="http://www.w3.org/2000/svg" xmlns:xlink="http://www.w3.org/1999/xlink">
    <!-- Generator: Sketch 48.1 (47250) - http://www.bohemiancoding.com/sketch -->
    <title>Zimbabwe@2x</title>
    <desc>Created with Sketch.</desc>
    <defs></defs>
    <g id="Flags" stroke="none" stroke-width="1" fill="none" fill-rule="evenodd" transform="translate(-154.000000, -70.000000)">
        <g transform="translate(70.000000, 70.000000)" fill-rule="nonzero" id="Zimbabwe">
            <g transform="translate(84.000000, 0.000000)">
                <path d="M1.46,43.24 C1.39,43.09 1.33,42.93 1.27,42.77 C1.33,42.93 1.4,43.08 1.46,43.24 Z" id="Shape" fill="#52C162"></path>
                <path d="M1.22,42.62 C1.22,42.47 1.13,42.31 1.09,42.16 C1.13,42.31 1.17,42.47 1.22,42.62 Z" id="Shape" fill="#52C162"></path>
                <path d="M1,42 C1,41.84 0.94,41.68 0.92,41.52 C1,41.66 1,41.82 1,42 Z" id="Shape" fill="#52C162"></path>
                <path d="M0.94,41.31 C0.927930941,41.083494 0.927930941,40.856506 0.94,40.63 C0.928006126,40.856508 0.928006126,41.083492 0.94,41.31 Z" id="Shape" fill="#52C162"></path>
                <path d="M2.56,44.91 C2.42,44.76 2.29,44.6 2.17,44.43 C2.29,44.5966667 2.42,44.7566667 2.56,44.91 Z" id="Shape" fill="#52C162"></path>
                <path d="M1.77,43.83 C1.68,43.68 1.6,43.52 1.52,43.35 C1.6,43.51 1.68,43.67 1.77,43.83 Z" id="Shape" fill="#52C162"></path>
                <path d="M70.9,40.64 L70.9,40.27 L9.07,40.27 L3.07,45.38 C2.91,45.2333333 2.75666667,45.0833333 2.61,44.93 C3.80517685,46.2417693 5.49542077,46.9925858 7.27,47 L64.54,47 C68.052531,47 70.9,44.152531 70.9,40.64 Z" id="Shape" fill="#52C162"></path>
                <path d="M2.14,44.39 C2.03,44.24 1.92,44.07 1.82,43.91 C1.94,44.0766667 2.04666667,44.2366667 2.14,44.39 Z" id="Shape" fill="#52C162"></path>
                <polygon id="Shape" fill="#F6BB42" points="9.07 40.27 70.9 40.27 70.9 33.53 17.03 33.53"></polygon>
                <polygon id="Shape" fill="#ED5565" points="17.03 33.53 70.9 33.53 70.9 26.8 25 26.8"></polygon>
                <polygon id="Shape" fill="#434A54" points="28.9 23.5 25 26.8 70.9 26.8 70.9 20.07 24.85 20.07"></polygon>
                <polygon id="Shape" fill="#ED5565" points="24.85 20.07 70.9 20.07 70.9 13.34 16.89 13.34"></polygon>
                <polygon id="Shape" fill="#F6BB42" points="16.89 13.34 70.9 13.34 70.9 6.61 8.92 6.61"></polygon>
                <path d="M1.28,4.23 C1.34,4.07 1.4,3.91 1.47,3.76 C1.4,3.92 1.33,4.07 1.28,4.23 Z" id="Shape" fill="#52C162"></path>
                <path d="M1.09,4.84 C1.09,4.68 1.17,4.53 1.22,4.38 C1.17,4.53 1.13,4.69 1.09,4.84 Z" id="Shape" fill="#52C162"></path>
                <path d="M0.9,6.36 C0.887930941,6.13349399 0.887930941,5.90650601 0.9,5.68 C0.888006126,5.90650801 0.888006126,6.13349199 0.9,6.36 Z" id="Shape" fill="#52C162"></path>
                <path d="M1,5.51 C1,5.35 1,5.19 1.08,5.03 C1,5.18 1,5.34 1,5.51 Z" id="Shape" fill="#52C162"></path>
                <path d="M1.82,3.09 C1.92,2.93 2.03,2.76 2.14,2.61 C2.04666667,2.76333333 1.94,2.92333333 1.82,3.09 Z" id="Shape" fill="#52C162"></path>
                <path d="M1.52,3.65 C1.6,3.49 1.68,3.33 1.77,3.17 C1.68,3.33 1.6,3.48 1.52,3.65 Z" id="Shape" fill="#52C162"></path>
                <path d="M8.92,6.61 L70.92,6.61 L70.92,6.36 C70.9200084,4.66975218 70.2471941,3.04902296 69.0501336,1.85571501 C67.8530731,0.662407054 66.2302395,-0.00531524474 64.54,-9.28144822e-16 L7.27,-9.28144822e-16 C5.4799479,-0.00126172788 3.77277934,0.754251166 2.57,2.08 C2.71666667,1.92 2.87,1.77 3.03,1.63 L8.92,6.61 Z" id="Shape" fill="#52C162"></path>
                <path d="M2.17,2.57 C2.29,2.41 2.42,2.25 2.56,2.09 C2.42,2.24333333 2.29,2.40333333 2.17,2.57 Z" id="Shape" fill="#52C162"></path>
                <path d="M9.07,40.27 L0.9,40.27 L0.9,40.64 C0.887930941,40.866506 0.887930941,41.093494 0.9,41.32 C0.9,41.38 0.9,41.44 0.9,41.5 C0.9,41.56 0.9,41.82 0.98,41.98 C1.06,42.14 0.98,42.1 0.98,42.16 C0.98,42.22 1.06,42.47 1.11,42.62 L1.17,42.77 C1.23,42.93 1.29,43.09 1.36,43.24 L1.41,43.35 C1.49,43.51 1.57,43.67 1.66,43.83 L1.66,43.91 C1.76,44.07 1.87,44.24 1.98,44.39 C2.1,44.55 2.23,44.71 2.37,44.87 C2.51666667,45.03 2.67,45.18 2.83,45.32 L9.07,40.27 Z" id="Shape" fill="#FFFFFF"></path>
                <polygon id="Shape" fill="#FFFFFF" points="17.03 33.53 0.9 33.53 0.9 40.27 9.07 40.27"></polygon>
                <polygon id="Shape" fill="#FFFFFF" points="25 26.8 0.9 26.8 0.9 33.53 17.03 33.53"></polygon>
                <polygon id="Shape" fill="#FFFFFF" points="28.9 23.5 24.85 20.07 0.9 20.07 0.9 26.8 25 26.8"></polygon>
                <polygon id="Shape" fill="#FFFFFF" points="16.89 13.34 0.9 13.34 0.9 20.07 24.85 20.07"></polygon>
                <polygon id="Shape" fill="#FFFFFF" points="8.92 6.61 0.9 6.61 0.9 13.34 16.89 13.34"></polygon>
                <path d="M3,1.62 C2.84,1.76666667 2.68666667,1.91666667 2.54,2.07 C2.4,2.22 2.27,2.38 2.15,2.55 C2.04,2.7 1.93,2.87 1.83,3.03 L1.83,3.11 C1.74,3.26 1.66,3.42 1.58,3.59 L1.52,3.7 C1.45,3.85 1.39,4.01 1.33,4.17 L1.27,4.32 C1.27,4.47 1.18,4.63 1.14,4.78 C1.1,4.93 1.14,4.9 1.14,4.96 C1.14,5.02 1.08,5.28 1.06,5.44 C1.04,5.6 1.06,5.56 1.06,5.62 C1.04793094,5.84650601 1.04793094,6.07349399 1.06,6.3 L1.06,6.54 L9.06,6.54 L3,1.62 Z" id="Shape" fill="#FFFFFF"></path>
                <path d="M8.73,26.16 C8.60537946,25.5148919 8.65720215,24.8481066 8.88,24.23 L9.71,21.94 C9.90512289,21.3711296 9.82242211,20.7436978 9.48656048,20.2448156 C9.15069884,19.7459334 8.60048418,19.4332452 8,19.4 L8.69,18.57 C8.98774082,18.2124067 9.45071597,18.0364215 9.91081243,18.1059472 C10.3709089,18.1754729 10.7612131,18.4803981 10.94,18.91 L11.52,20.32 L16.16,23.6 C16.2486749,23.6631865 16.288585,23.7749349 16.26,23.88 L15.26,27.98 C15.2324603,28.0961525 15.1293648,28.1786289 15.01,28.18 L9.33,28.18 C9.20386233,28.1823505 9.09423956,28.093809 9.07,27.97 L8.73,26.16 Z" id="Shape" fill="#F6BB42"></path>
            </g>
        </g>
    </g>
</svg>