<?xml version="1.0" encoding="utf-8"?>
<!-- Generator: Adobe Illustrator 26.5.0, SVG Export Plug-In . SVG Version: 6.00 Build 0)  -->
<svg version="1.1" id="Слой_1" xmlns="http://www.w3.org/2000/svg" xmlns:xlink="http://www.w3.org/1999/xlink" x="0px" y="0px"
	 viewBox="0 0 24 24" enable-background="new 0 0 24 24" xml:space="preserve">
<circle fill="#1F1F22" cx="12" cy="12" r="12"/>
<path fill-rule="evenodd" clip-rule="evenodd" fill="#CDCDCD" fill-opacity="0.1" d="M16.6849995,17.4669991
	c3.0192394-2.5877304,3.3690472-7.1330776,0.7813168-10.152317s-7.1330776-3.3690467-10.152317-0.7813163
	s-3.3690469,7.1330771-0.7813168,10.152317c0.2400408,0.2800674,0.5012488,0.5412769,0.7813168,0.7813168l-1.5629997,1.8220005
	C3.6214859,17.4665375,2.3969173,14.8028898,2.4000001,12c0-5.3019333,4.2980666-9.6000004,9.6000004-9.6000004
	S21.6000004,6.6980667,21.6000004,12c0.0031261,2.8034-1.2218475,5.4674988-3.3519993,7.2900009
	C18.2480011,19.2900009,16.6850014,17.467001,16.6849995,17.4669991z"/>
<rect x="9.5531921" y="11.0448408" fill="#EEEEEE" width="4.8936172" height="1.2636702"/>
</svg>
